<svg id="my-svg" width="1318.7421875" xmlns="http://www.w3.org/2000/svg" xmlns:xlink="http://www.w3.org/1999/xlink" class="flowchart" height="1064" viewBox="0 0 1318.7421875 1064" role="graphics-document document" aria-roledescription="flowchart-v2" style="background-color: transparent;"><style>#my-svg{font-family:"trebuchet ms",verdana,arial,sans-serif;font-size:16px;fill:#333;}@keyframes edge-animation-frame{from{stroke-dashoffset:0;}}@keyframes dash{to{stroke-dashoffset:0;}}#my-svg .edge-animation-slow{stroke-dasharray:9,5!important;stroke-dashoffset:900;animation:dash 50s linear infinite;stroke-linecap:round;}#my-svg .edge-animation-fast{stroke-dasharray:9,5!important;stroke-dashoffset:900;animation:dash 20s linear infinite;stroke-linecap:round;}#my-svg .error-icon{fill:#552222;}#my-svg .error-text{fill:#552222;stroke:#552222;}#my-svg .edge-thickness-normal{stroke-width:1px;}#my-svg .edge-thickness-thick{stroke-width:3.5px;}#my-svg .edge-pattern-solid{stroke-dasharray:0;}#my-svg .edge-thickness-invisible{stroke-width:0;fill:none;}#my-svg .edge-pattern-dashed{stroke-dasharray:3;}#my-svg .edge-pattern-dotted{stroke-dasharray:2;}#my-svg .marker{fill:#333333;stroke:#333333;}#my-svg .marker.cross{stroke:#333333;}#my-svg svg{font-family:"trebuchet ms",verdana,arial,sans-serif;font-size:16px;}#my-svg p{margin:0;}#my-svg .label{font-family:"trebuchet ms",verdana,arial,sans-serif;color:#333;}#my-svg .cluster-label text{fill:#333;}#my-svg .cluster-label span{color:#333;}#my-svg .cluster-label span p{background-color:transparent;}#my-svg .label text,#my-svg span{fill:#333;color:#333;}#my-svg .node rect,#my-svg .node circle,#my-svg .node ellipse,#my-svg .node polygon,#my-svg .node path{fill:#ECECFF;stroke:#9370DB;stroke-width:1px;}#my-svg .rough-node .label text,#my-svg .node .label text,#my-svg .image-shape .label,#my-svg .icon-shape .label{text-anchor:middle;}#my-svg .node .katex path{fill:#000;stroke:#000;stroke-width:1px;}#my-svg .rough-node .label,#my-svg .node .label,#my-svg .image-shape .label,#my-svg .icon-shape .label{text-align:center;}#my-svg .node.clickable{cursor:pointer;}#my-svg .root .anchor path{fill:#333333!important;stroke-width:0;stroke:#333333;}#my-svg .arrowheadPath{fill:#333333;}#my-svg .edgePath .path{stroke:#333333;stroke-width:1px;}#my-svg .flowchart-link{stroke:#333333;fill:none;}#my-svg .edgeLabel{background-color:rgba(232,232,232, 0.8);text-align:center;}#my-svg .edgeLabel p{background-color:rgba(232,232,232, 0.8);}#my-svg .edgeLabel rect{opacity:0.5;background-color:rgba(232,232,232, 0.8);fill:rgba(232,232,232, 0.8);}#my-svg .labelBkg{background-color:rgba(232, 232, 232, 0.5);}#my-svg .cluster rect{fill:#ffffde;stroke:#aaaa33;stroke-width:1px;}#my-svg .cluster text{fill:#333;}#my-svg .cluster span{color:#333;}#my-svg div.mermaidTooltip{position:absolute;text-align:center;max-width:200px;padding:2px;font-family:"trebuchet ms",verdana,arial,sans-serif;font-size:12px;background:hsl(80, 100%, 96.2745098039%);border:1px solid #aaaa33;border-radius:2px;pointer-events:none;z-index:100;}#my-svg .flowchartTitleText{text-anchor:middle;font-size:18px;fill:#333;}#my-svg rect.text{fill:none;stroke-width:0;}#my-svg .icon-shape,#my-svg .image-shape{background-color:rgba(232,232,232, 0.8);text-align:center;}#my-svg .icon-shape p,#my-svg .image-shape p{background-color:rgba(232,232,232, 0.8);padding:2px;}#my-svg .icon-shape .label rect,#my-svg .image-shape .label rect{opacity:0.5;background-color:rgba(232,232,232, 0.8);fill:rgba(232,232,232, 0.8);}#my-svg .label-icon{display:inline-block;height:1em;overflow:visible;vertical-align:-0.125em;}#my-svg .node .label-icon path{fill:currentColor;stroke:revert;stroke-width:revert;}#my-svg .node .neo-node{stroke:#9370DB;}#my-svg [data-look="neo"].node rect,#my-svg [data-look="neo"].cluster rect,#my-svg [data-look="neo"].node polygon{stroke:#9370DB;filter:drop-shadow(1px 2px 2px rgba(185, 185, 185, 1));}#my-svg [data-look="neo"].node path{stroke:#9370DB;stroke-width:1px;}#my-svg [data-look="neo"].node .outer-path{filter:drop-shadow(1px 2px 2px rgba(185, 185, 185, 1));}#my-svg [data-look="neo"].node .neo-line path{stroke:#9370DB;filter:none;}#my-svg [data-look="neo"].node circle{stroke:#9370DB;filter:drop-shadow(1px 2px 2px rgba(185, 185, 185, 1));}#my-svg [data-look="neo"].node circle .state-start{fill:#000000;}#my-svg [data-look="neo"].icon-shape .icon{fill:#9370DB;filter:drop-shadow(1px 2px 2px rgba(185, 185, 185, 1));}#my-svg [data-look="neo"].icon-shape .icon-neo path{stroke:#9370DB;filter:drop-shadow(1px 2px 2px rgba(185, 185, 185, 1));}#my-svg :root{--mermaid-font-family:"trebuchet ms",verdana,arial,sans-serif;}#my-svg .pwr rect{fill:#fef3c7!important;stroke:#d97706!important;stroke-width:1.5px!important;color:#000!important;}#my-svg .pwr polygon{fill:#fef3c7!important;stroke:#d97706!important;stroke-width:1.5px!important;color:#000!important;}#my-svg .pwr ellipse{fill:#fef3c7!important;stroke:#d97706!important;stroke-width:1.5px!important;color:#000!important;}#my-svg .pwr circle{fill:#fef3c7!important;stroke:#d97706!important;stroke-width:1.5px!important;color:#000!important;}#my-svg .pwr path{fill:#fef3c7!important;stroke:#d97706!important;stroke-width:1.5px!important;color:#000!important;}#my-svg .pwr tspan{fill:#000!important;}#my-svg .mcu rect{fill:#dbeafe!important;stroke:#2563eb!important;stroke-width:2px!important;color:#000!important;}#my-svg .mcu polygon{fill:#dbeafe!important;stroke:#2563eb!important;stroke-width:2px!important;color:#000!important;}#my-svg .mcu ellipse{fill:#dbeafe!important;stroke:#2563eb!important;stroke-width:2px!important;color:#000!important;}#my-svg .mcu circle{fill:#dbeafe!important;stroke:#2563eb!important;stroke-width:2px!important;color:#000!important;}#my-svg .mcu path{fill:#dbeafe!important;stroke:#2563eb!important;stroke-width:2px!important;color:#000!important;}#my-svg .mcu tspan{fill:#000!important;}#my-svg .sens rect{fill:#d1fae5!important;stroke:#059669!important;stroke-width:1.5px!important;color:#000!important;}#my-svg .sens polygon{fill:#d1fae5!important;stroke:#059669!important;stroke-width:1.5px!important;color:#000!important;}#my-svg .sens ellipse{fill:#d1fae5!important;stroke:#059669!important;stroke-width:1.5px!important;color:#000!important;}#my-svg .sens circle{fill:#d1fae5!important;stroke:#059669!important;stroke-width:1.5px!important;color:#000!important;}#my-svg .sens path{fill:#d1fae5!important;stroke:#059669!important;stroke-width:1.5px!important;color:#000!important;}#my-svg .sens tspan{fill:#000!important;}#my-svg .comm rect{fill:#ede9fe!important;stroke:#7c3aed!important;stroke-width:1.5px!important;color:#000!important;}#my-svg .comm polygon{fill:#ede9fe!important;stroke:#7c3aed!important;stroke-width:1.5px!important;color:#000!important;}#my-svg .comm ellipse{fill:#ede9fe!important;stroke:#7c3aed!important;stroke-width:1.5px!important;color:#000!important;}#my-svg .comm circle{fill:#ede9fe!important;stroke:#7c3aed!important;stroke-width:1.5px!important;color:#000!important;}#my-svg .comm path{fill:#ede9fe!important;stroke:#7c3aed!important;stroke-width:1.5px!important;color:#000!important;}#my-svg .comm tspan{fill:#000!important;}#my-svg .app rect{fill:#fce7f3!important;stroke:#db2777!important;stroke-width:1.5px!important;color:#000!important;}#my-svg .app polygon{fill:#fce7f3!important;stroke:#db2777!important;stroke-width:1.5px!important;color:#000!important;}#my-svg .app ellipse{fill:#fce7f3!important;stroke:#db2777!important;stroke-width:1.5px!important;color:#000!important;}#my-svg .app circle{fill:#fce7f3!important;stroke:#db2777!important;stroke-width:1.5px!important;color:#000!important;}#my-svg .app path{fill:#fce7f3!important;stroke:#db2777!important;stroke-width:1.5px!important;color:#000!important;}#my-svg .app tspan{fill:#000!important;}</style><g><marker id="my-svg_flowchart-v2-pointEnd" class="marker flowchart-v2" viewBox="0 0 10 10" refX="5" refY="5" markerUnits="userSpaceOnUse" markerWidth="8" markerHeight="8" orient="auto"><path d="M 0 0 L 10 5 L 0 10 z" class="arrowMarkerPath" style="stroke-width: 1; stroke-dasharray: 1, 0;"/></marker><marker id="my-svg_flowchart-v2-pointStart" class="marker flowchart-v2" viewBox="0 0 10 10" refX="4.5" refY="5" markerUnits="userSpaceOnUse" markerWidth="8" markerHeight="8" orient="auto"><path d="M 0 5 L 10 10 L 10 0 z" class="arrowMarkerPath" style="stroke-width: 1; stroke-dasharray: 1, 0;"/></marker><marker id="my-svg_flowchart-v2-pointEnd-margin" class="marker flowchart-v2" viewBox="0 0 11.5 14" refX="11.5" refY="7" markerUnits="userSpaceOnUse" markerWidth="10.5" markerHeight="14" orient="auto"><path d="M 0 0 L 11.5 7 L 0 14 z" class="arrowMarkerPath" style="stroke-width: 0; stroke-dasharray: 1, 0;"/></marker><marker id="my-svg_flowchart-v2-pointStart-margin" class="marker flowchart-v2" viewBox="0 0 11.5 14" refX="1" refY="7" markerUnits="userSpaceOnUse" markerWidth="11.5" markerHeight="14" orient="auto"><polygon points="0,7 11.5,14 11.5,0" class="arrowMarkerPath" style="stroke-width: 0; stroke-dasharray: 1, 0;"/></marker><marker id="my-svg_flowchart-v2-circleEnd" class="marker flowchart-v2" viewBox="0 0 10 10" refX="11" refY="5" markerUnits="userSpaceOnUse" markerWidth="11" markerHeight="11" orient="auto"><circle cx="5" cy="5" r="5" class="arrowMarkerPath" style="stroke-width: 1; stroke-dasharray: 1, 0;"/></marker><marker id="my-svg_flowchart-v2-circleStart" class="marker flowchart-v2" viewBox="0 0 10 10" refX="-1" refY="5" markerUnits="userSpaceOnUse" markerWidth="11" markerHeight="11" orient="auto"><circle cx="5" cy="5" r="5" class="arrowMarkerPath" style="stroke-width: 1; stroke-dasharray: 1, 0;"/></marker><marker id="my-svg_flowchart-v2-circleEnd-margin" class="marker flowchart-v2" viewBox="0 0 10 10" refY="5" refX="12.25" markerUnits="userSpaceOnUse" markerWidth="14" markerHeight="14" orient="auto"><circle cx="5" cy="5" r="5" class="arrowMarkerPath" style="stroke-width: 0; stroke-dasharray: 1, 0;"/></marker><marker id="my-svg_flowchart-v2-circleStart-margin" class="marker flowchart-v2" viewBox="0 0 10 10" refX="-2" refY="5" markerUnits="userSpaceOnUse" markerWidth="14" markerHeight="14" orient="auto"><circle cx="5" cy="5" r="5" class="arrowMarkerPath" style="stroke-width: 0; stroke-dasharray: 1, 0;"/></marker><marker id="my-svg_flowchart-v2-crossEnd" class="marker cross flowchart-v2" viewBox="0 0 11 11" refX="12" refY="5.2" markerUnits="userSpaceOnUse" markerWidth="11" markerHeight="11" orient="auto"><path d="M 1,1 l 9,9 M 10,1 l -9,9" class="arrowMarkerPath" style="stroke-width: 2; stroke-dasharray: 1, 0;"/></marker><marker id="my-svg_flowchart-v2-crossStart" class="marker cross flowchart-v2" viewBox="0 0 11 11" refX="-1" refY="5.2" markerUnits="userSpaceOnUse" markerWidth="11" markerHeight="11" orient="auto"><path d="M 1,1 l 9,9 M 10,1 l -9,9" class="arrowMarkerPath" style="stroke-width: 2; stroke-dasharray: 1, 0;"/></marker><marker id="my-svg_flowchart-v2-crossEnd-margin" class="marker cross flowchart-v2" viewBox="0 0 15 15" refX="17.7" refY="7.5" markerUnits="userSpaceOnUse" markerWidth="12" markerHeight="12" orient="auto"><path d="M 1,1 L 14,14 M 1,14 L 14,1" class="arrowMarkerPath" style="stroke-width: 2.5;"/></marker><marker id="my-svg_flowchart-v2-crossStart-margin" class="marker cross flowchart-v2" viewBox="0 0 15 15" refX="-3.5" refY="7.5" markerUnits="userSpaceOnUse" markerWidth="12" markerHeight="12" orient="auto"><path d="M 1,1 L 14,14 M 1,14 L 14,1" class="arrowMarkerPath" style="stroke-width: 2.5; stroke-dasharray: 1, 0;"/></marker><g class="root"><g class="clusters"><g class="cluster" id="my-svg-COMM" data-look="classic"><rect style="" x="487.69140625" y="650" width="520.734375" height="248"/><g class="cluster-label" transform="translate(646.66015625, 650)"><g><rect class="background" style="stroke: none"/><text y="-10.1" style=""><tspan class="text-outer-tspan row" x="0" y="-0.1em" dy="1.1em"><tspan font-style="normal" class="text-inner-tspan" font-weight="normal">Storage</tspan><tspan font-style="normal" class="text-inner-tspan" font-weight="normal"> and</tspan><tspan font-style="normal" class="text-inner-tspan" font-weight="normal"> Communication</tspan></tspan></text></g></g></g><g class="cluster" id="my-svg-SENSORS" data-look="classic"><rect style="" x="55.4140625" y="230" width="1075.046875" height="152"/><g class="cluster-label" transform="translate(446.1875, 230)"><g><rect class="background" style="stroke: none"/><text y="-10.1" style=""><tspan class="text-outer-tspan row" x="0" y="-0.1em" dy="1.1em"><tspan font-style="normal" class="text-inner-tspan" font-weight="normal">Sensors</tspan><tspan font-style="normal" class="text-inner-tspan" font-weight="normal"> (3V3</tspan><tspan font-style="normal" class="text-inner-tspan" font-weight="normal"> from</tspan><tspan font-style="normal" class="text-inner-tspan" font-weight="normal"> Nucleo</tspan><tspan font-style="normal" class="text-inner-tspan" font-weight="normal"> onboard</tspan><tspan font-style="normal" class="text-inner-tspan" font-weight="normal"> LDO)</tspan></tspan></text></g></g></g></g><g class="edgePaths"><path d="M170.203,345L170.203,351.167C170.203,357.333,170.203,369.667,170.203,381.75C170.203,393.833,170.203,405.667,240.686,424.181C311.169,442.696,452.135,467.891,522.618,480.489L593.101,493.087" id="my-svg-L_BME_STM_0" class="edge-thickness-normal edge-pattern-solid edge-thickness-normal edge-pattern-solid flowchart-link" style="stroke:#475569;stroke-width:1.5px;;;stroke:#475569;stroke-width:1.5px" data-edge="true" data-et="edge" data-id="L_BME_STM_0" data-points="W3sieCI6MTcwLjIwMzEyNSwieSI6MzQ1fSx7IngiOjE3MC4yMDMxMjUsInkiOjM4Mn0seyJ4IjoxNzAuMjAzMTI1LCJ5Ijo0MTcuNX0seyJ4Ijo1OTcuMDM5MDYyNSwieSI6NDkzLjc5MDcyMTU3NjQxMDUzfV0=" data-look="classic" marker-end="url(#my-svg_flowchart-v2-pointEnd__475569)"/><path d="M369.125,345L369.125,351.167C369.125,357.333,369.125,369.667,369.125,381.75C369.125,393.833,369.125,405.667,406.469,422.028C443.812,438.39,518.5,459.279,555.843,469.724L593.187,480.169" id="my-svg-L_SGP_STM_0" class="edge-thickness-normal edge-pattern-solid edge-thickness-normal edge-pattern-solid flowchart-link" style="stroke:#475569;stroke-width:1.5px;;;stroke:#475569;stroke-width:1.5px" data-edge="true" data-et="edge" data-id="L_SGP_STM_0" data-points="W3sieCI6MzY5LjEyNSwieSI6MzQ1fSx7IngiOjM2OS4xMjUsInkiOjM4Mn0seyJ4IjozNjkuMTI1LCJ5Ijo0MTcuNX0seyJ4Ijo1OTcuMDM5MDYyNSwieSI6NDgxLjI0NTk2MjU1Mzc5NTY2fV0=" data-look="classic" marker-end="url(#my-svg_flowchart-v2-pointEnd__475569)"/><path d="M600.055,345L600.055,351.167C600.055,357.333,600.055,369.667,600.055,381.75C600.055,393.833,600.055,405.667,606.82,417.08C613.585,428.493,627.116,439.485,633.881,444.981L640.647,450.478" id="my-svg-L_MICS_STM_0" class="edge-thickness-normal edge-pattern-solid edge-thickness-normal edge-pattern-solid flowchart-link" style="stroke:#475569;stroke-width:1.5px;;;stroke:#475569;stroke-width:1.5px" data-edge="true" data-et="edge" data-id="L_MICS_STM_0" data-points="W3sieCI6NjAwLjA1NDY4NzUsInkiOjM0NX0seyJ4Ijo2MDAuMDU0Njg3NSwieSI6MzgyfSx7IngiOjYwMC4wNTQ2ODc1LCJ5Ijo0MTcuNX0seyJ4Ijo2NDMuNzUxMTEwNDA2MDkxNCwieSI6NDUzfV0=" data-look="classic" marker-end="url(#my-svg_flowchart-v2-pointEnd__475569)"/><path d="M842.539,357L842.539,361.167C842.539,365.333,842.539,373.667,842.539,383.75C842.539,393.833,842.539,405.667,835.774,417.08C829.008,428.493,815.478,439.485,808.713,444.981L801.947,450.478" id="my-svg-L_PMS_STM_0" class="edge-thickness-normal edge-pattern-solid edge-thickness-normal edge-pattern-solid flowchart-link" style="stroke:#475569;stroke-width:1.5px;;;stroke:#475569;stroke-width:1.5px" data-edge="true" data-et="edge" data-id="L_PMS_STM_0" data-points="W3sieCI6ODQyLjUzOTA2MjUsInkiOjM1N30seyJ4Ijo4NDIuNTM5MDYyNSwieSI6MzgyfSx7IngiOjg0Mi41MzkwNjI1LCJ5Ijo0MTcuNX0seyJ4Ijo3OTguODQyNjM5NTkzOTA4NiwieSI6NDUzfV0=" data-look="classic" marker-end="url(#my-svg_flowchart-v2-pointEnd__475569)"/><path d="M1034.344,345L1034.344,351.167C1034.344,357.333,1034.344,369.667,1034.344,381.75C1034.344,393.833,1034.344,405.667,1003.515,421.284C972.686,436.901,911.028,456.301,880.199,466.001L849.37,475.702" id="my-svg-L_GPS_STM_0" class="edge-thickness-normal edge-pattern-solid edge-thickness-normal edge-pattern-solid flowchart-link" style="stroke:#475569;stroke-width:1.5px;;;stroke:#475569;stroke-width:1.5px" data-edge="true" data-et="edge" data-id="L_GPS_STM_0" data-points="W3sieCI6MTAzNC4zNDM3NSwieSI6MzQ1fSx7IngiOjEwMzQuMzQzNzUsInkiOjM4Mn0seyJ4IjoxMDM0LjM0Mzc1LCJ5Ijo0MTcuNX0seyJ4Ijo4NDUuNTU0Njg3NSwieSI6NDc2LjkwMjM1ODM3Mjg0NzV9XQ==" data-look="classic" marker-end="url(#my-svg_flowchart-v2-pointEnd__475569)"/><path d="M641.23,579L633.711,584.917C626.191,590.833,611.152,602.667,603.633,614.5C596.113,626.333,596.113,638.167,596.113,657.583C596.113,677,596.113,704,596.113,717.5L596.113,731" id="my-svg-L_STM_SD_0" class="edge-thickness-normal edge-pattern-solid edge-thickness-normal edge-pattern-solid flowchart-link" style="stroke:#475569;stroke-width:1.5px;;;stroke:#475569;stroke-width:1.5px" data-edge="true" data-et="edge" data-id="L_STM_SD_0" data-points="W3sieCI6NjQxLjIzMDIxMDk3NzE1NzQsInkiOjU3OX0seyJ4Ijo1OTYuMTEzMjgxMjUsInkiOjYxNC41fSx7IngiOjU5Ni4xMTMyODEyNSwieSI6NjUwfSx7IngiOjU5Ni4xMTMyODEyNSwieSI6NzM1fV0=" data-look="classic" marker-end="url(#my-svg_flowchart-v2-pointEnd__475569)"/><path d="M804.507,581.473L811.503,586.978C818.498,592.482,832.489,603.491,839.485,614.912C846.48,626.333,846.48,638.167,846.48,647.583C846.48,657,846.48,664,846.48,667.5L846.48,671" id="my-svg-L_STM_ESP_0" class="edge-thickness-normal edge-pattern-solid edge-thickness-normal edge-pattern-solid flowchart-link" style="stroke:#475569;stroke-width:1.5px;;;stroke:#475569;stroke-width:1.5px" data-edge="true" data-et="edge" data-id="L_STM_ESP_0" data-points="W3sieCI6ODAxLjM2MzUzOTAyMjg0MjYsInkiOjU3OX0seyJ4Ijo4NDYuNDgwNDY4NzUsInkiOjYxNC41fSx7IngiOjg0Ni40ODA0Njg3NSwieSI6NjUwfSx7IngiOjg0Ni40ODA0Njg3NSwieSI6Njc1fV0=" data-look="classic" marker-start="url(#my-svg_flowchart-v2-pointStart__475569)" marker-end="url(#my-svg_flowchart-v2-pointEnd__475569)"/><path d="M846.48,873L846.48,877.167C846.48,881.333,846.48,889.667,846.48,899.75C846.48,909.833,846.48,921.667,846.555,932.917C846.629,944.167,846.777,954.834,846.851,960.167L846.925,965.5" id="my-svg-L_ESP_APP_0" class="edge-thickness-normal edge-pattern-solid edge-thickness-normal edge-pattern-solid flowchart-link" style="stroke:#475569;stroke-width:1.5px;;;stroke:#475569;stroke-width:1.5px" data-edge="true" data-et="edge" data-id="L_ESP_APP_0" data-points="W3sieCI6ODQ2LjQ4MDQ2ODc1LCJ5Ijo4NzN9LHsieCI6ODQ2LjQ4MDQ2ODc1LCJ5Ijo4OTh9LHsieCI6ODQ2LjQ4MDQ2ODc1LCJ5Ijo5MzMuNX0seyJ4Ijo4NDYuOTgwNDY4NzUsInkiOjk2OS41fV0=" data-look="classic" marker-end="url(#my-svg_flowchart-v2-pointEnd__475569)"/><path d="M271.38,180L254.517,184.167C237.655,188.333,203.929,196.667,187.066,205C170.203,213.333,170.203,221.667,170.203,225.833L170.203,230" id="my-svg-L_POWER_SENSORS_0" class="edge-thickness-invisible edge-pattern-solid" style="stroke:#475569;stroke-width:1.5px;;;stroke:#475569;stroke-width:1.5px" data-edge="true" data-et="edge" data-id="L_POWER_SENSORS_0" data-points="W3sieCI6MjcxLjM4MDI3ODcxNjIxNjIsInkiOjE4MH0seyJ4IjoxNzAuMjAzMTI1LCJ5IjoyMDV9LHsieCI6MTcwLjIwMzEyNSwieSI6MjMwfSx7IngiOjE3MC4yMDMxMjUsInkiOjI2N31d" data-look="classic"/><path d="M1092.95,180L1115.892,184.167C1138.834,188.333,1184.718,196.667,1207.66,205C1230.602,213.333,1230.602,221.667,1230.602,238.5C1230.602,255.333,1230.602,280.667,1230.602,306C1230.602,331.333,1230.602,356.667,1230.602,375.25C1230.602,393.833,1230.602,405.667,1167.082,423.868C1103.562,442.07,976.522,466.639,913.002,478.924L849.482,491.209" id="my-svg-L_POWER_STM_0" class="edge-thickness-thick edge-pattern-solid edge-thickness-normal edge-pattern-solid flowchart-link" style="stroke:#475569;stroke-width:1.5px;;;stroke:#475569;stroke-width:1.5px" data-edge="true" data-et="edge" data-id="L_POWER_STM_0" data-points="W3sieCI6MTA5Mi45NTAyMzkzMDE4MDE3LCJ5IjoxODB9LHsieCI6MTIzMC42MDE1NjI1LCJ5IjoyMDV9LHsieCI6MTIzMC42MDE1NjI1LCJ5IjoyMzB9LHsieCI6MTIzMC42MDE1NjI1LCJ5IjozMDZ9LHsieCI6MTIzMC42MDE1NjI1LCJ5IjozODJ9LHsieCI6MTIzMC42MDE1NjI1LCJ5Ijo0MTcuNX0seyJ4Ijo4NDUuNTU0Njg3NSwieSI6NDkxLjk2ODQyMzU1NTM5ODh9XQ==" data-look="classic" marker-end="url(#my-svg_flowchart-v2-pointEnd__475569)"/></g><g class="edgeLabels"><g class="edgeLabel" transform="translate(170.203125, 417.5)"><g class="label" data-id="L_BME_STM_0" transform="translate(0, -10.5)"><g><rect class="background" style="" x="-14.453125" y="0" width="28.90625" height="21"/><text y="-10.1" text-anchor="middle" style=""><tspan class="text-outer-tspan row" x="0" y="-0.1em" dy="1.1em" text-anchor="middle"><tspan font-style="normal" class="text-inner-tspan" font-weight="normal">I2C</tspan></tspan></text></g></g></g><g class="edgeLabel" transform="translate(369.125, 417.5)"><g class="label" data-id="L_SGP_STM_0" transform="translate(0, -10.5)"><g><rect class="background" style="" x="-14.453125" y="0" width="28.90625" height="21"/><text y="-10.1" text-anchor="middle" style=""><tspan class="text-outer-tspan row" x="0" y="-0.1em" dy="1.1em" text-anchor="middle"><tspan font-style="normal" class="text-inner-tspan" font-weight="normal">I2C</tspan></tspan></text></g></g></g><g class="edgeLabel" transform="translate(600.0546875, 417.5)"><g class="label" data-id="L_MICS_STM_0" transform="translate(0, -10.5)"><g><rect class="background" style="" x="-14.453125" y="0" width="28.90625" height="21"/><text y="-10.1" text-anchor="middle" style=""><tspan class="text-outer-tspan row" x="0" y="-0.1em" dy="1.1em" text-anchor="middle"><tspan font-style="normal" class="text-inner-tspan" font-weight="normal">I2C</tspan></tspan></text></g></g></g><g class="edgeLabel" transform="translate(842.5390625, 417.5)"><g class="label" data-id="L_PMS_STM_0" transform="translate(-0.046875, -10.5)"><g><rect class="background" style="" x="-28.0859375" y="0" width="56.265625" height="21"/><text y="-10.1" text-anchor="middle" style=""><tspan class="text-outer-tspan row" x="0" y="-0.1em" dy="1.1em" text-anchor="middle"><tspan font-style="normal" class="text-inner-tspan" font-weight="normal">UART1</tspan></tspan></text></g></g></g><g class="edgeLabel" transform="translate(1034.34375, 417.5)"><g class="label" data-id="L_GPS_STM_0" transform="translate(-0.046875, -10.5)"><g><rect class="background" style="" x="-28.0859375" y="0" width="56.265625" height="21"/><text y="-10.1" text-anchor="middle" style=""><tspan class="text-outer-tspan row" x="0" y="-0.1em" dy="1.1em" text-anchor="middle"><tspan font-style="normal" class="text-inner-tspan" font-weight="normal">UART2</tspan></tspan></text></g></g></g><g class="edgeLabel" transform="translate(596.11328125, 614.5)"><g class="label" data-id="L_STM_SD_0" transform="translate(0, -10.5)"><g><rect class="background" style="" x="-14.8984375" y="0" width="29.796875" height="21"/><text y="-10.1" text-anchor="middle" style=""><tspan class="text-outer-tspan row" x="0" y="-0.1em" dy="1.1em" text-anchor="middle"><tspan font-style="normal" class="text-inner-tspan" font-weight="normal">SPI</tspan></tspan></text></g></g></g><g class="edgeLabel" transform="translate(846.48046875, 614.5)"><g class="label" data-id="L_STM_ESP_0" transform="translate(0, -10.5)"><g><rect class="background" style="" x="-51.6484375" y="0" width="103.296875" height="21"/><text y="-10.1" text-anchor="middle" style=""><tspan class="text-outer-tspan row" x="0" y="-0.1em" dy="1.1em" text-anchor="middle"><tspan font-style="normal" class="text-inner-tspan" font-weight="normal">UART3</tspan><tspan font-style="normal" class="text-inner-tspan" font-weight="normal"> JSON</tspan></tspan></text></g></g></g><g class="edgeLabel" transform="translate(846.48046875, 933.5)"><g class="label" data-id="L_ESP_APP_0" transform="translate(-0.109375, -10.5)"><g><rect class="background" style="" x="-46" y="0" width="92.21875" height="21"/><text y="-10.1" text-anchor="middle" style=""><tspan class="text-outer-tspan row" x="0" y="-0.1em" dy="1.1em" text-anchor="middle"><tspan font-style="normal" class="text-inner-tspan" font-weight="normal">WiFi</tspan><tspan font-style="normal" class="text-inner-tspan" font-weight="normal"> /</tspan><tspan font-style="normal" class="text-inner-tspan" font-weight="normal"> REST</tspan></tspan></text></g></g></g><g class="edgeLabel"><g class="label" data-id="L_POWER_SENSORS_0" transform="translate(0, 0)"><text y="-10.1" text-anchor="middle"><tspan class="text-outer-tspan row" x="0" y="-0.1em" dy="1.1em" text-anchor="middle"/></text></g></g><g><rect class="background" style="stroke: none"/></g><g class="edgeLabel" transform="translate(1230.6015625, 306)"><g class="label" data-id="L_POWER_STM_0" transform="translate(-0.1640625, -19.299999237060547)"><g><rect class="background" style="" x="-79.9765625" y="0" width="160.28125" height="38.599998474121094"/><text y="-10.1" text-anchor="middle" style=""><tspan class="text-outer-tspan row" x="0" y="-0.1em" dy="1.1em" text-anchor="middle"><tspan font-style="normal" class="text-inner-tspan" font-weight="normal">5V</tspan><tspan font-style="normal" class="text-inner-tspan" font-weight="normal"> rail</tspan><tspan font-style="normal" class="text-inner-tspan" font-weight="normal"> →</tspan><tspan font-style="normal" class="text-inner-tspan" font-weight="normal"> PMS5003,</tspan></tspan><tspan class="text-outer-tspan row" x="0" y="1em" dy="1.1em" text-anchor="middle"><tspan font-style="normal" class="text-inner-tspan" font-weight="normal">STM32</tspan><tspan font-style="normal" class="text-inner-tspan" font-weight="normal"> E5V,</tspan><tspan font-style="normal" class="text-inner-tspan" font-weight="normal"> XIAO</tspan><tspan font-style="normal" class="text-inner-tspan" font-weight="normal"> 5V</tspan></tspan></text></g></g></g></g><g class="nodes"><g class="root" transform="translate(0, 0)"><g class="clusters"><g class="cluster" id="my-svg-POWER" data-look="classic"><rect style="" x="8" y="8" width="1222.859375" height="172"/><g class="cluster-label" transform="translate(573.625, 8)"><g><rect class="background" style="stroke: none"/><text y="-10.1" style=""><tspan class="text-outer-tspan row" x="0" y="-0.1em" dy="1.1em"><tspan font-style="normal" class="text-inner-tspan" font-weight="normal">Power</tspan><tspan font-style="normal" class="text-inner-tspan" font-weight="normal"> Chain</tspan></tspan></text></g></g></g></g><g class="edgePaths"><path d="M188.219,94L194.469,94C200.719,94,213.219,94,225.052,94C236.885,94,248.052,94,253.635,94L259.219,94" id="my-svg-L_SOL_BUCK_0" class="edge-thickness-normal edge-pattern-solid edge-thickness-normal edge-pattern-solid flowchart-link" style="stroke:#475569;stroke-width:1.5px;;;stroke:#475569;stroke-width:1.5px" data-edge="true" data-et="edge" data-id="L_SOL_BUCK_0" data-points="W3sieCI6MTg4LjIxODc1LCJ5Ijo5NH0seyJ4IjoyMjUuNzE4NzUsInkiOjk0fSx7IngiOjI2My4yMTg3NSwieSI6OTR9XQ==" data-look="classic" marker-end="url(#my-svg_flowchart-v2-pointEnd__475569)"/><path d="M440.609,94L446.859,94C453.109,94,465.609,94,477.443,94C489.276,94,500.443,94,506.026,94L511.609,94" id="my-svg-L_BUCK_CHG_0" class="edge-thickness-normal edge-pattern-solid edge-thickness-normal edge-pattern-solid flowchart-link" style="stroke:#475569;stroke-width:1.5px;;;stroke:#475569;stroke-width:1.5px" data-edge="true" data-et="edge" data-id="L_BUCK_CHG_0" data-points="W3sieCI6NDQwLjYwOTM3NSwieSI6OTR9LHsieCI6NDc4LjEwOTM3NSwieSI6OTR9LHsieCI6NTE1LjYwOTM3NSwieSI6OTR9XQ==" data-look="classic" marker-end="url(#my-svg_flowchart-v2-pointEnd__475569)"/><path d="M679.219,94L684.802,94C690.385,94,701.552,94,712.719,94C723.885,94,735.052,94,740.635,94L746.219,94" id="my-svg-L_CHG_BAT_0" class="edge-thickness-normal edge-pattern-solid edge-thickness-normal edge-pattern-solid flowchart-link" style="stroke:#475569;stroke-width:1.5px;;;stroke:#475569;stroke-width:1.5px" data-edge="true" data-et="edge" data-id="L_CHG_BAT_0" data-points="W3sieCI6Njc1LjIxODc1LCJ5Ijo5NH0seyJ4Ijo3MTIuNzE4NzUsInkiOjk0fSx7IngiOjc1MC4yMTg3NSwieSI6OTR9XQ==" data-look="classic" marker-start="url(#my-svg_flowchart-v2-pointStart__475569)" marker-end="url(#my-svg_flowchart-v2-pointEnd__475569)"/><path d="M972.984,94L979.234,94C985.484,94,997.984,94,1009.818,94C1021.651,94,1032.818,94,1038.401,94L1043.984,94" id="my-svg-L_BAT_BOOST_0" class="edge-thickness-normal edge-pattern-solid edge-thickness-normal edge-pattern-solid flowchart-link" style="stroke:#475569;stroke-width:1.5px;;;stroke:#475569;stroke-width:1.5px" data-edge="true" data-et="edge" data-id="L_BAT_BOOST_0" data-points="W3sieCI6OTcyLjk4NDM3NSwieSI6OTR9LHsieCI6MTAxMC40ODQzNzUsInkiOjk0fSx7IngiOjEwNDcuOTg0Mzc1LCJ5Ijo5NH1d" data-look="classic" marker-end="url(#my-svg_flowchart-v2-pointEnd__475569)"/></g><g class="edgeLabels"><g class="edgeLabel"><g class="label" data-id="L_SOL_BUCK_0" transform="translate(0, 0)"><text y="-10.1" text-anchor="middle"><tspan class="text-outer-tspan row" x="0" y="-0.1em" dy="1.1em" text-anchor="middle"/></text></g></g><g><rect class="background" style="stroke: none"/></g><g class="edgeLabel"><g class="label" data-id="L_BUCK_CHG_0" transform="translate(0, 0)"><text y="-10.1" text-anchor="middle"><tspan class="text-outer-tspan row" x="0" y="-0.1em" dy="1.1em" text-anchor="middle"/></text></g></g><g><rect class="background" style="stroke: none"/></g><g class="edgeLabel"><g class="label" data-id="L_CHG_BAT_0" transform="translate(0, 0)"><text y="-10.1" text-anchor="middle"><tspan class="text-outer-tspan row" x="0" y="-0.1em" dy="1.1em" text-anchor="middle"/></text></g></g><g><rect class="background" style="stroke: none"/></g><g class="edgeLabel"><g class="label" data-id="L_BAT_BOOST_0" transform="translate(0, 0)"><text y="-10.1" text-anchor="middle"><tspan class="text-outer-tspan row" x="0" y="-0.1em" dy="1.1em" text-anchor="middle"/></text></g></g><g><rect class="background" style="stroke: none"/></g></g><g class="nodes"><g class="node default pwr" id="my-svg-flowchart-SOL-0" data-look="classic" transform="translate(116.859375, 94)"><rect class="basic label-container" style="fill:#fef3c7 !important;stroke:#d97706 !important;stroke-width:1.5px !important" x="-71.359375" y="-39" width="142.71875" height="78"/><g class="label" style="color:#000 !important" transform="translate(-41.359375, -24)"><rect/><text text-anchor="middle" font-family="trebuchet ms, verdana, arial, sans-serif" font-size="14" fill="#000"><tspan x="41.36" y="21.00">Solar Panel</tspan><tspan x="41.36" y="37.00">9V / 2W</tspan></text></g></g><g class="node default pwr" id="my-svg-flowchart-BUCK-1" data-look="classic" transform="translate(351.9140625, 94)"><rect class="basic label-container" style="fill:#fef3c7 !important;stroke:#d97706 !important;stroke-width:1.5px !important" x="-88.6953125" y="-39" width="177.390625" height="78"/><g class="label" style="color:#000 !important" transform="translate(-58.6953125, -24)"><rect/><text text-anchor="middle" font-family="trebuchet ms, verdana, arial, sans-serif" font-size="14" fill="#000"><tspan x="58.70" y="21.00">MP1584</tspan><tspan x="58.70" y="37.00">Buck 9V → 5.5V</tspan></text></g></g><g class="node default pwr" id="my-svg-flowchart-CHG-3" data-look="classic" transform="translate(595.4140625, 94)"><rect class="basic label-container" style="fill:#fef3c7 !important;stroke:#d97706 !important;stroke-width:1.5px !important" x="-79.8046875" y="-39" width="159.609375" height="78"/><g class="label" style="color:#000 !important" transform="translate(-49.8046875, -24)"><rect/><text text-anchor="middle" font-family="trebuchet ms, verdana, arial, sans-serif" font-size="14" fill="#000"><tspan x="49.80" y="21.00">CN3065</tspan><tspan x="49.80" y="37.00">Solar Charger</tspan></text></g></g><g class="node default pwr" id="my-svg-flowchart-BAT-5" data-look="classic" transform="translate(861.6015625, 94)"><rect class="basic label-container" style="fill:#fef3c7 !important;stroke:#d97706 !important;stroke-width:1.5px !important" x="-111.3828125" y="-51" width="222.765625" height="102"/><g class="label" style="color:#000 !important" transform="translate(-81.3828125, -36)"><rect/><text text-anchor="middle" font-family="trebuchet ms, verdana, arial, sans-serif" font-size="14" fill="#000"><tspan x="81.38" y="25.00">Li-Ion 18650</tspan><tspan x="81.38" y="41.00">NCR18650B Protected</tspan><tspan x="81.38" y="57.00">3.7V</tspan></text></g></g><g class="node default pwr" id="my-svg-flowchart-BOOST-7" data-look="classic" transform="translate(1120.671875, 94)"><rect class="basic label-container" style="fill:#fef3c7 !important;stroke:#d97706 !important;stroke-width:1.5px !important" x="-72.6875" y="-51" width="145.375" height="102"/><g class="label" style="color:#000 !important" transform="translate(-42.6875, -36)"><rect/><text text-anchor="middle" font-family="trebuchet ms, verdana, arial, sans-serif" font-size="14" fill="#000"><tspan x="42.69" y="25.00">MT3608</tspan><tspan x="42.69" y="41.00">Boost → 5V</tspan><tspan x="42.69" y="57.00">Single Rail</tspan></text></g></g></g></g><g class="node default sens" id="my-svg-flowchart-BME-8" data-look="classic" transform="translate(170.203125, 306)"><rect class="basic label-container" style="fill:#d1fae5 !important;stroke:#059669 !important;stroke-width:1.5px !important" x="-79.7890625" y="-39" width="159.578125" height="78"/><g class="label" style="color:#000 !important" transform="translate(-49.7890625, -24)"><rect/><text text-anchor="middle" font-family="trebuchet ms, verdana, arial, sans-serif" font-size="14" fill="#000"><tspan x="49.79" y="21.00">BME280</tspan><tspan x="49.79" y="37.00">Temp / RH / P</tspan></text></g></g><g class="node default sens" id="my-svg-flowchart-SGP-9" data-look="classic" transform="translate(369.125, 306)"><rect class="basic label-container" style="fill:#d1fae5 !important;stroke:#059669 !important;stroke-width:1.5px !important" x="-69.1328125" y="-39" width="138.265625" height="78"/><g class="label" style="color:#000 !important" transform="translate(-39.1328125, -24)"><rect/><text text-anchor="middle" font-family="trebuchet ms, verdana, arial, sans-serif" font-size="14" fill="#000"><tspan x="39.13" y="21.00">SGP40</tspan><tspan x="39.13" y="37.00">VOC Index</tspan></text></g></g><g class="node default sens" id="my-svg-flowchart-MICS-10" data-look="classic" transform="translate(600.0546875, 306)"><rect class="basic label-container" style="fill:#d1fae5 !important;stroke:#059669 !important;stroke-width:1.5px !important" x="-111.796875" y="-39" width="223.59375" height="78"/><g class="label" style="color:#000 !important" transform="translate(-81.796875, -24)"><rect/><text text-anchor="middle" font-family="trebuchet ms, verdana, arial, sans-serif" font-size="14" fill="#000"><tspan x="81.80" y="21.00">MiCS-4514</tspan><tspan x="81.80" y="37.00">CO / NO2 / NH3 / VOC</tspan></text></g></g><g class="node default sens" id="my-svg-flowchart-PMS-11" data-look="classic" transform="translate(842.5390625, 306)"><rect class="basic label-container" style="fill:#d1fae5 !important;stroke:#059669 !important;stroke-width:1.5px !important" x="-80.6875" y="-51" width="161.375" height="102"/><g class="label" style="color:#000 !important" transform="translate(-50.6875, -36)"><rect/><text text-anchor="middle" font-family="trebuchet ms, verdana, arial, sans-serif" font-size="14" fill="#000"><tspan x="50.69" y="25.00">PMS5003</tspan><tspan x="50.69" y="41.00">PM2.5 / PM10</tspan><tspan x="50.69" y="57.00">(5V fan)</tspan></text></g></g><g class="node default sens" id="my-svg-flowchart-GPS-12" data-look="classic" transform="translate(1034.34375, 306)"><rect class="basic label-container" style="fill:#d1fae5 !important;stroke:#059669 !important;stroke-width:1.5px !important" x="-61.1171875" y="-39" width="122.234375" height="78"/><g class="label" style="color:#000 !important" transform="translate(-31.1171875, -24)"><rect/><text text-anchor="middle" font-family="trebuchet ms, verdana, arial, sans-serif" font-size="14" fill="#000"><tspan x="31.12" y="21.00">NEO-6M</tspan><tspan x="31.12" y="37.00">GPS</tspan></text></g></g><g class="node default mcu" id="my-svg-flowchart-STM-13" data-look="classic" transform="translate(721.296875, 516)"><rect class="basic label-container" style="fill:#dbeafe !important;stroke:#2563eb !important;stroke-width:2px !important" x="-124.2578125" y="-63" width="248.515625" height="126"/><g class="label" style="color:#000 !important" transform="translate(-94.2578125, -48)"><rect/><text text-anchor="middle" font-family="trebuchet ms, verdana, arial, sans-serif" font-size="14" fill="#000"><tspan x="94.26" y="29.00">STM32 Nucleo U545RE-Q</tspan><tspan x="94.26" y="45.00">Cortex-M33 @ 160MHz</tspan><tspan x="94.26" y="61.00">E5V → onboard LDO U15</tspan><tspan x="94.26" y="77.00">→ 3V3 rail (max 500mA)</tspan></text></g></g><g class="node default comm" id="my-svg-flowchart-SD-14" data-look="classic" transform="translate(596.11328125, 774)"><rect class="basic label-container" style="fill:#ede9fe !important;stroke:#7c3aed !important;stroke-width:1.5px !important" x="-73.421875" y="-39" width="146.84375" height="78"/><g class="label" style="color:#000 !important" transform="translate(-43.421875, -24)"><rect/><text text-anchor="middle" font-family="trebuchet ms, verdana, arial, sans-serif" font-size="14" fill="#000"><tspan x="43.42" y="21.00">microSD</tspan><tspan x="43.42" y="37.00">FAT32 (SPI)</tspan></text></g></g><g class="node default comm" id="my-svg-flowchart-ESP-15" data-look="classic" transform="translate(846.48046875, 774)"><rect class="basic label-container" style="fill:#ede9fe !important;stroke:#7c3aed !important;stroke-width:1.5px !important" x="-126.9453125" y="-99" width="253.890625" height="198"/><g class="label" style="color:#000 !important" transform="translate(-96.9453125, -84)"><rect/><text text-anchor="middle" font-family="trebuchet ms, verdana, arial, sans-serif" font-size="14" fill="#000"><tspan x="96.95" y="41.00">XIAO ESP32-C6</tspan><tspan x="96.95" y="57.00">WiFi 6 / BLE 5.3</tspan><tspan x="96.95" y="73.00">5V → onboard LDO → 3V3</tspan><tspan x="96.95" y="89.00">REST: /api/current</tspan><tspan x="96.95" y="105.00">/api/history</tspan><tspan x="96.95" y="121.00">/api/battery</tspan><tspan x="96.95" y="137.00">/api/location</tspan></text></g></g><g class="node default app" id="my-svg-flowchart-APP-16" data-look="classic" transform="translate(846.48046875, 1012.5)"><g class="basic label-container outer-path"><path d="M-74.875 -43.5 C-17.626441502383805 -43.5, 39.62211699523239 -43.5, 74.875 -43.5 C74.875 -43.5, 74.875 -43.5, 74.875 -43.5 C75.92324927428635 -43.46638468606707, 76.97149854857268 -43.432769372134146, 77.66205456916101 -43.41062458463963 C78.45899810087313 -43.33374440060019, 79.25594163258525 -43.25686421656074, 80.43765653327601 -43.14286560131121 C81.20334412142849 -43.01907517005465, 81.96903170958095 -42.89528473879808, 83.19040034850968 -42.697823329111344 C83.79892714153361 -42.558931059612064, 84.40745393455755 -42.420038790112784, 85.90897440006356 -42.07732654219778 C86.52248634343725 -41.89523941779438, 87.13599828681095 -41.71315229339097, 88.58220748402749 -41.28392499496409 C89.47749193056431 -40.954452042719836, 90.37277637710113 -40.624979090475584, 91.19911471225277 -40.32087894455194 C91.81427402005173 -40.04856616704186, 92.42943332785067 -39.776253389531774, 93.74894265161377 -39.192145753755234 C94.62257220779057 -38.73637377388424, 95.49620176396736 -38.28060179401324, 96.22121351217129 -37.90236362936744 C96.84561448186156 -37.52384809215381, 97.47001545155182 -37.145332554940175, 98.60576820265887 -36.45683256279507 C99.39746525628603 -35.904578970197846, 100.18916230991319 -35.35232537760063, 100.8928080763679 -34.86149255125611 C101.57984235544234 -34.31360099644424, 102.26687663451678 -33.76570944163236, 103.07293519588879 -33.12289918905735 C103.79304139705901 -32.468917790120564, 104.51314759822925 -31.81493639118377, 105.13719095125165 -31.248196729251152 C105.59503447143192 -30.77543570501295, 106.05287799161218 -30.30267468077475, 107.07709287277622 -29.24508872636729 C107.44083467621998 -28.817816906547304, 107.80457647966374 -28.390545086727315, 108.8846694873593 -27.12180638085491 C109.30255813325934 -26.56187366578769, 109.72044677915936 -26.00194095072047, 110.55249307496757 -24.88707471531439 C110.86752408387586 -24.403102487960563, 111.18255509278417 -23.91913026060674, 112.07371019073256 -22.550076721507846 C112.35759680587685 -22.046007289682187, 112.64148342102115 -21.541937857856524, 113.44206982722551 -20.120415625476333 C113.9172668071542 -19.133658929067824, 114.39246378708292 -18.146902232659315, 114.65194910118784 -17.60807542582414 C115.01526281426102 -16.71068353034058, 115.3785765273342 -15.813291634857022, 115.69837635916457 -15.023379867326902 C115.90311305205051 -14.406745568716518, 116.10784974493646 -13.790111270106133, 116.57705160709475 -12.376950018449923 C116.74686695814138 -11.729370486470367, 116.91668230918802 -11.081790954490813, 117.28436417990932 -9.67966062709968 C117.41593626887037 -9.004065758055567, 117.54750835783142 -8.328470889011456, 117.81740757852859 -6.942595433952013 C117.9322437050752 -6.051949113414605, 118.04707983162182 -5.161302792877198, 118.17399141329012 -4.177001626984165 C118.2173564920987 -3.501555520878944, 118.26072157090728 -2.8261094147737236, 118.35265040472993 -1.3942436243669998 C118.35265040472993 -0.6869186391639167, 118.35265040472993 0.020406346039166356, 118.35265040472993 1.3942436243669891 C118.3011053744258 2.197099077753239, 118.24956034412169 2.9999545311394886, 118.17399141329012 4.177001626984135 C118.04047138807974 5.2125565760047, 117.90695136286935 6.248111525025266, 117.81740757852859 6.942595433951983 C117.63160208685183 7.896667363707576, 117.44579659517505 8.85073929346317, 117.28436417990932 9.679660627099672 C117.04120093030905 10.606947485444561, 116.79803768070877 11.534234343789448, 116.57705160709475 12.376950018449895 C116.31307602356652 13.172002417239359, 116.0491004400383 13.96705481602882, 115.69837635916457 15.023379867326874 C115.29113588670214 16.029271707768018, 114.8838954142397 17.035163548209162, 114.65194910118785 17.60807542582413 C114.38971348546812 18.15261329280948, 114.12747786974838 18.697151159794828, 113.44206982722551 20.120415625476323 C113.0961173236638 20.7346893270398, 112.7501648201021 21.348963028603276, 112.07371019073256 22.550076721507835 C111.74912686842137 23.048723867403815, 111.42454354611017 23.54737101329979, 110.5524930749676 24.887074715314366 C109.90324656032192 25.75700589736532, 109.25400004567622 26.626937079416273, 108.8846694873593 27.121806380854903 C108.52025665251722 27.54986643233813, 108.15584381767513 27.977926483821356, 107.07709287277623 29.245088726367264 C106.34706594928917 29.998901461192737, 105.61703902580211 30.752714196018207, 105.13719095125167 31.24819672925114 C104.33112984450585 31.9802400991895, 103.52506873776004 32.71228346912786, 103.07293519588882 33.12289918905732 C102.25804817372315 33.77274990418007, 101.44316115155749 34.42260061930282, 100.89280807636791 34.861492551256106 C100.09410969652883 35.41862996593624, 99.29541131668974 35.97576738061637, 98.60576820265888 36.45683256279506 C97.79628185913204 36.94754794131081, 96.9867955156052 37.43826331982657, 96.22121351217129 37.90236362936744 C95.62454891244353 38.2136431688635, 95.02788431271576 38.52492270835956, 93.74894265161379 39.19214575375523 C92.9941735018406 39.52625966692848, 92.23940435206744 39.86037358010174, 91.1991147122528 40.32087894455194 C90.50128374464627 40.57768719130989, 89.80345277703977 40.83449543806784, 88.58220748402752 41.283924994964075 C87.99962535586921 41.45683231256547, 87.41704322771092 41.62973963016686, 85.90897440006361 42.077326542197774 C85.10811948140133 42.260116451315696, 84.30726456273905 42.44290636043361, 83.19040034850971 42.697823329111344 C82.33951121938571 42.83538848476436, 81.48862209026171 42.97295364041738, 80.43765653327604 43.1428656013112 C79.38547979096553 43.24436782621422, 78.33330304865504 43.345870051117245, 77.66205456916101 43.41062458463963 C76.78556021778903 43.43873205249537, 75.90906586641702 43.466839520351115, 74.87500000000001 43.5 C74.87500000000001 43.5, 74.875 43.5, 74.875 43.5 C35.813778810538466 43.5, -3.2474423789230684 43.5, -74.87499999999999 43.5 C-75.78012650477697 43.47097435471367, -76.68525300955395 43.44194870942733, -77.66205456916099 43.41062458463963 C-78.38811246369153 43.34058265276664, -79.11417035822205 43.270540720893656, -80.43765653327603 43.1428656013112 C-81.5231532709702 42.967370906913736, -82.60865000866437 42.79187621251627, -83.1904003485097 42.697823329111344 C-83.75011477731871 42.57007216321367, -84.30982920612773 42.442320997316, -85.90897440006356 42.07732654219778 C-86.56095590087679 41.88382185507715, -87.21293740169003 41.690317167956515, -88.58220748402748 41.283924994964096 C-89.48097628916723 40.9531697665449, -90.37974509430698 40.62241453812572, -91.19911471225278 40.32087894455194 C-91.81016851235987 40.05038355351149, -92.42122231246697 39.77988816247103, -93.74894265161377 39.192145753755234 C-94.46427605557548 38.81895677510132, -95.17960945953719 38.44576779644741, -96.22121351217127 37.90236362936745 C-97.0304414725458 37.41180488423705, -97.83966943292035 36.92124613910666, -98.60576820265884 36.456832562795086 C-99.38258273022626 35.91496037612296, -100.15939725779369 35.37308818945084, -100.89280807636788 34.86149255125612 C-101.48566030344216 34.388708676624724, -102.07851253051643 33.91592480199333, -103.07293519588879 33.12289918905736 C-103.55313208523347 32.68679707946798, -104.03332897457814 32.25069496987861, -105.13719095125164 31.24819672925117 C-105.78220837801896 30.582163279198316, -106.42722580478627 29.916129829145458, -107.07709287277623 29.245088726367282 C-107.73958071499771 28.4668928102678, -108.4020685572192 27.68869689416832, -108.88466948735929 27.121806380854917 C-109.4744326227607 26.33157750794396, -110.06419575816211 25.541348635033, -110.55249307496757 24.887074715314395 C-110.88798416789571 24.371670304604258, -111.22347526082385 23.85626589389412, -112.07371019073254 22.550076721507864 C-112.38243136283032 22.001911019039724, -112.6911525349281 21.45374531657158, -113.44206982722551 20.120415625476337 C-113.9028017279914 19.16369597545252, -114.3635336287573 18.2069763254287, -114.65194910118784 17.608075425824147 C-115.03071715365634 16.672511013244844, -115.40948520612483 15.736946600665538, -115.69837635916457 15.023379867326907 C-115.95487513185094 14.250846431525058, -116.21137390453733 13.47831299572321, -116.57705160709475 12.37695001844991 C-116.79858893588376 11.532132168891756, -117.02012626467275 10.687314319333602, -117.28436417990932 9.679660627099686 C-117.41741062081887 8.996495272404434, -117.55045706172841 8.313329917709185, -117.81740757852859 6.942595433952017 C-117.95365844643312 5.885860608261492, -118.08990931433766 4.8291257825709675, -118.17399141329011 4.17700162698419 C-118.21575439714653 3.526509442946693, -118.25751738100296 2.8760172589091964, -118.35265040472993 1.394243624367005 C-118.35265040472993 0.6369830491908414, -118.35265040472993 -0.12027752598532238, -118.35265040472993 -1.394243624366984 C-118.28621038475158 -2.429100564948567, -118.21977036477324 -3.463957505530151, -118.17399141329012 -4.177001626984129 C-118.09681580655601 -4.775560392766636, -118.0196401998219 -5.374119158549142, -117.81740757852859 -6.942595433951997 C-117.66431586989134 -7.72868900186013, -117.5112241612541 -8.514782569768263, -117.28436417990932 -9.679660627099667 C-117.11028275703664 -10.34350853987913, -116.93620133416397 -11.007356452658591, -116.57705160709475 -12.37695001844989 C-116.37483005641384 -12.986009109472183, -116.17260850573294 -13.595068200494476, -115.6983763591646 -15.023379867326852 C-115.36645895867169 -15.843222263730738, -115.03454155817876 -16.663064660134623, -114.65194910118785 -17.608075425824126 C-114.37025010233444 -18.193029424336242, -114.08855110348102 -18.777983422848354, -113.44206982722551 -20.12041562547632 C-113.1585845967742 -20.623772358134975, -112.87509936632289 -21.127129090793634, -112.07371019073256 -22.55007672150785 C-111.53976184305165 -23.37036476875288, -111.00581349537076 -24.190652815997908, -110.55249307496757 -24.88707471531438 C-110.10256454513086 -25.48993795596328, -109.65263601529415 -26.092801196612186, -108.8846694873593 -27.121806380854903 C-108.51585482903822 -27.555037064667417, -108.14704017071713 -27.988267748479934, -107.07709287277623 -29.245088726367264 C-106.42116092701744 -29.9223923133775, -105.76522898125864 -30.599695900387733, -105.13719095125168 -31.248196729251127 C-104.47042729613322 -31.85373383923013, -103.80366364101477 -32.459270949209134, -103.07293519588883 -33.12289918905732 C-102.59619878531527 -33.50308379000106, -102.1194623747417 -33.88326839094479, -100.89280807636791 -34.861492551256106 C-100.1017689355079 -35.413287212387544, -99.3107297946479 -35.96508187351899, -98.6057682026589 -36.45683256279505 C-97.84622381462144 -36.91727283440163, -97.08667942658398 -37.37771310600821, -96.2212135121713 -37.902363629367436 C-95.49447445731373 -38.28150292878805, -94.76773540245615 -38.660642228208665, -93.74894265161379 -39.19214575375523 C-93.21624334738094 -39.42795593377569, -92.68354404314809 -39.663766113796164, -91.1991147122528 -40.320878944551936 C-90.62253835785201 -40.53306437278482, -90.04596200345124 -40.7452498010177, -88.58220748402753 -41.283924994964075 C-87.58637369403378 -41.57948323659599, -86.59053990404003 -41.8750414782279, -85.90897440006361 -42.07732654219777 C-85.28071595061132 -42.220722433515725, -84.65245750115905 -42.36411832483368, -83.19040034850971 -42.69782332911134 C-82.10225007463275 -42.87374702666036, -81.01409980075579 -43.04967072420938, -80.43765653327604 -43.1428656013112 C-79.57382711035147 -43.226198186833855, -78.7099976874269 -43.30953077235651, -77.66205456916101 -43.41062458463963 C-76.65584773751593 -43.4428916792677, -75.64964090587085 -43.47515877389578, -74.87500000000001 -43.5 C-74.87500000000001 -43.5, -74.875 -43.5, -74.875 -43.5" stroke="none" stroke-width="0" fill="#fce7f3" style="fill:#fce7f3 !important;stroke:#db2777 !important;stroke-width:1.5px !important"/><path d="M-74.875 -43.5 C-33.65568239388149 -43.5, 7.563635212237017 -43.5, 74.875 -43.5 M-74.875 -43.5 C-40.83361859225252 -43.5, -6.792237184505041 -43.5, 74.875 -43.5 M74.875 -43.5 C74.875 -43.5, 74.875 -43.5, 74.875 -43.5 M74.875 -43.5 C74.875 -43.5, 74.875 -43.5, 74.875 -43.5 M74.875 -43.5 C75.53243678724975 -43.47891728185598, 76.18987357449949 -43.457834563711955, 77.66205456916101 -43.41062458463963 M74.875 -43.5 C75.49598997210936 -43.480086060278104, 76.11697994421871 -43.460172120556216, 77.66205456916101 -43.41062458463963 M77.66205456916101 -43.41062458463963 C78.48356284872926 -43.33137466891794, 79.3050711282975 -43.25212475319625, 80.43765653327601 -43.14286560131121 M77.66205456916101 -43.41062458463963 C78.6649345509958 -43.31387795893167, 79.66781453283056 -43.21713133322371, 80.43765653327601 -43.14286560131121 M80.43765653327601 -43.14286560131121 C81.42484530025044 -42.98326457723001, 82.41203406722487 -42.82366355314881, 83.19040034850968 -42.697823329111344 M80.43765653327601 -43.14286560131121 C81.23911735165412 -43.01329163161731, 82.04057817003223 -42.88371766192341, 83.19040034850968 -42.697823329111344 M83.19040034850968 -42.697823329111344 C84.2633914621861 -42.45292010933608, 85.33638257586254 -42.20801688956082, 85.90897440006356 -42.07732654219778 M83.19040034850968 -42.697823329111344 C84.13711142156797 -42.48174270455289, 85.08382249462625 -42.26566207999445, 85.90897440006356 -42.07732654219778 M85.90897440006356 -42.07732654219778 C86.61248365409656 -41.86852868839622, 87.31599290812957 -41.65973083459465, 88.58220748402749 -41.28392499496409 M85.90897440006356 -42.07732654219778 C86.49330315949118 -41.90390083360391, 87.0776319189188 -41.730475125010045, 88.58220748402749 -41.28392499496409 M88.58220748402749 -41.28392499496409 C89.5271534357893 -40.93617614973112, 90.47209938755111 -40.58842730449815, 91.19911471225277 -40.32087894455194 M88.58220748402749 -41.28392499496409 C89.1584778852686 -41.071852160322166, 89.7347482865097 -40.85977932568024, 91.19911471225277 -40.32087894455194 M91.19911471225277 -40.32087894455194 C92.11085581289554 -39.917278205136206, 93.0225969135383 -39.51367746572046, 93.74894265161377 -39.192145753755234 M91.19911471225277 -40.32087894455194 C91.79720653729154 -40.0561214353709, 92.39529836233032 -39.79136392618986, 93.74894265161377 -39.192145753755234 M93.74894265161377 -39.192145753755234 C94.57163494352173 -38.76294771202642, 95.39432723542967 -38.33374967029761, 96.22121351217129 -37.90236362936744 M93.74894265161377 -39.192145753755234 C94.48744034479552 -38.806871980252666, 95.22593803797727 -38.4215982067501, 96.22121351217129 -37.90236362936744 M96.22121351217129 -37.90236362936744 C96.90835163014704 -37.48581646417875, 97.59548974812277 -37.06926929899005, 98.60576820265887 -36.45683256279507 M96.22121351217129 -37.90236362936744 C96.81525256629875 -37.542253663794405, 97.40929162042622 -37.18214369822137, 98.60576820265887 -36.45683256279507 M98.60576820265887 -36.45683256279507 C99.20281817416999 -36.04035634854562, 99.7998681456811 -35.623880134296165, 100.8928080763679 -34.86149255125611 M98.60576820265887 -36.45683256279507 C99.14139532700817 -36.0832022677735, 99.67702245135747 -35.70957197275193, 100.8928080763679 -34.86149255125611 M100.8928080763679 -34.86149255125611 C101.50579733975886 -34.37264992603119, 102.11878660314983 -33.88380730080627, 103.07293519588879 -33.12289918905735 M100.8928080763679 -34.86149255125611 C101.5421117492553 -34.343690150824806, 102.1914154221427 -33.8258877503935, 103.07293519588879 -33.12289918905735 M103.07293519588879 -33.12289918905735 C103.52577234563769 -32.71164447106981, 103.9786094953866 -32.30038975308228, 105.13719095125165 -31.248196729251152 M103.07293519588879 -33.12289918905735 C103.72862250670183 -32.52742132191253, 104.38430981751486 -31.931943454767698, 105.13719095125165 -31.248196729251152 M105.13719095125165 -31.248196729251152 C105.67420455953894 -30.693686089057337, 106.21121816782622 -30.139175448863526, 107.07709287277622 -29.24508872636729 M105.13719095125165 -31.248196729251152 C105.74802098434378 -30.61746457000515, 106.35885101743591 -29.98673241075915, 107.07709287277622 -29.24508872636729 M107.07709287277622 -29.24508872636729 C107.64840136382216 -28.573997264410668, 108.2197098548681 -27.902905802454047, 108.8846694873593 -27.12180638085491 M107.07709287277622 -29.24508872636729 C107.73748267104835 -28.469357292072797, 108.3978724693205 -27.6936258577783, 108.8846694873593 -27.12180638085491 M108.8846694873593 -27.12180638085491 C109.35767437040292 -26.488022929207787, 109.83067925344653 -25.854239477560665, 110.55249307496757 -24.88707471531439 M108.8846694873593 -27.12180638085491 C109.53503720474099 -26.250372889281376, 110.18540492212269 -25.378939397707843, 110.55249307496757 -24.88707471531439 M110.55249307496757 -24.88707471531439 C111.0816529696583 -24.074143017741928, 111.61081286434903 -23.261211320169465, 112.07371019073256 -22.550076721507846 M110.55249307496757 -24.88707471531439 C111.15350670692725 -23.963756381866762, 111.7545203388869 -23.040438048419137, 112.07371019073256 -22.550076721507846 M112.07371019073256 -22.550076721507846 C112.38902652153065 -21.990200646935033, 112.70434285232876 -21.430324572362217, 113.44206982722551 -20.120415625476333 M112.07371019073256 -22.550076721507846 C112.35849508801633 -22.04441229878261, 112.64327998530011 -21.53874787605737, 113.44206982722551 -20.120415625476333 M113.44206982722551 -20.120415625476333 C113.69270291913229 -19.599970647442817, 113.94333601103908 -19.079525669409303, 114.65194910118784 -17.60807542582414 M113.44206982722551 -20.120415625476333 C113.73568024454175 -19.51072731166262, 114.029290661858 -18.901038997848907, 114.65194910118784 -17.60807542582414 M114.65194910118784 -17.60807542582414 C114.9596716053762 -16.847994891069018, 115.26739410956455 -16.08791435631389, 115.69837635916457 -15.023379867326902 M114.65194910118784 -17.60807542582414 C114.89354458155275 -17.011329918391976, 115.13514006191764 -16.41458441095981, 115.69837635916457 -15.023379867326902 M115.69837635916457 -15.023379867326902 C115.90561089249496 -14.399222471274696, 116.11284542582534 -13.77506507522249, 116.57705160709475 -12.376950018449923 M115.69837635916457 -15.023379867326902 C116.04476552080446 -13.980110902085586, 116.39115468244435 -12.936841936844269, 116.57705160709475 -12.376950018449923 M116.57705160709475 -12.376950018449923 C116.82198385116816 -11.442917217491877, 117.06691609524158 -10.50888441653383, 117.28436417990932 -9.67966062709968 M116.57705160709475 -12.376950018449923 C116.79502273429651 -11.545731641145485, 117.01299386149826 -10.714513263841047, 117.28436417990932 -9.67966062709968 M117.28436417990932 -9.67966062709968 C117.39871978140764 -9.092468782470757, 117.51307538290595 -8.505276937841833, 117.81740757852859 -6.942595433952013 M117.28436417990932 -9.67966062709968 C117.47556743909828 -8.697872301987513, 117.66677069828725 -7.716083976875343, 117.81740757852859 -6.942595433952013 M117.81740757852859 -6.942595433952013 C117.91642834494971 -6.174609923451835, 118.01544911137083 -5.406624412951658, 118.17399141329012 -4.177001626984165 M117.81740757852859 -6.942595433952013 C117.90355061893888 -6.27448702339712, 117.98969365934919 -5.606378612842228, 118.17399141329012 -4.177001626984165 M118.17399141329012 -4.177001626984165 C118.23202223149671 -3.273124791783151, 118.2900530497033 -2.3692479565821376, 118.35265040472993 -1.3942436243669998 M118.17399141329012 -4.177001626984165 C118.23817367825987 -3.1773110430886002, 118.30235594322961 -2.1776204591930357, 118.35265040472993 -1.3942436243669998 M118.35265040472993 -1.3942436243669998 C118.35265040472993 -0.8094193809169415, 118.35265040472993 -0.2245951374668833, 118.35265040472993 1.3942436243669891 M118.35265040472993 -1.3942436243669998 C118.35265040472993 -0.7592875892744835, 118.35265040472993 -0.12433155418196717, 118.35265040472993 1.3942436243669891 M118.35265040472993 1.3942436243669891 C118.31313480570167 2.0097309756496213, 118.2736192066734 2.625218326932253, 118.17399141329012 4.177001626984135 M118.35265040472993 1.3942436243669891 C118.30444159866661 2.1451346922508625, 118.25623279260331 2.8960257601347354, 118.17399141329012 4.177001626984135 M118.17399141329012 4.177001626984135 C118.03159694741368 5.281384985354201, 117.88920248153721 6.385768343724267, 117.81740757852859 6.942595433951983 M118.17399141329012 4.177001626984135 C118.0461599293712 5.168437373077686, 117.91832844545226 6.159873119171238, 117.81740757852859 6.942595433951983 M117.81740757852859 6.942595433951983 C117.64058975056872 7.850517610064679, 117.46377192260886 8.758439786177375, 117.28436417990932 9.679660627099672 M117.81740757852859 6.942595433951983 C117.69360414351267 7.578299906893462, 117.56980070849674 8.214004379834941, 117.28436417990932 9.679660627099672 M117.28436417990932 9.679660627099672 C117.03696901396783 10.62308561657775, 116.78957384802635 11.566510606055827, 116.57705160709475 12.376950018449895 M117.28436417990932 9.679660627099672 C117.0599739131212 10.535357965719623, 116.83558364633306 11.391055304339574, 116.57705160709475 12.376950018449895 M116.57705160709475 12.376950018449895 C116.30909201501815 13.184001616221503, 116.04113242294154 13.99105321399311, 115.69837635916457 15.023379867326874 M116.57705160709475 12.376950018449895 C116.27333881256466 13.29168456551218, 115.96962601803459 14.206419112574462, 115.69837635916457 15.023379867326874 M115.69837635916457 15.023379867326874 C115.30821154690985 15.987094496919548, 114.91804673465512 16.950809126512222, 114.65194910118785 17.60807542582413 M115.69837635916457 15.023379867326874 C115.30161606298057 16.003385469739865, 114.90485576679656 16.983391072152855, 114.65194910118785 17.60807542582413 M114.65194910118785 17.60807542582413 C114.2254849447543 18.49363737152956, 113.79902078832076 19.379199317234985, 113.44206982722551 20.120415625476323 M114.65194910118785 17.60807542582413 C114.34054728251539 18.254707965229034, 114.02914546384292 18.901340504633936, 113.44206982722551 20.120415625476323 M113.44206982722551 20.120415625476323 C113.15959393763654 20.621980171227033, 112.87711804804758 21.123544716977744, 112.07371019073256 22.550076721507835 M113.44206982722551 20.120415625476323 C113.13738257762554 20.661418690070658, 112.83269532802558 21.20242175466499, 112.07371019073256 22.550076721507835 M112.07371019073256 22.550076721507835 C111.54919672885016 23.3558702505448, 111.02468326696777 24.161663779581765, 110.5524930749676 24.887074715314366 M112.07371019073256 22.550076721507835 C111.71073761566542 23.10770006859471, 111.34776504059828 23.665323415681584, 110.5524930749676 24.887074715314366 M110.5524930749676 24.887074715314366 C110.18074621825737 25.385181636470723, 109.80899936154714 25.88328855762708, 108.8846694873593 27.121806380854903 M110.5524930749676 24.887074715314366 C109.94537197968002 25.700561673130114, 109.33825088439244 26.51404863094586, 108.8846694873593 27.121806380854903 M108.8846694873593 27.121806380854903 C108.26447844012769 27.850318074803457, 107.64428739289608 28.57882976875201, 107.07709287277623 29.245088726367264 M108.8846694873593 27.121806380854903 C108.3753098314272 27.720129216098226, 107.86595017549512 28.318452051341552, 107.07709287277623 29.245088726367264 M107.07709287277623 29.245088726367264 C106.38543544142297 29.959281810370708, 105.6937780100697 30.67347489437415, 105.13719095125167 31.24819672925114 M107.07709287277623 29.245088726367264 C106.66772970721242 29.667789804152854, 106.25836654164858 30.09049088193844, 105.13719095125167 31.24819672925114 M105.13719095125167 31.24819672925114 C104.57874611167487 31.755361556914014, 104.02030127209807 32.26252638457689, 103.07293519588882 33.12289918905732 M105.13719095125167 31.24819672925114 C104.44838860738459 31.873748793239887, 103.7595862635175 32.49930085722863, 103.07293519588882 33.12289918905732 M103.07293519588882 33.12289918905732 C102.21622533079204 33.806102508465045, 101.35951546569525 34.48930582787277, 100.89280807636791 34.861492551256106 M103.07293519588882 33.12289918905732 C102.20604052297821 33.81422462166746, 101.3391458500676 34.505550054277585, 100.89280807636791 34.861492551256106 M100.89280807636791 34.861492551256106 C100.41619595701017 35.19395653351395, 99.93958383765244 35.52642051577179, 98.60576820265888 36.45683256279506 M100.89280807636791 34.861492551256106 C100.33014891905177 35.25397922227749, 99.76748976173562 35.64646589329888, 98.60576820265888 36.45683256279506 M98.60576820265888 36.45683256279506 C97.72982895442878 36.98783208266254, 96.85388970619869 37.51883160253002, 96.22121351217129 37.90236362936744 M98.60576820265888 36.45683256279506 C98.11990140263991 36.7513678722368, 97.63403460262096 37.04590318167855, 96.22121351217129 37.90236362936744 M96.22121351217129 37.90236362936744 C95.6928185465962 38.178026944454835, 95.16442358102113 38.45369025954223, 93.74894265161379 39.19214575375523 M96.22121351217129 37.90236362936744 C95.39424043928486 38.333794951790765, 94.56726736639841 38.76522627421408, 93.74894265161379 39.19214575375523 M93.74894265161379 39.19214575375523 C93.220464927707 39.42608716539408, 92.69198720380022 39.660028577032925, 91.1991147122528 40.32087894455194 M93.74894265161379 39.19214575375523 C92.99668917861683 39.52514605144455, 92.24443570561989 39.85814634913387, 91.1991147122528 40.32087894455194 M91.1991147122528 40.32087894455194 C90.56219473360783 40.55527138431703, 89.92527475496286 40.78966382408212, 88.58220748402752 41.283924994964075 M91.1991147122528 40.32087894455194 C90.38447342535748 40.62067446859092, 89.56983213846217 40.9204699926299, 88.58220748402752 41.283924994964075 M88.58220748402752 41.283924994964075 C87.94958873836867 41.47168291799206, 87.31696999270983 41.65944084102005, 85.90897440006361 42.077326542197774 M88.58220748402752 41.283924994964075 C87.71102829585959 41.542486405099446, 86.83984910769165 41.80104781523482, 85.90897440006361 42.077326542197774 M85.90897440006361 42.077326542197774 C85.05552721257824 42.27212029347794, 84.20208002509288 42.4669140447581, 83.19040034850971 42.697823329111344 M85.90897440006361 42.077326542197774 C84.9613617569703 42.29361294423342, 84.01374911387701 42.50989934626907, 83.19040034850971 42.697823329111344 M83.19040034850971 42.697823329111344 C82.13858571425256 42.86787256223373, 81.0867710799954 43.037921795356105, 80.43765653327604 43.1428656013112 M83.19040034850971 42.697823329111344 C82.10308057769538 42.87361275736584, 81.01576080688105 43.049402185620345, 80.43765653327604 43.1428656013112 M80.43765653327604 43.1428656013112 C79.63138466518481 43.22064567874217, 78.82511279709358 43.29842575617314, 77.66205456916101 43.41062458463963 M80.43765653327604 43.1428656013112 C79.427791731658 43.24028604418317, 78.41792693003998 43.33770648705515, 77.66205456916101 43.41062458463963 M77.66205456916101 43.41062458463963 C76.63959553087558 43.443412855901656, 75.61713649259016 43.476201127163684, 74.87500000000001 43.5 M77.66205456916101 43.41062458463963 C76.83532682805715 43.4371361341689, 76.00859908695328 43.46364768369818, 74.87500000000001 43.5 M74.87500000000001 43.5 C74.87500000000001 43.5, 74.87500000000001 43.5, 74.875 43.5 M74.87500000000001 43.5 C74.87500000000001 43.5, 74.875 43.5, 74.875 43.5 M74.875 43.5 C15.033541193070441 43.5, -44.80791761385912 43.5, -74.87499999999999 43.5 M74.875 43.5 C16.14645767566543 43.5, -42.58208464866914 43.5, -74.87499999999999 43.5 M-74.87499999999999 43.5 C-75.61711021016167 43.47620196999001, -76.35922042032334 43.45240393998002, -77.66205456916099 43.41062458463963 M-74.87499999999999 43.5 C-75.89361485376914 43.46733500425316, -76.91222970753829 43.434670008506316, -77.66205456916099 43.41062458463963 M-77.66205456916099 43.41062458463963 C-78.50277898541691 43.32952091132246, -79.34350340167283 43.248417238005295, -80.43765653327603 43.1428656013112 M-77.66205456916099 43.41062458463963 C-78.66938128815264 43.31344898754613, -79.67670800714428 43.216273390452635, -80.43765653327603 43.1428656013112 M-80.43765653327603 43.1428656013112 C-81.10254187358915 43.0353720957522, -81.76742721390227 42.9278785901932, -83.1904003485097 42.697823329111344 M-80.43765653327603 43.1428656013112 C-81.194111745591 43.0205677889819, -81.95056695790598 42.89826997665261, -83.1904003485097 42.697823329111344 M-83.1904003485097 42.697823329111344 C-83.77058167148988 42.56540072817807, -84.35076299447007 42.4329781272448, -85.90897440006356 42.07732654219778 M-83.1904003485097 42.697823329111344 C-83.9845621908583 42.51656107098562, -84.77872403320688 42.33529881285989, -85.90897440006356 42.07732654219778 M-85.90897440006356 42.07732654219778 C-86.83621775030879 41.80212558304466, -87.76346110055403 41.526924623891546, -88.58220748402748 41.283924994964096 M-85.90897440006356 42.07732654219778 C-86.72489558165161 41.83516541836013, -87.54081676323968 41.59300429452247, -88.58220748402748 41.283924994964096 M-88.58220748402748 41.283924994964096 C-89.21263681449551 41.05192117372701, -89.84306614496354 40.81991735248993, -91.19911471225278 40.32087894455194 M-88.58220748402748 41.283924994964096 C-89.2138787810156 41.051464118567004, -89.84555007800371 40.81900324216992, -91.19911471225278 40.32087894455194 M-91.19911471225278 40.32087894455194 C-91.73473348868633 40.08377640079129, -92.2703522651199 39.84667385703064, -93.74894265161377 39.192145753755234 M-91.19911471225278 40.32087894455194 C-91.8616508056298 40.027593869448864, -92.5241868990068 39.73430879434578, -93.74894265161377 39.192145753755234 M-93.74894265161377 39.192145753755234 C-94.49365700760603 38.803628751246386, -95.23837136359828 38.41511174873754, -96.22121351217127 37.90236362936745 M-93.74894265161377 39.192145753755234 C-94.41825620017923 38.842965304184425, -95.08756974874467 38.49378485461362, -96.22121351217127 37.90236362936745 M-96.22121351217127 37.90236362936745 C-97.14408485435746 37.34291359834019, -98.06695619654363 36.783463567312936, -98.60576820265884 36.456832562795086 M-96.22121351217127 37.90236362936745 C-96.73721177682563 37.58956244899159, -97.25321004147997 37.276761268615736, -98.60576820265884 36.456832562795086 M-98.60576820265884 36.456832562795086 C-99.46924200757519 35.854510615664005, -100.33271581249154 35.25218866853292, -100.89280807636788 34.86149255125612 M-98.60576820265884 36.456832562795086 C-99.40768818239842 35.89744789948517, -100.20960816213801 35.338063236175266, -100.89280807636788 34.86149255125612 M-100.89280807636788 34.86149255125612 C-101.42717244223977 34.43535118950628, -101.96153680811165 34.00920982775643, -103.07293519588879 33.12289918905736 M-100.89280807636788 34.86149255125612 C-101.6872158328234 34.227973505561074, -102.48162358927893 33.59445445986602, -103.07293519588879 33.12289918905736 M-103.07293519588879 33.12289918905736 C-103.52267282617889 32.71445937263352, -103.97241045646899 32.30601955620968, -105.13719095125164 31.24819672925117 M-103.07293519588879 33.12289918905736 C-103.78371031497346 32.47739203198376, -104.49448543405815 31.831884874910166, -105.13719095125164 31.24819672925117 M-105.13719095125164 31.24819672925117 C-105.88693078038625 30.474028800884952, -106.63667060952086 29.699860872518734, -107.07709287277623 29.245088726367282 M-105.13719095125164 31.24819672925117 C-105.90180671086206 30.45866818133208, -106.66642247047247 29.66913963341299, -107.07709287277623 29.245088726367282 M-107.07709287277623 29.245088726367282 C-107.58484797483099 28.64865069140997, -108.09260307688577 28.052212656452657, -108.88466948735929 27.121806380854917 M-107.07709287277623 29.245088726367282 C-107.56253682214926 28.6748586408905, -108.04798077152228 28.10462855541372, -108.88466948735929 27.121806380854917 M-108.88466948735929 27.121806380854917 C-109.30700200479698 26.555919282772255, -109.72933452223468 25.990032184689596, -110.55249307496757 24.887074715314395 M-108.88466948735929 27.121806380854917 C-109.31146798641284 26.549935274266318, -109.73826648546637 25.97806416767772, -110.55249307496757 24.887074715314395 M-110.55249307496757 24.887074715314395 C-111.07458020676455 24.085008680849484, -111.59666733856155 23.28294264638457, -112.07371019073254 22.550076721507864 M-110.55249307496757 24.887074715314395 C-110.88712935298712 24.372983529853798, -111.22176563100666 23.8588923443932, -112.07371019073254 22.550076721507864 M-112.07371019073254 22.550076721507864 C-112.5877390147751 21.637366493357668, -113.10176783881764 20.724656265207475, -113.44206982722551 20.120415625476337 M-112.07371019073254 22.550076721507864 C-112.41529763019756 21.94355363325874, -112.75688506966256 21.337030545009615, -113.44206982722551 20.120415625476337 M-113.44206982722551 20.120415625476337 C-113.77629383249483 19.426392327286493, -114.11051783776414 18.732369029096652, -114.65194910118784 17.608075425824147 M-113.44206982722551 20.120415625476337 C-113.68977377578592 19.606053076275174, -113.93747772434635 19.09169052707401, -114.65194910118784 17.608075425824147 M-114.65194910118784 17.608075425824147 C-114.88087320595201 17.042628461110166, -115.10979731071619 16.47718149639618, -115.69837635916457 15.023379867326907 M-114.65194910118784 17.608075425824147 C-114.99480661570767 16.76121073626105, -115.33766413022751 15.91434604669795, -115.69837635916457 15.023379867326907 M-115.69837635916457 15.023379867326907 C-115.92325326552461 14.346086454639813, -116.14813017188463 13.668793041952718, -116.57705160709475 12.37695001844991 M-115.69837635916457 15.023379867326907 C-115.91926630367972 14.358094548480514, -116.14015624819486 13.69280922963412, -116.57705160709475 12.37695001844991 M-116.57705160709475 12.37695001844991 C-116.73793133310895 11.76344589744344, -116.89881105912315 11.149941776436968, -117.28436417990932 9.679660627099686 M-116.57705160709475 12.37695001844991 C-116.73023311170182 11.792802552099058, -116.8834146163089 11.208655085748205, -117.28436417990932 9.679660627099686 M-117.28436417990932 9.679660627099686 C-117.47039276405701 8.724443164656495, -117.6564213482047 7.769225702213303, -117.81740757852859 6.942595433952017 M-117.28436417990932 9.679660627099686 C-117.41083178422097 9.030276207897016, -117.53729938853262 8.380891788694345, -117.81740757852859 6.942595433952017 M-117.81740757852859 6.942595433952017 C-117.9119872274583 6.209054353717303, -118.006566876388 5.475513273482589, -118.17399141329011 4.17700162698419 M-117.81740757852859 6.942595433952017 C-117.89051408200592 6.375595829493774, -117.96362058548326 5.80859622503553, -118.17399141329011 4.17700162698419 M-118.17399141329011 4.17700162698419 C-118.23885718969855 3.1666648007105858, -118.30372296610697 2.1563279744369823, -118.35265040472993 1.394243624367005 M-118.17399141329011 4.17700162698419 C-118.23825107501722 3.176105526119123, -118.30251073674434 2.175209425254056, -118.35265040472993 1.394243624367005 M-118.35265040472993 1.394243624367005 C-118.35265040472993 0.3949699073445575, -118.35265040472993 -0.6043038096778901, -118.35265040472993 -1.394243624366984 M-118.35265040472993 1.394243624367005 C-118.35265040472993 0.6323035960299254, -118.35265040472993 -0.12963643230715438, -118.35265040472993 -1.394243624366984 M-118.35265040472993 -1.394243624366984 C-118.28435415658855 -2.458012816908292, -118.21605790844716 -3.5217820094496, -118.17399141329012 -4.177001626984129 M-118.35265040472993 -1.394243624366984 C-118.29327832494496 -2.3190116912980603, -118.23390624515999 -3.2437797582291363, -118.17399141329012 -4.177001626984129 M-118.17399141329012 -4.177001626984129 C-118.05192155419122 -5.12375134873501, -117.92985169509234 -6.07050107048589, -117.81740757852859 -6.942595433951997 M-118.17399141329012 -4.177001626984129 C-118.05542515039518 -5.096578148440445, -117.93685888750025 -6.0161546698967605, -117.81740757852859 -6.942595433951997 M-117.81740757852859 -6.942595433951997 C-117.65124933724366 -7.795782885393334, -117.48509109595874 -8.64897033683467, -117.28436417990932 -9.679660627099667 M-117.81740757852859 -6.942595433951997 C-117.70122764290623 -7.539154848734658, -117.58504770728389 -8.135714263517318, -117.28436417990932 -9.679660627099667 M-117.28436417990932 -9.679660627099667 C-117.00891170798005 -10.73008028442252, -116.73345923605076 -11.780499941745374, -116.57705160709475 -12.37695001844989 M-117.28436417990932 -9.679660627099667 C-117.00329530686662 -10.751498056031636, -116.72222643382392 -11.823335484963604, -116.57705160709475 -12.37695001844989 M-116.57705160709475 -12.37695001844989 C-116.3797050011523 -12.9713265526369, -116.18235839520986 -13.565703086823909, -115.6983763591646 -15.023379867326852 M-116.57705160709475 -12.37695001844989 C-116.30123102698118 -13.207677659710505, -116.02541044686761 -14.038405300971123, -115.6983763591646 -15.023379867326852 M-115.6983763591646 -15.023379867326852 C-115.4436789870458 -15.652487300698974, -115.188981614927 -16.281594734071096, -114.65194910118785 -17.608075425824126 M-115.6983763591646 -15.023379867326852 C-115.29841626838704 -16.0112890242497, -114.8984561776095 -16.99919818117255, -114.65194910118785 -17.608075425824126 M-114.65194910118785 -17.608075425824126 C-114.3253524696073 -18.286260319349594, -113.99875583802674 -18.964445212875063, -113.44206982722551 -20.12041562547632 M-114.65194910118785 -17.608075425824126 C-114.21321976181922 -18.51910628632713, -113.77449042245058 -19.430137146830134, -113.44206982722551 -20.12041562547632 M-113.44206982722551 -20.12041562547632 C-112.92293030958467 -21.042200407624133, -112.40379079194383 -21.963985189771947, -112.07371019073256 -22.55007672150785 M-113.44206982722551 -20.12041562547632 C-112.9469698430202 -20.99951578174264, -112.45186985881487 -21.878615938008963, -112.07371019073256 -22.55007672150785 M-112.07371019073256 -22.55007672150785 C-111.7039124139752 -23.118185411214164, -111.33411463721784 -23.686294100920474, -110.55249307496757 -24.88707471531438 M-112.07371019073256 -22.55007672150785 C-111.64737695497689 -23.205039058131966, -111.22104371922123 -23.860001394756086, -110.55249307496757 -24.88707471531438 M-110.55249307496757 -24.88707471531438 C-110.14057280540906 -25.43901034981423, -109.72865253585056 -25.990945984314077, -108.8846694873593 -27.121806380854903 M-110.55249307496757 -24.88707471531438 C-109.88633949428424 -25.779659825590382, -109.22018591360091 -26.672244935866388, -108.8846694873593 -27.121806380854903 M-108.8846694873593 -27.121806380854903 C-108.51227586238431 -27.559241122548073, -108.13988223740931 -27.996675864241244, -107.07709287277623 -29.245088726367264 M-108.8846694873593 -27.121806380854903 C-108.20635213258124 -27.918596543128103, -107.5280347778032 -28.715386705401304, -107.07709287277623 -29.245088726367264 M-107.07709287277623 -29.245088726367264 C-106.56995869008793 -29.768746406483665, -106.06282450739964 -30.292404086600065, -105.13719095125168 -31.248196729251127 M-107.07709287277623 -29.245088726367264 C-106.41098949461565 -29.932895152422486, -105.74488611645505 -30.620701578477707, -105.13719095125168 -31.248196729251127 M-105.13719095125168 -31.248196729251127 C-104.45488880310197 -31.86784548747512, -103.77258665495225 -32.48749424569911, -103.07293519588883 -33.12289918905732 M-105.13719095125168 -31.248196729251127 C-104.39468658114274 -31.922519552594995, -103.65218221103378 -32.59684237593886, -103.07293519588883 -33.12289918905732 M-103.07293519588883 -33.12289918905732 C-102.21593399930973 -33.80633483756954, -101.35893280273062 -34.48977048608175, -100.89280807636791 -34.861492551256106 M-103.07293519588883 -33.12289918905732 C-102.2026622611242 -33.81691869559671, -101.33238932635956 -34.5109382021361, -100.89280807636791 -34.861492551256106 M-100.89280807636791 -34.861492551256106 C-100.2706116222252 -35.29550986321566, -99.6484151680825 -35.72952717517522, -98.6057682026589 -36.45683256279505 M-100.89280807636791 -34.861492551256106 C-100.05229893867437 -35.447795340656974, -99.21178980098082 -36.03409813005784, -98.6057682026589 -36.45683256279505 M-98.6057682026589 -36.45683256279505 C-98.06893466519811 -36.782264207987815, -97.53210112773735 -37.10769585318058, -96.2212135121713 -37.902363629367436 M-98.6057682026589 -36.45683256279505 C-98.01386777311754 -36.81564608157604, -97.42196734357618 -37.17445960035703, -96.2212135121713 -37.902363629367436 M-96.2212135121713 -37.902363629367436 C-95.33993002636218 -38.36212865942504, -94.45864654055306 -38.82189368948264, -93.74894265161379 -39.19214575375523 M-96.2212135121713 -37.902363629367436 C-95.42833210211236 -38.3160093531304, -94.63545069205344 -38.729655076893366, -93.74894265161379 -39.19214575375523 M-93.74894265161379 -39.19214575375523 C-93.05470181268639 -39.4994655792256, -92.36046097375899 -39.80678540469598, -91.1991147122528 -40.320878944551936 M-93.74894265161379 -39.19214575375523 C-92.95710475860434 -39.54266889995397, -92.1652668655949 -39.89319204615273, -91.1991147122528 -40.320878944551936 M-91.1991147122528 -40.320878944551936 C-90.42130613823586 -40.60711968977381, -89.64349756421893 -40.89336043499568, -88.58220748402753 -41.283924994964075 M-91.1991147122528 -40.320878944551936 C-90.54518871885891 -40.561529754946505, -89.89126272546503 -40.802180565341075, -88.58220748402753 -41.283924994964075 M-88.58220748402753 -41.283924994964075 C-88.04074210625488 -41.444629076877234, -87.49927672848222 -41.605333158790394, -85.90897440006361 -42.07732654219777 M-88.58220748402753 -41.283924994964075 C-87.69118862017955 -41.5483747167007, -86.80016975633156 -41.81282443843733, -85.90897440006361 -42.07732654219777 M-85.90897440006361 -42.07732654219777 C-84.87620635953866 -42.31304910800629, -83.84343831901369 -42.54877167381482, -83.19040034850971 -42.69782332911134 M-85.90897440006361 -42.07732654219777 C-85.05005309260355 -42.27336972564019, -84.19113178514348 -42.4694129090826, -83.19040034850971 -42.69782332911134 M-83.19040034850971 -42.69782332911134 C-82.55527037239067 -42.80050621814374, -81.92014039627162 -42.90318910717614, -80.43765653327604 -43.1428656013112 M-83.19040034850971 -42.69782332911134 C-82.1491597007501 -42.86616304209929, -81.10791905299048 -43.03450275508724, -80.43765653327604 -43.1428656013112 M-80.43765653327604 -43.1428656013112 C-79.35238519001933 -43.24756042256542, -78.26711384676263 -43.35225524381965, -77.66205456916101 -43.41062458463963 M-80.43765653327604 -43.1428656013112 C-79.75390532915519 -43.208826257641604, -79.07015412503435 -43.27478691397201, -77.66205456916101 -43.41062458463963 M-77.66205456916101 -43.41062458463963 C-76.91840772829431 -43.43447189140546, -76.17476088742762 -43.45831919817129, -74.87500000000001 -43.5 M-77.66205456916101 -43.41062458463963 C-76.97045890338417 -43.43280271153179, -76.27886323760731 -43.45498083842396, -74.87500000000001 -43.5 M-74.87500000000001 -43.5 C-74.87500000000001 -43.5, -74.87500000000001 -43.5, -74.875 -43.5 M-74.87500000000001 -43.5 C-74.87500000000001 -43.5, -74.875 -43.5, -74.875 -43.5" stroke="#db2777" stroke-width="1.5" fill="none" stroke-dasharray="0 0" style="fill:#fce7f3 !important;stroke:#db2777 !important;stroke-width:1.5px !important"/></g><g class="label" style="color:#000 !important" transform="translate(-100, -36)"><rect/><text text-anchor="middle" font-family="trebuchet ms, verdana, arial, sans-serif" font-size="14" fill="#000"><tspan x="100.00" y="33.00">Mobile App</tspan><tspan x="100.00" y="49.00">Graphs · Map · Battery · Alerts</tspan></text></g></g></g></g><marker id="my-svg_flowchart-v2-pointEnd__475569" class="marker flowchart-v2" viewBox="0 0 10 10" refX="5" refY="5" markerUnits="userSpaceOnUse" markerWidth="8" markerHeight="8" orient="auto"><path d="M 0 0 L 10 5 L 0 10 z" class="arrowMarkerPath" style="stroke-width: 1; stroke-dasharray: 1, 0;" stroke="#475569" fill="#475569"/></marker><marker id="my-svg_flowchart-v2-pointStart__475569" class="marker flowchart-v2" viewBox="0 0 10 10" refX="4.5" refY="5" markerUnits="userSpaceOnUse" markerWidth="8" markerHeight="8" orient="auto"><path d="M 0 5 L 10 10 L 10 0 z" class="arrowMarkerPath" style="stroke-width: 1; stroke-dasharray: 1, 0;" stroke="#475569" fill="#475569"/></marker></g><defs><filter id="my-svg-drop-shadow" height="130%" width="130%"><feDropShadow dx="4" dy="4" stdDeviation="0" flood-opacity="0.06" flood-color="#000000"/></filter></defs><defs><filter id="my-svg-drop-shadow-small" height="150%" width="150%"><feDropShadow dx="2" dy="2" stdDeviation="0" flood-opacity="0.06" flood-color="#000000"/></filter></defs></svg>