<svg xmlns="http://www.w3.org/2000/svg" width="361" height="301" viewBox="0 0 361 301">

  <rect width="100%" height="100%" fill="#ffffff"/>

  <rect x="0" y="0" width="120" height="60" fill="#ffffff" stroke="#000000"/>
  <text x="60" y="35" text-anchor="middle" font-size="12">Ultrasonic Sensor</text>

  <rect x="240" y="0" width="120" height="60" fill="#ffffff" stroke="#000000"/>
  <text x="300" y="35" text-anchor="middle" font-size="12">Sound Sensor</text>

  <rect x="120" y="130" width="120" height="60" fill="#ffffff" stroke="#000000"/>
  <text x="180" y="165" text-anchor="middle" font-size="12">STM32 Controller</text>

  <rect x="0" y="240" width="120" height="60" fill="#ffffff" stroke="#000000"/>
  <text x="60" y="275" text-anchor="middle" font-size="12">Servo Motors</text>

  <rect x="240" y="240" width="120" height="60" fill="#ffffff" stroke="#000000"/>
  <text x="300" y="275" text-anchor="middle" font-size="12">OLED Display</text>

  <line x1="60" y1="60" x2="60" y2="95" stroke="#000000"/>
  <line x1="60" y1="95" x2="180" y2="95" stroke="#000000"/>
  <line x1="180" y1="95" x2="180" y2="130" stroke="#000000"/>

  <line x1="300" y1="60" x2="300" y2="95" stroke="#000000"/>
  <line x1="300" y1="95" x2="180" y2="95" stroke="#000000"/>
  <line x1="180" y1="95" x2="180" y2="130" stroke="#000000"/>

  <line x1="180" y1="190" x2="180" y2="215" stroke="#000000"/>
  <line x1="180" y1="215" x2="60" y2="215" stroke="#000000"/>
  <line x1="60" y1="215" x2="60" y2="240" stroke="#000000"/>

  <line x1="180" y1="190" x2="180" y2="215" stroke="#000000"/>
  <line x1="180" y1="215" x2="300" y2="215" stroke="#000000"/>
  <line x1="300" y1="215" x2="300" y2="240" stroke="#000000"/>

</svg>
