<?xml version="1.0" encoding="UTF-8"?>
<svg xmlns="http://www.w3.org/2000/svg" width="361" height="301" viewBox="0 0 361 301">
  <rect width="100%" height="100%" fill="#ffffff"/>

  <!-- Lines -->
  <path d="M 60 60 L 60 95 L 150 95 L 150 123.63" fill="none" stroke="#000000"/>
  <path d="M 150 190 L 150 215 L 60 215 L 60 233.63" fill="none" stroke="#000000"/>
  <path d="M 210 190 L 210 215 L 300 215 L 300 233.63" fill="none" stroke="#000000"/>
  <path d="M 300 60 L 300 95 L 210 95 L 210 123.63" fill="none" stroke="#000000"/>

  <!-- Boxes -->
  <rect x="0" y="0" width="120" height="60" fill="#ffffff" stroke="#000000"/>
  <rect x="240" y="0" width="120" height="60" fill="#ffffff" stroke="#000000"/>
  <rect x="120" y="130" width="120" height="60" fill="#ffffff" stroke="#000000"/>
  <rect x="0" y="240" width="120" height="60" fill="#ffffff" stroke="#000000"/>
  <rect x="240" y="240" width="120" height="60" fill="#ffffff" stroke="#000000"/>

  <!-- Text -->
  <text x="60" y="35" text-anchor="middle" font-size="12" fill="#000000">Ultrasonic Sensor</text>
  <text x="300" y="35" text-anchor="middle" font-size="12" fill="#000000">Sound Sensor</text>
  <text x="180" y="165" text-anchor="middle" font-size="12" fill="#000000">STM32 Controller</text>
  <text x="60" y="275" text-anchor="middle" font-size="12" fill="#000000">Servo Motors</text>
  <text x="300" y="275" text-anchor="middle" font-size="12" fill="#000000">OLED Display</text>
</svg>
