<svg width="376" height="282" viewBox="0 0 376 282" fill="none" xmlns="http://www.w3.org/2000/svg">
<rect width="150" height="60" fill="#D9D9D9"/>
<path d="M28.7841 26.2727H29.8409V32.0511C29.8409 32.6477 29.7003 33.1804 29.419 33.6491C29.1406 34.1151 28.7472 34.483 28.2386 34.7528C27.7301 35.0199 27.1335 35.1534 26.4489 35.1534C25.7642 35.1534 25.1676 35.0199 24.6591 34.7528C24.1506 34.483 23.7557 34.1151 23.4744 33.6491C23.196 33.1804 23.0568 32.6477 23.0568 32.0511V26.2727H24.1136V31.9659C24.1136 32.392 24.2074 32.7713 24.3949 33.1037C24.5824 33.4332 24.8494 33.6932 25.196 33.8835C25.5455 34.071 25.9631 34.1648 26.4489 34.1648C26.9347 34.1648 27.3523 34.071 27.7017 33.8835C28.0511 33.6932 28.3182 33.4332 28.5028 33.1037C28.6903 32.7713 28.7841 32.392 28.7841 31.9659V26.2727ZM32.8207 26.2727V35H31.815V26.2727H32.8207ZM37.5092 28.4545V29.3068H34.1172V28.4545H37.5092ZM35.1058 26.8864H36.1115V33.125C36.1115 33.4091 36.1527 33.6222 36.2351 33.7642C36.3203 33.9034 36.4283 33.9972 36.5589 34.0455C36.6925 34.0909 36.8331 34.1136 36.9808 34.1136C37.0916 34.1136 37.1825 34.108 37.2536 34.0966C37.3246 34.0824 37.3814 34.071 37.424 34.0625L37.6286 34.9659C37.5604 34.9915 37.4652 35.017 37.343 35.0426C37.2209 35.071 37.0661 35.0852 36.8786 35.0852C36.5945 35.0852 36.3161 35.0241 36.0433 34.902C35.7734 34.7798 35.549 34.5938 35.37 34.3438C35.1939 34.0938 35.1058 33.7784 35.1058 33.3977V26.8864ZM39.022 35V28.4545H39.9936V29.4432H40.0618C40.1811 29.1193 40.397 28.8565 40.7095 28.6548C41.022 28.4531 41.3743 28.3523 41.7663 28.3523C41.8402 28.3523 41.9325 28.3537 42.0433 28.3565C42.1541 28.3594 42.2379 28.3636 42.2947 28.3693V29.392C42.2607 29.3835 42.1825 29.3707 42.0604 29.3537C41.9411 29.3338 41.8146 29.3239 41.6811 29.3239C41.3629 29.3239 41.0788 29.3906 40.8288 29.5241C40.5817 29.6548 40.3857 29.8366 40.2408 30.0696C40.0987 30.2997 40.0277 30.5625 40.0277 30.858V35H39.022ZM45.413 35.1534C44.9982 35.1534 44.6218 35.0753 44.2837 34.919C43.9457 34.7599 43.6772 34.5312 43.4783 34.233C43.2795 33.9318 43.18 33.5682 43.18 33.142C43.18 32.767 43.2539 32.4631 43.4016 32.2301C43.5494 31.9943 43.7468 31.8097 43.994 31.6761C44.2411 31.5426 44.5138 31.4432 44.8121 31.3778C45.1133 31.3097 45.4158 31.2557 45.7198 31.2159C46.1175 31.1648 46.44 31.1264 46.6871 31.1009C46.9371 31.0724 47.119 31.0256 47.2326 30.9602C47.3491 30.8949 47.4073 30.7812 47.4073 30.6193V30.5852C47.4073 30.1648 47.2923 29.8381 47.0621 29.6051C46.8349 29.3722 46.4897 29.2557 46.0266 29.2557C45.5465 29.2557 45.1701 29.3608 44.8974 29.571C44.6246 29.7812 44.4329 30.0057 44.3221 30.2443L43.3675 29.9034C43.538 29.5057 43.7653 29.196 44.0494 28.9744C44.3363 28.75 44.6488 28.5937 44.9869 28.5057C45.3278 28.4148 45.663 28.3693 45.9925 28.3693C46.2028 28.3693 46.4442 28.3949 46.717 28.446C46.9925 28.4943 47.2582 28.5952 47.5138 28.7486C47.7724 28.902 47.9869 29.1335 48.1573 29.4432C48.3278 29.7528 48.413 30.1676 48.413 30.6875V35H47.4073V34.1136H47.3562C47.288 34.2557 47.1744 34.4077 47.0153 34.5696C46.8562 34.7315 46.6445 34.8693 46.3803 34.983C46.1161 35.0966 45.7937 35.1534 45.413 35.1534ZM45.5664 34.25C45.9641 34.25 46.2994 34.1719 46.5721 34.0156C46.8477 33.8594 47.055 33.6577 47.1942 33.4105C47.3363 33.1634 47.4073 32.9034 47.4073 32.6307V31.7102C47.3647 31.7614 47.271 31.8082 47.1261 31.8509C46.984 31.8906 46.8192 31.9261 46.6317 31.9574C46.4471 31.9858 46.2667 32.0114 46.0906 32.0341C45.9173 32.054 45.7766 32.071 45.6687 32.0852C45.4073 32.1193 45.163 32.1747 44.9357 32.2514C44.7113 32.3253 44.5295 32.4375 44.3903 32.5881C44.2539 32.7358 44.1857 32.9375 44.1857 33.1932C44.1857 33.5426 44.315 33.8068 44.5735 33.9858C44.8349 34.1619 45.1658 34.25 45.5664 34.25ZM54.8849 29.9205L53.9815 30.1761C53.9247 30.0256 53.8409 29.8793 53.7301 29.7372C53.6222 29.5923 53.4744 29.473 53.2869 29.3793C53.0994 29.2855 52.8594 29.2386 52.5668 29.2386C52.1662 29.2386 51.8324 29.331 51.5653 29.5156C51.3011 29.6974 51.169 29.929 51.169 30.2102C51.169 30.4602 51.2599 30.6577 51.4418 30.8026C51.6236 30.9474 51.9077 31.0682 52.294 31.1648L53.2656 31.4034C53.8509 31.5455 54.2869 31.7628 54.5739 32.0554C54.8608 32.3452 55.0043 32.7187 55.0043 33.1761C55.0043 33.5511 54.8963 33.8864 54.6804 34.1818C54.4673 34.4773 54.169 34.7102 53.7855 34.8807C53.402 35.0511 52.956 35.1364 52.4474 35.1364C51.7798 35.1364 51.2273 34.9915 50.7898 34.7017C50.3523 34.4119 50.0753 33.9886 49.9588 33.4318L50.9134 33.1932C51.0043 33.5455 51.1761 33.8097 51.429 33.9858C51.6847 34.1619 52.0185 34.25 52.4304 34.25C52.8991 34.25 53.2713 34.1506 53.5469 33.9517C53.8253 33.75 53.9645 33.5085 53.9645 33.2273C53.9645 33 53.8849 32.8097 53.7259 32.6562C53.5668 32.5 53.3224 32.3835 52.9929 32.3068L51.902 32.0511C51.3026 31.9091 50.8622 31.6889 50.581 31.3906C50.3026 31.0895 50.1634 30.7131 50.1634 30.2614C50.1634 29.892 50.267 29.5653 50.4744 29.2812C50.6847 28.9972 50.9702 28.7741 51.331 28.6122C51.6946 28.4503 52.1065 28.3693 52.5668 28.3693C53.2145 28.3693 53.723 28.5114 54.0923 28.7955C54.4645 29.0795 54.7287 29.4545 54.8849 29.9205ZM59.1772 35.1364C58.5863 35.1364 58.0678 34.9957 57.6218 34.7145C57.1786 34.4332 56.832 34.0398 56.582 33.5341C56.3349 33.0284 56.2113 32.4375 56.2113 31.7614C56.2113 31.0795 56.3349 30.4844 56.582 29.9759C56.832 29.4673 57.1786 29.0724 57.6218 28.7912C58.0678 28.5099 58.5863 28.3693 59.1772 28.3693C59.7681 28.3693 60.2852 28.5099 60.7283 28.7912C61.1744 29.0724 61.521 29.4673 61.7681 29.9759C62.0181 30.4844 62.1431 31.0795 62.1431 31.7614C62.1431 32.4375 62.0181 33.0284 61.7681 33.5341C61.521 34.0398 61.1744 34.4332 60.7283 34.7145C60.2852 34.9957 59.7681 35.1364 59.1772 35.1364ZM59.1772 34.233C59.6261 34.233 59.9954 34.1179 60.2852 33.8878C60.5749 33.6577 60.7894 33.3551 60.9286 32.9801C61.0678 32.6051 61.1374 32.1989 61.1374 31.7614C61.1374 31.3239 61.0678 30.9162 60.9286 30.5384C60.7894 30.1605 60.5749 29.8551 60.2852 29.6222C59.9954 29.3892 59.6261 29.2727 59.1772 29.2727C58.7283 29.2727 58.359 29.3892 58.0692 29.6222C57.7795 29.8551 57.565 30.1605 57.4258 30.5384C57.2866 30.9162 57.217 31.3239 57.217 31.7614C57.217 32.1989 57.2866 32.6051 57.4258 32.9801C57.565 33.3551 57.7795 33.6577 58.0692 33.8878C58.359 34.1179 58.7283 34.233 59.1772 34.233ZM64.6839 31.0625V35H63.6783V28.4545H64.6499V29.4773H64.7351C64.8885 29.1449 65.1214 28.8778 65.4339 28.6761C65.7464 28.4716 66.1499 28.3693 66.6442 28.3693C67.0874 28.3693 67.4751 28.4602 67.8075 28.642C68.1399 28.821 68.3984 29.0938 68.5831 29.4602C68.7678 29.8239 68.8601 30.2841 68.8601 30.8409V35H67.8544V30.9091C67.8544 30.3949 67.7209 29.9943 67.4538 29.7074C67.1868 29.4176 66.8203 29.2727 66.3544 29.2727C66.0334 29.2727 65.7464 29.3423 65.4936 29.4815C65.2436 29.6207 65.0462 29.8239 64.9013 30.0909C64.7564 30.358 64.6839 30.6818 64.6839 31.0625ZM70.6978 35V28.4545H71.7035V35H70.6978ZM71.2092 27.3636C71.0131 27.3636 70.8441 27.2969 70.7021 27.1634C70.5629 27.0298 70.4933 26.8693 70.4933 26.6818C70.4933 26.4943 70.5629 26.3338 70.7021 26.2003C70.8441 26.0668 71.0131 26 71.2092 26C71.4052 26 71.5728 26.0668 71.712 26.2003C71.854 26.3338 71.9251 26.4943 71.9251 26.6818C71.9251 26.8693 71.854 27.0298 71.712 27.1634C71.5728 27.2969 71.4052 27.3636 71.2092 27.3636ZM76.2045 35.1364C75.5909 35.1364 75.0625 34.9915 74.6193 34.7017C74.1761 34.4119 73.8352 34.0128 73.5966 33.5043C73.358 32.9957 73.2386 32.4148 73.2386 31.7614C73.2386 31.0966 73.3608 30.5099 73.6051 30.0014C73.8523 29.4901 74.196 29.0909 74.6364 28.804C75.0795 28.5142 75.5966 28.3693 76.1875 28.3693C76.6477 28.3693 77.0625 28.4545 77.4318 28.625C77.8011 28.7955 78.1037 29.0341 78.3395 29.3409C78.5753 29.6477 78.7216 30.0057 78.7784 30.4148H77.7727C77.696 30.1165 77.5256 29.8523 77.2614 29.6222C77 29.3892 76.6477 29.2727 76.2045 29.2727C75.8125 29.2727 75.4688 29.375 75.1733 29.5795C74.8807 29.7812 74.652 30.0668 74.4872 30.4361C74.3253 30.8026 74.2443 31.233 74.2443 31.7273C74.2443 32.233 74.3239 32.6733 74.483 33.0483C74.6449 33.4233 74.8722 33.7145 75.1648 33.9219C75.4602 34.1293 75.8068 34.233 76.2045 34.233C76.4659 34.233 76.7031 34.1875 76.9162 34.0966C77.1293 34.0057 77.3097 33.875 77.4574 33.7045C77.6051 33.5341 77.7102 33.3295 77.7727 33.0909H78.7784C78.7216 33.4773 78.581 33.8253 78.3565 34.1349C78.1349 34.4418 77.8409 34.6861 77.4744 34.8679C77.1108 35.0469 76.6875 35.1364 76.2045 35.1364ZM88.5327 28.4545C88.4815 28.0227 88.2741 27.6875 87.9105 27.4489C87.5469 27.2102 87.1009 27.0909 86.5724 27.0909C86.1861 27.0909 85.848 27.1534 85.5582 27.2784C85.2713 27.4034 85.0469 27.5753 84.8849 27.794C84.7259 28.0128 84.6463 28.2614 84.6463 28.5398C84.6463 28.7727 84.7017 28.973 84.8125 29.1406C84.9261 29.3054 85.071 29.4432 85.2472 29.554C85.4233 29.6619 85.608 29.7514 85.8011 29.8224C85.9943 29.8906 86.1719 29.946 86.3338 29.9886L87.2202 30.2273C87.4474 30.2869 87.7003 30.3693 87.9787 30.4744C88.2599 30.5795 88.5284 30.723 88.7841 30.9048C89.0426 31.0838 89.2557 31.3139 89.4233 31.5952C89.5909 31.8764 89.6747 32.2216 89.6747 32.6307C89.6747 33.1023 89.5511 33.5284 89.304 33.9091C89.0597 34.2898 88.7017 34.5923 88.2301 34.8168C87.7614 35.0412 87.1918 35.1534 86.5213 35.1534C85.8963 35.1534 85.3551 35.0526 84.8977 34.8509C84.4432 34.6491 84.0852 34.3679 83.8239 34.0071C83.5653 33.6463 83.419 33.2273 83.3849 32.75H84.4759C84.5043 33.0795 84.6151 33.3523 84.8082 33.5682C85.0043 33.7812 85.2514 33.9403 85.5497 34.0455C85.8509 34.1477 86.1747 34.1989 86.5213 34.1989C86.9247 34.1989 87.2869 34.1335 87.608 34.0028C87.929 33.8693 88.1832 33.6847 88.3707 33.4489C88.5582 33.2102 88.652 32.9318 88.652 32.6136C88.652 32.3239 88.571 32.0881 88.4091 31.9062C88.2472 31.7244 88.0341 31.5767 87.7699 31.4631C87.5057 31.3494 87.2202 31.25 86.9134 31.1648L85.8395 30.858C85.1577 30.6619 84.6179 30.3821 84.2202 30.0185C83.8224 29.6548 83.6236 29.179 83.6236 28.5909C83.6236 28.1023 83.7557 27.6761 84.0199 27.3125C84.2869 26.946 84.6449 26.6619 85.0938 26.4602C85.5455 26.2557 86.0497 26.1534 86.6065 26.1534C87.169 26.1534 87.669 26.2543 88.1065 26.456C88.544 26.6548 88.8906 26.9276 89.1463 27.2741C89.4048 27.6207 89.5412 28.0142 89.5554 28.4545H88.5327ZM94.0202 35.1364C93.3896 35.1364 92.8455 34.9972 92.3881 34.7188C91.9336 34.4375 91.5827 34.0455 91.3356 33.5426C91.0913 33.0369 90.9691 32.4489 90.9691 31.7784C90.9691 31.108 91.0913 30.517 91.3356 30.0057C91.5827 29.4915 91.9265 29.0909 92.3668 28.804C92.81 28.5142 93.3271 28.3693 93.918 28.3693C94.2589 28.3693 94.5955 28.4261 94.9279 28.5398C95.2603 28.6534 95.5629 28.8381 95.8356 29.0938C96.1083 29.3466 96.3256 29.6818 96.4876 30.0994C96.6495 30.517 96.7305 31.0312 96.7305 31.642V32.0682H91.685V31.1989H95.7077C95.7077 30.8295 95.6339 30.5 95.4862 30.2102C95.3413 29.9205 95.1339 29.6918 94.864 29.5241C94.5969 29.3565 94.2816 29.2727 93.918 29.2727C93.5174 29.2727 93.1708 29.3722 92.8782 29.571C92.5884 29.767 92.3654 30.0227 92.2092 30.3381C92.0529 30.6534 91.9748 30.9915 91.9748 31.3523V31.9318C91.9748 32.4261 92.06 32.8452 92.2305 33.1889C92.4038 33.5298 92.6438 33.7898 92.9506 33.9688C93.2575 34.1449 93.614 34.233 94.0202 34.233C94.2844 34.233 94.5231 34.196 94.7362 34.1222C94.9521 34.0455 95.1381 33.9318 95.2944 33.7812C95.4506 33.6278 95.5714 33.4375 95.6566 33.2102L96.6282 33.483C96.5259 33.8125 96.354 34.1023 96.1126 34.3523C95.8711 34.5994 95.5728 34.7926 95.2177 34.9318C94.8626 35.0682 94.4634 35.1364 94.0202 35.1364ZM99.266 31.0625V35H98.2603V28.4545H99.2319V29.4773H99.3171C99.4705 29.1449 99.7035 28.8778 100.016 28.6761C100.328 28.4716 100.732 28.3693 101.226 28.3693C101.669 28.3693 102.057 28.4602 102.39 28.642C102.722 28.821 102.98 29.0938 103.165 29.4602C103.35 29.8239 103.442 30.2841 103.442 30.8409V35H102.436V30.9091C102.436 30.3949 102.303 29.9943 102.036 29.7074C101.769 29.4176 101.402 29.2727 100.936 29.2727C100.615 29.2727 100.328 29.3423 100.076 29.4815C99.8256 29.6207 99.6282 29.8239 99.4833 30.0909C99.3384 30.358 99.266 30.6818 99.266 31.0625ZM109.916 29.9205L109.013 30.1761C108.956 30.0256 108.872 29.8793 108.761 29.7372C108.653 29.5923 108.506 29.473 108.318 29.3793C108.131 29.2855 107.891 29.2386 107.598 29.2386C107.197 29.2386 106.864 29.331 106.597 29.5156C106.332 29.6974 106.2 29.929 106.2 30.2102C106.2 30.4602 106.291 30.6577 106.473 30.8026C106.655 30.9474 106.939 31.0682 107.325 31.1648L108.297 31.4034C108.882 31.5455 109.318 31.7628 109.605 32.0554C109.892 32.3452 110.036 32.7187 110.036 33.1761C110.036 33.5511 109.928 33.8864 109.712 34.1818C109.499 34.4773 109.2 34.7102 108.817 34.8807C108.433 35.0511 107.987 35.1364 107.479 35.1364C106.811 35.1364 106.259 34.9915 105.821 34.7017C105.384 34.4119 105.107 33.9886 104.99 33.4318L105.945 33.1932C106.036 33.5455 106.207 33.8097 106.46 33.9858C106.716 34.1619 107.05 34.25 107.462 34.25C107.93 34.25 108.303 34.1506 108.578 33.9517C108.857 33.75 108.996 33.5085 108.996 33.2273C108.996 33 108.916 32.8097 108.757 32.6562C108.598 32.5 108.354 32.3835 108.024 32.3068L106.933 32.0511C106.334 31.9091 105.893 31.6889 105.612 31.3906C105.334 31.0895 105.195 30.7131 105.195 30.2614C105.195 29.892 105.298 29.5653 105.506 29.2812C105.716 28.9972 106.001 28.7741 106.362 28.6122C106.726 28.4503 107.138 28.3693 107.598 28.3693C108.246 28.3693 108.754 28.5114 109.124 28.7955C109.496 29.0795 109.76 29.4545 109.916 29.9205ZM114.208 35.1364C113.618 35.1364 113.099 34.9957 112.653 34.7145C112.21 34.4332 111.863 34.0398 111.613 33.5341C111.366 33.0284 111.243 32.4375 111.243 31.7614C111.243 31.0795 111.366 30.4844 111.613 29.9759C111.863 29.4673 112.21 29.0724 112.653 28.7912C113.099 28.5099 113.618 28.3693 114.208 28.3693C114.799 28.3693 115.316 28.5099 115.76 28.7912C116.206 29.0724 116.552 29.4673 116.799 29.9759C117.049 30.4844 117.174 31.0795 117.174 31.7614C117.174 32.4375 117.049 33.0284 116.799 33.5341C116.552 34.0398 116.206 34.4332 115.76 34.7145C115.316 34.9957 114.799 35.1364 114.208 35.1364ZM114.208 34.233C114.657 34.233 115.027 34.1179 115.316 33.8878C115.606 33.6577 115.821 33.3551 115.96 32.9801C116.099 32.6051 116.169 32.1989 116.169 31.7614C116.169 31.3239 116.099 30.9162 115.96 30.5384C115.821 30.1605 115.606 29.8551 115.316 29.6222C115.027 29.3892 114.657 29.2727 114.208 29.2727C113.76 29.2727 113.39 29.3892 113.1 29.6222C112.811 29.8551 112.596 30.1605 112.457 30.5384C112.318 30.9162 112.248 31.3239 112.248 31.7614C112.248 32.1989 112.318 32.6051 112.457 32.9801C112.596 33.3551 112.811 33.6577 113.1 33.8878C113.39 34.1179 113.76 34.233 114.208 34.233ZM118.71 35V28.4545H119.681V29.4432H119.749C119.869 29.1193 120.085 28.8565 120.397 28.6548C120.71 28.4531 121.062 28.3523 121.454 28.3523C121.528 28.3523 121.62 28.3537 121.731 28.3565C121.842 28.3594 121.925 28.3636 121.982 28.3693V29.392C121.948 29.3835 121.87 29.3707 121.748 29.3537C121.629 29.3338 121.502 29.3239 121.369 29.3239C121.05 29.3239 120.766 29.3906 120.516 29.5241C120.269 29.6548 120.073 29.8366 119.928 30.0696C119.786 30.2997 119.715 30.5625 119.715 30.858V35H118.71Z" fill="black"/>
<rect x="225" y="222" width="150" height="60" fill="#D9D9D9"/>
<rect y="222" width="150" height="60" fill="#D9D9D9"/>
<rect x="226" y="1" width="150" height="60" fill="#D9D9D9"/>
<rect x="111" y="111" width="150" height="60" fill="#D9D9D9"/>
<path d="M266.83 29.4545C266.778 29.0227 266.571 28.6875 266.207 28.4489C265.844 28.2102 265.398 28.0909 264.869 28.0909C264.483 28.0909 264.145 28.1534 263.855 28.2784C263.568 28.4034 263.344 28.5753 263.182 28.794C263.023 29.0128 262.943 29.2614 262.943 29.5398C262.943 29.7727 262.999 29.973 263.109 30.1406C263.223 30.3054 263.368 30.4432 263.544 30.554C263.72 30.6619 263.905 30.7514 264.098 30.8224C264.291 30.8906 264.469 30.946 264.631 30.9886L265.517 31.2273C265.744 31.2869 265.997 31.3693 266.276 31.4744C266.557 31.5795 266.825 31.723 267.081 31.9048C267.339 32.0838 267.553 32.3139 267.72 32.5952C267.888 32.8764 267.972 33.2216 267.972 33.6307C267.972 34.1023 267.848 34.5284 267.601 34.9091C267.357 35.2898 266.999 35.5923 266.527 35.8168C266.058 36.0412 265.489 36.1534 264.818 36.1534C264.193 36.1534 263.652 36.0526 263.195 35.8509C262.74 35.6491 262.382 35.3679 262.121 35.0071C261.862 34.6463 261.716 34.2273 261.682 33.75H262.773C262.801 34.0795 262.912 34.3523 263.105 34.5682C263.301 34.7812 263.548 34.9403 263.847 35.0455C264.148 35.1477 264.472 35.1989 264.818 35.1989C265.222 35.1989 265.584 35.1335 265.905 35.0028C266.226 34.8693 266.48 34.6847 266.668 34.4489C266.855 34.2102 266.949 33.9318 266.949 33.6136C266.949 33.3239 266.868 33.0881 266.706 32.9062C266.544 32.7244 266.331 32.5767 266.067 32.4631C265.803 32.3494 265.517 32.25 265.21 32.1648L264.136 31.858C263.455 31.6619 262.915 31.3821 262.517 31.0185C262.119 30.6548 261.92 30.179 261.92 29.5909C261.92 29.1023 262.053 28.6761 262.317 28.3125C262.584 27.946 262.942 27.6619 263.391 27.4602C263.842 27.2557 264.347 27.1534 264.903 27.1534C265.466 27.1534 265.966 27.2543 266.403 27.456C266.841 27.6548 267.188 27.9276 267.443 28.2741C267.702 28.6207 267.838 29.0142 267.852 29.4545H266.83ZM272.232 36.1364C271.641 36.1364 271.123 35.9957 270.676 35.7145C270.233 35.4332 269.887 35.0398 269.637 34.5341C269.39 34.0284 269.266 33.4375 269.266 32.7614C269.266 32.0795 269.39 31.4844 269.637 30.9759C269.887 30.4673 270.233 30.0724 270.676 29.7912C271.123 29.5099 271.641 29.3693 272.232 29.3693C272.823 29.3693 273.34 29.5099 273.783 29.7912C274.229 30.0724 274.576 30.4673 274.823 30.9759C275.073 31.4844 275.198 32.0795 275.198 32.7614C275.198 33.4375 275.073 34.0284 274.823 34.5341C274.576 35.0398 274.229 35.4332 273.783 35.7145C273.34 35.9957 272.823 36.1364 272.232 36.1364ZM272.232 35.233C272.681 35.233 273.05 35.1179 273.34 34.8878C273.63 34.6577 273.844 34.3551 273.983 33.9801C274.123 33.6051 274.192 33.1989 274.192 32.7614C274.192 32.3239 274.123 31.9162 273.983 31.5384C273.844 31.1605 273.63 30.8551 273.34 30.6222C273.05 30.3892 272.681 30.2727 272.232 30.2727C271.783 30.2727 271.414 30.3892 271.124 30.6222C270.834 30.8551 270.62 31.1605 270.48 31.5384C270.341 31.9162 270.272 32.3239 270.272 32.7614C270.272 33.1989 270.341 33.6051 270.48 33.9801C270.62 34.3551 270.834 34.6577 271.124 34.8878C271.414 35.1179 271.783 35.233 272.232 35.233ZM280.858 33.3239V29.4545H281.864V36H280.858V34.892H280.79C280.636 35.2244 280.398 35.5071 280.074 35.7401C279.75 35.9702 279.341 36.0852 278.847 36.0852C278.438 36.0852 278.074 35.9957 277.756 35.8168C277.438 35.6349 277.188 35.3622 277.006 34.9986C276.824 34.6321 276.733 34.1705 276.733 33.6136V29.4545H277.739V33.5455C277.739 34.0227 277.872 34.4034 278.139 34.6875C278.409 34.9716 278.753 35.1136 279.17 35.1136C279.42 35.1136 279.675 35.0497 279.933 34.9219C280.195 34.794 280.413 34.598 280.589 34.3338C280.768 34.0696 280.858 33.733 280.858 33.3239ZM284.711 32.0625V36H283.706V29.4545H284.677V30.4773H284.762C284.916 30.1449 285.149 29.8778 285.461 29.6761C285.774 29.4716 286.177 29.3693 286.672 29.3693C287.115 29.3693 287.502 29.4602 287.835 29.642C288.167 29.821 288.426 30.0938 288.61 30.4602C288.795 30.8239 288.887 31.2841 288.887 31.8409V36H287.882V31.9091C287.882 31.3949 287.748 30.9943 287.481 30.7074C287.214 30.4176 286.848 30.2727 286.382 30.2727C286.061 30.2727 285.774 30.3423 285.521 30.4815C285.271 30.6207 285.074 30.8239 284.929 31.0909C284.784 31.358 284.711 31.6818 284.711 32.0625ZM293.197 36.1364C292.651 36.1364 292.17 35.9986 291.752 35.723C291.335 35.4446 291.008 35.0526 290.772 34.5469C290.536 34.0384 290.418 33.4375 290.418 32.7443C290.418 32.0568 290.536 31.4602 290.772 30.9545C291.008 30.4489 291.336 30.0582 291.756 29.7827C292.177 29.5071 292.663 29.3693 293.214 29.3693C293.64 29.3693 293.977 29.4403 294.224 29.5824C294.474 29.7216 294.664 29.8807 294.795 30.0597C294.928 30.2358 295.032 30.3807 295.106 30.4943H295.191V27.2727H296.197V36H295.225V34.9943H295.106C295.032 35.1136 294.927 35.2642 294.79 35.446C294.654 35.625 294.46 35.7855 294.207 35.9276C293.954 36.0668 293.617 36.1364 293.197 36.1364ZM293.333 35.233C293.737 35.233 294.077 35.1278 294.356 34.9176C294.634 34.7045 294.846 34.4105 294.991 34.0355C295.136 33.6577 295.208 33.2216 295.208 32.7273C295.208 32.2386 295.137 31.8111 294.995 31.4446C294.853 31.0753 294.643 30.7884 294.364 30.5838C294.086 30.3764 293.742 30.2727 293.333 30.2727C292.907 30.2727 292.552 30.3821 292.268 30.6009C291.987 30.8168 291.775 31.1108 291.633 31.483C291.494 31.8523 291.424 32.267 291.424 32.7273C291.424 33.1932 291.495 33.6165 291.637 33.9972C291.782 34.375 291.995 34.6761 292.276 34.9006C292.56 35.1222 292.913 35.233 293.333 35.233ZM306.462 29.4545C306.411 29.0227 306.204 28.6875 305.84 28.4489C305.477 28.2102 305.031 28.0909 304.502 28.0909C304.116 28.0909 303.778 28.1534 303.488 28.2784C303.201 28.4034 302.977 28.5753 302.815 28.794C302.656 29.0128 302.576 29.2614 302.576 29.5398C302.576 29.7727 302.631 29.973 302.742 30.1406C302.856 30.3054 303.001 30.4432 303.177 30.554C303.353 30.6619 303.538 30.7514 303.731 30.8224C303.924 30.8906 304.102 30.946 304.263 30.9886L305.15 31.2273C305.377 31.2869 305.63 31.3693 305.908 31.4744C306.19 31.5795 306.458 31.723 306.714 31.9048C306.972 32.0838 307.185 32.3139 307.353 32.5952C307.521 32.8764 307.604 33.2216 307.604 33.6307C307.604 34.1023 307.481 34.5284 307.234 34.9091C306.989 35.2898 306.631 35.5923 306.16 35.8168C305.691 36.0412 305.121 36.1534 304.451 36.1534C303.826 36.1534 303.285 36.0526 302.827 35.8509C302.373 35.6491 302.015 35.3679 301.754 35.0071C301.495 34.6463 301.349 34.2273 301.315 33.75H302.406C302.434 34.0795 302.545 34.3523 302.738 34.5682C302.934 34.7812 303.181 34.9403 303.479 35.0455C303.781 35.1477 304.104 35.1989 304.451 35.1989C304.854 35.1989 305.217 35.1335 305.538 35.0028C305.859 34.8693 306.113 34.6847 306.3 34.4489C306.488 34.2102 306.582 33.9318 306.582 33.6136C306.582 33.3239 306.501 33.0881 306.339 32.9062C306.177 32.7244 305.964 32.5767 305.7 32.4631C305.435 32.3494 305.15 32.25 304.843 32.1648L303.769 31.858C303.087 31.6619 302.548 31.3821 302.15 31.0185C301.752 30.6548 301.553 30.179 301.553 29.5909C301.553 29.1023 301.685 28.6761 301.95 28.3125C302.217 27.946 302.575 27.6619 303.023 27.4602C303.475 27.2557 303.979 27.1534 304.536 27.1534C305.099 27.1534 305.599 27.2543 306.036 27.456C306.474 27.6548 306.82 27.9276 307.076 28.2741C307.335 28.6207 307.471 29.0142 307.485 29.4545H306.462ZM311.95 36.1364C311.319 36.1364 310.775 35.9972 310.318 35.7188C309.863 35.4375 309.512 35.0455 309.265 34.5426C309.021 34.0369 308.899 33.4489 308.899 32.7784C308.899 32.108 309.021 31.517 309.265 31.0057C309.512 30.4915 309.856 30.0909 310.297 29.804C310.74 29.5142 311.257 29.3693 311.848 29.3693C312.189 29.3693 312.525 29.4261 312.858 29.5398C313.19 29.6534 313.493 29.8381 313.765 30.0938C314.038 30.3466 314.255 30.6818 314.417 31.0994C314.579 31.517 314.66 32.0312 314.66 32.642V33.0682H309.615V32.1989H313.637C313.637 31.8295 313.564 31.5 313.416 31.2102C313.271 30.9205 313.064 30.6918 312.794 30.5241C312.527 30.3565 312.211 30.2727 311.848 30.2727C311.447 30.2727 311.1 30.3722 310.808 30.571C310.518 30.767 310.295 31.0227 310.139 31.3381C309.983 31.6534 309.904 31.9915 309.904 32.3523V32.9318C309.904 33.4261 309.99 33.8452 310.16 34.1889C310.333 34.5298 310.574 34.7898 310.88 34.9688C311.187 35.1449 311.544 35.233 311.95 35.233C312.214 35.233 312.453 35.196 312.666 35.1222C312.882 35.0455 313.068 34.9318 313.224 34.7812C313.38 34.6278 313.501 34.4375 313.586 34.2102L314.558 34.483C314.456 34.8125 314.284 35.1023 314.042 35.3523C313.801 35.5994 313.502 35.7926 313.147 35.9318C312.792 36.0682 312.393 36.1364 311.95 36.1364ZM317.196 32.0625V36H316.19V29.4545H317.162V30.4773H317.247C317.4 30.1449 317.633 29.8778 317.946 29.6761C318.258 29.4716 318.662 29.3693 319.156 29.3693C319.599 29.3693 319.987 29.4602 320.319 29.642C320.652 29.821 320.91 30.0938 321.095 30.4602C321.279 30.8239 321.372 31.2841 321.372 31.8409V36H320.366V31.9091C320.366 31.3949 320.233 30.9943 319.966 30.7074C319.699 30.4176 319.332 30.2727 318.866 30.2727C318.545 30.2727 318.258 30.3423 318.005 30.4815C317.755 30.6207 317.558 30.8239 317.413 31.0909C317.268 31.358 317.196 31.6818 317.196 32.0625ZM327.846 30.9205L326.942 31.1761C326.886 31.0256 326.802 30.8793 326.691 30.7372C326.583 30.5923 326.435 30.473 326.248 30.3793C326.06 30.2855 325.82 30.2386 325.528 30.2386C325.127 30.2386 324.793 30.331 324.526 30.5156C324.262 30.6974 324.13 30.929 324.13 31.2102C324.13 31.4602 324.221 31.6577 324.403 31.8026C324.585 31.9474 324.869 32.0682 325.255 32.1648L326.227 32.4034C326.812 32.5455 327.248 32.7628 327.535 33.0554C327.822 33.3452 327.965 33.7187 327.965 34.1761C327.965 34.5511 327.857 34.8864 327.641 35.1818C327.428 35.4773 327.13 35.7102 326.746 35.8807C326.363 36.0511 325.917 36.1364 325.408 36.1364C324.741 36.1364 324.188 35.9915 323.751 35.7017C323.313 35.4119 323.036 34.9886 322.92 34.4318L323.874 34.1932C323.965 34.5455 324.137 34.8097 324.39 34.9858C324.646 35.1619 324.979 35.25 325.391 35.25C325.86 35.25 326.232 35.1506 326.508 34.9517C326.786 34.75 326.925 34.5085 326.925 34.2273C326.925 34 326.846 33.8097 326.687 33.6562C326.528 33.5 326.283 33.3835 325.954 33.3068L324.863 33.0511C324.263 32.9091 323.823 32.6889 323.542 32.3906C323.263 32.0895 323.124 31.7131 323.124 31.2614C323.124 30.892 323.228 30.5653 323.435 30.2812C323.646 29.9972 323.931 29.7741 324.292 29.6122C324.656 29.4503 325.067 29.3693 325.528 29.3693C326.175 29.3693 326.684 29.5114 327.053 29.7955C327.425 30.0795 327.69 30.4545 327.846 30.9205ZM332.138 36.1364C331.547 36.1364 331.029 35.9957 330.583 35.7145C330.14 35.4332 329.793 35.0398 329.543 34.5341C329.296 34.0284 329.172 33.4375 329.172 32.7614C329.172 32.0795 329.296 31.4844 329.543 30.9759C329.793 30.4673 330.14 30.0724 330.583 29.7912C331.029 29.5099 331.547 29.3693 332.138 29.3693C332.729 29.3693 333.246 29.5099 333.689 29.7912C334.135 30.0724 334.482 30.4673 334.729 30.9759C334.979 31.4844 335.104 32.0795 335.104 32.7614C335.104 33.4375 334.979 34.0284 334.729 34.5341C334.482 35.0398 334.135 35.4332 333.689 35.7145C333.246 35.9957 332.729 36.1364 332.138 36.1364ZM332.138 35.233C332.587 35.233 332.956 35.1179 333.246 34.8878C333.536 34.6577 333.75 34.3551 333.89 33.9801C334.029 33.6051 334.098 33.1989 334.098 32.7614C334.098 32.3239 334.029 31.9162 333.89 31.5384C333.75 31.1605 333.536 30.8551 333.246 30.6222C332.956 30.3892 332.587 30.2727 332.138 30.2727C331.689 30.2727 331.32 30.3892 331.03 30.6222C330.74 30.8551 330.526 31.1605 330.387 31.5384C330.248 31.9162 330.178 32.3239 330.178 32.7614C330.178 33.1989 330.248 33.6051 330.387 33.9801C330.526 34.3551 330.74 34.6577 331.03 34.8878C331.32 35.1179 331.689 35.233 332.138 35.233ZM336.639 36V29.4545H337.611V30.4432H337.679C337.798 30.1193 338.014 29.8565 338.327 29.6548C338.639 29.4531 338.991 29.3523 339.384 29.3523C339.457 29.3523 339.55 29.3537 339.661 29.3565C339.771 29.3594 339.855 29.3636 339.912 29.3693V30.392C339.878 30.3835 339.8 30.3707 339.678 30.3537C339.558 30.3338 339.432 30.3239 339.298 30.3239C338.98 30.3239 338.696 30.3906 338.446 30.5241C338.199 30.6548 338.003 30.8366 337.858 31.0696C337.716 31.2997 337.645 31.5625 337.645 31.858V36H336.639Z" fill="black"/>
<path d="M141.83 139.455C141.778 139.023 141.571 138.688 141.207 138.449C140.844 138.21 140.398 138.091 139.869 138.091C139.483 138.091 139.145 138.153 138.855 138.278C138.568 138.403 138.344 138.575 138.182 138.794C138.023 139.013 137.943 139.261 137.943 139.54C137.943 139.773 137.999 139.973 138.109 140.141C138.223 140.305 138.368 140.443 138.544 140.554C138.72 140.662 138.905 140.751 139.098 140.822C139.291 140.891 139.469 140.946 139.631 140.989L140.517 141.227C140.744 141.287 140.997 141.369 141.276 141.474C141.557 141.58 141.825 141.723 142.081 141.905C142.339 142.084 142.553 142.314 142.72 142.595C142.888 142.876 142.972 143.222 142.972 143.631C142.972 144.102 142.848 144.528 142.601 144.909C142.357 145.29 141.999 145.592 141.527 145.817C141.058 146.041 140.489 146.153 139.818 146.153C139.193 146.153 138.652 146.053 138.195 145.851C137.74 145.649 137.382 145.368 137.121 145.007C136.862 144.646 136.716 144.227 136.682 143.75H137.773C137.801 144.08 137.912 144.352 138.105 144.568C138.301 144.781 138.548 144.94 138.847 145.045C139.148 145.148 139.472 145.199 139.818 145.199C140.222 145.199 140.584 145.134 140.905 145.003C141.226 144.869 141.48 144.685 141.668 144.449C141.855 144.21 141.949 143.932 141.949 143.614C141.949 143.324 141.868 143.088 141.706 142.906C141.544 142.724 141.331 142.577 141.067 142.463C140.803 142.349 140.517 142.25 140.21 142.165L139.136 141.858C138.455 141.662 137.915 141.382 137.517 141.018C137.119 140.655 136.92 140.179 136.92 139.591C136.92 139.102 137.053 138.676 137.317 138.312C137.584 137.946 137.942 137.662 138.391 137.46C138.842 137.256 139.347 137.153 139.903 137.153C140.466 137.153 140.966 137.254 141.403 137.456C141.841 137.655 142.188 137.928 142.443 138.274C142.702 138.621 142.838 139.014 142.852 139.455H141.83ZM144.232 138.21V137.273H150.777V138.21H148.033V146H146.976V138.21H144.232ZM152.408 137.273H153.67L156.636 144.517H156.738L159.704 137.273H160.965V146H159.977V139.369H159.891L157.164 146H156.21L153.482 139.369H153.397V146H152.408V137.273ZM165.88 146.119C165.317 146.119 164.816 146.023 164.375 145.83C163.938 145.636 163.59 145.368 163.331 145.024C163.076 144.678 162.936 144.276 162.914 143.818H163.988C164.01 144.099 164.107 144.342 164.277 144.547C164.448 144.749 164.671 144.905 164.946 145.016C165.222 145.126 165.527 145.182 165.863 145.182C166.238 145.182 166.57 145.116 166.86 144.986C167.15 144.855 167.377 144.673 167.542 144.44C167.706 144.207 167.789 143.938 167.789 143.631C167.789 143.31 167.709 143.027 167.55 142.783C167.391 142.536 167.158 142.342 166.851 142.203C166.544 142.064 166.169 141.994 165.726 141.994H165.027V141.057H165.726C166.073 141.057 166.377 140.994 166.638 140.869C166.902 140.744 167.108 140.568 167.256 140.341C167.407 140.114 167.482 139.847 167.482 139.54C167.482 139.244 167.417 138.987 167.286 138.768C167.155 138.55 166.971 138.379 166.732 138.257C166.496 138.135 166.218 138.074 165.897 138.074C165.596 138.074 165.311 138.129 165.044 138.24C164.78 138.348 164.564 138.506 164.397 138.713C164.229 138.918 164.138 139.165 164.124 139.455H163.101C163.118 138.997 163.256 138.597 163.515 138.253C163.773 137.906 164.111 137.636 164.529 137.443C164.949 137.25 165.411 137.153 165.914 137.153C166.453 137.153 166.917 137.263 167.303 137.482C167.689 137.697 167.986 137.983 168.194 138.338C168.401 138.693 168.505 139.077 168.505 139.489C168.505 139.98 168.375 140.399 168.117 140.746C167.861 141.092 167.513 141.332 167.073 141.466V141.534C167.624 141.625 168.054 141.859 168.364 142.237C168.674 142.612 168.828 143.077 168.828 143.631C168.828 144.105 168.699 144.531 168.441 144.909C168.185 145.284 167.836 145.58 167.392 145.795C166.949 146.011 166.445 146.119 165.88 146.119ZM170.571 146V145.233L173.452 142.08C173.79 141.71 174.069 141.389 174.287 141.116C174.506 140.841 174.668 140.582 174.773 140.341C174.881 140.097 174.935 139.841 174.935 139.574C174.935 139.267 174.861 139.001 174.713 138.777C174.569 138.553 174.37 138.379 174.117 138.257C173.864 138.135 173.58 138.074 173.265 138.074C172.929 138.074 172.637 138.143 172.387 138.283C172.14 138.419 171.948 138.611 171.811 138.858C171.678 139.105 171.611 139.395 171.611 139.727H170.605C170.605 139.216 170.723 138.767 170.959 138.381C171.195 137.994 171.516 137.693 171.922 137.477C172.331 137.261 172.79 137.153 173.299 137.153C173.81 137.153 174.263 137.261 174.658 137.477C175.053 137.693 175.363 137.984 175.587 138.351C175.811 138.717 175.924 139.125 175.924 139.574C175.924 139.895 175.865 140.209 175.749 140.516C175.635 140.82 175.436 141.159 175.152 141.534C174.871 141.906 174.48 142.361 173.98 142.898L172.02 144.994V145.062H176.077V146H170.571ZM188.388 140H187.331C187.269 139.696 187.159 139.429 187.003 139.199C186.85 138.969 186.662 138.776 186.441 138.619C186.222 138.46 185.979 138.341 185.712 138.261C185.445 138.182 185.167 138.142 184.877 138.142C184.348 138.142 183.87 138.276 183.441 138.543C183.015 138.81 182.675 139.203 182.422 139.723C182.172 140.243 182.047 140.881 182.047 141.636C182.047 142.392 182.172 143.03 182.422 143.55C182.675 144.07 183.015 144.463 183.441 144.73C183.87 144.997 184.348 145.131 184.877 145.131C185.167 145.131 185.445 145.091 185.712 145.011C185.979 144.932 186.222 144.814 186.441 144.658C186.662 144.499 186.85 144.304 187.003 144.074C187.159 143.841 187.269 143.574 187.331 143.273H188.388C188.309 143.719 188.164 144.118 187.953 144.47C187.743 144.822 187.482 145.122 187.169 145.369C186.857 145.614 186.506 145.8 186.117 145.928C185.73 146.055 185.317 146.119 184.877 146.119C184.132 146.119 183.471 145.938 182.891 145.574C182.311 145.21 181.855 144.693 181.523 144.023C181.191 143.352 181.025 142.557 181.025 141.636C181.025 140.716 181.191 139.92 181.523 139.25C181.855 138.58 182.311 138.062 182.891 137.699C183.471 137.335 184.132 137.153 184.877 137.153C185.317 137.153 185.73 137.217 186.117 137.345C186.506 137.473 186.857 137.661 187.169 137.908C187.482 138.152 187.743 138.45 187.953 138.803C188.164 139.152 188.309 139.551 188.388 140ZM192.619 146.136C192.028 146.136 191.509 145.996 191.063 145.714C190.62 145.433 190.273 145.04 190.023 144.534C189.776 144.028 189.653 143.437 189.653 142.761C189.653 142.08 189.776 141.484 190.023 140.976C190.273 140.467 190.62 140.072 191.063 139.791C191.509 139.51 192.028 139.369 192.619 139.369C193.21 139.369 193.727 139.51 194.17 139.791C194.616 140.072 194.962 140.467 195.21 140.976C195.46 141.484 195.585 142.08 195.585 142.761C195.585 143.437 195.46 144.028 195.21 144.534C194.962 145.04 194.616 145.433 194.17 145.714C193.727 145.996 193.21 146.136 192.619 146.136ZM192.619 145.233C193.067 145.233 193.437 145.118 193.727 144.888C194.016 144.658 194.231 144.355 194.37 143.98C194.509 143.605 194.579 143.199 194.579 142.761C194.579 142.324 194.509 141.916 194.37 141.538C194.231 141.161 194.016 140.855 193.727 140.622C193.437 140.389 193.067 140.273 192.619 140.273C192.17 140.273 191.8 140.389 191.511 140.622C191.221 140.855 191.006 141.161 190.867 141.538C190.728 141.916 190.658 142.324 190.658 142.761C190.658 143.199 190.728 143.605 190.867 143.98C191.006 144.355 191.221 144.658 191.511 144.888C191.8 145.118 192.17 145.233 192.619 145.233ZM198.125 142.062V146H197.12V139.455H198.091V140.477H198.176C198.33 140.145 198.563 139.878 198.875 139.676C199.188 139.472 199.591 139.369 200.086 139.369C200.529 139.369 200.917 139.46 201.249 139.642C201.581 139.821 201.84 140.094 202.025 140.46C202.209 140.824 202.301 141.284 202.301 141.841V146H201.296V141.909C201.296 141.395 201.162 140.994 200.895 140.707C200.628 140.418 200.262 140.273 199.796 140.273C199.475 140.273 199.188 140.342 198.935 140.482C198.685 140.621 198.488 140.824 198.343 141.091C198.198 141.358 198.125 141.682 198.125 142.062ZM206.986 139.455V140.307H203.594V139.455H206.986ZM204.582 137.886H205.588V144.125C205.588 144.409 205.629 144.622 205.712 144.764C205.797 144.903 205.905 144.997 206.036 145.045C206.169 145.091 206.31 145.114 206.457 145.114C206.568 145.114 206.659 145.108 206.73 145.097C206.801 145.082 206.858 145.071 206.901 145.062L207.105 145.966C207.037 145.991 206.942 146.017 206.82 146.043C206.697 146.071 206.543 146.085 206.355 146.085C206.071 146.085 205.793 146.024 205.52 145.902C205.25 145.78 205.026 145.594 204.847 145.344C204.67 145.094 204.582 144.778 204.582 144.398V137.886ZM208.499 146V139.455H209.47V140.443H209.538C209.658 140.119 209.874 139.857 210.186 139.655C210.499 139.453 210.851 139.352 211.243 139.352C211.317 139.352 211.409 139.354 211.52 139.357C211.631 139.359 211.714 139.364 211.771 139.369V140.392C211.737 140.384 211.659 140.371 211.537 140.354C211.418 140.334 211.291 140.324 211.158 140.324C210.839 140.324 210.555 140.391 210.305 140.524C210.058 140.655 209.862 140.837 209.717 141.07C209.575 141.3 209.504 141.562 209.504 141.858V146H208.499ZM215.423 146.136C214.832 146.136 214.314 145.996 213.868 145.714C213.425 145.433 213.078 145.04 212.828 144.534C212.581 144.028 212.457 143.437 212.457 142.761C212.457 142.08 212.581 141.484 212.828 140.976C213.078 140.467 213.425 140.072 213.868 139.791C214.314 139.51 214.832 139.369 215.423 139.369C216.014 139.369 216.531 139.51 216.974 139.791C217.42 140.072 217.767 140.467 218.014 140.976C218.264 141.484 218.389 142.08 218.389 142.761C218.389 143.437 218.264 144.028 218.014 144.534C217.767 145.04 217.42 145.433 216.974 145.714C216.531 145.996 216.014 146.136 215.423 146.136ZM215.423 145.233C215.872 145.233 216.241 145.118 216.531 144.888C216.821 144.658 217.036 144.355 217.175 143.98C217.314 143.605 217.384 143.199 217.384 142.761C217.384 142.324 217.314 141.916 217.175 141.538C217.036 141.161 216.821 140.855 216.531 140.622C216.241 140.389 215.872 140.273 215.423 140.273C214.974 140.273 214.605 140.389 214.315 140.622C214.026 140.855 213.811 141.161 213.672 141.538C213.533 141.916 213.463 142.324 213.463 142.761C213.463 143.199 213.533 143.605 213.672 143.98C213.811 144.355 214.026 144.658 214.315 144.888C214.605 145.118 214.974 145.233 215.423 145.233ZM220.93 137.273V146H219.924V137.273H220.93ZM223.778 137.273V146H222.772V137.273H223.778ZM228.364 146.136C227.733 146.136 227.189 145.997 226.732 145.719C226.277 145.438 225.926 145.045 225.679 144.543C225.435 144.037 225.313 143.449 225.313 142.778C225.313 142.108 225.435 141.517 225.679 141.006C225.926 140.491 226.27 140.091 226.711 139.804C227.154 139.514 227.671 139.369 228.262 139.369C228.603 139.369 228.939 139.426 229.272 139.54C229.604 139.653 229.907 139.838 230.179 140.094C230.452 140.347 230.669 140.682 230.831 141.099C230.993 141.517 231.074 142.031 231.074 142.642V143.068H226.029V142.199H230.051C230.051 141.83 229.978 141.5 229.83 141.21C229.685 140.92 229.478 140.692 229.208 140.524C228.941 140.357 228.625 140.273 228.262 140.273C227.861 140.273 227.515 140.372 227.222 140.571C226.932 140.767 226.709 141.023 226.553 141.338C226.397 141.653 226.319 141.991 226.319 142.352V142.932C226.319 143.426 226.404 143.845 226.574 144.189C226.748 144.53 226.988 144.79 227.294 144.969C227.601 145.145 227.958 145.233 228.364 145.233C228.628 145.233 228.867 145.196 229.08 145.122C229.296 145.045 229.482 144.932 229.638 144.781C229.794 144.628 229.915 144.437 230 144.21L230.972 144.483C230.87 144.812 230.698 145.102 230.456 145.352C230.215 145.599 229.917 145.793 229.561 145.932C229.206 146.068 228.807 146.136 228.364 146.136ZM232.604 146V139.455H233.576V140.443H233.644C233.763 140.119 233.979 139.857 234.292 139.655C234.604 139.453 234.956 139.352 235.348 139.352C235.422 139.352 235.515 139.354 235.625 139.357C235.736 139.359 235.82 139.364 235.877 139.369V140.392C235.843 140.384 235.765 140.371 235.642 140.354C235.523 140.334 235.397 140.324 235.263 140.324C234.945 140.324 234.661 140.391 234.411 140.524C234.164 140.655 233.968 140.837 233.823 141.07C233.681 141.3 233.61 141.562 233.61 141.858V146H232.604Z" fill="black"/>
<path d="M39.8295 249.455C39.7784 249.023 39.571 248.688 39.2074 248.449C38.8438 248.21 38.3977 248.091 37.8693 248.091C37.483 248.091 37.1449 248.153 36.8551 248.278C36.5682 248.403 36.3438 248.575 36.1818 248.794C36.0227 249.013 35.9432 249.261 35.9432 249.54C35.9432 249.773 35.9986 249.973 36.1094 250.141C36.223 250.305 36.3679 250.443 36.544 250.554C36.7202 250.662 36.9048 250.751 37.098 250.822C37.2912 250.891 37.4688 250.946 37.6307 250.989L38.517 251.227C38.7443 251.287 38.9972 251.369 39.2756 251.474C39.5568 251.58 39.8253 251.723 40.081 251.905C40.3395 252.084 40.5526 252.314 40.7202 252.595C40.8878 252.876 40.9716 253.222 40.9716 253.631C40.9716 254.102 40.848 254.528 40.6009 254.909C40.3565 255.29 39.9986 255.592 39.527 255.817C39.0582 256.041 38.4886 256.153 37.8182 256.153C37.1932 256.153 36.652 256.053 36.1946 255.851C35.7401 255.649 35.3821 255.368 35.1207 255.007C34.8622 254.646 34.7159 254.227 34.6818 253.75H35.7727C35.8011 254.08 35.9119 254.352 36.1051 254.568C36.3011 254.781 36.5483 254.94 36.8466 255.045C37.1477 255.148 37.4716 255.199 37.8182 255.199C38.2216 255.199 38.5838 255.134 38.9048 255.003C39.2259 254.869 39.4801 254.685 39.6676 254.449C39.8551 254.21 39.9489 253.932 39.9489 253.614C39.9489 253.324 39.8679 253.088 39.706 252.906C39.544 252.724 39.331 252.577 39.0668 252.463C38.8026 252.349 38.517 252.25 38.2102 252.165L37.1364 251.858C36.4545 251.662 35.9148 251.382 35.517 251.018C35.1193 250.655 34.9205 250.179 34.9205 249.591C34.9205 249.102 35.0526 248.676 35.3168 248.312C35.5838 247.946 35.9418 247.662 36.3906 247.46C36.8423 247.256 37.3466 247.153 37.9034 247.153C38.4659 247.153 38.9659 247.254 39.4034 247.456C39.8409 247.655 40.1875 247.928 40.4432 248.274C40.7017 248.621 40.8381 249.014 40.8523 249.455H39.8295ZM45.3171 256.136C44.6864 256.136 44.1424 255.997 43.685 255.719C43.2305 255.438 42.8796 255.045 42.6325 254.543C42.3881 254.037 42.266 253.449 42.266 252.778C42.266 252.108 42.3881 251.517 42.6325 251.006C42.8796 250.491 43.2234 250.091 43.6637 249.804C44.1069 249.514 44.6239 249.369 45.2148 249.369C45.5558 249.369 45.8924 249.426 46.2248 249.54C46.5572 249.653 46.8597 249.838 47.1325 250.094C47.4052 250.347 47.6225 250.682 47.7844 251.099C47.9464 251.517 48.0273 252.031 48.0273 252.642V253.068H42.9819V252.199H47.0046C47.0046 251.83 46.9308 251.5 46.783 251.21C46.6381 250.92 46.4308 250.692 46.1609 250.524C45.8938 250.357 45.5785 250.273 45.2148 250.273C44.8143 250.273 44.4677 250.372 44.1751 250.571C43.8853 250.767 43.6623 251.023 43.506 251.338C43.3498 251.653 43.2717 251.991 43.2717 252.352V252.932C43.2717 253.426 43.3569 253.845 43.5273 254.189C43.7006 254.53 43.9407 254.79 44.2475 254.969C44.5543 255.145 44.9109 255.233 45.3171 255.233C45.5813 255.233 45.82 255.196 46.033 255.122C46.2489 255.045 46.435 254.932 46.5913 254.781C46.7475 254.628 46.8683 254.437 46.9535 254.21L47.9251 254.483C47.8228 254.812 47.6509 255.102 47.4094 255.352C47.168 255.599 46.8697 255.793 46.5146 255.932C46.1594 256.068 45.7603 256.136 45.3171 256.136ZM49.5572 256V249.455H50.5288V250.443H50.5969C50.7163 250.119 50.9322 249.857 51.2447 249.655C51.5572 249.453 51.9094 249.352 52.3015 249.352C52.3754 249.352 52.4677 249.354 52.5785 249.357C52.6893 249.359 52.7731 249.364 52.8299 249.369V250.392C52.7958 250.384 52.7177 250.371 52.5955 250.354C52.4762 250.334 52.3498 250.324 52.2163 250.324C51.8981 250.324 51.614 250.391 51.364 250.524C51.1168 250.655 50.9208 250.837 50.7759 251.07C50.6339 251.3 50.5629 251.562 50.5629 251.858V256H49.5572ZM59.5735 249.455L57.1531 256H56.1303L53.7099 249.455H54.8008L56.6076 254.67H56.6758L58.4826 249.455H59.5735ZM63.3256 256.136C62.7347 256.136 62.2163 255.996 61.7702 255.714C61.3271 255.433 60.9805 255.04 60.7305 254.534C60.4833 254.028 60.3597 253.437 60.3597 252.761C60.3597 252.08 60.4833 251.484 60.7305 250.976C60.9805 250.467 61.3271 250.072 61.7702 249.791C62.2163 249.51 62.7347 249.369 63.3256 249.369C63.9165 249.369 64.4336 249.51 64.8768 249.791C65.3228 250.072 65.6694 250.467 65.9165 250.976C66.1665 251.484 66.2915 252.08 66.2915 252.761C66.2915 253.437 66.1665 254.028 65.9165 254.534C65.6694 255.04 65.3228 255.433 64.8768 255.714C64.4336 255.996 63.9165 256.136 63.3256 256.136ZM63.3256 255.233C63.7745 255.233 64.1438 255.118 64.4336 254.888C64.7234 254.658 64.9379 254.355 65.0771 253.98C65.2163 253.605 65.2859 253.199 65.2859 252.761C65.2859 252.324 65.2163 251.916 65.0771 251.538C64.9379 251.161 64.7234 250.855 64.4336 250.622C64.1438 250.389 63.7745 250.273 63.3256 250.273C62.8768 250.273 62.5075 250.389 62.2177 250.622C61.9279 250.855 61.7134 251.161 61.5742 251.538C61.435 251.916 61.3654 252.324 61.3654 252.761C61.3654 253.199 61.435 253.605 61.5742 253.98C61.7134 254.355 61.9279 254.658 62.2177 254.888C62.5075 255.118 62.8768 255.233 63.3256 255.233ZM71.3381 247.273H72.5994L75.5653 254.517H75.6676L78.6335 247.273H79.8949V256H78.9062V249.369H78.821L76.0938 256H75.1392L72.4119 249.369H72.3267V256H71.3381V247.273ZM84.5366 256.136C83.9457 256.136 83.4272 255.996 82.9812 255.714C82.538 255.433 82.1914 255.04 81.9414 254.534C81.6942 254.028 81.5707 253.437 81.5707 252.761C81.5707 252.08 81.6942 251.484 81.9414 250.976C82.1914 250.467 82.538 250.072 82.9812 249.791C83.4272 249.51 83.9457 249.369 84.5366 249.369C85.1275 249.369 85.6445 249.51 86.0877 249.791C86.5337 250.072 86.8803 250.467 87.1275 250.976C87.3775 251.484 87.5025 252.08 87.5025 252.761C87.5025 253.437 87.3775 254.028 87.1275 254.534C86.8803 255.04 86.5337 255.433 86.0877 255.714C85.6445 255.996 85.1275 256.136 84.5366 256.136ZM84.5366 255.233C84.9854 255.233 85.3548 255.118 85.6445 254.888C85.9343 254.658 86.1488 254.355 86.288 253.98C86.4272 253.605 86.4968 253.199 86.4968 252.761C86.4968 252.324 86.4272 251.916 86.288 251.538C86.1488 251.161 85.9343 250.855 85.6445 250.622C85.3548 250.389 84.9854 250.273 84.5366 250.273C84.0877 250.273 83.7184 250.389 83.4286 250.622C83.1388 250.855 82.9244 251.161 82.7852 251.538C82.646 251.916 82.5763 252.324 82.5763 252.761C82.5763 253.199 82.646 253.605 82.7852 253.98C82.9244 254.355 83.1388 254.658 83.4286 254.888C83.7184 255.118 84.0877 255.233 84.5366 255.233ZM91.8842 249.455V250.307H88.4922V249.455H91.8842ZM89.4808 247.886H90.4865V254.125C90.4865 254.409 90.5277 254.622 90.6101 254.764C90.6953 254.903 90.8033 254.997 90.9339 255.045C91.0675 255.091 91.2081 255.114 91.3558 255.114C91.4666 255.114 91.5575 255.108 91.6286 255.097C91.6996 255.082 91.7564 255.071 91.799 255.062L92.0036 255.966C91.9354 255.991 91.8402 256.017 91.718 256.043C91.5959 256.071 91.4411 256.085 91.2536 256.085C90.9695 256.085 90.6911 256.024 90.4183 255.902C90.1484 255.78 89.924 255.594 89.745 255.344C89.5689 255.094 89.4808 254.778 89.4808 254.398V247.886ZM95.9858 256.136C95.3949 256.136 94.8764 255.996 94.4304 255.714C93.9872 255.433 93.6406 255.04 93.3906 254.534C93.1435 254.028 93.0199 253.437 93.0199 252.761C93.0199 252.08 93.1435 251.484 93.3906 250.976C93.6406 250.467 93.9872 250.072 94.4304 249.791C94.8764 249.51 95.3949 249.369 95.9858 249.369C96.5767 249.369 97.0938 249.51 97.5369 249.791C97.983 250.072 98.3295 250.467 98.5767 250.976C98.8267 251.484 98.9517 252.08 98.9517 252.761C98.9517 253.437 98.8267 254.028 98.5767 254.534C98.3295 255.04 97.983 255.433 97.5369 255.714C97.0938 255.996 96.5767 256.136 95.9858 256.136ZM95.9858 255.233C96.4347 255.233 96.804 255.118 97.0938 254.888C97.3835 254.658 97.598 254.355 97.7372 253.98C97.8764 253.605 97.946 253.199 97.946 252.761C97.946 252.324 97.8764 251.916 97.7372 251.538C97.598 251.161 97.3835 250.855 97.0938 250.622C96.804 250.389 96.4347 250.273 95.9858 250.273C95.5369 250.273 95.1676 250.389 94.8778 250.622C94.5881 250.855 94.3736 251.161 94.2344 251.538C94.0952 251.916 94.0256 252.324 94.0256 252.761C94.0256 253.199 94.0952 253.605 94.2344 253.98C94.3736 254.355 94.5881 254.658 94.8778 254.888C95.1676 255.118 95.5369 255.233 95.9858 255.233ZM100.487 256V249.455H101.458V250.443H101.527C101.646 250.119 101.862 249.857 102.174 249.655C102.487 249.453 102.839 249.352 103.231 249.352C103.305 249.352 103.397 249.354 103.508 249.357C103.619 249.359 103.703 249.364 103.76 249.369V250.392C103.725 250.384 103.647 250.371 103.525 250.354C103.406 250.334 103.279 250.324 103.146 250.324C102.828 250.324 102.544 250.391 102.294 250.524C102.047 250.655 101.85 250.837 101.706 251.07C101.564 251.3 101.493 251.562 101.493 251.858V256H100.487ZM109.588 250.92L108.685 251.176C108.628 251.026 108.544 250.879 108.433 250.737C108.325 250.592 108.178 250.473 107.99 250.379C107.803 250.286 107.562 250.239 107.27 250.239C106.869 250.239 106.536 250.331 106.268 250.516C106.004 250.697 105.872 250.929 105.872 251.21C105.872 251.46 105.963 251.658 106.145 251.803C106.327 251.947 106.611 252.068 106.997 252.165L107.969 252.403C108.554 252.545 108.99 252.763 109.277 253.055C109.564 253.345 109.707 253.719 109.707 254.176C109.707 254.551 109.599 254.886 109.384 255.182C109.17 255.477 108.872 255.71 108.489 255.881C108.105 256.051 107.659 256.136 107.151 256.136C106.483 256.136 105.93 255.991 105.493 255.702C105.055 255.412 104.778 254.989 104.662 254.432L105.616 254.193C105.707 254.545 105.879 254.81 106.132 254.986C106.388 255.162 106.722 255.25 107.134 255.25C107.602 255.25 107.974 255.151 108.25 254.952C108.528 254.75 108.668 254.509 108.668 254.227C108.668 254 108.588 253.81 108.429 253.656C108.27 253.5 108.026 253.384 107.696 253.307L106.605 253.051C106.006 252.909 105.565 252.689 105.284 252.391C105.006 252.089 104.866 251.713 104.866 251.261C104.866 250.892 104.97 250.565 105.178 250.281C105.388 249.997 105.673 249.774 106.034 249.612C106.398 249.45 106.81 249.369 107.27 249.369C107.918 249.369 108.426 249.511 108.795 249.795C109.168 250.08 109.432 250.455 109.588 250.92Z" fill="black"/>
<path d="M269.42 251.636C269.42 252.557 269.254 253.352 268.922 254.023C268.589 254.693 268.134 255.21 267.554 255.574C266.974 255.938 266.313 256.119 265.568 256.119C264.824 256.119 264.162 255.938 263.582 255.574C263.003 255.21 262.547 254.693 262.214 254.023C261.882 253.352 261.716 252.557 261.716 251.636C261.716 250.716 261.882 249.92 262.214 249.25C262.547 248.58 263.003 248.062 263.582 247.699C264.162 247.335 264.824 247.153 265.568 247.153C266.313 247.153 266.974 247.335 267.554 247.699C268.134 248.062 268.589 248.58 268.922 249.25C269.254 249.92 269.42 250.716 269.42 251.636ZM268.398 251.636C268.398 250.881 268.271 250.243 268.018 249.723C267.768 249.203 267.429 248.81 267 248.543C266.574 248.276 266.097 248.142 265.568 248.142C265.04 248.142 264.561 248.276 264.132 248.543C263.706 248.81 263.366 249.203 263.114 249.723C262.864 250.243 262.739 250.881 262.739 251.636C262.739 252.392 262.864 253.03 263.114 253.55C263.366 254.07 263.706 254.463 264.132 254.73C264.561 254.997 265.04 255.131 265.568 255.131C266.097 255.131 266.574 254.997 267 254.73C267.429 254.463 267.768 254.07 268.018 253.55C268.271 253.03 268.398 252.392 268.398 251.636ZM271.197 256V247.273H272.254V255.062H276.311V256H271.197ZM277.947 256V247.273H283.214V248.21H279.004V251.159H282.942V252.097H279.004V255.062H283.283V256H277.947ZM287.812 256H285.119V247.273H287.932C288.778 247.273 289.503 247.447 290.105 247.797C290.707 248.143 291.169 248.642 291.49 249.293C291.811 249.94 291.972 250.716 291.972 251.619C291.972 252.528 291.81 253.311 291.486 253.967C291.162 254.621 290.69 255.124 290.071 255.476C289.452 255.825 288.699 256 287.812 256ZM286.176 255.062H287.744C288.466 255.062 289.064 254.923 289.538 254.645C290.013 254.366 290.366 253.97 290.599 253.456C290.832 252.942 290.949 252.33 290.949 251.619C290.949 250.915 290.834 250.308 290.604 249.8C290.374 249.288 290.03 248.896 289.572 248.624C289.115 248.348 288.545 248.21 287.864 248.21H286.176V255.062ZM299.812 256H297.119V247.273H299.932C300.778 247.273 301.503 247.447 302.105 247.797C302.707 248.143 303.169 248.642 303.49 249.293C303.811 249.94 303.972 250.716 303.972 251.619C303.972 252.528 303.81 253.311 303.486 253.967C303.162 254.621 302.69 255.124 302.071 255.476C301.452 255.825 300.699 256 299.812 256ZM298.176 255.062H299.744C300.466 255.062 301.064 254.923 301.538 254.645C302.013 254.366 302.366 253.97 302.599 253.456C302.832 252.942 302.949 252.33 302.949 251.619C302.949 250.915 302.834 250.308 302.604 249.8C302.374 249.288 302.03 248.896 301.572 248.624C301.115 248.348 300.545 248.21 299.864 248.21H298.176V255.062ZM305.608 256V249.455H306.614V256H305.608ZM306.119 248.364C305.923 248.364 305.754 248.297 305.612 248.163C305.473 248.03 305.403 247.869 305.403 247.682C305.403 247.494 305.473 247.334 305.612 247.2C305.754 247.067 305.923 247 306.119 247C306.315 247 306.483 247.067 306.622 247.2C306.764 247.334 306.835 247.494 306.835 247.682C306.835 247.869 306.764 248.03 306.622 248.163C306.483 248.297 306.315 248.364 306.119 248.364ZM313.092 250.92L312.189 251.176C312.132 251.026 312.048 250.879 311.937 250.737C311.829 250.592 311.681 250.473 311.494 250.379C311.306 250.286 311.066 250.239 310.774 250.239C310.373 250.239 310.039 250.331 309.772 250.516C309.508 250.697 309.376 250.929 309.376 251.21C309.376 251.46 309.467 251.658 309.649 251.803C309.831 251.947 310.115 252.068 310.501 252.165L311.473 252.403C312.058 252.545 312.494 252.763 312.781 253.055C313.068 253.345 313.211 253.719 313.211 254.176C313.211 254.551 313.103 254.886 312.887 255.182C312.674 255.477 312.376 255.71 311.993 255.881C311.609 256.051 311.163 256.136 310.654 256.136C309.987 256.136 309.434 255.991 308.997 255.702C308.559 255.412 308.282 254.989 308.166 254.432L309.12 254.193C309.211 254.545 309.383 254.81 309.636 254.986C309.892 255.162 310.225 255.25 310.637 255.25C311.106 255.25 311.478 255.151 311.754 254.952C312.032 254.75 312.172 254.509 312.172 254.227C312.172 254 312.092 253.81 311.933 253.656C311.774 253.5 311.529 253.384 311.2 253.307L310.109 253.051C309.51 252.909 309.069 252.689 308.788 252.391C308.51 252.089 308.37 251.713 308.37 251.261C308.37 250.892 308.474 250.565 308.681 250.281C308.892 249.997 309.177 249.774 309.538 249.612C309.902 249.45 310.314 249.369 310.774 249.369C311.422 249.369 311.93 249.511 312.299 249.795C312.672 250.08 312.936 250.455 313.092 250.92ZM314.725 258.455V249.455H315.697V250.494H315.816C315.89 250.381 315.992 250.236 316.123 250.06C316.256 249.881 316.447 249.722 316.694 249.582C316.944 249.44 317.282 249.369 317.708 249.369C318.259 249.369 318.745 249.507 319.165 249.783C319.586 250.058 319.914 250.449 320.15 250.955C320.386 251.46 320.504 252.057 320.504 252.744C320.504 253.438 320.386 254.038 320.15 254.547C319.914 255.053 319.587 255.445 319.17 255.723C318.752 255.999 318.271 256.136 317.725 256.136C317.305 256.136 316.968 256.067 316.715 255.928C316.462 255.786 316.268 255.625 316.131 255.446C315.995 255.264 315.89 255.114 315.816 254.994H315.731V258.455H314.725ZM315.714 252.727C315.714 253.222 315.786 253.658 315.931 254.036C316.076 254.411 316.288 254.705 316.566 254.918C316.844 255.128 317.185 255.233 317.589 255.233C318.009 255.233 318.36 255.122 318.641 254.901C318.925 254.676 319.138 254.375 319.281 253.997C319.425 253.616 319.498 253.193 319.498 252.727C319.498 252.267 319.427 251.852 319.285 251.483C319.146 251.111 318.934 250.817 318.65 250.601C318.369 250.382 318.015 250.273 317.589 250.273C317.18 250.273 316.836 250.376 316.558 250.584C316.279 250.788 316.069 251.075 315.927 251.445C315.785 251.811 315.714 252.239 315.714 252.727ZM323.043 247.273V256H322.038V247.273H323.043ZM326.811 256.153C326.397 256.153 326.02 256.075 325.682 255.919C325.344 255.76 325.076 255.531 324.877 255.233C324.678 254.932 324.578 254.568 324.578 254.142C324.578 253.767 324.652 253.463 324.8 253.23C324.948 252.994 325.145 252.81 325.392 252.676C325.64 252.543 325.912 252.443 326.211 252.378C326.512 252.31 326.814 252.256 327.118 252.216C327.516 252.165 327.838 252.126 328.086 252.101C328.336 252.072 328.517 252.026 328.631 251.96C328.748 251.895 328.806 251.781 328.806 251.619V251.585C328.806 251.165 328.691 250.838 328.461 250.605C328.233 250.372 327.888 250.256 327.425 250.256C326.945 250.256 326.569 250.361 326.296 250.571C326.023 250.781 325.831 251.006 325.721 251.244L324.766 250.903C324.936 250.506 325.164 250.196 325.448 249.974C325.735 249.75 326.047 249.594 326.385 249.506C326.726 249.415 327.061 249.369 327.391 249.369C327.601 249.369 327.843 249.395 328.115 249.446C328.391 249.494 328.657 249.595 328.912 249.749C329.171 249.902 329.385 250.134 329.556 250.443C329.726 250.753 329.811 251.168 329.811 251.688V256H328.806V255.114H328.755C328.686 255.256 328.573 255.408 328.414 255.57C328.255 255.732 328.043 255.869 327.779 255.983C327.515 256.097 327.192 256.153 326.811 256.153ZM326.965 255.25C327.363 255.25 327.698 255.172 327.971 255.016C328.246 254.859 328.453 254.658 328.593 254.411C328.735 254.163 328.806 253.903 328.806 253.631V252.71C328.763 252.761 328.669 252.808 328.525 252.851C328.382 252.891 328.218 252.926 328.03 252.957C327.846 252.986 327.665 253.011 327.489 253.034C327.316 253.054 327.175 253.071 327.067 253.085C326.806 253.119 326.561 253.175 326.334 253.251C326.11 253.325 325.928 253.437 325.789 253.588C325.652 253.736 325.584 253.937 325.584 254.193C325.584 254.543 325.713 254.807 325.972 254.986C326.233 255.162 326.564 255.25 326.965 255.25ZM332.06 258.455C331.89 258.455 331.738 258.44 331.604 258.412C331.471 258.386 331.379 258.361 331.327 258.335L331.583 257.449C331.827 257.511 332.043 257.534 332.231 257.517C332.418 257.5 332.585 257.416 332.729 257.266C332.877 257.118 333.012 256.878 333.134 256.545L333.322 256.034L330.901 249.455H331.992L333.799 254.67H333.867L335.674 249.455H336.765L333.987 256.955C333.862 257.293 333.707 257.572 333.522 257.794C333.337 258.018 333.123 258.185 332.879 258.293C332.637 258.401 332.364 258.455 332.06 258.455Z" fill="black"/>
<line x1="123.5" y1="61" x2="123.5" y2="88" stroke="#333333"/>
<line x1="251.5" y1="61" x2="251.5" y2="88" stroke="#333333"/>
<line x1="251" y1="88.5" x2="123" y2="88.5" stroke="#333333"/>
<path d="M185.293 111.707C185.683 112.098 186.317 112.098 186.707 111.707L193.071 105.343C193.462 104.953 193.462 104.319 193.071 103.929C192.681 103.538 192.047 103.538 191.657 103.929L186 109.586L180.343 103.929C179.953 103.538 179.319 103.538 178.929 103.929C178.538 104.319 178.538 104.953 178.929 105.343L185.293 111.707ZM186 88L185 88L185 111L186 111L187 111L187 88L186 88Z" fill="#333333"/>
<line x1="186.5" y1="171" x2="186.5" y2="196" stroke="#333333"/>
<line x1="187" y1="196.5" x2="80" y2="196.5" stroke="#333333"/>
<path d="M79.2929 222.707C79.6834 223.098 80.3166 223.098 80.7071 222.707L87.0711 216.343C87.4616 215.953 87.4616 215.319 87.0711 214.929C86.6805 214.538 86.0474 214.538 85.6569 214.929L80 220.586L74.3431 214.929C73.9526 214.538 73.3195 214.538 72.9289 214.929C72.5384 215.319 72.5384 215.953 72.9289 216.343L79.2929 222.707ZM80 196L79 196L79 222L80 222L81 222L81 196L80 196Z" fill="#333333"/>
<line x1="187" y1="195.5" x2="294" y2="195.5" stroke="#333333"/>
<path d="M292.293 222.707C292.683 223.098 293.317 223.098 293.707 222.707L300.071 216.343C300.462 215.953 300.462 215.319 300.071 214.929C299.681 214.538 299.047 214.538 298.657 214.929L293 220.586L287.343 214.929C286.953 214.538 286.319 214.538 285.929 214.929C285.538 215.319 285.538 215.953 285.929 216.343L292.293 222.707ZM293 196L292 196L292 222L293 222L294 222L294 196L293 196Z" fill="#333333"/>
</svg>
