<?xml version="1.0" standalone="no"?>
<!DOCTYPE svg PUBLIC "-//W3C//DTD SVG 20010904//EN"
 "http://www.w3.org/TR/2001/REC-SVG-20010904/DTD/svg10.dtd">
<svg version="1.0" xmlns="http://www.w3.org/2000/svg"
 width="962.000000pt" height="700.000000pt" viewBox="0 0 962.000000 700.000000"
 preserveAspectRatio="xMidYMid meet">

<g transform="translate(0.000000,700.000000) scale(0.100000,-0.100000)"
fill="#000000" stroke="none">
<path d="M9600 3822 l0 -3182 -2255 0 -2255 0 2 -322 3 -323 2 317 3 318 2250
0 2250 0 0 -317 c0 -174 2 -314 5 -311 7 6 7 6990 0 6996 -3 3 -5 -1426 -5
-3176z"/>
<path d="M5170 6768 c0 -12 7 -18 23 -17 15 0 17 2 7 6 -8 3 -18 11 -22 17 -5
7 -8 4 -8 -6z"/>
<path d="M5172 6698 c-1 -28 2 -37 8 -28 5 8 6 18 4 22 -3 4 0 8 6 8 7 0 10
-7 7 -15 -4 -8 -2 -17 3 -20 6 -4 10 12 9 37 -1 24 -3 35 -6 25 -2 -9 -9 -15
-14 -11 -5 3 -7 10 -4 15 4 5 2 9 -3 9 -5 0 -10 -19 -10 -42z"/>
<path d="M5960 6670 c0 -23 5 -30 19 -30 25 0 32 11 24 38 -3 13 -13 22 -24
22 -14 0 -19 -7 -19 -30z m35 -10 c3 -5 -1 -10 -9 -10 -9 0 -16 5 -16 10 0 6
4 10 9 10 6 0 13 -4 16 -10z"/>
<path d="M6068 6689 c-6 -18 2 -49 13 -49 5 0 6 7 3 15 -4 8 -1 15 5 15 6 0
11 -6 11 -13 0 -9 12 -14 30 -15 24 0 30 4 30 20 0 16 -5 19 -21 15 -13 -3
-22 0 -26 10 -5 12 -7 12 -14 1 -8 -11 -10 -11 -18 1 -7 11 -9 11 -13 0z m82
-29 c0 -5 -4 -10 -10 -10 -5 0 -10 5 -10 10 0 6 5 10 10 10 6 0 10 -4 10 -10z"/>
<path d="M6021 6663 c-1 -14 5 -23 14 -23 9 0 15 9 14 23 0 21 -1 21 -8 2 l-8
-20 -5 20 c-5 18 -6 18 -7 -2z"/>
<path d="M6171 6658 c1 -17 2 -19 6 -5 2 9 8 17 13 17 5 0 11 -8 13 -17 4 -14
5 -12 6 5 1 16 -5 22 -19 22 -14 0 -20 -6 -19 -22z"/>
<path d="M5071 6651 c-31 -5 -33 -7 -18 -20 11 -9 17 -10 17 -2 0 15 27 14 33
-1 3 -7 6 -3 6 10 1 12 0 21 -1 21 -2 -1 -18 -4 -37 -8z"/>
<path d="M5170 6635 c0 -6 9 -11 20 -11 11 0 20 5 20 11 0 6 -9 11 -20 11 -11
0 -20 -5 -20 -11z"/>
<path d="M6631 6611 c1 -20 3 -28 6 -18 5 18 5 18 20 0 8 -10 12 -12 8 -5 -10
20 5 52 25 52 17 0 18 -4 10 -26 -6 -14 -10 -28 -10 -32 1 -10 17 19 24 45 7
21 4 22 -38 21 l-46 -1 1 -36z m24 19 c3 -5 1 -10 -4 -10 -6 0 -11 5 -11 10 0
6 2 10 4 10 3 0 8 -4 11 -10z"/>
<path d="M5042 6590 c0 -14 2 -19 5 -12 2 6 2 18 0 25 -3 6 -5 1 -5 -13z"/>
<path d="M5102 6590 c0 -14 2 -19 5 -12 2 6 2 18 0 25 -3 6 -5 1 -5 -13z"/>
<path d="M5183 6603 c9 -2 17 -8 17 -13 0 -5 -8 -11 -17 -13 -14 -4 -12 -5 5
-6 16 -1 22 5 22 19 0 14 -6 20 -22 19 -17 -1 -19 -2 -5 -6z"/>
<path d="M5920 6576 c0 -8 8 -17 18 -21 16 -7 15 -8 -3 -15 -16 -7 -17 -9 -3
-9 25 -1 34 20 14 35 -16 12 -16 13 1 17 14 4 14 5 -4 6 -14 1 -23 -5 -23 -13z"/>
<path d="M5974 6577 c3 -10 6 -26 6 -35 0 -14 2 -14 9 -3 7 11 9 11 14 0 4
-10 6 -9 6 3 1 9 4 25 7 35 4 13 3 14 -4 5 -5 -8 -13 -14 -17 -14 -4 0 -12 6
-17 14 -7 9 -8 8 -4 -5z"/>
<path d="M6070 6566 c0 -19 -6 -26 -27 -29 -26 -4 -26 -4 5 -6 22 -1 32 3 32
14 0 8 7 15 15 15 8 0 15 7 15 15 0 8 -9 15 -20 15 -15 0 -20 -7 -20 -24z"/>
<path d="M6221 6559 c2 -29 3 -30 7 -9 l5 25 8 -25 c6 -22 7 -23 8 -4 1 12 -6
27 -14 34 -13 11 -15 8 -14 -21z"/>
<path d="M6131 6558 c-1 -19 4 -28 14 -28 10 0 15 9 14 28 -2 27 -2 27 -7 2
l-5 -25 -8 25 -7 25 -1 -27z"/>
<path d="M6174 6569 c-3 -6 -1 -15 6 -19 10 -6 9 -9 -1 -13 -10 -4 -9 -6 4 -6
12 -1 17 7 17 24 0 26 -14 33 -26 14z"/>
<path d="M5440 6410 l0 -160 -100 0 -100 0 0 45 c0 33 4 45 15 45 17 0 20 28
5 50 -8 11 -9 8 -4 -12 l6 -28 -131 0 -131 0 5 28 c4 22 4 24 -4 7 -14 -30
-13 -45 5 -45 11 0 14 -5 10 -16 -3 -9 -6 -18 -6 -20 0 -2 -14 -4 -32 -4 -38
0 -30 -13 9 -14 l28 -1 3 -97 3 -98 -631 0 c-623 0 -630 0 -630 20 0 19 -7 20
-110 20 -103 0 -110 -1 -110 -20 0 -19 -7 -20 -234 -20 l-235 0 -4 28 -4 27
-2 -27 c-1 -25 -5 -28 -38 -28 l-38 1 35 19 c46 25 30 26 -20 0 l-39 -20 -4
28 -4 27 -2 -27 -1 -28 -345 0 -345 0 0 -24 c0 -19 -6 -25 -25 -28 l-26 -3 28
-33 28 -33 34 35 35 36 -32 0 c-25 0 -32 4 -32 20 0 20 7 20 339 20 l340 0 4
-27 4 -28 2 28 1 27 40 -20 c50 -25 67 -26 20 0 l-35 19 37 1 c32 0 37 -3 41
-27 l4 -28 2 28 1 27 235 0 c228 0 235 -1 235 -20 0 -19 7 -20 110 -20 103 0
110 1 110 20 0 20 7 20 630 20 l630 0 0 -185 0 -185 135 0 135 0 0 -101 c0
-68 -3 -98 -11 -94 -6 4 -8 13 -5 21 7 18 -3 17 -34 -2 -24 -14 -24 -15 -2
-11 12 3 22 1 22 -4 0 -5 -16 -9 -36 -9 l-36 0 4 53 c3 38 1 54 -8 54 -7 0
-13 -3 -12 -6 2 -24 -6 -31 -34 -31 -17 0 -28 -3 -24 -7 4 -5 19 -8 33 -8 15
0 28 -5 30 -11 2 -7 -8 -9 -27 -6 -25 4 -32 0 -37 -17 -5 -21 -9 -21 -234 -21
l-229 0 0 -100 c0 -60 -4 -100 -10 -100 -5 0 -10 11 -10 25 0 19 -4 23 -17 18
-11 -4 -12 -8 -5 -11 16 -5 15 -32 0 -33 -7 -1 1 -5 17 -9 26 -6 23 -8 -20 -8
-27 0 -41 3 -31 5 15 4 16 7 5 14 -12 8 -12 11 1 19 13 9 13 10 0 10 -13 0
-13 1 0 10 13 8 13 10 -2 10 -12 0 -18 -10 -20 -32 -2 -18 -8 -32 -14 -31 -6
1 -11 -4 -11 -10 0 -9 17 -12 59 -9 l58 4 0 -66 c0 -59 -2 -66 -20 -66 -13 0
-20 -7 -20 -20 0 -14 5 -18 16 -13 13 5 13 7 2 14 -10 7 -8 9 6 9 12 0 16 -5
12 -16 -3 -9 -6 -18 -6 -20 0 -2 -8 -4 -17 -5 -12 -1 -10 -4 7 -9 20 -7 16 -8
-22 -9 -38 -1 -46 2 -42 14 7 18 21 19 27 3 3 -7 5 3 5 22 0 19 -2 27 -5 18
-2 -10 -9 -18 -14 -18 -5 0 -10 8 -10 18 -1 9 -5 1 -8 -18 -4 -19 -11 -34 -17
-33 -6 1 -11 -4 -11 -10 0 -9 17 -12 59 -9 l58 4 0 -96 c0 -57 -4 -96 -10 -96
-5 0 -10 14 -10 32 0 38 -13 30 -14 -9 -1 -21 -6 -28 -21 -28 -15 0 -21 8 -23
30 -2 21 0 26 7 16 5 -8 7 -21 4 -30 -4 -13 -3 -14 5 -2 7 10 7 21 1 33 -15
27 -27 22 -31 -14 -2 -18 -8 -32 -14 -31 -6 1 -11 -4 -11 -10 0 -9 17 -12 59
-9 53 4 58 2 58 -16 0 -15 -5 -19 -20 -15 -12 3 -20 0 -20 -6 0 -7 5 -9 11 -5
6 3 15 0 20 -7 12 -19 11 -29 -2 -29 -5 0 -7 5 -4 10 10 15 -11 12 -24 -4 -10
-12 -7 -15 16 -19 15 -2 6 -4 -22 -4 -27 -1 -43 1 -33 4 19 5 30 27 22 48 -11
27 -33 16 -36 -17 -2 -18 -8 -32 -14 -31 -6 1 -11 -4 -11 -10 0 -9 17 -12 59
-9 l58 4 -1 -48 c-1 -27 -4 -39 -6 -26 -2 12 -8 22 -13 22 -5 0 -6 -8 -3 -17
5 -12 2 -15 -10 -10 -9 3 -19 2 -22 -3 -8 -13 -35 -13 -35 0 0 6 7 10 15 10
17 0 19 9 6 28 -6 10 -11 5 -21 -17 -7 -17 -16 -29 -19 -26 -4 2 -8 -1 -8 -8
0 -9 17 -12 59 -9 l58 4 0 -106 0 -106 -45 0 c-25 0 -45 5 -45 10 0 7 15 9 40
5 36 -5 40 -4 40 15 0 11 -6 20 -12 20 -9 0 -8 4 2 10 13 8 13 10 -2 10 -11 0
-20 -10 -24 -26 l-7 -27 -12 29 -12 29 -12 -38 c-7 -20 -16 -35 -20 -33 -4 3
-8 0 -8 -7 0 -9 17 -12 59 -9 l58 4 0 -70 c0 -64 -2 -70 -19 -65 -10 3 -22 0
-25 -6 -4 -7 -1 -8 8 -5 21 8 20 -10 -1 -27 -15 -13 -13 -15 13 -20 22 -5 17
-7 -21 -7 -27 0 -41 3 -31 5 15 4 16 7 5 14 -12 7 -12 9 1 9 13 0 13 1 0 10
-13 9 -13 11 0 20 13 8 13 10 -2 10 -12 0 -18 -10 -20 -32 -2 -18 -8 -32 -14
-31 -6 1 -11 -4 -11 -10 0 -9 17 -12 59 -9 48 3 58 1 58 -12 0 -11 -9 -16 -27
-17 -18 -1 -21 -3 -10 -6 9 -2 15 -9 12 -14 -4 -5 -1 -9 4 -9 6 0 11 5 11 12
0 6 3 8 6 5 10 -10 -18 -39 -32 -33 -7 3 -14 1 -16 -4 -2 -6 -9 -5 -18 0 -13
9 -13 11 0 20 13 9 13 10 0 10 -13 0 -13 1 0 10 13 8 13 10 -2 10 -11 0 -18
-10 -20 -27 -2 -16 -8 -27 -14 -26 -6 1 -11 -4 -11 -10 0 -9 17 -12 59 -9 l58
4 0 -38 c0 -29 -3 -35 -10 -24 -6 9 -10 10 -10 3 0 -6 -8 -14 -17 -16 -17 -4
-17 -5 0 -6 9 0 17 -5 17 -11 0 -13 -30 -13 -50 0 -12 8 -13 11 -1 19 11 7 11
9 0 14 -12 4 -11 7 1 16 13 9 13 11 -2 11 -12 0 -18 -10 -20 -32 -2 -18 -8
-32 -14 -31 -6 1 -11 -4 -11 -10 0 -9 17 -12 59 -9 l58 4 0 -51 0 -51 -44 0
c-39 0 -44 2 -39 20 3 11 10 20 17 20 6 0 4 5 -4 10 -11 7 -7 10 18 10 36 0
39 -6 15 -32 -15 -17 -15 -18 8 -18 17 0 20 3 10 9 -9 6 -10 11 -2 15 26 17
11 36 -28 36 -37 0 -40 -2 -43 -32 -2 -18 -8 -32 -14 -31 -6 1 -11 -4 -11 -10
0 -9 17 -12 59 -9 l58 4 -1 -48 c-2 -45 -2 -46 -8 -14 -5 31 -9 35 -43 37 -35
3 -37 2 -40 -29 -2 -18 -8 -32 -14 -31 -6 1 -11 -4 -11 -10 0 -9 17 -12 59 -9
47 3 58 1 58 -11 0 -9 -11 -17 -27 -20 l-28 -4 28 -2 c23 -1 27 -5 27 -31 l0
-30 -180 0 -180 0 0 930 0 930 -265 0 c-258 0 -265 1 -265 20 0 19 -7 20 -110
20 -103 0 -110 -1 -110 -20 0 -19 -7 -20 -234 -20 l-235 0 -4 28 -4 27 -2 -27
c-1 -25 -5 -28 -38 -28 l-38 1 35 19 c46 25 30 26 -20 0 l-39 -20 -4 28 -4 27
-2 -27 -1 -28 -345 0 -345 0 0 -24 c0 -19 -6 -25 -25 -28 l-26 -3 28 -33 28
-33 34 35 35 36 -32 0 c-25 0 -32 4 -32 20 0 20 7 20 339 20 l340 0 4 -27 4
-28 2 28 1 27 40 -20 c50 -25 67 -26 20 0 l-35 19 37 1 c32 0 37 -3 41 -27 l4
-28 2 28 1 27 235 0 c228 0 235 -1 235 -20 0 -19 7 -20 110 -20 103 0 110 1
110 20 0 19 7 20 260 20 l260 0 0 -925 0 -925 -75 0 -75 0 0 665 0 665 -185 0
c-178 0 -185 1 -185 20 0 19 -7 20 -110 20 -103 0 -110 -1 -110 -20 0 -19 -7
-20 -234 -20 l-235 0 -4 28 -4 27 -2 -27 c-1 -25 -5 -28 -38 -28 l-38 1 35 19
c46 25 30 26 -20 0 l-39 -20 -4 28 -4 27 -2 -27 -1 -28 -345 0 -345 0 0 -29
c0 -24 -5 -30 -26 -33 l-26 -3 29 -27 29 -28 34 30 35 29 -32 1 c-28 0 -33 4
-33 25 l0 25 340 0 340 0 1 -32 c2 -31 2 -31 6 -5 2 15 6 27 9 27 3 0 27 -11
54 -25 l50 -25 0 30 0 30 235 0 c228 0 235 -1 235 -20 0 -19 7 -20 110 -20
103 0 110 1 110 20 0 19 7 20 180 20 l180 0 0 -665 0 -665 80 0 80 0 0 -50 0
-50 185 0 c175 0 185 -1 185 -19 0 -12 -7 -18 -17 -17 -13 1 -19 -7 -20 -29
-1 -16 0 -24 3 -17 3 6 10 12 16 12 6 0 5 -6 -2 -15 -22 -26 -55 -15 -58 20
-2 21 0 26 7 16 5 -8 7 -21 4 -30 -4 -13 -3 -14 5 -2 7 10 7 21 1 33 -15 27
-27 22 -31 -14 -2 -18 -8 -32 -14 -31 -6 1 -11 -4 -11 -10 0 -9 17 -12 59 -9
48 3 58 1 58 -12 0 -11 -9 -16 -27 -17 -17 -1 -21 -3 -10 -6 20 -5 20 -8 7
-34 -6 -10 -8 -19 -6 -19 3 0 12 12 20 28 l15 27 1 -32 c0 -32 -1 -33 -45 -33
-26 0 -45 5 -45 11 0 6 9 9 19 6 17 -4 18 -2 8 26 l-10 31 -16 -38 c-9 -20
-19 -35 -22 -32 -3 3 -6 0 -6 -7 0 -9 16 -12 59 -9 38 3 58 0 58 -7 0 -6 -9
-11 -20 -11 -13 0 -20 -7 -20 -20 0 -11 6 -20 14 -20 8 0 16 -7 20 -15 4 -13
2 -14 -14 -5 -14 7 -20 7 -20 0 0 -5 -5 -10 -11 -10 -5 0 -8 4 -5 9 8 12 -11
61 -23 61 -5 0 -11 -15 -13 -32 -2 -18 -8 -32 -14 -31 -6 1 -11 -4 -11 -10 0
-9 17 -12 59 -9 l58 4 0 -28 c0 -33 -15 -62 -27 -51 -4 5 -3 11 2 15 15 11 17
34 3 30 -7 -3 -14 -16 -16 -30 -3 -21 2 -27 20 -31 13 -2 1 -5 -27 -5 -37 -1
-45 1 -29 8 16 6 20 15 17 34 -7 37 -31 32 -35 -6 -2 -18 -8 -32 -14 -31 -6 1
-11 -4 -11 -10 0 -9 17 -12 59 -9 48 3 58 1 58 -12 0 -11 -9 -16 -27 -17 -18
-1 -21 -3 -10 -6 9 -2 15 -9 12 -14 -4 -5 -2 -9 3 -9 6 0 12 -6 15 -12 3 -9
-6 -13 -27 -14 -17 -1 -26 1 -20 3 9 3 9 10 0 28 -15 33 -34 32 -38 -2 -2 -16
-8 -27 -14 -26 -6 1 -11 -4 -11 -10 0 -9 17 -12 59 -9 l58 4 0 -46 c0 -25 -4
-46 -10 -46 -5 0 -10 14 -10 32 0 37 -13 30 -14 -8 -1 -15 -7 -29 -15 -32 -8
-3 -11 0 -7 7 9 14 -6 15 -20 1 -10 -10 -10 -6 -5 42 1 4 9 5 19 1 14 -5 15
-3 5 8 -16 17 -35 0 -37 -33 -1 -13 -7 -22 -12 -21 -6 1 -11 -4 -11 -10 0 -9
17 -12 59 -9 48 3 58 1 58 -12 0 -10 -9 -16 -22 -17 -16 0 -18 -2 -8 -6 26
-10 41 -43 19 -43 -5 0 -7 5 -4 10 8 13 -1 13 -24 -2 -20 -12 -51 -5 -51 12 0
6 10 15 23 20 l22 9 -22 0 c-22 1 -25 -3 -27 -44 -1 -11 -6 -19 -12 -18 -6 1
-11 -4 -11 -10 0 -9 17 -12 59 -9 l58 4 0 -421 0 -421 425 0 425 0 0 -185 0
-185 -32 0 -33 -1 35 -29 34 -30 29 28 29 27 -26 3 -26 3 0 185 0 184 45 0
c35 0 43 -3 39 -15 -4 -8 -18 -15 -32 -15 -14 0 -22 -3 -18 -7 4 -4 17 -8 29
-8 13 0 23 -7 25 -18 3 -14 -1 -18 -20 -15 -12 2 -26 8 -30 13 -5 6 -8 3 -8
-7 0 -11 10 -18 28 -20 15 -2 26 -8 25 -14 -1 -6 4 -11 10 -11 9 0 12 17 9 59
l-4 58 51 0 c52 0 62 -8 37 -29 -10 -8 -16 -9 -21 -1 -3 5 2 10 12 11 11 0 13
3 5 6 -7 3 -19 0 -26 -6 -11 -9 -15 -9 -19 1 -4 9 -6 10 -6 1 -1 -16 37 -36
55 -29 10 4 13 -2 12 -18 -2 -18 -8 -23 -28 -22 -14 1 -24 6 -23 13 2 7 -2 13
-7 13 -6 0 -10 -4 -10 -9 0 -15 28 -32 47 -29 10 2 17 -2 16 -8 -1 -6 4 -11
10 -11 9 0 12 17 9 59 l-4 58 426 0 426 0 0 105 0 105 75 0 75 0 0 -370 0
-370 -569 0 c-496 0 -570 2 -575 15 -3 8 -12 15 -21 15 -8 0 -15 -7 -15 -15 0
-21 -18 -19 -23 3 -4 15 -5 14 -6 -2 -1 -20 -1 -20 -16 0 -13 17 -14 17 -15 2
0 -11 -8 -18 -20 -18 -25 0 -26 17 -2 23 13 4 11 5 -5 6 -14 1 -23 -5 -23 -14
0 -13 -91 -15 -755 -15 l-755 0 0 1010 0 1010 -215 0 -215 0 0 160 0 160 -405
0 c-357 0 -404 2 -399 15 4 8 1 21 -5 29 -6 7 -7 16 -3 21 4 4 0 6 -8 3 -8 -2
-16 -19 -18 -36 -3 -28 -7 -32 -33 -32 -28 0 -29 2 -29 45 l0 45 101 0 c56 0
98 -4 95 -9 -3 -5 1 -15 10 -22 14 -12 14 -14 -3 -20 -16 -7 -15 -8 5 -8 26
-1 30 24 5 34 -17 7 -16 8 2 15 30 13 38 12 31 -5 -9 -24 4 -45 28 -44 20 0
20 1 -2 10 -28 11 -25 29 6 40 20 7 22 5 22 -21 0 -22 5 -30 18 -29 10 0 12 3
5 6 -7 2 -13 16 -13 29 l0 24 215 0 215 0 0 195 0 195 -130 0 -130 0 0 125 0
125 125 0 c117 0 125 -1 125 -19 0 -14 -8 -21 -25 -23 l-26 -3 28 -33 28 -33
34 35 35 36 -32 0 c-27 0 -32 4 -32 25 l0 25 -135 0 -135 0 0 -130 0 -130
-245 0 c-157 0 -245 4 -245 10 0 6 -10 10 -22 9 -22 0 -22 -1 -3 -9 19 -8 19
-9 -2 -9 -12 -1 -24 5 -26 12 -4 10 -6 10 -6 0 -1 -10 -202 -13 -971 -13
l-970 0 0 -960 0 -960 1065 0 1064 0 3 103 c3 97 4 102 26 105 l22 3 0 350 0
349 -24 0 c-42 0 -56 10 -56 43 0 37 -13 28 -14 -10 -1 -24 -6 -28 -33 -31
-33 -3 -33 -3 -33 43 l0 47 83 -4 c52 -2 84 1 84 7 0 6 -32 9 -84 7 l-83 -4 0
51 0 51 114 0 c66 0 117 -4 121 -10 3 -5 11 -10 16 -10 6 0 7 5 4 10 -3 6 0
10 8 10 10 0 13 -7 10 -20 -4 -14 0 -20 11 -20 10 0 14 -5 11 -10 -4 -6 -12
-7 -18 -4 -8 5 -8 3 1 -7 10 -10 14 -11 25 0 10 10 9 15 -6 25 -21 16 -22 30
-1 22 8 -3 12 -2 9 4 -4 6 34 10 104 10 l111 0 0 -50 0 -50 -144 0 c-153 0
-156 -1 -156 -51 0 -12 7 -19 19 -19 15 0 21 8 24 33 l4 32 1 -32 c2 -27 6
-33 25 -32 16 1 18 2 5 6 -11 3 -18 14 -18 29 l0 24 120 0 120 0 0 -1140 0
-1140 105 0 105 0 0 -130 0 -130 1730 0 1730 0 0 25 0 25 400 0 400 0 0 290 0
290 610 0 610 0 0 1095 0 1095 -189 0 -190 0 -4 28 -4 27 -2 -28 c-1 -27 -3
-28 -43 -26 -37 3 -44 7 -49 29 l-7 25 -1 -27 -1 -28 -210 0 c-203 0 -210 1
-210 20 0 19 -7 20 -110 20 -103 0 -110 -1 -110 -20 0 -19 -7 -20 -240 -20
l-240 0 0 -24 c0 -19 -6 -25 -25 -28 l-26 -3 28 -33 28 -33 34 35 35 36 -32 0
c-25 0 -32 4 -32 20 0 19 7 20 235 20 228 0 235 -1 235 -20 0 -19 7 -20 110
-20 103 0 110 1 110 20 0 19 7 20 210 20 l210 0 1 -27 1 -28 7 25 c5 22 13 26
48 29 39 2 42 1 46 -26 l4 -28 2 28 1 27 185 0 185 0 0 -1085 0 -1085 -605 0
-605 0 0 375 0 375 -55 0 -55 0 0 425 0 425 -210 0 -210 0 0 920 0 920 495 0
495 0 -2 -307 -3 -308 -72 -3 c-68 -3 -73 -1 -73 18 0 19 -6 20 -110 20 -103
0 -110 -1 -110 -20 0 -19 -7 -20 -240 -20 l-240 0 0 -29 c0 -24 -5 -30 -26
-33 l-26 -3 29 -27 29 -28 34 30 35 29 -32 1 c-28 0 -33 4 -33 25 l0 25 235 0
235 0 0 -25 0 -25 110 0 c110 0 110 0 110 24 l0 25 185 0 185 0 0 -24 0 -25
110 0 110 0 0 25 0 25 265 0 265 0 0 42 c0 39 1 41 15 22 14 -17 14 -15 0 14
-8 17 -18 32 -20 32 -2 0 -12 -15 -20 -32 -14 -29 -14 -31 0 -14 14 19 15 18
15 -17 l0 -37 -260 0 c-253 0 -260 1 -260 20 0 19 -7 20 -110 20 -104 0 -110
-1 -110 -20 0 -20 -5 -21 -102 -18 l-103 3 -3 308 -2 307 530 0 530 0 0 535 0
535 -185 0 -185 0 0 105 0 105 -105 0 -105 0 0 55 0 55 -375 0 -375 0 0 -160
0 -160 -445 0 -445 0 0 55 0 55 -530 0 -530 0 0 125 0 125 73 0 c41 0 78 -5
84 -11 15 -15 43 -4 43 16 0 20 -28 31 -43 16 -6 -6 -44 -11 -89 -11 l-78 0 0
-130 0 -130 -395 0 -395 0 0 125 0 125 101 0 c88 0 100 -2 95 -16 -3 -9 -6
-20 -6 -26 0 -6 -9 -3 -20 7 -18 16 -20 16 -26 1 -4 -9 -4 -20 0 -23 3 -4 6 2
6 12 0 17 3 16 25 -5 14 -13 25 -29 25 -37 0 -10 25 -13 110 -13 l110 0 0 160
0 160 75 0 c73 0 75 -1 75 -24 0 -19 -6 -25 -26 -28 l-26 -3 29 -27 29 -28 34
30 35 29 -32 1 c-30 0 -33 3 -33 30 l0 30 -85 0 -85 0 0 -160z m209 87 c-2 -1
-13 -10 -25 -20 -20 -16 -22 -16 -39 3 -18 20 -18 20 25 20 24 0 41 -1 39 -3z
m371 -152 c0 -8 -7 -15 -15 -15 -8 0 -15 7 -15 15 0 8 7 15 15 15 8 0 15 -7
15 -15z m2498 -72 c-2 -12 -15 -20 -37 -23 -31 -4 -33 -6 -18 -19 11 -9 17
-10 17 -2 0 17 27 13 34 -5 12 -31 4 -34 -99 -34 l-105 0 0 -215 0 -215 105 0
c87 0 105 -3 105 -15 0 -10 -10 -15 -27 -15 -20 0 -24 -3 -14 -9 7 -5 10 -14
7 -20 -4 -6 -2 -11 3 -11 6 0 11 7 11 15 0 8 5 15 10 15 6 0 10 -95 10 -264
l0 -265 -25 -3 -26 -3 29 -34 28 -34 27 34 27 34 -25 3 -25 3 0 285 0 284 105
0 105 0 0 105 0 105 180 0 180 0 0 -525 0 -525 -525 0 -525 0 0 185 0 185
-500 0 -500 0 0 265 0 265 -80 0 -80 0 0 75 0 75 450 0 450 0 0 160 0 160 366
0 c343 0 365 -1 362 -17z m212 -298 l0 -205 -205 0 -205 0 0 205 0 205 205 0
205 0 0 -205z m-4980 110 l0 -35 -100 0 -100 0 0 35 0 35 100 0 100 0 0 -35z
m2070 -55 l0 -50 -265 0 -265 0 0 -60 c0 -50 -3 -60 -17 -61 -15 0 -15 -2 -3
-7 22 -10 24 -42 3 -43 -17 -1 -17 -2 0 -6 12 -3 17 -15 17 -44 l0 -39 -130 0
-130 0 0 180 0 180 395 0 395 0 0 -50z m1060 0 l0 -50 -525 0 -525 0 0 50 0
50 525 0 525 0 0 -50z m-4570 -3 c0 -2 -11 -13 -24 -26 l-23 -22 -17 26 -16
25 40 0 c22 0 40 -1 40 -3z m3510 -137 l0 -80 530 0 530 0 0 -260 0 -260 -157
1 c-95 1 -148 4 -133 9 17 5 19 8 8 9 -20 1 -25 21 -5 21 8 0 8 3 -2 9 -11 7
-10 10 5 14 16 4 16 5 -3 6 -22 1 -23 5 -23 76 l0 75 -216 0 -216 0 4 53 c3
39 1 54 -9 54 -6 0 -10 -4 -7 -9 3 -4 -9 -8 -25 -8 -24 0 -31 -4 -31 -20 0
-16 7 -20 30 -20 17 0 30 -3 30 -7 0 -16 -19 -37 -27 -30 -4 5 -1 12 7 17 11
7 9 9 -9 7 -14 -1 -26 -9 -29 -19 -2 -10 -11 -18 -19 -18 -12 0 -14 11 -11 53
3 39 1 54 -9 54 -6 0 -10 -4 -7 -9 3 -4 -6 -8 -20 -8 -14 0 -26 -6 -26 -12 0
-9 -4 -8 -11 2 -8 12 -10 12 -7 -5 4 -27 54 -34 61 -8 3 10 5 -1 6 -24 1 -34
-2 -41 -14 -37 -18 7 -19 21 -2 27 6 3 -4 5 -23 5 -19 0 -27 -2 -17 -5 17 -4
25 -23 10 -23 -5 0 -19 -3 -32 -7 -23 -6 -23 -5 -19 49 3 39 1 55 -8 55 -7 0
-13 -3 -12 -6 2 -24 -6 -31 -34 -31 -23 0 -29 -3 -19 -9 7 -5 21 -6 31 -4 10
3 21 0 24 -6 4 -7 -1 -11 -13 -11 -12 0 -21 -4 -21 -10 0 -5 6 -7 14 -4 7 3
16 -1 19 -9 4 -12 0 -13 -21 -7 -15 4 -26 13 -24 19 1 7 -2 9 -8 6 -6 -4 -9
-13 -6 -21 3 -8 -1 -14 -10 -14 -13 0 -15 10 -12 53 3 35 0 54 -7 54 -7 0 -10
-19 -7 -53 4 -49 3 -52 -17 -47 -26 7 -27 20 -3 26 9 3 1 5 -18 6 -26 0 -31
-2 -20 -9 13 -9 13 -11 0 -20 -34 -22 -42 -12 -38 43 3 38 1 54 -8 54 -7 0
-13 -3 -12 -6 0 -3 0 -15 -1 -25 -1 -18 -2 -18 -20 -2 -11 10 -25 15 -30 11
-14 -8 -14 -35 -1 -35 6 0 9 3 9 8 -4 21 3 23 21 7 21 -19 21 -19 -12 -38 -24
-13 -27 -17 -10 -13 12 2 22 0 22 -5 0 -5 -16 -9 -36 -9 l-36 0 4 53 c3 39 1
54 -9 54 -6 0 -10 -4 -7 -9 3 -4 -9 -8 -25 -8 -24 0 -31 -4 -31 -20 0 -15 7
-20 28 -20 20 0 23 3 12 10 -8 5 -11 12 -7 17 8 7 27 -14 27 -29 0 -5 -15 -8
-32 -8 -25 0 -29 -3 -18 -10 13 -9 13 -11 0 -20 -34 -22 -42 -12 -38 43 3 39
1 54 -9 54 -6 0 -10 -4 -7 -8 3 -5 -8 -11 -23 -15 -15 -3 -32 -7 -37 -8 -4 -1
0 -8 10 -16 11 -9 15 -10 10 -2 -4 7 -1 12 8 12 9 0 16 -6 17 -12 0 -7 4 -4 9
7 7 16 9 11 9 -22 1 -34 -2 -41 -14 -37 -18 7 -19 21 -2 27 6 3 -4 5 -23 5
-19 0 -27 -2 -17 -5 17 -4 25 -23 10 -23 -5 0 -18 -3 -30 -6 -23 -6 -23 -5
-23 100 l0 106 -50 0 -50 0 0 125 0 125 260 0 260 0 0 -80z m1060 5 l0 -75
-525 0 -525 0 0 75 0 75 525 0 525 0 0 -75z m160 -345 l0 -260 -75 0 -75 0 0
260 0 260 75 0 75 0 0 -260z m-1650 102 l0 -58 -32 0 c-44 1 -46 -28 -3 -31
17 -1 24 0 18 3 -7 3 -13 11 -13 17 0 6 8 4 17 -6 9 -9 15 -18 12 -20 -2 -1
-20 -11 -39 -20 -22 -11 -27 -16 -12 -13 12 2 22 0 22 -5 0 -5 -13 -9 -30 -9
l-30 0 0 100 0 100 45 0 45 0 0 -58z m-1640 -97 l0 -35 -100 0 -100 0 0 35 0
35 100 0 100 0 0 -35z m2260 25 c0 -5 -4 -10 -10 -10 -5 0 -10 5 -10 10 0 6 5
10 10 10 6 0 10 -4 10 -10z m110 0 c0 -5 -4 -10 -10 -10 -5 0 -10 5 -10 10 0
6 5 10 10 10 6 0 10 -4 10 -10z m-955 -50 c3 -5 1 -10 -4 -10 -6 0 -11 5 -11
10 0 6 2 10 4 10 3 0 8 -4 11 -10z m225 0 c0 -5 -4 -10 -10 -10 -5 0 -10 5
-10 10 0 6 5 10 10 10 6 0 10 -4 10 -10z m210 0 c0 -5 -7 -10 -15 -10 -8 0
-15 5 -15 10 0 6 7 10 15 10 8 0 15 -4 15 -10z m110 0 c0 -5 -4 -10 -10 -10
-5 0 -10 5 -10 10 0 6 5 10 10 10 6 0 10 -4 10 -10z m-3400 -33 c0 -2 -11 -13
-24 -26 l-23 -22 -17 26 -16 25 40 0 c22 0 40 -1 40 -3z m4250 -1742 l0 -1745
-950 0 -950 0 0 1745 0 1745 950 0 950 0 0 -1745z m320 1480 l0 -45 -113 0
-113 0 2 30 c2 25 -2 30 -19 29 -12 0 -16 -3 -9 -6 6 -2 10 -9 6 -14 -3 -5 0
-9 5 -9 6 0 11 -5 11 -11 0 -6 -7 -9 -15 -5 -8 3 -15 1 -15 -4 0 -6 -7 -10
-16 -10 -17 0 -16 40 1 52 6 5 3 8 -7 8 -11 0 -18 -10 -21 -32 -3 -25 -4 -22
-5 15 l-2 47 155 0 155 0 0 -45z m160 -135 l0 -180 -25 0 -25 0 0 135 0 135
-50 0 -50 0 0 45 0 45 75 0 75 0 0 -180z m1000 0 l0 -180 -495 0 -495 0 0 180
0 180 495 0 495 0 0 -180z m-1160 -290 l0 -370 -50 0 -50 0 0 55 c0 52 -1 55
-25 55 l-25 0 0 105 0 105 -82 1 c-46 1 -73 4 -60 6 22 4 32 33 11 33 -5 0 -7
-4 -4 -10 3 -5 1 -10 -4 -10 -6 0 -11 4 -11 9 0 5 -3 23 -6 41 l-7 32 55 -4
c39 -3 55 -1 55 8 0 7 -5 12 -10 11 -5 -1 -11 5 -12 15 -2 9 -8 24 -14 35 -11
16 -11 15 -5 -6 4 -16 3 -21 -5 -17 -6 4 -11 2 -11 -3 0 -6 5 -11 10 -11 6 0
10 -4 10 -10 0 -5 -11 -10 -25 -10 -21 0 -24 4 -23 28 1 15 7 30 13 34 6 5 3
8 -7 8 -12 0 -18 -10 -21 -37 -3 -34 -4 -33 -5 11 l-2 48 53 -4 c39 -3 54 -1
54 9 0 6 -3 11 -6 9 -3 -2 -12 2 -18 10 -8 8 -9 15 -3 19 19 12 10 35 -12 34
-17 -1 -19 -2 -5 -6 21 -6 22 -17 1 -34 -14 -12 -14 -14 3 -20 12 -5 5 -8 -24
-8 -36 -1 -41 1 -36 19 7 25 20 26 26 3 3 -10 5 -2 6 17 0 26 -2 31 -9 20 -9
-13 -11 -13 -20 0 -22 34 -12 42 43 38 39 -3 54 -1 54 9 0 6 -3 11 -6 9 -3 -2
-12 2 -18 10 -8 8 -9 15 -3 19 15 9 12 35 -4 35 -8 0 -18 -4 -21 -10 -3 -6 1
-7 9 -4 21 8 20 -10 0 -27 -14 -12 -14 -14 3 -20 11 -5 1 -7 -27 -7 -25 0 -35
3 -22 5 22 4 32 33 11 33 -5 0 -7 -4 -4 -10 3 -5 1 -10 -4 -10 -6 0 -11 4 -11
9 0 5 -3 23 -6 40 l-6 31 156 0 156 0 0 -370z m100 235 l0 -135 30 0 30 0 0
-920 0 -920 -130 0 -130 0 0 680 0 680 55 0 55 0 0 375 0 375 45 0 45 0 0
-135z m1564 110 c-9 -14 -18 -25 -19 -25 -1 0 -10 11 -19 25 l-16 25 35 0 35
0 -16 -25z m-4794 -130 l0 -35 -100 0 -100 0 0 35 0 35 100 0 100 0 0 -35z
m-690 -25 c0 -24 -5 -24 -50 0 l-35 19 43 1 c35 0 42 -3 42 -20z m-751 -43
c-2 -1 -13 -10 -25 -20 -20 -16 -22 -16 -39 3 -18 20 -18 20 25 20 24 0 41 -1
39 -3z m2273 -169 c-9 -9 -12 -7 -12 12 0 19 3 21 12 12 9 -9 9 -15 0 -24z
m2138 -138 l0 -100 -34 0 c-30 0 -33 2 -28 25 2 14 0 25 -6 25 -6 0 -8 -10 -4
-22 4 -17 2 -20 -12 -15 -10 4 -15 3 -11 -3 3 -6 1 -10 -4 -10 -6 0 -12 17
-12 38 -1 20 -3 29 -6 20 -4 -18 -23 -26 -23 -10 0 4 -3 18 -7 31 -6 23 -5 23
49 19 39 -3 55 -1 55 9 0 6 -4 10 -9 7 -4 -3 -8 4 -8 15 0 13 -7 21 -17 22
-15 0 -15 2 2 9 19 8 19 9 -2 9 -14 1 -23 -5 -23 -14 0 -8 7 -15 15 -15 8 0
15 -5 15 -11 0 -6 -7 -9 -15 -5 -8 3 -15 1 -15 -4 0 -6 -7 -10 -16 -10 -17 0
-16 40 1 52 6 5 3 8 -7 8 -11 0 -18 -10 -21 -32 -3 -25 -4 -22 -5 15 l-2 47
75 0 75 0 0 -100z m-120 -85 c0 -8 -4 -15 -10 -15 -5 0 -10 7 -10 15 0 8 5 15
10 15 6 0 10 -7 10 -15z m120 -75 l0 -50 -77 1 c-57 0 -72 3 -55 9 28 12 30
50 2 57 -11 3 -20 12 -20 19 0 11 18 14 75 14 l75 0 0 -50z m50 0 c0 -43 -3
-50 -20 -50 -17 0 -20 7 -20 50 0 43 3 50 20 50 17 0 20 -7 20 -50z m-170 -10
c0 -11 -4 -20 -10 -20 -5 0 -10 9 -10 20 0 11 5 20 10 20 6 0 10 -9 10 -20z
m-3230 7 c0 -2 -11 -13 -24 -26 l-23 -22 -17 26 -16 25 40 0 c22 0 40 -1 40
-3z m1260 -17 c0 -5 -4 -10 -10 -10 -5 0 -10 5 -10 10 0 6 5 10 10 10 6 0 10
-4 10 -10z m2090 -720 l0 -680 -31 0 c-22 0 -30 4 -26 13 3 8 1 20 -4 28 -6
10 -9 10 -9 2 0 -7 -8 -14 -17 -14 -17 -1 -17 -2 0 -6 23 -6 22 -23 -3 -23
-16 0 -20 7 -20 30 0 23 -4 30 -20 30 -12 0 -20 7 -20 16 0 13 9 15 53 12 39
-3 54 -1 54 9 0 6 -4 10 -9 7 -4 -3 -8 4 -8 16 0 11 -8 24 -17 27 -15 6 -15 7
3 14 17 7 17 8 -3 8 -16 1 -23 -5 -23 -19 0 -13 5 -18 15 -14 8 4 15 1 15 -5
0 -6 -8 -11 -17 -12 -15 0 -15 -2 2 -9 15 -7 10 -9 -23 -9 -28 -1 -41 3 -37
10 4 6 13 8 21 5 8 -3 14 -1 14 4 0 6 -4 10 -9 10 -5 0 -7 10 -4 23 4 21 3 21
-11 -3 l-15 -25 -1 39 0 38 53 -4 c39 -3 54 -1 54 9 0 6 -5 9 -10 6 -6 -4 -8
0 -5 9 4 8 2 21 -3 29 -6 10 -9 10 -9 2 0 -7 -8 -14 -17 -14 -17 -1 -17 -2 0
-6 23 -6 22 -23 -3 -23 -11 0 -20 7 -20 15 0 8 -5 15 -11 15 -5 0 -8 -4 -5 -9
3 -5 0 -11 -8 -14 -11 -4 -12 0 -6 21 4 15 13 26 19 24 7 -1 10 2 6 7 -3 6
-12 8 -20 4 -10 -3 -15 1 -15 12 0 14 8 16 53 13 39 -3 54 -1 54 9 0 6 -4 10
-9 7 -4 -3 -8 6 -8 20 0 21 -5 26 -22 25 -17 -1 -19 -2 -5 -6 9 -2 17 -9 17
-14 0 -5 -8 -9 -17 -10 -15 0 -15 -2 2 -9 16 -7 11 -9 -20 -9 l-40 -1 -2 51
-1 51 52 -4 c38 -3 53 -1 53 9 0 6 -5 9 -10 6 -6 -4 -8 0 -5 9 4 8 2 21 -3 29
-6 10 -9 10 -9 2 0 -7 -8 -14 -17 -14 -17 -1 -17 -2 0 -6 23 -6 22 -23 -3 -23
-16 0 -20 7 -21 38 -1 20 -3 29 -6 20 -2 -10 -8 -18 -13 -18 -12 0 -20 39 -20
104 l0 58 53 -4 c39 -3 54 -1 54 9 0 6 -5 9 -10 6 -6 -4 -8 0 -5 9 4 8 2 21
-3 29 -6 10 -9 10 -9 2 0 -7 -8 -14 -17 -14 -17 -1 -17 -2 0 -6 33 -9 17 -23
-25 -22 -37 1 -39 2 -18 9 17 5 19 8 8 9 -10 1 -18 5 -18 10 0 5 -3 23 -6 41
l-7 32 55 -4 c39 -3 55 -1 55 9 0 6 -4 10 -9 7 -4 -3 -8 4 -8 15 0 25 -18 37
-33 21 -9 -10 -8 -12 6 -7 11 4 17 1 17 -9 0 -11 -6 -14 -16 -10 -8 3 -12 2
-9 -4 3 -6 1 -10 -4 -10 -6 0 -11 5 -11 10 0 7 -6 7 -19 0 -17 -9 -18 -7 -11
18 4 15 13 26 19 24 7 -1 10 2 6 7 -3 6 -12 8 -20 4 -10 -3 -15 1 -15 12 0 14
8 16 53 13 39 -3 54 -1 54 9 0 6 -4 10 -9 7 -4 -3 -8 6 -8 20 0 14 -6 26 -12
26 -9 0 -8 4 2 10 13 8 13 10 -2 10 -25 0 -34 -41 -12 -57 16 -12 13 -13 -25
-13 -35 0 -42 3 -37 16 3 9 6 22 6 29 0 7 6 15 13 18 6 2 4 3 -5 2 -12 -2 -18
3 -18 17 0 18 5 20 53 16 37 -3 54 0 54 8 0 7 -14 10 -39 8 -30 -3 -37 -1 -32
8 5 9 2 8 -9 -1 -10 -8 -20 -11 -24 -7 -3 3 -1 6 5 6 7 0 8 10 1 32 -16 58
-14 60 44 56 39 -3 54 -1 54 9 0 6 -4 10 -9 7 -4 -3 -8 9 -8 26 0 25 -4 31
-17 28 -12 -2 -18 -12 -17 -31 0 -15 -4 -27 -8 -27 -4 0 -8 5 -8 10 0 7 -6 7
-19 1 -16 -9 -17 -7 -13 14 2 13 12 26 21 28 11 3 9 5 -6 6 -14 1 -23 7 -23
17 0 13 9 15 53 12 39 -3 54 -1 54 9 0 6 -4 10 -9 7 -4 -3 -8 6 -8 20 0 26
-23 36 -35 16 -3 -6 1 -7 9 -4 9 3 16 1 16 -5 0 -6 -8 -11 -17 -12 -15 0 -15
-2 2 -9 15 -6 9 -8 -25 -8 -25 0 -35 3 -22 5 29 6 31 52 2 60 -11 3 -20 12
-20 20 0 12 11 14 53 11 39 -3 54 -1 54 9 0 6 -4 10 -9 7 -4 -3 -8 4 -8 15 0
11 -5 23 -11 27 -8 4 -7 9 2 15 10 6 10 9 2 9 -17 0 -36 -38 -29 -56 4 -11 0
-15 -17 -12 -16 2 -23 11 -25 32 -3 19 0 26 8 21 7 -4 10 -16 7 -26 -3 -11 -1
-19 4 -19 19 0 9 49 -11 55 -42 13 -17 25 55 25 l75 0 0 -680z m50 0 c0 -673
0 -680 -20 -680 -20 0 -20 7 -20 680 0 673 0 680 20 680 20 0 20 -7 20 -680z
m-120 614 c0 -8 -5 -12 -10 -9 -6 4 -8 11 -5 16 9 14 15 11 15 -7z m1230 -84
l0 -40 -100 0 -100 0 0 40 0 40 100 0 100 0 0 -40z m590 0 l0 -40 -100 0 -100
0 0 40 0 40 100 0 100 0 0 -40z m-1870 -10 c0 -11 -4 -20 -10 -20 -5 0 -10 9
-10 20 0 11 5 20 10 20 6 0 10 -9 10 -20z m-4090 1 c0 -5 -6 -12 -12 -14 -10
-4 -10 -6 0 -6 7 -1 15 5 18 13 5 12 50 15 275 16 l269 0 0 -130 0 -130 -188
0 -188 0 0 32 c1 23 -4 34 -16 36 -14 3 -18 -3 -17 -30 0 -18 3 -27 6 -20 2 6
9 12 15 12 6 0 6 -6 -2 -15 -7 -8 -28 -15 -46 -15 -30 0 -34 3 -34 25 l0 25
-560 0 -560 0 0 -430 0 -430 560 0 560 0 0 30 0 30 75 0 75 0 0 -339 0 -339
-260 -1 -260 -2 0 37 c0 36 1 37 15 18 14 -17 14 -15 0 14 -8 17 -18 32 -20
32 -2 0 -12 -15 -20 -32 -14 -29 -14 -31 0 -14 14 19 15 17 15 -22 l0 -42 238
-2 237 -3 3 -97 3 -98 -1056 0 -1055 0 0 950 0 950 965 0 c578 0 965 -4 965
-9z m810 -176 l0 -185 -365 0 -365 0 0 50 0 50 94 0 94 0 13 -37 13 -38 14 38
15 37 118 0 119 0 0 135 0 135 125 0 125 0 0 -185z m1330 165 c0 -5 -7 -10
-16 -10 -8 0 -12 5 -9 10 3 6 10 10 16 10 5 0 9 -4 9 -10z m2589 -43 c-2 -1
-13 -10 -25 -20 -20 -16 -22 -16 -39 3 -18 20 -18 20 25 20 24 0 41 -1 39 -3z
m-589 -67 c0 -5 -2 -10 -4 -10 -3 0 -8 5 -11 10 -3 6 -1 10 4 10 6 0 11 -4 11
-10z m-4180 -510 l0 -420 -495 0 -495 0 0 420 0 420 495 0 495 0 0 -420z m110
405 c0 -9 -9 -15 -25 -15 -14 0 -25 -4 -25 -10 0 -5 11 -10 25 -10 23 0 25 -4
25 -45 0 -41 -2 -45 -25 -45 -14 0 -25 -4 -25 -10 0 -5 11 -10 25 -10 23 0 25
-4 25 -45 0 -41 -2 -45 -25 -45 -14 0 -25 -4 -25 -10 0 -5 11 -10 25 -10 23 0
25 -4 25 -40 0 -36 -2 -40 -25 -40 -14 0 -25 -4 -25 -10 0 -5 11 -10 25 -10
23 0 25 -4 25 -45 0 -41 -2 -45 -25 -45 -14 0 -25 -4 -25 -10 0 -5 11 -10 25
-10 23 0 25 -4 25 -40 0 -36 -2 -40 -25 -40 -16 0 -25 -6 -25 -15 0 -9 9 -15
25 -15 23 0 25 -4 25 -40 0 -36 -2 -40 -25 -40 -14 0 -25 -4 -25 -10 0 -5 11
-10 25 -10 23 0 25 -4 25 -45 0 -41 -2 -45 -25 -45 -14 0 -25 -4 -25 -10 0 -5
11 -10 25 -10 18 0 25 -5 25 -20 0 -17 -7 -20 -50 -20 l-50 0 0 420 0 420 50
0 c38 0 50 -4 50 -15z m240 -42 c0 -10 -20 -40 -20 -31 0 3 -3 13 -6 22 -4 11
-1 16 10 16 9 0 16 -3 16 -7z m3830 -63 c0 -5 -4 -10 -10 -10 -5 0 -10 5 -10
10 0 6 5 10 10 10 6 0 10 -4 10 -10z m-2049 -77 c0 -5 2 -18 3 -30 2 -17 -3
-23 -16 -23 -20 0 -26 30 -5 31 10 0 10 2 0 6 -7 2 -13 9 -13 14 0 11 30 12
31 2z m-1926 -22 c3 -5 1 -12 -5 -16 -5 -3 -10 1 -10 9 0 18 6 21 15 7z m1955
-11 c0 -5 -2 -10 -4 -10 -3 0 -8 5 -11 10 -3 6 -1 10 4 10 6 0 11 -4 11 -10z
m-1150 -185 l0 -155 -75 0 -75 0 0 105 0 105 -370 0 -370 0 0 50 0 50 445 0
445 0 0 -155z m-699 13 c0 -18 3 -27 6 -20 2 6 11 12 19 12 8 0 14 9 14 20 0
11 5 20 10 20 6 0 10 -13 10 -30 0 -22 5 -30 18 -30 9 0 13 4 7 8 -15 11 -18
34 -5 42 7 4 113 8 236 9 l224 2 0 -100 0 -101 -100 0 -100 0 0 55 0 55 -221
0 c-177 0 -220 3 -216 13 3 7 -2 24 -9 38 l-15 24 7 -24 c4 -16 3 -21 -5 -17
-6 4 -11 2 -11 -3 0 -6 5 -11 10 -11 6 0 10 -4 10 -10 0 -5 -18 -10 -40 -10
l-40 0 0 45 0 45 95 0 95 0 1 -32z m1869 14 c0 -13 -7 -18 -22 -18 -19 1 -23
-4 -22 -26 0 -30 -3 -33 -26 -18 -13 9 -13 11 0 20 13 9 13 10 0 10 -13 0 -13
1 0 10 13 8 12 10 -2 10 -13 0 -18 -8 -18 -30 l0 -30 -135 0 -135 0 0 45 0 45
180 0 c168 0 180 -1 180 -18z m-1840 -2 c0 -5 -4 -10 -10 -10 -5 0 -10 5 -10
10 0 6 5 10 10 10 6 0 10 -4 10 -10z m5070 -25 l0 -35 -100 0 -100 0 0 35 0
35 100 0 100 0 0 -35z m-3240 -20 c-7 -8 -17 -12 -23 -8 -6 4 -3 9 9 14 27 11
28 11 14 -6z m-1530 -85 l0 -50 -213 0 -213 0 1 35 c1 31 -1 35 -24 34 -24 0
-24 -1 -6 -9 11 -5 16 -9 11 -9 -5 -1 -3 -7 3 -14 13 -17 4 -28 -17 -20 -10 4
-13 2 -8 -5 5 -8 -3 -12 -23 -12 -30 0 -31 1 -31 50 l0 50 260 0 260 0 0 -50z
m4130 47 c0 -2 -11 -13 -24 -26 l-23 -22 -17 26 -16 25 40 0 c22 0 40 -1 40
-3z m-640 -82 c0 -8 -4 -15 -10 -15 -5 0 -10 7 -10 15 0 8 5 15 10 15 6 0 10
-7 10 -15z m-4027 -22 c-7 -2 -19 -2 -25 0 -7 3 -2 5 12 5 14 0 19 -2 13 -5z
m747 -53 l0 -50 -100 0 -100 0 0 50 0 50 100 0 100 0 0 -50z m160 0 l0 -50
-75 0 -75 0 0 50 0 50 75 0 75 0 0 -50z m430 -955 l0 -1005 -105 0 -105 0 0
955 0 955 -105 0 -105 0 0 50 0 50 210 0 210 0 0 -1005z m-590 -240 l0 -1135
-100 0 -100 0 0 1135 0 1135 100 0 100 0 0 -1135z m160 178 c0 -527 0 -1027 0
-1110 l0 -153 105 0 105 0 0 -25 0 -25 -180 0 -180 0 0 1135 0 1135 75 0 75 0
0 -957z m210 7 l0 -951 -97 3 -98 3 -3 948 -2 947 100 0 100 0 0 -950z m-850
936 c0 -3 -4 -8 -10 -11 -5 -3 -10 -1 -10 4 0 6 5 11 10 11 6 0 10 -2 10 -4z
m1810 -26 c0 -5 -7 -10 -15 -10 -8 0 -15 5 -15 10 0 6 7 10 15 10 8 0 15 -4
15 -10z m1950 -240 c0 -5 -4 -10 -10 -10 -5 0 -10 5 -10 10 0 6 5 10 10 10 6
0 10 -4 10 -10z m120 -135 l0 -105 -76 0 c-51 0 -73 3 -69 11 4 6 13 8 21 5 8
-3 14 -1 14 4 0 6 -4 10 -9 10 -5 0 -7 10 -4 23 4 21 3 21 -11 -3 l-15 -25 -1
39 0 38 53 -4 c39 -3 54 -1 54 9 0 6 -5 9 -10 6 -6 -4 -8 0 -5 9 4 8 2 21 -3
29 -6 10 -9 10 -9 2 0 -7 -8 -14 -17 -14 -17 -1 -17 -2 0 -6 30 -8 18 -24 -15
-21 -28 3 -34 7 -36 32 -3 19 0 26 8 21 7 -4 10 -16 7 -26 -3 -11 -1 -19 4
-19 19 0 9 49 -11 55 -11 3 -20 13 -20 21 0 11 17 14 75 14 l75 0 0 -105z m50
0 c0 -98 -1 -105 -20 -105 -19 0 -20 7 -20 105 0 98 1 105 20 105 19 0 20 -7
20 -105z m270 0 l0 -105 -130 0 -130 0 0 105 0 105 130 0 130 0 0 -105z m420
-315 l0 -420 -100 0 -100 0 0 315 0 315 -105 0 -105 0 0 105 0 105 205 0 205
0 0 -420z m-2827 213 c-13 -2 -35 -2 -50 0 -16 2 -5 4 22 4 28 0 40 -2 28 -4z
m2087 -163 l0 -150 -30 0 c-23 0 -30 4 -30 20 0 12 -7 20 -17 20 -16 0 -16 2
-3 11 13 9 13 10 0 6 -8 -2 -16 -16 -18 -30 -2 -16 -10 -27 -18 -27 -17 0 -16
40 1 52 6 5 3 8 -7 8 -11 0 -18 -10 -21 -32 -3 -25 -4 -21 -5 16 l-2 48 53 -4
c39 -3 54 -1 54 9 0 6 -4 10 -9 7 -4 -3 -8 6 -8 20 0 14 -4 26 -10 26 -5 0 -7
-7 -4 -15 4 -10 0 -15 -12 -16 -18 0 -17 -1 1 -9 15 -6 9 -9 -25 -8 -37 0 -41
1 -20 8 17 5 19 8 8 9 -10 1 -18 5 -18 10 0 5 -3 23 -6 41 l-7 32 55 -4 c39
-3 55 -1 55 9 0 6 -4 10 -9 7 -4 -3 -8 4 -8 15 0 12 -4 21 -10 21 -5 0 -6 -8
-3 -17 5 -12 2 -15 -10 -10 -9 3 -17 2 -17 -3 0 -6 -4 -10 -8 -10 -5 0 -7 14
-4 30 4 25 1 30 -17 30 -12 0 -21 6 -21 15 0 12 15 15 75 15 l75 0 0 -150z
m50 0 c0 -143 -1 -150 -20 -150 -19 0 -20 7 -20 150 0 143 1 150 20 150 19 0
20 -7 20 -150z m270 0 l0 -150 -130 0 -130 0 0 150 0 150 130 0 130 0 0 -150z
m210 -160 l0 -310 -235 0 -235 0 0 155 0 155 135 0 135 0 0 155 0 155 100 0
100 0 0 -310z m-650 250 c0 -11 -4 -20 -10 -20 -5 0 -10 9 -10 20 0 11 5 20
10 20 6 0 10 -9 10 -20z m50 -220 c0 -5 -4 -10 -10 -10 -5 0 -10 5 -10 10 0 6
5 10 10 10 6 0 10 -4 10 -10z m70 -185 l0 -155 -65 1 c-61 1 -66 3 -63 23 2
11 8 24 13 28 6 5 3 8 -7 8 -11 0 -18 -10 -21 -32 -3 -25 -4 -21 -5 16 l-2 48
53 -4 c39 -3 54 -1 54 9 0 6 -4 10 -9 7 -4 -3 -8 6 -8 20 0 18 -6 26 -17 27
-16 0 -15 2 2 10 l20 9 -20 -3 c-27 -3 -34 -53 -8 -60 10 -3 -2 -5 -27 -5 -37
0 -40 1 -20 8 17 5 19 8 8 9 -20 1 -25 21 -5 21 8 0 8 3 -2 9 -11 7 -10 10 5
14 16 4 16 5 -3 6 -14 1 -23 7 -23 17 0 13 9 15 53 12 39 -3 54 -1 54 9 0 6
-4 10 -8 7 -4 -2 -9 10 -11 28 -4 45 -33 46 -32 1 0 -20 -5 -33 -12 -33 -7 0
-10 8 -7 20 3 11 1 20 -5 20 -5 0 -9 -7 -8 -16 0 -9 -6 -19 -14 -21 -9 -3 -11
-1 -5 4 6 4 10 17 10 28 0 11 6 19 13 17 8 -1 11 2 7 7 -3 6 -12 8 -20 4 -10
-3 -15 2 -15 16 0 19 5 21 75 21 l75 0 0 -155z m50 0 c0 -148 -1 -155 -20
-155 -19 0 -20 7 -20 155 0 148 1 155 20 155 19 0 20 -7 20 -155z m-120 75 c0
-5 -2 -10 -4 -10 -3 0 -8 5 -11 10 -3 6 -1 10 4 10 6 0 11 -4 11 -10z m0 -100
c0 -5 -4 -10 -10 -10 -5 0 -10 5 -10 10 0 6 5 10 10 10 6 0 10 -4 10 -10z
m120 -510 c0 -363 0 -370 -20 -370 -20 0 -20 7 -20 370 0 363 0 370 20 370 20
0 20 -7 20 -370z m480 0 l0 -370 -235 0 -235 0 0 370 0 370 235 0 235 0 0
-370z m210 0 l0 -370 -100 0 -100 0 0 370 0 370 100 0 100 0 0 -370z m110 0
l0 -370 -50 0 -50 0 0 370 0 370 50 0 50 0 0 -370z m-2045 -240 c-17 -19 -19
-19 -39 -3 -12 10 -23 19 -25 20 -2 2 15 3 39 3 43 0 43 0 25 -20z m45 -120
c0 -5 -4 -10 -10 -10 -5 0 -10 5 -10 10 0 6 5 10 10 10 6 0 10 -4 10 -10z
m-1880 -170 l0 -150 -100 0 -100 0 0 143 c0 79 3 147 7 150 3 4 48 7 100 7
l93 0 0 -150z m220 20 l0 -130 1405 0 c1398 0 1405 0 1405 -20 0 -20 -7 -20
-1510 -20 l-1510 0 0 150 0 150 105 0 105 0 0 -130z m1530 118 c17 -11 22 -10
30 2 9 13 10 13 10 0 0 -12 2 -12 9 -1 6 10 10 10 16 1 6 -9 10 -9 16 1 8 12
11 11 19 -1 8 -12 13 -13 30 -2 15 9 150 12 585 12 l565 0 0 -125 0 -125
-1400 0 -1400 0 0 125 0 125 750 0 c583 0 755 -3 770 -12z m1330 -113 c0 -118
-1 -125 -20 -125 -19 0 -20 7 -20 125 0 118 1 125 20 125 19 0 20 -7 20 -125z
m480 0 l0 -125 -235 0 -235 0 0 125 0 125 235 0 235 0 0 -125z m210 0 l0 -125
-100 0 -100 0 0 125 0 125 100 0 100 0 0 -125z m110 -160 l0 -285 -395 0 -395
0 0 100 0 100 240 0 240 0 0 55 0 55 105 0 105 0 0 130 0 130 50 0 50 0 0
-285z m-800 -25 l0 -50 -1535 0 -1535 0 0 25 0 25 1515 0 1515 0 0 25 c0 18 5
25 20 25 17 0 20 -7 20 -50z m480 0 l0 -50 -235 0 -235 0 0 50 0 50 235 0 235
0 0 -50z m-3560 -165 l0 -105 1540 0 c1533 0 1540 0 1540 -20 0 -20 -7 -20
-1720 -20 l-1720 0 0 125 0 125 180 0 180 0 0 -105z m3080 5 l0 -100 -1535 0
-1535 0 0 100 0 100 1535 0 1535 0 0 -100z"/>
<path d="M8161 6032 c-1 -27 3 -33 17 -30 11 2 18 14 19 33 1 17 0 23 -3 15
-16 -44 -17 -44 -24 -15 l-8 30 -1 -33z"/>
<path d="M8223 6053 c21 -6 21 -12 0 -35 -15 -17 -15 -18 8 -18 17 0 20 3 10
9 -9 6 -10 11 -2 15 20 13 12 36 -11 35 -17 -1 -19 -2 -5 -6z"/>
<path d="M8010 5931 c0 -25 4 -31 21 -31 16 0 20 5 17 27 -2 17 -10 29 -20 31
-14 3 -18 -3 -18 -27z m30 -1 c0 -11 -4 -20 -10 -20 -5 0 -10 9 -10 20 0 11 5
20 10 20 6 0 10 -9 10 -20z"/>
<path d="M8071 5930 c0 -26 2 -31 9 -20 9 13 11 13 20 0 8 -12 10 -9 10 13 0
15 4 27 9 27 5 0 11 -12 13 -27 3 -27 4 -27 9 5 5 28 3 32 -18 32 -14 0 -23
-6 -23 -15 0 -21 -18 -19 -23 3 -3 9 -5 1 -6 -18z"/>
<path d="M8170 5960 c-1 -3 -3 -17 -4 -32 -2 -22 2 -28 19 -28 12 0 16 3 9 8
-7 4 -14 18 -17 32 -2 14 -5 23 -7 20z"/>
<path d="M8219 5943 c-10 -11 -10 -14 -1 -9 7 4 12 2 12 -8 0 -8 -6 -17 -12
-19 -7 -3 -4 -6 8 -6 17 -1 20 4 16 29 -5 35 -5 35 -23 13z"/>
<path d="M8463 5053 c-18 -6 -16 -50 1 -56 8 -3 17 -3 20 0 10 10 7 33 -4 33
-5 0 -7 -8 -3 -17 5 -14 3 -16 -7 -6 -15 14 -5 47 11 37 8 -4 9 -3 5 4 -4 7
-8 12 -9 11 -1 0 -8 -3 -14 -6z"/>
<path d="M8510 5028 c0 -21 2 -38 4 -38 9 0 12 50 5 62 -6 8 -9 -1 -9 -24z"/>
<path d="M8538 5036 c-3 -14 -1 -31 3 -38 6 -8 9 1 9 25 0 42 -6 48 -12 13z"/>
<path d="M8560 5025 c0 -38 0 -38 24 -29 31 12 14 64 -20 64 -2 0 -4 -16 -4
-35z m30 0 c0 -8 -4 -17 -10 -20 -6 -4 -10 5 -10 20 0 15 4 24 10 20 6 -3 10
-12 10 -20z"/>
<path d="M8497 6143 c-17 -16 -5 -33 23 -33 23 0 30 4 30 20 0 14 -7 20 -23
20 -13 0 -27 -3 -30 -7z m43 -13 c0 -5 -9 -10 -20 -10 -11 0 -20 5 -20 10 0 6
9 10 20 10 11 0 20 -4 20 -10z"/>
<path d="M8497 6094 c-17 -17 -5 -34 24 -34 24 0 30 4 27 18 -3 17 -38 29 -51
16z m43 -14 c0 -5 -9 -10 -21 -10 -11 0 -17 5 -14 10 3 6 13 10 21 10 8 0 14
-4 14 -10z"/>
<path d="M8515 6030 c3 -5 14 -10 23 -10 15 0 15 2 2 10 -20 13 -33 13 -25 0z"/>
<path d="M8530 5982 c0 -21 -6 -31 -20 -35 -32 -8 -25 -37 9 -37 23 0 30 5 33
23 2 17 9 22 34 22 30 0 31 1 21 30 l-11 30 -12 -30 c-12 -30 -12 -30 -15 -5
-2 14 -12 26 -21 28 -14 3 -18 -3 -18 -26z m22 -14 c-9 -9 -12 -7 -12 12 0 19
3 21 12 12 9 -9 9 -15 0 -24z m-12 -38 c0 -5 -9 -10 -20 -10 -11 0 -20 5 -20
10 0 6 9 10 20 10 11 0 20 -4 20 -10z"/>
<path d="M8626 6002 c7 -4 14 -18 16 -32 3 -23 4 -22 9 8 5 27 3 32 -15 32
-13 0 -17 -3 -10 -8z"/>
<path d="M8672 5983 c-8 -25 -7 -28 13 -28 20 0 21 3 13 28 -6 15 -11 27 -13
27 -2 0 -7 -12 -13 -27z"/>
<path d="M8509 5889 c16 -6 28 -6 35 1 7 7 -1 10 -24 9 -33 0 -34 -1 -11 -10z"/>
<path d="M8495 5870 c-4 -6 7 -10 27 -9 27 0 30 2 13 9 -27 12 -33 12 -40 0z"/>
<path d="M8520 5833 c0 -15 2 -16 10 -3 8 13 10 12 10 -2 0 -10 -7 -18 -15
-18 -7 0 -19 8 -25 18 -10 15 -10 15 -8 -3 5 -30 52 -28 56 3 2 15 -2 22 -12
22 -9 0 -16 -8 -16 -17z"/>
<path d="M5178 5853 c6 -2 10 -9 6 -14 -3 -5 0 -9 5 -9 18 0 12 -18 -6 -23
-14 -4 -12 -5 5 -6 19 -1 22 4 20 29 -2 23 -7 30 -23 29 -11 0 -14 -3 -7 -6z"/>
<path d="M5221 5835 c0 -5 3 -16 8 -24 7 -11 12 -9 22 10 11 21 11 23 -3 11
-13 -10 -17 -10 -21 0 -3 7 -6 9 -6 3z"/>
<path d="M5752 5580 c0 -14 2 -19 5 -12 2 6 2 18 0 25 -3 6 -5 1 -5 -13z"/>
<path d="M6620 5345 c0 -8 7 -15 15 -15 21 0 19 -18 -2 -23 -14 -4 -12 -5 5
-6 16 -1 22 5 22 19 0 12 -7 20 -17 21 -15 0 -15 2 2 9 19 8 19 9 -2 9 -14 1
-23 -5 -23 -14z"/>
<path d="M5150 5454 c0 -18 5 -20 33 -15 29 5 30 6 7 9 -14 2 -28 9 -32 16 -5
7 -8 3 -8 -10z"/>
<path d="M5915 5456 l-30 -13 28 -8 c28 -7 28 -8 6 -19 -37 -19 -35 -36 5 -36
35 0 47 12 25 26 -8 4 -7 9 2 15 10 6 11 9 2 9 -7 0 -13 6 -13 14 0 8 6 17 13
19 6 3 8 6 2 6 -5 0 -23 -6 -40 -13z m30 -56 c4 -6 -5 -10 -20 -10 -15 0 -24
4 -20 10 3 6 12 10 20 10 8 0 17 -4 20 -10z"/>
<path d="M5260 5441 c0 -17 6 -21 31 -21 24 0 30 4 27 18 -2 10 -14 18 -31 20
-22 3 -27 -1 -27 -17z m50 -1 c0 -5 -9 -10 -20 -10 -11 0 -20 5 -20 10 0 6 9
10 20 10 11 0 20 -4 20 -10z"/>
<path d="M5367 5454 c-18 -19 -5 -34 29 -34 28 0 35 3 32 18 -3 17 -48 29 -61
16z m48 -14 c4 -6 -5 -10 -20 -10 -15 0 -24 4 -20 10 3 6 12 10 20 10 8 0 17
-4 20 -10z"/>
<path d="M5477 5454 c-17 -17 -5 -34 24 -34 24 0 30 4 27 18 -3 17 -38 29 -51
16z m43 -14 c0 -5 -9 -10 -20 -10 -11 0 -20 5 -20 10 0 6 9 10 20 10 11 0 20
-4 20 -10z"/>
<path d="M5577 5454 c-18 -19 -5 -34 29 -34 28 0 35 3 32 18 -3 17 -48 29 -61
16z m53 -14 c0 -5 -12 -10 -26 -10 -14 0 -23 4 -19 10 3 6 15 10 26 10 10 0
19 -4 19 -10z"/>
<path d="M5706 5451 c-28 -6 -28 -7 -11 -21 11 -9 16 -10 11 -2 -4 7 -2 12 8
12 8 0 17 -6 19 -12 3 -7 6 -3 6 10 1 12 0 21 -1 21 -2 -1 -16 -4 -32 -8z"/>
<path d="M5818 5453 c-28 -4 -36 -17 -18 -28 6 -3 10 -1 10 4 0 15 27 14 33
-1 3 -7 6 -3 6 10 1 12 0 21 -1 21 -2 -1 -15 -4 -30 -6z"/>
<path d="M6001 5448 c-1 -24 15 -30 30 -12 12 14 14 14 20 -3 7 -16 8 -15 8 5
1 26 -24 30 -34 5 -7 -17 -8 -16 -15 2 -7 16 -9 17 -9 3z"/>
<path d="M6110 5440 c0 -16 7 -20 30 -20 23 0 30 4 30 20 0 16 -7 20 -30 20
-23 0 -30 -4 -30 -20z m50 0 c0 -5 -4 -10 -10 -10 -5 0 -10 5 -10 10 0 6 5 10
10 10 6 0 10 -4 10 -10z"/>
<path d="M5175 5416 l-30 -13 27 -8 c30 -8 28 -25 -3 -25 -10 0 -19 -7 -19
-15 0 -10 10 -15 29 -15 28 0 29 2 28 45 -1 25 -2 45 -2 45 0 -1 -13 -7 -30
-14z"/>
<path d="M5260 5391 c0 -17 6 -21 31 -21 24 0 30 4 27 18 -2 10 -14 18 -31 20
-22 3 -27 -1 -27 -17z m50 -1 c0 -5 -9 -10 -20 -10 -11 0 -20 5 -20 10 0 6 9
10 20 10 11 0 20 -4 20 -10z"/>
<path d="M5366 5394 c-9 -24 -9 -24 30 -24 29 0 35 3 30 16 -3 9 -6 18 -6 20
0 12 -49 2 -54 -12z m49 -4 c4 -6 -5 -10 -20 -10 -15 0 -24 4 -20 10 3 6 12
10 20 10 8 0 17 -4 20 -10z"/>
<path d="M5477 5404 c-17 -17 -5 -34 24 -34 24 0 30 4 27 18 -3 17 -38 29 -51
16z m43 -14 c0 -5 -9 -10 -20 -10 -11 0 -20 5 -20 10 0 6 9 10 20 10 11 0 20
-4 20 -10z"/>
<path d="M5576 5395 c-9 -25 -9 -25 30 -25 28 0 35 3 32 18 -4 23 -53 29 -62
7z m54 -5 c0 -5 -12 -10 -26 -10 -14 0 -23 4 -19 10 3 6 15 10 26 10 10 0 19
-4 19 -10z"/>
<path d="M5706 5401 c-28 -6 -28 -7 -11 -21 11 -9 16 -10 11 -2 -4 7 -2 12 8
12 8 0 17 -6 19 -12 3 -7 6 -3 6 10 1 12 0 21 -1 21 -2 -1 -16 -4 -32 -8z"/>
<path d="M5818 5403 c-28 -4 -36 -17 -18 -28 6 -3 10 -1 10 4 0 15 27 14 33
-1 3 -7 6 -3 6 10 1 12 0 21 -1 21 -2 -1 -15 -4 -30 -6z"/>
<path d="M6000 5390 c0 -16 7 -20 30 -20 29 0 29 1 13 20 -10 11 -23 20 -30
20 -7 0 -13 -9 -13 -20z m30 0 c0 -5 -4 -10 -10 -10 -5 0 -10 5 -10 10 0 6 5
10 10 10 6 0 10 -4 10 -10z"/>
<path d="M6111 5393 c-1 -14 5 -23 14 -23 8 0 15 7 15 15 0 21 18 19 23 -2 4
-14 5 -12 6 5 1 26 -26 31 -36 5 -6 -15 -7 -15 -14 3 -7 17 -8 17 -8 -3z"/>
<path d="M5380 5346 c14 -9 32 -15 40 -15 13 0 13 1 0 8 -8 5 -26 12 -40 15
l-25 7 25 -15z"/>
<path d="M5590 5346 c14 -9 32 -15 40 -15 13 0 13 1 0 8 -8 5 -26 12 -40 15
l-25 7 25 -15z"/>
<path d="M5687 5353 c-17 -16 -5 -33 23 -33 23 0 30 4 30 20 0 14 -7 20 -23
20 -13 0 -27 -3 -30 -7z m43 -13 c0 -5 -9 -10 -20 -10 -11 0 -20 5 -20 10 0 6
9 10 20 10 11 0 20 -4 20 -10z"/>
<path d="M5790 5341 c0 -17 6 -21 31 -21 24 0 30 4 27 18 -2 10 -14 18 -31 20
-22 3 -27 -1 -27 -17z m50 -1 c0 -5 -9 -10 -20 -10 -11 0 -20 5 -20 10 0 6 9
10 20 10 11 0 20 -4 20 -10z"/>
<path d="M5897 5354 c-15 -15 -6 -43 15 -50 l21 -6 -24 -14 c-30 -17 -22 -18
22 -2 l34 12 -30 12 -30 13 28 1 c22 0 28 4 25 18 -3 17 -48 29 -61 16z m48
-14 c4 -6 -5 -10 -20 -10 -15 0 -24 4 -20 10 3 6 12 10 20 10 8 0 17 -4 20
-10z"/>
<path d="M6014 5348 c19 -11 19 -11 1 -24 -17 -13 -16 -14 16 -13 28 0 30 2
14 9 -13 6 -15 9 -5 9 13 1 13 3 1 10 -11 7 -10 10 5 14 11 3 3 5 -16 6 -30 0
-32 -1 -16 -11z"/>
<path d="M6120 5354 c44 -16 44 -17 15 -24 l-30 -8 33 -1 c27 -1 33 3 30 17
-2 11 -14 18 -33 19 -17 1 -23 0 -15 -3z"/>
<path d="M5285 5340 c3 -5 14 -10 23 -10 15 0 15 2 2 10 -20 13 -33 13 -25 0z"/>
<path d="M5495 5340 c3 -5 14 -10 23 -10 15 0 15 2 2 10 -20 13 -33 13 -25 0z"/>
<path d="M4691 5290 c0 -33 1 -34 10 -11 6 16 6 28 -1 35 -7 7 -10 -1 -9 -24z"/>
<path d="M4716 5298 c-3 -13 -1 -27 4 -32 7 -7 10 1 10 22 0 37 -5 41 -14 10z"/>
<path d="M4751 5288 c0 -18 3 -27 6 -20 3 8 9 10 16 3 9 -6 13 -1 14 20 2 23
-2 29 -17 29 -16 0 -20 -7 -19 -32z m29 18 c0 -3 -4 -8 -10 -11 -5 -3 -10 -1
-10 4 0 6 5 11 10 11 6 0 10 -2 10 -4z"/>
<path d="M4800 5306 c0 -8 8 -17 18 -21 16 -7 15 -8 -3 -15 -19 -8 -19 -9 3
-9 26 -1 30 24 5 34 -17 7 -16 8 2 15 19 8 19 9 -2 9 -13 1 -23 -5 -23 -13z"/>
<path d="M4859 5288 c5 -30 6 -31 9 -8 2 14 9 28 16 32 7 5 3 8 -10 8 -18 0
-20 -5 -15 -32z"/>
<path d="M5180 5310 c12 -8 12 -10 1 -10 -8 0 -12 -2 -9 -5 3 -3 13 -2 22 1
14 5 15 9 4 15 -7 5 -17 9 -23 9 -5 0 -3 -5 5 -10z"/>
<path d="M6390 5290 c0 -29 1 -29 20 -13 11 10 20 23 20 30 0 7 -9 13 -20 13
-16 0 -20 -7 -20 -30z m30 10 c0 -5 -4 -10 -10 -10 -5 0 -10 5 -10 10 0 6 5
10 10 10 6 0 10 -4 10 -10z"/>
<path d="M6453 5303 c3 -13 1 -23 -4 -23 -5 0 -9 -4 -9 -8 0 -4 9 -8 20 -8 24
0 24 3 4 36 -14 24 -15 24 -11 3z"/>
<path d="M6490 5290 c0 -32 23 -42 34 -15 8 21 -3 45 -20 45 -9 0 -14 -11 -14
-30z m22 -12 c-9 -9 -12 -7 -12 12 0 19 3 21 12 12 9 -9 9 -15 0 -24z"/>
<path d="M5687 5304 c-17 -17 -5 -34 24 -34 24 0 30 4 27 18 -3 17 -38 29 -51
16z m43 -14 c0 -5 -9 -10 -21 -10 -11 0 -17 5 -14 10 3 6 13 10 21 10 8 0 14
-4 14 -10z"/>
<path d="M5797 5304 c-17 -17 -5 -34 24 -34 24 0 30 4 27 18 -3 17 -38 29 -51
16z m38 -14 c3 -5 -3 -10 -14 -10 -12 0 -21 5 -21 10 0 6 6 10 14 10 8 0 18
-4 21 -10z"/>
<path d="M6333 5303 c15 -2 27 -9 27 -15 0 -5 -7 -8 -15 -4 -8 3 -15 1 -15 -4
0 -6 7 -10 15 -10 8 0 18 -1 22 -2 3 -2 7 7 8 20 1 19 -3 22 -34 21 -30 -2
-32 -3 -8 -6z"/>
<path d="M6001 5283 c-1 -27 24 -31 34 -5 7 16 8 15 15 -3 8 -19 9 -19 9 3 1
26 -24 30 -34 5 -7 -17 -8 -16 -15 2 -8 19 -9 19 -9 -2z"/>
<path d="M6110 5281 c0 -17 6 -21 31 -21 24 0 30 4 27 18 -2 10 -14 18 -31 20
-22 3 -27 -1 -27 -17z m50 -1 c0 -5 -9 -10 -20 -10 -11 0 -20 5 -20 10 0 6 9
10 20 10 11 0 20 -4 20 -10z"/>
<path d="M5705 5240 c3 -5 14 -10 23 -10 15 0 15 2 2 10 -20 13 -33 13 -25 0z"/>
<path d="M5815 5240 c3 -5 14 -10 23 -10 15 0 15 2 2 10 -20 13 -33 13 -25 0z"/>
<path d="M6007 5244 c-17 -17 -5 -34 24 -34 24 0 30 4 27 18 -3 17 -38 29 -51
16z m38 -14 c3 -5 -3 -10 -15 -10 -12 0 -18 5 -15 10 3 6 10 10 15 10 5 0 12
-4 15 -10z"/>
<path d="M6110 5231 c0 -17 6 -21 31 -21 24 0 30 4 27 18 -2 10 -14 18 -31 20
-22 3 -27 -1 -27 -17z m50 -1 c0 -5 -9 -10 -20 -10 -11 0 -20 5 -20 10 0 6 9
10 20 10 11 0 20 -4 20 -10z"/>
<path d="M6391 5183 c1 -21 3 -30 6 -20 2 9 11 17 19 17 21 0 13 34 -9 38 -14
3 -17 -4 -16 -35z m29 17 c0 -5 -4 -10 -10 -10 -5 0 -10 5 -10 10 0 6 5 10 10
10 6 0 10 -4 10 -10z"/>
<path d="M6453 5203 c3 -13 1 -23 -4 -23 -5 0 -9 -8 -9 -17 0 -15 2 -16 10 -3
9 13 11 13 20 0 17 -26 12 11 -6 40 -14 24 -15 24 -11 3z"/>
<path d="M6501 5215 c-2 -5 -4 -22 -5 -37 -1 -22 3 -28 19 -28 12 0 16 3 8 8
-6 4 -13 21 -16 37 -2 17 -5 26 -6 20z"/>
<path d="M6335 5199 c-16 -4 -24 -7 -17 -8 6 0 12 -8 12 -16 0 -9 9 -15 23
-15 17 0 23 5 22 20 -2 26 -5 27 -40 19z m25 -19 c0 -5 -4 -10 -10 -10 -5 0
-10 5 -10 10 0 6 5 10 10 10 6 0 10 -4 10 -10z"/>
<path d="M6013 5193 c-26 -10 -13 -33 17 -33 32 0 42 23 14 34 -9 3 -16 6 -17
5 -1 0 -8 -3 -14 -6z m32 -13 c3 -5 -3 -10 -15 -10 -12 0 -18 5 -15 10 3 6 10
10 15 10 5 0 12 -4 15 -10z"/>
<path d="M6135 5180 c-8 -13 5 -13 25 0 13 8 13 10 -2 10 -9 0 -20 -4 -23 -10z"/>
<path d="M6030 5130 c12 -8 12 -10 1 -10 -8 0 -12 -2 -9 -5 3 -3 13 -2 22 1
14 5 15 9 4 15 -7 5 -17 9 -23 9 -5 0 -3 -5 5 -10z"/>
<path d="M4741 5083 c-1 -25 3 -33 17 -33 11 0 13 3 6 8 -7 4 -14 18 -17 32
-4 21 -4 20 -6 -7z"/>
<path d="M4785 5080 c0 -16 6 -26 15 -26 9 0 15 10 15 26 0 16 -6 26 -15 26
-9 0 -15 -10 -15 -26z"/>
<path d="M4830 5095 c0 -9 8 -19 17 -22 15 -6 15 -7 -3 -14 -17 -7 -17 -8 4
-8 13 -1 22 5 22 14 0 8 -7 15 -15 15 -21 0 -19 18 3 23 13 4 11 5 -5 6 -15 1
-23 -5 -23 -14z"/>
<path d="M4881 5080 c1 -19 3 -27 6 -16 4 15 7 16 14 5 7 -12 9 -12 10 1 0 10
3 8 9 -5 7 -16 9 -14 9 14 1 32 0 33 -13 16 -13 -18 -13 -18 -24 1 -10 16 -11
14 -11 -16z"/>
<path d="M4941 5078 c0 -18 3 -27 6 -20 2 6 11 12 19 12 8 0 14 9 14 20 0 13
-7 20 -20 20 -16 0 -20 -6 -19 -32z m29 12 c0 -5 -4 -10 -10 -10 -5 0 -10 5
-10 10 0 6 5 10 10 10 6 0 10 -4 10 -10z"/>
<path d="M4994 5098 c-4 -6 1 -17 10 -24 16 -12 16 -13 -1 -17 -14 -4 -14 -5
5 -6 24 -1 31 24 10 32 -10 4 -9 8 2 16 13 9 13 11 -2 11 -9 0 -20 -5 -24 -12z"/>
<path d="M6391 5078 c0 -18 3 -27 6 -20 2 6 11 12 19 12 8 0 14 9 14 20 0 13
-7 20 -20 20 -16 0 -20 -6 -19 -32z m29 12 c0 -5 -4 -10 -10 -10 -5 0 -10 5
-10 10 0 6 5 10 10 10 6 0 10 -4 10 -10z"/>
<path d="M6453 5093 c3 -13 1 -23 -4 -23 -5 0 -9 -3 -9 -7 0 -5 21 -9 48 -10
31 -1 40 0 27 6 -18 7 -18 8 -1 18 11 6 16 15 12 22 -9 14 -36 15 -36 0 0 -5
5 -7 10 -4 15 10 12 -11 -4 -24 -12 -10 -18 -7 -31 16 -14 24 -15 24 -12 6z"/>
<path d="M6337 5092 c-22 -3 -25 -6 -15 -16 19 -18 47 -26 53 -16 4 6 -4 10
-17 11 -23 1 -23 1 2 8 31 9 15 18 -23 13z"/>
<path d="M4707 5083 c-4 -3 -7 -13 -7 -22 1 -13 3 -13 11 2 11 19 8 33 -4 20z"/>
<path d="M6391 4968 c1 -18 3 -25 6 -15 2 9 11 17 19 17 8 0 14 7 14 15 0 8
-9 15 -20 15 -16 0 -20 -6 -19 -32z"/>
<path d="M6445 4973 c-3 -14 -4 -28 0 -31 3 -3 5 0 5 6 0 7 7 12 16 12 8 0 13
-4 10 -9 -3 -4 7 -8 22 -7 22 1 27 6 27 29 1 23 -3 27 -25 26 -17 -1 -19 -3
-7 -6 9 -2 15 -9 12 -14 -4 -5 -1 -9 6 -9 10 0 10 -3 0 -12 -10 -11 -17 -8
-36 14 l-23 27 -7 -26z"/>
<path d="M6333 4983 c15 -2 27 -9 27 -15 0 -5 -7 -8 -15 -4 -8 3 -15 1 -15 -4
0 -6 7 -10 15 -10 8 0 18 -1 22 -2 3 -2 7 7 8 20 1 19 -3 22 -34 21 -30 -2
-32 -3 -8 -6z"/>
<path d="M4691 4863 c1 -21 3 -30 6 -20 2 9 11 17 19 17 8 0 14 9 14 20 0 13
-7 20 -20 20 -17 0 -20 -6 -19 -37z m29 17 c0 -5 -4 -10 -10 -10 -5 0 -10 5
-10 10 0 6 5 10 10 10 6 0 10 -4 10 -10z"/>
<path d="M4752 4865 c0 -22 2 -32 5 -22 2 9 8 17 13 17 5 0 11 -8 13 -17 3
-10 5 0 5 22 0 22 -2 32 -5 23 -2 -10 -8 -18 -13 -18 -5 0 -11 8 -13 18 -3 9
-5 -1 -5 -23z"/>
<path d="M4804 4886 c-9 -23 0 -51 16 -51 10 0 15 10 15 29 0 32 -21 47 -31
22z m26 -22 c0 -8 -4 -14 -10 -14 -5 0 -10 9 -10 21 0 11 5 17 10 14 6 -3 10
-13 10 -21z"/>
<path d="M6391 4863 c1 -21 3 -30 6 -20 2 9 11 17 19 17 8 0 14 9 14 20 0 13
-7 20 -20 20 -17 0 -20 -6 -19 -37z m29 17 c0 -5 -4 -10 -10 -10 -5 0 -10 5
-10 10 0 6 5 10 10 10 6 0 10 -4 10 -10z"/>
<path d="M6453 4883 c3 -13 1 -23 -4 -23 -5 0 -9 -8 -9 -17 0 -15 2 -16 10 -3
9 13 11 13 20 0 17 -26 12 11 -6 40 -14 24 -15 24 -11 3z"/>
<path d="M6506 4881 c4 -16 3 -21 -5 -17 -16 10 -14 -3 3 -19 21 -21 28 5 10
36 l-15 24 7 -24z"/>
<path d="M4877 4882 c-22 -3 -25 -6 -15 -16 19 -18 47 -26 53 -16 4 6 -4 10
-17 11 -23 1 -23 1 2 8 31 9 15 18 -23 13z"/>
<path d="M6337 4882 c-22 -3 -25 -6 -15 -16 19 -18 47 -26 53 -16 4 6 -4 10
-17 11 -23 1 -23 1 2 8 31 9 15 18 -23 13z"/>
<path d="M4690 4760 c0 -29 1 -29 20 -13 11 10 20 23 20 30 0 7 -9 13 -20 13
-16 0 -20 -7 -20 -30z m30 10 c0 -5 -4 -10 -10 -10 -5 0 -10 5 -10 10 0 6 5
10 10 10 6 0 10 -4 10 -10z"/>
<path d="M4751 4760 c1 -19 3 -27 6 -17 2 9 8 17 13 17 5 0 11 -8 13 -17 3
-10 5 -2 6 17 0 26 -2 31 -9 20 -9 -13 -11 -13 -20 0 -7 11 -9 6 -9 -20z"/>
<path d="M4811 4790 c-2 -3 -4 -17 -5 -32 -1 -22 3 -28 19 -28 12 0 16 3 9 8
-7 4 -14 18 -17 32 -2 14 -5 23 -6 20z"/>
<path d="M6390 4760 c0 -29 1 -29 20 -13 11 10 20 23 20 30 0 7 -9 13 -20 13
-16 0 -20 -7 -20 -30z m30 10 c0 -5 -4 -10 -10 -10 -5 0 -10 5 -10 10 0 6 5
10 10 10 6 0 10 -4 10 -10z"/>
<path d="M6453 4773 c3 -13 1 -23 -4 -23 -5 0 -9 -4 -9 -8 0 -4 9 -8 20 -8 24
0 24 3 4 36 -14 24 -15 24 -11 3z"/>
<path d="M6490 4775 c0 -8 7 -15 15 -15 21 0 19 -18 -2 -23 -16 -4 -16 -5 -1
-6 25 -2 34 20 14 35 -13 9 -14 13 -4 17 8 4 7 6 -4 6 -10 1 -18 -6 -18 -14z"/>
<path d="M4873 4773 c15 -2 27 -9 27 -15 0 -5 -7 -8 -15 -4 -8 3 -15 1 -15 -4
0 -6 7 -10 15 -10 8 0 18 -1 22 -2 3 -2 7 7 8 20 1 19 -3 22 -34 21 -30 -2
-32 -3 -8 -6z"/>
<path d="M6333 4773 c15 -2 27 -9 27 -15 0 -5 -7 -8 -15 -4 -8 3 -15 1 -15 -4
0 -6 7 -10 15 -10 8 0 18 -1 22 -2 3 -2 7 7 8 20 1 19 -3 22 -34 21 -30 -2
-32 -3 -8 -6z"/>
<path d="M4691 4653 c1 -21 3 -30 6 -20 2 9 11 17 19 17 21 0 13 34 -9 38 -14
3 -17 -4 -16 -35z m29 17 c0 -5 -4 -10 -10 -10 -5 0 -10 5 -10 10 0 6 5 10 10
10 6 0 10 -4 10 -10z"/>
<path d="M4752 4655 c0 -22 2 -32 5 -22 2 9 8 17 13 17 5 0 11 -8 13 -17 3
-10 5 0 5 22 0 22 -2 32 -5 23 -2 -10 -8 -18 -13 -18 -5 0 -11 8 -13 18 -3 9
-5 -1 -5 -23z"/>
<path d="M4810 4680 c8 -5 11 -10 6 -10 -5 0 -3 -7 4 -15 11 -14 7 -19 -12
-16 -5 0 -8 -4 -8 -10 0 -6 8 -9 18 -7 12 2 17 13 17 36 1 26 -3 32 -20 32
-16 0 -17 -2 -5 -10z"/>
<path d="M6391 4653 c1 -21 3 -30 6 -20 2 9 11 17 19 17 21 0 13 34 -9 38 -14
3 -17 -4 -16 -35z m29 17 c0 -5 -4 -10 -10 -10 -5 0 -10 5 -10 10 0 6 5 10 10
10 6 0 10 -4 10 -10z"/>
<path d="M6453 4673 c3 -13 1 -23 -4 -23 -5 0 -9 -8 -9 -17 0 -15 2 -16 10 -3
9 13 11 13 20 0 17 -26 12 11 -6 40 -14 24 -15 24 -11 3z"/>
<path d="M6497 4683 c-11 -10 -8 -51 4 -59 17 -10 33 12 24 33 -5 10 -7 21 -7
26 2 9 -12 9 -21 0z m18 -32 c3 -5 1 -12 -5 -16 -5 -3 -10 1 -10 9 0 18 6 21
15 7z"/>
<path d="M6335 4669 c-16 -4 -24 -7 -17 -8 6 0 12 -8 12 -16 0 -9 9 -15 23
-15 17 0 23 5 22 20 -2 26 -5 27 -40 19z m25 -19 c0 -5 -4 -10 -10 -10 -5 0
-10 5 -10 10 0 6 5 10 10 10 6 0 10 -4 10 -10z"/>
<path d="M6391 4548 c0 -18 3 -27 6 -20 2 6 11 12 19 12 8 0 14 9 14 20 0 13
-7 20 -20 20 -16 0 -20 -6 -19 -32z m29 12 c0 -5 -4 -10 -10 -10 -5 0 -10 5
-10 10 0 6 5 10 10 10 6 0 10 -4 10 -10z"/>
<path d="M6453 4563 c3 -13 1 -23 -4 -23 -5 0 -9 -4 -9 -8 0 -4 9 -8 20 -8 24
0 24 3 4 36 -14 24 -15 24 -11 3z"/>
<path d="M6493 4573 c9 -2 23 -2 30 0 6 3 -1 5 -18 5 -16 0 -22 -2 -12 -5z"/>
<path d="M6337 4562 c-22 -3 -25 -6 -15 -16 19 -18 47 -26 53 -16 4 6 -4 10
-17 11 -23 1 -23 1 2 8 31 9 15 18 -23 13z"/>
<path d="M4691 4438 c1 -18 3 -25 6 -15 2 9 11 17 19 17 8 0 14 7 14 15 0 8
-9 15 -20 15 -16 0 -20 -6 -19 -32z"/>
<path d="M4750 4440 c0 -19 5 -30 14 -30 17 0 28 24 20 45 -11 27 -34 17 -34
-15z m22 -12 c-9 -9 -12 -7 -12 12 0 19 3 21 12 12 9 -9 9 -15 0 -24z"/>
<path d="M4813 4463 c18 -4 17 -6 -4 -29 l-22 -24 29 1 c23 0 25 2 11 8 -17 6
-17 8 -3 20 19 16 12 31 -12 30 -14 -1 -14 -2 1 -6z"/>
<path d="M6391 4438 c1 -18 3 -25 6 -15 2 9 11 17 19 17 8 0 14 7 14 15 0 8
-9 15 -20 15 -16 0 -20 -6 -19 -32z"/>
<path d="M6446 4444 c-4 -14 -5 -29 -1 -32 3 -3 5 0 5 6 0 6 6 12 14 14 12 2
13 6 1 21 -12 16 -13 16 -19 -9z"/>
<path d="M6490 4440 c0 -25 4 -31 18 -28 23 5 23 52 -1 56 -13 3 -17 -3 -17
-28z m30 -4 c0 -3 -4 -8 -10 -11 -5 -3 -10 -1 -10 4 0 6 5 11 10 11 6 0 10 -2
10 -4z"/>
<path d="M4868 4453 c12 -2 22 -8 22 -13 0 -5 -8 -7 -17 -3 -13 4 -15 3 -8 -5
19 -20 38 -18 40 6 1 19 -3 22 -29 21 -24 -1 -26 -3 -8 -6z"/>
<path d="M6333 4453 c15 -2 27 -9 27 -15 0 -5 -7 -8 -15 -4 -8 3 -15 1 -15 -4
0 -6 7 -10 15 -10 8 0 18 -1 22 -2 3 -2 7 7 8 20 1 19 -3 22 -34 21 -30 -2
-32 -3 -8 -6z"/>
<path d="M6391 4333 c1 -21 3 -30 6 -20 2 9 11 17 19 17 21 0 13 34 -9 38 -14
3 -17 -4 -16 -35z m29 17 c0 -5 -4 -10 -10 -10 -5 0 -10 5 -10 10 0 6 5 10 10
10 6 0 10 -4 10 -10z"/>
<path d="M6453 4353 c3 -13 1 -23 -4 -23 -5 0 -9 -8 -9 -17 0 -15 2 -16 10 -3
9 13 11 13 20 0 17 -26 12 11 -6 40 -14 24 -15 24 -11 3z"/>
<path d="M6494 4355 c-4 -8 -1 -22 5 -29 9 -11 9 -15 -1 -19 -9 -4 -10 -6 -1
-6 16 -1 36 37 29 55 -7 18 -25 18 -32 -1z m21 -4 c3 -5 1 -12 -5 -16 -5 -3
-10 1 -10 9 0 18 6 21 15 7z"/>
<path d="M6337 4352 c-22 -3 -25 -6 -15 -16 19 -18 47 -26 53 -16 4 6 -4 10
-17 11 -23 1 -23 1 2 8 31 9 15 18 -23 13z"/>
<path d="M4690 4230 c0 -29 1 -29 20 -13 11 10 20 23 20 30 0 7 -9 13 -20 13
-16 0 -20 -7 -20 -30z m30 10 c0 -5 -4 -10 -10 -10 -5 0 -10 5 -10 10 0 6 5
10 10 10 6 0 10 -4 10 -10z"/>
<path d="M4746 4245 c-9 -24 4 -45 28 -44 21 0 21 0 -1 9 -13 5 -23 14 -23 20
0 6 10 15 23 20 22 9 22 9 1 9 -12 1 -24 -6 -28 -14z"/>
<path d="M4800 4230 c0 -19 5 -30 14 -30 17 0 28 24 20 45 -11 27 -34 17 -34
-15z m22 -12 c-9 -9 -12 -7 -12 12 0 19 3 21 12 12 9 -9 9 -15 0 -24z"/>
<path d="M6340 4230 c0 -29 1 -29 20 -13 11 10 20 23 20 30 0 7 -9 13 -20 13
-16 0 -20 -7 -20 -30z m30 16 c0 -3 -4 -8 -10 -11 -5 -3 -10 -1 -10 4 0 6 5
11 10 11 6 0 10 -2 10 -4z"/>
<path d="M6403 4243 c3 -13 1 -23 -4 -23 -5 0 -9 -4 -9 -8 0 -4 9 -8 20 -8 24
0 24 3 4 36 -14 24 -15 24 -11 3z"/>
<path d="M6451 4260 c-2 -3 -4 -17 -5 -32 -1 -22 3 -28 19 -28 12 0 16 3 9 8
-7 4 -14 18 -17 32 -2 14 -5 23 -6 20z"/>
<path d="M6490 4230 c0 -32 23 -42 34 -15 8 21 -3 45 -20 45 -9 0 -14 -11 -14
-30z m22 -12 c-9 -9 -12 -7 -12 12 0 19 3 21 12 12 9 -9 9 -15 0 -24z"/>
<path d="M4868 4243 c12 -2 22 -9 22 -15 0 -6 -8 -7 -17 -3 -12 4 -15 3 -8 -4
20 -19 38 -16 40 7 1 19 -3 22 -29 21 -24 -1 -26 -3 -8 -6z"/>
<path d="M6283 4243 c15 -2 27 -9 27 -15 0 -5 -7 -8 -15 -4 -8 3 -15 1 -15 -4
0 -6 7 -10 15 -10 8 0 18 -1 22 -2 3 -2 7 7 8 20 1 19 -3 22 -34 21 -30 -2
-32 -3 -8 -6z"/>
<path d="M4691 4123 c1 -21 3 -30 6 -20 2 9 11 17 19 17 21 0 13 34 -9 38 -14
3 -17 -4 -16 -35z m29 17 c0 -5 -4 -10 -10 -10 -5 0 -10 5 -10 10 0 6 5 10 10
10 6 0 10 -4 10 -10z"/>
<path d="M4750 4141 c-17 -34 15 -73 35 -41 3 5 0 7 -8 4 -18 -7 -29 9 -21 29
3 9 12 13 21 10 11 -4 14 -2 9 5 -11 17 -24 15 -36 -7z"/>
<path d="M4811 4155 c-2 -5 -4 -22 -5 -37 -1 -22 3 -28 19 -28 12 0 16 3 8 8
-6 4 -13 21 -16 37 -2 17 -5 26 -6 20z"/>
<path d="M6341 4123 c1 -21 3 -30 6 -20 2 9 11 17 19 17 21 0 13 34 -9 38 -14
3 -17 -4 -16 -35z m24 17 c3 -5 1 -10 -4 -10 -6 0 -11 5 -11 10 0 6 2 10 4 10
3 0 8 -4 11 -10z"/>
<path d="M6403 4143 c3 -13 1 -23 -4 -23 -5 0 -9 -8 -9 -17 0 -15 2 -16 10 -3
9 13 11 13 20 0 17 -26 12 11 -6 40 -14 24 -15 24 -11 3z"/>
<path d="M6451 4155 c-2 -5 -4 -22 -5 -37 -1 -22 3 -28 19 -28 12 0 16 3 8 8
-6 4 -13 21 -16 37 -2 17 -5 26 -6 20z"/>
<path d="M6501 4155 c-2 -5 -4 -22 -5 -37 -1 -22 3 -28 19 -28 12 0 16 3 8 8
-6 4 -13 21 -16 37 -2 17 -5 26 -6 20z"/>
<path d="M4873 4142 c-19 -3 -21 -7 -13 -23 14 -26 47 -25 45 1 -2 25 -5 27
-32 22z m17 -22 c0 -5 -2 -10 -4 -10 -3 0 -8 5 -11 10 -3 6 -1 10 4 10 6 0 11
-4 11 -10z"/>
<path d="M6285 4139 c-16 -4 -24 -7 -17 -8 6 0 12 -8 12 -16 0 -9 9 -15 23
-15 17 0 23 5 22 20 -2 26 -5 27 -40 19z m25 -19 c0 -5 -4 -10 -10 -10 -5 0
-10 5 -10 10 0 6 5 10 10 10 6 0 10 -4 10 -10z"/>
<path d="M4691 4018 c0 -18 3 -27 6 -20 2 6 11 12 19 12 8 0 14 9 14 20 0 13
-7 20 -20 20 -16 0 -20 -6 -19 -32z m29 12 c0 -5 -4 -10 -10 -10 -5 0 -10 5
-10 10 0 6 5 10 10 10 6 0 10 -4 10 -10z"/>
<path d="M4746 4035 c-12 -31 5 -45 53 -44 32 0 40 3 26 8 -18 7 -18 8 -1 18
11 6 16 15 12 22 -9 14 -36 15 -36 0 0 -5 5 -7 10 -4 16 10 12 -11 -5 -25 -8
-6 -22 -10 -32 -8 -23 4 -24 33 -1 32 10 -1 15 2 12 7 -8 14 -31 10 -38 -6z"/>
<path d="M6340 4020 l0 -31 21 20 c22 20 19 41 -7 41 -9 0 -14 -11 -14 -30z
m30 10 c0 -5 -4 -10 -10 -10 -5 0 -10 5 -10 10 0 6 5 10 10 10 6 0 10 -4 10
-10z"/>
<path d="M6403 4033 c3 -13 1 -23 -4 -23 -5 0 -9 -4 -9 -8 0 -4 9 -8 20 -8 24
0 24 3 4 36 -14 24 -15 24 -11 3z"/>
<path d="M6450 4050 c-1 -3 -3 -17 -4 -32 -2 -27 0 -28 44 -27 31 0 39 3 25 8
-18 7 -18 8 -1 18 11 6 16 15 12 22 -9 14 -36 15 -36 0 0 -5 5 -7 10 -4 14 9
13 -8 -2 -23 -20 -20 -36 -14 -41 16 -2 15 -5 25 -7 22z"/>
<path d="M4873 4031 c-13 -4 -19 -10 -15 -17 11 -16 41 -24 47 -14 4 6 -4 10
-17 11 -23 1 -23 1 2 8 14 4 20 9 15 12 -6 3 -20 3 -32 0z"/>
<path d="M6287 4032 c-22 -3 -25 -6 -15 -16 19 -18 47 -26 53 -16 4 6 -4 10
-17 11 -23 1 -23 1 2 8 31 9 15 18 -23 13z"/>
<path d="M4691 3908 c1 -18 3 -25 6 -15 2 9 11 17 19 17 8 0 14 7 14 15 0 8
-9 15 -20 15 -16 0 -20 -6 -19 -32z"/>
<path d="M4746 3925 c-11 -30 4 -43 47 -42 39 2 42 4 42 30 1 25 -2 27 -41 27
-28 0 -44 -5 -48 -15z m69 -5 c-3 -5 -1 -10 5 -10 6 0 9 -4 6 -9 -6 -10 -61
-9 -71 1 -13 13 6 28 36 28 18 0 28 -4 24 -10z"/>
<path d="M6341 3908 c1 -18 3 -25 6 -15 2 9 11 17 19 17 8 0 14 7 14 15 0 8
-9 15 -20 15 -16 0 -20 -6 -19 -32z"/>
<path d="M6396 3914 c-4 -14 -5 -29 -1 -32 3 -3 5 0 5 6 0 6 6 12 14 14 12 2
13 6 1 21 -12 16 -13 16 -19 -9z"/>
<path d="M6451 3940 c-2 -3 -4 -17 -5 -32 -2 -26 0 -27 39 -25 36 2 40 5 40
30 1 23 -3 27 -25 26 -17 -1 -19 -3 -7 -6 9 -2 15 -9 12 -14 -4 -5 -1 -9 5 -9
6 0 9 -4 6 -9 -3 -5 -17 -8 -30 -8 -19 0 -26 6 -29 26 -2 14 -5 24 -6 21z"/>
<path d="M4868 3923 c12 -2 22 -8 22 -13 0 -5 -8 -7 -17 -3 -13 4 -15 3 -8 -5
19 -20 38 -18 40 6 1 19 -3 22 -29 21 -24 -1 -26 -3 -8 -6z"/>
<path d="M6283 3923 c15 -2 27 -9 27 -15 0 -5 -7 -8 -15 -4 -8 3 -15 1 -15 -4
0 -6 7 -10 15 -10 8 0 18 -1 22 -2 3 -2 7 7 8 20 1 19 -3 22 -34 21 -30 -2
-32 -3 -8 -6z"/>
<path d="M4691 3803 c1 -21 3 -30 6 -20 2 9 11 17 19 17 21 0 13 34 -9 38 -14
3 -17 -4 -16 -35z m29 17 c0 -5 -4 -10 -10 -10 -5 0 -10 5 -10 10 0 6 5 10 10
10 6 0 10 -4 10 -10z"/>
<path d="M4751 3821 c-15 -27 12 -62 31 -42 11 12 10 13 -4 8 -17 -6 -28 9
-21 30 2 7 11 9 20 6 11 -4 14 -2 9 5 -10 17 -24 15 -35 -7z"/>
<path d="M4807 3833 c-11 -10 -8 -51 4 -59 17 -10 33 12 24 33 -5 10 -7 21 -7
26 2 9 -12 9 -21 0z m18 -32 c3 -5 1 -12 -5 -16 -5 -3 -10 1 -10 9 0 18 6 21
15 7z"/>
<path d="M6341 3803 c1 -21 3 -30 6 -20 2 9 11 17 19 17 21 0 13 34 -9 38 -14
3 -17 -4 -16 -35z m24 17 c3 -5 1 -10 -4 -10 -6 0 -11 5 -11 10 0 6 2 10 4 10
3 0 8 -4 11 -10z"/>
<path d="M6403 3823 c3 -13 1 -23 -4 -23 -5 0 -9 -8 -9 -17 0 -15 2 -16 10 -3
9 13 11 13 20 0 17 -26 12 11 -6 40 -14 24 -15 24 -11 3z"/>
<path d="M6451 3835 c-2 -5 -4 -22 -5 -37 -1 -22 3 -28 19 -28 12 0 16 3 8 8
-6 4 -13 21 -16 37 -2 17 -5 26 -6 20z"/>
<path d="M6506 3821 c4 -16 3 -21 -5 -17 -16 10 -14 -3 3 -19 21 -21 28 5 10
36 l-15 24 7 -24z"/>
<path d="M4873 3822 c-19 -3 -21 -7 -13 -23 14 -26 47 -25 45 1 -2 25 -5 27
-32 22z m17 -22 c0 -5 -2 -10 -4 -10 -3 0 -8 5 -11 10 -3 6 -1 10 4 10 6 0 11
-4 11 -10z"/>
<path d="M6288 3822 c-25 -3 -26 -4 -10 -23 22 -25 49 -25 47 1 -2 25 -4 26
-37 22z m22 -22 c0 -5 -2 -10 -4 -10 -3 0 -8 5 -11 10 -3 6 -1 10 4 10 6 0 11
-4 11 -10z"/>
<path d="M4690 3700 c0 -29 1 -29 20 -13 11 10 20 23 20 30 0 7 -9 13 -20 13
-16 0 -20 -7 -20 -30z m30 10 c0 -5 -4 -10 -10 -10 -5 0 -10 5 -10 10 0 6 5
10 10 10 6 0 10 -4 10 -10z"/>
<path d="M4746 3715 c-9 -24 4 -45 28 -44 20 0 20 1 -2 10 -35 14 -21 33 29
40 l44 6 -46 1 c-34 2 -49 -2 -53 -13z"/>
<path d="M6340 3700 c0 -29 1 -29 20 -13 11 10 20 23 20 30 0 7 -9 13 -20 13
-16 0 -20 -7 -20 -30z m30 16 c0 -3 -4 -8 -10 -11 -5 -3 -10 -1 -10 4 0 6 5
11 10 11 6 0 10 -2 10 -4z"/>
<path d="M6403 3713 c3 -13 1 -23 -4 -23 -5 0 -9 -4 -9 -8 0 -4 9 -8 20 -8 24
0 24 3 4 36 -14 24 -15 24 -11 3z"/>
<path d="M6451 3730 c-2 -3 -4 -17 -5 -32 -1 -22 3 -28 19 -28 12 0 16 3 9 8
-7 4 -14 18 -17 32 -2 14 -5 23 -6 20z"/>
<path d="M6490 3715 c0 -8 7 -15 15 -15 21 0 19 -18 -2 -23 -16 -4 -16 -5 -1
-6 25 -2 34 20 14 35 -13 9 -14 13 -4 17 8 4 7 6 -4 6 -10 1 -18 -6 -18 -14z"/>
<path d="M4868 3713 c12 -2 22 -9 22 -15 0 -5 -7 -8 -15 -4 -8 3 -15 1 -15 -4
0 -9 21 -13 37 -7 4 1 8 10 8 20 1 13 -6 17 -29 16 -24 -1 -26 -3 -8 -6z"/>
<path d="M6283 3713 c15 -2 27 -9 27 -15 0 -5 -7 -8 -15 -4 -8 3 -15 1 -15 -4
0 -6 7 -10 15 -10 8 0 18 -1 22 -2 3 -2 7 7 8 20 1 19 -3 22 -34 21 -30 -2
-32 -3 -8 -6z"/>
<path d="M4691 3588 c1 -18 3 -25 6 -15 2 9 11 17 19 17 8 0 14 7 14 15 0 8
-9 15 -20 15 -16 0 -20 -6 -19 -32z"/>
<path d="M4746 3605 c-12 -31 22 -63 38 -36 3 5 -2 8 -11 7 -26 -2 -27 23 -1
33 22 9 22 10 2 10 -12 1 -24 -6 -28 -14z"/>
<path d="M4800 3590 c0 -25 4 -31 18 -28 23 5 23 52 -1 56 -13 3 -17 -3 -17
-28z m30 -4 c0 -3 -4 -8 -10 -11 -5 -3 -10 -1 -10 4 0 6 5 11 10 11 6 0 10 -2
10 -4z"/>
<path d="M4873 3612 c-19 -3 -21 -7 -13 -23 14 -26 47 -25 45 1 -2 25 -5 27
-32 22z m17 -22 c0 -5 -2 -10 -4 -10 -3 0 -8 5 -11 10 -3 6 -1 10 4 10 6 0 11
-4 11 -10z"/>
<path d="M4691 3488 c0 -18 3 -27 6 -20 2 6 11 12 19 12 8 0 14 9 14 20 0 13
-7 20 -20 20 -16 0 -20 -6 -19 -32z m29 12 c0 -5 -4 -10 -10 -10 -5 0 -10 5
-10 10 0 6 5 10 10 10 6 0 10 -4 10 -10z"/>
<path d="M4746 3505 c-9 -24 4 -45 28 -44 20 0 20 1 -2 10 -26 10 -25 35 1 33
9 -1 14 2 11 7 -8 14 -31 10 -38 -6z"/>
<path d="M4800 3500 c0 -11 6 -20 13 -20 8 0 7 -4 -3 -10 -13 -8 -13 -10 2
-10 18 0 33 33 23 50 -11 18 -35 11 -35 -10z m25 0 c3 -5 1 -10 -4 -10 -6 0
-11 5 -11 10 0 6 2 10 4 10 3 0 8 -4 11 -10z"/>
<path d="M6381 3488 c0 -18 3 -27 6 -20 2 6 11 12 19 12 8 0 14 9 14 20 0 13
-7 20 -20 20 -16 0 -20 -6 -19 -32z m29 12 c0 -5 -4 -10 -10 -10 -5 0 -10 5
-10 10 0 6 5 10 10 10 6 0 10 -4 10 -10z"/>
<path d="M6440 3489 c0 -22 4 -30 16 -27 8 2 15 6 15 11 -1 4 -1 16 -1 27 0
11 -7 20 -15 20 -10 0 -15 -10 -15 -31z"/>
<path d="M6490 3490 c0 -32 23 -42 34 -15 8 21 -3 45 -20 45 -9 0 -14 -11 -14
-30z m22 -12 c-9 -9 -12 -7 -12 12 0 19 3 21 12 12 9 -9 9 -15 0 -24z"/>
<path d="M4873 3501 c-13 -4 -19 -10 -15 -17 11 -16 41 -24 47 -14 4 6 -4 10
-17 11 -23 1 -23 1 2 8 14 4 20 9 15 12 -6 3 -20 3 -32 0z"/>
<path d="M6327 3502 c-22 -3 -25 -6 -15 -16 19 -18 47 -26 53 -16 4 6 -4 10
-17 11 -23 1 -23 1 2 8 31 9 15 18 -23 13z"/>
<path d="M4690 3380 c0 -29 1 -29 20 -13 11 10 20 23 20 30 0 7 -9 13 -20 13
-16 0 -20 -7 -20 -30z m30 10 c0 -5 -4 -10 -10 -10 -5 0 -10 5 -10 10 0 6 5
10 10 10 6 0 10 -4 10 -10z"/>
<path d="M4746 3395 c-9 -24 4 -45 28 -44 21 0 21 0 -1 9 -13 5 -23 14 -23 20
0 6 10 15 23 20 22 9 22 9 1 9 -12 1 -24 -6 -28 -14z"/>
<path d="M4811 3410 c-2 -3 -4 -17 -5 -32 -1 -22 3 -28 19 -28 12 0 16 3 9 8
-7 4 -14 18 -17 32 -2 14 -5 23 -6 20z"/>
<path d="M4850 3380 c0 -25 4 -31 18 -28 11 2 17 12 17 28 0 16 -6 26 -17 28
-14 3 -18 -3 -18 -28z m30 0 c0 -11 -4 -20 -10 -20 -5 0 -10 9 -10 20 0 11 5
20 10 20 6 0 10 -9 10 -20z"/>
<path d="M6380 3380 c0 -29 1 -29 20 -13 11 10 20 23 20 30 0 7 -9 13 -20 13
-16 0 -20 -7 -20 -30z m30 10 c0 -5 -4 -10 -10 -10 -5 0 -10 5 -10 10 0 6 5
10 10 10 6 0 10 -4 10 -10z"/>
<path d="M6440 3380 c0 -19 5 -30 14 -30 20 0 26 12 19 38 -8 33 -33 27 -33
-8z m25 -10 c3 -5 1 -10 -4 -10 -6 0 -11 5 -11 10 0 6 2 10 4 10 3 0 8 -4 11
-10z"/>
<path d="M6501 3410 c-2 -3 -4 -17 -5 -32 -1 -22 3 -28 19 -28 12 0 16 3 9 8
-7 4 -14 18 -17 32 -2 14 -5 23 -6 20z"/>
<path d="M4923 3393 c15 -2 27 -9 27 -14 0 -6 -9 -7 -21 -4 -13 5 -19 3 -15
-3 3 -5 15 -12 26 -15 16 -4 20 0 20 19 0 21 -4 24 -32 23 -31 -2 -31 -2 -5
-6z"/>
<path d="M6323 3393 c15 -2 27 -9 27 -15 0 -5 -7 -8 -15 -4 -8 3 -15 1 -15 -4
0 -6 7 -10 15 -10 8 0 18 -1 22 -2 3 -2 7 7 8 20 1 19 -3 22 -34 21 -30 -2
-32 -3 -8 -6z"/>
<path d="M4691 3273 c1 -21 3 -30 6 -20 2 9 11 17 19 17 21 0 13 34 -9 38 -14
3 -17 -4 -16 -35z m29 17 c0 -5 -4 -10 -10 -10 -5 0 -10 5 -10 10 0 6 5 10 10
10 6 0 10 -4 10 -10z"/>
<path d="M4751 3291 c-15 -27 12 -62 31 -42 11 12 10 13 -4 8 -17 -6 -28 9
-21 30 2 7 11 9 20 6 11 -4 14 -2 9 5 -10 17 -24 15 -35 -7z"/>
<path d="M4811 3305 c-2 -5 -4 -22 -5 -37 -1 -22 3 -28 19 -28 12 0 16 3 8 8
-6 4 -13 21 -16 37 -2 17 -5 26 -6 20z"/>
<path d="M4861 3305 c-2 -5 -4 -22 -5 -37 -1 -22 3 -28 19 -28 12 0 16 3 8 8
-6 4 -13 21 -16 37 -2 17 -5 26 -6 20z"/>
<path d="M6381 3273 c1 -21 3 -30 6 -20 2 9 11 17 19 17 21 0 13 34 -9 38 -14
3 -17 -4 -16 -35z m29 17 c0 -5 -4 -10 -10 -10 -5 0 -10 5 -10 10 0 6 5 10 10
10 6 0 10 -4 10 -10z"/>
<path d="M6440 3276 c0 -33 0 -33 48 -33 26 0 39 2 29 4 -17 4 -17 6 -2 23 9
10 14 24 10 29 -8 14 -35 14 -35 0 0 -5 4 -8 9 -4 19 11 20 -13 2 -29 -18 -16
-19 -15 -29 13 -14 41 -32 39 -32 -3z m30 -10 c0 -3 -4 -8 -10 -11 -5 -3 -10
-1 -10 4 0 6 5 11 10 11 6 0 10 -2 10 -4z"/>
<path d="M4928 3293 c-24 -4 -27 -7 -18 -24 16 -29 50 -25 50 6 0 14 -1 24 -2
24 -2 -1 -15 -4 -30 -6z m22 -23 c0 -5 -4 -10 -9 -10 -6 0 -13 5 -16 10 -3 6
1 10 9 10 9 0 16 -4 16 -10z"/>
<path d="M6328 3292 c-25 -3 -26 -4 -10 -23 22 -25 49 -25 47 1 -2 25 -4 26
-37 22z m22 -22 c0 -5 -2 -10 -4 -10 -3 0 -8 5 -11 10 -3 6 -1 10 4 10 6 0 11
-4 11 -10z"/>
<path d="M4690 3170 c0 -29 1 -29 20 -13 11 10 20 23 20 30 0 7 -9 13 -20 13
-16 0 -20 -7 -20 -30z m30 10 c0 -5 -4 -10 -10 -10 -5 0 -10 5 -10 10 0 6 5
10 10 10 6 0 10 -4 10 -10z"/>
<path d="M4746 3185 c-9 -24 4 -45 28 -44 21 0 21 0 -1 9 -13 5 -23 14 -23 20
0 6 10 15 23 20 22 9 22 9 1 9 -12 1 -24 -6 -28 -14z"/>
<path d="M4811 3200 c-2 -3 -4 -17 -5 -32 -1 -22 3 -28 19 -28 12 0 16 3 9 8
-7 4 -14 18 -17 32 -2 14 -5 23 -6 20z"/>
<path d="M4863 3193 c21 -6 21 -12 0 -35 -15 -17 -15 -18 8 -18 17 0 20 3 10
9 -9 6 -10 11 -2 15 20 13 12 36 -11 35 -17 -1 -19 -2 -5 -6z"/>
<path d="M6380 3170 c0 -29 1 -29 20 -13 11 10 20 23 20 30 0 7 -9 13 -20 13
-16 0 -20 -7 -20 -30z m30 10 c0 -5 -4 -10 -10 -10 -5 0 -10 5 -10 10 0 6 5
10 10 10 6 0 10 -4 10 -10z"/>
<path d="M6440 3171 c0 -29 2 -30 43 -28 39 2 42 4 42 30 1 23 -3 27 -25 26
-17 -1 -19 -3 -7 -6 9 -2 15 -9 12 -14 -4 -5 -1 -9 4 -9 6 0 11 -4 11 -10 0
-22 -40 -9 -46 15 -9 35 -34 32 -34 -4z m25 -11 c3 -5 1 -10 -4 -10 -6 0 -11
5 -11 10 0 6 2 10 4 10 3 0 8 -4 11 -10z"/>
<path d="M4923 3183 c15 -2 27 -9 27 -15 0 -6 -9 -8 -20 -5 -11 3 -18 2 -15
-3 3 -4 14 -10 25 -13 16 -4 20 0 20 19 0 21 -4 24 -32 23 -31 -2 -31 -2 -5
-6z"/>
<path d="M6323 3183 c15 -2 27 -9 27 -15 0 -5 -7 -8 -15 -4 -8 3 -15 1 -15 -4
0 -6 7 -10 15 -10 8 0 18 -1 22 -2 3 -2 7 7 8 20 1 19 -3 22 -34 21 -30 -2
-32 -3 -8 -6z"/>
<path d="M6506 3081 c4 -16 3 -21 -5 -17 -16 10 -14 -3 3 -19 21 -21 28 5 10
36 l-15 24 7 -24z"/>
<path d="M4691 3058 c1 -18 3 -25 6 -15 2 9 11 17 19 17 8 0 14 7 14 15 0 8
-9 15 -20 15 -16 0 -20 -6 -19 -32z"/>
<path d="M4746 3075 c-12 -31 22 -63 38 -36 3 5 -2 8 -11 7 -26 -2 -27 23 -1
33 22 9 22 10 2 10 -12 1 -24 -6 -28 -14z"/>
<path d="M4811 3090 c-2 -3 -4 -17 -5 -32 -1 -22 3 -28 19 -28 12 0 16 3 9 8
-7 4 -14 18 -17 32 -2 14 -5 23 -6 20z"/>
<path d="M4858 3083 c6 -2 10 -9 6 -14 -3 -5 0 -9 5 -9 6 0 11 -5 11 -11 0 -6
-7 -9 -15 -5 -8 3 -15 1 -15 -5 0 -6 8 -9 18 -7 11 2 17 13 18 31 1 21 -3 27
-20 26 -12 0 -15 -3 -8 -6z"/>
<path d="M4928 3083 c-24 -4 -27 -7 -18 -24 16 -29 50 -25 50 6 0 14 -1 24 -2
24 -2 -1 -15 -4 -30 -6z m22 -23 c0 -5 -4 -10 -9 -10 -6 0 -13 5 -16 10 -3 6
1 10 9 10 9 0 16 -4 16 -10z"/>
<path d="M6325 3079 c-16 -4 -24 -7 -17 -8 6 0 12 -8 12 -16 0 -9 9 -15 23
-15 17 0 23 5 22 20 -2 26 -5 27 -40 19z m25 -19 c0 -5 -4 -10 -10 -10 -5 0
-10 5 -10 10 0 6 5 10 10 10 6 0 10 -4 10 -10z"/>
<path d="M6381 3058 c1 -18 3 -25 6 -15 2 9 11 17 19 17 8 0 14 7 14 15 0 8
-9 15 -20 15 -16 0 -20 -6 -19 -32z"/>
<path d="M6440 3060 c0 -19 5 -30 14 -30 20 0 26 12 19 38 -8 33 -33 27 -33
-8z"/>
<path d="M4691 2958 c0 -18 3 -27 6 -20 2 6 11 12 19 12 8 0 14 9 14 20 0 13
-7 20 -20 20 -16 0 -20 -6 -19 -32z m29 12 c0 -5 -4 -10 -10 -10 -5 0 -10 5
-10 10 0 6 5 10 10 10 6 0 10 -4 10 -10z"/>
<path d="M4746 2975 c-9 -24 4 -45 28 -44 20 0 20 1 -2 10 -26 10 -25 35 1 33
9 -1 14 2 11 7 -8 14 -31 10 -38 -6z"/>
<path d="M4810 2990 c-1 -3 -3 -17 -4 -32 -2 -22 2 -28 19 -28 12 0 16 3 9 8
-7 4 -14 18 -17 32 -2 14 -5 23 -7 20z"/>
<path d="M4866 2971 c4 -16 3 -21 -5 -17 -6 4 -11 3 -11 -2 0 -12 28 -24 34
-14 2 4 -2 18 -10 32 l-15 25 7 -24z"/>
<path d="M6381 2958 c0 -18 3 -27 6 -20 2 6 11 12 19 12 8 0 14 9 14 20 0 13
-7 20 -20 20 -16 0 -20 -6 -19 -32z m29 12 c0 -5 -4 -10 -10 -10 -5 0 -10 5
-10 10 0 6 5 10 10 10 6 0 10 -4 10 -10z"/>
<path d="M6440 2959 c0 -22 4 -30 16 -27 8 2 15 6 15 11 -1 4 -1 16 -1 27 0
11 -7 20 -15 20 -10 0 -15 -10 -15 -31z"/>
<path d="M6490 2969 c0 -11 4 -18 9 -14 5 3 12 1 15 -4 4 -5 -2 -12 -11 -14
-16 -4 -16 -5 -1 -6 25 -2 34 20 14 35 -13 9 -14 13 -4 17 8 4 7 6 -4 6 -12 1
-18 -6 -18 -20z"/>
<path d="M4928 2971 c-17 -4 -25 -10 -20 -17 9 -14 52 -25 52 -14 0 5 -10 11
-22 13 l-23 4 23 2 c12 0 22 6 22 11 0 6 -1 9 -2 9 -2 -1 -15 -4 -30 -8z"/>
<path d="M6327 2972 c-22 -3 -25 -6 -15 -16 19 -18 47 -26 53 -16 4 6 -4 10
-17 11 -23 1 -23 1 2 8 31 9 15 18 -23 13z"/>
<path d="M4690 2850 c0 -29 1 -29 20 -13 11 10 20 23 20 30 0 7 -9 13 -20 13
-16 0 -20 -7 -20 -30z m30 10 c0 -5 -4 -10 -10 -10 -5 0 -10 5 -10 10 0 6 5
10 10 10 6 0 10 -4 10 -10z"/>
<path d="M4746 2865 c-9 -24 4 -45 28 -44 21 0 21 0 -1 9 -13 5 -23 14 -23 20
0 6 10 15 23 20 22 9 22 9 1 9 -12 1 -24 -6 -28 -14z"/>
<path d="M4811 2880 c-2 -3 -4 -17 -5 -32 -1 -22 3 -28 19 -28 12 0 16 3 9 8
-7 4 -14 18 -17 32 -2 14 -5 23 -6 20z"/>
<path d="M4850 2865 c0 -8 7 -15 15 -15 21 0 19 -18 -2 -23 -14 -4 -12 -5 5
-6 16 -1 22 5 22 19 0 12 -7 20 -17 21 -15 0 -15 2 2 9 19 8 19 9 -2 9 -14 1
-23 -5 -23 -14z"/>
<path d="M6380 2850 c0 -29 1 -29 20 -13 11 10 20 23 20 30 0 7 -9 13 -20 13
-16 0 -20 -7 -20 -30z m30 10 c0 -5 -4 -10 -10 -10 -5 0 -10 5 -10 10 0 6 5
10 10 10 6 0 10 -4 10 -10z"/>
<path d="M6440 2850 c0 -19 5 -30 14 -30 20 0 26 12 19 38 -8 33 -33 27 -33
-8z m25 -10 c3 -5 1 -10 -4 -10 -6 0 -11 5 -11 10 0 6 2 10 4 10 3 0 8 -4 11
-10z"/>
<path d="M6490 2850 c0 -19 5 -30 14 -30 23 0 31 22 12 36 -13 9 -14 13 -4 17
8 4 7 6 -4 6 -13 1 -18 -7 -18 -29z m30 -10 c0 -5 -4 -10 -10 -10 -5 0 -10 5
-10 10 0 6 5 10 10 10 6 0 10 -4 10 -10z"/>
<path d="M4923 2863 c15 -2 27 -9 27 -14 0 -6 -9 -7 -21 -4 -13 5 -19 3 -15
-3 3 -5 15 -12 26 -15 16 -4 20 0 20 19 0 21 -4 24 -32 23 -31 -2 -31 -2 -5
-6z"/>
<path d="M6323 2863 c15 -2 27 -9 27 -15 0 -5 -7 -8 -15 -4 -8 3 -15 1 -15 -4
0 -6 7 -10 15 -10 8 0 18 -1 22 -2 3 -2 7 7 8 20 1 19 -3 22 -34 21 -30 -2
-32 -3 -8 -6z"/>
<path d="M6381 2743 c1 -21 3 -30 6 -20 2 9 11 17 19 17 21 0 13 34 -9 38 -14
3 -17 -4 -16 -35z m29 17 c0 -5 -4 -10 -10 -10 -5 0 -10 5 -10 10 0 6 5 10 10
10 6 0 10 -4 10 -10z"/>
<path d="M6440 2745 c0 -24 5 -35 14 -35 22 0 27 15 16 44 -14 37 -30 32 -30
-9z m30 -9 c0 -3 -4 -8 -10 -11 -5 -3 -10 -1 -10 4 0 6 5 11 10 11 6 0 10 -2
10 -4z"/>
<path d="M6497 2773 c19 -4 21 -8 13 -29 -6 -14 -10 -28 -10 -32 1 -10 17 20
24 46 7 19 4 22 -21 21 -23 -1 -24 -3 -6 -6z"/>
<path d="M6328 2762 c-25 -3 -26 -4 -10 -23 22 -25 49 -25 47 1 -2 25 -4 26
-37 22z m22 -22 c0 -5 -2 -10 -4 -10 -3 0 -8 5 -11 10 -3 6 -1 10 4 10 6 0 11
-4 11 -10z"/>
<path d="M6380 2640 c0 -29 1 -29 20 -13 11 10 20 23 20 30 0 7 -9 13 -20 13
-16 0 -20 -7 -20 -30z m30 10 c0 -5 -4 -10 -10 -10 -5 0 -10 5 -10 10 0 6 5
10 10 10 6 0 10 -4 10 -10z"/>
<path d="M6440 2639 c0 -22 4 -30 16 -27 8 2 15 6 15 11 -1 4 -1 16 -1 27 0
11 -7 20 -15 20 -10 0 -15 -10 -15 -31z m25 -9 c3 -5 1 -10 -4 -10 -6 0 -11 5
-11 10 0 6 2 10 4 10 3 0 8 -4 11 -10z"/>
<path d="M6490 2640 c0 -25 4 -31 18 -28 23 5 23 52 -1 56 -13 3 -17 -3 -17
-28z m25 -10 c3 -5 1 -10 -4 -10 -6 0 -11 5 -11 10 0 6 2 10 4 10 3 0 8 -4 11
-10z"/>
<path d="M6327 2652 c-22 -3 -25 -6 -15 -16 19 -18 47 -26 53 -16 4 6 -4 10
-17 11 -23 1 -23 1 2 8 31 9 15 18 -23 13z"/>
<path d="M6275 2549 c-16 -4 -24 -7 -17 -8 6 0 12 -8 12 -16 0 -9 9 -15 23
-15 17 0 23 5 22 20 -2 26 -5 27 -40 19z m25 -19 c0 -5 -4 -10 -10 -10 -5 0
-10 5 -10 10 0 6 5 10 10 10 6 0 10 -4 10 -10z"/>
<path d="M6331 2528 c1 -18 3 -25 6 -15 2 9 11 17 19 17 8 0 14 7 14 15 0 8
-9 15 -20 15 -16 0 -20 -6 -19 -32z"/>
<path d="M6390 2530 c0 -19 5 -30 14 -30 20 0 26 12 19 38 -8 33 -33 27 -33
-8z"/>
<path d="M6451 2560 c-2 -3 -4 -17 -5 -32 -1 -22 3 -28 19 -28 12 0 16 3 9 8
-7 4 -14 18 -17 32 -2 14 -5 23 -6 20z"/>
<path d="M6490 2530 c0 -19 5 -30 14 -30 17 0 28 24 20 45 -11 27 -34 17 -34
-15z m22 -12 c-9 -9 -12 -7 -12 12 0 19 3 21 12 12 9 -9 9 -15 0 -24z"/>
<path d="M6331 2428 c0 -18 3 -27 6 -20 2 6 11 12 19 12 8 0 14 9 14 20 0 13
-7 20 -20 20 -16 0 -20 -6 -19 -32z m29 12 c0 -5 -4 -10 -10 -10 -5 0 -10 5
-10 10 0 6 5 10 10 10 6 0 10 -4 10 -10z"/>
<path d="M6390 2429 c0 -22 4 -30 16 -27 8 2 15 6 15 11 -1 4 -1 16 -1 27 0
11 -7 20 -15 20 -10 0 -15 -10 -15 -31z"/>
<path d="M6450 2460 c-1 -3 -3 -18 -4 -33 -2 -27 0 -28 39 -25 36 3 40 6 40
31 1 23 -3 27 -25 26 -23 0 -23 -1 -5 -9 11 -5 16 -9 11 -9 -5 -1 -3 -8 4 -16
11 -13 8 -15 -18 -15 -26 0 -31 4 -35 28 -2 15 -5 25 -7 22z"/>
<path d="M6277 2442 c-22 -3 -25 -6 -15 -16 19 -18 47 -26 53 -16 4 6 -4 10
-17 11 -23 1 -23 1 2 8 31 9 15 18 -23 13z"/>
<path d="M5681 2373 c-1 -27 26 -32 36 -6 6 15 7 15 14 -3 7 -17 8 -17 8 4 1
13 -5 22 -14 22 -8 0 -15 -7 -15 -15 0 -21 -18 -19 -23 3 -4 13 -5 11 -6 -5z"/>
<path d="M6330 2320 c0 -29 1 -29 20 -13 11 10 20 23 20 30 0 7 -9 13 -20 13
-16 0 -20 -7 -20 -30z m30 10 c0 -5 -4 -10 -10 -10 -5 0 -10 5 -10 10 0 6 5
10 10 10 6 0 10 -4 10 -10z"/>
<path d="M6390 2320 c0 -19 5 -30 14 -30 20 0 26 12 19 38 -8 33 -33 27 -33
-8z m25 -10 c3 -5 1 -10 -4 -10 -6 0 -11 5 -11 10 0 6 2 10 4 10 3 0 8 -4 11
-10z"/>
<path d="M6451 2350 c-2 -3 -4 -17 -5 -32 -1 -22 3 -28 19 -28 12 0 16 3 9 8
-7 4 -14 18 -17 32 -2 14 -5 23 -6 20z"/>
<path d="M6496 2335 c-3 -9 0 -23 8 -30 19 -20 29 4 11 28 -11 16 -13 16 -19
2z"/>
<path d="M5687 2333 c-17 -16 -5 -33 23 -33 29 0 29 1 13 20 -19 21 -26 24
-36 13z"/>
<path d="M6273 2333 c15 -2 27 -9 27 -15 0 -5 -7 -8 -15 -4 -8 3 -15 1 -15 -4
0 -6 7 -10 15 -10 8 0 18 -1 22 -2 3 -2 7 7 8 20 1 19 -3 22 -34 21 -30 -2
-32 -3 -8 -6z"/>
<path d="M5689 2271 c12 -8 51 -4 51 5 0 2 -15 4 -32 4 -23 0 -29 -3 -19 -9z"/>
<path d="M5695 2250 c-17 -7 -14 -9 13 -9 20 -1 31 3 27 9 -7 12 -13 12 -40 0z"/>
<path d="M6331 2213 c1 -21 3 -30 6 -20 2 9 11 17 19 17 21 0 13 34 -9 38 -14
3 -17 -4 -16 -35z m29 17 c0 -5 -4 -10 -10 -10 -5 0 -10 5 -10 10 0 6 5 10 10
10 6 0 10 -4 10 -10z"/>
<path d="M6390 2215 c0 -24 5 -35 14 -35 22 0 27 15 16 44 -14 37 -30 32 -30
-9z m30 -9 c0 -3 -4 -8 -10 -11 -5 -3 -10 -1 -10 4 0 6 5 11 10 11 6 0 10 -2
10 -4z"/>
<path d="M6451 2245 c-2 -5 -4 -22 -5 -37 -1 -22 3 -28 19 -28 12 0 16 3 8 8
-6 4 -13 21 -16 37 -2 17 -5 26 -6 20z"/>
<path d="M6490 2230 c0 -11 3 -19 8 -17 4 1 7 -2 7 -8 0 -5 -3 -9 -7 -7 -5 1
-8 -2 -8 -8 0 -17 30 -11 37 6 4 10 -1 22 -11 29 -13 10 -14 14 -4 18 8 4 7 6
-4 6 -12 1 -18 -6 -18 -19z"/>
<path d="M6278 2232 c-25 -3 -26 -4 -10 -23 22 -25 49 -25 47 1 -2 25 -4 26
-37 22z m22 -22 c0 -5 -2 -10 -4 -10 -3 0 -8 5 -11 10 -3 6 -1 10 4 10 6 0 11
-4 11 -10z"/>
<path d="M5610 2211 c0 -5 -10 -7 -22 -4 -22 4 -22 3 2 -11 29 -18 66 -23 40
-6 -13 9 -13 11 0 20 13 8 12 10 -2 10 -10 0 -18 -4 -18 -9z"/>
<path d="M5680 2208 c0 -25 21 -33 36 -14 12 16 13 16 17 -1 4 -14 5 -14 6 5
1 24 -24 31 -32 10 -4 -10 -8 -9 -16 2 -9 13 -11 13 -11 -2z"/>
<path d="M5471 2158 c-1 -24 15 -30 30 -12 12 14 14 14 20 -3 7 -16 8 -15 8 5
1 26 -24 30 -34 5 -7 -17 -8 -16 -15 2 -7 16 -9 17 -9 3z"/>
<path d="M5570 2156 c0 -23 22 -31 35 -13 16 22 22 21 28 0 4 -14 5 -12 6 5 1
25 -26 31 -35 7 -4 -8 -10 -12 -15 -9 -5 3 -7 10 -4 15 4 5 1 9 -4 9 -6 0 -11
-6 -11 -14z"/>
<path d="M5680 2158 c0 -25 21 -33 36 -14 12 16 13 16 17 -1 4 -14 5 -14 6 5
1 24 -24 31 -32 10 -4 -10 -8 -9 -16 2 -9 13 -11 13 -11 -2z"/>
<path d="M5471 2098 c-1 -30 22 -30 34 0 6 15 8 15 15 -3 8 -19 9 -19 9 3 1
26 -24 30 -34 5 -7 -17 -8 -16 -15 2 -8 18 -9 17 -9 -7z"/>
<path d="M5572 2095 c2 -15 10 -28 22 -31 18 -6 18 -7 -5 -20 -30 -17 -22 -18
22 -2 l34 12 -30 12 c-17 7 -24 13 -17 14 6 0 12 7 12 15 0 21 18 19 23 -2 4
-14 5 -12 6 5 1 25 -26 31 -35 7 -4 -8 -10 -12 -15 -9 -5 3 -7 10 -4 15 4 5 1
9 -4 9 -6 0 -10 -11 -9 -25z"/>
<path d="M5683 2098 c1 -22 4 -25 19 -17 10 5 18 15 19 22 0 7 4 3 9 -8 8 -19
9 -19 9 3 1 26 -24 30 -34 5 -7 -17 -8 -16 -15 2 -8 17 -8 16 -7 -7z"/>
<path d="M5500 2060 c12 -8 12 -10 1 -10 -8 0 -12 -2 -9 -5 3 -3 13 -2 22 1
14 5 15 9 4 15 -7 5 -17 9 -23 9 -5 0 -3 -5 5 -10z"/>
<path d="M5710 2060 c12 -8 12 -10 1 -10 -8 0 -12 -2 -9 -5 3 -3 13 -2 22 1
14 5 15 9 4 15 -7 5 -17 9 -23 9 -5 0 -3 -5 5 -10z"/>
<path d="M6588 5143 c7 -3 16 -2 19 1 4 3 -2 6 -13 5 -11 0 -14 -3 -6 -6z"/>
<path d="M6588 4823 c7 -3 16 -2 19 1 4 3 -2 6 -13 5 -11 0 -14 -3 -6 -6z"/>
<path d="M6628 4823 c6 -2 18 -2 25 0 6 3 1 5 -13 5 -14 0 -19 -2 -12 -5z"/>
<path d="M6646 4796 c3 -8 -2 -16 -13 -19 -14 -4 -14 -5 5 -6 16 -1 22 5 22
19 0 11 -4 20 -10 20 -5 0 -7 -6 -4 -14z"/>
<path d="M6628 4613 c6 -2 18 -2 25 0 6 3 1 5 -13 5 -14 0 -19 -2 -12 -5z"/>
<path d="M6633 4503 c20 -5 20 -8 7 -34 -6 -10 -8 -19 -6 -19 3 0 12 14 21 30
15 30 15 30 -12 29 -17 -1 -21 -3 -10 -6z"/>
<path d="M6638 4293 c7 -3 16 -2 19 1 4 3 -2 6 -13 5 -11 0 -14 -3 -6 -6z"/>
<path d="M6580 4086 c0 -2 7 -6 15 -10 8 -3 15 -1 15 4 0 6 -7 10 -15 10 -8 0
-15 -2 -15 -4z"/>
<path d="M6633 4083 c9 -2 23 -2 30 0 6 3 -1 5 -18 5 -16 0 -22 -2 -12 -5z"/>
<path d="M6588 3923 c7 -3 16 -2 19 1 4 3 -2 6 -13 5 -11 0 -14 -3 -6 -6z"/>
<path d="M6638 3873 c7 -3 16 -2 19 1 4 3 -2 6 -13 5 -11 0 -14 -3 -6 -6z"/>
<path d="M6580 3766 c0 -2 7 -6 15 -10 8 -3 15 -1 15 4 0 6 -7 10 -15 10 -8 0
-15 -2 -15 -4z"/>
<path d="M6588 3443 c7 -3 16 -2 19 1 4 3 -2 6 -13 5 -11 0 -14 -3 -6 -6z"/>
<path d="M6638 3443 c7 -3 16 -2 19 1 4 3 -2 6 -13 5 -11 0 -14 -3 -6 -6z"/>
<path d="M6594 3411 c4 -5 0 -12 -6 -14 -8 -3 -6 -6 5 -6 9 -1 17 6 17 14 0 8
-5 15 -11 15 -5 0 -8 -4 -5 -9z"/>
<path d="M2535 4260 c-4 -6 3 -10 14 -10 25 0 27 6 6 13 -8 4 -17 2 -20 -3z"/>
<path d="M2394 4198 c-4 -6 1 -17 10 -24 16 -12 16 -13 -1 -17 -14 -4 -14 -5
5 -6 26 -1 30 24 5 34 -17 7 -16 8 2 15 16 7 17 9 3 9 -9 1 -20 -4 -24 -11z"/>
<path d="M2449 4178 c5 -32 6 -32 9 -5 3 21 9 27 28 27 27 0 28 -3 13 -33 -10
-21 -10 -21 5 -3 9 11 16 23 16 28 0 4 9 8 20 8 23 0 24 -3 9 -33 -10 -21 -10
-21 5 -3 9 11 16 23 16 27 0 4 12 10 28 12 15 2 -14 5 -64 6 l-91 1 6 -32z"/>
<path d="M2648 4203 c7 -3 16 -2 19 1 4 3 -2 6 -13 5 -11 0 -14 -3 -6 -6z"/>
<path d="M2606 4176 c3 -8 -2 -16 -13 -19 -14 -4 -14 -5 5 -6 16 -1 22 5 22
19 0 11 -4 20 -10 20 -5 0 -7 -6 -4 -14z"/>
<path d="M2635 4180 c-3 -6 1 -7 9 -4 9 3 16 1 16 -4 0 -6 -8 -13 -17 -15 -14
-4 -12 -5 5 -6 16 -1 22 5 22 19 0 21 -24 28 -35 10z"/>
<path d="M2782 4083 c3 -30 38 -47 38 -19 0 9 -5 16 -11 16 -5 0 -7 -4 -4 -10
3 -5 1 -10 -4 -10 -18 0 -12 38 7 43 12 3 11 5 -6 6 -20 1 -23 -3 -20 -26z"/>
<path d="M2831 4080 c0 -33 1 -34 10 -11 6 16 6 28 -1 35 -7 7 -10 -1 -9 -24z"/>
<path d="M2856 4088 c-3 -13 -1 -27 4 -32 7 -7 10 1 10 22 0 37 -5 41 -14 10z"/>
<path d="M2890 4080 c0 -19 5 -30 14 -30 17 0 28 24 20 45 -11 27 -34 17 -34
-15z m22 -12 c-9 -9 -12 -7 -12 12 0 19 3 21 12 12 9 -9 9 -15 0 -24z"/>
<path d="M2197 2823 c-4 -3 -7 -17 -7 -30 0 -18 5 -23 23 -22 16 1 18 2 5 6
-10 2 -18 14 -18 25 0 14 5 18 15 14 8 -3 15 -1 15 4 0 11 -23 13 -33 3z"/>
<path d="M2246 2815 c-9 -24 4 -45 28 -44 20 0 20 1 -2 10 -26 10 -25 35 1 33
9 -1 14 2 11 7 -8 14 -31 10 -38 -6z"/>
<path d="M2150 2803 c0 -4 5 -15 10 -23 8 -13 10 -13 10 2 0 9 -4 20 -10 23
-5 3 -10 3 -10 -2z"/>
<path d="M2833 3974 c-9 -23 14 -42 30 -25 8 10 8 12 0 7 -6 -3 -14 -2 -18 3
-3 5 3 14 12 20 17 10 17 10 0 11 -10 0 -20 -7 -24 -16z"/>
<path d="M2882 3968 c3 -22 28 -39 28 -18 0 6 -4 8 -10 5 -5 -3 -10 0 -10 9 0
8 6 17 13 19 7 3 4 6 -6 6 -13 1 -18 -5 -15 -21z"/>
<path d="M2653 3973 c9 -2 23 -2 30 0 6 3 -1 5 -18 5 -16 0 -22 -2 -12 -5z"/>
<path d="M2780 3775 c0 -8 7 -15 15 -15 21 0 19 -18 -2 -23 -14 -4 -12 -5 5
-6 26 -1 31 26 5 36 -15 6 -15 7 3 14 17 7 17 8 -3 8 -14 1 -23 -5 -23 -14z"/>
<path d="M2830 3760 c0 -32 19 -40 39 -16 15 18 3 46 -20 46 -14 0 -19 -7 -19
-30z m35 0 c0 -7 -6 -15 -12 -17 -8 -3 -13 4 -13 17 0 13 5 20 13 18 6 -3 12
-11 12 -18z"/>
<path d="M2896 3775 c-9 -23 -8 -25 9 -25 17 0 19 9 6 28 -7 11 -10 10 -15 -3z"/>
<path d="M2650 3749 c0 -11 4 -18 9 -14 5 3 12 1 15 -4 4 -5 -2 -12 -11 -14
-16 -4 -16 -5 -1 -6 25 -2 34 20 14 35 -13 9 -14 13 -4 17 8 4 7 6 -4 6 -12 1
-18 -6 -18 -20z"/>
<path d="M2880 3670 c0 -6 8 -14 17 -17 15 -6 15 -7 -3 -14 -17 -7 -17 -8 4
-8 27 -1 29 20 2 37 -13 7 -20 8 -20 2z"/>
<path d="M2810 3550 c0 -19 5 -30 14 -30 17 0 28 24 20 45 -11 27 -34 17 -34
-15z m22 -12 c-9 -9 -12 -7 -12 12 0 19 3 21 12 12 9 -9 9 -15 0 -24z"/>
<path d="M2864 3565 c-9 -23 3 -45 23 -44 17 1 17 2 1 6 -10 2 -18 13 -18 23
0 10 8 21 18 23 16 4 16 5 -1 6 -10 0 -20 -6 -23 -14z"/>
<path d="M6626 2905 c-3 -9 0 -23 8 -30 19 -20 29 4 11 28 -11 16 -13 16 -19
2z"/>
<path d="M6628 2803 c6 -2 18 -2 25 0 6 3 1 5 -13 5 -14 0 -19 -2 -12 -5z"/>
<path d="M6580 2706 c0 -2 7 -6 15 -10 8 -3 15 -1 15 4 0 6 -7 10 -15 10 -8 0
-15 -2 -15 -4z"/>
<path d="M6628 2703 c6 -2 18 -2 25 0 6 3 1 5 -13 5 -14 0 -19 -2 -12 -5z"/>
<path d="M6628 2273 c6 -2 18 -2 25 0 6 3 1 5 -13 5 -14 0 -19 -2 -12 -5z"/>
<path d="M5047 6553 c-18 -17 -5 -33 28 -33 28 0 35 4 35 20 0 15 -7 20 -28
20 -16 0 -32 -3 -35 -7z m23 -13 c0 -5 -5 -10 -11 -10 -5 0 -7 5 -4 10 3 6 8
10 11 10 2 0 4 -4 4 -10z m30 0 c0 -5 -4 -10 -10 -10 -5 0 -10 5 -10 10 0 6 5
10 10 10 6 0 10 -4 10 -10z"/>
<path d="M5157 6553 c-17 -16 -5 -33 23 -33 23 0 30 4 30 20 0 14 -7 20 -23
20 -13 0 -27 -3 -30 -7z m18 -13 c3 -5 1 -10 -4 -10 -6 0 -11 5 -11 10 0 6 2
10 4 10 3 0 8 -4 11 -10z"/>
<path d="M6651 6508 c0 -18 3 -27 6 -20 3 8 9 10 16 3 9 -6 13 -1 14 20 2 23
-2 29 -17 29 -16 0 -20 -7 -19 -32z m29 12 c0 -5 -4 -10 -10 -10 -5 0 -10 5
-10 10 0 6 5 10 10 10 6 0 10 -4 10 -10z"/>
<path d="M5095 6480 c-17 -8 -15 -9 10 -8 62 3 84 -3 114 -31 17 -16 31 -25
31 -21 0 5 -15 20 -32 33 -37 28 -93 40 -123 27z"/>
<path d="M6082 6448 l-2 -37 -57 -4 c-32 -2 -4 -3 62 -3 66 0 94 1 63 3 l-57
4 -4 37 -4 37 -1 -37z"/>
<path d="M5048 6459 c-10 -5 -23 -20 -28 -32 -10 -20 -10 -21 4 -4 8 10 23 25
33 32 21 17 16 19 -9 4z"/>
<path d="M6560 6375 l0 -25 -178 0 c-119 0 -182 4 -189 11 -15 15 -43 4 -43
-16 0 -20 28 -31 43 -16 7 7 70 11 189 11 171 0 178 -1 178 -20 0 -19 7 -20
110 -20 103 0 110 1 110 20 0 19 7 20 180 20 171 0 180 -1 180 -19 0 -14 -8
-21 -26 -23 l-26 -3 29 -28 29 -27 29 30 29 30 -27 0 c-22 0 -27 5 -27 25 l0
25 -185 0 -185 0 0 25 0 25 -110 0 -110 0 0 -25z m210 -25 l0 -40 -100 0 -100
0 0 40 0 40 100 0 100 0 0 -40z m-580 -5 c0 -8 -7 -15 -15 -15 -8 0 -15 7 -15
15 0 8 7 15 15 15 8 0 15 -7 15 -15z m990 -58 c0 -2 -8 -11 -18 -21 -18 -15
-20 -15 -37 4 -18 20 -18 20 18 20 21 0 37 -2 37 -3z"/>
<path d="M2800 6350 c0 -19 5 -30 14 -30 20 0 26 12 19 38 -8 33 -33 27 -33
-8z m25 -10 c3 -5 1 -10 -4 -10 -6 0 -11 5 -11 10 0 6 2 10 4 10 3 0 8 -4 11
-10z"/>
<path d="M2850 6350 c0 -16 4 -30 8 -30 5 0 7 14 4 30 -2 17 -6 30 -8 30 -2 0
-4 -13 -4 -30z"/>
<path d="M2971 6353 c-1 -32 1 -33 37 -33 27 0 33 3 22 10 -13 8 -12 10 3 10
9 0 17 5 17 10 0 6 -9 10 -20 10 -11 0 -20 -7 -20 -15 0 -27 -29 -16 -33 13
-4 25 -4 25 -6 -5z"/>
<path d="M3073 6365 c-18 -19 -16 -45 2 -45 10 0 15 10 15 30 0 34 0 34 -17
15z"/>
<path d="M5536 6365 c-8 -23 4 -45 25 -45 10 0 19 7 19 15 0 8 -5 15 -11 15
-5 0 -7 -4 -4 -10 3 -5 2 -10 -4 -10 -20 0 -24 23 -6 37 16 11 16 13 3 13 -9
0 -18 -7 -22 -15z"/>
<path d="M5591 6350 c0 -33 1 -34 10 -11 6 16 6 28 -1 35 -7 7 -10 -1 -9 -24z"/>
<path d="M5616 6358 c-3 -13 -1 -27 4 -32 7 -7 10 1 10 22 0 37 -5 41 -14 10z"/>
<path d="M5640 6350 c0 -25 4 -31 18 -28 11 2 17 12 17 28 0 16 -6 26 -17 28
-14 3 -18 -3 -18 -28z m30 0 c0 -11 -4 -20 -10 -20 -5 0 -10 9 -10 20 0 11 5
20 10 20 6 0 10 -9 10 -20z"/>
<path d="M2881 6343 c-1 -14 5 -23 14 -23 9 0 15 9 14 23 0 21 -1 21 -8 2 l-8
-20 -5 20 c-5 18 -6 18 -7 -2z"/>
<path d="M2922 6343 c2 -10 12 -19 23 -20 20 -3 20 -3 0 6 -17 8 -18 10 -2 10
24 1 21 21 -4 21 -14 0 -19 -5 -17 -17z"/>
<path d="M5046 6302 c-2 -4 -1 -14 3 -21 6 -10 10 -9 14 3 6 16 -8 32 -17 18z"/>
<path d="M3561 6268 c1 -17 2 -19 6 -5 6 21 12 21 35 0 17 -15 18 -15 18 8 0
17 -3 20 -9 10 -6 -9 -11 -10 -15 -2 -13 20 -36 12 -35 -11z"/>
<path d="M2881 6248 c-1 -30 3 -38 17 -38 11 0 13 3 5 8 -6 4 -13 21 -16 37
-4 27 -4 27 -6 -7z"/>
<path d="M2920 6245 c0 -30 3 -35 23 -34 16 1 18 2 5 6 -21 5 -23 19 -5 26 10
4 10 6 0 6 -19 1 -16 19 5 24 13 4 11 5 -5 6 -20 1 -23 -4 -23 -34z"/>
<path d="M2970 6245 c0 -38 0 -38 24 -29 31 12 14 64 -20 64 -2 0 -4 -16 -4
-35z m30 0 c0 -8 -4 -17 -10 -20 -6 -4 -10 5 -10 20 0 15 4 24 10 20 6 -3 10
-12 10 -20z"/>
<path d="M3560 6220 c0 -16 7 -20 33 -19 17 0 26 3 19 6 -8 3 -10 9 -3 16 6 9
1 13 -20 14 -23 2 -29 -2 -29 -17z m30 0 c0 -5 -4 -10 -10 -10 -5 0 -10 5 -10
10 0 6 5 10 10 10 6 0 10 -4 10 -10z"/>
<path d="M3670 6220 c0 -16 6 -20 33 -19 18 1 24 3 14 6 -17 4 -17 6 -3 16 14
10 12 12 -14 14 -24 2 -30 -2 -30 -17z"/>
<path d="M7074 6155 c-9 -21 3 -45 21 -45 8 0 15 7 15 15 0 8 -5 15 -11 15 -5
0 -7 -4 -4 -10 3 -5 1 -10 -4 -10 -18 0 -13 28 7 39 16 10 16 10 -1 11 -10 0
-20 -7 -23 -15z"/>
<path d="M7131 6140 c0 -33 1 -34 10 -11 6 16 6 28 -1 35 -7 7 -10 -1 -9 -24z"/>
<path d="M7156 6148 c-3 -13 -1 -27 4 -32 7 -7 10 1 10 22 0 37 -5 41 -14 10z"/>
<path d="M7180 6141 c0 -25 4 -31 21 -31 16 0 20 5 17 27 -2 17 -10 29 -20 31
-14 3 -18 -3 -18 -27z m30 -1 c0 -11 -4 -20 -10 -20 -5 0 -10 9 -10 20 0 11 5
20 10 20 6 0 10 -9 10 -20z"/>
<path d="M2854 6028 l-29 -33 33 29 c17 17 32 31 32 33 0 8 -8 1 -36 -29z"/>
<path d="M2910 6035 c-13 -14 -21 -27 -18 -31 3 -3 16 9 28 25 26 37 22 40
-10 6z"/>
<path d="M8770 6040 c0 -5 7 -7 15 -4 20 8 19 -5 -2 -28 -15 -17 -15 -18 8
-18 17 0 20 3 10 9 -9 6 -10 11 -2 15 18 12 12 36 -9 36 -11 0 -20 -4 -20 -10z"/>
<path d="M2810 6002 c0 -18 6 -22 28 -21 15 0 20 3 12 6 -8 3 -21 12 -27 21
-11 14 -13 13 -13 -6z"/>
<path d="M2870 6003 c0 -17 6 -23 23 -23 16 0 18 3 8 9 -7 5 -17 15 -22 22 -6
10 -9 8 -9 -8z"/>
<path d="M2200 5895 c-6 -8 -10 -22 -8 -32 4 -23 38 -30 38 -9 0 9 -5 16 -11
16 -5 0 -7 -6 -3 -12 5 -10 4 -10 -6 -1 -14 13 -6 48 10 38 5 -3 10 -1 10 4 0
16 -15 13 -30 -4z"/>
<path d="M2250 5878 c0 -21 2 -38 4 -38 9 0 12 50 5 62 -6 8 -9 -1 -9 -24z"/>
<path d="M2278 5886 c-3 -14 -1 -31 3 -38 6 -8 9 1 9 25 0 42 -6 48 -12 13z"/>
<path d="M2300 5875 c0 -29 3 -36 18 -33 11 2 17 13 17 33 0 20 -6 31 -17 33
-15 3 -18 -4 -18 -33z m30 -6 c0 -10 -4 -19 -10 -19 -5 0 -10 12 -10 26 0 14
4 23 10 19 6 -3 10 -15 10 -26z"/>
<path d="M2844 5835 c-9 -21 3 -45 21 -45 8 0 15 7 15 15 0 8 -5 15 -11 15 -5
0 -7 -4 -4 -10 3 -5 1 -10 -4 -10 -18 0 -12 38 7 43 16 4 16 5 -1 6 -10 0 -20
-6 -23 -14z"/>
<path d="M2891 5808 c1 -17 2 -19 6 -5 6 21 19 22 27 2 3 -8 13 -15 23 -14 16
0 16 1 -2 9 -17 7 -17 9 -2 9 33 2 17 21 -18 21 -30 0 -35 -3 -34 -22z"/>
<path d="M2970 5810 c0 -12 7 -20 18 -20 14 0 15 2 2 10 -10 6 -11 10 -2 10 6
0 12 5 12 10 0 6 -7 10 -15 10 -8 0 -15 -9 -15 -20z"/>
<path d="M3021 5808 c0 -22 1 -22 8 -3 l8 20 5 -20 c5 -18 6 -18 7 3 1 13 -5
22 -14 22 -9 0 -15 -9 -14 -22z"/>
<path d="M3561 5735 c0 -11 3 -14 6 -7 2 6 9 10 14 6 5 -3 9 0 9 5 0 18 18 12
23 -6 4 -14 5 -12 6 5 1 19 -4 22 -29 20 -23 -2 -30 -7 -29 -23z"/>
<path d="M2881 5718 c-1 -30 3 -38 17 -38 11 0 13 3 5 8 -6 4 -13 21 -16 37
-4 27 -4 27 -6 -7z"/>
<path d="M2920 5715 c0 -30 3 -35 23 -34 16 1 18 2 5 6 -21 5 -23 19 -5 26 10
4 10 6 0 6 -19 1 -16 19 5 24 13 4 11 5 -5 6 -20 1 -23 -4 -23 -34z"/>
<path d="M2970 5715 c0 -38 0 -38 24 -29 31 12 14 64 -20 64 -2 0 -4 -16 -4
-35z m30 0 c0 -8 -4 -17 -10 -20 -6 -4 -10 5 -10 20 0 15 4 24 10 20 6 -3 10
-12 10 -20z"/>
<path d="M3560 5690 c0 -16 7 -20 33 -19 17 0 26 3 19 6 -8 3 -10 9 -3 16 6 9
1 13 -20 14 -23 2 -29 -2 -29 -17z m30 0 c0 -5 -4 -10 -10 -10 -5 0 -10 5 -10
10 0 6 5 10 10 10 6 0 10 -4 10 -10z"/>
<path d="M3670 5690 c0 -16 6 -20 33 -19 18 1 24 3 14 6 -17 4 -17 6 -3 16 14
10 12 12 -14 14 -24 2 -30 -2 -30 -17z"/>
<path d="M5270 5590 c0 -5 -12 -10 -27 -10 -33 0 -22 -13 12 -15 18 0 25 5 25
17 0 10 -2 18 -5 18 -3 0 -5 -4 -5 -10z"/>
<path d="M2854 5498 l-29 -33 33 29 c30 28 37 36 29 36 -2 0 -16 -15 -33 -32z"/>
<path d="M2910 5505 c-13 -14 -21 -27 -18 -31 3 -3 16 9 28 25 26 37 22 40
-10 6z"/>
<path d="M2810 5472 c0 -18 6 -22 28 -21 15 0 20 3 12 6 -8 3 -21 12 -27 21
-11 14 -13 13 -13 -6z"/>
<path d="M2870 5473 c0 -17 6 -23 23 -23 16 0 18 3 8 9 -7 5 -17 15 -22 22 -6
10 -9 8 -9 -8z"/>
<path d="M2194 5355 c-9 -21 3 -45 21 -45 8 0 15 7 15 15 0 8 -5 15 -11 15 -5
0 -7 -5 -3 -12 4 -7 3 -8 -4 -4 -18 11 -14 34 6 39 16 4 16 5 -1 6 -10 0 -20
-6 -23 -14z"/>
<path d="M2251 5340 c0 -33 1 -34 10 -11 6 16 6 28 -1 35 -7 7 -10 -1 -9 -24z"/>
<path d="M2276 5348 c-3 -13 -1 -27 4 -32 7 -7 10 1 10 22 0 37 -5 41 -14 10z"/>
<path d="M2300 5339 c0 -24 4 -30 18 -27 10 2 18 14 20 31 3 22 -1 27 -17 27
-17 0 -21 -6 -21 -31z m30 1 c0 -11 -4 -20 -10 -20 -5 0 -10 9 -10 20 0 11 5
20 10 20 6 0 10 -9 10 -20z"/>
<path d="M2881 5288 c0 -18 3 -27 6 -20 3 8 9 10 16 3 9 -6 13 -1 14 20 2 23
-2 29 -17 29 -16 0 -20 -7 -19 -32z m29 18 c0 -3 -4 -8 -10 -11 -5 -3 -10 -1
-10 4 0 6 5 11 10 11 6 0 10 -2 10 -4z"/>
<path d="M2986 5300 c-19 -20 -15 -40 10 -40 9 0 14 11 14 30 0 35 1 34 -24
10z m14 -20 c0 -5 -4 -10 -10 -10 -5 0 -10 5 -10 10 0 6 5 10 10 10 6 0 10 -4
10 -10z"/>
<path d="M2930 5280 c0 -12 7 -20 18 -20 14 0 15 2 2 10 -10 6 -11 10 -2 10 6
0 12 5 12 10 0 6 -7 10 -15 10 -8 0 -15 -9 -15 -20z"/>
<path d="M3589 5221 c7 -5 10 -14 7 -20 -4 -6 -3 -11 2 -11 5 0 12 9 15 20 4
15 0 20 -16 20 -17 0 -19 -2 -8 -9z"/>
<path d="M2881 5188 c-1 -30 3 -38 17 -38 11 0 13 3 5 8 -6 4 -13 21 -16 37
-4 27 -4 27 -6 -7z"/>
<path d="M2920 5185 c0 -30 3 -35 23 -34 16 1 18 2 5 6 -21 5 -23 19 -5 26 10
4 10 6 0 6 -19 1 -16 19 5 24 13 4 11 5 -5 6 -20 1 -23 -4 -23 -34z"/>
<path d="M2970 5185 c0 -38 0 -38 24 -29 31 12 14 64 -20 64 -2 0 -4 -16 -4
-35z m30 0 c0 -8 -4 -17 -10 -20 -6 -4 -10 5 -10 20 0 15 4 24 10 20 6 -3 10
-12 10 -20z"/>
<path d="M3560 5160 c0 -16 7 -20 33 -19 17 0 26 3 19 6 -8 3 -10 9 -3 16 6 9
1 13 -20 14 -23 2 -29 -2 -29 -17z m30 0 c0 -5 -4 -10 -10 -10 -5 0 -10 5 -10
10 0 6 5 10 10 10 6 0 10 -4 10 -10z"/>
<path d="M3670 5160 c0 -16 6 -20 33 -19 18 1 24 3 14 6 -17 4 -17 6 -3 16 14
10 12 12 -14 14 -24 2 -30 -2 -30 -17z"/>
<path d="M2854 4968 l-29 -33 33 29 c30 28 37 36 29 36 -2 0 -16 -15 -33 -32z"/>
<path d="M2910 4975 c-13 -14 -21 -27 -18 -31 3 -3 16 9 28 25 26 37 22 40
-10 6z"/>
<path d="M2810 4942 c0 -18 6 -22 28 -21 15 0 20 3 12 6 -8 3 -21 12 -27 21
-11 14 -13 13 -13 -6z"/>
<path d="M2870 4943 c0 -17 6 -23 23 -23 16 0 18 3 8 9 -7 5 -17 15 -22 22 -6
10 -9 8 -9 -8z"/>
<path d="M2194 4825 c-9 -21 3 -45 21 -45 8 0 15 7 15 15 0 8 -5 15 -11 15 -5
0 -7 -5 -3 -12 4 -7 3 -8 -4 -4 -18 11 -14 34 6 39 16 4 16 5 -1 6 -10 0 -20
-6 -23 -14z"/>
<path d="M2251 4810 c0 -33 1 -34 10 -11 6 16 6 28 -1 35 -7 7 -10 -1 -9 -24z"/>
<path d="M2276 4818 c-3 -13 -1 -27 4 -32 7 -7 10 1 10 22 0 37 -5 41 -14 10z"/>
<path d="M2300 4809 c0 -24 4 -30 18 -27 10 2 18 14 20 31 3 22 -1 27 -17 27
-17 0 -21 -6 -21 -31z m30 1 c0 -11 -4 -20 -10 -20 -5 0 -10 9 -10 20 0 11 5
20 10 20 6 0 10 -9 10 -20z"/>
<path d="M4608 4713 c6 -2 18 -2 25 0 6 3 1 5 -13 5 -14 0 -19 -2 -12 -5z"/>
<path d="M8321 4548 c0 -18 3 -27 6 -20 3 9 9 10 17 3 9 -7 12 -2 14 20 2 23
-2 29 -18 29 -16 0 -20 -6 -19 -32z m29 12 c0 -5 -4 -10 -10 -10 -5 0 -10 5
-10 10 0 6 5 10 10 10 6 0 10 -4 10 -10z"/>
<path d="M8379 4563 c-10 -11 -10 -14 -1 -9 7 4 12 2 12 -8 0 -8 -6 -17 -12
-19 -7 -3 -4 -6 8 -6 17 -1 20 4 16 29 -5 35 -5 35 -23 13z"/>
<path d="M8950 4500 c-7 -17 -10 -33 -8 -36 3 -3 11 9 17 27 6 18 9 34 7 36
-2 2 -9 -10 -16 -27z"/>
<path d="M8993 4523 c-18 -7 -16 -50 2 -56 8 -4 17 -2 20 4 4 5 1 8 -7 7 -7
-2 -13 6 -13 17 0 11 6 19 13 17 8 -1 11 2 7 8 -3 5 -7 10 -8 9 -1 0 -8 -3
-14 -6z"/>
<path d="M9042 4518 c-16 -16 -15 -33 2 -47 10 -8 16 -9 21 -1 4 6 1 9 -7 8
-7 -2 -13 6 -13 17 0 11 6 19 13 17 8 -1 11 2 7 8 -8 13 -8 13 -23 -2z"/>
<path d="M7720 4473 c0 -15 -2 -16 -11 -3 -9 13 -10 13 -6 0 2 -8 16 -16 31
-18 22 -3 27 0 24 15 -5 24 -38 30 -38 6z m30 -3 c0 -5 -4 -10 -10 -10 -5 0
-10 5 -10 10 0 6 5 10 10 10 6 0 10 -4 10 -10z"/>
<path d="M8251 4443 c-1 -25 3 -33 17 -33 11 0 13 3 6 8 -7 4 -14 18 -17 32
-4 21 -4 20 -6 -7z"/>
<path d="M8290 4439 c0 -24 4 -30 18 -27 10 2 18 14 20 31 3 22 -1 27 -17 27
-17 0 -21 -6 -21 -31z m30 1 c0 -11 -4 -20 -10 -20 -5 0 -10 9 -10 20 0 11 5
20 10 20 6 0 10 -9 10 -20z"/>
<path d="M8341 4438 c1 -18 3 -25 6 -15 6 21 12 22 27 1 10 -13 12 -11 11 13
-1 21 -7 29 -23 31 -19 3 -22 -1 -21 -30z m36 16 c-3 -3 -12 -4 -19 -1 -8 3
-5 6 6 6 11 1 17 -2 13 -5z"/>
<path d="M8400 4440 c0 -19 5 -30 14 -30 17 0 28 24 20 45 -11 27 -34 17 -34
-15z m22 -12 c-9 -9 -12 -7 -12 12 0 19 3 21 12 12 9 -9 9 -15 0 -24z"/>
<path d="M8453 4463 c9 -2 23 -2 30 0 6 3 -1 5 -18 5 -16 0 -22 -2 -12 -5z"/>
<path d="M7700 4420 c0 -16 6 -20 33 -19 18 1 24 3 14 6 -17 4 -17 6 -3 16 14
10 12 12 -14 14 -24 2 -30 -2 -30 -17z"/>
<path d="M7805 4432 c-17 -17 -2 -32 33 -31 20 1 29 3 19 6 -17 4 -17 6 -3 16
14 10 12 12 -14 13 -16 1 -32 -1 -35 -4z m25 -12 c0 -5 -4 -10 -10 -10 -5 0
-10 5 -10 10 0 6 5 10 10 10 6 0 10 -4 10 -10z"/>
<path d="M3261 4351 c-12 -22 9 -58 27 -47 15 9 16 36 2 36 -5 0 -9 -3 -9 -7
3 -20 -2 -27 -10 -14 -11 17 -3 43 10 35 5 -3 9 0 9 5 0 18 -18 13 -29 -8z"/>
<path d="M3310 4338 c0 -21 2 -38 4 -38 9 0 12 50 5 62 -6 8 -9 -1 -9 -24z"/>
<path d="M3338 4346 c-3 -14 -1 -31 3 -38 6 -8 9 1 9 25 0 42 -6 48 -12 13z"/>
<path d="M3360 4335 c0 -29 3 -36 18 -33 11 2 17 13 17 33 0 20 -6 31 -17 33
-15 3 -18 -4 -18 -33z m30 0 c0 -8 -4 -17 -10 -20 -6 -4 -10 5 -10 20 0 15 4
24 10 20 6 -3 10 -12 10 -20z"/>
<path d="M8369 4211 c7 -5 17 -15 22 -22 6 -10 9 -8 9 9 0 16 -6 22 -22 22
-17 0 -19 -3 -9 -9z"/>
<path d="M8430 4213 c8 -3 21 -12 28 -21 10 -14 12 -13 12 6 0 18 -6 22 -27
21 -16 0 -21 -3 -13 -6z"/>
<path d="M8330 4155 c-24 -25 -42 -45 -39 -45 3 0 25 20 49 45 24 25 42 45 39
45 -3 0 -25 -20 -49 -45z"/>
<path d="M8392 4154 l-47 -46 41 30 c43 33 71 62 60 62 -4 0 -28 -21 -54 -46z"/>
<path d="M7126 4085 c-8 -23 4 -45 25 -45 10 0 19 7 19 15 0 8 -5 15 -11 15
-5 0 -7 -4 -4 -10 3 -5 2 -10 -4 -10 -20 0 -24 23 -6 37 16 11 16 13 3 13 -9
0 -18 -7 -22 -15z"/>
<path d="M7181 4070 c0 -33 1 -34 10 -11 6 16 6 28 -1 35 -7 7 -10 -1 -9 -24z"/>
<path d="M7206 4078 c-3 -13 -1 -27 4 -32 7 -7 10 1 10 22 0 37 -5 41 -14 10z"/>
<path d="M7240 4070 c0 -19 5 -30 14 -30 17 0 28 24 20 45 -11 27 -34 17 -34
-15z m22 -12 c-9 -9 -12 -7 -12 12 0 19 3 21 12 12 9 -9 9 -15 0 -24z"/>
<path d="M8326 3931 c4 -16 3 -21 -5 -17 -16 10 -14 -3 3 -19 21 -21 28 5 10
36 l-15 24 7 -24z"/>
<path d="M7691 3913 c-1 -25 3 -33 17 -33 11 0 13 3 6 8 -7 4 -14 18 -17 32
-4 21 -4 20 -6 -7z"/>
<path d="M8260 3910 c0 -19 5 -30 14 -30 17 0 28 24 20 45 -11 27 -34 17 -34
-15z m22 -12 c-9 -9 -12 -7 -12 12 0 19 3 21 12 12 9 -9 9 -15 0 -24z"/>
<path d="M7730 3906 c0 -17 5 -26 16 -26 10 0 14 7 12 22 -5 32 -28 35 -28 4z"/>
<path d="M7781 3902 l1 -27 7 25 8 25 5 -25 5 -25 3 25 2 25 9 -25 8 -25 -2
24 c-1 17 -9 25 -24 27 -19 3 -23 -1 -22 -24z"/>
<path d="M7850 3895 c0 -33 1 -35 16 -21 17 18 16 47 -3 54 -9 2 -13 -8 -13
-33z m17 3 c-3 -8 -6 -5 -6 6 -1 11 2 17 5 13 3 -3 4 -12 1 -19z"/>
<path d="M7761 3803 c0 -28 2 -33 8 -18 8 19 8 19 19 0 9 -17 10 -15 9 15 -1
24 -7 36 -19 38 -15 3 -18 -4 -17 -35z m29 17 c0 -5 -4 -10 -10 -10 -5 0 -10
5 -10 10 0 6 5 10 10 10 6 0 10 -4 10 -10z"/>
<path d="M8241 3808 c-1 -30 3 -38 17 -38 11 0 13 3 5 8 -6 4 -13 21 -16 37
-4 27 -4 27 -6 -7z"/>
<path d="M8280 3805 c0 -27 4 -35 18 -35 14 0 15 2 2 10 -12 8 -13 11 -1 19
11 7 11 9 0 14 -12 4 -11 7 1 16 13 9 13 11 -2 11 -14 0 -18 -8 -18 -35z"/>
<path d="M8330 3805 c0 -38 13 -46 29 -17 6 11 6 24 0 35 -16 28 -29 20 -29
-18z m23 12 c3 -8 1 -20 -4 -28 -6 -10 -9 -7 -9 14 0 29 5 35 13 14z"/>
<path d="M4560 3740 c0 -22 5 -30 18 -30 14 0 15 2 2 10 -13 9 -13 10 0 10 13
0 13 1 0 10 -13 9 -13 11 0 20 13 8 12 10 -2 10 -13 0 -18 -8 -18 -30z"/>
<path d="M8212 3597 c-25 -26 -30 -46 -7 -27 13 10 15 9 15 -9 0 -16 6 -21 28
-20 25 0 25 1 6 9 -25 10 -37 43 -21 59 6 6 9 11 6 11 -3 0 -15 -10 -27 -23z"/>
<path d="M8264 3588 l-29 -33 33 29 c17 17 32 31 32 33 0 8 -8 1 -36 -29z"/>
<path d="M8171 3568 c-1 -22 3 -28 21 -28 19 0 20 2 6 13 -9 6 -18 19 -21 27
-3 8 -6 3 -6 -12z"/>
<path d="M2807 3456 c-3 -8 1 -22 8 -33 12 -15 16 -16 27 -4 11 12 10 13 -4 8
-17 -6 -22 2 -19 31 2 16 -6 15 -12 -2z"/>
<path d="M7131 3451 c-12 -22 9 -58 27 -47 15 9 16 36 2 36 -5 0 -9 -3 -9 -7
3 -20 -2 -27 -10 -14 -11 17 -3 43 10 35 5 -3 9 0 9 5 0 18 -18 13 -29 -8z"/>
<path d="M7180 3438 c0 -21 2 -38 4 -38 9 0 12 50 5 62 -6 8 -9 -1 -9 -24z"/>
<path d="M7208 3446 c-3 -14 -1 -31 3 -38 6 -8 9 1 9 25 0 42 -6 48 -12 13z"/>
<path d="M7240 3435 c0 -38 13 -46 29 -17 6 11 6 24 0 35 -16 28 -29 20 -29
-18z m23 12 c3 -8 1 -20 -4 -28 -6 -10 -9 -7 -9 14 0 29 5 35 13 14z"/>
<path d="M2663 3443 c18 -4 17 -6 -4 -29 l-22 -24 29 1 c23 0 25 2 11 8 -17 6
-17 8 -3 20 19 16 12 31 -12 30 -14 -1 -14 -2 1 -6z"/>
<path d="M5430 1976 c0 -8 4 -18 10 -21 6 -3 7 1 4 9 -8 21 5 20 28 -1 17 -15
18 -15 18 8 0 17 -3 20 -9 10 -6 -9 -11 -10 -15 -2 -10 16 -36 14 -36 -3z"/>
<path d="M5430 1920 c0 -16 7 -20 30 -20 23 0 30 4 30 20 0 16 -7 20 -30 20
-23 0 -30 -4 -30 -20z m30 0 c0 -5 -4 -10 -10 -10 -5 0 -10 5 -10 10 0 6 5 10
10 10 6 0 10 -4 10 -10z"/>
<path d="M5670 1930 c0 -5 7 -7 15 -4 8 4 15 8 15 10 0 2 -7 4 -15 4 -8 0 -15
-4 -15 -10z"/>
<path d="M5823 1900 c1 -24 7 -35 17 -35 10 0 16 11 17 35 1 19 -1 26 -3 15
-11 -46 -18 -50 -25 -15 l-7 35 1 -35z"/>
<path d="M5880 1928 c-1 -5 -3 -21 -4 -38 -1 -24 3 -30 19 -30 12 0 16 3 8 8
-6 4 -13 21 -16 37 -2 17 -5 27 -7 23z"/>
<path d="M5816 1811 c-3 -5 1 -15 10 -22 14 -12 14 -14 -3 -20 -16 -7 -15 -8
5 -8 26 -1 30 24 5 34 -17 7 -16 8 2 15 16 7 17 9 3 9 -9 1 -19 -3 -22 -8z"/>
<path d="M5869 1788 c5 -30 6 -31 9 -8 2 14 9 28 16 32 7 5 3 8 -10 8 -18 0
-20 -5 -15 -32z"/>
<path d="M5910 1793 c0 -18 2 -33 4 -33 9 0 13 39 5 51 -6 10 -9 4 -9 -18z"/>
<path d="M5936 1798 c-3 -13 -1 -27 4 -32 7 -7 10 1 10 22 0 37 -5 41 -14 10z"/>
<path d="M5973 1813 c9 -2 15 -9 12 -14 -4 -5 -1 -9 4 -9 21 0 11 -19 -11 -22
-13 -3 2 -5 32 -5 31 -1 47 2 37 6 -17 6 -17 8 -3 20 18 15 12 31 -12 30 -15
0 -15 -1 1 -8 17 -6 17 -8 -1 -24 -18 -16 -20 -16 -26 -2 -3 9 -4 21 0 26 3 5
-7 8 -23 8 -17 -1 -21 -3 -10 -6z"/>
<path d="M6071 1793 c-1 -27 3 -33 19 -33 16 0 20 6 19 33 -2 30 -2 30 -6 5
-2 -16 -8 -28 -13 -28 -5 0 -11 12 -13 28 -4 25 -4 25 -6 -5z"/>
<path d="M6120 1805 c0 -8 7 -15 15 -15 21 0 19 -18 -2 -23 -14 -4 -12 -5 5
-6 16 -1 22 5 22 19 0 12 -7 20 -17 21 -15 0 -15 2 2 9 19 8 19 9 -2 9 -14 1
-23 -5 -23 -14z"/>
<path d="M6180 1800 c-9 -16 -8 -20 5 -20 8 0 15 -6 15 -12 0 -7 5 -5 11 5 5
9 17 17 24 17 21 0 19 -18 -2 -23 -14 -4 -12 -5 5 -6 16 -1 22 5 22 20 0 18
-5 20 -36 16 -27 -4 -34 -2 -30 9 8 21 -2 17 -14 -6z"/>
<path d="M6238 1813 c7 -3 16 -2 19 1 4 3 -2 6 -13 5 -11 0 -14 -3 -6 -6z"/>
<path d="M6281 1788 c0 -18 3 -27 6 -20 3 9 9 10 17 3 9 -7 12 -3 11 17 0 17
-6 28 -17 30 -14 3 -18 -3 -17 -30z m29 18 c0 -3 -4 -8 -10 -11 -5 -3 -10 -1
-10 4 0 6 5 11 10 11 6 0 10 -2 10 -4z"/>
<path d="M6330 1790 c0 -22 5 -30 18 -30 14 0 15 2 2 10 -13 9 -13 11 0 20 13
9 13 10 0 10 -13 0 -13 1 0 10 13 8 12 10 -2 10 -13 0 -18 -8 -18 -30z"/>
<path d="M6382 1790 c0 -19 2 -27 5 -17 2 9 2 25 0 35 -3 9 -5 1 -5 -18z"/>
<path d="M6441 1804 c-7 -8 -18 -13 -25 -11 -6 3 -12 -3 -12 -12 0 -9 8 -17
17 -17 10 0 15 6 12 16 -4 13 -3 13 9 -1 7 -8 21 -18 31 -22 16 -6 18 -2 15
25 -3 36 -25 47 -47 22z m39 -14 c0 -13 -5 -18 -15 -14 -16 7 -19 17 -8 27 12
13 23 7 23 -13z"/>
</g>
</svg>
