<?xml version="1.0" encoding="UTF-8"?>
<!DOCTYPE svg PUBLIC "-//W3C//DTD SVG 1.1//EN" "http://www.w3.org/Graphics/SVG/1.1/DTD/svg11.dtd">
<svg xmlns="http://www.w3.org/2000/svg" style="background: transparent; background-color: transparent; color-scheme: light dark;" xmlns:xlink="http://www.w3.org/1999/xlink" version="1.1" width="801px" height="496px" viewBox="0 0 801 496"><defs><linearGradient x1="0%" y1="0%" x2="0%" y2="100%" id="drawio-svg-uxGPJOaNdQ2iG5synWiG-gradient-light-dark_ffcd28_6a3f00_-1-light-dark_ffa500_a05300_-1-s-0"><stop offset="0%" stop-color="#ffcd28" style="stop-color: light-dark(rgb(255, 205, 40), rgb(106, 63, 0)); stop-opacity: 1;" stop-opacity="1"/><stop offset="100%" stop-color="#ffa500" style="stop-color: light-dark(rgb(255, 165, 0), rgb(160, 83, 0)); stop-opacity: 1;" stop-opacity="1"/></linearGradient></defs><g><g data-cell-id="0"><g data-cell-id="1"><g data-cell-id="_v_qky7yrBhfWeUDWaAC-7"><g transform="translate(0.5,0.5)"><path d="M 160 296.37 L 160 353.63" fill="none" stroke="#000000" style="stroke: light-dark(rgb(0, 0, 0), rgb(255, 255, 255));" stroke-miterlimit="10" pointer-events="stroke"/><path d="M 160 291.12 L 163.5 298.12 L 160 296.37 L 156.5 298.12 Z" fill="#000000" style="fill: light-dark(rgb(0, 0, 0), rgb(255, 255, 255)); stroke: light-dark(rgb(0, 0, 0), rgb(255, 255, 255));" stroke="#000000" stroke-miterlimit="10" pointer-events="all"/><path d="M 160 358.88 L 156.5 351.88 L 160 353.63 L 163.5 351.88 Z" fill="#000000" style="fill: light-dark(rgb(0, 0, 0), rgb(255, 255, 255)); stroke: light-dark(rgb(0, 0, 0), rgb(255, 255, 255));" stroke="#000000" stroke-miterlimit="10" pointer-events="all"/></g></g><g data-cell-id="nucleo"><g transform="translate(0.5,0.5)"><rect x="270" y="190" width="165" height="90" rx="13.5" ry="13.5" fill="#dae8fc" style="fill: light-dark(rgb(218, 232, 252), rgb(29, 41, 59)); stroke: light-dark(rgb(108, 142, 191), rgb(92, 121, 163));" stroke="#6c8ebf" pointer-events="all"/></g><g><g fill="#FF0000" style="fill: rgb(255, 0, 0);" font-family="Helvetica" font-weight="bold" text-anchor="middle" font-size="12px"><text x="352.5" y="240">STM32 NUCLEO-U545RE-Q</text></g></g></g><g data-cell-id="sdcard"><g transform="translate(0.5,0.5)"><rect x="70" y="230" width="120" height="60" fill="#1ba1e2" style="fill: light-dark(rgb(27, 161, 226), rgb(25, 140, 196)); stroke: light-dark(rgb(0, 110, 175), rgb(81, 175, 231));" stroke="#006eaf" pointer-events="all"/></g><g><g fill="#FFFFFF" style="fill: rgb(255, 255, 255);" font-family="Helvetica" text-anchor="middle" font-size="12px"><text x="130" y="258">MKS MINI 12864 </text><text x="130" y="272">V2.0 Display</text></g></g></g><g data-cell-id="_v_qky7yrBhfWeUDWaAC-34"><g transform="translate(0.5,0.5)"><path d="M 580 360 L 580 428.63" fill="none" stroke="#000000" style="stroke: light-dark(rgb(0, 0, 0), rgb(255, 255, 255));" stroke-miterlimit="10" pointer-events="stroke"/><path d="M 580 433.88 L 576.5 426.88 L 580 428.63 L 583.5 426.88 Z" fill="#000000" style="fill: light-dark(rgb(0, 0, 0), rgb(255, 255, 255)); stroke: light-dark(rgb(0, 0, 0), rgb(255, 255, 255));" stroke="#000000" stroke-miterlimit="10" pointer-events="all"/></g></g><g data-cell-id="mosfet"><g transform="translate(0.5,0.5)"><rect x="520" y="300" width="120" height="60" fill="#e3c800" style="fill: light-dark(rgb(227, 200, 0), rgb(103, 80, 0)); stroke: light-dark(rgb(176, 149, 0), rgb(141, 118, 0));" stroke="#b09500" pointer-events="all"/></g><g><g fill="#FFFFFF" style="fill: rgb(255, 255, 255);" font-family="Helvetica" text-anchor="middle" font-size="12px"><text x="580" y="328">Dual MOSFET</text><text x="580" y="342">Module</text></g></g></g><g data-cell-id="p3"><g transform="translate(0.5,0.5)"><path d="M 490 30 L 620 30 Q 630 30 630 40 L 630 260 Q 630 270 620 270 L 590 270 Q 580 270 580 279.95 L 580 289.9" fill="none" stroke="#ff0000" style="stroke: rgb(255, 0, 0);" stroke-width="3" stroke-miterlimit="10" pointer-events="stroke"/><path d="M 580 296.65 L 575.5 287.65 L 580 289.9 L 584.5 287.65 Z" fill="#ff0000" style="fill: rgb(255, 0, 0); stroke: rgb(255, 0, 0);" stroke="#ff0000" stroke-width="3" stroke-miterlimit="10" pointer-events="all"/></g></g><g data-cell-id="p2"><g transform="translate(0.5,0.5)"><path d="M 490 30 L 490 60 Q 490 70 500 70 L 590 70 Q 600 70 600 80 L 600 140 Q 600 150 590 150 L 585 150 Q 580 150 580 160 L 580 179.9" fill="none" stroke="#ff0000" style="stroke: rgb(255, 0, 0);" stroke-width="3" stroke-miterlimit="10" pointer-events="stroke"/><path d="M 580 186.65 L 575.5 177.65 L 580 179.9 L 584.5 177.65 Z" fill="#ff0000" style="fill: rgb(255, 0, 0); stroke: rgb(255, 0, 0);" stroke="#ff0000" stroke-width="3" stroke-miterlimit="10" pointer-events="all"/></g></g><g data-cell-id="con3"><g transform="translate(0.5,0.5)"><path d="M 435 212.5 L 515.43 134.44" fill="none" stroke="#000000" style="stroke: light-dark(rgb(0, 0, 0), rgb(255, 255, 255));" stroke-miterlimit="10" pointer-events="stroke"/><path d="M 519.2 130.78 L 516.61 138.17 L 515.43 134.44 L 511.74 133.14 Z" fill="#000000" style="fill: light-dark(rgb(0, 0, 0), rgb(255, 255, 255)); stroke: light-dark(rgb(0, 0, 0), rgb(255, 255, 255));" stroke="#000000" stroke-miterlimit="10" pointer-events="all"/></g><g><g fill="#000000" style="fill: light-dark(rgb(0, 0, 0), rgb(255, 255, 255));" font-family="Helvetica" text-anchor="middle" font-size="11px"><rect fill="#ffffff" stroke="none" x="463" y="165" width="29" height="14" style="fill: light-dark(#ffffff, var(--ge-dark-color, #121212));" stroke-width="0"/><text x="477.34" y="175.91">GPIO</text></g></g></g><g data-cell-id="con4"><g transform="translate(0.5,0.5)"><path d="M 435 235 L 513.73 221.11" fill="none" stroke="#000000" style="stroke: light-dark(rgb(0, 0, 0), rgb(255, 255, 255));" stroke-miterlimit="10" pointer-events="stroke"/><path d="M 518.9 220.19 L 512.61 224.86 L 513.73 221.11 L 511.4 217.96 Z" fill="#000000" style="fill: light-dark(rgb(0, 0, 0), rgb(255, 255, 255)); stroke: light-dark(rgb(0, 0, 0), rgb(255, 255, 255));" stroke="#000000" stroke-miterlimit="10" pointer-events="all"/></g><g><g fill="#000000" style="fill: light-dark(rgb(0, 0, 0), rgb(255, 255, 255));" font-family="Helvetica" text-anchor="middle" font-size="11px"><rect fill="#ffffff" stroke="none" x="463" y="222" width="29" height="14" style="fill: light-dark(#ffffff, var(--ge-dark-color, #121212));" stroke-width="0"/><text x="477.35" y="232.03">GPIO</text></g></g></g><g data-cell-id="con5"><g transform="translate(0.5,0.5)"><path d="M 435 257.5 L 515.16 325.87" fill="none" stroke="#000000" style="stroke: light-dark(rgb(0, 0, 0), rgb(255, 255, 255));" stroke-miterlimit="10" pointer-events="stroke"/><path d="M 519.15 329.27 L 511.55 327.39 L 515.16 325.87 L 516.09 322.07 Z" fill="#000000" style="fill: light-dark(rgb(0, 0, 0), rgb(255, 255, 255)); stroke: light-dark(rgb(0, 0, 0), rgb(255, 255, 255));" stroke="#000000" stroke-miterlimit="10" pointer-events="all"/></g><g><g fill="#000000" style="fill: light-dark(rgb(0, 0, 0), rgb(255, 255, 255));" font-family="Helvetica" text-anchor="middle" font-size="11px"><rect fill="#ffffff" stroke="none" x="464" y="288" width="29" height="14" style="fill: light-dark(#ffffff, var(--ge-dark-color, #121212));" stroke-width="0"/><text x="477.61" y="298.34">PWM</text></g></g></g><g data-cell-id="con6"><g transform="translate(0.5,0.5)"><path d="M 580 360 L 580 428.63" fill="none" stroke="#000000" style="stroke: light-dark(rgb(0, 0, 0), rgb(255, 255, 255));" stroke-miterlimit="10" pointer-events="stroke"/><path d="M 580 433.88 L 576.5 426.88 L 580 428.63 L 583.5 426.88 Z" fill="#000000" style="fill: light-dark(rgb(0, 0, 0), rgb(255, 255, 255)); stroke: light-dark(rgb(0, 0, 0), rgb(255, 255, 255));" stroke="#000000" stroke-miterlimit="10" pointer-events="all"/></g><g><g fill="#000000" style="fill: light-dark(rgb(0, 0, 0), rgb(255, 255, 255));" font-family="Helvetica" text-anchor="middle" font-size="11px"><rect fill="#ffffff" stroke="none" x="546" y="392" width="69" height="14" style="fill: light-dark(#ffffff, var(--ge-dark-color, #121212));" stroke-width="0"/><text x="580" y="402.5">Switched 12V</text></g></g></g><g data-cell-id="con7"><g transform="translate(0.5,0.5)"><path d="M 390 390 L 389.76 286.37" fill="none" stroke="#000000" style="stroke: light-dark(rgb(0, 0, 0), rgb(255, 255, 255));" stroke-miterlimit="10" pointer-events="stroke"/><path d="M 389.75 281.12 L 393.27 288.11 L 389.76 286.37 L 386.27 288.13 Z" fill="#000000" style="fill: light-dark(rgb(0, 0, 0), rgb(255, 255, 255)); stroke: light-dark(rgb(0, 0, 0), rgb(255, 255, 255));" stroke="#000000" stroke-miterlimit="10" pointer-events="all"/></g><g><g fill="#000000" style="fill: light-dark(rgb(0, 0, 0), rgb(255, 255, 255));" font-family="Helvetica" text-anchor="middle" font-size="11px"><rect fill="#ffffff" stroke="none" x="376" y="329" width="29" height="14" style="fill: light-dark(#ffffff, var(--ge-dark-color, #121212));" stroke-width="0"/><text x="389.88" y="339.5">GPIO</text></g></g></g><g data-cell-id="_v_qky7yrBhfWeUDWaAC-4"><g transform="translate(0.5,0.5)"><rect x="0" y="360" width="120" height="60" fill="#1ba1e2" style="fill: light-dark(rgb(27, 161, 226), rgb(25, 140, 196)); stroke: light-dark(rgb(0, 110, 175), rgb(81, 175, 231));" stroke="#006eaf" pointer-events="all"/></g><g><g fill="#FFFFFF" style="fill: rgb(255, 255, 255);" font-family="Helvetica" text-anchor="middle" font-size="12px"><text x="60" y="374">12864 LCD with</text><text x="60" y="388">rotary encoder</text><text x="60" y="402">(UC1701/ ST7567S </text><text x="60" y="416">Driver)</text></g></g></g><g data-cell-id="_v_qky7yrBhfWeUDWaAC-5"><g transform="translate(0.5,0.5)"><rect x="140" y="360" width="120" height="60" fill="#1ba1e2" style="fill: light-dark(rgb(27, 161, 226), rgb(25, 140, 196)); stroke: light-dark(rgb(0, 110, 175), rgb(81, 175, 231));" stroke="#006eaf" pointer-events="all"/></g><g><g fill="#FFFFFF" style="fill: rgb(255, 255, 255);" font-family="Helvetica" text-anchor="middle" font-size="12px"><text x="200" y="395">SD-card Reader</text></g></g></g><g data-cell-id="_v_qky7yrBhfWeUDWaAC-6"><g transform="translate(0.5,0.5)"><path d="M 100 296.37 L 99.96 353.63" fill="none" stroke="#000000" style="stroke: light-dark(rgb(0, 0, 0), rgb(255, 255, 255));" stroke-miterlimit="10" pointer-events="stroke"/><path d="M 100 291.12 L 103.5 298.12 L 100 296.37 L 96.5 298.12 Z" fill="#000000" style="fill: light-dark(rgb(0, 0, 0), rgb(255, 255, 255)); stroke: light-dark(rgb(0, 0, 0), rgb(255, 255, 255));" stroke="#000000" stroke-miterlimit="10" pointer-events="all"/><path d="M 99.96 358.88 L 96.46 351.88 L 99.96 353.63 L 103.46 351.88 Z" fill="#000000" style="fill: light-dark(rgb(0, 0, 0), rgb(255, 255, 255)); stroke: light-dark(rgb(0, 0, 0), rgb(255, 255, 255));" stroke="#000000" stroke-miterlimit="10" pointer-events="all"/></g><g data-cell-id="_v_qky7yrBhfWeUDWaAC-8"><g><g fill="#000000" style="fill: light-dark(rgb(0, 0, 0), rgb(255, 255, 255));" font-family="Helvetica" text-anchor="middle" font-size="13px"><rect fill="#ffffff" stroke="none" x="92" y="314" width="77" height="17" style="fill: light-dark(#ffffff, var(--ge-dark-color, #121212));" stroke-width="0"/><text x="130.48" y="327">comprised of</text></g></g></g></g><g data-cell-id="_v_qky7yrBhfWeUDWaAC-13"><g transform="translate(0.5,0.5)"><path d="M 263.63 235 L 220 235 L 220 320 L 280 320 L 280 450 L 159.8 450 L 159.77 426.37" fill="none" stroke="#000000" style="stroke: light-dark(rgb(0, 0, 0), rgb(255, 255, 255));" stroke-miterlimit="10" pointer-events="stroke"/><path d="M 268.88 235 L 261.88 238.5 L 263.63 235 L 261.88 231.5 Z" fill="#000000" style="fill: light-dark(rgb(0, 0, 0), rgb(255, 255, 255)); stroke: light-dark(rgb(0, 0, 0), rgb(255, 255, 255));" stroke="#000000" stroke-miterlimit="10" pointer-events="all"/><path d="M 159.76 421.12 L 163.27 428.11 L 159.77 426.37 L 156.27 428.12 Z" fill="#000000" style="fill: light-dark(rgb(0, 0, 0), rgb(255, 255, 255)); stroke: light-dark(rgb(0, 0, 0), rgb(255, 255, 255));" stroke="#000000" stroke-miterlimit="10" pointer-events="all"/></g><g data-cell-id="_v_qky7yrBhfWeUDWaAC-14"><g><g fill="#000000" style="fill: light-dark(rgb(0, 0, 0), rgb(255, 255, 255));" font-family="Helvetica" text-anchor="middle" font-size="11px"><rect fill="#ffffff" stroke="none" x="241" y="315" width="20" height="14" style="fill: light-dark(#ffffff, var(--ge-dark-color, #121212));" stroke-width="0"/><text x="250.5" y="325">SPI</text></g></g></g></g><g data-cell-id="_v_qky7yrBhfWeUDWaAC-15"><g transform="translate(0.5,0.5)"><path d="M 263.63 257.5 L 240 257.5 L 240 298 L 300 298 L 300 470 L 60 470 L 60 426.37" fill="none" stroke="#000000" style="stroke: light-dark(rgb(0, 0, 0), rgb(255, 255, 255));" stroke-miterlimit="10" pointer-events="stroke"/><path d="M 268.88 257.5 L 261.88 261 L 263.63 257.5 L 261.88 254 Z" fill="#000000" style="fill: light-dark(rgb(0, 0, 0), rgb(255, 255, 255)); stroke: light-dark(rgb(0, 0, 0), rgb(255, 255, 255));" stroke="#000000" stroke-miterlimit="10" pointer-events="all"/><path d="M 60 421.12 L 63.5 428.12 L 60 426.37 L 56.5 428.12 Z" fill="#000000" style="fill: light-dark(rgb(0, 0, 0), rgb(255, 255, 255)); stroke: light-dark(rgb(0, 0, 0), rgb(255, 255, 255));" stroke="#000000" stroke-miterlimit="10" pointer-events="all"/></g><g data-cell-id="_v_qky7yrBhfWeUDWaAC-16"><g><g fill="#000000" style="fill: light-dark(rgb(0, 0, 0), rgb(255, 255, 255));" font-family="Helvetica" text-anchor="middle" font-size="11px"><rect fill="#ffffff" stroke="none" x="290" y="412" width="20" height="14" style="fill: light-dark(#ffffff, var(--ge-dark-color, #121212));" stroke-width="0"/><text x="299.5" y="422.5">SPI</text></g></g></g></g><g data-cell-id="_v_qky7yrBhfWeUDWaAC-21"><g transform="translate(0.5,0.5)"><rect x="330" y="390" width="120" height="60" fill="#60a917" style="fill: light-dark(rgb(96, 169, 23), rgb(74, 137, 12)); stroke: light-dark(rgb(45, 118, 0), rgb(115, 177, 76));" stroke="#2d7600" pointer-events="all"/></g><g><g fill="#FFFFFF" style="fill: rgb(255, 255, 255);" font-family="Helvetica" text-anchor="middle" font-size="12px"><text x="390" y="425">Endstops (X, Y axis)</text></g></g></g><g data-cell-id="_v_qky7yrBhfWeUDWaAC-22"><g transform="translate(0.5,0.5)"><rect x="260" y="0" width="120" height="60" fill="#e3c800" style="fill: light-dark(rgb(227, 200, 0), rgb(103, 80, 0)); stroke: light-dark(rgb(176, 149, 0), rgb(141, 118, 0));" stroke="#b09500" pointer-events="all"/></g><g><g fill="#FFFFFF" style="fill: rgb(255, 255, 255);" font-family="Helvetica" text-anchor="middle" font-size="12px"><text x="320" y="35">12V 6A Power Supply</text></g></g></g><g data-cell-id="_v_qky7yrBhfWeUDWaAC-23"><g transform="translate(0.5,0.5)"><rect x="520" y="435" width="120" height="60" fill="url(#drawio-svg-uxGPJOaNdQ2iG5synWiG-gradient-light-dark_ffcd28_6a3f00_-1-light-dark_ffa500_a05300_-1-s-0)" style="fill: url(&quot;#drawio-svg-uxGPJOaNdQ2iG5synWiG-gradient-light-dark_ffcd28_6a3f00_-1-light-dark_ffa500_a05300_-1-s-0&quot;); stroke: light-dark(rgb(215, 155, 0), rgb(153, 101, 0));" stroke="#d79b00" pointer-events="all"/></g><g><g fill="#FFFFFF" style="fill: rgb(255, 255, 255);" font-family="Helvetica" text-anchor="middle" font-size="12px"><text x="580" y="470">JF-0530B Solenoid</text></g></g></g><g data-cell-id="driverX"><g transform="translate(0.5,0.5)"><rect x="520" y="100" width="120" height="60" fill="url(#drawio-svg-uxGPJOaNdQ2iG5synWiG-gradient-light-dark_ffcd28_6a3f00_-1-light-dark_ffa500_a05300_-1-s-0)" style="fill: url(&quot;#drawio-svg-uxGPJOaNdQ2iG5synWiG-gradient-light-dark_ffcd28_6a3f00_-1-light-dark_ffa500_a05300_-1-s-0&quot;); stroke: light-dark(rgb(215, 155, 0), rgb(153, 101, 0));" stroke="#d79b00" pointer-events="all"/></g><g><g fill="#FFFFFF" style="fill: rgb(255, 255, 255);" font-family="Helvetica" text-anchor="middle" font-size="12px"><text x="580" y="135">A4988 Driver</text></g></g></g><g data-cell-id="driverY"><g transform="translate(0.5,0.5)"><rect x="520" y="190" width="120" height="60" fill="url(#drawio-svg-uxGPJOaNdQ2iG5synWiG-gradient-light-dark_ffcd28_6a3f00_-1-light-dark_ffa500_a05300_-1-s-0)" style="fill: url(&quot;#drawio-svg-uxGPJOaNdQ2iG5synWiG-gradient-light-dark_ffcd28_6a3f00_-1-light-dark_ffa500_a05300_-1-s-0&quot;); stroke: light-dark(rgb(215, 155, 0), rgb(153, 101, 0));" stroke="#d79b00" pointer-events="all"/></g><g><g fill="#FFFFFF" style="fill: rgb(255, 255, 255);" font-family="Helvetica" text-anchor="middle" font-size="12px"><text x="580" y="225">A4988 Driver</text></g></g></g><g data-cell-id="_v_qky7yrBhfWeUDWaAC-26"><g transform="translate(0.5,0.5)"><rect x="680" y="100" width="120" height="60" fill="url(#drawio-svg-uxGPJOaNdQ2iG5synWiG-gradient-light-dark_ffcd28_6a3f00_-1-light-dark_ffa500_a05300_-1-s-0)" style="fill: url(&quot;#drawio-svg-uxGPJOaNdQ2iG5synWiG-gradient-light-dark_ffcd28_6a3f00_-1-light-dark_ffa500_a05300_-1-s-0&quot;); stroke: light-dark(rgb(215, 155, 0), rgb(153, 101, 0));" stroke="#d79b00" pointer-events="all"/></g><g><g fill="#FFFFFF" style="fill: rgb(255, 255, 255);" font-family="Helvetica" text-anchor="middle" font-size="12px"><text x="740" y="128">NEMA17 Motor </text><text x="740" y="142">(X-Axis)</text></g></g></g><g data-cell-id="_v_qky7yrBhfWeUDWaAC-27"><g transform="translate(0.5,0.5)"><rect x="680" y="190" width="120" height="60" fill="url(#drawio-svg-uxGPJOaNdQ2iG5synWiG-gradient-light-dark_ffcd28_6a3f00_-1-light-dark_ffa500_a05300_-1-s-0)" style="fill: url(&quot;#drawio-svg-uxGPJOaNdQ2iG5synWiG-gradient-light-dark_ffcd28_6a3f00_-1-light-dark_ffa500_a05300_-1-s-0&quot;); stroke: light-dark(rgb(215, 155, 0), rgb(153, 101, 0));" stroke="#d79b00" pointer-events="all"/></g><g><g fill="#FFFFFF" style="fill: rgb(255, 255, 255);" font-family="Helvetica" text-anchor="middle" font-size="12px"><text x="740" y="218">NEMA17 Motor </text><text x="740" y="232">(Y-Axis)</text></g></g></g><g data-cell-id="_v_qky7yrBhfWeUDWaAC-28"><g transform="translate(0.5,0.5)"><path d="M 646.37 130 L 673.63 130" fill="none" stroke="#000000" style="stroke: light-dark(rgb(0, 0, 0), rgb(255, 255, 255));" stroke-miterlimit="10" pointer-events="stroke"/><path d="M 641.12 130 L 648.12 126.5 L 646.37 130 L 648.12 133.5 Z" fill="#000000" style="fill: light-dark(rgb(0, 0, 0), rgb(255, 255, 255)); stroke: light-dark(rgb(0, 0, 0), rgb(255, 255, 255));" stroke="#000000" stroke-miterlimit="10" pointer-events="all"/><path d="M 678.88 130 L 671.88 133.5 L 673.63 130 L 671.88 126.5 Z" fill="#000000" style="fill: light-dark(rgb(0, 0, 0), rgb(255, 255, 255)); stroke: light-dark(rgb(0, 0, 0), rgb(255, 255, 255));" stroke="#000000" stroke-miterlimit="10" pointer-events="all"/></g></g><g data-cell-id="_v_qky7yrBhfWeUDWaAC-31"><g transform="translate(0.5,0.5)"><path d="M 646.37 219.66 L 673.63 219.66" fill="none" stroke="#000000" style="stroke: light-dark(rgb(0, 0, 0), rgb(255, 255, 255));" stroke-miterlimit="10" pointer-events="stroke"/><path d="M 641.12 219.66 L 648.12 216.16 L 646.37 219.66 L 648.12 223.16 Z" fill="#000000" style="fill: light-dark(rgb(0, 0, 0), rgb(255, 255, 255)); stroke: light-dark(rgb(0, 0, 0), rgb(255, 255, 255));" stroke="#000000" stroke-miterlimit="10" pointer-events="all"/><path d="M 678.88 219.66 L 671.88 223.16 L 673.63 219.66 L 671.88 216.16 Z" fill="#000000" style="fill: light-dark(rgb(0, 0, 0), rgb(255, 255, 255)); stroke: light-dark(rgb(0, 0, 0), rgb(255, 255, 255));" stroke="#000000" stroke-miterlimit="10" pointer-events="all"/></g></g><g data-cell-id="VSmqybrXqDOMMLJZagwB-2"><g transform="translate(0.5,0.5)"><path d="M 490 30 L 490 60 Q 490 70 480 70 L 362.5 70 Q 352.5 70 352.5 80 L 352.5 94.9" fill="none" stroke="#ff0000" style="stroke: rgb(255, 0, 0);" stroke-width="3" stroke-miterlimit="10" pointer-events="stroke"/><path d="M 352.5 101.65 L 348 92.65 L 352.5 94.9 L 357 92.65 Z" fill="#ff0000" style="fill: rgb(255, 0, 0); stroke: rgb(255, 0, 0);" stroke="#ff0000" stroke-width="3" stroke-miterlimit="10" pointer-events="all"/></g></g><g data-cell-id="VSmqybrXqDOMMLJZagwB-1"><g transform="translate(0.5,0.5)"><rect x="298.75" y="105" width="107.5" height="50" fill="#e3c800" style="fill: light-dark(rgb(227, 200, 0), rgb(103, 80, 0)); stroke: light-dark(rgb(176, 149, 0), rgb(141, 118, 0));" stroke="#b09500" pointer-events="all"/></g><g><g fill="#FFFFFF" style="fill: rgb(255, 255, 255);" font-family="Helvetica" text-anchor="middle" font-size="12px"><text x="352.5" y="128">12/24V to 5V 5A</text><text x="352.5" y="142">Step-down Module</text></g></g></g><g data-cell-id="VSmqybrXqDOMMLJZagwB-3"><g transform="translate(0.5,0.5)"><path d="M 352.5 155 L 352.5 183.63" fill="none" stroke="#000000" style="stroke: light-dark(rgb(0, 0, 0), rgb(255, 255, 255));" stroke-miterlimit="10" pointer-events="stroke"/><path d="M 352.5 188.88 L 349 181.88 L 352.5 183.63 L 356 181.88 Z" fill="#000000" style="fill: light-dark(rgb(0, 0, 0), rgb(255, 255, 255)); stroke: light-dark(rgb(0, 0, 0), rgb(255, 255, 255));" stroke="#000000" stroke-miterlimit="10" pointer-events="all"/></g><g><g fill="#000000" style="fill: light-dark(rgb(0, 0, 0), rgb(255, 255, 255));" font-family="Helvetica" text-anchor="middle" font-size="11px"><rect fill="#ffffff" stroke="none" x="346" y="167" width="15" height="14" style="fill: light-dark(#ffffff, var(--ge-dark-color, #121212));" stroke-width="0"/><text x="352.5" y="177.5">5V</text></g></g></g><g data-cell-id="vutKxbaoUYuDo1SPdmVH-9"><g transform="translate(0.5,0.5)"><path d="M 380 30 L 490 30" fill="none" stroke="#ff0000" style="stroke: rgb(255, 0, 0);" stroke-width="3" stroke-miterlimit="10" pointer-events="stroke"/></g><g data-cell-id="vutKxbaoUYuDo1SPdmVH-10"><g><g fill="#000000" style="fill: light-dark(rgb(0, 0, 0), rgb(255, 255, 255));" font-family="Helvetica" text-anchor="middle" font-size="13px"><rect fill="#ffffff" stroke="none" x="424" y="23" width="25" height="17" style="fill: light-dark(#ffffff, var(--ge-dark-color, #121212));" stroke-width="0"/><text x="435.5" y="36">12V</text></g></g></g></g><g data-cell-id="vutKxbaoUYuDo1SPdmVH-12"><g transform="translate(0.5,0.5)"><path d="M 490 30 L 490 40 Q 490 50 500 50 L 570 50 Q 580 50 580 60 L 580 89.9" fill="none" stroke="#ff0000" style="stroke: rgb(255, 0, 0);" stroke-width="3" stroke-miterlimit="10" pointer-events="stroke"/><path d="M 580 96.65 L 575.5 87.65 L 580 89.9 L 584.5 87.65 Z" fill="#ff0000" style="fill: rgb(255, 0, 0); stroke: rgb(255, 0, 0);" stroke="#ff0000" stroke-width="3" stroke-miterlimit="10" pointer-events="all"/></g></g></g></g></g></svg>