<?xml version="1.0" standalone="no"?>
<!DOCTYPE svg PUBLIC "-//W3C//DTD SVG 20010904//EN"
 "http://www.w3.org/TR/2001/REC-SVG-20010904/DTD/svg10.dtd">
<svg version="1.0" xmlns="http://www.w3.org/2000/svg"
 width="648.000000pt" height="454.000000pt" viewBox="0 0 648.000000 454.000000"
 preserveAspectRatio="xMidYMid meet">

<g transform="translate(0.000000,454.000000) scale(0.100000,-0.100000)"
fill="#000000" stroke="none">
<path d="M730 4425 c0 -16 6 -25 15 -25 8 0 15 7 15 15 0 8 -6 15 -12 15 -9 0
-8 4 2 10 13 8 12 10 -2 10 -13 0 -18 -8 -18 -25z"/>
<path d="M838 4394 c19 -13 21 -18 10 -32 -9 -12 -6 -11 10 2 23 20 30 32 12
21 -5 -3 -10 -1 -10 4 0 14 13 14 28 -1 9 -9 12 -8 12 5 0 13 -9 17 -42 17
-42 0 -42 0 -20 -16z"/>
<path d="M814 4368 l-19 -23 23 19 c21 18 27 26 19 26 -2 0 -12 -10 -23 -22z"/>
<path d="M701 4363 c-1 -23 -1 -23 -186 -23 l-185 0 0 -309 c0 -307 0 -310
-21 -313 -20 -3 -20 -3 3 -26 l24 -22 24 25 23 25 -21 0 c-21 0 -22 4 -22 100
l0 100 179 0 180 0 3 -26 c3 -24 4 -24 23 -10 16 13 17 15 3 10 -12 -4 -18 -1
-18 10 0 11 9 16 26 16 14 0 22 -4 19 -10 -3 -5 0 -7 9 -4 9 4 16 -2 19 -18 4
-21 4 -20 6 5 l1 27 160 0 c153 0 160 -1 160 -20 0 -19 7 -20 90 -20 83 0 90
1 90 20 0 20 7 20 570 20 l570 0 0 -760 0 -760 -35 0 -35 0 0 555 0 555 -560
0 c-553 0 -560 0 -560 20 0 18 -7 20 -85 20 -78 0 -85 -2 -85 -20 0 -19 -7
-20 -160 -20 -159 0 -160 0 -161 23 -1 20 -1 21 -7 2 -5 -13 -18 -21 -39 -23
-26 -3 -32 1 -36 20 l-4 23 -2 -22 c-1 -23 -1 -23 -186 -23 l-185 0 0 -305 0
-305 -27 0 -27 0 30 -31 29 -30 24 28 24 28 -21 3 c-21 3 -22 9 -22 98 l0 94
179 0 c178 0 180 0 184 -22 l4 -23 2 23 c1 20 6 23 34 20 21 -2 34 -10 39 -23
6 -19 6 -18 7 3 1 22 2 22 161 22 136 0 160 -2 160 -15 0 -12 16 -15 85 -15
69 0 85 3 85 15 0 13 63 15 510 15 l510 0 0 -345 0 -345 -385 0 -385 0 0 85 0
85 -125 0 c-104 0 -125 2 -125 15 0 12 -16 15 -85 15 -69 0 -85 -3 -85 -15 0
-13 -24 -15 -160 -15 -159 0 -160 0 -161 23 -1 20 -1 21 -7 2 -5 -13 -18 -21
-39 -23 -26 -3 -32 1 -36 20 l-4 23 -2 -22 c-1 -23 -1 -23 -186 -23 l-185 0 0
-310 0 -310 -27 0 -28 -1 29 -25 28 -25 25 23 c24 22 24 23 4 26 -20 3 -21 10
-21 98 l0 94 179 0 c178 0 180 0 184 -22 l4 -23 2 23 c1 20 6 23 34 20 21 -2
34 -10 39 -23 6 -19 6 -18 7 3 1 22 2 22 161 22 136 0 160 -2 160 -15 0 -12
16 -15 85 -15 69 0 85 3 85 15 0 13 21 15 125 15 l125 0 0 45 0 45 385 0 385
0 0 -210 0 -210 85 0 85 0 0 -80 0 -80 350 0 350 0 0 -35 c0 -19 -4 -35 -10
-35 -5 0 -10 7 -10 15 0 8 -6 15 -12 15 -9 0 -8 4 2 10 13 8 12 10 -2 10 -13
0 -18 -8 -18 -26 0 -14 -4 -23 -10 -19 -5 3 -10 16 -10 27 0 12 -3 18 -7 14
-4 -4 -8 -15 -8 -24 0 -16 -73 -17 -1027 -20 l-1028 -2 0 -65 c0 -51 -3 -65
-15 -65 -8 0 -15 9 -15 20 0 19 -7 20 -90 20 -83 0 -90 -1 -90 -20 0 -13 -7
-20 -20 -20 -19 0 -20 -7 -20 -150 0 -143 1 -150 20 -150 11 0 20 -7 20 -15 0
-12 17 -15 90 -15 73 0 90 3 90 15 0 12 15 15 75 15 l75 0 0 -241 c0 -188 -3
-240 -12 -236 -7 2 -12 14 -10 25 2 16 -2 22 -15 22 -15 0 -15 -2 -4 -9 12 -8
12 -12 2 -25 -8 -9 -17 -16 -22 -16 -5 0 -9 56 -9 125 l0 125 -125 0 -125 0 0
40 0 40 -125 0 -125 0 0 40 c0 38 -1 40 -31 40 -28 0 -30 2 -18 17 13 15 12
15 -8 5 -46 -25 -39 -36 20 -32 25 1 27 -1 27 -39 l0 -41 126 0 c96 0 125 -3
122 -12 -3 -7 -14 -14 -26 -16 -28 -4 -29 -23 -1 -19 12 1 24 -4 26 -10 3 -9
-8 -13 -36 -13 l-41 0 0 -255 0 -255 40 0 c22 0 40 -4 40 -10 0 -9 -21 -15
-42 -11 -5 0 -8 -6 -8 -15 0 -14 3 -14 16 -3 25 21 34 -6 34 -108 0 -89 -1
-93 -22 -93 l-21 0 23 -25 24 -25 24 22 c23 23 23 23 3 26 -20 3 -21 9 -21
123 l0 119 125 0 125 0 0 125 0 125 40 0 40 0 0 250 0 250 -80 0 c-73 0 -80 2
-80 20 0 19 -7 20 -90 20 -83 0 -90 -1 -90 -20 0 -11 -7 -20 -15 -20 -13 0
-15 22 -15 140 0 118 2 140 15 140 8 0 15 -7 15 -15 0 -12 17 -15 90 -15 73 0
90 3 90 15 0 8 9 15 20 15 18 0 20 7 20 65 l0 65 1065 0 1065 0 0 -41 c0 -39
-1 -40 -32 -36 -27 3 -34 9 -39 33 -7 29 -11 26 -13 -11 -1 -20 -9 -20 -453
-23 l-453 -2 0 -40 0 -40 -105 0 c-98 0 -105 -1 -105 -20 0 -11 -7 -20 -15
-20 -8 0 -15 7 -15 15 0 12 -16 15 -85 15 -69 0 -85 -3 -85 -15 0 -8 -9 -15
-20 -15 -19 0 -20 -7 -20 -150 0 -143 1 -150 20 -150 11 0 20 -7 20 -15 0 -12
16 -15 85 -15 69 0 85 3 85 15 0 12 16 15 80 15 l80 0 0 -221 c0 -172 -3 -220
-12 -216 -7 2 -12 14 -10 25 2 16 -2 22 -15 22 -15 0 -16 -2 -3 -10 13 -8 12
-11 -5 -24 -20 -14 -20 -12 -23 105 l-3 119 -124 0 -125 0 0 45 0 45 -125 0
-125 0 0 39 c0 37 -2 39 -35 43 -59 7 -66 -9 -15 -37 13 -8 13 -7 1 8 -12 15
-11 17 13 17 24 0 26 -4 26 -40 l0 -40 126 0 c96 0 125 -3 122 -12 -3 -7 -14
-14 -26 -16 -23 -3 -29 -17 -13 -26 5 -4 12 0 14 6 4 10 8 9 16 -2 18 -25 13
-30 -29 -30 l-40 0 0 -250 0 -250 40 0 c22 0 40 -4 40 -10 0 -5 -11 -10 -25
-10 -17 0 -25 -6 -25 -17 0 -13 3 -14 12 -5 15 15 32 16 23 2 -3 -5 -1 -10 4
-10 6 0 11 -21 11 -49 0 -43 -3 -50 -22 -53 l-21 -3 24 -29 25 -29 23 29 23
29 -21 3 c-19 3 -21 10 -21 78 l0 74 125 0 125 0 0 125 0 125 40 0 40 0 0 230
0 230 -85 0 c-69 0 -85 3 -85 15 0 12 -16 15 -85 15 -69 0 -85 -3 -85 -15 0
-8 -7 -15 -15 -15 -13 0 -15 22 -15 140 0 118 2 140 15 140 8 0 15 -7 15 -15
0 -12 16 -15 85 -15 69 0 85 3 85 15 0 8 9 15 20 15 13 0 20 7 20 20 0 19 7
20 100 20 l100 0 0 -475 0 -475 250 0 c216 0 250 -2 250 -15 0 -12 16 -15 85
-15 69 0 85 3 85 15 0 13 24 15 159 15 158 0 160 0 164 -22 l4 -23 2 23 c1 20
6 23 34 20 21 -2 34 -10 39 -23 6 -19 6 -18 7 3 1 22 1 22 181 22 l180 0 0
-74 c0 -68 -2 -75 -21 -78 -20 -3 -20 -4 4 -26 l25 -23 28 25 29 25 -27 1 -28
0 0 185 0 185 -185 0 c-185 0 -185 0 -186 23 -1 20 -1 21 -7 2 -5 -13 -18 -21
-39 -23 -26 -3 -32 1 -36 20 l-4 23 -2 -22 c-1 -23 -2 -23 -161 -23 -136 0
-160 2 -160 15 0 12 -16 15 -85 15 -69 0 -85 -3 -85 -15 0 -12 -18 -15 -99
-15 l-100 0 -1 325 -1 325 346 0 345 0 0 -145 0 -145 310 0 c303 0 310 0 310
-20 0 -15 -7 -20 -25 -20 -19 0 -25 -5 -25 -22 1 -21 2 -21 11 -6 12 22 33 24
25 2 -3 -8 -2 -12 3 -9 5 3 12 -7 14 -22 2 -16 5 0 6 35 l1 62 310 0 310 0 0
145 0 145 63 1 c34 1 54 3 45 6 -10 2 -18 11 -18 19 0 8 -5 14 -11 14 -5 0 -8
-4 -5 -9 3 -5 -1 -11 -9 -15 -9 -3 -15 0 -15 9 0 8 -5 15 -11 15 -5 0 -8 -4
-5 -9 5 -7 -15 -21 -30 -21 -2 0 -4 34 -4 75 l0 75 63 1 c34 1 55 3 46 6 -9 2
-20 18 -23 36 -6 29 -8 30 -18 13 -8 -15 -8 -21 0 -24 7 -2 12 -8 12 -13 0
-13 -34 -11 -48 3 -9 9 -12 9 -12 0 0 -7 -4 -12 -10 -12 -5 0 -10 18 -10 40
l0 40 63 1 c46 0 56 3 40 9 -15 6 -20 15 -16 29 4 15 1 21 -11 21 -9 0 -16 -5
-16 -11 0 -5 5 -7 10 -4 16 10 12 -11 -5 -25 -12 -10 -15 -10 -15 4 0 9 -5 16
-11 16 -5 0 -8 -4 -5 -9 5 -7 -15 -21 -30 -21 -2 0 -4 16 -4 35 l0 35 63 1
c47 0 57 2 40 9 -14 6 -23 18 -23 30 0 12 -4 19 -10 15 -5 -3 -7 -12 -4 -19 3
-8 1 -17 -5 -21 -6 -3 -11 1 -11 9 0 9 -5 16 -11 16 -5 0 -8 -4 -5 -9 5 -7
-15 -21 -30 -21 -2 0 -4 34 -4 75 l0 75 63 1 c34 1 53 4 42 6 -11 3 -25 9 -32
14 -7 7 -13 5 -15 -3 -4 -10 -8 -10 -21 1 -11 9 -17 10 -17 2 0 -6 -4 -11 -10
-11 -6 0 -10 33 -10 80 l0 80 63 1 c34 1 54 3 45 6 -11 3 -18 14 -18 29 0 15
-6 24 -15 24 -8 0 -15 -8 -15 -17 0 -15 2 -16 10 -3 5 8 10 10 10 4 0 -14 -30
-40 -31 -28 -1 5 -1 17 0 27 2 10 -5 17 -16 17 -15 0 -15 -2 -4 -9 12 -8 12
-12 2 -25 -21 -25 -31 -19 -31 19 l0 35 63 1 c34 1 52 4 40 6 -13 2 -23 10
-23 16 0 8 -3 7 -9 -2 -12 -19 -33 -3 -26 20 5 14 2 19 -12 18 -10 0 -13 -3
-6 -6 9 -3 10 -10 3 -24 -16 -30 -30 -22 -30 16 l0 35 305 0 305 0 0 -60 0
-60 140 0 c118 0 140 -2 140 -15 0 -12 17 -15 90 -15 73 0 90 3 90 15 0 13 24
15 159 15 158 0 160 0 164 -22 l4 -23 2 23 c1 20 6 23 34 20 21 -2 34 -10 39
-23 6 -19 6 -18 7 3 1 22 1 22 186 22 l185 0 0 309 c0 307 0 310 21 313 20 3
20 3 -3 26 l-24 22 -24 -25 -23 -25 21 0 c21 0 22 -4 22 -100 l0 -100 -180 0
c-180 0 -180 0 -181 23 -1 20 -1 21 -7 2 -5 -13 -18 -21 -39 -23 -26 -3 -32 1
-36 20 l-4 23 -2 -22 c-1 -23 -2 -23 -161 -23 -136 0 -160 2 -160 15 0 12 -17
15 -90 15 -73 0 -90 -3 -90 -15 0 -13 -22 -15 -140 -15 l-140 0 0 -60 0 -60
-260 0 c-251 0 -260 1 -260 19 0 26 -16 35 -24 14 -4 -9 -1 -20 6 -25 9 -6 7
-8 -7 -6 -14 3 -19 10 -17 26 2 16 -2 22 -15 22 -15 0 -15 -2 -4 -9 12 -8 12
-12 2 -25 -21 -25 -31 -19 -31 19 l0 35 63 1 c48 0 57 2 39 10 -18 7 -22 14
-17 29 5 15 2 20 -12 19 -10 0 -13 -3 -6 -6 10 -3 10 -10 2 -24 -12 -24 -32
-14 -24 12 5 14 2 19 -12 18 -10 0 -13 -3 -6 -6 9 -3 10 -10 3 -24 -16 -30
-30 -22 -30 16 l0 35 224 0 224 0 4 50 c2 29 -1 50 -7 50 -6 0 -9 -19 -7 -45
l4 -45 -178 2 -179 3 -6 30 c-7 29 -11 27 -13 -7 -1 -25 -21 -22 -21 4 0 12
-6 23 -12 25 -7 3 -13 0 -13 -7 0 -6 4 -8 10 -5 13 8 13 -1 0 -26 -6 -10 -15
-19 -20 -19 -6 0 -10 132 -10 350 l0 350 -230 0 -230 0 -1 68 c-1 37 -3 59 -6
50 -2 -10 -11 -18 -19 -18 -8 0 -14 -5 -14 -11 0 -5 -4 -7 -10 -4 -5 3 -10 1
-10 -4 0 -6 5 -11 10 -11 6 0 10 -5 10 -11 0 -5 -4 -7 -10 -4 -6 3 -10 -4 -10
-17 0 -18 2 -20 10 -8 5 8 10 11 10 5 0 -5 5 -3 10 5 6 9 10 10 10 3 0 -6 3
-18 6 -27 5 -14 -5 -16 -70 -16 l-76 0 -1 68 c-1 37 -4 58 -6 46 -3 -16 -10
-20 -29 -16 -17 3 -24 0 -24 -11 0 -9 5 -19 12 -23 8 -5 6 -11 -6 -19 -15 -12
-15 -13 1 -19 10 -4 19 -2 21 3 6 19 22 12 22 -9 0 -18 -7 -20 -80 -20 l-80 0
-1 68 c-1 37 -4 57 -6 46 -3 -15 -10 -20 -22 -17 -25 6 -36 -14 -19 -34 9 -12
9 -15 1 -9 -9 5 -13 0 -13 -16 0 -18 2 -20 10 -8 5 8 10 11 10 5 0 -5 5 -3 10
5 6 9 10 10 10 3 0 -6 3 -18 6 -27 5 -14 -18 -16 -220 -16 l-226 0 0 -185 c0
-144 -3 -185 -13 -185 -7 0 -13 10 -12 23 0 12 -4 22 -10 22 -5 0 -10 -10 -10
-22 1 -25 -14 -30 -33 -11 -8 8 -12 9 -12 1 0 -6 -8 -14 -17 -16 -10 -3 10 -5
45 -6 l62 -1 0 -35 c0 -33 -2 -35 -29 -33 -40 3 -50 35 -12 41 18 3 15 4 -13
6 -31 1 -37 -2 -28 -11 15 -15 16 -32 2 -23 -5 3 -10 2 -10 -4 0 -5 -8 -12
-17 -14 -10 -3 10 -5 45 -6 l62 -1 0 -76 c0 -72 -1 -75 -22 -72 -14 2 -25 13
-29 28 -7 24 -10 22 -13 -10 0 -8 -14 -18 -31 -21 -22 -5 -13 -7 33 -8 l62 -1
0 -41 c0 -36 -2 -40 -22 -37 -17 2 -23 10 -23 27 0 13 -6 26 -12 28 -7 3 -13
0 -13 -7 0 -6 5 -8 10 -5 14 9 12 -8 -3 -27 -6 -9 -23 -19 -37 -21 -14 -2 3
-5 38 -6 l62 -1 0 -35 c0 -28 -4 -35 -20 -35 -13 0 -20 7 -20 19 0 11 -5 23
-12 27 -6 4 -8 3 -4 -4 3 -5 0 -13 -6 -15 -10 -4 -10 -6 0 -6 6 -1 12 -5 12
-11 0 -6 -52 -10 -135 -10 l-135 0 0 780 0 780 385 0 385 0 0 -40 0 -40 -211
0 c-196 0 -210 1 -198 17 13 15 12 15 -8 5 -27 -15 -38 -32 -21 -32 7 -1 109
0 226 0 l212 1 0 -36 c0 -19 -4 -35 -10 -35 -5 0 -10 11 -10 25 0 16 -6 25
-16 25 -13 0 -14 -3 -4 -15 25 -30 0 -35 -160 -35 -153 0 -159 1 -162 21 -3
20 -3 20 -26 -3 l-22 -24 25 -24 25 -23 0 21 c0 22 2 22 180 22 153 0 180 -2
180 -15 0 -13 28 -15 195 -15 l195 0 0 86 c0 71 4 90 20 111 41 52 13 91 -42
60 -25 -14 -59 -17 -199 -17 -147 0 -169 -2 -169 -16 0 -24 -23 -11 -31 17 -7
23 -10 21 -13 -11 -1 -13 -50 -15 -368 -18 l-368 -2 0 -785 0 -785 -75 0 -75
0 0 970 0 970 -680 0 c-598 0 -680 2 -680 15 0 12 -17 15 -90 15 -73 0 -90 -3
-90 -15 0 -13 -24 -15 -160 -15 -159 0 -160 0 -161 23 -1 20 -1 21 -7 2 -5
-13 -18 -21 -39 -23 -26 -3 -32 1 -36 20 l-4 23 -2 -22z m579 -28 c0 -25 -1
-25 -80 -25 -79 0 -80 0 -80 25 0 25 1 25 80 25 79 0 80 0 80 -25z m-579 -27
l2 -23 4 23 c3 14 12 22 24 22 12 0 17 -4 13 -11 -4 -8 0 -8 15 0 18 10 21 9
22 -11 l2 -23 4 23 c4 22 6 22 164 22 135 0 159 -2 159 -15 0 -12 17 -15 90
-15 73 0 90 3 90 15 0 13 82 15 675 15 l675 0 0 -965 0 -965 -100 0 -100 0 0
765 0 765 -575 0 c-504 0 -575 2 -575 15 0 12 -17 15 -90 15 -73 0 -90 -3 -90
-15 0 -13 -24 -15 -160 -15 -159 0 -160 0 -161 23 -1 20 -1 21 -7 2 -5 -13
-18 -21 -39 -23 -28 -3 -33 0 -34 20 l-2 23 -4 -22 c-4 -23 -6 -23 -184 -23
l-179 0 0 95 0 95 180 0 c180 0 180 0 181 -22 l2 -23 4 23 c4 19 10 23 36 20
21 -2 34 -10 39 -23 6 -19 6 -18 7 3 1 22 2 22 161 22 136 0 160 -2 160 -15 0
-12 17 -15 90 -15 73 0 90 3 90 15 0 8 10 16 23 16 l22 2 -22 4 c-15 3 -23 12
-23 24 0 17 -8 19 -90 19 -83 0 -90 -1 -90 -20 0 -19 -7 -20 -160 -20 -159 0
-160 0 -161 23 -1 20 -1 21 -7 2 -5 -13 -18 -21 -39 -23 -28 -3 -33 0 -34 20
l-2 23 -4 -22 c-4 -23 -6 -23 -184 -23 l-179 0 0 100 0 100 180 0 c180 0 180
0 181 -22z m579 -178 l0 -30 -80 0 -80 0 0 30 0 30 80 0 80 0 0 -30z m2716
-125 c7 -16 -24 -61 -90 -132 -21 -24 -35 -43 -31 -43 4 0 25 19 46 42 l39 43
0 -73 0 -72 -185 0 -185 0 1 113 c1 61 4 100 6 84 4 -22 7 -25 18 -15 52 47
60 48 73 11 6 -16 11 -22 11 -14 1 11 4 11 16 1 13 -11 15 -8 15 14 l0 26 92
0 92 0 -34 -25 c-19 -14 -42 -25 -52 -25 -20 0 -38 -29 -38 -63 0 -26 35 -65
48 -53 4 4 -3 16 -15 26 -25 20 -30 54 -11 66 8 5 9 1 4 -12 -4 -11 10 -3 36
22 57 54 110 94 126 94 7 0 15 -7 18 -15z m-361 -25 c-3 -5 -12 -10 -18 -10
-7 0 -6 4 3 10 19 12 23 12 15 0z m85 0 c0 -5 -2 -10 -4 -10 -3 0 -8 5 -11 10
-3 6 -1 10 4 10 6 0 11 -4 11 -10z m-2440 -60 l0 -30 -80 0 -80 0 0 30 0 30
80 0 80 0 0 -30z m1930 -126 c0 -22 -2 -25 -15 -14 -12 10 -13 16 -4 26 16 20
19 18 19 -12z m-2855 -94 c-3 -5 -12 -10 -20 -10 -8 0 -17 5 -20 10 -4 6 5 10
20 10 15 0 24 -4 20 -10z m875 -190 l0 -30 -75 0 -75 0 0 30 0 30 75 0 75 0 0
-30z m-569 -32 l2 -23 4 23 c4 19 10 23 36 20 21 -2 34 -10 39 -23 6 -19 6
-18 7 3 1 22 2 22 161 22 136 0 160 -2 160 -15 0 -12 16 -15 85 -15 69 0 85 3
85 15 0 13 68 15 555 15 l555 0 0 -550 c0 -482 -2 -550 -15 -550 -13 0 -15 57
-15 455 l0 455 -540 0 c-473 0 -540 2 -540 15 0 12 -16 15 -85 15 -69 0 -85
-3 -85 -15 0 -13 -24 -15 -160 -15 -159 0 -160 0 -161 23 0 15 -2 17 -6 7 -8
-20 -24 -30 -50 -30 -17 0 -23 6 -24 23 l-2 22 -4 -22 c-4 -23 -6 -23 -184
-23 l-179 0 0 95 0 95 180 0 c180 0 180 0 181 -22z m569 -178 l0 -30 -75 0
-75 0 0 30 0 30 75 0 75 0 0 -30z m-569 -22 l2 -23 4 23 c4 19 10 23 36 20 21
-2 34 -10 39 -23 6 -19 6 -18 7 3 1 22 2 22 161 22 153 0 160 -1 160 -20 0
-18 7 -20 85 -20 78 0 85 2 85 20 0 20 7 20 535 20 l535 0 0 -450 c0 -443 0
-450 -20 -450 -20 0 -20 7 -20 350 l0 350 -515 0 c-451 0 -515 2 -515 15 0 12
-16 15 -85 15 -69 0 -85 -3 -85 -15 0 -13 -24 -15 -160 -15 -159 0 -160 0
-161 23 -1 20 -1 21 -7 2 -5 -13 -18 -21 -39 -23 -28 -3 -33 0 -34 20 l-2 23
-4 -22 c-4 -23 -6 -23 -184 -23 l-179 0 0 100 0 100 180 0 c180 0 180 0 181
-22z m3076 -23 c8 -9 13 -19 10 -22 -6 -5 -37 21 -37 31 0 10 11 6 27 -9z
m633 -1150 l0 -1065 -615 0 -615 0 0 1065 0 1064 615 1 615 0 0 -1065z m-3140
990 c0 -24 -2 -25 -75 -25 -73 0 -75 1 -75 25 0 24 2 25 75 25 73 0 75 -1 75
-25z m-921 -222 c-7 -10 -14 -19 -15 -21 0 -1 -9 7 -19 18 -18 20 -17 20 15
20 29 0 31 -2 19 -17z m5931 -208 c11 -13 8 -15 -15 -15 -23 0 -26 2 -15 15 7
8 14 15 15 15 1 0 8 -7 15 -15z m-5010 -105 l0 -30 -75 0 -75 0 0 30 0 30 75
0 75 0 0 -30z m-568 -26 c3 -24 4 -24 23 -10 16 13 17 15 3 10 -12 -4 -18 -1
-18 10 0 11 9 16 26 16 14 0 22 -4 19 -10 -3 -5 0 -7 9 -4 9 4 16 -2 19 -18 4
-21 4 -20 6 5 l1 27 160 0 c153 0 160 -1 160 -20 0 -18 7 -20 85 -20 78 0 85
2 85 20 0 19 7 20 120 20 l120 0 0 -85 0 -85 390 0 390 0 0 -35 0 -35 -385 0
c-378 0 -385 0 -385 20 0 19 -7 20 -125 20 -104 0 -125 2 -125 15 0 12 -16 15
-85 15 -69 0 -85 -3 -85 -15 0 -13 -24 -15 -160 -15 -159 0 -160 0 -161 23 -1
20 -1 21 -7 2 -5 -13 -18 -21 -39 -23 -28 -3 -33 0 -34 20 l-2 23 -4 -22 c-4
-23 -6 -23 -184 -23 l-179 0 0 100 0 100 179 0 180 0 3 -26z m4778 -99 c0 -25
-1 -25 -80 -25 -79 0 -80 0 -80 25 0 25 1 25 80 25 79 0 80 0 80 -25z m-170
-20 c0 -12 17 -15 90 -15 73 0 90 3 90 15 0 13 24 15 160 15 159 0 160 0 161
-22 l2 -23 4 23 c4 19 10 23 36 20 21 -2 34 -10 39 -23 6 -19 6 -18 7 3 1 22
1 22 181 22 l180 0 0 -95 0 -95 -180 0 c-180 0 -180 0 -181 23 l-2 22 -4 -22
c-4 -20 -7 -21 -25 -12 -15 8 -19 8 -14 0 4 -7 -1 -11 -13 -11 -15 0 -21 7
-22 23 l-2 22 -4 -22 c-4 -23 -6 -23 -164 -23 -135 0 -159 2 -159 15 0 12 -17
15 -90 15 -73 0 -90 -3 -90 -15 0 -13 -51 -15 -400 -15 -349 0 -400 2 -400 15
0 8 -6 15 -12 15 -9 0 -8 4 2 10 13 8 12 10 -2 10 -10 0 -18 -7 -18 -15 0 -8
6 -15 13 -15 8 0 7 -3 -3 -9 -19 -13 -29 -5 -23 19 4 14 0 20 -11 20 -9 0 -16
-5 -16 -11 0 -5 5 -7 10 -4 14 9 13 -8 -2 -23 -20 -20 -28 -14 -28 23 l0 35
310 0 310 0 0 60 0 60 135 0 c113 0 135 -2 135 -15z m-2960 -60 c0 -28 -4 -35
-20 -35 -16 0 -20 7 -20 35 0 28 4 35 20 35 16 0 20 -7 20 -35z m40 0 c0 -24
-5 -35 -15 -35 -10 0 -15 11 -15 35 0 24 5 35 15 35 10 0 15 -11 15 -35z m80
0 c0 -33 -2 -35 -35 -35 -33 0 -35 2 -35 35 0 33 2 35 35 35 33 0 35 -2 35
-35z m210 0 l0 -35 -100 0 -100 0 0 35 0 35 100 0 100 0 0 -35z m160 0 l0 -35
-75 0 -75 0 0 35 0 35 75 0 75 0 0 -35z m330 0 c0 -28 -4 -35 -20 -35 -11 0
-20 7 -20 15 0 8 -6 15 -12 15 -9 0 -8 4 2 10 13 8 12 10 -2 10 -10 0 -18 -7
-18 -15 0 -8 6 -15 13 -15 8 0 7 -4 -3 -10 -8 -5 -70 -10 -137 -10 l-123 0 0
35 0 35 160 0 160 0 0 -35z m-1900 0 c0 -24 -2 -25 -75 -25 -73 0 -75 1 -75
25 0 24 2 25 75 25 73 0 75 -1 75 -25z m-570 -25 c0 -14 5 -18 17 -13 11 4 12
8 5 11 -25 8 -10 23 21 20 21 -2 34 -10 39 -23 6 -19 6 -18 7 3 1 22 2 22 161
22 136 0 160 -2 160 -15 0 -12 16 -15 85 -15 69 0 85 3 85 15 0 13 20 15 120
15 113 0 120 -1 120 -20 0 -20 7 -20 390 -20 l390 0 0 -35 0 -35 -390 0 -390
0 0 -45 0 -45 -120 0 c-113 0 -120 1 -120 20 0 18 -7 20 -85 20 -78 0 -85 -2
-85 -20 0 -19 -7 -20 -160 -20 -159 0 -160 0 -161 23 -1 20 -1 21 -7 2 -5 -13
-18 -21 -39 -23 -28 -3 -33 0 -34 20 l-2 23 -4 -22 c-4 -23 -6 -23 -184 -23
l-179 0 0 100 0 100 180 0 c172 0 180 -1 180 -20z m1650 -55 c0 -28 -4 -35
-20 -35 -16 0 -20 7 -20 35 0 28 4 35 20 35 16 0 20 -7 20 -35z m40 0 c0 -24
-5 -35 -15 -35 -10 0 -15 11 -15 35 0 24 5 35 15 35 10 0 15 -11 15 -35z m80
0 c0 -33 -2 -35 -35 -35 -33 0 -35 2 -35 35 0 33 2 35 35 35 33 0 35 -2 35
-35z m210 0 l0 -35 -100 0 -100 0 0 35 0 35 100 0 100 0 0 -35z m160 0 l0 -35
-75 0 -75 0 0 35 0 35 75 0 75 0 0 -35z m330 0 c0 -28 -4 -35 -20 -35 -11 0
-20 7 -20 15 0 8 -6 15 -12 15 -9 0 -8 4 2 10 13 8 12 10 -2 10 -13 0 -18 -8
-18 -25 l0 -25 -125 0 -125 0 0 35 0 35 160 0 160 0 0 -35z m2310 -45 l0 -30
-80 0 -80 0 0 30 0 30 80 0 80 0 0 -30z m-3130 -165 l0 -165 60 0 60 0 0 -40
0 -40 -80 0 -80 0 0 205 c0 198 1 205 20 205 19 0 20 -7 20 -165z m40 40 l0
-125 40 0 c39 0 40 -1 40 -35 l0 -35 -55 0 -55 0 0 160 c0 136 2 160 15 160
13 0 15 -21 15 -125z m80 5 l0 -120 -35 0 -35 0 0 120 0 120 35 0 35 0 0 -120z
m210 0 l0 -120 -100 0 -100 0 0 120 0 120 100 0 100 0 0 -120z m160 35 l0 -85
165 0 165 0 0 -35 c0 -19 -4 -35 -10 -35 -5 0 -10 11 -10 25 0 16 -6 25 -15
25 -9 0 -15 -10 -15 -26 0 -14 -4 -23 -10 -19 -5 3 -10 16 -10 27 0 12 -3 18
-7 14 -4 -4 -8 -15 -8 -24 0 -15 -20 -17 -197 -20 l-198 -2 0 120 0 120 75 0
75 0 0 -85z m330 45 l0 -39 -56 0 c-30 1 -58 -2 -61 -5 -4 -3 21 -6 55 -6 l62
0 0 -35 c0 -30 -3 -35 -24 -35 -19 0 -22 4 -18 25 3 19 0 25 -12 25 -12 0 -16
-7 -14 -22 3 -23 1 -23 -124 -26 l-128 -3 0 81 0 80 160 0 160 0 0 -40z m2140
20 c0 -19 7 -20 90 -20 83 0 90 1 90 20 0 19 7 20 159 20 l160 0 3 -26 c3 -24
4 -24 23 -10 16 13 17 15 3 10 -12 -4 -18 -1 -18 10 0 11 9 16 26 16 14 0 22
-4 19 -10 -3 -5 0 -7 9 -4 9 4 16 -2 19 -18 4 -21 4 -20 6 5 l1 27 180 0 180
0 0 -100 0 -100 -180 0 c-180 0 -180 0 -181 23 -1 20 -1 21 -7 2 -5 -13 -18
-21 -39 -23 -28 -3 -33 0 -34 20 l-2 23 -4 -22 c-4 -23 -6 -23 -164 -23 -135
0 -159 2 -159 15 0 12 -17 15 -90 15 -73 0 -90 -3 -90 -15 0 -13 -22 -15 -135
-15 l-135 0 0 60 0 60 -268 0 -268 0 2 31 c1 19 -2 29 -9 26 -7 -2 -12 -16
-12 -31 1 -14 -4 -25 -10 -23 -5 2 -10 14 -10 27 0 13 -6 25 -12 27 -7 3 -13
0 -13 -7 0 -6 5 -8 10 -5 13 8 13 -1 0 -26 -17 -31 -30 -22 -30 21 l0 40 445
0 c438 0 445 0 445 -20z m-4040 -60 l0 -30 -75 0 -75 0 0 30 0 30 75 0 75 0 0
-30z m4210 -125 c0 -25 -1 -25 -80 -25 -79 0 -80 0 -80 25 0 25 1 25 80 25 79
0 80 0 80 -25z m-2343 -17 c-3 -8 -6 -5 -6 6 -1 11 2 17 5 13 3 -3 4 -12 1
-19z m-457 -63 l0 -35 -100 0 -100 0 0 35 0 35 100 0 100 0 0 -35z m490 -1 c0
-41 -20 -43 -31 -3 -6 22 -9 21 -13 -6 -2 -20 -21 -16 -28 7 -6 22 -9 19 -12
-12 -1 -13 -32 -15 -198 -18 l-198 -2 0 35 0 35 240 0 240 0 0 -36z m-2820
-19 c-10 -12 -16 -13 -26 -4 -20 16 -18 19 12 19 22 0 25 -2 14 -15z m2330
-65 l0 -40 -100 0 -100 0 0 40 0 40 100 0 100 0 0 -40z m490 0 c0 -43 0 -43
-24 -34 -13 5 -14 10 -5 20 11 14 5 34 -12 34 -5 0 -9 -5 -9 -11 0 -5 5 -7 10
-4 14 9 13 -8 -2 -23 -19 -19 -28 -14 -28 15 0 14 -3 23 -7 19 -5 -4 -8 -18
-8 -29 0 -22 -3 -22 -197 -25 l-198 -2 0 40 0 40 240 0 240 0 0 -40z m-490
-90 l0 -40 245 0 245 0 0 -35 c0 -19 -4 -35 -10 -35 -5 0 -10 7 -10 15 0 8 -6
15 -12 15 -9 0 -8 4 2 10 13 8 12 10 -2 10 -10 0 -18 -7 -18 -15 0 -8 6 -15
13 -15 8 0 7 -3 -3 -9 -19 -13 -30 -5 -30 21 0 12 -3 18 -7 14 -4 -4 -8 -15
-8 -24 0 -15 -27 -17 -302 -20 l-303 -2 0 75 0 75 100 0 100 0 0 -40z m490 5
c0 -19 -4 -35 -10 -35 -5 0 -10 9 -10 19 0 11 -5 23 -12 27 -7 4 -8 3 -4 -4 4
-7 1 -12 -6 -12 -10 0 -9 -3 2 -10 18 -11 7 -25 -15 -17 -8 4 -15 16 -15 28 0
12 -3 19 -7 15 -4 -4 -8 -15 -8 -24 0 -15 -20 -17 -197 -20 l-198 -2 0 35 0
35 240 0 240 0 0 -35z m-2180 -325 l0 -30 -80 0 -80 0 0 30 0 30 80 0 80 0 0
-30z m2180 -5 c0 -23 -5 -35 -14 -35 -9 0 -12 8 -8 25 3 19 0 25 -12 25 -11 0
-16 -7 -14 -17 4 -27 -16 -28 -24 -1 -6 22 -9 19 -12 -12 -1 -13 -59 -15 -448
-18 l-448 -2 0 35 0 35 490 0 490 0 0 -35z m0 -80 c0 -19 -4 -35 -10 -35 -5 0
-10 11 -10 25 0 16 -6 25 -15 25 -9 0 -15 -10 -15 -26 0 -14 -4 -23 -9 -20 -5
3 -7 15 -4 26 4 15 0 20 -13 20 -15 0 -16 -2 -5 -9 12 -8 12 -12 2 -25 -12
-14 -53 -16 -317 -16 l-304 0 0 -335 0 -335 105 0 c87 0 105 -3 105 -15 0 -12
16 -15 85 -15 69 0 85 3 85 15 0 13 24 15 160 15 159 0 160 0 161 -22 l2 -23
4 23 c4 19 10 23 36 20 21 -2 34 -10 39 -23 6 -19 6 -18 7 3 1 22 1 22 181 22
l180 0 0 -100 0 -100 -180 0 c-180 0 -180 0 -181 23 -1 20 -1 21 -7 2 -5 -13
-18 -21 -39 -23 -28 -3 -33 0 -34 20 l-2 23 -4 -22 c-4 -23 -6 -23 -164 -23
-152 0 -159 1 -159 20 0 18 -7 20 -85 20 -78 0 -85 -2 -85 -20 0 -19 -7 -20
-245 -20 l-245 0 0 470 0 470 490 0 490 0 0 -35z m-1240 0 c0 -24 -2 -25 -75
-25 -73 0 -75 1 -75 25 0 24 2 25 75 25 73 0 75 -1 75 -25z m1207 -17 c-3 -8
-6 -5 -6 6 -1 11 2 17 5 13 3 -3 4 -12 1 -19z m-2147 -188 l0 -30 -80 0 -80 0
0 30 0 30 80 0 80 0 0 -30z m940 -85 c0 -24 -2 -25 -75 -25 -73 0 -75 1 -75
25 0 24 2 25 75 25 73 0 75 -1 75 -25z m-860 -410 l0 -245 -160 0 -160 0 0
245 0 245 160 0 160 0 0 -245z m950 -45 l0 -240 -160 0 -160 0 0 240 0 240
160 0 160 0 0 -240z m820 45 c0 -24 -2 -25 -75 -25 -73 0 -75 1 -75 25 0 24 2
25 75 25 73 0 75 -1 75 -25z m0 -205 l0 -30 -75 0 -75 0 0 30 0 30 75 0 75 0
0 -30z m800 -185 c-10 -12 -16 -13 -26 -4 -20 16 -18 19 12 19 22 0 25 -2 14
-15z m-1852 -85 c-7 -10 -13 -18 -13 -17 0 1 -7 10 -14 20 -12 15 -11 17 13
17 23 0 25 -2 14 -20z m-948 -45 c-10 -12 -16 -13 -26 -4 -20 16 -18 19 12 19
22 0 25 -2 14 -15z"/>
<path d="M1181 4253 c0 -15 3 -22 6 -15 3 9 9 10 18 2 9 -8 12 -5 11 12 -1 13
-8 24 -18 26 -14 3 -18 -3 -17 -25z"/>
<path d="M734 4237 c3 -10 6 -26 7 -35 0 -9 5 -4 10 12 4 17 6 32 4 35 -3 2
-5 -2 -5 -10 0 -12 -2 -11 -11 1 -9 12 -10 12 -5 -3z"/>
<path d="M835 4196 c12 -9 16 -19 11 -31 -7 -18 -6 -18 14 0 21 19 27 30 10
20 -5 -3 -10 -1 -10 4 0 17 18 13 29 -6 9 -16 10 -16 11 5 0 19 -5 22 -42 22
-38 0 -40 -1 -23 -14z"/>
<path d="M814 4168 l-19 -23 23 19 c21 18 27 26 19 26 -2 0 -12 -10 -23 -22z"/>
<path d="M1181 4043 c0 -15 3 -22 6 -15 3 9 9 10 17 3 10 -8 12 -5 11 12 -1
12 -9 23 -18 25 -13 3 -17 -4 -16 -25z"/>
<path d="M730 4014 c0 -23 2 -24 15 -10 8 8 15 19 15 25 0 6 -7 11 -15 11 -9
0 -15 -10 -15 -26z"/>
<path d="M838 3984 c19 -13 21 -18 10 -32 -9 -12 -6 -11 10 2 23 20 30 32 12
21 -5 -3 -10 -1 -10 4 0 14 13 14 28 -1 9 -9 12 -8 12 5 0 13 -9 17 -42 17
-42 0 -42 0 -20 -16z"/>
<path d="M814 3958 l-19 -23 23 19 c21 18 27 26 19 26 -2 0 -12 -10 -23 -22z"/>
<path d="M3656 3973 c-11 -12 -6 -30 9 -30 8 0 15 6 15 13 0 15 -15 26 -24 17z"/>
<path d="M3870 3916 c0 -2 8 -10 18 -17 15 -13 16 -12 3 4 -13 16 -21 21 -21
13z"/>
<path d="M3613 3885 c-10 -10 -9 -14 2 -19 17 -6 26 5 17 21 -5 8 -11 7 -19
-2z"/>
<path d="M3608 3793 c6 -2 18 -2 25 0 6 3 1 5 -13 5 -14 0 -19 -2 -12 -5z"/>
<path d="M1140 3424 c0 -23 2 -24 15 -10 8 8 15 19 15 25 0 6 -7 11 -15 11 -9
0 -15 -10 -15 -26z"/>
<path d="M689 3405 c5 -5 10 -17 13 -25 3 -10 6 -6 10 10 3 20 0 26 -13 26
-11 0 -15 -4 -10 -11z"/>
<path d="M798 3364 c19 -13 21 -18 10 -32 -9 -12 -6 -11 10 2 23 20 30 32 12
21 -5 -3 -10 -1 -10 4 0 14 13 14 28 -1 9 -9 12 -8 12 5 0 13 -9 17 -42 17
-42 0 -42 0 -20 -16z"/>
<path d="M774 3338 l-19 -23 23 19 c21 18 27 26 19 26 -2 0 -12 -10 -23 -22z"/>
<path d="M1140 3224 c0 -23 2 -24 15 -10 8 8 15 19 15 25 0 6 -7 11 -15 11 -9
0 -15 -10 -15 -26z"/>
<path d="M690 3184 c0 -23 2 -24 15 -10 8 8 15 19 15 25 0 6 -7 11 -15 11 -9
0 -15 -10 -15 -26z"/>
<path d="M795 3166 c12 -9 16 -19 11 -31 -7 -18 -6 -18 14 0 21 19 27 30 10
20 -5 -3 -10 -1 -10 4 0 17 18 13 29 -6 9 -16 10 -16 11 5 0 19 -5 22 -42 22
-38 0 -40 -1 -23 -14z"/>
<path d="M774 3138 l-19 -23 23 19 c21 18 27 26 19 26 -2 0 -12 -10 -23 -22z"/>
<path d="M3628 3125 c2 -19 8 -35 13 -35 5 0 10 -10 10 -22 1 -19 2 -19 6 -5
5 18 6 18 24 1 18 -16 19 -16 19 4 0 12 5 22 10 22 6 0 9 17 9 38 l-2 37 -7
-35 c-6 -26 -8 -29 -9 -11 -1 23 -2 24 -21 6 -13 -11 -20 -14 -20 -6 0 11 -23
41 -32 41 -2 0 -2 -16 0 -35z m62 -31 c0 -22 -2 -25 -15 -14 -12 10 -13 16 -4
26 16 20 19 18 19 -12z"/>
<path d="M3563 3082 c0 -36 5 -62 11 -62 6 0 4 -5 -4 -10 -18 -12 -2 -12 25 0
17 7 17 9 3 9 -19 1 -24 16 -9 25 5 4 12 0 14 -6 3 -7 6 -3 6 10 1 24 -9 28
-27 10 -9 -9 -12 -8 -12 5 0 11 8 17 23 18 l22 0 -23 10 c-19 7 -21 11 -10 23
9 10 15 11 20 2 5 -7 8 -5 8 7 0 9 -7 17 -15 17 -8 0 -15 -6 -15 -12 0 -9 -3
-9 -9 1 -6 9 -9 -7 -8 -47z"/>
<path d="M3730 3128 c0 -20 15 -24 26 -7 4 8 9 7 15 -2 7 -11 9 -10 9 4 0 9
-7 17 -15 17 -8 0 -15 -6 -15 -12 0 -9 -4 -8 -10 2 -8 13 -10 12 -10 -2z"/>
<path d="M3892 3120 c0 -14 2 -19 5 -12 2 6 2 18 0 25 -3 6 -5 1 -5 -13z"/>
<path d="M3910 3129 c0 -5 4 -8 9 -5 5 4 12 0 14 -6 3 -8 6 -6 6 5 1 9 -6 17
-14 17 -8 0 -15 -5 -15 -11z"/>
<path d="M3750 3091 l25 -8 -25 -5 c-25 -5 -25 -5 3 -7 18 -1 27 4 27 14 0 10
-9 15 -27 14 l-28 -1 25 -7z"/>
<path d="M3917 3089 c7 -7 15 -10 18 -7 3 3 -2 9 -12 12 -14 6 -15 5 -6 -5z"/>
<path d="M3892 3055 c0 -16 2 -24 5 -17 2 6 9 10 14 6 5 -3 9 1 10 8 0 7 4 4
9 -7 8 -19 9 -18 9 4 1 18 -3 22 -19 18 -10 -3 -21 0 -24 7 -2 6 -4 -2 -4 -19z"/>
<path d="M3730 3045 c0 -9 9 -15 25 -15 16 0 25 6 25 15 0 9 -9 15 -25 15 -16
0 -25 -6 -25 -15z"/>
<path d="M3740 3011 c12 -9 13 -11 1 -11 -8 0 -12 -2 -9 -5 3 -3 16 -1 29 4
13 5 19 10 12 10 -6 1 -20 4 -30 7 -15 5 -15 4 -3 -5z"/>
<path d="M3570 2965 c0 -29 25 -25 33 6 4 14 0 19 -14 19 -14 0 -19 -7 -19
-25z"/>
<path d="M3737 2956 c3 -16 10 -23 19 -19 21 8 17 43 -5 43 -14 0 -17 -6 -14
-24z"/>
<path d="M3170 2807 c0 -22 3 -28 9 -18 5 8 11 9 15 3 3 -5 16 -9 28 -8 18 1
23 7 24 29 1 25 1 25 -3 2 -5 -27 -23 -25 -23 3 0 12 -9 18 -25 20 -22 2 -25
-2 -25 -31z"/>
<path d="M3261 2810 c0 -19 3 -29 6 -21 5 11 7 11 14 0 6 -9 8 -2 8 21 0 19
-3 29 -6 21 -5 -11 -7 -11 -14 0 -6 9 -8 2 -8 -21z"/>
<path d="M3323 2823 c-27 -5 -20 -33 8 -33 12 0 19 7 19 20 0 11 -1 19 -2 19
-2 -1 -13 -4 -25 -6z"/>
<path d="M3178 2738 c15 -15 16 -32 2 -23 -5 3 -10 1 -10 -5 0 -6 8 -10 18 -8
9 2 16 11 16 21 -1 9 2 14 7 11 5 -3 9 0 9 5 0 6 -12 11 -27 11 -21 0 -24 -3
-15 -12z"/>
<path d="M3226 2734 c-3 -9 -6 -21 -5 -27 0 -7 4 -1 10 11 9 25 29 26 37 2 3
-9 -1 -11 -12 -7 -10 4 -15 3 -11 -3 3 -6 30 -10 58 -10 32 0 47 4 39 9 -8 4
-14 12 -14 16 0 4 6 12 14 16 10 7 9 9 -4 9 -11 0 -18 -8 -18 -20 0 -13 -7
-20 -20 -20 -18 0 -25 10 -21 33 2 14 -47 7 -53 -9z"/>
<path d="M3361 2725 c0 -16 3 -24 6 -16 5 11 7 11 14 0 6 -10 8 -5 8 16 0 17
-3 24 -6 16 -5 -11 -7 -11 -14 0 -6 10 -8 5 -8 -16z"/>
<path d="M3418 2741 c-10 -3 -14 -11 -10 -18 12 -19 34 -19 37 -1 4 22 -5 28
-27 19z"/>
<path d="M3174 2576 c-3 -8 -3 -20 1 -26 8 -13 45 -13 45 0 0 6 7 10 16 10 29
0 8 25 -24 28 -22 2 -34 -2 -38 -12z m36 -5 c0 -5 -7 -11 -15 -15 -15 -5 -20
5 -8 17 9 10 23 9 23 -2z"/>
<path d="M3261 2570 c-1 -20 4 -26 24 -28 21 -1 25 3 25 23 0 16 -6 25 -15 25
-8 0 -15 -5 -15 -11 0 -5 5 -7 10 -4 6 3 10 -1 10 -9 0 -23 -15 -19 -28 7
l-11 22 0 -25z"/>
<path d="M3320 2566 c0 -17 5 -26 16 -26 10 0 14 7 12 22 -5 32 -28 35 -28 4z
m17 -8 c-3 -8 -6 -5 -6 6 -1 11 2 17 5 13 3 -3 4 -12 1 -19z"/>
<path d="M3366 2565 c4 -8 10 -15 15 -15 5 0 12 0 16 0 4 0 8 6 9 15 1 10 -6
15 -22 15 -17 0 -22 -4 -18 -15z"/>
<path d="M3181 2502 c-14 -5 -15 -42 -1 -43 6 -1 16 -2 23 -3 18 -2 50 31 43
43 -7 10 -39 12 -65 3z m21 -20 c-7 -2 -9 -9 -6 -15 5 -9 4 -9 -6 0 -15 13 -4
37 13 26 8 -5 8 -8 -1 -11z"/>
<path d="M3261 2480 c0 -29 1 -32 10 -17 7 11 7 23 0 35 -9 14 -10 11 -10 -18z"/>
<path d="M3280 2500 c0 -6 5 -8 10 -5 6 3 10 -3 10 -15 0 -12 -4 -18 -10 -15
-5 3 -10 1 -10 -5 0 -7 6 -10 13 -7 6 2 12 14 12 27 0 13 -6 25 -12 28 -7 2
-13 -1 -13 -8z"/>
<path d="M3329 2508 c-7 -14 -2 -58 6 -58 7 0 10 12 7 30 -4 26 -9 36 -13 28z"/>
<path d="M4124 2495 c-8 -19 2 -45 16 -45 5 0 10 7 10 16 0 8 -4 12 -10 9 -5
-3 -10 -1 -10 4 0 6 5 11 10 11 6 0 10 5 10 10 0 16 -20 12 -26 -5z"/>
<path d="M4160 2479 c0 -29 1 -29 17 -13 16 15 17 15 24 -2 6 -15 8 -12 8 11
1 26 -3 31 -24 33 -22 2 -25 -2 -25 -29z"/>
<path d="M4224 2495 c-12 -31 3 -42 55 -42 54 0 70 9 52 31 -6 7 -7 17 -3 21
4 5 1 5 -6 1 -7 -5 -17 -18 -22 -30 -8 -19 -9 -19 -9 7 -1 16 -5 26 -10 23 -5
-3 -7 -15 -4 -26 3 -12 0 -20 -7 -20 -7 0 -10 6 -7 14 6 14 -10 36 -25 36 -5
0 -11 -7 -14 -15z m26 -15 c0 -5 -4 -10 -10 -10 -5 0 -10 5 -10 10 0 6 5 10
10 10 6 0 10 -4 10 -10z"/>
<path d="M3378 2493 c-22 -5 -12 -33 12 -33 10 0 17 6 16 15 -3 19 -8 22 -28
18z"/>
<path d="M4083 2493 c-27 -5 -20 -33 8 -33 12 0 19 7 19 20 0 11 -1 19 -2 19
-2 -1 -13 -4 -25 -6z"/>
<path d="M3174 2405 c-7 -18 3 -35 21 -35 16 0 55 30 55 42 0 15 -70 9 -76 -7z
m28 -2 c-6 -2 -9 -10 -6 -15 4 -7 2 -8 -4 -4 -18 11 -14 26 6 25 10 0 12 -3 4
-6z"/>
<path d="M3261 2390 l0 -25 11 23 c13 25 28 29 28 6 0 -8 -4 -12 -10 -9 -5 3
-10 1 -10 -4 0 -6 17 -11 38 -11 24 0 32 3 23 9 -9 6 -10 11 -2 15 17 11 13
26 -6 26 -14 0 -15 -2 -5 -9 10 -6 10 -10 -3 -21 -13 -11 -15 -9 -15 9 0 16
-6 20 -25 19 -20 -2 -25 -8 -24 -28z"/>
<path d="M3378 2411 c-10 -3 -14 -11 -10 -18 12 -19 34 -19 37 -1 4 22 -5 28
-27 19z"/>
<path d="M4083 2412 c-24 -8 -19 -24 10 -35 13 -5 17 -1 17 18 0 14 -1 25 -2
24 -2 -1 -13 -4 -25 -7z"/>
<path d="M4122 2398 c4 -27 28 -37 28 -11 0 15 -2 16 -10 3 -8 -13 -10 -13
-10 2 0 9 6 19 13 21 7 3 4 6 -6 6 -13 1 -18 -5 -15 -21z"/>
<path d="M4160 2394 c0 -24 1 -24 17 -8 16 15 17 15 24 -2 6 -16 8 -15 8 6 1
20 -4 26 -24 28 -21 1 -25 -3 -25 -24z"/>
<path d="M4222 2397 c2 -17 11 -22 39 -24 33 -3 36 -1 32 20 -4 19 -11 24 -40
25 -30 1 -34 -1 -31 -21z m28 -2 c0 -8 -4 -15 -10 -15 -5 0 -10 7 -10 15 0 8
5 15 10 15 6 0 10 -7 10 -15z m30 -5 c0 -5 -4 -10 -10 -10 -5 0 -10 5 -10 10
0 6 5 10 10 10 6 0 10 -4 10 -10z"/>
<path d="M4308 2413 c6 -2 18 -2 25 0 6 3 1 5 -13 5 -14 0 -19 -2 -12 -5z"/>
<path d="M3174 2325 c-3 -8 -3 -19 1 -25 8 -13 45 -13 45 0 0 6 7 10 15 10 8
0 15 7 15 15 0 20 -68 21 -76 0z m28 -2 c-6 -2 -10 -9 -6 -14 3 -5 0 -9 -5 -9
-12 0 -14 13 -4 23 3 4 11 7 17 6 6 0 5 -3 -2 -6z"/>
<path d="M3260 2315 c0 -18 7 -22 45 -24 35 -1 45 2 45 14 0 8 -5 15 -11 15
-5 0 -7 -4 -4 -10 3 -5 -1 -10 -9 -10 -25 0 -19 28 7 33 12 3 1 5 -25 4 -42
-1 -48 -3 -48 -22z m36 -12 c-10 -10 -19 5 -10 18 6 11 8 11 12 0 2 -7 1 -15
-2 -18z"/>
<path d="M4127 2333 c-13 -12 -7 -43 8 -43 8 0 15 8 15 18 0 14 -2 15 -10 2
-8 -13 -10 -13 -10 2 0 9 6 19 13 21 6 3 7 6 1 6 -6 1 -14 -2 -17 -6z"/>
<path d="M4160 2314 c0 -21 2 -23 14 -12 10 9 11 15 2 20 -8 6 -7 8 2 8 7 0
17 -10 22 -22 9 -23 9 -23 9 2 1 20 -4 26 -24 28 -21 1 -25 -3 -25 -24z"/>
<path d="M4225 2332 c-3 -3 -5 -14 -5 -24 0 -17 7 -19 57 -16 44 2 57 7 59 20
3 21 -11 32 -28 22 -8 -5 -6 -11 7 -20 16 -12 16 -13 -4 -11 -12 1 -21 8 -21
17 0 10 -10 15 -30 16 -16 1 -32 -1 -35 -4z m25 -17 c0 -8 -4 -15 -10 -15 -5
0 -10 7 -10 15 0 8 5 15 10 15 6 0 10 -7 10 -15z m30 -5 c0 -5 -4 -10 -10 -10
-5 0 -10 5 -10 10 0 6 5 10 10 10 6 0 10 -4 10 -10z"/>
<path d="M3366 2315 c4 -8 10 -15 15 -15 5 0 12 0 16 0 4 0 8 6 9 15 1 10 -6
15 -22 15 -17 0 -22 -4 -18 -15z"/>
<path d="M4066 2316 c3 -8 14 -16 25 -19 14 -4 19 0 19 14 0 14 -7 19 -25 19
-17 0 -23 -4 -19 -14z"/>
<path d="M3174 2246 c-3 -8 -3 -20 1 -26 8 -13 45 -13 45 0 0 6 7 10 16 10 29
0 8 25 -24 28 -22 2 -34 -2 -38 -12z m36 -5 c0 -5 -7 -11 -15 -15 -15 -5 -20
5 -8 17 9 10 23 9 23 -2z"/>
<path d="M3261 2240 c-1 -20 4 -26 24 -28 21 -1 25 3 25 23 0 16 -6 25 -15 25
-8 0 -15 -5 -15 -11 0 -5 5 -7 10 -4 6 3 10 -1 10 -9 0 -23 -15 -19 -28 7
l-11 22 0 -25z"/>
<path d="M3326 2244 c-4 -10 -1 -21 6 -25 16 -11 22 5 10 27 -8 15 -10 15 -16
-2z"/>
<path d="M4127 2253 c-13 -12 -7 -43 8 -43 8 0 15 5 15 11 0 5 -4 7 -10 4 -5
-3 -10 0 -10 9 0 8 6 17 13 19 6 3 7 6 1 6 -6 1 -14 -2 -17 -6z"/>
<path d="M4161 2232 c0 -15 3 -21 6 -14 2 6 11 12 18 12 7 0 16 -6 18 -12 3
-7 6 -2 6 12 1 20 -4 26 -24 28 -21 1 -25 -2 -24 -26z"/>
<path d="M4225 2252 c-3 -3 -5 -14 -5 -24 0 -14 8 -18 39 -18 34 0 38 2 34 23
-3 16 -12 22 -33 23 -16 1 -32 -1 -35 -4z m25 -17 c0 -8 -4 -15 -10 -15 -5 0
-10 7 -10 15 0 8 5 15 10 15 6 0 10 -7 10 -15z m30 -5 c0 -5 -4 -10 -10 -10
-5 0 -10 5 -10 10 0 6 5 10 10 10 6 0 10 -4 10 -10z"/>
<path d="M4306 2251 c-9 -14 5 -42 18 -38 15 5 14 39 -1 44 -6 2 -14 0 -17 -6z"/>
<path d="M3366 2235 c4 -8 10 -15 15 -15 5 0 12 0 16 0 4 0 8 6 9 15 1 10 -6
15 -22 15 -17 0 -22 -4 -18 -15z"/>
<path d="M4066 2236 c3 -8 14 -16 25 -19 14 -4 19 0 19 14 0 14 -7 19 -25 19
-17 0 -23 -4 -19 -14z"/>
<path d="M3181 2172 c-14 -5 -15 -42 -1 -43 6 -1 16 -2 23 -3 18 -2 50 31 43
43 -7 10 -39 12 -65 3z m21 -20 c-7 -2 -9 -9 -6 -15 5 -9 4 -9 -6 0 -15 13 -4
37 13 26 8 -5 8 -8 -1 -11z"/>
<path d="M3261 2150 c0 -29 1 -32 10 -17 7 11 7 23 0 35 -9 14 -10 11 -10 -18z"/>
<path d="M3280 2170 c0 -6 5 -8 10 -5 6 3 10 -3 10 -15 0 -12 -4 -18 -10 -15
-5 3 -10 1 -10 -5 0 -7 6 -10 13 -7 6 2 12 14 12 27 0 13 -6 25 -12 28 -7 2
-13 -1 -13 -8z"/>
<path d="M3320 2165 c0 -8 5 -15 10 -15 6 0 10 -5 10 -11 0 -5 -4 -7 -10 -4
-5 3 -10 1 -10 -4 0 -17 20 -13 27 5 3 9 0 20 -7 24 -10 6 -9 9 1 13 10 4 9 6
-3 6 -10 1 -18 -6 -18 -14z"/>
<path d="M4124 2165 c-8 -19 2 -45 16 -45 5 0 10 7 10 16 0 8 -4 12 -10 9 -5
-3 -10 -1 -10 4 0 6 5 11 10 11 6 0 10 5 10 10 0 16 -20 12 -26 -5z"/>
<path d="M4160 2149 c0 -29 1 -29 17 -13 16 15 17 15 24 -2 6 -15 8 -12 8 11
1 26 -3 31 -24 33 -22 2 -25 -2 -25 -29z"/>
<path d="M4223 2164 c-10 -27 5 -41 44 -41 21 -1 32 1 25 4 -6 2 -9 10 -5 16
4 7 -1 6 -10 -2 -15 -12 -17 -11 -17 3 0 23 26 20 45 -6 13 -20 17 -21 25 -8
12 19 12 22 -1 40 -8 11 -12 12 -16 2 -2 -6 -10 -9 -16 -5 -21 13 -68 11 -74
-3z m27 -14 c0 -5 -4 -10 -10 -10 -5 0 -10 5 -10 10 0 6 5 10 10 10 6 0 10 -4
10 -10z m80 0 c0 -5 -4 -10 -10 -10 -5 0 -10 5 -10 10 0 6 5 10 10 10 6 0 10
-4 10 -10z"/>
<path d="M3378 2163 c-22 -5 -12 -33 12 -33 10 0 17 6 16 15 -3 19 -8 22 -28
18z"/>
<path d="M4082 2163 c-19 -4 -21 -7 -11 -19 17 -20 39 -17 39 6 0 11 -1 19 -2
19 -2 -1 -13 -4 -26 -6z"/>
<path d="M3174 2075 c-7 -18 3 -35 21 -35 16 0 55 30 55 42 0 15 -70 9 -76 -7z
m28 -2 c-6 -2 -9 -10 -6 -15 4 -7 2 -8 -4 -4 -18 11 -14 26 6 25 10 0 12 -3 4
-6z"/>
<path d="M3261 2060 l0 -25 11 23 c13 25 28 29 28 6 0 -8 -4 -12 -10 -9 -5 3
-10 1 -10 -4 0 -6 7 -11 15 -11 9 0 15 9 15 25 0 20 -4 24 -25 23 -20 -2 -25
-8 -24 -28z"/>
<path d="M3320 2065 c0 -16 6 -25 15 -25 9 0 15 9 15 25 0 16 -6 25 -15 25 -9
0 -15 -9 -15 -25z"/>
<path d="M3378 2083 c-22 -5 -12 -33 12 -33 10 0 17 6 16 15 -3 19 -8 22 -28
18z"/>
<path d="M4083 2083 c-27 -5 -20 -33 8 -33 12 0 19 7 19 20 0 11 -1 19 -2 19
-2 -1 -13 -4 -25 -6z"/>
<path d="M4122 2068 c4 -27 28 -37 28 -11 0 15 -2 16 -10 3 -8 -13 -10 -13
-10 2 0 9 6 19 13 21 7 3 4 6 -6 6 -13 1 -18 -5 -15 -21z"/>
<path d="M4160 2064 c0 -24 1 -24 17 -8 16 15 17 15 24 -2 6 -15 8 -14 8 9 1
22 -3 27 -24 27 -20 0 -25 -5 -25 -26z"/>
<path d="M4222 2068 c3 -20 9 -23 59 -26 55 -3 56 -2 52 21 -4 22 -10 24 -60
26 -51 1 -54 0 -51 -21z m28 -3 c0 -8 -4 -15 -10 -15 -5 0 -10 7 -10 15 0 8 5
15 10 15 6 0 10 -7 10 -15z m48 9 c28 -8 29 -24 1 -24 -13 0 -18 4 -13 13 5 8
2 8 -9 -2 -15 -12 -17 -11 -17 3 0 18 4 19 38 10z"/>
<path d="M3174 1995 c-3 -8 -3 -19 1 -25 8 -13 45 -13 45 0 0 6 7 10 15 10 8
0 15 7 15 15 0 20 -68 21 -76 0z m28 -2 c-6 -2 -9 -10 -6 -15 4 -7 2 -8 -5 -4
-13 9 -5 26 12 25 9 0 8 -2 -1 -6z"/>
<path d="M3260 1985 c0 -15 7 -21 25 -23 19 -1 25 3 25 17 0 12 9 21 23 24 12
3 1 5 -25 4 -42 -1 -48 -3 -48 -22z m40 -1 c0 -8 -5 -12 -10 -9 -6 4 -8 11 -5
16 9 14 15 11 15 -7z"/>
<path d="M4124 1995 c-7 -16 2 -35 17 -35 5 0 9 8 9 18 0 14 -2 15 -10 2 -8
-13 -10 -13 -10 2 0 9 6 19 13 21 9 4 9 6 -1 6 -7 1 -15 -6 -18 -14z"/>
<path d="M4160 1984 c0 -21 2 -23 14 -12 10 9 11 15 2 20 -8 6 -7 8 2 8 7 0
17 -10 22 -22 9 -23 9 -23 9 2 1 20 -4 26 -24 28 -21 1 -25 -3 -25 -24z"/>
<path d="M4223 1994 c-9 -24 6 -31 64 -32 37 -1 53 1 44 7 -9 6 -10 11 -2 15
23 15 -2 26 -51 25 -30 -2 -52 -7 -55 -15z m27 -9 c0 -8 -4 -15 -10 -15 -5 0
-10 7 -10 15 0 8 5 15 10 15 6 0 10 -7 10 -15z m41 3 c0 -10 2 -10 6 0 2 6 12
12 21 12 13 0 13 -3 4 -12 -17 -17 -62 -17 -62 -1 0 17 30 17 31 1z"/>
<path d="M3366 1985 c4 -8 10 -15 15 -15 5 0 12 0 16 0 4 0 8 6 9 15 1 10 -6
15 -22 15 -17 0 -22 -4 -18 -15z"/>
<path d="M4066 1986 c3 -8 14 -16 25 -19 14 -4 19 0 19 14 0 14 -7 19 -25 19
-17 0 -23 -4 -19 -14z"/>
<path d="M3174 1916 c-3 -8 -3 -20 1 -26 8 -13 45 -13 45 0 0 6 7 10 16 10 29
0 8 25 -24 28 -22 2 -34 -2 -38 -12z m36 -5 c0 -5 -7 -11 -15 -15 -15 -5 -20
5 -8 17 9 10 23 9 23 -2z"/>
<path d="M3261 1910 c-1 -20 4 -26 24 -28 21 -1 25 3 25 23 0 16 -6 25 -15 25
-8 0 -15 -5 -15 -11 0 -5 5 -7 10 -4 6 3 10 -1 10 -9 0 -23 -15 -19 -28 7
l-11 22 0 -25z"/>
<path d="M3320 1905 c0 -16 6 -25 15 -25 9 0 15 9 15 25 0 16 -6 25 -15 25 -9
0 -15 -9 -15 -25z"/>
<path d="M3366 1905 c4 -8 10 -15 15 -15 5 0 12 0 16 0 4 0 8 6 9 15 1 10 -6
15 -22 15 -17 0 -22 -4 -18 -15z"/>
<path d="M3181 1842 c-14 -5 -15 -42 -1 -43 6 -1 16 -2 23 -3 18 -2 50 31 43
43 -7 10 -39 12 -65 3z m21 -20 c-7 -2 -9 -9 -6 -15 5 -9 4 -9 -6 0 -15 13 -4
37 13 26 8 -5 8 -8 -1 -11z"/>
<path d="M3261 1820 c0 -29 1 -32 10 -17 7 11 7 23 0 35 -9 14 -10 11 -10 -18z"/>
<path d="M3280 1840 c0 -6 5 -8 10 -5 6 3 10 -3 10 -15 0 -12 -4 -18 -10 -15
-5 3 -10 1 -10 -5 0 -7 6 -10 13 -7 6 2 12 14 12 27 0 13 -6 25 -12 28 -7 2
-13 -1 -13 -8z"/>
<path d="M3322 1821 c1 -17 7 -30 13 -28 14 5 12 50 -3 55 -9 3 -12 -6 -10
-27z"/>
<path d="M4047 1829 c-10 -37 -8 -42 9 -25 10 11 12 21 6 32 -8 14 -10 13 -15
-7z"/>
<path d="M4078 1820 c-5 -31 8 -40 29 -19 8 8 13 8 17 0 11 -18 83 -14 90 5
10 25 7 29 -7 10 -10 -14 -21 -17 -45 -11 -34 7 -44 25 -15 25 13 0 14 3 5 12
-8 8 -15 8 -26 -1 -10 -8 -16 -9 -21 -1 -11 18 -23 10 -27 -20z m24 -12 c-9
-9 -12 -7 -12 12 0 19 3 21 12 12 9 -9 9 -15 0 -24z"/>
<path d="M4228 1820 c4 -25 6 -27 18 -15 20 19 17 45 -4 45 -15 0 -18 -6 -14
-30z"/>
<path d="M4270 1820 c0 -22 5 -30 18 -30 14 0 15 2 2 10 -13 9 -13 11 0 20 13
9 13 10 0 10 -13 0 -13 1 0 10 13 8 12 10 -2 10 -13 0 -18 -8 -18 -30z"/>
<path d="M4310 1818 c0 -34 6 -35 12 -3 1 11 8 23 13 27 6 4 2 8 -7 8 -14 0
-18 -8 -18 -32z"/>
<path d="M3378 1833 c-22 -5 -12 -33 12 -33 10 0 17 6 16 15 -3 19 -8 22 -28
18z"/>
<path d="M3174 1745 c-7 -18 3 -35 21 -35 16 0 55 30 55 42 0 15 -70 9 -76 -7z
m28 -2 c-6 -2 -9 -10 -6 -15 4 -7 2 -8 -4 -4 -18 11 -14 26 6 25 10 0 12 -3 4
-6z"/>
<path d="M3261 1730 l0 -25 11 23 c13 25 28 29 28 6 0 -8 -4 -12 -10 -9 -5 3
-10 1 -10 -4 0 -6 7 -11 15 -11 9 0 15 9 15 25 0 20 -4 24 -25 23 -20 -2 -25
-8 -24 -28z"/>
<path d="M3324 1735 c0 -14 6 -25 12 -25 7 0 9 10 6 25 -6 32 -20 32 -18 0z"/>
<path d="M3360 1734 c0 -31 23 -28 28 4 2 15 -2 22 -12 22 -11 0 -16 -9 -16
-26z m17 -6 c-3 -8 -6 -5 -6 6 -1 11 2 17 5 13 3 -3 4 -12 1 -19z"/>
<path d="M3418 1753 c-22 -5 -12 -33 12 -33 10 0 17 6 16 15 -3 19 -8 22 -28
18z"/>
<path d="M3174 1665 c-3 -8 -3 -19 1 -25 8 -13 45 -13 45 0 0 6 7 10 15 10 8
0 15 7 15 15 0 20 -68 21 -76 0z m28 -2 c-6 -2 -9 -10 -6 -15 4 -7 2 -8 -5 -4
-13 9 -5 26 12 25 9 0 8 -2 -1 -6z"/>
<path d="M3260 1655 c0 -15 7 -21 25 -23 20 -1 25 3 25 23 0 20 -5 24 -25 23
-18 -2 -25 -8 -25 -23z m40 -1 c0 -8 -5 -12 -10 -9 -6 4 -8 11 -5 16 9 14 15
11 15 -7z"/>
<path d="M3329 1678 c-6 -20 -3 -48 6 -48 8 0 10 10 7 25 -4 21 -10 32 -13 23z"/>
<path d="M3369 1678 c-6 -20 -3 -48 6 -48 8 0 10 10 7 25 -4 21 -10 32 -13 23z"/>
<path d="M3934 1665 c-3 -8 -3 -19 1 -25 8 -13 45 -13 45 0 0 14 27 12 33 -2
3 -7 6 -1 6 15 1 21 -4 27 -20 27 -22 0 -52 -24 -42 -34 4 -3 1 -6 -5 -6 -16
0 -15 27 1 33 9 4 9 6 -1 6 -7 1 -15 -6 -18 -14z"/>
<path d="M4034 1665 c-3 -8 -3 -18 0 -23 7 -12 216 -12 216 0 0 5 -4 6 -10 3
-5 -3 -10 1 -10 10 0 9 5 13 10 10 6 -3 10 -1 10 4 0 6 -7 11 -15 11 -8 0 -15
-7 -15 -15 0 -8 -4 -15 -10 -15 -5 0 -7 8 -4 18 2 9 -1 7 -7 -5 -7 -13 -18
-23 -26 -23 -18 0 -44 25 -36 34 4 3 1 6 -4 6 -6 0 -14 -6 -16 -12 -4 -10 -6
-10 -6 0 -1 6 -8 12 -17 12 -14 0 -14 -1 0 -16 20 -20 20 -22 -1 -20 -10 0
-21 9 -25 19 -9 21 -27 22 -34 2z m26 -10 c0 -8 -4 -15 -10 -15 -5 0 -10 7
-10 15 0 8 5 15 10 15 6 0 10 -7 10 -15z"/>
<path d="M4262 1668 c-14 -14 2 -38 26 -38 13 0 12 2 -3 14 -18 13 -18 13 1
24 15 9 15 11 4 12 -9 0 -21 -5 -28 -12z"/>
<path d="M4307 1667 c-3 -8 -1 -20 4 -28 8 -12 10 -12 18 0 10 15 4 41 -9 41
-4 0 -10 -6 -13 -13z"/>
<path d="M3406 1655 c4 -8 10 -15 15 -15 5 0 12 0 16 0 4 0 8 6 9 15 1 10 -6
15 -22 15 -17 0 -22 -4 -18 -15z"/>
<path d="M3876 1656 c3 -8 14 -16 25 -19 14 -4 19 0 19 14 0 14 -7 19 -25 19
-17 0 -23 -4 -19 -14z"/>
<path d="M3174 1586 c-3 -8 -3 -20 1 -26 8 -13 45 -13 45 0 0 6 7 10 16 10 29
0 8 25 -24 28 -22 2 -34 -2 -38 -12z m36 -5 c0 -5 -7 -11 -15 -15 -15 -5 -20
5 -8 17 9 10 23 9 23 -2z"/>
<path d="M3261 1580 c-1 -20 4 -26 24 -28 21 -1 25 3 25 23 0 16 -6 25 -15 25
-8 0 -15 -5 -15 -11 0 -5 5 -7 10 -4 6 3 10 -1 10 -9 0 -23 -15 -19 -28 7
l-11 22 0 -25z"/>
<path d="M3331 1600 c-2 -3 -4 -15 -5 -27 -2 -20 2 -23 28 -23 26 0 32 4 34
25 1 16 -3 25 -13 25 -8 0 -15 -5 -15 -11 0 -5 5 -7 10 -4 6 3 10 2 10 -3 0
-8 -22 -22 -35 -22 -2 0 -6 10 -8 23 -2 12 -5 20 -6 17z"/>
<path d="M3937 1593 c-4 -3 -7 -15 -7 -25 0 -13 7 -18 25 -18 14 0 25 5 25 10
0 14 27 12 33 -2 3 -7 6 0 6 17 1 22 -2 26 -11 17 -7 -7 -17 -12 -22 -12 -6 0
-4 5 4 10 13 8 12 10 -2 10 -10 0 -18 -6 -18 -14 0 -8 -7 -16 -15 -20 -9 -3
-15 0 -15 8 0 8 6 17 13 19 6 3 7 6 1 6 -6 1 -14 -2 -17 -6z"/>
<path d="M4037 1593 c-4 -3 -7 -15 -7 -25 0 -14 8 -18 40 -18 22 0 39 3 39 8
-4 21 3 31 24 35 13 3 8 5 -15 6 -21 0 -38 -4 -38 -10 0 -5 5 -7 10 -4 6 3 10
2 10 -3 0 -20 -28 -20 -33 -1 -5 19 -18 25 -30 12z m23 -18 c0 -8 -4 -15 -10
-15 -5 0 -10 7 -10 15 0 8 5 15 10 15 6 0 10 -7 10 -15z"/>
<path d="M4195 1579 c-4 -11 -16 -24 -28 -29 l-22 -9 23 0 c12 -1 22 3 22 7 0
5 33 7 74 5 72 -4 73 -3 69 19 -6 31 -50 34 -80 5 -20 -18 -23 -19 -23 -3 0 9
5 14 10 11 6 -3 10 -1 10 4 0 6 -7 11 -15 11 -8 0 -15 -7 -15 -15 0 -8 -4 -15
-10 -15 -5 0 -7 7 -4 15 4 8 4 15 1 15 -3 0 -9 -9 -12 -21z m125 -10 c0 -5
-11 -9 -25 -9 -24 0 -32 10 -19 22 8 8 44 -3 44 -13z"/>
<path d="M3406 1575 c4 -8 10 -15 15 -15 5 0 12 0 16 0 4 0 8 6 9 15 1 10 -6
15 -22 15 -17 0 -22 -4 -18 -15z"/>
<path d="M3876 1576 c3 -8 14 -16 25 -19 14 -4 19 0 19 14 0 14 -7 19 -25 19
-17 0 -23 -4 -19 -14z"/>
<path d="M3181 1512 c-14 -5 -15 -42 -1 -43 6 -1 16 -2 23 -3 18 -2 50 31 43
43 -7 10 -39 12 -65 3z m21 -20 c-7 -2 -9 -9 -6 -15 5 -9 4 -9 -6 0 -15 13 -4
37 13 26 8 -5 8 -8 -1 -11z"/>
<path d="M3261 1490 c0 -29 1 -32 10 -17 7 11 7 23 0 35 -9 14 -10 11 -10 -18z"/>
<path d="M3280 1510 c0 -6 5 -8 10 -5 6 3 10 -3 10 -15 0 -12 -4 -18 -10 -15
-5 3 -10 1 -10 -5 0 -7 6 -10 13 -7 6 2 12 14 12 27 0 13 -6 25 -12 28 -7 2
-13 -1 -13 -8z"/>
<path d="M3330 1520 c-1 -3 -3 -17 -4 -32 -2 -25 1 -27 28 -25 20 2 32 9 34
20 2 9 -1 17 -7 17 -6 0 -8 -6 -5 -14 3 -9 -1 -13 -13 -13 -10 1 -21 13 -24
27 -4 14 -8 23 -9 20z"/>
<path d="M3358 1513 c6 -2 18 -2 25 0 6 3 1 5 -13 5 -14 0 -19 -2 -12 -5z"/>
<path d="M3934 1505 c-16 -39 23 -57 55 -26 13 11 16 11 22 -5 6 -15 8 -12 8
11 1 26 -3 31 -24 33 -16 1 -25 -3 -25 -12 0 -8 -7 -16 -15 -20 -18 -7 -20 5
-3 22 9 9 9 12 0 12 -7 0 -15 -7 -18 -15z"/>
<path d="M4034 1506 c-13 -35 2 -43 83 -42 43 0 68 1 56 4 -13 2 -23 12 -25
25 -2 17 -10 22 -35 23 -18 1 -33 -3 -33 -8 0 -5 5 -6 10 -3 6 3 10 1 10 -5 0
-6 4 -9 8 -6 4 2 14 0 22 -6 12 -8 12 -9 -2 -4 -10 3 -18 1 -18 -4 0 -6 -5
-10 -11 -10 -5 0 -7 6 -3 13 6 9 4 9 -8 -1 -14 -11 -17 -10 -20 9 -4 27 -26
37 -34 15z m22 -23 c-10 -10 -19 5 -10 18 6 11 8 11 12 0 2 -7 1 -15 -2 -18z"/>
<path d="M4197 1506 c-9 -23 18 -50 41 -40 9 4 22 6 27 4 6 -1 26 -4 45 -7 26
-3 31 -1 20 6 -13 9 -13 12 -1 20 34 22 -33 38 -68 17 -5 -4 -12 -2 -16 4 -10
16 -25 12 -26 -7 0 -16 -1 -16 -8 1 -7 18 -8 18 -14 2z m45 -28 c-9 -9 -12 -7
-12 12 0 19 3 21 12 12 9 -9 9 -15 0 -24z m72 7 c-5 -13 -28 -15 -40 -3 -3 4
-3 11 0 16 9 15 45 2 40 -13z"/>
<path d="M3418 1503 c-22 -5 -12 -33 12 -33 10 0 17 6 16 15 -3 19 -8 22 -28
18z"/>
<path d="M3892 1503 c-19 -4 -21 -7 -11 -19 17 -20 39 -17 39 6 0 11 -1 19 -2
19 -2 -1 -13 -4 -26 -6z"/>
<path d="M3366 1425 c-3 -9 1 -23 9 -31 13 -14 15 -13 15 3 0 10 -4 24 -9 31
-7 11 -9 10 -15 -3z"/>
<path d="M3174 1415 c-7 -18 3 -35 21 -35 16 0 55 30 55 42 0 15 -70 9 -76 -7z
m28 -2 c-6 -2 -9 -10 -6 -15 4 -7 2 -8 -4 -4 -18 11 -14 26 6 25 10 0 12 -3 4
-6z"/>
<path d="M3261 1400 l0 -25 11 23 c13 25 28 29 28 6 0 -8 -4 -12 -10 -9 -5 3
-10 1 -10 -4 0 -6 7 -11 15 -11 9 0 15 9 15 25 0 20 -4 24 -25 23 -20 -2 -25
-8 -24 -28z"/>
<path d="M3324 1405 c0 -14 6 -25 12 -25 7 0 9 10 6 25 -6 32 -20 32 -18 0z"/>
<path d="M3418 1423 c-22 -5 -12 -33 12 -33 10 0 17 6 16 15 -3 19 -8 22 -28
18z"/>
<path d="M3174 1335 c-3 -8 -3 -19 1 -25 8 -13 45 -13 45 0 0 6 7 10 15 10 8
0 15 7 15 15 0 20 -68 21 -76 0z m28 -2 c-6 -2 -9 -10 -6 -15 4 -7 2 -8 -5 -4
-13 9 -5 26 12 25 9 0 8 -2 -1 -6z"/>
<path d="M3260 1325 c0 -15 7 -21 25 -23 20 -1 25 3 25 23 0 20 -5 24 -25 23
-18 -2 -25 -8 -25 -23z m40 -1 c0 -8 -5 -12 -10 -9 -6 4 -8 11 -5 16 9 14 15
11 15 -7z"/>
<path d="M3329 1348 c-6 -20 -3 -48 6 -48 8 0 10 10 7 25 -4 21 -10 32 -13 23z"/>
<path d="M3360 1334 c0 -8 5 -12 10 -9 6 3 10 2 10 -4 0 -5 -6 -12 -12 -14 -8
-3 -6 -6 4 -6 13 -1 17 6 16 24 -3 27 -28 35 -28 9z"/>
<path d="M4194 1338 c3 -10 1 -18 -4 -18 -6 0 -10 -3 -10 -7 0 -5 16 -9 35
-10 26 -2 35 1 35 12 0 8 -6 15 -12 15 -9 0 -8 4 2 10 13 8 12 10 -2 10 -12 0
-18 -8 -18 -22 -1 -23 -1 -23 -16 2 -8 14 -13 17 -10 8z"/>
<path d="M4261 1325 c0 -16 3 -24 6 -16 5 11 7 11 14 0 6 -10 8 -5 8 16 0 17
-3 24 -6 16 -5 -11 -7 -11 -14 0 -6 10 -8 5 -8 -16z"/>
<path d="M4300 1325 c0 -26 24 -35 32 -12 7 18 -2 37 -18 37 -8 0 -14 -10 -14
-25z m25 6 c3 -5 1 -12 -5 -16 -5 -3 -10 1 -10 9 0 18 6 21 15 7z"/>
<path d="M3406 1325 c4 -8 10 -15 15 -15 5 0 12 0 16 0 4 0 8 6 9 15 1 10 -6
15 -22 15 -17 0 -22 -4 -18 -15z"/>
<path d="M4126 1326 c3 -8 14 -16 25 -19 14 -4 19 0 19 14 0 14 -7 19 -25 19
-17 0 -23 -4 -19 -14z"/>
<path d="M3792 1168 l2 -123 3 117 4 118 282 3 282 2 -287 3 -288 2 2 -122z"/>
<path d="M3736 1243 c-2 -2 -2 -13 1 -23 6 -23 33 -15 33 9 0 16 -23 25 -34
14z"/>
<path d="M3730 1176 c0 -11 9 -16 26 -16 31 0 28 23 -4 28 -15 2 -22 -2 -22
-12z m37 -2 c-3 -3 -12 -4 -19 -1 -8 3 -5 6 6 6 11 1 17 -2 13 -5z"/>
<path d="M3739 1141 c9 -6 10 -11 2 -15 -8 -5 -7 -11 2 -20 6 -8 15 -12 20 -9
4 2 7 -1 7 -6 0 -15 -27 -14 -33 2 -3 7 -6 4 -6 -6 -1 -14 5 -18 22 -15 15 2
22 10 23 26 1 12 -3 22 -9 22 -5 0 -4 7 3 15 11 13 8 15 -16 15 -20 0 -25 -3
-15 -9z"/>
<path d="M1140 2479 c0 -27 2 -29 15 -15 8 8 15 22 15 30 0 9 -7 16 -15 16
-10 0 -15 -10 -15 -31z"/>
<path d="M689 2455 c5 -5 10 -17 13 -25 3 -10 6 -6 10 10 3 20 0 26 -13 26
-11 0 -15 -4 -10 -11z"/>
<path d="M798 2414 c19 -13 21 -18 10 -32 -9 -12 -6 -11 10 2 23 20 30 32 12
21 -5 -3 -10 -1 -10 4 0 14 13 14 28 -1 9 -9 12 -8 12 5 0 13 -9 17 -42 17
-42 0 -42 0 -20 -16z"/>
<path d="M774 2388 l-19 -23 23 19 c12 11 22 21 22 23 0 8 -8 2 -26 -19z"/>
<path d="M5808 2323 c2 -12 6 -23 7 -23 1 0 5 11 7 23 3 14 0 24 -7 24 -7 0
-10 -10 -7 -24z"/>
<path d="M5350 2314 c0 -23 2 -24 15 -10 8 8 15 19 15 25 0 6 -7 11 -15 11 -9
0 -15 -10 -15 -26z"/>
<path d="M5905 2296 c12 -9 16 -19 11 -31 -7 -18 -6 -18 14 0 21 19 27 30 10
20 -5 -3 -10 -1 -10 4 0 17 18 13 29 -6 9 -16 10 -16 11 5 0 19 -5 22 -42 22
-38 0 -40 -1 -23 -14z"/>
<path d="M5884 2268 l-19 -23 23 19 c12 11 22 21 22 23 0 8 -8 2 -26 -19z"/>
<path d="M1140 2274 c0 -23 2 -24 15 -10 8 8 15 19 15 25 0 6 -7 11 -15 11 -9
0 -15 -10 -15 -26z"/>
<path d="M690 2238 c0 -32 0 -32 16 -10 15 22 12 42 -7 42 -5 0 -9 -15 -9 -32z"/>
<path d="M795 2216 c12 -9 16 -19 11 -31 -7 -18 -6 -18 14 0 21 19 27 30 10
20 -5 -3 -10 -1 -10 4 0 17 18 13 29 -6 9 -16 10 -16 11 5 0 19 -5 22 -42 22
-38 0 -40 -1 -23 -14z"/>
<path d="M774 2188 l-19 -23 23 19 c12 11 22 21 22 23 0 8 -8 2 -26 -19z"/>
<path d="M3068 2203 c7 -3 16 -2 19 1 4 3 -2 6 -13 5 -11 0 -14 -3 -6 -6z"/>
<path d="M5802 2118 c4 -27 28 -37 28 -11 0 15 -2 16 -10 3 -8 -13 -10 -13
-10 2 0 9 6 19 13 21 7 3 4 6 -6 6 -13 1 -18 -5 -15 -21z"/>
<path d="M5350 2104 c0 -23 2 -24 15 -10 8 8 15 19 15 25 0 6 -7 11 -15 11 -9
0 -15 -10 -15 -26z"/>
<path d="M5908 2084 c19 -13 21 -18 10 -32 -9 -12 -6 -11 10 2 23 20 30 32 12
21 -5 -3 -10 -1 -10 4 0 14 13 14 28 -1 9 -9 12 -8 12 5 0 13 -9 17 -42 17
-42 0 -42 0 -20 -16z"/>
<path d="M5884 2058 l-19 -23 23 19 c21 18 27 26 19 26 -2 0 -12 -10 -23 -22z"/>
<path d="M3131 553 c-1 -31 1 -33 32 -33 20 0 27 3 19 9 -14 9 -13 32 3 43 6
4 2 8 -7 8 -13 0 -18 -8 -18 -25 0 -34 -18 -32 -23 3 -4 25 -4 25 -6 -5z"/>
<path d="M3200 550 c0 -21 4 -30 13 -27 6 2 12 14 12 27 0 13 -6 25 -12 28 -9
2 -13 -7 -13 -28z"/>
<path d="M2710 544 c0 -23 2 -24 15 -10 8 8 15 19 15 25 0 6 -7 11 -15 11 -9
0 -15 -10 -15 -26z"/>
<path d="M3265 526 c12 -9 16 -19 11 -31 -7 -18 -6 -18 14 0 21 19 27 30 10
20 -5 -3 -10 1 -10 9 0 10 -9 16 -22 16 -21 0 -21 -1 -3 -14z"/>
<path d="M3311 523 c7 -10 15 -20 16 -22 2 -2 3 5 3 17 0 14 -6 22 -16 22 -14
0 -15 -3 -3 -17z"/>
<path d="M2401 493 c0 -15 3 -22 6 -15 3 9 9 10 17 3 10 -8 12 -5 11 12 -1 12
-9 23 -18 25 -13 3 -17 -4 -16 -25z"/>
<path d="M3244 498 l-19 -23 23 19 c12 11 22 21 22 23 0 8 -8 2 -26 -19z"/>
<path d="M774 858 c2 -22 -1 -38 -7 -38 -6 0 -8 -2 -6 -5 3 -2 14 -2 26 1 17
5 21 13 21 42 0 27 -2 32 -8 17 -7 -19 -7 -19 -18 0 -10 17 -11 15 -8 -17z
m26 -18 c0 -5 -4 -10 -10 -10 -5 0 -10 5 -10 10 0 6 5 10 10 10 6 0 10 -4 10
-10z"/>
<path d="M785 800 c-3 -6 1 -7 9 -4 18 7 21 14 7 14 -6 0 -13 -4 -16 -10z"/>
<path d="M884 677 c3 -10 6 -24 7 -30 0 -7 5 -1 10 12 5 13 7 26 4 29 -3 3 -5
-1 -5 -9 0 -12 -2 -11 -11 1 -9 12 -10 12 -5 -3z"/>
<path d="M920 660 c0 -27 60 -30 61 -2 0 15 1 14 8 -2 7 -19 8 -19 13 2 5 17
2 22 -13 22 -11 0 -19 -7 -20 -17 0 -16 -1 -15 -8 2 -8 19 -8 19 -20 0 -10
-16 -11 -16 -7 -2 3 9 1 17 -4 17 -6 0 -10 -9 -10 -20z"/>
<path d="M760 545 c0 -9 9 -15 25 -15 16 0 25 6 25 15 0 9 -9 15 -25 15 -16 0
-25 -6 -25 -15z m37 -1 c-3 -3 -12 -4 -19 -1 -8 3 -5 6 6 6 11 1 17 -2 13 -5z"/>
<path d="M769 511 c11 -7 11 -9 0 -14 -8 -3 0 -6 16 -6 21 0 26 2 16 8 -11 7
-11 9 0 14 8 3 1 6 -16 6 -21 0 -26 -2 -16 -8z"/>
<path d="M760 468 c0 -17 18 -27 38 -21 17 6 15 33 -3 33 -8 0 -15 -5 -15 -11
0 -5 5 -7 12 -3 7 5 8 3 3 -6 -6 -10 -11 -9 -22 5 -11 16 -13 16 -13 3z"/>
<path d="M1723 830 c2 -8 0 -26 -5 -39 -7 -19 -6 -22 8 -17 8 3 19 6 24 6 5 0
8 14 8 31 -1 20 -4 26 -10 17 -6 -10 -10 -10 -19 2 -9 13 -10 13 -6 0z m27
-30 c0 -5 -4 -10 -10 -10 -5 0 -10 5 -10 10 0 6 5 10 10 10 6 0 10 -4 10 -10z"/>
<path d="M1735 760 c-3 -6 1 -7 9 -4 18 7 21 14 7 14 -6 0 -13 -4 -16 -10z"/>
<path d="M1834 637 c3 -10 6 -24 7 -30 0 -7 4 -3 8 8 8 19 8 19 15 -2 7 -23
26 -32 26 -13 0 6 -5 10 -12 10 -6 0 -8 3 -5 7 4 3 16 -2 27 -12 20 -19 21
-18 27 6 l7 24 6 -25 6 -25 6 28 c4 22 2 27 -13 27 -13 0 -19 -8 -20 -22 -1
-22 -1 -22 -7 -3 -4 12 -16 20 -27 20 -11 0 -23 5 -27 10 -5 6 -8 4 -8 -5 0
-13 -2 -13 -11 0 -9 12 -10 12 -5 -3z"/>
<path d="M1710 506 c0 -11 9 -16 26 -16 31 0 28 23 -4 28 -15 2 -22 -2 -22
-12z m37 -2 c-3 -3 -12 -4 -19 -1 -8 3 -5 6 6 6 11 1 17 -2 13 -5z"/>
<path d="M1719 471 c11 -7 11 -9 0 -14 -8 -3 0 -6 16 -6 21 0 26 2 16 8 -11 7
-11 9 0 14 8 3 1 6 -16 6 -21 0 -26 -2 -16 -8z"/>
<path d="M1714 420 c2 -21 40 -19 44 3 2 10 -3 17 -12 17 -9 0 -16 -5 -16 -11
0 -5 5 -7 12 -3 7 4 8 3 4 -4 -9 -16 -23 -15 -29 1 -2 7 -3 6 -3 -3z"/>
<path d="M4051 3936 c-1 -23 2 -26 13 -17 11 9 15 9 19 -1 3 -7 6 0 6 16 1 23
-2 26 -13 17 -11 -9 -15 -9 -19 1 -3 7 -6 0 -6 -16z"/>
<path d="M4104 3935 c0 -14 6 -25 12 -25 7 0 9 10 6 25 -6 32 -20 32 -18 0z"/>
<path d="M3530 3929 c0 -5 5 -7 10 -4 14 9 13 -8 -2 -23 -9 -9 -9 -12 3 -12 8
0 16 11 17 25 1 16 -3 25 -13 25 -8 0 -15 -5 -15 -11z"/>
<path d="M3000 3902 c0 -2 4 -12 10 -22 7 -13 21 -18 47 -17 21 0 30 2 20 5
-10 2 -16 9 -14 15 3 7 10 11 16 10 6 -2 11 1 11 6 0 5 -20 8 -45 8 -25 -1
-45 -3 -45 -5z m50 -23 c0 -5 -7 -9 -15 -9 -15 0 -20 12 -9 23 8 8 24 -1 24
-14z"/>
<path d="M2986 3877 c3 -10 9 -15 12 -12 3 3 0 11 -7 18 -10 9 -11 8 -5 -6z"/>
<path d="M4051 3856 c-1 -23 2 -26 13 -17 11 9 15 9 19 -1 3 -7 6 0 6 16 1 23
-2 26 -13 17 -11 -9 -15 -9 -19 1 -3 7 -6 0 -6 -16z"/>
<path d="M4137 3874 c-2 -3 -3 -14 0 -25 6 -23 53 -27 53 -5 0 23 -18 28 -30
9 -10 -16 -11 -16 -6 -1 5 17 -6 32 -17 22z"/>
<path d="M4250 3865 c0 -8 6 -15 13 -15 20 0 -15 -20 -37 -20 -13 0 -17 5 -13
20 3 11 1 20 -5 20 -5 0 -8 -10 -6 -22 2 -19 9 -23 33 -21 17 2 43 3 60 3 22
1 26 4 15 10 -11 7 -12 10 -2 10 7 0 10 5 6 11 -4 7 -10 7 -16 1 -6 -6 -17 -8
-26 -4 -13 5 -12 7 4 13 17 7 17 8 -3 8 -14 1 -23 -5 -23 -14z"/>
<path d="M1181 3838 c0 -18 3 -27 6 -20 3 9 9 10 17 3 9 -7 12 -3 11 17 0 17
-6 28 -17 30 -14 3 -18 -3 -17 -30z"/>
<path d="M4100 3851 c0 -12 6 -21 16 -21 9 0 14 7 12 17 -5 25 -28 28 -28 4z"/>
<path d="M4331 3846 c0 -20 1 -20 8 -1 8 19 8 19 19 0 8 -14 11 -15 12 -5 0
11 3 11 12 2 17 -17 28 -15 28 6 0 14 -8 18 -40 19 -35 1 -40 -2 -39 -21z"/>
<path d="M3012 3798 c4 -25 28 -37 28 -13 0 9 -4 13 -10 10 -5 -3 -10 -2 -10
4 0 5 6 12 13 14 7 3 4 6 -6 6 -13 1 -18 -5 -15 -21z"/>
<path d="M3051 3794 c0 -16 3 -23 6 -16 4 10 8 10 19 1 11 -9 14 -6 13 17 0
16 -3 23 -6 16 -4 -10 -8 -10 -19 -1 -11 9 -14 6 -13 -17z"/>
<path d="M3100 3794 c0 -31 23 -28 28 4 2 15 -2 22 -12 22 -11 0 -16 -9 -16
-26z"/>
<path d="M697 3623 c-13 -12 -7 -43 8 -43 8 0 15 5 15 10 0 6 -4 10 -10 10 -5
0 -10 5 -10 11 0 5 5 7 12 3 7 -4 8 -3 4 4 -8 14 -10 14 -19 5z"/>
<path d="M274 3605 c-3 -8 -3 -19 1 -25 8 -13 35 -13 35 1 0 6 -7 9 -15 5 -21
-8 -19 11 3 23 16 10 16 10 -1 11 -10 0 -20 -7 -23 -15z"/>
<path d="M321 3595 c0 -16 3 -24 6 -16 5 11 7 11 14 0 6 -10 8 -5 8 16 0 17
-3 24 -6 16 -5 -11 -7 -11 -14 0 -6 10 -8 5 -8 -16z"/>
<path d="M360 3596 c0 -17 5 -26 16 -26 10 0 14 7 12 22 -5 32 -28 35 -28 4z
m17 -8 c-3 -8 -6 -5 -6 6 -1 11 2 17 5 13 3 -3 4 -12 1 -19z"/>
<path d="M795 3576 c12 -9 16 -19 11 -31 -7 -18 -6 -18 14 0 21 19 27 30 10
20 -5 -3 -10 -1 -10 4 0 17 18 13 29 -6 9 -16 10 -16 11 5 0 19 -5 22 -42 22
-38 0 -40 -1 -23 -14z"/>
<path d="M774 3548 l-19 -23 23 19 c21 18 27 26 19 26 -2 0 -12 -10 -23 -22z"/>
<path d="M1140 3014 c0 -23 2 -24 15 -10 8 8 15 19 15 25 0 6 -7 11 -15 11 -9
0 -15 -10 -15 -26z"/>
<path d="M4770 3015 c0 -16 6 -25 15 -25 8 0 15 7 15 15 0 8 -6 15 -12 15 -9
0 -8 4 2 10 13 8 12 10 -2 10 -13 0 -18 -8 -18 -25z"/>
<path d="M4811 3015 c0 -16 3 -24 6 -16 5 11 7 11 14 0 6 -10 8 -5 8 16 0 17
-3 24 -6 16 -5 -11 -7 -11 -14 0 -6 10 -8 5 -8 -16z"/>
<path d="M4850 3015 c0 -26 24 -35 32 -12 7 18 -2 37 -18 37 -8 0 -14 -10 -14
-25z m25 6 c3 -5 1 -12 -5 -16 -5 -3 -10 1 -10 9 0 18 6 21 15 7z"/>
<path d="M4800 2915 l-23 -25 22 0 c22 0 22 -2 19 -88 -2 -55 1 -89 7 -89 6 0
9 34 7 88 -3 83 -2 88 18 91 22 3 22 3 -2 26 l-24 22 -24 -25z m40 0 c11 -13
8 -15 -15 -15 -23 0 -26 2 -15 15 7 8 14 15 15 15 1 0 8 -7 15 -15z"/>
<path d="M3048 2863 c7 -3 16 -2 19 1 4 3 -2 6 -13 5 -11 0 -14 -3 -6 -6z"/>
<path d="M3056 2835 c4 -8 8 -15 10 -15 2 0 4 7 4 15 0 8 -4 15 -10 15 -5 0
-7 -7 -4 -15z"/>
<path d="M232 2768 c2 -16 10 -23 26 -24 12 -1 22 3 22 9 0 5 7 4 15 -3 13
-11 15 -8 15 16 0 20 -3 25 -9 15 -6 -9 -11 -10 -15 -2 -5 8 -11 7 -20 -2 -8
-6 -12 -15 -9 -19 2 -5 -1 -8 -6 -8 -15 0 -14 27 2 33 7 3 4 6 -6 6 -14 1 -18
-5 -15 -21z"/>
<path d="M320 2764 c0 -31 23 -28 28 4 2 15 -2 22 -12 22 -11 0 -16 -9 -16
-26z m17 -6 c-3 -8 -6 -5 -6 6 -1 11 2 17 5 13 3 -3 4 -12 1 -19z"/>
<path d="M6172 2768 c4 -27 28 -37 28 -11 0 15 -2 16 -10 3 -8 -13 -10 -13
-10 2 0 9 6 19 13 21 7 3 4 6 -6 6 -13 1 -18 -5 -15 -21z"/>
<path d="M6211 2765 c0 -16 3 -24 6 -16 5 11 7 11 14 0 6 -10 8 -5 8 16 0 17
-3 24 -6 16 -5 -11 -7 -11 -14 0 -6 10 -8 5 -8 -16z"/>
<path d="M6250 2765 c0 -20 4 -26 18 -23 9 2 17 12 17 23 0 11 -8 21 -17 23
-14 3 -18 -3 -18 -23z m30 6 c0 -6 -4 -13 -10 -16 -5 -3 -10 1 -10 9 0 9 5 16
10 16 6 0 10 -4 10 -9z"/>
<path d="M4863 2645 c0 -49 2 -71 4 -48 4 39 7 42 36 46 l32 4 -32 1 c-30 2
-32 5 -36 45 -2 23 -4 2 -4 -48z"/>
<path d="M4520 2695 c0 -8 6 -15 13 -15 8 0 7 -4 -3 -10 -13 -8 -12 -10 3 -10
17 0 24 24 10 33 -5 2 -2 2 5 1 6 -2 12 1 12 6 0 6 -9 10 -20 10 -11 0 -20 -7
-20 -15z"/>
<path d="M4590 2702 c0 -7 -5 -11 -12 -9 -6 1 -14 -6 -16 -16 -5 -23 21 -18
31 7 4 10 5 21 2 24 -3 3 -5 0 -5 -6z"/>
<path d="M4640 2691 c0 -12 -8 -21 -22 -24 l-23 -4 23 -2 c24 -1 52 19 52 38
0 6 -7 11 -15 11 -8 0 -15 -9 -15 -19z"/>
<path d="M4751 2684 c0 -25 2 -26 8 -9 l8 20 5 -20 c4 -14 6 -15 7 -4 0 9 -6
22 -14 29 -13 11 -15 8 -14 -16z"/>
<path d="M4681 2683 c-1 -19 4 -23 28 -23 23 0 29 4 28 19 -1 23 -37 24 -38 1
0 -10 -3 -9 -9 5 -8 19 -9 19 -9 -2z"/>
<path d="M690 2655 c0 -16 6 -25 15 -25 18 0 20 16 3 23 -10 4 -9 8 2 16 13 9
13 11 -2 11 -13 0 -18 -8 -18 -25z"/>
<path d="M795 2626 c12 -9 16 -19 11 -31 -7 -18 -6 -18 14 0 21 19 27 30 10
20 -5 -3 -10 -1 -10 4 0 17 18 13 29 -6 9 -16 10 -16 11 5 0 19 -5 22 -42 22
-38 0 -40 -1 -23 -14z"/>
<path d="M4660 2615 c0 -8 6 -15 13 -15 8 0 7 -4 -3 -10 -13 -8 -12 -10 3 -10
9 0 17 7 17 15 0 8 -6 15 -12 15 -9 0 -8 4 2 10 13 8 12 10 -2 10 -10 0 -18
-7 -18 -15z"/>
<path d="M4703 2617 c4 -10 7 -23 7 -28 0 -5 5 -9 10 -9 6 0 10 7 10 15 0 8 7
15 15 15 18 0 20 -16 3 -23 -7 -3 -3 -6 8 -6 17 -1 20 4 17 22 -4 22 -43 34
-43 14 0 -5 -8 -3 -17 4 -15 12 -16 12 -10 -4z"/>
<path d="M774 2598 l-19 -23 23 19 c21 18 27 26 19 26 -2 0 -12 -10 -23 -22z"/>
<path d="M5350 2528 c0 -14 6 -25 14 -25 16 0 16 39 -1 45 -8 2 -13 -6 -13
-20z"/>
<path d="M5800 2524 c0 -23 2 -24 15 -10 8 8 15 19 15 25 0 6 -7 11 -15 11 -9
0 -15 -10 -15 -26z"/>
<path d="M5905 2506 c12 -9 16 -19 11 -31 -7 -18 -6 -18 14 0 21 19 27 30 10
20 -5 -3 -10 -1 -10 4 0 17 18 13 29 -6 9 -16 10 -16 11 5 0 19 -5 22 -42 22
-38 0 -40 -1 -23 -14z"/>
<path d="M5884 2478 l-19 -23 23 19 c12 11 22 21 22 23 0 8 -8 2 -26 -19z"/>
<path d="M4440 2116 c0 -2 7 -6 15 -10 8 -3 15 -1 15 4 0 6 -7 10 -15 10 -8 0
-15 -2 -15 -4z"/>
<path d="M1140 2064 c0 -23 2 -24 15 -10 8 8 15 19 15 25 0 6 -7 11 -15 11 -9
0 -15 -10 -15 -26z"/>
<path d="M4408 1873 c7 -3 16 -2 19 1 4 3 -2 6 -13 5 -11 0 -14 -3 -6 -6z"/>
<path d="M4440 1869 c0 -6 7 -17 15 -25 13 -14 15 -14 15 0 0 9 -6 16 -12 16
-9 0 -8 4 2 10 13 8 12 10 -2 10 -10 0 -18 -5 -18 -11z"/>
<path d="M4416 1845 c4 -8 8 -15 10 -15 2 0 4 7 4 15 0 8 -4 15 -10 15 -5 0
-7 -7 -4 -15z"/>
<path d="M234 1835 c-9 -23 3 -44 25 -42 22 1 36 36 21 51 -7 7 -10 4 -10 -6
0 -9 -7 -18 -15 -22 -8 -3 -15 -1 -15 4 0 6 5 10 10 10 6 0 10 5 10 10 0 16
-20 12 -26 -5z"/>
<path d="M296 1828 c-3 -13 -1 -27 4 -32 7 -7 10 1 10 22 0 37 -5 41 -14 10z"/>
<path d="M320 1820 c0 -21 4 -30 13 -27 6 2 12 14 12 27 0 13 -6 25 -12 28 -9
2 -13 -7 -13 -28z"/>
<path d="M4408 1703 c7 -3 16 -2 19 1 4 3 -2 6 -13 5 -11 0 -14 -3 -6 -6z"/>
<path d="M4408 1623 c7 -3 16 -2 19 1 4 3 -2 6 -13 5 -11 0 -14 -3 -6 -6z"/>
<path d="M851 1573 c0 -15 3 -22 6 -15 3 9 9 10 18 2 9 -8 12 -5 11 12 -1 13
-8 24 -18 26 -14 3 -18 -3 -17 -25z"/>
<path d="M3078 1543 c6 -2 18 -2 25 0 6 3 1 5 -13 5 -14 0 -19 -2 -12 -5z"/>
<path d="M4408 1543 c7 -3 16 -2 19 1 4 3 -2 6 -13 5 -11 0 -14 -3 -6 -6z"/>
<path d="M4416 1515 c4 -8 8 -15 10 -15 2 0 4 7 4 15 0 8 -4 15 -10 15 -5 0
-7 -7 -4 -15z"/>
<path d="M1800 1489 c0 -27 2 -29 15 -15 8 8 15 22 15 30 0 9 -7 16 -15 16
-10 0 -15 -10 -15 -31z"/>
<path d="M4408 1373 c7 -3 16 -2 19 1 4 3 -2 6 -13 5 -11 0 -14 -3 -6 -6z"/>
<path d="M4448 1373 c7 -3 16 -2 19 1 4 3 -2 6 -13 5 -11 0 -14 -3 -6 -6z"/>
<path d="M851 1283 c0 -15 3 -22 6 -15 3 9 9 10 17 3 10 -8 12 -5 11 12 -1 12
-9 23 -18 25 -13 3 -17 -4 -16 -25z"/>
<path d="M1800 1204 c0 -23 2 -24 15 -10 8 8 15 19 15 25 0 6 -7 11 -15 11 -9
0 -15 -10 -15 -26z"/>
<path d="M320 1090 c0 -3 4 -12 10 -20 10 -16 80 -24 80 -9 0 5 -5 8 -11 7 -6
-2 -13 2 -16 9 -2 6 4 13 14 16 10 2 -3 4 -29 3 -27 0 -48 -3 -48 -6z m48 -11
c-2 -6 -8 -10 -13 -10 -5 0 -11 4 -13 10 -2 6 4 11 13 11 9 0 15 -5 13 -11z"/>
<path d="M306 1067 c3 -10 9 -15 12 -12 3 3 0 11 -7 18 -10 9 -11 8 -5 -6z"/>
<path d="M1279 1038 c6 -18 17 -23 47 -24 22 -1 31 1 22 3 -10 2 -18 11 -18
18 0 7 8 16 18 18 9 3 -4 5 -30 6 -45 1 -47 0 -39 -21z m41 -3 c0 -8 -7 -15
-15 -15 -8 0 -15 7 -15 15 0 8 7 15 15 15 8 0 15 -7 15 -15z"/>
<path d="M1255 1029 c-4 -6 -5 -12 -2 -15 2 -3 7 2 10 11 7 17 1 20 -8 4z"/>
<path d="M3841 973 c-1 -6 -3 -18 -6 -26 -4 -8 0 -14 10 -14 17 0 17 3 5 32
-5 11 -9 15 -9 8z"/>
<path d="M3879 978 c-6 -20 -3 -48 6 -48 8 0 10 10 7 25 -4 21 -10 32 -13 23z"/>
<path d="M3830 873 c0 -20 3 -24 9 -14 6 9 11 10 15 2 10 -15 46 -14 46 2 0
11 -43 37 -62 37 -4 0 -8 -12 -8 -27z"/>
<path d="M3980 876 c0 -16 6 -26 15 -26 8 0 15 5 15 11 0 6 -7 17 -15 25 -13
14 -15 13 -15 -10z"/>
<path d="M4140 874 c0 -23 2 -24 15 -10 8 8 15 19 15 25 0 6 -7 11 -15 11 -9
0 -15 -10 -15 -26z"/>
<path d="M4184 870 c1 -32 32 -38 57 -11 23 24 24 41 4 41 -9 0 -15 -9 -15
-25 0 -33 -37 -35 -43 -2 -3 19 -4 19 -3 -3z"/>
<path d="M4272 875 c0 -16 2 -22 5 -12 2 9 2 23 0 30 -3 6 -5 -1 -5 -18z"/>
<path d="M4394 887 c3 -10 6 -22 6 -26 0 -4 7 -8 15 -8 8 0 15 4 15 8 0 4 3
16 6 26 4 13 3 14 -4 5 -5 -8 -13 -14 -17 -14 -4 0 -12 6 -17 14 -7 9 -8 8 -4
-5z"/>
<path d="M3910 865 c0 -8 7 -15 15 -15 8 0 15 -5 15 -11 0 -6 7 -4 15 5 8 8
15 19 15 25 0 15 -27 14 -33 -1 -4 -10 -6 -10 -6 0 -1 17 -21 15 -21 -3z"/>
<path d="M4020 865 c0 -17 30 -17 43 0 4 6 11 4 17 -5 6 -10 10 -11 10 -2 0 6
5 12 11 12 6 0 9 -9 6 -20 -3 -11 -2 -20 3 -20 4 0 10 11 12 23 4 22 1 24 -49
26 -43 2 -53 -1 -53 -14z"/>
<path d="M4290 866 c0 -13 87 -32 98 -21 3 3 -4 5 -16 5 -13 0 -22 6 -22 15 0
10 -10 15 -30 15 -19 0 -30 -5 -30 -14z"/>
<path d="M3131 758 c-1 -25 2 -28 32 -28 21 0 28 3 19 9 -8 4 -14 12 -14 16 0
4 6 12 14 16 10 7 9 9 -4 9 -11 0 -18 -8 -18 -20 0 -27 -18 -25 -23 3 -4 19
-4 18 -6 -5z"/>
<path d="M3200 754 c0 -31 23 -28 28 4 2 15 -2 22 -12 22 -11 0 -16 -9 -16
-26z m17 -6 c-3 -8 -6 -5 -6 6 -1 11 2 17 5 13 3 -3 4 -12 1 -19z"/>
<path d="M2710 744 c0 -23 2 -24 15 -10 8 8 15 19 15 25 0 6 -7 11 -15 11 -9
0 -15 -10 -15 -26z"/>
<path d="M3268 724 c19 -13 21 -18 10 -32 -7 -10 -1 -7 13 6 14 12 29 19 32
15 4 -3 7 1 7 10 0 10 -7 17 -16 17 -8 0 -13 -4 -9 -9 3 -5 1 -12 -5 -16 -5
-3 -10 1 -10 9 0 10 -9 16 -22 16 l-22 0 22 -16z"/>
<path d="M581 708 c-1 -19 4 -28 14 -28 10 0 15 9 14 28 -2 27 -2 27 -7 2 l-5
-25 -8 25 -7 25 -1 -27z"/>
<path d="M633 723 c18 -5 18 -6 1 -24 -16 -18 -16 -19 7 -19 17 0 20 3 10 9
-9 6 -10 11 -2 15 15 10 4 26 -17 25 -15 -1 -14 -2 1 -6z"/>
<path d="M2456 715 c-3 -9 -6 -22 -5 -28 0 -7 5 -1 10 12 5 13 8 26 5 28 -2 2
-6 -3 -10 -12z"/>
<path d="M3244 698 l-19 -23 23 19 c21 18 27 26 19 26 -2 0 -12 -10 -23 -22z"/>
<path d="M1531 668 c-1 -19 4 -28 14 -28 10 0 15 9 14 28 -2 27 -2 27 -7 2
l-5 -25 -8 25 -7 25 -1 -27z"/>
<path d="M1579 688 c-6 -20 -3 -48 6 -48 8 0 10 10 7 25 -4 21 -10 32 -13 23z"/>
<path d="M362 626 l-10 -24 112 2 c95 1 112 3 112 17 0 9 -6 16 -12 16 -7 0
-10 -7 -7 -16 3 -9 -5 -5 -17 9 -14 16 -20 19 -16 8 3 -12 1 -15 -10 -11 -7 3
-14 9 -14 14 0 18 -21 8 -30 -13 l-9 -23 0 22 c-1 17 -5 21 -18 16 -11 -4 -12
-8 -5 -11 17 -5 15 -22 -3 -22 -8 0 -15 9 -15 20 0 14 -5 18 -16 13 -12 -4
-13 -7 -3 -14 18 -10 6 -21 -14 -13 -9 3 -13 12 -10 20 9 24 -3 16 -15 -10z
m133 5 c3 -5 1 -12 -5 -16 -5 -3 -10 1 -10 9 0 18 6 21 15 7z"/>
<path d="M591 628 c-1 -22 4 -28 19 -28 11 0 20 6 20 13 0 8 4 7 10 -3 7 -12
10 -8 10 15 0 21 -3 26 -9 16 -7 -11 -9 -11 -14 0 -3 8 -6 4 -6 -8 -1 -13 -5
-23 -10 -23 -5 0 -12 10 -14 23 -4 19 -4 18 -6 -5z"/>
<path d="M1313 587 c-11 -23 -10 -23 63 -26 73 -2 74 -2 74 23 0 31 -20 35
-27 6 -7 -26 -23 -26 -23 1 0 11 -4 18 -10 14 -5 -3 -7 -12 -3 -20 3 -9 -1
-15 -11 -15 -9 0 -16 8 -16 21 0 11 -4 18 -10 14 -5 -3 -7 -12 -3 -20 4 -11 1
-13 -10 -9 -9 3 -13 12 -10 20 9 23 -3 16 -14 -9z m124 -9 c-3 -8 -6 -5 -6 6
-1 11 2 17 5 13 3 -3 4 -12 1 -19z"/>
<path d="M1466 594 c-9 -23 -4 -26 51 -30 26 -1 42 -1 36 2 -7 3 -13 15 -13
27 0 17 -2 19 -9 7 -6 -8 -7 -19 -3 -25 3 -5 -2 -4 -11 4 -9 7 -17 10 -17 5 0
-5 -7 -1 -14 9 -13 16 -14 16 -20 1z"/>
<path d="M1571 585 c0 -16 3 -24 6 -16 5 11 7 11 14 0 6 -10 8 -5 8 16 0 17
-3 24 -6 16 -5 -11 -7 -11 -14 0 -6 10 -8 5 -8 -16z"/>
<path d="M3537 193 c-13 -12 -7 -43 8 -43 8 0 15 5 15 11 0 5 -4 7 -10 4 -5
-3 -10 -1 -10 4 0 6 5 11 10 11 6 0 10 5 10 10 0 11 -13 13 -23 3z"/>
<path d="M3571 174 c0 -16 3 -23 6 -16 4 10 8 10 19 1 11 -9 14 -6 13 17 0 16
-3 23 -6 16 -4 -10 -8 -10 -19 -1 -11 9 -14 6 -13 -17z"/>
<path d="M3620 176 c0 -17 5 -26 16 -26 10 0 14 7 12 22 -5 32 -28 35 -28 4z"/>
<path d="M1676 101 c-9 -14 4 -41 20 -41 8 0 14 7 14 15 0 8 -5 15 -11 15 -5
0 -7 -5 -3 -12 5 -7 3 -8 -6 -3 -10 6 -9 11 5 22 16 11 17 13 3 13 -9 0 -19
-4 -22 -9z"/>
<path d="M1721 85 c0 -16 3 -24 6 -16 5 11 7 11 14 0 6 -10 8 -5 8 16 0 17 -3
24 -6 16 -5 -11 -7 -11 -14 0 -6 10 -8 5 -8 -16z"/>
<path d="M1760 85 c0 -16 6 -25 15 -25 9 0 15 9 15 25 0 16 -6 25 -15 25 -9 0
-15 -9 -15 -25z m17 -7 c-3 -8 -6 -5 -6 6 -1 11 2 17 5 13 3 -3 4 -12 1 -19z"/>
<path d="M730 45 c0 -16 6 -25 15 -25 8 0 15 7 15 15 0 8 -6 15 -12 15 -9 0
-8 4 2 10 13 8 12 10 -2 10 -13 0 -18 -8 -18 -25z"/>
<path d="M771 45 c0 -17 3 -24 6 -16 5 11 7 11 14 0 6 -10 8 -5 8 16 0 17 -3
24 -6 16 -5 -11 -7 -11 -14 0 -6 10 -8 5 -8 -16z"/>
<path d="M810 45 c0 -26 24 -35 32 -12 7 18 -2 37 -18 37 -8 0 -14 -10 -14
-25z m25 6 c3 -5 1 -12 -5 -16 -5 -3 -10 1 -10 9 0 18 6 21 15 7z"/>
</g>
</svg>
