<?xml version="1.0" encoding="UTF-8"?>
<svg xmlns="http://www.w3.org/2000/svg" xmlns:xlink="http://www.w3.org/1999/xlink" width="px" height="px" viewBox="0 0 256 192" version="1.1">
<g id="surface1">
<path style=" stroke:none;fill-rule:nonzero;fill:rgb(0%,0%,0%);fill-opacity:1;" d="M 97.925781 48.050781 C 97.324219 48.398438 96.800781 49 96.425781 49.75 L 95.875 50.875 L 95.875 141.125 L 96.449219 142.273438 C 96.800781 143.023438 97.324219 143.601562 97.976562 143.949219 L 98.949219 144.5 L 157.050781 144.5 L 158.023438 143.949219 C 158.675781 143.601562 159.199219 143.023438 159.550781 142.273438 L 160.125 141.125 L 160.375 96.625 L 162.175781 96.550781 C 164.226562 96.476562 164.175781 96.425781 164.300781 98.898438 L 164.375 100.175781 L 167.625 98.574219 C 169.398438 97.699219 171.273438 96.875 171.75 96.773438 C 172.449219 96.625 172.625 96.476562 172.625 96 C 172.625 95.5 172.449219 95.375 171.75 95.226562 C 171.273438 95.125 169.398438 94.300781 167.625 93.398438 C 165.824219 92.5 164.351562 91.75 164.324219 91.75 C 164.273438 91.75 164.25 92.449219 164.25 93.300781 C 164.25 94.175781 164.148438 95.023438 164.023438 95.199219 C 163.898438 95.425781 163.324219 95.5 162.101562 95.449219 L 160.375 95.375 L 160.125 50.875 L 159.550781 49.726562 C 159.199219 48.976562 158.675781 48.398438 158.023438 48.050781 L 157.050781 47.5 L 98.875 47.5 Z M 158.199219 49 C 158.5 49.273438 158.949219 49.875 159.175781 50.324219 C 159.601562 51.074219 159.625 53.675781 159.699219 95.476562 C 159.726562 125.925781 159.675781 140.101562 159.5 140.773438 C 159.351562 141.324219 158.875 142.148438 158.476562 142.625 L 157.699219 143.5 L 128.023438 143.5 C 98.550781 143.5 98.351562 143.5 97.800781 143 C 97.5 142.726562 97.050781 142.125 96.824219 141.675781 C 96.398438 140.925781 96.375 138.375 96.375 96 C 96.375 53.625 96.398438 51.074219 96.824219 50.324219 C 97.050781 49.875 97.5 49.273438 97.800781 49 C 98.351562 48.5 98.550781 48.5 128 48.5 C 157.449219 48.5 157.648438 48.5 158.199219 49 Z M 158.199219 49 "/>
<path style=" stroke:none;fill-rule:nonzero;fill:rgb(0%,0%,0%);fill-opacity:1;" d="M 128.550781 58.925781 C 128.601562 61.375 128.699219 62.375 128.949219 62.449219 C 129.175781 62.523438 129.25 61.726562 129.25 59.023438 C 129.25 56.023438 129.199219 55.5 128.875 55.5 C 128.550781 55.5 128.5 56 128.550781 58.925781 Z M 128.550781 58.925781 "/>
<path style=" stroke:none;fill-rule:nonzero;fill:rgb(0%,0%,0%);fill-opacity:1;" d="M 136.625 56.050781 C 136.550781 56.375 136.523438 57.925781 136.550781 59.5 C 136.601562 61.851562 136.699219 62.375 137 62.375 C 137.300781 62.375 137.375 61.800781 137.449219 58.925781 C 137.5 56 137.449219 55.5 137.125 55.5 C 136.925781 55.5 136.699219 55.75 136.625 56.050781 Z M 136.625 56.050781 "/>
<path style=" stroke:none;fill-rule:nonzero;fill:rgb(0%,0%,0%);fill-opacity:1;" d="M 145.898438 55.898438 C 145.675781 56.5 145.726562 61.824219 145.976562 62.226562 C 146.324219 62.773438 146.75 62.300781 146.75 61.375 C 146.75 60.125 147.125 60.125 147.625 61.375 C 147.851562 62 148.199219 62.5 148.398438 62.5 C 148.898438 62.5 148.851562 61.925781 148.226562 60.476562 C 147.824219 59.601562 147.75 59.148438 147.949219 58.925781 C 148.101562 58.75 148.324219 58.300781 148.476562 57.925781 C 148.851562 56.949219 148.125 57 147.550781 58 C 147.324219 58.398438 147.050781 58.75 146.949219 58.75 C 146.824219 58.75 146.75 58.023438 146.75 57.125 C 146.75 55.898438 146.675781 55.5 146.398438 55.5 C 146.199219 55.5 145.976562 55.675781 145.898438 55.898438 Z M 145.898438 55.898438 "/>
<path style=" stroke:none;fill-rule:nonzero;fill:rgb(0%,0%,0%);fill-opacity:1;" d="M 108.023438 56.398438 C 106.476562 58.375 107.425781 62.5 109.449219 62.5 C 110.25 62.5 111.25 61.699219 111.25 61.023438 C 111.25 60.25 110.925781 60.226562 110.226562 60.898438 C 109.675781 61.425781 109.476562 61.5 109.023438 61.273438 C 108.074219 60.75 108 57.726562 108.925781 57.074219 C 109.5 56.648438 109.675781 56.675781 110.25 57.25 C 110.523438 57.523438 110.875 57.75 111 57.75 C 111.425781 57.75 111.273438 56.773438 110.75 56.25 C 110.023438 55.523438 108.675781 55.574219 108.023438 56.398438 Z M 108.023438 56.398438 "/>
<path style=" stroke:none;fill-rule:nonzero;fill:rgb(0%,0%,0%);fill-opacity:1;" d="M 132.050781 59.050781 L 132.125 62.375 L 133.550781 62.375 C 134.523438 62.375 135.125 62.226562 135.398438 61.949219 C 135.925781 61.425781 135.949219 59.851562 135.449219 59.351562 C 135.101562 59 135.101562 58.875 135.398438 58.273438 C 135.851562 57.398438 135.851562 57.175781 135.226562 56.398438 C 134.773438 55.851562 134.523438 55.75 133.351562 55.75 L 131.976562 55.75 Z M 134.574219 57.300781 C 134.925781 57.851562 134.398438 58.5 133.601562 58.5 C 133.101562 58.5 133 58.375 133 57.800781 C 133 57.398438 133.074219 57 133.175781 56.898438 C 133.476562 56.625 134.300781 56.851562 134.574219 57.300781 Z M 134.75 59.875 C 135.175781 60.375 134.824219 61.175781 134.101562 61.351562 C 133.25 61.574219 133 61.351562 133 60.351562 C 133 59.574219 133.074219 59.5 133.726562 59.5 C 134.125 59.5 134.574219 59.675781 134.75 59.875 Z M 134.75 59.875 "/>
<path style=" stroke:none;fill-rule:nonzero;fill:rgb(0%,0%,0%);fill-opacity:1;" d="M 119.925781 57.050781 C 119.625 57.601562 119.550781 57.898438 119.75 58.101562 C 119.875 58.226562 120 59.148438 120 60.148438 C 120 62.023438 120.351562 62.699219 121.125 62.398438 C 121.550781 62.25 121.648438 61.5 121.25 61.5 C 120.925781 61.5 120.925781 58.425781 121.25 58.101562 C 121.5 57.851562 120.898438 56.25 120.550781 56.25 C 120.449219 56.25 120.175781 56.601562 119.925781 57.050781 Z M 119.925781 57.050781 "/>
<path style=" stroke:none;fill-rule:nonzero;fill:rgb(0%,0%,0%);fill-opacity:1;" d="M 112.5 57.75 C 111.726562 58.523438 111.773438 61.199219 112.574219 61.949219 C 113.351562 62.675781 114.101562 62.648438 114.726562 61.851562 C 115.574219 60.773438 115.375 58.101562 114.398438 57.449219 C 113.898438 57.101562 113 57.25 112.5 57.75 Z M 114.199219 59.824219 C 114.25 60.949219 114.199219 61.300781 113.875 61.398438 C 113.25 61.648438 112.925781 61.125 112.925781 59.925781 C 112.925781 58.648438 113.148438 58.199219 113.699219 58.300781 C 114.023438 58.351562 114.148438 58.726562 114.199219 59.824219 Z M 114.199219 59.824219 "/>
<path style=" stroke:none;fill-rule:nonzero;fill:rgb(0%,0%,0%);fill-opacity:1;" d="M 116.101562 57.574219 C 115.851562 58.273438 116.125 62.324219 116.449219 62.449219 C 116.648438 62.5 116.75 62.199219 116.75 61.324219 C 116.75 59.949219 117.175781 58.25 117.5 58.25 C 117.898438 58.25 118.101562 58.851562 118.25 60.601562 C 118.324219 61.648438 118.5 62.375 118.699219 62.449219 C 119.074219 62.574219 119.125 58.449219 118.75 57.726562 C 118.449219 57.175781 117.75 57.101562 117.273438 57.550781 C 117 57.800781 116.925781 57.800781 116.824219 57.550781 C 116.675781 57.148438 116.273438 57.175781 116.101562 57.574219 Z M 116.101562 57.574219 "/>
<path style=" stroke:none;fill-rule:nonzero;fill:rgb(0%,0%,0%);fill-opacity:1;" d="M 122.101562 57.574219 C 122.023438 57.773438 122 58.925781 122.050781 60.148438 C 122.101562 61.925781 122.199219 62.375 122.5 62.375 C 122.800781 62.375 122.898438 61.976562 122.949219 60.574219 C 123 59.074219 123.101562 58.699219 123.5 58.5 C 124.074219 58.175781 124.175781 57.25 123.625 57.25 C 123.425781 57.25 123.25 57.375 123.25 57.550781 C 123.25 57.773438 123.175781 57.773438 122.949219 57.550781 C 122.550781 57.148438 122.273438 57.175781 122.101562 57.574219 Z M 122.101562 57.574219 "/>
<path style=" stroke:none;fill-rule:nonzero;fill:rgb(0%,0%,0%);fill-opacity:1;" d="M 125.199219 57.523438 C 124.625 57.851562 124.175781 59.574219 124.375 60.574219 C 124.648438 61.851562 125.175781 62.5 125.976562 62.5 C 127.023438 62.5 127.574219 61.726562 127.699219 60.050781 C 127.773438 58.875 127.699219 58.5 127.25 57.925781 C 126.699219 57.226562 125.949219 57.074219 125.199219 57.523438 Z M 126.601562 58.648438 C 126.675781 58.875 126.75 59.425781 126.75 59.875 C 126.75 60.949219 126.523438 61.5 126.101562 61.5 C 125.675781 61.5 125.25 60.699219 125.25 59.875 C 125.25 58.574219 126.226562 57.675781 126.601562 58.648438 Z M 126.601562 58.648438 "/>
<path style=" stroke:none;fill-rule:nonzero;fill:rgb(0%,0%,0%);fill-opacity:1;" d="M 138.773438 57.898438 C 137.625 59.351562 138.375 62.5 139.851562 62.5 C 141.023438 62.5 141.601562 61.324219 141.523438 59.050781 C 141.476562 57.398438 139.75 56.675781 138.773438 57.898438 Z M 140.523438 58.925781 C 140.925781 59.925781 140.523438 61.375 139.875 61.375 C 139.449219 61.375 139.375 61.175781 139.300781 60.148438 C 139.25 59.476562 139.273438 58.773438 139.351562 58.601562 C 139.574219 58.023438 140.25 58.199219 140.523438 58.925781 Z M 140.523438 58.925781 "/>
<path style=" stroke:none;fill-rule:nonzero;fill:rgb(0%,0%,0%);fill-opacity:1;" d="M 142.574219 57.898438 C 141.574219 59.425781 142.273438 62.5 143.625 62.5 C 144.425781 62.5 145.375 61.324219 144.949219 60.824219 C 144.699219 60.523438 144.601562 60.550781 144.199219 61.050781 C 143.75 61.625 143.726562 61.625 143.375 61.148438 C 142.875 60.5 142.898438 58.898438 143.398438 58.476562 C 143.75 58.199219 143.851562 58.199219 144.125 58.574219 C 144.523438 59.148438 145 59.125 145 58.523438 C 145 57.25 143.300781 56.824219 142.574219 57.898438 Z M 142.574219 57.898438 "/>
<path style=" stroke:none;fill-rule:nonzero;fill:rgb(0%,0%,0%);fill-opacity:1;" d="M 110.273438 71.800781 C 109.699219 72.699219 109.601562 76.175781 110.101562 77.351562 C 110.601562 78.550781 110.875 78.375 110.523438 77.074219 C 110.175781 75.851562 110.175781 73.550781 110.523438 72.550781 C 110.875 71.523438 110.726562 71.074219 110.273438 71.800781 Z M 110.273438 71.800781 "/>
<path style=" stroke:none;fill-rule:nonzero;fill:rgb(0%,0%,0%);fill-opacity:1;" d="M 138.5 73.976562 C 138.5 75.648438 138.601562 76.75 138.75 76.75 C 138.898438 76.75 139 75.726562 139 74.148438 C 139 72.675781 138.898438 71.449219 138.75 71.375 C 138.601562 71.273438 138.5 72.199219 138.5 73.976562 Z M 138.5 73.976562 "/>
<path style=" stroke:none;fill-rule:nonzero;fill:rgb(0%,0%,0%);fill-opacity:1;" d="M 145.375 71.875 C 145.726562 73.476562 145.800781 75.800781 145.523438 76.898438 C 145.148438 78.375 145.375 78.625 145.898438 77.351562 C 146.449219 76.050781 146.300781 72.625 145.648438 71.726562 L 145.199219 71.125 Z M 145.375 71.875 "/>
<path style=" stroke:none;fill-rule:nonzero;fill:rgb(0%,0%,0%);fill-opacity:1;" d="M 111.800781 71.800781 C 111.074219 72.523438 111.875 74.5 112.898438 74.5 C 113.398438 74.5 113.800781 75.199219 113.625 75.75 C 113.425781 76.351562 112.601562 76.398438 111.949219 75.824219 C 111.5 75.425781 111.375 75.625 111.648438 76.351562 C 111.898438 76.976562 113.648438 76.898438 114 76.25 C 114.523438 75.25 114.199219 74.425781 113.050781 73.800781 C 112.226562 73.351562 112 73.074219 112.050781 72.675781 C 112.148438 71.976562 112.898438 71.824219 113.523438 72.398438 C 114 72.824219 114.125 72.625 113.851562 71.898438 C 113.675781 71.425781 112.25 71.351562 111.800781 71.800781 Z M 111.800781 71.800781 "/>
<path style=" stroke:none;fill-rule:nonzero;fill:rgb(0%,0%,0%);fill-opacity:1;" d="M 114.5 71.75 C 114.5 71.875 114.773438 72 115.125 72 C 115.75 72 115.75 72 115.75 74.375 C 115.75 77.449219 116.199219 77.5 116.300781 74.425781 C 116.375 72.25 116.398438 72.125 116.949219 72.050781 C 118.101562 71.875 117.449219 71.5 116 71.5 C 115.175781 71.5 114.5 71.601562 114.5 71.75 Z M 114.5 71.75 "/>
<path style=" stroke:none;fill-rule:nonzero;fill:rgb(0%,0%,0%);fill-opacity:1;" d="M 118 74.125 C 118 75.699219 118.101562 76.75 118.25 76.75 C 118.398438 76.75 118.5 75.976562 118.523438 74.925781 C 118.550781 73.050781 118.625 73.101562 119.25 75.550781 C 119.425781 76.226562 119.648438 76.75 119.75 76.75 C 119.875 76.75 120.101562 76.148438 120.25 75.425781 C 120.75 73.324219 120.976562 73.199219 121 75.050781 C 121 76.023438 121.101562 76.75 121.25 76.75 C 121.398438 76.75 121.5 75.699219 121.5 74.125 C 121.5 72.023438 121.425781 71.5 121.148438 71.5 C 120.898438 71.5 120.625 72.175781 120.300781 73.550781 L 119.824219 75.625 L 119.425781 74.375 C 119.226562 73.675781 118.949219 72.75 118.875 72.300781 C 118.773438 71.851562 118.550781 71.5 118.351562 71.5 C 118.074219 71.5 118 72.023438 118 74.125 Z M 118 74.125 "/>
<path style=" stroke:none;fill-rule:nonzero;fill:rgb(0%,0%,0%);fill-opacity:1;" d="M 122.550781 71.800781 C 122.375 71.976562 122.25 72.324219 122.25 72.574219 C 122.25 73.023438 122.300781 73 122.699219 72.5 C 122.976562 72.175781 123.300781 72 123.449219 72.101562 C 123.875 72.351562 123.824219 73.5 123.375 73.648438 C 122.898438 73.851562 122.875 74.5 123.351562 74.5 C 123.773438 74.5 124.050781 75.175781 123.875 75.773438 C 123.675781 76.375 123.300781 76.375 122.675781 75.824219 C 122.226562 75.398438 122.199219 75.398438 122.273438 76 C 122.351562 76.476562 122.550781 76.648438 123.074219 76.699219 C 124.324219 76.851562 124.898438 75.726562 124.25 74.476562 C 124.050781 74.148438 124.074219 73.851562 124.25 73.476562 C 124.898438 72.273438 123.476562 70.875 122.550781 71.800781 Z M 122.550781 71.800781 "/>
<path style=" stroke:none;fill-rule:nonzero;fill:rgb(0%,0%,0%);fill-opacity:1;" d="M 125.25 72.023438 C 124.875 72.699219 125.199219 73 125.625 72.398438 C 126.074219 71.800781 126.75 72.050781 126.75 72.800781 C 126.75 73.125 126.351562 74 125.875 74.75 C 124.726562 76.550781 124.75 76.75 126.125 76.75 C 126.75 76.75 127.25 76.625 127.25 76.5 C 127.25 76.351562 126.925781 76.25 126.5 76.25 C 126.101562 76.25 125.75 76.148438 125.75 76 C 125.75 75.875 126.101562 75.226562 126.5 74.574219 C 127.300781 73.324219 127.398438 72.75 127 71.976562 C 126.648438 71.324219 125.601562 71.351562 125.25 72.023438 Z M 125.25 72.023438 "/>
<path style=" stroke:none;fill-rule:nonzero;fill:rgb(0%,0%,0%);fill-opacity:1;" d="M 129.425781 71.675781 C 129.199219 72.050781 129.375 76.5 129.625 76.550781 C 129.773438 76.601562 129.925781 75.824219 130 74.824219 L 130.125 73 L 130.875 74.875 C 131.925781 77.523438 132.25 77.351562 132.25 74.101562 C 132.25 72.425781 132.148438 71.523438 132 71.625 C 131.875 71.699219 131.75 72.648438 131.75 73.699219 L 131.726562 75.625 L 130.898438 73.625 C 130.101562 71.75 129.699219 71.226562 129.425781 71.675781 Z M 129.425781 71.675781 "/>
<path style=" stroke:none;fill-rule:nonzero;fill:rgb(0%,0%,0%);fill-opacity:1;" d="M 140.023438 72.976562 C 139.449219 73.550781 139.300781 75.398438 139.75 76.273438 C 140.074219 76.851562 141.375 76.925781 141.601562 76.375 C 141.699219 76.074219 141.601562 76.023438 141.101562 76.148438 C 140.675781 76.25 140.375 76.199219 140.226562 75.976562 C 139.800781 75.273438 140 75 140.898438 75 C 141.75 75 141.773438 74.976562 141.699219 74.101562 C 141.648438 73.5 141.449219 73.050781 141.074219 72.824219 C 140.601562 72.5 140.476562 72.523438 140.023438 72.976562 Z M 141.199219 73.824219 C 141.273438 74.125 141.125 74.25 140.648438 74.25 C 139.949219 74.25 139.925781 74.226562 140.148438 73.625 C 140.351562 73.125 141.101562 73.25 141.199219 73.824219 Z M 141.199219 73.824219 "/>
<path style=" stroke:none;fill-rule:nonzero;fill:rgb(0%,0%,0%);fill-opacity:1;" d="M 142.773438 73.148438 C 141.773438 74.398438 142.273438 76.75 143.5 76.75 C 144.023438 76.75 144.273438 76.574219 144.5 76 C 144.898438 75.023438 144.675781 73.324219 144.074219 72.875 C 143.449219 72.375 143.351562 72.398438 142.773438 73.148438 Z M 144 73.726562 C 144.523438 74.726562 144.226562 76.25 143.5 76.25 C 143 76.25 142.75 75.773438 142.75 74.851562 C 142.75 74.125 143.148438 73.25 143.5 73.25 C 143.625 73.25 143.851562 73.476562 144 73.726562 Z M 144 73.726562 "/>
<path style=" stroke:none;fill-rule:nonzero;fill:rgb(0%,0%,0%);fill-opacity:1;" d="M 133.199219 72.898438 C 132.949219 73.148438 132.949219 76.050781 133.199219 76.425781 C 133.300781 76.601562 133.824219 76.726562 134.324219 76.699219 L 135.25 76.675781 L 135.25 74.851562 C 135.25 73.851562 135.148438 72.949219 135 72.875 C 134.851562 72.773438 134.75 73.273438 134.75 74.175781 C 134.75 75.800781 134.5 76.398438 133.898438 76.175781 C 133.625 76.074219 133.5 75.574219 133.449219 74.375 C 133.398438 73.449219 133.300781 72.800781 133.199219 72.898438 Z M 133.199219 72.898438 "/>
<path style=" stroke:none;fill-rule:nonzero;fill:rgb(0%,0%,0%);fill-opacity:1;" d="M 136 73.398438 C 135.398438 74.925781 135.875 76.75 136.851562 76.75 C 137.5 76.75 138.199219 75.898438 137.773438 75.648438 C 137.648438 75.574219 137.5 75.675781 137.398438 75.875 C 137.226562 76.375 136.601562 76.351562 136.398438 75.851562 C 135.898438 74.550781 136.699219 72.523438 137.300781 73.574219 C 137.625 74.175781 138.074219 73.851562 137.75 73.226562 C 137.351562 72.5 136.300781 72.601562 136 73.398438 Z M 136 73.398438 "/>
<path style=" stroke:none;fill-rule:nonzero;fill:rgb(0%,0%,0%);fill-opacity:1;" d="M 123.273438 91.726562 C 122.050781 92.949219 122.601562 95.773438 124.074219 95.949219 C 125.023438 96.074219 125.5 95.601562 125.5 94.601562 C 125.5 93.648438 125.199219 93.375 124.574219 93.726562 C 124.148438 93.949219 124.148438 93.976562 124.574219 94.125 C 125.125 94.351562 125.125 95.226562 124.601562 95.425781 C 124.023438 95.648438 123.425781 95.199219 123.226562 94.375 C 122.773438 92.726562 123.773438 91.25 124.773438 92.148438 C 125.148438 92.5 125.25 92.5 125.25 92.226562 C 125.25 91.25 124.050781 90.949219 123.273438 91.726562 Z M 123.273438 91.726562 "/>
<path style=" stroke:none;fill-rule:nonzero;fill:rgb(0%,0%,0%);fill-opacity:1;" d="M 126.425781 91.425781 C 126.148438 91.699219 126.226562 96 126.5 96 C 126.648438 96 126.75 95.601562 126.75 95.125 C 126.75 94.425781 126.851562 94.25 127.25 94.25 C 127.523438 94.25 127.976562 94.023438 128.273438 93.726562 C 129.175781 92.824219 128.425781 91.25 127.125 91.25 C 126.824219 91.25 126.5 91.324219 126.425781 91.425781 Z M 127.851562 92.148438 C 128.476562 92.75 128.25 93.375 127.375 93.550781 C 126.949219 93.601562 126.851562 93.476562 126.800781 92.675781 C 126.699219 91.648438 127.148438 91.425781 127.851562 92.148438 Z M 127.851562 92.148438 "/>
<path style=" stroke:none;fill-rule:nonzero;fill:rgb(0%,0%,0%);fill-opacity:1;" d="M 130.925781 91.699219 C 129.773438 92.949219 130.351562 96 131.75 96 C 132.574219 96 133.125 95.398438 133.375 94.324219 C 133.800781 92.25 132.074219 90.425781 130.925781 91.699219 Z M 132.425781 92.050781 C 132.875 92.625 133 93.625 132.726562 94.574219 C 132.199219 96.476562 130.449219 95.199219 130.851562 93.199219 C 131.101562 91.898438 131.875 91.351562 132.425781 92.050781 Z M 132.425781 92.050781 "/>
<path style=" stroke:none;fill-rule:nonzero;fill:rgb(0%,0%,0%);fill-opacity:1;" d="M 129.25 93.75 C 129.25 95.074219 129.351562 96 129.5 96 C 129.648438 96 129.75 95.074219 129.75 93.75 C 129.75 92.425781 129.648438 91.5 129.5 91.5 C 129.351562 91.5 129.25 92.425781 129.25 93.75 Z M 129.25 93.75 "/>
<path style=" stroke:none;fill-rule:nonzero;fill:rgb(0%,0%,0%);fill-opacity:1;" d="M 121.800781 101.324219 C 121.050781 102.125 121.023438 104.523438 121.75 105.25 C 122.023438 105.523438 122.398438 105.75 122.601562 105.75 C 123.101562 105.75 123.75 105.050781 123.75 104.550781 C 123.726562 104.175781 123.699219 104.175781 123.476562 104.550781 C 123.351562 104.800781 122.949219 105 122.625 105 C 122.148438 105 121.976562 104.800781 121.75 104.050781 C 121.226562 102.375 122.226562 100.949219 123.25 101.875 C 123.726562 102.300781 123.75 102.300781 123.75 101.875 C 123.75 101.425781 123.101562 100.773438 122.601562 100.75 C 122.449219 100.75 122.101562 101 121.800781 101.324219 Z M 121.800781 101.324219 "/>
<path style=" stroke:none;fill-rule:nonzero;fill:rgb(0%,0%,0%);fill-opacity:1;" d="M 130.625 101 C 130.550781 101.125 130.601562 101.25 130.726562 101.25 C 130.875 101.25 131 101.125 131 101 C 131 100.851562 130.949219 100.75 130.898438 100.75 C 130.824219 100.75 130.699219 100.851562 130.625 101 Z M 130.625 101 "/>
<path style=" stroke:none;fill-rule:nonzero;fill:rgb(0%,0%,0%);fill-opacity:1;" d="M 115.925781 101.175781 C 115.800781 101.375 114.75 105.148438 114.75 105.375 C 114.75 105.800781 115.226562 105.398438 115.351562 104.875 C 115.574219 103.976562 116.675781 104 117.023438 104.925781 C 117.574219 106.324219 117.550781 104.949219 116.976562 102.976562 C 116.449219 101.148438 116.199219 100.726562 115.925781 101.175781 Z M 116.550781 102.875 C 116.699219 103.574219 116.351562 103.949219 115.949219 103.550781 C 115.675781 103.273438 115.898438 102.25 116.25 102.25 C 116.351562 102.25 116.5 102.523438 116.550781 102.875 Z M 116.550781 102.875 "/>
<path style=" stroke:none;fill-rule:nonzero;fill:rgb(0%,0%,0%);fill-opacity:1;" d="M 118 103.226562 C 118 104.5 118.101562 105.550781 118.25 105.625 C 118.398438 105.726562 118.851562 105.726562 119.25 105.625 C 120.523438 105.351562 121.175781 103.300781 120.476562 101.925781 C 120.074219 101.175781 119.773438 101 118.824219 101 L 118 101 Z M 119.699219 101.699219 C 120.148438 102 120.351562 103.5 120.023438 104.300781 C 119.824219 104.800781 119.601562 105 119.125 105 C 118.523438 105 118.5 104.949219 118.5 103.25 C 118.5 101.75 118.550781 101.5 118.949219 101.5 C 119.175781 101.5 119.523438 101.601562 119.699219 101.699219 Z M 119.699219 101.699219 "/>
<path style=" stroke:none;fill-rule:nonzero;fill:rgb(0%,0%,0%);fill-opacity:1;" d="M 126.175781 101.25 C 125.949219 101.800781 125.476562 105.300781 125.601562 105.425781 C 125.75 105.601562 126.550781 101.773438 126.425781 101.300781 C 126.351562 100.949219 126.300781 100.949219 126.175781 101.25 Z M 126.175781 101.25 "/>
<path style=" stroke:none;fill-rule:nonzero;fill:rgb(0%,0%,0%);fill-opacity:1;" d="M 128 101.226562 C 128 101.351562 128.226562 101.5 128.5 101.574219 C 128.949219 101.699219 129 101.925781 129.050781 103.675781 C 129.101562 105.425781 129.101562 105.476562 129.175781 104.125 C 129.273438 102.101562 129.449219 101.5 129.875 101.5 C 130.074219 101.5 130.25 101.375 130.25 101.25 C 130.25 101.101562 129.75 101 129.125 101 C 128.5 101 128 101.101562 128 101.226562 Z M 128 101.226562 "/>
<path style=" stroke:none;fill-rule:nonzero;fill:rgb(0%,0%,0%);fill-opacity:1;" d="M 132.199219 102.199219 C 131.824219 102.273438 131.75 102.550781 131.773438 103.949219 L 131.800781 105.625 L 132 104.351562 C 132.351562 102.023438 133 101.898438 133 104.148438 C 133 104.898438 133.125 105.5 133.25 105.5 C 133.398438 105.5 133.5 104.898438 133.5 104.148438 C 133.5 102.875 133.800781 102.226562 134.199219 102.625 C 134.300781 102.726562 134.449219 103.425781 134.523438 104.199219 L 134.699219 105.625 L 134.648438 103.875 L 134.625 102.148438 L 133.625 102.125 C 133.074219 102.125 132.425781 102.148438 132.199219 102.199219 Z M 132.199219 102.199219 "/>
<path style=" stroke:none;fill-rule:nonzero;fill:rgb(0%,0%,0%);fill-opacity:1;" d="M 135.800781 102.398438 C 135.175781 102.851562 135.023438 104.351562 135.574219 105.101562 C 135.949219 105.601562 137.023438 105.574219 137.199219 105.050781 C 137.273438 104.773438 137.199219 104.75 136.824219 104.976562 C 136.476562 105.148438 136.25 105.148438 136.050781 104.949219 C 135.523438 104.425781 135.726562 104 136.5 104 C 137.148438 104 137.25 103.898438 137.25 103.300781 C 137.25 102.675781 136.875 102 136.5 102 C 136.425781 102 136.101562 102.175781 135.800781 102.398438 Z M 136.851562 103.300781 C 136.773438 103.425781 136.5 103.5 136.226562 103.5 C 135.699219 103.5 135.601562 103 136.050781 102.550781 C 136.273438 102.324219 136.398438 102.375 136.648438 102.699219 C 136.824219 102.925781 136.898438 103.199219 136.851562 103.300781 Z M 136.851562 103.300781 "/>
<path style=" stroke:none;fill-rule:nonzero;fill:rgb(0%,0%,0%);fill-opacity:1;" d="M 138.050781 103.824219 C 138.074219 105.300781 138.101562 105.398438 138.175781 104.375 C 138.226562 103.675781 138.375 103.023438 138.523438 102.875 C 138.851562 102.550781 138.800781 102.324219 138.375 102.148438 C 138.050781 102.050781 138 102.300781 138.050781 103.824219 Z M 138.050781 103.824219 "/>
<path style=" stroke:none;fill-rule:nonzero;fill:rgb(0%,0%,0%);fill-opacity:1;" d="M 139.648438 102.324219 C 139.050781 102.75 139.300781 103.550781 140.125 104 C 140.800781 104.351562 140.949219 104.898438 140.449219 105.074219 C 140.273438 105.125 139.925781 105.074219 139.699219 104.949219 C 139.125 104.675781 139.101562 105.148438 139.648438 105.449219 C 140.550781 105.949219 141.476562 105.125 141.125 104.199219 C 141.023438 103.976562 140.699219 103.699219 140.351562 103.523438 C 139.601562 103.199219 139.699219 102.601562 140.476562 102.675781 C 141.074219 102.75 141.175781 102.375 140.601562 102.148438 C 140.101562 101.949219 140.175781 101.949219 139.648438 102.324219 Z M 139.648438 102.324219 "/>
<path style=" stroke:none;fill-rule:nonzero;fill:rgb(0%,0%,0%);fill-opacity:1;" d="M 130.675781 102.425781 C 130.398438 102.675781 130.476562 105.199219 130.75 105.375 C 130.898438 105.476562 131 104.925781 131 103.898438 C 131 102.25 130.976562 102.101562 130.675781 102.425781 Z M 130.675781 102.425781 "/>
<path style=" stroke:none;fill-rule:nonzero;fill:rgb(0%,0%,0%);fill-opacity:1;" d="M 116.351562 110.824219 C 116.273438 111.023438 116.25 112.050781 116.300781 113.148438 L 116.375 115.125 L 117.148438 115.199219 C 118.300781 115.324219 118.875 114.523438 118.875 112.824219 C 118.875 111.699219 118.773438 111.375 118.273438 110.976562 C 117.601562 110.425781 116.550781 110.351562 116.351562 110.824219 Z M 118 111.5 C 118.976562 112.476562 118.273438 115.101562 117.175781 114.675781 C 116.851562 114.550781 116.75 114.175781 116.75 112.925781 C 116.75 110.875 117.023438 110.523438 118 111.5 Z M 118 111.5 "/>
<path style=" stroke:none;fill-rule:nonzero;fill:rgb(0%,0%,0%);fill-opacity:1;" d="M 120.25 111.101562 C 120.125 111.476562 120 111.925781 120 112.101562 C 120 112.273438 119.824219 112.925781 119.601562 113.574219 C 119.148438 114.898438 119.300781 115.800781 119.75 114.550781 C 120 113.875 120.175781 113.726562 120.726562 113.800781 C 121.148438 113.851562 121.398438 114.050781 121.449219 114.375 C 121.5 114.648438 121.675781 114.976562 121.800781 115.125 C 122.101562 115.425781 121.949219 114.324219 121.375 112.273438 C 120.898438 110.523438 120.601562 110.226562 120.25 111.101562 Z M 121 112.5 C 121 113 120.875 113.25 120.625 113.25 C 120.226562 113.25 120.148438 112.824219 120.398438 112.148438 C 120.648438 111.5 121 111.699219 121 112.5 Z M 121 112.5 "/>
<path style=" stroke:none;fill-rule:nonzero;fill:rgb(0%,0%,0%);fill-opacity:1;" d="M 122.851562 111.148438 C 121.925781 112.550781 122.574219 115.25 123.824219 115.25 C 124.476562 115.25 125 114.824219 125 114.273438 C 125 114 124.898438 114.023438 124.476562 114.398438 C 124.101562 114.75 123.875 114.800781 123.550781 114.601562 C 122.648438 114.023438 122.648438 111.726562 123.550781 111.148438 C 123.875 110.949219 124.101562 111 124.476562 111.351562 C 124.898438 111.726562 125 111.75 125 111.476562 C 125 110.398438 123.476562 110.175781 122.851562 111.148438 Z M 122.851562 111.148438 "/>
<path style=" stroke:none;fill-rule:nonzero;fill:rgb(0%,0%,0%);fill-opacity:1;" d="M 127.425781 110.875 C 127.175781 111.699219 126.699219 115.023438 126.824219 115.148438 C 127 115.324219 127.824219 111.101562 127.699219 110.726562 C 127.625 110.476562 127.523438 110.523438 127.425781 110.875 Z M 127.425781 110.875 "/>
<path style=" stroke:none;fill-rule:nonzero;fill:rgb(0%,0%,0%);fill-opacity:1;" d="M 129.675781 110.675781 C 129.398438 110.949219 129.476562 115.300781 129.75 115.125 C 129.898438 115.050781 130 114.601562 130 114.125 C 130 113.351562 130.074219 113.273438 130.824219 113.199219 C 131.574219 113.125 131.625 113.050781 131.699219 112.125 C 131.773438 111.398438 131.675781 111.050781 131.351562 110.824219 C 130.875 110.476562 129.949219 110.398438 129.675781 110.675781 Z M 131.25 111.375 C 131.699219 111.925781 131.324219 112.75 130.601562 112.75 C 130.074219 112.75 130 112.625 130 111.875 C 130 111.175781 130.101562 111 130.476562 111 C 130.726562 111 131.074219 111.175781 131.25 111.375 Z M 131.25 111.375 "/>
<path style=" stroke:none;fill-rule:nonzero;fill:rgb(0%,0%,0%);fill-opacity:1;" d="M 132.375 111.625 C 132.925781 115.75 133.425781 116.300781 133.875 113.300781 C 134.101562 111.851562 134.425781 111.976562 134.625 113.625 C 134.949219 116.050781 135.5 115.550781 136 112.398438 C 136.148438 111.476562 136.226562 110.625 136.148438 110.550781 C 135.976562 110.398438 135.851562 110.773438 135.476562 112.625 C 135.199219 114.023438 135.148438 114.074219 134.976562 113.375 C 134.875 112.949219 134.726562 112.199219 134.648438 111.675781 C 134.351562 110.023438 133.925781 110.5 133.601562 112.851562 C 133.398438 114.226562 133.125 114 132.875 112.25 C 132.800781 111.625 132.601562 110.949219 132.476562 110.75 C 132.300781 110.476562 132.273438 110.75 132.375 111.625 Z M 132.375 111.625 "/>
<path style=" stroke:none;fill-rule:nonzero;fill:rgb(0%,0%,0%);fill-opacity:1;" d="M 136.800781 112.925781 C 136.824219 115.226562 136.851562 115.273438 136.976562 113.75 L 137.125 112.125 L 137.625 113.675781 C 137.875 114.523438 138.148438 115.175781 138.226562 115.101562 C 138.300781 115.023438 138.550781 114.398438 138.773438 113.675781 L 139.199219 112.375 L 139.226562 113.675781 C 139.25 114.398438 139.375 115 139.5 115 C 139.824219 115 139.824219 110.824219 139.523438 110.625 C 139.375 110.550781 139.074219 111.148438 138.851562 111.925781 C 138.398438 113.375 138 114.148438 138 113.523438 C 138 112.851562 137.199219 110.5 136.976562 110.5 C 136.851562 110.5 136.773438 111.574219 136.800781 112.925781 Z M 136.800781 112.925781 "/>
<path style=" stroke:none;fill-rule:nonzero;fill:rgb(0%,0%,0%);fill-opacity:1;" d="M 17.648438 48.273438 C 17.273438 48.550781 16.726562 49.273438 16.425781 49.824219 L 15.875 50.875 L 15.875 141.125 L 16.425781 142.175781 C 16.726562 142.726562 17.273438 143.449219 17.648438 143.726562 L 18.324219 144.25 L 77.675781 144.25 L 78.351562 143.726562 C 78.726562 143.449219 79.273438 142.726562 79.574219 142.175781 L 80.125 141.125 L 80.375 96.625 L 82.175781 96.550781 C 84.226562 96.476562 84.175781 96.425781 84.300781 98.898438 L 84.375 100.175781 L 87.625 98.574219 C 89.398438 97.699219 91.273438 96.875 91.75 96.773438 C 92.449219 96.625 92.625 96.476562 92.625 96 C 92.625 95.5 92.449219 95.375 91.75 95.226562 C 91.273438 95.125 89.398438 94.300781 87.625 93.398438 C 85.824219 92.5 84.351562 91.75 84.324219 91.75 C 84.273438 91.75 84.25 92.449219 84.25 93.300781 C 84.25 94.175781 84.148438 95.023438 84.023438 95.199219 C 83.898438 95.425781 83.324219 95.5 82.101562 95.449219 L 80.375 95.375 L 80.125 50.875 L 79.574219 49.824219 C 79.273438 49.273438 78.726562 48.550781 78.351562 48.273438 L 77.675781 47.75 L 18.324219 47.75 Z M 78.523438 49.273438 C 78.925781 49.699219 79.351562 50.449219 79.5 50.949219 C 79.851562 52.226562 79.851562 139.773438 79.5 141.050781 C 79.351562 141.550781 78.925781 142.300781 78.523438 142.726562 L 77.800781 143.5 L 18.199219 143.5 L 17.476562 142.726562 C 17.074219 142.300781 16.648438 141.550781 16.5 141.050781 C 16.148438 139.773438 16.148438 52.226562 16.5 50.949219 C 16.648438 50.449219 17.074219 49.699219 17.476562 49.273438 L 18.199219 48.5 L 77.800781 48.5 Z M 78.523438 49.273438 "/>
<path style=" stroke:none;fill-rule:nonzero;fill:rgb(0%,0%,0%);fill-opacity:1;" d="M 53.125 55.800781 C 53.050781 56 53.023438 57.550781 53.050781 59.273438 C 53.125 61.824219 53.199219 62.375 53.5 62.375 C 53.824219 62.375 53.875 61.824219 53.875 59.023438 C 53.875 56.550781 53.800781 55.648438 53.574219 55.574219 C 53.398438 55.5 53.199219 55.625 53.125 55.800781 Z M 53.125 55.800781 "/>
<path style=" stroke:none;fill-rule:nonzero;fill:rgb(0%,0%,0%);fill-opacity:1;" d="M 62.375 55.800781 C 62.300781 56 62.273438 57.550781 62.300781 59.273438 C 62.375 61.824219 62.449219 62.375 62.75 62.375 C 63 62.375 63.148438 62.074219 63.199219 61.425781 C 63.300781 60.226562 63.601562 60.25 64.101562 61.5 C 64.324219 62.050781 64.675781 62.5 64.875 62.5 C 65.375 62.5 65.351562 62.300781 64.726562 60.648438 C 64.226562 59.351562 64.199219 59.226562 64.601562 58.648438 C 64.824219 58.300781 65 57.851562 65 57.625 C 65 56.949219 64.5 57.226562 63.925781 58.175781 L 63.375 59.125 L 63.25 57.398438 C 63.125 55.75 62.699219 54.949219 62.375 55.800781 Z M 62.375 55.800781 "/>
<path style=" stroke:none;fill-rule:nonzero;fill:rgb(0%,0%,0%);fill-opacity:1;" d="M 31.050781 59.050781 C 31.125 61.800781 31.199219 62.375 31.5 62.375 C 31.824219 62.375 31.875 61.851562 31.875 59.125 C 31.875 56.226562 31.824219 55.875 31.425781 55.800781 C 31.023438 55.726562 31 55.949219 31.050781 59.050781 Z M 31.050781 59.050781 "/>
<path style=" stroke:none;fill-rule:nonzero;fill:rgb(0%,0%,0%);fill-opacity:1;" d="M 48.550781 59.050781 L 48.625 62.375 L 49.476562 62.449219 C 50.550781 62.550781 51.351562 62.351562 51.851562 61.851562 C 52.351562 61.351562 52.375 59.648438 51.875 59.25 C 51.601562 59.023438 51.574219 58.824219 51.75 58.5 C 51.898438 58.25 52 57.699219 52 57.273438 C 52 56.273438 51.199219 55.75 49.675781 55.75 L 48.476562 55.75 Z M 50.851562 57.148438 C 51.398438 57.675781 50.949219 58.5 50.125 58.5 C 49.398438 58.5 49.148438 58.148438 49.351562 57.351562 C 49.523438 56.648438 50.25 56.550781 50.851562 57.148438 Z M 51.199219 60.300781 C 51.25 60.773438 51.125 61.050781 50.75 61.25 C 49.949219 61.675781 49.25 61.351562 49.25 60.523438 C 49.25 59.625 49.449219 59.449219 50.375 59.550781 C 50.976562 59.601562 51.148438 59.75 51.199219 60.300781 Z M 51.199219 60.300781 "/>
<path style=" stroke:none;fill-rule:nonzero;fill:rgb(0%,0%,0%);fill-opacity:1;" d="M 44.601562 56.851562 C 44.300781 57.5 44.425781 61.375 44.800781 62.050781 C 45.101562 62.675781 46 62.625 46 62 C 46 61.726562 45.898438 61.5 45.75 61.5 C 45.601562 61.5 45.5 60.800781 45.5 59.875 C 45.5 58.949219 45.601562 58.25 45.75 58.25 C 45.898438 58.25 46 58.023438 46 57.75 C 46 57.476562 45.898438 57.25 45.75 57.25 C 45.625 57.25 45.5 57.023438 45.5 56.75 C 45.5 56.074219 44.925781 56.125 44.601562 56.851562 Z M 44.601562 56.851562 "/>
<path style=" stroke:none;fill-rule:nonzero;fill:rgb(0%,0%,0%);fill-opacity:1;" d="M 32.851562 57.574219 C 32.773438 57.773438 32.75 58.925781 32.800781 60.148438 C 32.851562 61.925781 32.949219 62.375 33.25 62.375 C 33.550781 62.375 33.648438 61.976562 33.699219 60.625 C 33.773438 58.75 34.101562 58.050781 34.648438 58.523438 C 34.851562 58.675781 35 59.476562 35.050781 60.574219 C 35.101562 61.726562 35.226562 62.375 35.449219 62.449219 C 35.699219 62.523438 35.75 62 35.699219 60.125 C 35.648438 58.125 35.550781 57.625 35.199219 57.398438 C 34.851562 57.199219 34.625 57.226562 34.199219 57.476562 C 33.800781 57.726562 33.625 57.726562 33.550781 57.523438 C 33.425781 57.148438 33.023438 57.175781 32.851562 57.574219 Z M 32.851562 57.574219 "/>
<path style=" stroke:none;fill-rule:nonzero;fill:rgb(0%,0%,0%);fill-opacity:1;" d="M 36.875 57.523438 C 36.625 58.175781 36.851562 64.25 37.125 64.25 C 37.273438 64.25 37.398438 63.800781 37.449219 63.226562 C 37.523438 62.273438 37.574219 62.226562 38.175781 62.375 C 39.523438 62.699219 40.351562 60.699219 39.75 58.523438 C 39.449219 57.351562 39 57.050781 38.148438 57.449219 C 37.726562 57.625 37.476562 57.625 37.300781 57.449219 C 37.101562 57.25 36.976562 57.273438 36.875 57.523438 Z M 38.851562 58.648438 C 39.25 59.675781 38.875 61.550781 38.300781 61.449219 C 37.625 61.324219 37.375 59.398438 37.925781 58.425781 C 38.101562 58.101562 38.699219 58.226562 38.851562 58.648438 Z M 38.851562 58.648438 "/>
<path style=" stroke:none;fill-rule:nonzero;fill:rgb(0%,0%,0%);fill-opacity:1;" d="M 40.648438 57.625 C 40.425781 58.273438 40.476562 60.898438 40.75 61.625 C 41.050781 62.398438 41.648438 62.675781 42.25 62.300781 C 42.550781 62.125 42.773438 62.125 42.949219 62.300781 C 43.5 62.851562 43.75 62.175781 43.75 60.050781 C 43.75 58.851562 43.648438 57.726562 43.523438 57.523438 C 43.101562 56.851562 42.75 57.550781 42.75 59.101562 C 42.75 60.050781 42.625 60.851562 42.398438 61.148438 C 41.824219 61.898438 41.523438 61.324219 41.449219 59.273438 C 41.375 57.5 41 56.726562 40.648438 57.625 Z M 40.648438 57.625 "/>
<path style=" stroke:none;fill-rule:nonzero;fill:rgb(0%,0%,0%);fill-opacity:1;" d="M 55.601562 57.449219 C 54.625 58.101562 54.425781 60.773438 55.273438 61.851562 C 56.398438 63.273438 58 62.175781 58 59.949219 C 58 58.175781 57.449219 57.25 56.375 57.25 C 56.101562 57.25 55.75 57.351562 55.601562 57.449219 Z M 56.949219 59.824219 C 57 60.949219 56.949219 61.300781 56.625 61.398438 C 56 61.648438 55.675781 61.125 55.675781 59.925781 C 55.675781 58.648438 55.898438 58.199219 56.449219 58.300781 C 56.773438 58.351562 56.898438 58.726562 56.949219 59.824219 Z M 56.949219 59.824219 "/>
<path style=" stroke:none;fill-rule:nonzero;fill:rgb(0%,0%,0%);fill-opacity:1;" d="M 59 58.050781 C 57.648438 60.300781 59.476562 63.800781 61.074219 62.050781 C 61.550781 61.523438 61.625 60.851562 61.273438 60.625 C 61.125 60.550781 60.898438 60.726562 60.75 61 C 60.175781 62.074219 59.5 61.449219 59.5 59.875 C 59.5 59.425781 59.574219 58.875 59.648438 58.648438 C 59.851562 58.148438 60.476562 58.125 60.648438 58.625 C 60.875 59.148438 61.5 59.101562 61.5 58.550781 C 61.5 57.925781 60.726562 57.25 60.050781 57.25 C 59.699219 57.25 59.324219 57.550781 59 58.050781 Z M 59 58.050781 "/>
<path style=" stroke:none;fill-rule:nonzero;fill:rgb(0%,0%,0%);fill-opacity:1;" d="M 34.476562 72.050781 C 33.699219 73.476562 34.050781 77.898438 34.949219 78.199219 C 35.148438 78.25 35.125 78 34.875 77.398438 C 34.425781 76.351562 34.375 73.648438 34.773438 72.523438 C 35.125 71.550781 34.925781 71.226562 34.476562 72.050781 Z M 34.476562 72.050781 "/>
<path style=" stroke:none;fill-rule:nonzero;fill:rgb(0%,0%,0%);fill-opacity:1;" d="M 35.75 74.125 C 35.75 75.699219 35.851562 76.75 36 76.75 C 36.148438 76.75 36.25 75.976562 36.273438 74.925781 C 36.300781 73 36.300781 72.976562 37.023438 75.800781 C 37.148438 76.324219 37.351562 76.75 37.449219 76.75 C 37.574219 76.75 37.875 75.925781 38.148438 74.925781 L 38.625 73.125 L 38.699219 74.925781 C 38.75 75.925781 38.875 76.75 39.023438 76.75 C 39.375 76.75 39.199219 71.699219 38.824219 71.574219 C 38.648438 71.5 38.375 72.199219 38.101562 73.351562 C 37.875 74.375 37.574219 75.175781 37.476562 75.101562 C 37.375 75.050781 37.074219 74.199219 36.851562 73.25 C 36.148438 70.601562 35.75 70.925781 35.75 74.125 Z M 35.75 74.125 "/>
<path style=" stroke:none;fill-rule:nonzero;fill:rgb(0%,0%,0%);fill-opacity:1;" d="M 51.199219 74.023438 C 51.148438 75.425781 51.199219 76.601562 51.324219 76.675781 C 51.425781 76.726562 51.5 76.398438 51.5 75.949219 C 51.5 74.175781 52.476562 74.050781 53.148438 75.75 C 53.375 76.300781 53.648438 76.75 53.773438 76.75 C 54.074219 76.75 54.050781 76.625 53.625 75.601562 C 53.300781 74.800781 53.300781 74.648438 53.625 74.175781 C 54.523438 72.875 53.773438 71.5 52.175781 71.5 L 51.273438 71.5 Z M 53.25 72.351562 C 53.398438 72.550781 53.5 72.976562 53.449219 73.300781 C 53.398438 73.773438 53.226562 73.875 52.5 73.875 C 51.773438 73.875 51.601562 73.773438 51.550781 73.300781 C 51.5 72.976562 51.523438 72.550781 51.601562 72.351562 C 51.773438 71.898438 52.851562 71.898438 53.25 72.351562 Z M 53.25 72.351562 "/>
<path style=" stroke:none;fill-rule:nonzero;fill:rgb(0%,0%,0%);fill-opacity:1;" d="M 57.773438 72.148438 C 57.101562 73 57.074219 74.976562 57.675781 76.023438 C 58 76.574219 58.300781 76.75 58.925781 76.75 C 59.75 76.75 60.625 75.925781 60.324219 75.425781 C 60.226562 75.273438 60 75.398438 59.800781 75.699219 C 59 76.898438 57.75 75.949219 57.75 74.125 C 57.75 73.101562 58.300781 72 58.800781 72 C 58.976562 72 59.351562 72.25 59.675781 72.550781 C 60.226562 73.074219 60.25 73.074219 60.25 72.601562 C 60.25 71.375 58.625 71.074219 57.773438 72.148438 Z M 57.773438 72.148438 "/>
<path style=" stroke:none;fill-rule:nonzero;fill:rgb(0%,0%,0%);fill-opacity:1;" d="M 61.125 72.023438 C 61.523438 73.324219 61.550781 76.375 61.148438 77.351562 C 60.898438 77.976562 60.851562 78.25 61.050781 78.199219 C 62.148438 77.824219 62.273438 72.273438 61.199219 71.601562 C 61 71.476562 60.976562 71.601562 61.125 72.023438 Z M 61.125 72.023438 "/>
<path style=" stroke:none;fill-rule:nonzero;fill:rgb(0%,0%,0%);fill-opacity:1;" d="M 42.925781 72.175781 C 42.699219 72.375 42.699219 75.824219 42.898438 76.351562 C 42.976562 76.574219 43.199219 76.75 43.398438 76.75 C 43.800781 76.75 43.875 76.351562 43.5 76.125 C 43.148438 75.925781 43.175781 73.675781 43.523438 73.324219 C 43.726562 73.125 43.699219 72.898438 43.449219 72.523438 C 43.25 72.226562 43 72.074219 42.925781 72.175781 Z M 42.925781 72.175781 "/>
<path style=" stroke:none;fill-rule:nonzero;fill:rgb(0%,0%,0%);fill-opacity:1;" d="M 40.25 73.125 C 39.851562 73.625 40.125 73.925781 40.601562 73.523438 C 40.800781 73.351562 41.101562 73.273438 41.25 73.375 C 41.699219 73.648438 41.523438 74.199219 40.875 74.351562 C 39.625 74.675781 39.425781 76.75 40.648438 76.75 C 40.976562 76.75 41.25 76.625 41.25 76.449219 C 41.25 76.226562 41.324219 76.226562 41.550781 76.449219 C 42.050781 76.949219 42.550781 76.824219 42.25 76.273438 C 42.125 76 42 75.226562 42 74.574219 C 42 73.898438 41.875 73.226562 41.699219 73.050781 C 41.273438 72.625 40.625 72.675781 40.25 73.125 Z M 41.300781 76.050781 C 40.949219 76.398438 40.25 76.101562 40.25 75.625 C 40.25 75.398438 40.5 75.148438 40.824219 75.023438 C 41.273438 74.851562 41.398438 74.898438 41.449219 75.300781 C 41.5 75.574219 41.425781 75.925781 41.300781 76.050781 Z M 41.300781 76.050781 "/>
<path style=" stroke:none;fill-rule:nonzero;fill:rgb(0%,0%,0%);fill-opacity:1;" d="M 44.25 74.800781 C 44.25 75.949219 44.351562 76.75 44.5 76.75 C 44.648438 76.75 44.75 76.050781 44.75 75.148438 C 44.75 73.949219 44.851562 73.523438 45.125 73.398438 C 45.726562 73.175781 45.550781 72.800781 44.875 72.851562 C 44.273438 72.875 44.25 72.925781 44.25 74.800781 Z M 44.25 74.800781 "/>
<path style=" stroke:none;fill-rule:nonzero;fill:rgb(0%,0%,0%);fill-opacity:1;" d="M 46 74.75 C 46 76.050781 46.101562 76.726562 46.25 76.625 C 46.398438 76.550781 46.5 75.699219 46.5 74.75 C 46.5 73.800781 46.398438 72.949219 46.25 72.875 C 46.101562 72.773438 46 73.449219 46 74.75 Z M 46 74.75 "/>
<path style=" stroke:none;fill-rule:nonzero;fill:rgb(0%,0%,0%);fill-opacity:1;" d="M 47 72.976562 C 47 73.148438 47.175781 73.601562 47.375 74 C 47.726562 74.675781 47.726562 74.824219 47.375 75.523438 C 47.148438 75.949219 47.023438 76.425781 47.074219 76.574219 C 47.125 76.75 47.324219 76.574219 47.5 76.175781 C 47.675781 75.800781 47.898438 75.5 48 75.5 C 48.101562 75.5 48.324219 75.800781 48.5 76.175781 C 48.675781 76.574219 48.875 76.75 48.925781 76.574219 C 48.976562 76.425781 48.851562 75.949219 48.625 75.523438 C 48.273438 74.824219 48.273438 74.675781 48.625 74 C 49.125 73.023438 49.125 72.574219 48.625 73 C 48.425781 73.175781 48.25 73.476562 48.25 73.648438 C 48.25 73.851562 48.148438 74 48 74 C 47.875 74 47.75 73.851562 47.75 73.648438 C 47.75 73.476562 47.574219 73.175781 47.375 73 C 47.101562 72.773438 47 72.773438 47 72.976562 Z M 47 72.976562 "/>
<path style=" stroke:none;fill-rule:nonzero;fill:rgb(0%,0%,0%);fill-opacity:1;" d="M 54.75 72.976562 C 54.75 73.074219 54.875 73.523438 55.023438 73.976562 C 55.25 74.601562 55.226562 74.976562 54.898438 75.75 C 54.476562 76.824219 54.726562 77.148438 55.199219 76.125 C 55.351562 75.773438 55.601562 75.5 55.726562 75.5 C 55.851562 75.5 56.023438 75.773438 56.101562 76.125 C 56.199219 76.476562 56.375 76.75 56.5 76.75 C 56.824219 76.75 56.824219 76.648438 56.324219 75.625 C 55.925781 74.800781 55.925781 74.699219 56.324219 73.875 C 56.550781 73.398438 56.648438 72.949219 56.523438 72.898438 C 56.425781 72.824219 56.175781 73.074219 56.023438 73.449219 L 55.699219 74.125 L 55.351562 73.425781 C 54.976562 72.75 54.75 72.574219 54.75 72.976562 Z M 54.75 72.976562 "/>
<path style=" stroke:none;fill-rule:nonzero;fill:rgb(0%,0%,0%);fill-opacity:1;" d="M 32.800781 91.550781 C 32.625 91.726562 32.5 92.175781 32.5 92.550781 C 32.5 93.101562 32.699219 93.375 33.375 93.773438 C 34.476562 94.425781 34.625 95.5 33.648438 95.5 C 33.300781 95.5 32.949219 95.375 32.875 95.25 C 32.574219 94.75 32.226562 95 32.5 95.5 C 32.800781 96.074219 33.976562 96.175781 34.449219 95.699219 C 34.773438 95.375 34.851562 94.273438 34.550781 93.875 C 34.449219 93.726562 34.074219 93.476562 33.699219 93.324219 C 33.25 93.125 33 92.824219 33 92.5 C 33 91.875 33.625 91.601562 34.125 92 C 34.425781 92.25 34.5 92.25 34.5 91.925781 C 34.5 91.273438 33.324219 91.023438 32.800781 91.550781 Z M 32.800781 91.550781 "/>
<path style=" stroke:none;fill-rule:nonzero;fill:rgb(0%,0%,0%);fill-opacity:1;" d="M 43.199219 91.398438 C 42.925781 91.675781 42.949219 95.699219 43.226562 95.875 C 43.375 95.949219 43.5 95.398438 43.550781 94.574219 C 43.601562 93.425781 43.726562 93.101562 44.074219 93.050781 C 44.449219 92.976562 44.5 93.175781 44.5 94.5 C 44.5 95.449219 44.601562 95.976562 44.75 95.875 C 45.050781 95.699219 45.074219 93.25 44.773438 92.800781 C 44.675781 92.601562 44.351562 92.5 44.101562 92.550781 C 43.773438 92.601562 43.601562 92.425781 43.5 91.925781 C 43.425781 91.523438 43.300781 91.300781 43.199219 91.398438 Z M 43.199219 91.398438 "/>
<path style=" stroke:none;fill-rule:nonzero;fill:rgb(0%,0%,0%);fill-opacity:1;" d="M 52.023438 91.898438 C 51.375 92.726562 51.324219 94.625 51.898438 95.449219 C 52.351562 96.101562 53.625 96.199219 53.851562 95.601562 C 54.101562 94.976562 54 94.574219 53.726562 95.050781 C 53.398438 95.648438 52.574219 95.625 52.25 95.023438 C 51.824219 94.199219 51.949219 92.625 52.5 92.125 C 52.976562 91.699219 53.023438 91.699219 53.5 92.125 C 54.148438 92.699219 54.351562 92.5 53.851562 91.800781 C 53.351562 91.074219 52.648438 91.101562 52.023438 91.898438 Z M 52.023438 91.898438 "/>
<path style=" stroke:none;fill-rule:nonzero;fill:rgb(0%,0%,0%);fill-opacity:1;" d="M 54.75 93.648438 C 54.75 96.199219 55.148438 96.726562 55.300781 94.375 C 55.351562 93.476562 55.476562 93.125 55.75 93.125 C 56.023438 93.125 56.148438 93.476562 56.199219 94.550781 C 56.300781 96.375 56.75 96.449219 56.75 94.648438 C 56.75 92.898438 56.574219 92.5 55.851562 92.5 C 55.425781 92.5 55.25 92.351562 55.25 92.023438 C 55.25 91.75 55.148438 91.449219 55 91.375 C 54.851562 91.273438 54.75 92.101562 54.75 93.648438 Z M 54.75 93.648438 "/>
<path style=" stroke:none;fill-rule:nonzero;fill:rgb(0%,0%,0%);fill-opacity:1;" d="M 62 93.675781 C 62 95.148438 62.101562 96 62.226562 95.851562 C 62.351562 95.726562 62.5 95.351562 62.550781 95 C 62.648438 94.375 62.648438 94.398438 63.101562 95.199219 C 63.324219 95.675781 63.601562 95.976562 63.699219 95.898438 C 63.773438 95.800781 63.648438 95.351562 63.398438 94.875 C 62.976562 94.074219 62.949219 93.976562 63.324219 93.425781 C 63.550781 93.074219 63.648438 92.726562 63.574219 92.648438 C 63.476562 92.574219 63.199219 92.800781 62.949219 93.175781 L 62.5 93.875 L 62.5 92.550781 C 62.5 91.851562 62.398438 91.25 62.25 91.25 C 62.101562 91.25 62 92.226562 62 93.675781 Z M 62 93.675781 "/>
<path style=" stroke:none;fill-rule:nonzero;fill:rgb(0%,0%,0%);fill-opacity:1;" d="M 39.675781 92.101562 C 39.398438 92.800781 39.800781 96 40.148438 96 C 40.351562 96 40.5 95.875 40.5 95.75 C 40.5 95.601562 40.375 95.5 40.226562 95.5 C 40.023438 95.5 39.976562 95 40.050781 93.898438 C 40.175781 92.300781 39.976562 91.300781 39.675781 92.101562 Z M 39.675781 92.101562 "/>
<path style=" stroke:none;fill-rule:nonzero;fill:rgb(0%,0%,0%);fill-opacity:1;" d="M 35.398438 94 C 35.476562 94.875 35.601562 95.699219 35.648438 95.800781 C 35.976562 96.300781 36.25 95.898438 36.425781 94.675781 L 36.601562 93.375 L 36.875 94.601562 C 37.226562 96.25 37.648438 96.324219 37.851562 94.75 C 37.949219 94.050781 38.074219 93.324219 38.148438 93.125 C 38.25 92.925781 38.175781 92.75 38.023438 92.75 C 37.875 92.75 37.75 93.074219 37.75 93.476562 C 37.75 94.523438 37.324219 94.648438 37.125 93.699219 C 37.023438 93.25 36.875 92.773438 36.824219 92.648438 C 36.601562 92.300781 36.25 93.101562 36.25 93.976562 C 36.25 95.074219 35.875 94.75 35.523438 93.375 C 35.300781 92.5 35.273438 92.574219 35.398438 94 Z M 35.398438 94 "/>
<path style=" stroke:none;fill-rule:nonzero;fill:rgb(0%,0%,0%);fill-opacity:1;" d="M 38.675781 92.675781 C 38.398438 92.925781 38.476562 95.699219 38.75 95.875 C 38.898438 95.976562 39 95.375 39 94.273438 C 39 92.5 38.976562 92.351562 38.675781 92.675781 Z M 38.675781 92.675781 "/>
<path style=" stroke:none;fill-rule:nonzero;fill:rgb(0%,0%,0%);fill-opacity:1;" d="M 41.023438 92.976562 C 40.648438 93.648438 40.675781 95.050781 41.074219 95.601562 C 41.5 96.175781 42.351562 96.023438 42.449219 95.375 C 42.523438 94.976562 42.476562 94.925781 42.226562 95.175781 C 41.550781 95.824219 41.25 95.550781 41.25 94.25 C 41.25 92.949219 41.550781 92.675781 42.226562 93.300781 C 42.476562 93.574219 42.523438 93.523438 42.449219 93.125 C 42.324219 92.425781 41.351562 92.324219 41.023438 92.976562 Z M 41.023438 92.976562 "/>
<path style=" stroke:none;fill-rule:nonzero;fill:rgb(0%,0%,0%);fill-opacity:1;" d="M 45.75 92.976562 C 45.625 93.25 45.5 93.824219 45.5 94.25 C 45.5 94.675781 45.625 95.25 45.75 95.523438 C 46.050781 96.074219 47.25 96.175781 47.25 95.648438 C 47.25 95.425781 47.050781 95.351562 46.601562 95.449219 C 46.050781 95.550781 45.976562 95.5 46.050781 94.976562 C 46.101562 94.523438 46.300781 94.351562 46.824219 94.300781 C 47.324219 94.226562 47.5 94.074219 47.5 93.648438 C 47.5 92.550781 46.25 92.074219 45.75 92.976562 Z M 47 93.523438 C 47 94.023438 46.398438 94.175781 46.125 93.75 C 45.925781 93.425781 46.476562 92.699219 46.773438 92.898438 C 46.898438 92.976562 47 93.25 47 93.523438 Z M 47 93.523438 "/>
<path style=" stroke:none;fill-rule:nonzero;fill:rgb(0%,0%,0%);fill-opacity:1;" d="M 48.175781 92.675781 C 47.75 93.074219 48.023438 94.023438 48.625 94.300781 C 49.375 94.625 49.476562 95.5 48.773438 95.5 C 48.5 95.5 48.226562 95.351562 48.148438 95.175781 C 48.074219 95.023438 48.023438 95.101562 48.074219 95.375 C 48.148438 96.101562 49.398438 96.199219 49.625 95.523438 C 49.851562 94.824219 49.550781 94 49.101562 94 C 48.675781 94 48.375 93.398438 48.625 93 C 48.75 92.800781 48.898438 92.800781 49.101562 92.976562 C 49.449219 93.273438 49.824219 93.074219 49.601562 92.726562 C 49.449219 92.449219 48.398438 92.425781 48.175781 92.675781 Z M 48.175781 92.675781 "/>
<path style=" stroke:none;fill-rule:nonzero;fill:rgb(0%,0%,0%);fill-opacity:1;" d="M 57.550781 92.800781 C 57.125 93.226562 57.175781 95.375 57.625 95.75 C 58.023438 96.101562 58.800781 96 58.925781 95.601562 C 58.976562 95.425781 58.773438 95.351562 58.375 95.425781 C 57.824219 95.550781 57.75 95.476562 57.75 94.875 C 57.75 94.273438 57.824219 94.199219 58.398438 94.324219 C 59.175781 94.476562 59.425781 93.976562 59.050781 93.101562 C 58.75 92.449219 58.050781 92.300781 57.550781 92.800781 Z M 58.601562 93.148438 C 58.851562 93.800781 58.773438 94 58.25 94 C 57.925781 94 57.75 93.824219 57.75 93.550781 C 57.75 92.726562 58.324219 92.449219 58.601562 93.148438 Z M 58.601562 93.148438 "/>
<path style=" stroke:none;fill-rule:nonzero;fill:rgb(0%,0%,0%);fill-opacity:1;" d="M 60.050781 92.800781 C 59.75 93.101562 59.625 94.925781 59.898438 95.601562 C 60.101562 96.125 61.148438 96.125 61.351562 95.601562 C 61.449219 95.375 61.425781 95.101562 61.351562 95.023438 C 61.25 94.949219 61.125 95.023438 61.074219 95.175781 C 60.875 95.75 60.324219 95.5 60.175781 94.773438 C 59.875 93.375 60.449219 92.574219 61.226562 93.300781 C 61.476562 93.574219 61.523438 93.523438 61.449219 93.125 C 61.351562 92.550781 60.5 92.351562 60.050781 92.800781 Z M 60.050781 92.800781 "/>
<path style=" stroke:none;fill-rule:nonzero;fill:rgb(0%,0%,0%);fill-opacity:1;" d="M 44.5 101 C 44.5 101.125 44.625 101.25 44.773438 101.25 C 44.898438 101.25 44.949219 101.125 44.875 101 C 44.800781 100.851562 44.675781 100.75 44.601562 100.75 C 44.550781 100.75 44.5 100.851562 44.5 101 Z M 44.5 101 "/>
<path style=" stroke:none;fill-rule:nonzero;fill:rgb(0%,0%,0%);fill-opacity:1;" d="M 49.5 101.523438 C 49.5 102.148438 49.425781 102.273438 49.101562 102.148438 C 48.375 101.875 48 102.476562 48 103.898438 C 48 105.351562 48.351562 105.75 49.398438 105.550781 C 49.976562 105.449219 50 105.375 50 103.101562 C 50 101.699219 49.898438 100.75 49.75 100.75 C 49.625 100.75 49.5 101.101562 49.5 101.523438 Z M 49.375 103.773438 C 49.375 104.601562 49.273438 104.898438 48.949219 104.949219 C 48.425781 105.050781 48.101562 103.726562 48.5 103 C 48.949219 102.175781 49.375 102.550781 49.375 103.773438 Z M 49.375 103.773438 "/>
<path style=" stroke:none;fill-rule:nonzero;fill:rgb(0%,0%,0%);fill-opacity:1;" d="M 41.398438 101.398438 C 41.324219 101.625 41.25 102.574219 41.25 103.5 C 41.25 104.949219 41.324219 105.273438 41.726562 105.5 C 42.351562 105.824219 43.375 105.449219 43.726562 104.773438 C 44.199219 103.925781 44.050781 102.050781 43.5 101.5 C 42.898438 100.898438 41.625 100.824219 41.398438 101.398438 Z M 43.023438 101.75 C 43.398438 101.949219 43.5 102.273438 43.5 103.226562 C 43.5 104.523438 43.101562 105.101562 42.324219 104.949219 C 42 104.898438 41.851562 104.601562 41.800781 103.773438 C 41.699219 102.476562 41.898438 101.5 42.273438 101.5 C 42.425781 101.5 42.75 101.625 43.023438 101.75 Z M 43.023438 101.75 "/>
<path style=" stroke:none;fill-rule:nonzero;fill:rgb(0%,0%,0%);fill-opacity:1;" d="M 45.898438 102.398438 C 45.5 102.773438 45.351562 104.351562 45.648438 105.101562 C 45.75 105.324219 46.101562 105.5 46.5 105.5 C 47.300781 105.5 47.5 105.148438 47.5 103.75 C 47.5 102.851562 47 102 46.5 102 C 46.375 102 46.101562 102.175781 45.898438 102.398438 Z M 46.949219 103.824219 C 47.023438 104.851562 46.976562 105 46.550781 105 C 45.925781 105 45.648438 104.023438 46 103.125 C 46.375 102.125 46.875 102.5 46.949219 103.824219 Z M 46.949219 103.824219 "/>
<path style=" stroke:none;fill-rule:nonzero;fill:rgb(0%,0%,0%);fill-opacity:1;" d="M 50.925781 102.300781 C 50.5 102.523438 50.324219 104.25 50.648438 105.101562 C 50.875 105.675781 52.25 105.648438 52.25 105.074219 C 52.25 104.75 52.175781 104.726562 51.976562 104.925781 C 51.574219 105.324219 51 105.050781 51 104.476562 C 51 104.125 51.175781 104 51.75 104 C 52.351562 104 52.5 103.898438 52.5 103.425781 C 52.5 102.425781 51.699219 101.851562 50.925781 102.300781 Z M 51.949219 103.050781 C 52 103.273438 51.800781 103.5 51.5 103.574219 C 51.148438 103.675781 51 103.574219 51 103.273438 C 51 102.449219 51.800781 102.25 51.949219 103.050781 Z M 51.949219 103.050781 "/>
<path style=" stroke:none;fill-rule:nonzero;fill:rgb(0%,0%,0%);fill-opacity:1;" d="M 53.324219 102.175781 C 52.75 102.398438 52.976562 103.425781 53.675781 103.949219 C 54.125 104.273438 54.273438 104.574219 54.175781 104.851562 C 54.023438 105.199219 53.898438 105.226562 53.476562 104.976562 C 53.050781 104.75 52.976562 104.773438 53.050781 105.050781 C 53.125 105.226562 53.5 105.375 53.898438 105.375 C 54.5 105.375 54.648438 105.25 54.699219 104.699219 C 54.75 104.199219 54.601562 103.925781 54.148438 103.601562 C 53.273438 103.050781 53.273438 102.398438 54.125 102.601562 C 54.800781 102.773438 55 102.398438 54.351562 102.148438 C 53.898438 101.976562 53.773438 101.976562 53.324219 102.175781 Z M 53.324219 102.175781 "/>
<path style=" stroke:none;fill-rule:nonzero;fill:rgb(0%,0%,0%);fill-opacity:1;" d="M 44.5 103.875 C 44.5 104.800781 44.601562 105.5 44.75 105.5 C 44.898438 105.5 45 104.800781 45 103.875 C 45 102.949219 44.898438 102.25 44.75 102.25 C 44.601562 102.25 44.5 102.949219 44.5 103.875 Z M 44.5 103.875 "/>
<path style=" stroke:none;fill-rule:nonzero;fill:rgb(0%,0%,0%);fill-opacity:1;" d="M 177.851562 48.226562 C 177.425781 48.476562 176.800781 49.226562 176.476562 49.898438 L 175.875 51.125 L 175.875 140.875 L 176.476562 142.101562 C 177.648438 144.449219 174.625 144.25 208 144.25 C 241.375 144.25 238.351562 144.449219 239.523438 142.101562 L 240.125 140.875 L 240.125 51.125 L 239.523438 49.898438 C 238.351562 47.550781 241.375 47.75 208 47.75 C 179.675781 47.75 178.601562 47.773438 177.851562 48.226562 Z M 238.125 48.800781 C 238.5 49.101562 239.023438 49.800781 239.273438 50.351562 C 239.726562 51.324219 239.75 53.101562 239.75 96 C 239.75 138.898438 239.726562 140.675781 239.273438 141.648438 C 239.023438 142.199219 238.5 142.898438 238.125 143.199219 L 237.425781 143.75 L 178.574219 143.75 L 177.875 143.199219 C 177.5 142.898438 176.976562 142.199219 176.726562 141.648438 C 176.273438 140.675781 176.25 138.898438 176.25 96 C 176.25 53.101562 176.273438 51.324219 176.726562 50.351562 C 176.976562 49.800781 177.5 49.101562 177.875 48.800781 L 178.574219 48.25 L 237.425781 48.25 Z M 238.125 48.800781 "/>
<path style=" stroke:none;fill-rule:nonzero;fill:rgb(0%,0%,0%);fill-opacity:1;" d="M 215.75 59.023438 C 215.75 62.226562 215.800781 62.523438 216.199219 62.449219 C 216.574219 62.375 216.625 62 216.699219 59.5 C 216.773438 56.300781 216.675781 55.5 216.125 55.5 C 215.800781 55.5 215.75 56.074219 215.75 59.023438 Z M 215.75 59.023438 "/>
<path style=" stroke:none;fill-rule:nonzero;fill:rgb(0%,0%,0%);fill-opacity:1;" d="M 225 59 C 225 62.226562 225.050781 62.523438 225.449219 62.449219 C 225.75 62.398438 225.898438 62.050781 226 61.25 L 226.125 60.125 L 226.675781 61.324219 C 227.023438 62.050781 227.375 62.5 227.550781 62.425781 C 227.949219 62.300781 227.925781 61.925781 227.351562 60.449219 C 226.925781 59.324219 226.925781 59.25 227.375 58.398438 C 227.648438 57.925781 227.773438 57.449219 227.675781 57.351562 C 227.449219 57.125 226.574219 57.925781 226.324219 58.601562 C 226.175781 58.976562 226.101562 58.601562 226 57.375 C 225.898438 55.976562 225.800781 55.625 225.449219 55.550781 C 225.050781 55.476562 225 55.773438 225 59 Z M 225 59 "/>
<path style=" stroke:none;fill-rule:nonzero;fill:rgb(0%,0%,0%);fill-opacity:1;" d="M 189 56.375 C 188.523438 56.875 188.375 57.375 188.300781 58.574219 C 188.125 61.199219 189.199219 62.824219 190.851562 62.398438 C 192.699219 61.949219 193.25 57.699219 191.675781 56.226562 C 190.925781 55.550781 189.726562 55.625 189 56.375 Z M 191.148438 57.273438 C 191.800781 58 191.800781 60.273438 191.125 61 C 190.550781 61.625 190.375 61.625 189.75 61 C 188.800781 60.050781 189.273438 56.75 190.351562 56.75 C 190.523438 56.75 190.875 56.976562 191.148438 57.273438 Z M 191.148438 57.273438 "/>
<path style=" stroke:none;fill-rule:nonzero;fill:rgb(0%,0%,0%);fill-opacity:1;" d="M 211.125 56.300781 C 211.050781 56.625 211 58.101562 211.050781 59.625 L 211.125 62.375 L 212.425781 62.449219 C 213.550781 62.523438 213.824219 62.425781 214.375 61.898438 C 215.101562 61.175781 215.199219 60.125 214.601562 59.273438 C 214.300781 58.851562 214.273438 58.625 214.476562 58.425781 C 214.925781 57.976562 214.800781 56.800781 214.25 56.25 C 213.875 55.875 213.425781 55.75 212.5 55.75 C 211.425781 55.75 211.25 55.824219 211.125 56.300781 Z M 213.449219 56.976562 C 213.648438 57.074219 213.75 57.449219 213.699219 57.773438 C 213.648438 58.25 213.476562 58.375 212.875 58.375 C 212.351562 58.375 212.101562 58.25 212.050781 57.925781 C 211.851562 56.925781 212.601562 56.425781 213.449219 56.976562 Z M 213.949219 60.300781 C 214.023438 60.851562 213.898438 61.050781 213.398438 61.273438 C 212.523438 61.675781 212 61.398438 212 60.550781 C 212 59.625 212.199219 59.449219 213.125 59.550781 C 213.726562 59.601562 213.898438 59.75 213.949219 60.300781 Z M 213.949219 60.300781 "/>
<path style=" stroke:none;fill-rule:nonzero;fill:rgb(0%,0%,0%);fill-opacity:1;" d="M 197.199219 57.125 C 196.949219 57.625 196.875 58.050781 197 58.125 C 197.148438 58.226562 197.25 59 197.25 59.898438 C 197.25 60.800781 197.375 61.75 197.5 62.023438 C 197.851562 62.675781 198.75 62.648438 198.75 62 C 198.75 61.726562 198.648438 61.5 198.5 61.5 C 198.125 61.5 198.175781 58.324219 198.574219 58.175781 C 198.824219 58.101562 198.824219 57.949219 198.574219 57.523438 C 198.398438 57.25 198.25 56.824219 198.25 56.625 C 198.25 55.949219 197.625 56.25 197.199219 57.125 Z M 197.199219 57.125 "/>
<path style=" stroke:none;fill-rule:nonzero;fill:rgb(0%,0%,0%);fill-opacity:1;" d="M 207.175781 57.050781 C 206.875 57.601562 206.800781 57.898438 207 58.101562 C 207.125 58.226562 207.25 59.148438 207.25 60.148438 C 207.25 62.023438 207.601562 62.699219 208.375 62.398438 C 208.800781 62.25 208.875 61.574219 208.476562 61.449219 C 208 61.300781 207.898438 59.074219 208.351562 58.398438 C 208.726562 57.824219 208.699219 57.726562 208.300781 57.023438 C 208.074219 56.601562 207.824219 56.25 207.75 56.25 C 207.675781 56.25 207.425781 56.601562 207.175781 57.050781 Z M 207.175781 57.050781 "/>
<path style=" stroke:none;fill-rule:nonzero;fill:rgb(0%,0%,0%);fill-opacity:1;" d="M 193.425781 57.398438 C 193.324219 57.5 193.25 58.449219 193.25 59.476562 C 193.25 62 194.074219 63.25 195 62.125 C 195.273438 61.773438 195.351562 61.800781 195.625 62.148438 C 196.199219 62.976562 196.5 62.273438 196.5 60.050781 C 196.5 58.851562 196.398438 57.726562 196.273438 57.523438 C 195.851562 56.851562 195.5 57.550781 195.5 59.101562 C 195.5 60.050781 195.375 60.851562 195.148438 61.148438 C 194.574219 61.898438 194.273438 61.324219 194.199219 59.273438 C 194.125 57.574219 193.875 56.949219 193.425781 57.398438 Z M 193.425781 57.398438 "/>
<path style=" stroke:none;fill-rule:nonzero;fill:rgb(0%,0%,0%);fill-opacity:1;" d="M 199.375 57.800781 C 199.300781 58.125 199.273438 59.675781 199.300781 61.25 C 199.375 63.75 199.425781 64.125 199.824219 64.199219 C 200.175781 64.273438 200.25 64.101562 200.25 63.101562 C 200.25 62.175781 200.324219 61.976562 200.550781 62.199219 C 201.523438 63.175781 202.5 62.023438 202.5 59.875 C 202.5 58.898438 202.351562 58.148438 202.101562 57.800781 C 201.699219 57.199219 201.023438 57.074219 200.574219 57.523438 C 200.375 57.726562 200.25 57.726562 200.148438 57.523438 C 199.875 57.074219 199.523438 57.199219 199.375 57.800781 Z M 201.449219 59.75 C 201.523438 61.226562 201.25 61.773438 200.625 61.25 C 200.175781 60.875 200.125 58.976562 200.550781 58.550781 C 201.101562 58 201.375 58.375 201.449219 59.75 Z M 201.449219 59.75 "/>
<path style=" stroke:none;fill-rule:nonzero;fill:rgb(0%,0%,0%);fill-opacity:1;" d="M 203.425781 57.425781 C 203.199219 57.625 203.199219 60.925781 203.398438 61.675781 C 203.601562 62.375 204.398438 62.648438 204.925781 62.199219 C 205.25 61.949219 205.351562 61.949219 205.425781 62.175781 C 205.5 62.351562 205.699219 62.5 205.898438 62.5 C 206.199219 62.5 206.25 62.050781 206.199219 59.949219 C 206.148438 58.324219 206.023438 57.375 205.851562 57.324219 C 205.648438 57.25 205.523438 57.851562 205.449219 59.101562 C 205.375 60.949219 205.050781 61.726562 204.523438 61.398438 C 204.375 61.300781 204.25 60.5 204.25 59.625 C 204.25 57.574219 203.976562 56.851562 203.425781 57.425781 Z M 203.425781 57.425781 "/>
<path style=" stroke:none;fill-rule:nonzero;fill:rgb(0%,0%,0%);fill-opacity:1;" d="M 218.023438 57.726562 C 217.101562 58.648438 217.050781 60.625 217.898438 61.925781 C 218.425781 62.75 219.601562 62.699219 220.175781 61.824219 C 220.800781 60.875 220.800781 58.476562 220.148438 57.773438 C 219.550781 57.125 218.648438 57.101562 218.023438 57.726562 Z M 219.601562 58.648438 C 219.824219 59.25 219.773438 60.824219 219.5 61.25 C 219.324219 61.550781 219.175781 61.550781 218.824219 61.351562 C 218.273438 61.023438 218.074219 59.125 218.523438 58.601562 C 218.898438 58.125 219.398438 58.148438 219.601562 58.648438 Z M 219.601562 58.648438 "/>
<path style=" stroke:none;fill-rule:nonzero;fill:rgb(0%,0%,0%);fill-opacity:1;" d="M 221.898438 57.625 C 221.074219 58.449219 221.074219 61.125 221.898438 62.023438 C 222.125 62.300781 222.574219 62.5 222.898438 62.5 C 223.476562 62.5 224.25 61.675781 224.25 61.074219 C 224.25 60.601562 223.574219 60.675781 223.300781 61.175781 C 223.148438 61.425781 222.898438 61.523438 222.648438 61.425781 C 222.074219 61.199219 222.074219 58.550781 222.648438 58.324219 C 222.898438 58.226562 223.148438 58.324219 223.300781 58.574219 C 223.574219 59.074219 224.25 59.148438 224.25 58.675781 C 224.25 57.523438 222.699219 56.851562 221.898438 57.625 Z M 221.898438 57.625 "/>
<path style=" stroke:none;fill-rule:nonzero;fill:rgb(0%,0%,0%);fill-opacity:1;" d="M 200.601562 72.050781 C 199.773438 73.574219 200.125 78.25 201.050781 78.25 C 201.199219 78.25 201.226562 78.050781 201.125 77.800781 C 200.574219 76.425781 200.449219 74.351562 200.824219 72.875 C 201.023438 72.050781 201.175781 71.324219 201.125 71.300781 C 201.074219 71.25 200.851562 71.574219 200.601562 72.050781 Z M 200.601562 72.050781 "/>
<path style=" stroke:none;fill-rule:nonzero;fill:rgb(0%,0%,0%);fill-opacity:1;" d="M 209.875 71.550781 C 209.824219 71.726562 209.75 72.101562 209.699219 72.375 C 209.648438 72.699219 209.449219 72.851562 209.148438 72.800781 C 208.351562 72.648438 208 73.226562 208 74.625 C 208 76.523438 208.125 76.75 209.273438 76.75 L 210.25 76.75 L 210.25 74 C 210.25 71.476562 210.148438 70.773438 209.875 71.550781 Z M 209.449219 73.550781 C 209.800781 73.898438 209.851562 75.476562 209.523438 75.976562 C 209.050781 76.699219 208.5 76.074219 208.5 74.800781 C 208.5 73.273438 208.800781 72.898438 209.449219 73.550781 Z M 209.449219 73.550781 "/>
<path style=" stroke:none;fill-rule:nonzero;fill:rgb(0%,0%,0%);fill-opacity:1;" d="M 214.875 71.800781 C 215.574219 74.101562 215.574219 75.976562 214.875 77.800781 C 214.773438 78.050781 214.800781 78.25 214.949219 78.25 C 215.851562 78.25 216.226562 73.574219 215.425781 72.050781 C 214.925781 71.125 214.601562 70.976562 214.875 71.800781 Z M 214.875 71.800781 "/>
<path style=" stroke:none;fill-rule:nonzero;fill:rgb(0%,0%,0%);fill-opacity:1;" d="M 202.851562 71.773438 C 202.773438 71.925781 202.476562 72.851562 202.226562 73.824219 C 201.976562 74.824219 201.699219 75.875 201.601562 76.175781 C 201.351562 77.050781 201.898438 76.875 202.226562 76 C 202.425781 75.425781 202.625 75.25 203.125 75.25 C 203.625 75.25 203.851562 75.425781 204.074219 76 C 204.425781 76.949219 204.851562 77 204.648438 76.050781 C 204.023438 73.449219 203.425781 71.5 203.226562 71.5 C 203.125 71.5 202.949219 71.625 202.851562 71.773438 Z M 203.601562 73.824219 C 203.726562 74.324219 203.648438 74.550781 203.375 74.648438 C 202.800781 74.875 202.675781 74.625 202.851562 73.601562 C 203.050781 72.625 203.324219 72.699219 203.601562 73.824219 Z M 203.601562 73.824219 "/>
<path style=" stroke:none;fill-rule:nonzero;fill:rgb(0%,0%,0%);fill-opacity:1;" d="M 212.5 73 C 212.148438 73.351562 212 73.851562 212 74.648438 C 212 76.101562 212.351562 76.75 213.125 76.75 C 213.875 76.75 214.25 76.101562 214.25 74.75 C 214.25 72.949219 213.398438 72.101562 212.5 73 Z M 213.625 74.75 C 213.625 75.949219 213.574219 76.125 213.125 76.125 C 212.726562 76.125 212.601562 75.925781 212.550781 75.023438 C 212.449219 73.675781 212.625 73.199219 213.175781 73.300781 C 213.550781 73.375 213.625 73.648438 213.625 74.75 Z M 213.625 74.75 "/>
<path style=" stroke:none;fill-rule:nonzero;fill:rgb(0%,0%,0%);fill-opacity:1;" d="M 205.25 74.425781 C 205.25 76.5 205.425781 76.824219 206.5 76.699219 L 207.300781 76.601562 L 207.300781 74.773438 C 207.300781 73.773438 207.226562 72.898438 207.148438 72.824219 C 207.074219 72.726562 207 73.125 207 73.675781 C 207 75.398438 206.75 76.25 206.226562 76.25 C 205.800781 76.25 205.75 76.050781 205.75 74.648438 C 205.75 73.75 205.648438 72.949219 205.5 72.875 C 205.351562 72.773438 205.25 73.351562 205.25 74.425781 Z M 205.25 74.425781 "/>
<path style=" stroke:none;fill-rule:nonzero;fill:rgb(0%,0%,0%);fill-opacity:1;" d="M 211 74.574219 C 210.925781 75.675781 210.949219 76.601562 211.050781 76.648438 C 211.351562 76.824219 211.375 76.425781 211.25 74.5 L 211.101562 72.625 Z M 211 74.574219 "/>
<path style=" stroke:none;fill-rule:nonzero;fill:rgb(0%,0%,0%);fill-opacity:1;" d="M 199.675781 91.425781 C 199.398438 91.675781 199.476562 96 199.726562 96 C 199.875 96 200 95.574219 200.050781 95.050781 C 200.148438 93.824219 200.726562 93.824219 201.324219 95.101562 C 201.875 96.273438 202.175781 96.125 201.726562 94.898438 C 201.476562 94.199219 201.476562 93.925781 201.699219 93.699219 C 202.148438 93.25 202.074219 91.976562 201.574219 91.601562 C 201.101562 91.25 199.949219 91.125 199.675781 91.425781 Z M 201.101562 91.898438 C 201.351562 92 201.5 92.351562 201.5 92.773438 C 201.5 93.425781 201.398438 93.5 200.75 93.5 C 200.101562 93.5 200 93.398438 200 92.800781 C 200 91.800781 200.273438 91.574219 201.101562 91.898438 Z M 201.101562 91.898438 "/>
<path style=" stroke:none;fill-rule:nonzero;fill:rgb(0%,0%,0%);fill-opacity:1;" d="M 203.449219 91.5 C 202.476562 92.074219 202.300781 94.550781 203.199219 95.550781 C 203.875 96.351562 205.25 95.976562 205.25 95 C 205.226562 94.675781 205.175781 94.699219 204.898438 95.050781 C 203.976562 96.273438 202.726562 94.675781 203.199219 92.875 C 203.5 91.851562 204.101562 91.523438 204.726562 92.101562 C 205.175781 92.523438 205.25 92.523438 205.25 92.175781 C 205.25 91.949219 205.023438 91.648438 204.773438 91.5 C 204.175781 91.199219 204 91.199219 203.449219 91.5 Z M 203.449219 91.5 "/>
<path style=" stroke:none;fill-rule:nonzero;fill:rgb(0%,0%,0%);fill-opacity:1;" d="M 207.425781 91.425781 C 207.148438 91.675781 207.226562 96 207.476562 96 C 207.625 96 207.75 95.574219 207.800781 95.050781 C 207.875 94.25 207.949219 94.125 208.476562 94.125 C 208.824219 94.125 209.125 93.976562 209.199219 93.800781 C 209.25 93.601562 209.023438 93.5 208.523438 93.5 C 207.824219 93.5 207.75 93.425781 207.75 92.773438 C 207.75 92.148438 207.875 92.023438 208.425781 91.949219 C 209.449219 91.824219 209.449219 91.25 208.449219 91.25 C 207.976562 91.25 207.5 91.324219 207.425781 91.425781 Z M 207.425781 91.425781 "/>
<path style=" stroke:none;fill-rule:nonzero;fill:rgb(0%,0%,0%);fill-opacity:1;" d="M 211.101562 93.625 C 211.101562 95 211.125 95.523438 211.175781 94.800781 C 211.226562 94.074219 211.226562 92.949219 211.175781 92.300781 C 211.125 91.648438 211.101562 92.25 211.101562 93.625 Z M 211.101562 93.625 "/>
<path style=" stroke:none;fill-rule:nonzero;fill:rgb(0%,0%,0%);fill-opacity:1;" d="M 211.925781 92.175781 C 211.851562 92.300781 211.875 93.199219 211.925781 94.175781 C 212.023438 95.550781 212.148438 96 212.425781 96 C 212.675781 96 212.75 95.851562 212.625 95.550781 C 212.273438 94.625 212.199219 93.800781 212.476562 93.300781 C 212.875 92.550781 212.324219 91.5 211.925781 92.175781 Z M 211.925781 92.175781 "/>
<path style=" stroke:none;fill-rule:nonzero;fill:rgb(0%,0%,0%);fill-opacity:1;" d="M 210.074219 94.25 C 210.074219 95.273438 210.125 95.699219 210.175781 95.175781 C 210.226562 94.675781 210.226562 93.824219 210.175781 93.300781 C 210.125 92.800781 210.074219 93.226562 210.074219 94.25 Z M 210.074219 94.25 "/>
<path style=" stroke:none;fill-rule:nonzero;fill:rgb(0%,0%,0%);fill-opacity:1;" d="M 213.273438 92.976562 C 212.898438 93.648438 212.949219 95.023438 213.351562 95.550781 C 213.726562 96.074219 214.648438 96.148438 214.824219 95.675781 C 214.898438 95.476562 214.726562 95.351562 214.273438 95.375 C 213.324219 95.375 213.351562 94.398438 214.324219 94.300781 C 214.949219 94.226562 215.023438 94.125 214.949219 93.425781 C 214.898438 92.773438 214.75 92.601562 214.199219 92.550781 C 213.75 92.5 213.449219 92.625 213.273438 92.976562 Z M 214.648438 93.726562 C 214.425781 94.074219 213.824219 94.074219 213.625 93.75 C 213.523438 93.601562 213.601562 93.300781 213.773438 93.101562 C 214.050781 92.773438 214.125 92.773438 214.449219 93.101562 C 214.648438 93.300781 214.726562 93.574219 214.648438 93.726562 Z M 214.648438 93.726562 "/>
<path style=" stroke:none;fill-rule:nonzero;fill:rgb(0%,0%,0%);fill-opacity:1;" d="M 215.773438 94.351562 L 215.824219 96.125 L 216 94.75 C 216.101562 94 216.25 93.199219 216.351562 92.976562 C 216.476562 92.699219 216.398438 92.574219 216.125 92.574219 C 215.824219 92.574219 215.75 92.898438 215.773438 94.351562 Z M 215.773438 94.351562 "/>
<path style=" stroke:none;fill-rule:nonzero;fill:rgb(0%,0%,0%);fill-opacity:1;" d="M 203.398438 101.074219 C 203.175781 101.25 202.976562 101.601562 203 101.875 C 203.023438 103.125 203 103.425781 202.875 104.148438 C 202.675781 105.050781 203.175781 105.574219 204.050781 105.449219 C 204.601562 105.375 204.625 105.25 204.675781 103.351562 C 204.699219 101.648438 204.625 101.300781 204.25 101.050781 C 203.925781 100.851562 203.699219 100.851562 203.398438 101.074219 Z M 204.25 101.75 C 204.550781 102.324219 204.398438 102.75 203.875 102.75 C 203.398438 102.75 203.199219 102.324219 203.375 101.75 C 203.574219 101.101562 203.898438 101.125 204.25 101.75 Z M 204.5 104.226562 C 204.5 104.800781 204.023438 105.25 203.601562 105.074219 C 203.175781 104.925781 203.148438 103.949219 203.550781 103.550781 C 203.898438 103.199219 204.5 103.601562 204.5 104.226562 Z M 204.5 104.226562 "/>
<path style=" stroke:none;fill-rule:nonzero;fill:rgb(0%,0%,0%);fill-opacity:1;" d="M 208.375 101.101562 C 207.949219 101.398438 207.875 101.75 207.875 103.226562 C 207.875 105.101562 208.273438 105.925781 209.074219 105.601562 C 210.074219 105.226562 210.25 102.148438 209.324219 101.199219 C 208.898438 100.800781 208.800781 100.773438 208.375 101.101562 Z M 209.398438 102.375 C 209.625 103.675781 209.324219 105.050781 208.800781 104.949219 C 208.476562 104.898438 208.351562 104.550781 208.300781 103.523438 C 208.199219 101.976562 208.351562 101.5 208.851562 101.5 C 209.074219 101.5 209.300781 101.851562 209.398438 102.375 Z M 209.398438 102.375 "/>
<path style=" stroke:none;fill-rule:nonzero;fill:rgb(0%,0%,0%);fill-opacity:1;" d="M 210.800781 101.050781 C 210.625 101.226562 210.5 101.523438 210.5 101.726562 C 210.5 102.023438 210.574219 102 210.949219 101.675781 C 211.199219 101.425781 211.5 101.324219 211.574219 101.425781 C 211.851562 101.675781 211.773438 102.625 211.476562 102.925781 C 211.273438 103.125 211.300781 103.351562 211.574219 103.75 C 211.800781 104.050781 211.898438 104.476562 211.824219 104.648438 C 211.675781 105.074219 210.824219 105.101562 210.675781 104.675781 C 210.625 104.523438 210.5 104.449219 210.398438 104.523438 C 210.125 104.773438 210.523438 105.476562 211.050781 105.648438 C 211.726562 105.851562 212.324219 105.226562 212.25 104.324219 C 212.226562 103.949219 212.226562 103.175781 212.226562 102.648438 C 212.226562 102.050781 212.074219 101.476562 211.824219 101.199219 C 211.351562 100.675781 211.199219 100.648438 210.800781 101.050781 Z M 210.800781 101.050781 "/>
<path style=" stroke:none;fill-rule:nonzero;fill:rgb(0%,0%,0%);fill-opacity:1;" d="M 193.675781 101.175781 C 193.398438 101.425781 193.476562 105.5 193.726562 105.5 C 193.875 105.5 194 105.125 194.050781 104.675781 C 194.101562 104.023438 194.25 103.851562 194.75 103.800781 C 195.898438 103.648438 196.425781 102.199219 195.601562 101.398438 C 195.226562 101 193.976562 100.851562 193.675781 101.175781 Z M 195.375 102.375 C 195.375 103 195.273438 103.125 194.699219 103.199219 C 194.074219 103.273438 194 103.199219 194 102.550781 C 194 101.675781 194.199219 101.449219 194.875 101.550781 C 195.25 101.601562 195.375 101.800781 195.375 102.375 Z M 195.375 102.375 "/>
<path style=" stroke:none;fill-rule:nonzero;fill:rgb(0%,0%,0%);fill-opacity:1;" d="M 197.101562 101.273438 C 196.949219 101.550781 196.023438 104.949219 196 105.300781 C 196 105.773438 196.476562 105.449219 196.550781 104.925781 C 196.675781 104.050781 197.824219 104.023438 198.226562 104.898438 C 198.800781 106.175781 198.800781 105.25 198.226562 103.125 C 197.648438 101.050781 197.449219 100.726562 197.101562 101.273438 Z M 197.75 103.175781 C 197.75 103.523438 197.601562 103.75 197.375 103.75 C 196.976562 103.75 196.875 103.101562 197.148438 102.375 C 197.273438 102.050781 197.351562 102.023438 197.523438 102.300781 C 197.648438 102.476562 197.75 102.875 197.75 103.175781 Z M 197.75 103.175781 "/>
<path style=" stroke:none;fill-rule:nonzero;fill:rgb(0%,0%,0%);fill-opacity:1;" d="M 199.25 103.226562 C 199.25 104.574219 199.351562 105.5 199.5 105.5 C 199.648438 105.5 199.75 104.851562 199.773438 104.050781 C 199.800781 102.574219 199.875 102.675781 200.351562 104.800781 C 200.574219 105.773438 200.949219 105.675781 201.148438 104.550781 C 201.425781 103 201.726562 102.75 201.75 104.050781 C 201.75 104.699219 201.875 105.300781 202 105.375 C 202.148438 105.476562 202.25 104.699219 202.25 103.25 C 202.25 100.5 201.851562 100.300781 201.226562 102.773438 C 200.773438 104.5 200.699219 104.449219 200.148438 102.324219 C 199.625 100.300781 199.25 100.675781 199.25 103.226562 Z M 199.25 103.226562 "/>
<path style=" stroke:none;fill-rule:nonzero;fill:rgb(0%,0%,0%);fill-opacity:1;" d="M 205.898438 102.523438 C 205.550781 103.351562 205.25 104.125 205.25 104.226562 C 205.25 104.351562 205.601562 104.5 206 104.574219 C 206.476562 104.675781 206.75 104.898438 206.773438 105.175781 C 206.773438 105.574219 206.800781 105.550781 206.976562 105.125 C 207.199219 104.523438 207.023438 101 206.75 101 C 206.648438 101 206.273438 101.675781 205.898438 102.523438 Z M 206.75 103.101562 C 206.75 104 206.101562 104.550781 205.851562 103.875 C 205.699219 103.523438 206.351562 102.25 206.625 102.25 C 206.699219 102.25 206.75 102.625 206.75 103.101562 Z M 206.75 103.101562 "/>
<path style=" stroke:none;fill-rule:nonzero;fill:rgb(0%,0%,0%);fill-opacity:1;" d="M 214.273438 103 C 213.726562 105.023438 213.699219 106.25 214.226562 104.925781 C 214.574219 104 215.675781 103.976562 215.898438 104.875 C 215.976562 105.226562 216.148438 105.5 216.273438 105.5 C 216.398438 105.5 216.425781 105.199219 216.351562 104.800781 C 215.726562 102.300781 215.351562 101.148438 215.101562 101.074219 C 214.925781 101.023438 214.601562 101.800781 214.273438 103 Z M 215.398438 103.675781 C 215.125 103.949219 214.523438 103.5 214.625 103.125 C 215.023438 101.898438 215.050781 101.875 215.300781 102.726562 C 215.425781 103.175781 215.476562 103.625 215.398438 103.675781 Z M 215.398438 103.675781 "/>
<path style=" stroke:none;fill-rule:nonzero;fill:rgb(0%,0%,0%);fill-opacity:1;" d="M 217.300781 102.273438 C 216.851562 102.449219 216.800781 102.625 216.875 103.925781 C 217.023438 105.875 217.050781 105.898438 217.226562 104.125 C 217.324219 103.023438 217.476562 102.625 217.75 102.625 C 218.023438 102.625 218.175781 103.023438 218.273438 104.125 C 218.351562 104.949219 218.425781 105.273438 218.449219 104.851562 C 218.523438 103.425781 218.800781 102.5 219.148438 102.5 C 219.398438 102.5 219.5 102.898438 219.5 104 C 219.5 104.824219 219.601562 105.5 219.75 105.5 C 220.101562 105.5 220.074219 102.574219 219.726562 102.351562 C 219.300781 102.101562 217.925781 102.050781 217.300781 102.273438 Z M 217.300781 102.273438 "/>
<path style=" stroke:none;fill-rule:nonzero;fill:rgb(0%,0%,0%);fill-opacity:1;" d="M 221.074219 102.175781 C 220.523438 102.273438 220.5 102.398438 220.5 104.648438 C 220.5 106.050781 220.601562 107 220.75 107 C 220.898438 107 221 106.675781 221 106.273438 C 221 105.648438 221.101562 105.523438 221.699219 105.449219 C 222.324219 105.375 222.375 105.300781 222.449219 104.050781 C 222.523438 102.851562 222.226562 101.949219 221.773438 102.023438 C 221.699219 102.050781 221.375 102.125 221.074219 102.175781 Z M 221.949219 103.75 C 222.050781 104.925781 221.648438 105.625 221.25 105 C 220.976562 104.574219 220.925781 103.476562 221.148438 102.875 C 221.425781 102.175781 221.875 102.625 221.949219 103.75 Z M 221.949219 103.75 "/>
<path style=" stroke:none;fill-rule:nonzero;fill:rgb(0%,0%,0%);fill-opacity:1;" d="M 200.449219 110.773438 C 200.199219 110.898438 200 111.300781 200 111.625 C 200 112.25 200.875 113.25 201.398438 113.25 C 201.851562 113.25 202.050781 113.675781 201.875 114.25 C 201.675781 114.851562 201.074219 114.898438 200.449219 114.324219 C 200.074219 114 200 113.976562 200 114.273438 C 200 115.351562 201.523438 115.574219 202.148438 114.625 C 202.675781 113.800781 202.398438 113.074219 201.351562 112.574219 C 200.824219 112.324219 200.5 111.976562 200.5 111.699219 C 200.5 111.023438 201.175781 110.875 201.75 111.375 C 202.148438 111.75 202.25 111.75 202.25 111.476562 C 202.25 110.625 201.300781 110.273438 200.449219 110.773438 Z M 200.449219 110.773438 "/>
<path style=" stroke:none;fill-rule:nonzero;fill:rgb(0%,0%,0%);fill-opacity:1;" d="M 210.574219 112.875 C 210.574219 114.25 210.601562 115.148438 210.675781 114.875 C 210.925781 113.675781 211.023438 113.648438 211.523438 114.476562 C 212.175781 115.550781 212.398438 115.324219 211.851562 114.175781 C 211.5 113.425781 211.476562 113.148438 211.726562 112.601562 C 212.125 111.699219 211.875 111.523438 211.425781 112.425781 C 210.976562 113.226562 210.824219 113 210.675781 111.375 C 210.625 110.824219 210.574219 111.5 210.574219 112.875 Z M 210.574219 112.875 "/>
<path style=" stroke:none;fill-rule:nonzero;fill:rgb(0%,0%,0%);fill-opacity:1;" d="M 208.425781 111.773438 C 207.824219 112.125 207.875 112.574219 208.476562 112.25 C 209.101562 111.925781 209.175781 112.074219 209.226562 113.550781 C 209.25 114.476562 209.175781 114.75 208.875 114.75 C 208.351562 114.75 208.125 114.074219 208.5 113.625 C 208.75 113.324219 208.75 113.25 208.425781 113.25 C 208 113.25 207.726562 114.023438 207.925781 114.726562 C 208.023438 115.125 208.25 115.226562 209.050781 115.175781 C 209.898438 115.148438 210.023438 115.074219 209.898438 114.625 C 209.824219 114.351562 209.75 113.648438 209.75 113.074219 C 209.75 111.898438 209.199219 111.351562 208.425781 111.773438 Z M 208.425781 111.773438 "/>
<path style=" stroke:none;fill-rule:nonzero;fill:rgb(0%,0%,0%);fill-opacity:1;" d="M 203.023438 114.175781 C 203.050781 115.523438 203.125 116.324219 203.175781 115.949219 C 203.25 115.449219 203.449219 115.25 203.949219 115.199219 C 204.523438 115.148438 204.648438 114.949219 204.824219 114.125 C 205.125 112.648438 204.726562 111.75 203.75 111.75 L 203 111.75 Z M 204.5 113.550781 C 204.5 114.449219 204 115.074219 203.574219 114.675781 C 203.375 114.449219 203.398438 112.625 203.625 112.273438 C 203.949219 111.726562 204.5 112.5 204.5 113.550781 Z M 204.5 113.550781 "/>
<path style=" stroke:none;fill-rule:nonzero;fill:rgb(0%,0%,0%);fill-opacity:1;" d="M 205.625 112.125 C 205.550781 112.324219 205.449219 112.675781 205.375 112.898438 C 205.300781 113.125 205.375 113.75 205.5 114.273438 C 205.726562 115.074219 205.875 115.25 206.375 115.25 C 206.726562 115.25 207 115.199219 207 115.148438 C 207 115.101562 207.074219 114.851562 207.148438 114.625 C 207.300781 114.25 207.25 114.25 206.773438 114.550781 C 206.324219 114.824219 206.199219 114.824219 206 114.5 C 205.648438 113.949219 205.824219 113.625 206.523438 113.550781 C 207.375 113.425781 207.550781 113.175781 207.273438 112.425781 C 207.074219 111.925781 206.824219 111.75 206.375 111.75 C 206.023438 111.75 205.675781 111.925781 205.625 112.125 Z M 206.898438 112.976562 C 206.675781 113.324219 206.074219 113.324219 205.875 113 C 205.773438 112.851562 205.851562 112.550781 206.023438 112.351562 C 206.300781 112.023438 206.375 112.023438 206.699219 112.351562 C 206.898438 112.550781 206.976562 112.824219 206.898438 112.976562 Z M 206.898438 112.976562 "/>
<path style=" stroke:none;fill-rule:nonzero;fill:rgb(0%,0%,0%);fill-opacity:1;" d="M 212.75 112.398438 C 212.425781 113.226562 212.425781 113.824219 212.800781 114.625 C 213.125 115.324219 214.101562 115.5 214.351562 114.875 C 214.449219 114.574219 214.351562 114.523438 213.898438 114.648438 C 213.5 114.75 213.273438 114.648438 213.148438 114.375 C 212.925781 113.800781 213.175781 113.5 213.875 113.5 C 214.648438 113.5 214.824219 113.199219 214.5 112.398438 C 214.175781 111.5 213.074219 111.5 212.75 112.398438 Z M 214 112.773438 C 214 113.324219 213.375 113.425781 213.175781 112.898438 C 213.023438 112.5 213.476562 111.949219 213.800781 112.148438 C 213.898438 112.226562 214 112.5 214 112.773438 Z M 214 112.773438 "/>
<path style=" stroke:none;fill-rule:nonzero;fill:rgb(0%,0%,0%);fill-opacity:1;" d="M 215.226562 111.800781 C 215.226562 111.851562 215.175781 112.574219 215.101562 113.425781 C 214.976562 115.324219 215.375 115.550781 215.550781 113.699219 C 215.625 112.976562 215.824219 112.351562 215.976562 112.300781 C 216.449219 112.148438 216.273438 111.75 215.75 111.75 C 215.476562 111.75 215.25 111.773438 215.226562 111.800781 Z M 215.226562 111.800781 "/>
</g>
</svg>
