<?xml version="1.0" standalone="no"?>
<!DOCTYPE svg PUBLIC "-//W3C//DTD SVG 20010904//EN"
 "http://www.w3.org/TR/2001/REC-SVG-20010904/DTD/svg10.dtd">
<svg version="1.0" xmlns="http://www.w3.org/2000/svg"
 width="1024.000000pt" height="768.000000pt" viewBox="0 0 1024.000000 768.000000"
 preserveAspectRatio="xMidYMid meet">
<metadata>
Created by potrace 1.16, written by Peter Selinger 2001-2019
</metadata>
<g transform="translate(0.000000,768.000000) scale(0.100000,-0.100000)"
fill="#000000" stroke="none">
<path d="M3917 5758 c-24 -14 -45 -38 -60 -68 l-22 -45 0 -1805 0 -1805 23
-46 c14 -30 35 -53 61 -67 l39 -22 1162 0 1162 0 39 22 c26 14 47 37 61 67
l23 46 5 890 5 890 72 3 c82 3 80 5 85 -94 l3 -51 130 64 c71 35 146 68 165
72 28 6 35 12 35 31 0 20 -7 25 -35 31 -19 4 -94 37 -165 73 -72 36 -131 66
-132 66 -2 0 -3 -28 -3 -62 0 -35 -4 -69 -9 -76 -5 -9 -28 -12 -77 -10 l-69 3
-5 890 -5 890 -23 46 c-14 30 -35 53 -61 67 l-39 22 -1163 0 -1164 0 -38 -22z
m2411 -38 c12 -11 30 -35 39 -53 17 -30 18 -134 21 -1806 1 -1218 -1 -1785 -8
-1812 -6 -22 -25 -55 -41 -74 l-31 -35 -1187 0 c-1179 0 -1187 0 -1209 20 -12
11 -30 35 -39 53 -17 30 -18 132 -18 1827 0 1695 1 1797 18 1827 9 18 27 42
39 53 22 20 30 20 1208 20 1178 0 1186 0 1208 -20z"/>
<path d="M5142 5323 c2 -98 6 -138 16 -141 9 -3 12 29 12 137 0 120 -2 141
-15 141 -13 0 -15 -20 -13 -137z"/>
<path d="M5465 5438 c-3 -13 -4 -75 -3 -138 2 -94 6 -115 18 -115 12 0 15 23
18 138 2 117 0 137 -13 137 -8 0 -17 -10 -20 -22z"/>
<path d="M5836 5444 c-9 -24 -7 -237 3 -253 14 -22 31 -3 31 34 0 50 15 50 35
0 9 -25 23 -45 31 -45 20 0 18 23 -7 81 -16 35 -19 53 -11 62 6 7 15 25 21 40
15 39 -14 37 -37 -3 -9 -16 -20 -30 -24 -30 -5 0 -8 29 -8 65 0 49 -3 65 -14
65 -8 0 -17 -7 -20 -16z"/>
<path d="M4321 5424 c-62 -79 -24 -244 57 -244 32 0 72 32 72 59 0 31 -13 32
-41 5 -22 -21 -30 -24 -48 -15 -38 21 -41 142 -4 168 23 17 30 16 53 -7 11
-11 25 -20 30 -20 17 0 11 39 -10 60 -29 29 -83 27 -109 -6z"/>
<path d="M5282 5318 l3 -133 57 0 c39 0 63 6 74 17 21 21 22 84 2 104 -14 14
-14 19 -2 43 18 35 18 44 -7 75 -18 22 -28 26 -75 26 l-55 0 3 -132z m101 70
c14 -22 -7 -48 -39 -48 -20 0 -24 5 -24 28 0 16 3 32 7 36 12 11 45 2 56 -16z
m7 -103 c17 -20 3 -52 -26 -59 -34 -9 -44 0 -44 40 0 31 3 34 29 34 16 0 34
-7 41 -15z"/>
<path d="M4797 5398 c-12 -22 -15 -34 -7 -42 5 -5 10 -42 10 -82 0 -75 14
-102 45 -90 17 6 21 36 5 36 -13 0 -13 123 0 136 10 10 -14 74 -28 74 -4 0
-15 -14 -25 -32z"/>
<path d="M4500 5370 c-31 -31 -29 -138 3 -168 31 -29 61 -28 86 4 34 43 26
150 -13 176 -20 14 -56 8 -76 -12z m68 -83 c2 -45 0 -59 -13 -63 -25 -10 -38
11 -38 59 0 51 9 69 31 65 13 -2 18 -17 20 -61z"/>
<path d="M4644 5377 c-10 -28 1 -190 14 -195 8 -2 12 10 12 45 0 55 17 123 30
123 16 0 24 -24 30 -94 3 -42 10 -71 18 -74 15 -5 17 160 2 189 -12 22 -40 25
-59 7 -11 -10 -14 -10 -18 0 -6 16 -22 15 -29 -1z"/>
<path d="M4884 5377 c-3 -8 -4 -54 -2 -103 2 -71 6 -89 18 -89 12 0 16 16 18
72 2 60 6 75 22 83 23 13 27 50 5 50 -8 0 -15 -5 -15 -12 0 -9 -3 -9 -12 0
-16 16 -27 15 -34 -1z"/>
<path d="M5008 5379 c-23 -13 -41 -82 -33 -122 11 -51 32 -77 64 -77 42 0 64
31 69 98 3 47 0 62 -18 85 -22 28 -52 34 -82 16z m56 -45 c3 -9 6 -31 6 -49 0
-43 -9 -65 -26 -65 -17 0 -34 32 -34 65 0 52 39 88 54 49z"/>
<path d="M5551 5364 c-46 -58 -16 -184 43 -184 47 0 70 47 67 138 -2 66 -71
95 -110 46z m70 -41 c16 -40 0 -98 -26 -98 -17 0 -20 8 -23 49 -2 27 -1 55 2
62 9 23 36 16 47 -13z"/>
<path d="M5703 5364 c-40 -61 -12 -184 42 -184 32 0 70 47 53 67 -10 12 -14
11 -30 -9 -18 -23 -19 -23 -33 -4 -20 26 -19 90 1 107 14 11 18 11 29 -4 16
-23 35 -22 35 2 0 51 -68 68 -97 25z"/>
<path d="M4411 4808 c-23 -36 -27 -175 -7 -222 20 -48 31 -41 17 11 -14 49
-14 141 0 181 14 41 8 59 -10 30z"/>
<path d="M5540 4721 c0 -67 4 -111 10 -111 6 0 10 41 10 104 0 59 -4 108 -10
111 -6 4 -10 -33 -10 -104z"/>
<path d="M5815 4805 c14 -64 17 -157 6 -201 -15 -59 -6 -69 15 -18 22 52 16
189 -10 225 l-18 24 7 -30z"/>
<path d="M4472 4808 c-29 -29 3 -108 44 -108 20 0 36 -28 29 -50 -8 -24 -41
-26 -67 -3 -18 16 -23 8 -12 -21 10 -25 80 -22 94 4 21 40 8 73 -38 98 -33 18
-42 29 -40 45 4 28 34 34 59 11 19 -17 24 -9 13 20 -7 19 -64 22 -82 4z"/>
<path d="M4580 4810 c0 -5 11 -10 25 -10 25 0 25 0 25 -95 0 -123 18 -125 22
-2 3 87 4 92 26 95 46 7 20 22 -38 22 -33 0 -60 -4 -60 -10z"/>
<path d="M4720 4715 c0 -63 4 -105 10 -105 6 0 10 31 11 73 1 75 4 73 29 -25
7 -27 16 -48 20 -48 5 0 14 24 20 53 20 84 29 89 30 15 0 -39 4 -68 10 -68 6
0 10 42 10 105 0 84 -3 105 -14 105 -10 0 -21 -27 -34 -82 l-19 -83 -16 50
c-8 28 -19 65 -22 83 -4 18 -13 32 -21 32 -11 0 -14 -21 -14 -105z"/>
<path d="M4902 4808 c-7 -7 -12 -21 -12 -31 0 -18 2 -17 18 3 11 13 24 20 30
16 17 -10 15 -56 -3 -62 -19 -8 -20 -34 -1 -34 17 0 28 -27 21 -51 -8 -24 -23
-24 -48 -2 -18 17 -19 17 -16 -7 3 -19 11 -26 32 -28 50 -6 73 39 47 89 -8 13
-7 25 0 40 26 48 -31 104 -68 67z"/>
<path d="M5010 4799 c-15 -27 -2 -39 15 -15 18 24 45 14 45 -16 0 -13 -16 -48
-35 -78 -46 -72 -45 -80 10 -80 25 0 45 5 45 10 0 6 -13 10 -30 10 -16 0 -30
4 -30 10 0 5 14 31 30 57 32 50 36 73 20 104 -14 26 -56 25 -70 -2z"/>
<path d="M5177 4813 c-9 -15 -2 -193 8 -195 6 -2 12 29 15 69 l5 73 30 -75
c42 -106 55 -99 55 31 0 67 -4 103 -10 99 -5 -3 -10 -41 -10 -83 l-1 -77 -33
80 c-32 75 -48 96 -59 78z"/>
<path d="M5601 4761 c-23 -23 -29 -97 -11 -132 13 -23 65 -26 74 -4 4 12 0 14
-20 9 -17 -4 -29 -2 -35 7 -17 28 -9 39 27 39 34 0 35 1 32 36 -2 24 -10 42
-25 51 -19 13 -24 12 -42 -6z m47 -34 c3 -12 -3 -17 -22 -17 -28 0 -29 1 -20
25 8 20 38 15 42 -8z"/>
<path d="M5711 4754 c-40 -50 -20 -144 29 -144 21 0 31 7 40 30 16 39 7 107
-17 125 -25 20 -29 19 -52 -11z m49 -23 c21 -40 9 -101 -20 -101 -20 0 -30 19
-30 56 0 29 16 64 30 64 5 0 14 -9 20 -19z"/>
<path d="M5328 4764 c-10 -10 -10 -126 0 -141 4 -7 25 -12 45 -11 l37 1 0 73
c0 40 -4 76 -10 79 -6 4 -10 -16 -10 -52 0 -65 -10 -89 -34 -80 -11 4 -16 24
-18 72 -2 37 -6 63 -10 59z"/>
<path d="M5440 4744 c-24 -61 -5 -134 34 -134 26 0 54 34 37 44 -5 3 -11 -1
-15 -9 -7 -20 -32 -19 -40 1 -20 52 12 133 36 91 13 -24 31 -11 18 14 -16 29
-58 25 -70 -7z"/>
<path d="M4931 4011 c-49 -49 -27 -162 32 -169 38 -5 57 14 57 54 0 38 -12 49
-37 35 -17 -9 -17 -10 0 -16 22 -9 22 -44 1 -52 -23 -9 -47 9 -55 42 -18 66
22 125 62 89 15 -14 19 -14 19 -3 0 39 -48 51 -79 20z"/>
<path d="M5057 4023 c-11 -11 -8 -183 3 -183 6 0 10 16 10 35 0 28 4 35 20 35
11 0 29 9 41 21 36 36 6 99 -46 99 -12 0 -25 -3 -28 -7z m57 -29 c25 -24 16
-49 -19 -56 -17 -2 -21 3 -23 35 -4 41 14 50 42 21z"/>
<path d="M5237 4012 c-46 -50 -23 -172 33 -172 33 0 55 24 65 67 17 83 -52
156 -98 105z m60 -14 c18 -23 23 -63 12 -101 -21 -76 -91 -25 -75 55 10 52 41
74 63 46z"/>
<path d="M5170 3930 c0 -53 4 -90 10 -90 6 0 10 37 10 90 0 53 -4 90 -10 90
-6 0 -10 -37 -10 -90z"/>
<path d="M4872 3627 c-30 -32 -31 -128 -2 -157 11 -11 26 -20 34 -20 20 0 46
28 46 48 -1 15 -2 15 -11 0 -5 -10 -21 -18 -34 -18 -19 0 -26 8 -35 38 -21 67
19 124 60 87 19 -17 20 -17 20 0 0 18 -26 44 -46 45 -6 0 -20 -10 -32 -23z"/>
<path d="M5225 3640 c-3 -5 -1 -10 4 -10 6 0 11 5 11 10 0 6 -2 10 -4 10 -3 0
-8 -4 -11 -10z"/>
<path d="M4637 3633 c-5 -8 -47 -159 -47 -168 0 -17 19 -1 24 20 9 36 53 35
67 -2 22 -56 21 -1 -2 78 -21 73 -31 90 -42 72z m25 -68 c6 -28 -8 -43 -24
-27 -11 11 -2 52 12 52 4 0 10 -11 12 -25z"/>
<path d="M4720 3551 c0 -51 4 -93 10 -96 6 -4 24 -4 40 0 51 11 77 93 49 148
-16 30 -28 37 -66 37 l-33 0 0 -89z m68 61 c18 -12 26 -72 13 -104 -8 -20 -17
-28 -36 -28 -24 0 -25 2 -25 70 0 60 2 70 18 70 9 0 23 -4 30 -8z"/>
<path d="M5047 3630 c-9 -22 -28 -162 -23 -167 6 -7 38 146 33 165 -3 14 -5
14 -10 2z"/>
<path d="M5120 3631 c0 -5 9 -11 20 -14 18 -5 20 -14 22 -84 2 -70 2 -72 5
-18 4 81 11 105 28 105 8 0 15 5 15 10 0 6 -20 10 -45 10 -25 0 -45 -4 -45 -9z"/>
<path d="M5288 3592 c-15 -3 -18 -14 -17 -70 l1 -67 8 51 c14 93 40 98 40 8 0
-30 5 -54 10 -54 6 0 10 24 10 54 0 51 12 77 28 61 4 -4 10 -32 13 -63 l7 -57
-2 70 -1 69 -40 1 c-22 0 -48 -1 -57 -3z"/>
<path d="M5432 3584 c-25 -18 -31 -78 -9 -108 15 -20 58 -19 65 2 3 11 0 12
-15 3 -14 -7 -23 -7 -31 1 -21 21 -13 38 18 38 26 0 30 4 30 28 0 25 -15 52
-30 52 -3 0 -16 -7 -28 -16z m42 -36 c-3 -5 -14 -8 -25 -8 -21 0 -25 20 -7 38
9 9 14 7 24 -6 7 -9 10 -20 8 -24z"/>
<path d="M5522 3527 c1 -59 2 -63 5 -22 2 28 8 54 14 60 13 13 11 22 -6 29
-13 4 -15 -6 -13 -67z"/>
<path d="M5586 3587 c-24 -17 -14 -49 19 -67 27 -14 33 -36 13 -43 -7 -2 -21
0 -30 5 -23 11 -24 -8 -2 -20 36 -20 73 13 59 50 -4 9 -17 20 -31 27 -30 13
-26 37 5 34 24 -3 28 12 5 21 -20 8 -17 8 -38 -7z"/>
<path d="M5227 3583 c-11 -10 -8 -111 3 -118 6 -4 10 18 10 59 0 66 -1 72 -13
59z"/>
<path d="M4654 3247 c-3 -8 -4 -49 -2 -93 l3 -79 31 -3 c46 -5 69 27 69 95 0
45 -4 58 -24 74 -27 22 -69 25 -77 6z m66 -27 c39 -39 11 -144 -33 -127 -13 5
-17 20 -17 70 0 82 11 96 50 57z"/>
<path d="M4810 3236 c-5 -15 -10 -33 -10 -40 0 -7 -7 -33 -16 -59 -18 -53 -12
-89 6 -39 10 27 17 33 39 30 17 -2 27 -10 29 -23 2 -11 9 -24 14 -30 12 -12 6
32 -17 114 -19 70 -31 82 -45 47z m30 -56 c0 -20 -5 -30 -15 -30 -16 0 -19 17
-9 44 10 26 24 18 24 -14z"/>
<path d="M4914 3234 c-37 -56 -11 -164 39 -164 26 0 47 17 47 39 0 11 -4 10
-21 -5 -15 -14 -24 -16 -37 -8 -36 23 -36 115 0 138 13 8 22 6 37 -8 17 -15
21 -16 21 -5 0 43 -61 52 -86 13z"/>
<path d="M5097 3245 c-10 -33 -29 -166 -24 -171 7 -7 40 162 35 177 -3 10 -7
8 -11 -6z"/>
<path d="M5187 3253 c-11 -11 -8 -185 3 -178 6 3 10 21 10 40 0 31 3 34 33 37
30 3 32 6 35 43 3 29 -1 43 -14 52 -19 14 -56 17 -67 6z m63 -28 c18 -22 3
-55 -26 -55 -21 0 -24 5 -24 35 0 28 4 35 19 35 10 0 24 -7 31 -15z"/>
<path d="M5295 3215 c22 -165 42 -187 60 -67 9 58 22 53 30 -13 13 -97 35 -77
55 49 6 37 9 71 6 74 -7 6 -12 -9 -27 -83 -11 -56 -13 -58 -20 -30 -4 17 -10
47 -13 68 -12 66 -29 47 -42 -47 -8 -55 -19 -46 -29 24 -3 25 -11 52 -16 60
-7 11 -8 0 -4 -35z"/>
<path d="M5472 3163 c1 -92 2 -94 7 -33 l6 65 20 -62 c10 -34 21 -60 24 -57 3
3 13 28 22 57 l17 52 1 -52 c1 -29 6 -53 11 -53 13 0 13 167 1 175 -6 3 -18
-21 -27 -52 -18 -58 -34 -89 -34 -64 0 27 -32 121 -41 121 -5 0 -8 -43 -7 -97z"/>
<path d="M706 5749 c-15 -11 -37 -40 -49 -62 l-22 -42 0 -1805 0 -1805 22 -42
c12 -22 34 -51 49 -62 l27 -21 1187 0 1187 0 27 21 c15 11 37 40 49 62 l22 42
5 890 5 890 72 3 c82 3 80 5 85 -94 l3 -51 130 64 c71 35 146 68 165 72 28 6
35 12 35 31 0 20 -7 25 -35 31 -19 4 -94 37 -165 73 -72 36 -131 66 -132 66
-2 0 -3 -28 -3 -62 0 -35 -4 -69 -9 -76 -5 -9 -28 -12 -77 -10 l-69 3 -5 890
-5 890 -22 42 c-12 22 -34 51 -49 62 l-27 21 -1187 0 -1187 0 -27 -21z m2435
-40 c16 -17 33 -47 39 -67 14 -51 14 -3553 0 -3604 -6 -20 -23 -50 -39 -67
l-29 -31 -1192 0 -1192 0 -29 31 c-16 17 -33 47 -39 67 -14 51 -14 3553 0
3604 6 20 23 50 39 67 l29 31 1192 0 1192 0 29 -31z"/>
<path d="M2125 5448 c-3 -8 -4 -70 -3 -139 3 -102 6 -124 18 -124 13 0 15 22
15 134 0 99 -3 135 -12 138 -7 3 -15 -2 -18 -9z"/>
<path d="M2495 5448 c-3 -8 -4 -70 -3 -139 3 -102 6 -124 18 -124 10 0 16 12
18 38 4 48 16 47 36 -3 9 -22 23 -40 31 -40 20 0 19 8 -6 74 -20 52 -21 57 -5
80 9 14 16 32 16 41 0 27 -20 16 -43 -22 l-22 -38 -5 69 c-5 66 -22 98 -35 64z"/>
<path d="M1242 5318 c3 -110 6 -133 18 -133 13 0 15 21 15 130 0 116 -2 130
-18 133 -16 3 -17 -6 -15 -130z"/>
<path d="M1942 5318 l3 -133 34 -3 c43 -4 75 4 95 24 20 20 21 88 1 104 -11 9
-12 17 -5 30 6 10 10 32 10 49 0 40 -32 61 -93 61 l-48 0 3 -132z m92 76 c22
-21 4 -54 -29 -54 -29 0 -39 14 -31 46 7 28 36 32 60 8z m14 -126 c2 -19 -3
-30 -18 -38 -32 -17 -60 -4 -60 29 0 36 8 43 45 39 24 -2 31 -8 33 -30z"/>
<path d="M1784 5406 c-12 -26 -7 -181 8 -208 12 -25 48 -23 48 2 0 11 -4 20
-10 20 -6 0 -10 28 -10 65 0 37 4 65 10 65 6 0 10 9 10 20 0 11 -4 20 -10 20
-5 0 -10 9 -10 20 0 27 -23 25 -36 -4z"/>
<path d="M1314 5377 c-3 -8 -4 -54 -2 -103 2 -71 6 -89 18 -89 12 0 16 16 18
70 3 75 16 103 38 84 8 -6 14 -38 16 -82 2 -46 7 -72 16 -75 10 -3 12 18 10
93 -2 80 -6 100 -20 109 -14 8 -23 7 -40 -3 -16 -10 -23 -10 -26 -2 -5 15 -21
14 -28 -2z"/>
<path d="M1475 5379 c-10 -26 -1 -269 10 -269 6 0 11 18 13 41 3 38 5 40 29
34 54 -13 87 67 63 154 -12 47 -30 59 -64 43 -17 -7 -27 -7 -34 0 -8 8 -13 7
-17 -3z m79 -45 c16 -41 1 -116 -22 -112 -27 5 -37 82 -15 121 7 13 31 8 37
-9z"/>
<path d="M1626 5375 c-9 -26 -7 -131 4 -160 12 -31 36 -42 60 -27 12 7 21 7
28 0 22 -22 32 5 32 90 0 48 -4 93 -9 101 -17 27 -31 -1 -31 -63 0 -38 -5 -70
-14 -82 -23 -30 -35 -7 -38 75 -3 71 -18 102 -32 66z"/>
<path d="M2224 5382 c-39 -26 -47 -133 -13 -176 45 -57 109 -13 109 76 0 71
-22 108 -65 108 -11 0 -25 -4 -31 -8z m54 -95 c2 -45 0 -59 -13 -63 -25 -10
-38 11 -38 59 0 51 9 69 31 65 13 -2 18 -17 20 -61z"/>
<path d="M2360 5358 c-54 -90 19 -230 83 -160 19 21 22 48 8 57 -6 3 -15 -4
-21 -15 -23 -43 -50 -18 -50 45 0 18 3 40 6 49 8 20 33 21 40 1 9 -21 34 -19
34 3 0 25 -31 52 -58 52 -14 0 -29 -12 -42 -32z"/>
<path d="M1379 4798 c-31 -57 -17 -234 19 -246 8 -2 7 8 -3 32 -18 42 -20 150
-4 195 14 39 6 52 -12 19z"/>
<path d="M1430 4715 c0 -63 4 -105 10 -105 6 0 10 31 11 73 1 77 1 78 30 -35
5 -21 13 -38 17 -38 5 0 17 33 28 73 l19 72 3 -72 c2 -40 7 -73 13 -73 14 0 7
202 -8 207 -7 3 -18 -25 -29 -71 -9 -41 -21 -73 -25 -70 -4 2 -16 36 -25 74
-28 106 -44 93 -44 -35z"/>
<path d="M2048 4719 c-2 -56 0 -103 5 -106 4 -2 7 11 7 29 0 71 39 76 66 8 9
-22 20 -40 25 -40 12 0 11 5 -6 46 -13 32 -13 38 0 57 36 52 6 107 -58 107
l-36 0 -3 -101z m82 67 c6 -8 10 -25 8 -38 -2 -19 -9 -23 -38 -23 -29 0 -36 4
-38 23 -2 13 -1 30 2 38 7 18 50 18 66 0z"/>
<path d="M2311 4794 c-27 -34 -28 -113 -4 -155 13 -22 25 -29 50 -29 33 0 68
33 56 53 -4 6 -13 1 -21 -11 -32 -48 -82 -10 -82 63 0 41 22 85 42 85 7 0 22
-10 35 -22 22 -21 23 -21 23 -2 0 49 -65 61 -99 18z"/>
<path d="M2445 4799 c16 -52 17 -174 1 -213 -10 -25 -12 -36 -4 -34 44 15 49
237 6 264 -8 5 -9 0 -3 -17z"/>
<path d="M1717 4793 c-9 -8 -9 -146 -1 -167 3 -9 12 -16 20 -16 16 0 19 16 4
25 -14 8 -13 98 1 112 8 8 7 17 -3 32 -8 12 -18 18 -21 14z"/>
<path d="M1610 4755 c-16 -20 -5 -32 14 -16 8 7 20 10 26 6 18 -11 11 -33 -15
-39 -50 -13 -58 -96 -9 -96 13 0 24 5 24 12 0 9 3 9 12 0 20 -20 40 -15 28 7
-5 11 -10 42 -10 68 0 27 -5 54 -12 61 -17 17 -43 15 -58 -3z m42 -117 c-14
-14 -42 -2 -42 17 0 9 10 19 23 24 18 7 23 5 25 -11 2 -11 -1 -25 -6 -30z"/>
<path d="M1770 4688 c0 -46 4 -78 10 -78 6 0 10 28 10 64 0 48 4 65 15 70 24
9 17 24 -10 22 -24 -1 -25 -3 -25 -78z"/>
<path d="M1840 4690 c0 -52 4 -79 10 -75 6 3 10 37 10 75 0 38 -4 72 -10 75
-6 4 -10 -23 -10 -75z"/>
<path d="M1880 4761 c0 -7 7 -25 15 -41 14 -27 14 -33 0 -61 -9 -17 -14 -36
-12 -42 2 -7 10 0 17 16 7 15 16 27 20 27 4 0 13 -12 20 -27 7 -16 15 -23 17
-16 2 6 -3 25 -12 42 -14 28 -14 34 0 61 20 39 20 57 0 40 -8 -7 -15 -19 -15
-26 0 -8 -4 -14 -10 -14 -5 0 -10 6 -10 14 0 7 -7 19 -15 26 -11 9 -15 9 -15
1z"/>
<path d="M2190 4761 c0 -4 5 -22 11 -40 9 -25 8 -40 -5 -71 -17 -43 -7 -56 12
-15 6 14 16 25 21 25 5 0 12 -11 15 -25 4 -14 11 -25 16 -25 13 0 13 4 -7 45
-16 33 -16 37 0 70 9 19 13 37 8 39 -4 3 -14 -7 -20 -22 l-13 -27 -14 28 c-15
27 -24 34 -24 18z"/>
<path d="M1312 4018 c-7 -7 -12 -25 -12 -40 0 -22 8 -33 35 -49 44 -26 50 -69
11 -69 -14 0 -28 5 -31 10 -12 20 -26 10 -15 -10 12 -23 59 -27 78 -8 13 13
16 57 4 73 -4 6 -19 16 -34 22 -18 8 -28 20 -28 33 0 25 25 36 45 20 12 -10
15 -10 15 3 0 26 -47 36 -68 15z"/>
<path d="M1728 4024 c-11 -11 -10 -172 1 -179 6 -3 11 19 13 52 2 46 7 59 21
61 15 3 17 -5 17 -58 0 -38 4 -59 10 -55 12 7 13 105 1 123 -4 8 -17 12 -27
10 -13 -2 -20 5 -24 25 -3 16 -8 25 -12 21z"/>
<path d="M2081 4004 c-26 -33 -28 -109 -5 -142 18 -26 69 -30 78 -6 10 25 6
41 -5 22 -13 -24 -46 -23 -59 1 -17 33 -12 96 10 116 19 17 21 17 40 0 26 -23
34 -15 14 13 -20 29 -48 28 -73 -4z"/>
<path d="M2190 3934 c0 -102 16 -123 22 -29 2 36 7 50 18 50 11 0 16 -14 18
-57 4 -73 22 -76 22 -4 0 70 -7 86 -36 86 -17 0 -24 6 -24 19 0 11 -4 23 -10
26 -6 4 -10 -29 -10 -91z"/>
<path d="M2480 3933 c0 -59 4 -93 9 -87 5 5 11 20 13 34 4 25 4 24 22 -8 9
-19 20 -31 24 -28 3 4 -2 22 -12 41 -17 32 -18 36 -3 58 9 14 13 28 10 31 -4
3 -15 -6 -25 -21 l-18 -28 0 53 c0 28 -4 52 -10 52 -6 0 -10 -39 -10 -97z"/>
<path d="M1587 3996 c-11 -28 5 -156 19 -156 8 0 14 5 14 10 0 6 -5 10 -11 10
-8 0 -10 20 -7 64 5 64 -3 104 -15 72z"/>
<path d="M1416 3920 c3 -35 8 -68 10 -72 13 -20 24 -4 31 45 l7 52 11 -49 c14
-66 31 -69 39 -6 4 28 9 57 12 65 4 8 1 15 -5 15 -6 0 -11 -13 -11 -29 0 -42
-17 -47 -25 -9 -4 18 -10 37 -12 42 -9 14 -23 -18 -23 -53 0 -44 -15 -31 -29
24 -9 35 -10 32 -5 -25z"/>
<path d="M1547 3973 c-11 -10 -8 -121 3 -128 6 -4 10 20 10 64 0 71 -1 77 -13
64z"/>
<path d="M1641 3961 c-15 -27 -14 -83 2 -105 17 -23 51 -17 55 9 3 16 1 18 -9
8 -27 -26 -39 -15 -39 37 0 52 12 63 39 38 10 -11 12 -9 9 7 -5 28 -44 32 -57
6z"/>
<path d="M1830 3961 c-5 -11 -10 -34 -10 -51 0 -17 5 -40 10 -51 12 -22 60
-26 60 -5 0 9 -8 12 -26 8 -22 -4 -25 -2 -22 19 2 18 10 25 31 27 20 3 27 9
27 26 0 44 -50 63 -70 27z m50 -22 c0 -20 -24 -26 -35 -9 -8 13 14 42 26 34 5
-3 9 -14 9 -25z"/>
<path d="M1927 3973 c-17 -16 -6 -54 18 -65 30 -13 34 -48 6 -48 -11 0 -22 6
-25 13 -3 6 -5 3 -3 -8 3 -29 53 -33 62 -6 9 28 -3 61 -21 61 -17 0 -29 24
-19 40 5 8 11 8 19 1 14 -12 29 -4 20 10 -6 11 -48 12 -57 2z"/>
<path d="M2302 3968 c-17 -17 -15 -103 3 -118 16 -14 47 -10 52 6 2 7 -6 10
-22 7 -22 -5 -25 -2 -25 22 0 24 3 27 26 22 31 -6 41 14 26 49 -12 26 -40 32
-60 12z m42 -14 c10 -26 7 -34 -14 -34 -13 0 -20 7 -20 18 0 33 23 44 34 16z"/>
<path d="M2402 3968 c-12 -12 -17 -85 -6 -112 8 -21 50 -21 58 0 4 9 3 20 0
23 -4 3 -9 0 -11 -6 -8 -23 -30 -13 -36 16 -12 56 11 88 42 59 10 -11 12 -9 9
7 -4 23 -38 31 -56 13z"/>
<path d="M1780 3640 c0 -5 5 -10 11 -10 5 0 7 5 4 10 -3 6 -8 10 -11 10 -2 0
-4 -4 -4 -10z"/>
<path d="M1980 3619 c0 -25 -3 -30 -16 -25 -29 11 -44 -13 -44 -70 0 -58 14
-74 56 -66 23 4 24 7 24 98 0 56 -4 94 -10 94 -5 0 -10 -14 -10 -31z m-5 -90
c0 -33 -4 -45 -17 -47 -21 -4 -34 49 -18 78 18 33 35 18 35 -31z"/>
<path d="M1656 3624 c-3 -9 -6 -47 -6 -84 0 -58 3 -71 19 -80 25 -13 66 2 80
29 19 34 13 109 -9 131 -24 24 -75 27 -84 4z m65 -14 c15 -8 19 -21 19 -59 0
-52 -16 -75 -47 -69 -13 2 -19 14 -21 47 -4 52 4 91 19 91 6 0 19 -5 30 -10z"/>
<path d="M1836 3584 c-16 -15 -22 -78 -10 -108 4 -9 18 -16 34 -16 32 0 40 14
40 70 0 36 -20 70 -40 70 -5 0 -16 -7 -24 -16z m42 -57 c3 -41 1 -47 -16 -47
-25 0 -36 39 -22 75 15 40 35 25 38 -28z"/>
<path d="M2037 3588 c-17 -9 -24 -78 -11 -112 9 -23 64 -22 64 1 0 13 -3 14
-11 6 -16 -16 -39 -5 -39 18 0 14 7 19 30 19 24 0 30 4 30 23 0 40 -32 63 -63
45z m41 -30 c2 -9 -6 -18 -18 -21 -14 -4 -20 0 -20 12 0 33 32 41 38 9z"/>
<path d="M2133 3593 c-23 -9 -14 -50 14 -71 18 -13 24 -25 20 -36 -6 -14 -11
-15 -28 -5 -17 9 -20 8 -17 -3 3 -7 18 -13 34 -13 24 0 30 5 32 27 2 20 -4 31
-22 44 -35 22 -35 48 -1 40 27 -7 35 8 9 18 -18 7 -23 7 -41 -1z"/>
<path d="M1780 3525 c0 -37 4 -65 10 -65 6 0 10 28 10 65 0 37 -4 65 -10 65
-6 0 -10 -28 -10 -65z"/>
<path d="M7114 5751 c-17 -10 -42 -40 -55 -67 l-24 -49 0 -1795 0 -1795 24
-49 c47 -94 -74 -86 1261 -86 1335 0 1214 -8 1261 86 l24 49 0 1795 0 1795
-24 49 c-47 94 74 86 -1261 86 -1133 0 -1176 -1 -1206 -19z m2411 -23 c15 -12
36 -40 46 -62 18 -39 19 -110 19 -1826 0 -1716 -1 -1787 -19 -1826 -10 -22
-31 -50 -46 -62 l-28 -22 -1177 0 -1177 0 -28 22 c-15 12 -36 40 -46 62 -18
39 -19 110 -19 1826 0 1716 1 1787 19 1826 10 22 31 50 46 62 l28 22 1177 0
1177 0 28 -22z"/>
<path d="M8630 5319 c0 -128 2 -140 18 -137 15 3 17 18 20 118 3 128 -1 160
-23 160 -13 0 -15 -23 -15 -141z"/>
<path d="M9000 5320 c0 -129 2 -141 18 -138 12 2 18 16 22 48 l5 45 22 -48
c14 -29 28 -47 35 -44 16 5 15 20 -8 79 -17 45 -17 48 1 82 11 19 16 38 12 42
-9 9 -44 -23 -54 -50 -6 -15 -9 0 -13 49 -4 56 -8 70 -22 73 -16 3 -18 -9 -18
-138z"/>
<path d="M7560 5425 c-19 -20 -25 -40 -28 -88 -7 -105 36 -170 102 -153 74 18
96 188 33 247 -30 27 -78 24 -107 -6z m86 -36 c26 -29 26 -120 -1 -149 -23
-25 -30 -25 -55 0 -38 38 -19 170 24 170 7 0 21 -9 32 -21z"/>
<path d="M8445 5428 c-3 -13 -5 -72 -3 -133 l3 -110 52 -3 c45 -3 56 1 78 22
29 29 33 71 9 105 -12 17 -13 26 -5 34 18 18 13 65 -9 87 -15 15 -33 20 -70
20 -43 0 -50 -3 -55 -22z m93 -27 c8 -4 12 -19 10 -32 -2 -19 -9 -24 -33 -24
-21 0 -31 5 -33 18 -8 40 22 60 56 38z m20 -133 c3 -22 -2 -30 -22 -39 -35
-16 -56 -5 -56 29 0 37 8 44 45 40 24 -2 31 -8 33 -30z"/>
<path d="M7888 5395 c-10 -20 -13 -37 -8 -40 6 -4 10 -35 10 -71 0 -36 5 -74
10 -85 14 -26 50 -25 50 1 0 11 -4 20 -10 20 -15 0 -13 127 3 133 10 3 10 9 0
26 -7 11 -13 28 -13 36 0 27 -25 15 -42 -20z"/>
<path d="M8287 5398 c-12 -22 -15 -34 -7 -42 5 -5 10 -42 10 -82 0 -75 14
-102 45 -90 17 6 20 33 4 38 -19 6 -23 95 -5 122 15 23 14 27 -2 55 -9 17 -19
31 -22 31 -3 0 -13 -14 -23 -32z"/>
<path d="M7737 5384 c-4 -4 -7 -42 -7 -83 0 -101 33 -151 70 -106 11 14 14 13
25 -1 23 -33 35 -5 35 84 0 48 -4 93 -9 101 -17 27 -31 -1 -31 -63 0 -38 -5
-70 -14 -82 -23 -30 -35 -7 -38 75 -3 68 -13 93 -31 75z"/>
<path d="M7975 5368 c-3 -13 -4 -75 -3 -138 3 -100 5 -115 21 -118 14 -3 17 4
17 44 0 37 3 45 12 36 39 -39 78 7 78 93 0 39 -6 69 -16 83 -16 24 -43 29 -61
11 -8 -8 -13 -8 -17 0 -11 18 -25 13 -31 -11z m83 -78 c3 -59 -8 -81 -33 -60
-18 15 -20 91 -3 108 22 22 33 7 36 -48z"/>
<path d="M8137 5383 c-9 -8 -9 -140 -1 -170 8 -28 40 -39 61 -21 13 10 17 10
20 1 3 -7 11 -13 19 -13 12 0 14 18 12 102 -2 65 -7 103 -14 105 -8 3 -13 -21
-16 -71 -3 -74 -16 -105 -37 -92 -6 4 -11 36 -11 71 0 82 -11 111 -33 88z"/>
<path d="M8721 5371 c-37 -37 -39 -116 -5 -168 21 -33 68 -31 91 4 25 38 25
134 -1 162 -24 26 -60 27 -85 2z m63 -37 c9 -24 7 -87 -4 -104 -7 -12 -13 -12
-27 -4 -22 13 -30 89 -12 110 15 19 35 18 43 -2z"/>
<path d="M8876 5375 c-33 -33 -33 -140 0 -176 9 -11 27 -19 40 -19 23 0 54 33
54 57 0 19 -27 16 -38 -4 -6 -10 -16 -14 -26 -10 -23 9 -23 115 0 124 10 4 20
0 26 -10 11 -20 38 -23 38 -4 0 46 -62 73 -94 42z"/>
<path d="M8024 4798 c-33 -61 -19 -248 18 -248 6 0 7 8 3 18 -22 55 -27 138
-12 197 8 33 14 62 12 63 -2 2 -11 -11 -21 -30z"/>
<path d="M8395 4818 c-2 -7 -5 -22 -7 -33 -2 -13 -10 -19 -22 -17 -32 6 -46
-17 -46 -73 0 -76 5 -85 51 -85 l39 0 0 110 c0 101 -4 129 -15 98z m-17 -80
c14 -14 16 -77 3 -97 -19 -29 -41 -4 -41 47 0 61 12 76 38 50z"/>
<path d="M8595 4808 c28 -92 28 -167 0 -240 -4 -10 -3 -18 3 -18 36 0 51 187
19 248 -20 37 -33 43 -22 10z"/>
<path d="M8114 4809 c-3 -6 -15 -43 -25 -82 -10 -40 -21 -82 -25 -94 -10 -35
12 -28 25 7 8 23 16 30 36 30 20 0 29 -7 38 -30 14 -38 31 -40 23 -2 -25 104
-49 182 -57 182 -4 0 -11 -5 -15 -11z m30 -82 c5 -20 2 -29 -9 -33 -23 -9 -28
1 -21 42 8 39 19 36 30 -9z"/>
<path d="M8500 4760 c-14 -14 -20 -34 -20 -66 0 -58 14 -84 45 -84 30 0 45 26
45 80 0 72 -34 106 -70 70z m45 -70 c0 -48 -2 -55 -20 -55 -16 0 -21 8 -23 44
-4 54 3 73 25 69 15 -3 18 -14 18 -58z"/>
<path d="M8210 4703 c0 -83 7 -96 50 -91 l32 4 0 73 c0 40 -3 75 -6 78 -3 4
-6 -12 -6 -34 0 -69 -10 -103 -31 -103 -17 0 -19 8 -19 64 0 36 -4 68 -10 71
-6 4 -10 -19 -10 -62z"/>
<path d="M8440 4697 c-3 -44 -2 -81 2 -83 12 -7 13 9 8 86 l-6 75 -4 -78z"/>
<path d="M7987 4023 c-11 -10 -8 -183 2 -183 6 0 11 17 13 38 4 49 27 49 51
-2 22 -47 34 -41 16 8 -10 28 -10 39 -1 48 18 18 15 69 -5 84 -19 14 -65 19
-76 7z m57 -19 c10 -4 16 -18 16 -35 0 -26 -4 -29 -30 -29 -26 0 -30 4 -30 28
0 40 11 49 44 36z"/>
<path d="M8138 4020 c-39 -23 -46 -122 -10 -162 27 -32 82 -17 82 22 -1 13 -3
12 -14 -2 -37 -49 -87 15 -68 87 12 41 36 54 61 31 18 -17 21 -17 21 -3 0 9
-9 21 -19 27 -24 12 -31 12 -53 0z"/>
<path d="M8297 4023 c-11 -10 -8 -183 2 -183 6 0 11 17 13 38 3 32 6 37 27 37
14 0 26 6 29 13 2 8 -7 12 -27 12 -28 0 -31 3 -31 29 0 25 5 30 27 33 41 5 41
28 1 28 -19 0 -38 -3 -41 -7z"/>
<path d="M8444 3935 c0 -55 1 -76 3 -47 2 29 2 74 0 100 -2 26 -3 2 -3 -53z"/>
<path d="M8477 3993 c-3 -5 -2 -41 0 -80 4 -55 9 -73 20 -73 10 0 13 6 8 18
-14 37 -17 70 -6 90 16 30 -6 72 -22 45z"/>
<path d="M8403 3910 c0 -41 2 -58 4 -37 2 20 2 54 0 75 -2 20 -4 3 -4 -38z"/>
<path d="M8531 3961 c-15 -27 -13 -82 3 -103 15 -21 52 -24 59 -5 3 8 -4 13
-22 12 -38 0 -37 39 2 43 25 3 28 7 25 35 -2 26 -8 33 -30 35 -18 2 -30 -3
-37 -17z m55 -30 c-9 -14 -33 -14 -41 -1 -4 6 -1 18 6 26 11 13 14 13 27 0 8
-8 11 -19 8 -25z"/>
<path d="M8631 3906 l2 -71 7 55 c4 30 10 62 14 71 5 11 2 16 -9 16 -12 0 -15
-13 -14 -71z"/>
<path d="M8136 3637 c-9 -7 -17 -21 -16 -32 1 -50 0 -62 -5 -91 -8 -36 12 -57
47 -52 22 3 23 8 25 84 1 68 -2 82 -17 92 -13 8 -22 8 -34 -1z m34 -27 c12
-23 6 -40 -15 -40 -19 0 -27 17 -20 40 8 26 21 25 35 0z m10 -99 c0 -23 -19
-41 -36 -34 -17 6 -18 45 -2 61 14 14 38 -2 38 -27z"/>
<path d="M8335 3636 c-17 -12 -20 -26 -20 -85 0 -75 16 -108 48 -95 40 15 47
138 10 176 -17 16 -21 17 -38 4z m41 -51 c9 -52 -3 -107 -24 -103 -13 2 -18
16 -20 57 -4 62 2 81 22 81 9 0 18 -14 22 -35z"/>
<path d="M8432 3638 c-7 -7 -12 -19 -12 -27 0 -12 3 -11 18 2 10 10 22 14 25
10 11 -10 8 -48 -4 -60 -8 -8 -7 -17 4 -33 9 -12 13 -29 10 -36 -6 -17 -40
-18 -46 -1 -2 6 -7 9 -11 6 -11 -10 5 -38 26 -45 27 -8 51 17 48 53 -1 15 -1
46 -1 67 0 24 -6 47 -16 58 -19 21 -25 22 -41 6z"/>
<path d="M7747 3633 c-11 -10 -8 -173 2 -173 6 0 11 15 13 33 2 26 8 33 28 35
46 6 67 64 34 96 -15 16 -65 22 -77 9z m68 -48 c0 -25 -4 -30 -27 -33 -25 -3
-28 0 -28 26 0 35 8 44 35 40 15 -2 20 -10 20 -33z"/>
<path d="M7884 3629 c-6 -11 -43 -147 -44 -161 0 -19 19 -6 22 15 5 35 51 36
67 1 23 -51 23 -14 0 71 -23 83 -31 96 -45 74z m26 -76 c0 -14 -6 -23 -15 -23
-16 0 -20 26 -9 55 5 13 8 14 15 3 5 -7 9 -23 9 -35z"/>
<path d="M7970 3551 c0 -54 4 -91 10 -91 6 0 10 26 11 58 1 59 4 55 23 -30 9
-39 24 -35 32 10 11 62 23 72 24 20 0 -26 5 -50 10 -53 6 -4 10 27 10 85 0
110 -16 118 -41 19 -18 -69 -21 -67 -43 18 -21 81 -36 66 -36 -36z"/>
<path d="M8236 3579 c-14 -33 -26 -64 -26 -68 0 -5 14 -11 30 -14 19 -4 30
-13 31 -24 0 -16 1 -15 8 2 9 24 2 165 -9 165 -4 0 -19 -27 -34 -61z m34 -23
c0 -36 -26 -58 -36 -31 -6 14 20 65 31 65 3 0 5 -15 5 -34z"/>
<path d="M8571 3560 c-22 -81 -23 -130 -2 -77 14 37 58 38 67 2 3 -14 10 -25
15 -25 5 0 6 12 3 28 -25 100 -40 146 -50 149 -7 2 -20 -29 -33 -77z m45 -27
c-11 -11 -35 7 -31 22 16 49 17 50 27 16 5 -18 7 -36 4 -38z"/>
<path d="M8692 3589 c-18 -7 -20 -14 -17 -66 6 -78 7 -79 14 -8 4 44 10 60 21
60 11 0 17 -16 21 -60 3 -33 6 -46 7 -29 3 57 14 94 28 94 10 0 14 -16 14 -60
0 -33 4 -60 10 -60 14 0 13 117 -1 126 -17 10 -72 12 -97 3z"/>
<path d="M8843 3593 c-22 -4 -23 -9 -23 -99 0 -56 4 -94 10 -94 6 0 10 13 10
29 0 25 4 30 28 33 25 3 27 6 30 56 3 48 -9 84 -27 81 -3 -1 -16 -4 -28 -6z
m35 -63 c4 -47 -12 -75 -28 -50 -11 17 -13 61 -4 85 11 28 29 10 32 -35z"/>
<path d="M8018 3249 c-10 -5 -18 -21 -18 -34 0 -25 35 -65 56 -65 18 0 26 -17
19 -40 -8 -24 -32 -26 -57 -3 -15 13 -18 14 -18 2 0 -43 61 -52 86 -14 21 33
10 62 -32 82 -21 10 -34 24 -34 35 0 27 27 33 50 13 16 -15 20 -15 20 -4 0 34
-38 48 -72 28z"/>
<path d="M8423 3165 c0 -55 1 -91 4 -80 10 48 14 49 34 16 26 -43 35 -34 13
12 -14 30 -15 41 -5 63 16 36 6 43 -12 7 -18 -32 -24 -23 -30 42 -2 22 -4 -5
-4 -60z"/>
<path d="M8337 3209 c-24 -14 -22 -32 2 -19 25 13 28 7 30 -52 1 -37 -2 -48
-14 -48 -21 0 -30 27 -15 45 10 12 10 15 -3 15 -17 0 -28 -31 -20 -59 4 -16
13 -20 45 -18 34 1 39 4 34 22 -3 11 -6 39 -6 62 0 47 -22 69 -53 52z"/>
<path d="M8121 3113 c1 -54 4 -86 6 -71 3 20 11 28 31 30 23 2 28 10 35 43 12
59 -4 95 -43 95 l-30 0 1 -97z m59 25 c0 -36 -20 -61 -37 -45 -8 9 -7 82 2 96
13 22 35 -9 35 -51z"/>
<path d="M8225 3195 c-3 -8 -7 -22 -10 -31 -3 -9 0 -34 5 -55 9 -32 15 -39 35
-39 14 0 25 2 25 4 0 2 3 12 6 21 6 15 4 15 -15 3 -18 -11 -23 -11 -31 2 -14
22 -7 35 21 38 34 5 41 15 30 45 -8 20 -18 27 -36 27 -14 0 -28 -7 -30 -15z
m51 -34 c-9 -14 -33 -14 -41 -1 -4 6 -1 18 6 26 11 13 14 13 27 0 8 -8 11 -19
8 -25z"/>
<path d="M8510 3184 c-13 -33 -13 -57 2 -89 13 -28 52 -35 62 -10 4 12 0 14
-18 9 -16 -4 -25 0 -30 11 -9 23 1 35 29 35 31 0 38 12 25 44 -13 36 -57 36
-70 0z m50 -15 c0 -22 -25 -26 -33 -5 -6 16 12 38 25 30 4 -3 8 -14 8 -25z"/>
<path d="M8609 3208 c0 -2 -2 -31 -5 -65 -5 -76 11 -85 18 -11 3 29 11 54 17
56 19 6 12 22 -9 22 -11 0 -20 -1 -21 -2z"/>
</g>
</svg>
