<?xml version="1.0" standalone="no"?>
<!DOCTYPE svg PUBLIC "-//W3C//DTD SVG 20010904//EN"
 "http://www.w3.org/TR/2001/REC-SVG-20010904/DTD/svg10.dtd">
<svg version="1.0" xmlns="http://www.w3.org/2000/svg"
 width="1024.000000pt" height="768.000000pt" viewBox="0 0 1024.000000 768.000000"
 preserveAspectRatio="xMidYMid meet">
<metadata>
Created by potrace 1.16, written by Peter Selinger 2001-2019
</metadata>
<g transform="translate(0.000000,768.000000) scale(0.100000,-0.100000)"
fill="#000000" stroke="none">
<path d="M4370 7366 c0 -8 5 -18 10 -21 13 -8 42 14 34 26 -9 15 -44 10 -44
-5z"/>
<path d="M5072 7363 c2 -10 10 -18 18 -18 8 0 16 8 18 18 2 12 -3 17 -18 17
-15 0 -20 -5 -18 -17z"/>
<path d="M5294 7369 c-7 -12 15 -31 31 -26 6 2 11 11 13 20 4 19 -32 24 -44 6z"/>
<path d="M7025 7368 c-3 -8 -4 -70 -3 -139 3 -116 4 -124 23 -124 19 0 20 7
20 135 0 120 -2 135 -18 138 -9 2 -19 -3 -22 -10z"/>
<path d="M3017 7289 c-26 -45 -47 -92 -47 -105 0 -22 4 -24 50 -24 46 0 50 -2
50 -24 0 -14 4 -27 9 -30 16 -11 41 6 41 26 0 12 8 27 18 34 16 13 16 15 0 28
-14 10 -18 28 -18 79 0 80 -6 97 -34 97 -16 0 -33 -19 -69 -81z m53 -39 c0
-49 -1 -50 -30 -50 -16 0 -30 3 -30 6 0 8 51 94 56 94 2 0 4 -22 4 -50z"/>
<path d="M3439 7353 c-31 -37 -89 -142 -91 -164 -3 -22 2 -24 47 -29 42 -4 50
-8 55 -30 5 -23 11 -26 40 -21 6 0 10 11 10 22 0 12 8 28 18 35 16 13 16 15 0
27 -13 10 -18 32 -20 93 -3 71 -5 79 -24 82 -11 2 -27 -5 -35 -15z m11 -108
c0 -43 -1 -45 -30 -45 -16 0 -30 2 -30 6 0 11 45 84 53 84 4 0 7 -20 7 -45z"/>
<path d="M3652 7238 c3 -110 6 -133 18 -133 12 0 16 18 18 90 l4 90 24 -75
c13 -41 24 -80 24 -86 0 -15 31 -27 40 -17 4 4 15 37 24 73 28 100 30 101 36
10 5 -83 6 -87 40 -81 11 1 14 218 4 245 -9 22 -61 21 -68 -1 -36 -129 -48
-164 -52 -160 -3 2 -15 42 -28 88 -22 82 -23 84 -54 87 l-33 3 3 -133z"/>
<path d="M4730 7353 c0 -10 6 -43 14 -73 7 -30 19 -81 26 -113 15 -65 21 -71
55 -63 19 5 24 15 30 58 9 66 31 128 38 108 3 -8 11 -48 18 -88 10 -62 16 -73
35 -78 31 -8 41 0 49 39 3 17 15 70 26 116 21 87 20 111 -5 111 -17 0 -33 -44
-42 -118 -4 -29 -10 -55 -14 -57 -5 -3 -13 19 -20 48 -28 125 -29 127 -54 127
-28 0 -29 -3 -47 -98 -7 -40 -18 -71 -24 -69 -5 2 -17 39 -25 83 -13 68 -18
79 -38 82 -16 3 -22 -2 -22 -15z"/>
<path d="M5904 7357 c-2 -7 -3 -67 -2 -133 l3 -119 90 0 c77 0 90 2 93 18 3
15 -5 17 -55 17 -71 0 -86 9 -81 46 3 28 6 29 63 34 44 4 60 9 60 20 0 11 -15
16 -63 18 l-63 3 3 32 c3 32 3 32 66 35 54 3 62 6 62 22 0 18 -7 20 -85 20
-61 0 -87 -4 -91 -13z"/>
<path d="M4133 7333 c-4 -10 -13 -23 -21 -29 -13 -10 -13 -14 1 -35 12 -16 17
-44 17 -85 0 -70 14 -90 55 -80 30 8 32 21 5 36 -27 15 -29 116 -3 135 17 13
17 14 0 32 -9 11 -17 25 -17 31 0 19 -30 14 -37 -5z"/>
<path d="M3170 7293 c0 -10 9 -29 20 -43 26 -33 25 -43 -5 -91 -14 -22 -23
-44 -20 -49 12 -19 35 -10 50 20 20 38 35 38 57 0 17 -29 41 -39 52 -21 3 5
-5 25 -19 45 -30 44 -31 62 -5 101 39 58 10 79 -33 24 l-24 -31 -22 31 c-24
34 -51 41 -51 14z"/>
<path d="M3950 7290 c-34 -34 -4 -56 32 -23 17 15 20 15 34 1 22 -22 10 -37
-37 -44 -58 -10 -81 -71 -41 -107 23 -21 46 -21 76 -2 21 14 24 14 29 0 7 -17
42 -20 52 -5 4 6 2 16 -3 23 -5 7 -12 41 -14 76 -4 51 -9 68 -27 82 -30 25
-76 24 -101 -1z m75 -100 c9 -14 -13 -50 -31 -50 -8 0 -17 7 -20 15 -11 29 35
61 51 35z"/>
<path d="M4235 7287 c-3 -12 -5 -58 -3 -102 3 -72 5 -80 23 -80 17 0 21 8 25
65 5 69 13 90 35 90 17 0 28 31 16 43 -7 7 -15 6 -25 -2 -11 -9 -20 -10 -35
-2 -27 15 -30 14 -36 -12z"/>
<path d="M4377 7303 c-11 -10 -8 -191 2 -197 5 -4 16 -3 25 0 13 5 16 23 16
93 0 92 -16 131 -43 104z"/>
<path d="M4460 7298 c0 -7 9 -28 20 -46 26 -42 25 -50 -6 -96 -16 -23 -22 -42
-17 -47 10 -10 43 -2 43 10 0 3 9 17 19 30 l18 23 21 -36 c20 -34 45 -46 56
-28 3 4 -9 29 -25 54 l-30 46 26 42 c16 26 23 46 18 51 -14 14 -39 1 -52 -28
l-12 -26 -29 31 c-30 33 -50 41 -50 20z"/>
<path d="M5075 7298 c-3 -8 -5 -55 -3 -104 2 -71 6 -89 18 -89 12 0 15 18 15
99 0 71 -4 101 -12 103 -7 3 -15 -2 -18 -9z"/>
<path d="M5173 7303 c-9 -3 -13 -33 -13 -98 0 -76 3 -94 16 -99 27 -10 34 3
34 67 0 66 5 80 33 90 21 8 23 47 2 47 -7 0 -18 -8 -24 -17 -9 -17 -10 -17
-16 0 -7 18 -11 19 -32 10z"/>
<path d="M5302 7298 c-8 -8 -12 -44 -12 -99 0 -72 3 -88 17 -93 28 -11 34 8
31 104 -3 92 -11 113 -36 88z"/>
<path d="M5397 7303 c-11 -10 -8 -191 2 -197 5 -4 16 -3 25 0 11 4 16 24 18
76 2 54 7 73 20 82 28 17 41 -7 47 -86 5 -56 10 -73 21 -73 24 0 27 161 4 186
-19 21 -46 24 -76 8 -14 -8 -23 -8 -31 0 -13 13 -21 14 -30 4z"/>
<path d="M5614 7289 c-14 -16 -19 -36 -19 -85 0 -85 27 -112 93 -90 18 6 22 4
22 -12 0 -30 -27 -48 -51 -34 -25 16 -59 15 -59 -2 0 -42 95 -55 132 -18 20
20 23 35 26 118 2 52 1 106 -2 119 -7 26 -31 34 -38 14 -3 -9 -9 -9 -25 0 -32
17 -58 13 -79 -10z m86 -38 c21 -40 5 -111 -25 -111 -28 0 -46 70 -29 114 8
22 41 20 54 -3z"/>
<path d="M6127 7303 c-4 -3 5 -26 19 -51 l26 -44 -31 -49 c-27 -43 -29 -51
-14 -56 11 -4 26 5 49 32 30 36 32 37 38 17 9 -28 33 -52 52 -52 21 0 17 21
-11 62 -31 46 -31 47 1 93 15 22 22 41 16 47 -13 13 -35 1 -53 -28 -17 -28
-16 -28 -57 21 -14 16 -25 19 -35 8z"/>
<path d="M6342 7294 c-12 -8 -22 -22 -22 -30 0 -18 34 -18 50 0 15 19 40 9 40
-15 0 -13 -10 -20 -37 -25 -21 -4 -44 -11 -50 -17 -18 -14 -16 -73 3 -91 18
-19 34 -20 69 -4 19 9 28 9 37 0 19 -19 48 -14 48 7 0 11 -4 23 -10 26 -5 3
-10 33 -10 66 0 46 -4 63 -20 79 -24 24 -67 26 -98 4z m68 -108 c0 -28 -12
-46 -30 -46 -25 0 -33 16 -20 40 12 23 50 27 50 6z"/>
<path d="M6514 7297 c-3 -8 -4 -54 -2 -103 3 -75 6 -89 21 -92 14 -3 17 5 17
51 0 63 16 117 35 117 22 0 27 -17 26 -85 0 -43 4 -66 14 -75 24 -20 35 -1 35
64 0 73 18 109 44 87 12 -10 16 -31 16 -82 0 -70 6 -84 34 -73 12 5 16 20 15
68 -2 93 -10 119 -41 130 -22 8 -32 6 -48 -9 -19 -17 -21 -17 -38 -2 -23 21
-46 22 -65 2 -13 -13 -16 -13 -27 0 -15 19 -29 19 -36 2z"/>
<path d="M6817 7303 c-4 -3 -7 -66 -7 -140 l0 -133 25 0 c23 0 25 4 25 45 0
42 11 58 25 35 12 -19 53 -10 74 16 24 30 29 106 9 149 -13 30 -50 42 -82 27
-14 -6 -28 -7 -37 -1 -17 11 -24 11 -32 2z m102 -47 c17 -21 10 -97 -11 -109
-26 -17 -48 9 -48 57 0 58 31 86 59 52z"/>
<path d="M7143 7295 c-33 -23 -48 -79 -34 -126 20 -66 89 -91 132 -48 28 28
11 49 -25 29 -33 -17 -58 -6 -54 22 3 20 10 23 56 26 44 3 52 6 52 23 0 69
-73 111 -127 74z m65 -27 c21 -21 13 -38 -18 -38 -18 0 -30 5 -30 13 0 13 19
37 30 37 3 0 11 -5 18 -12z"/>
<path d="M4234 5848 c-18 -10 -37 -32 -44 -48 l-12 -30 -763 0 -763 0 -21 35
c-41 69 -101 69 -142 0 l-21 -35 -264 0 c-243 0 -265 1 -271 18 -15 40 -63 44
-83 7 -13 -24 -17 -25 -87 -21 -78 5 -83 1 -59 -43 l13 -23 8 23 8 24 4 -24
c3 -13 -1 -27 -8 -31 -7 -5 -9 -16 -5 -26 9 -23 22 -9 33 36 8 31 13 35 43 35
29 0 35 -4 42 -31 4 -17 15 -37 23 -44 23 -19 65 2 65 33 0 46 9 47 281 47
l257 0 21 -35 c41 -69 101 -69 142 0 l21 35 763 0 763 0 12 -30 c7 -16 27 -38
45 -49 32 -19 33 -19 64 1 17 11 38 33 47 49 l15 29 759 0 759 0 15 -29 c9
-16 30 -38 47 -49 31 -20 32 -20 64 -1 18 11 38 33 45 49 l12 30 763 0 763 0
21 -35 c26 -45 62 -62 96 -47 14 7 35 28 46 47 l21 35 379 0 c246 0 379 4 379
10 0 6 -133 10 -379 10 l-379 0 -21 35 c-41 69 -101 69 -142 0 l-21 -35 -763
0 -763 0 -12 30 c-7 16 -27 38 -45 49 -32 19 -33 19 -64 -1 -17 -11 -38 -33
-47 -49 l-15 -29 -758 0 -759 0 -20 33 c-10 17 -32 39 -48 48 -27 15 -31 15
-60 -3z m-2324 -64 c0 -8 -8 -14 -18 -14 -25 0 -34 11 -21 26 13 15 39 7 39
-12z m3 -68 c-3 -36 -6 -39 -32 -31 -13 4 -21 15 -21 29 0 29 9 38 35 34 15
-2 20 -10 18 -32z"/>
<path d="M1380 5745 c0 -43 4 -75 10 -75 6 0 10 11 10 25 0 40 29 44 60 7 33
-40 47 -41 24 -2 -17 28 -17 30 1 50 15 17 16 24 7 45 -10 22 -18 25 -62 25
l-50 0 0 -75z m97 39 c6 -18 -27 -45 -51 -42 -15 2 -22 11 -24 31 -3 27 -2 28
34 25 21 -2 39 -8 41 -14z"/>
<path d="M1528 5755 c-18 -39 0 -79 37 -83 19 -3 33 2 42 14 18 24 16 69 -2
84 -21 17 -29 7 -14 -18 17 -27 4 -72 -21 -72 -24 0 -38 45 -21 71 14 23 14
29 1 29 -6 0 -16 -11 -22 -25z"/>
<path d="M1641 5741 c-1 -24 2 -32 9 -25 7 7 7 19 1 35 -9 23 -10 22 -10 -10z"/>
<path d="M1673 5723 c-4 -10 -11 -21 -16 -24 -6 -4 -7 -15 -3 -25 7 -18 8 -18
22 0 13 19 20 66 9 66 -3 0 -9 -8 -12 -17z"/>
<path d="M2518 4687 c-14 -12 -31 -32 -37 -44 l-12 -23 -280 0 -279 0 -10 26
c-11 27 -32 24 -28 -4 3 -15 -8 -17 -89 -16 -51 1 -93 -1 -93 -5 0 -16 36 -99
45 -102 6 -2 14 13 19 34 11 41 29 51 87 45 30 -3 34 -7 37 -35 3 -25 -1 -33
-13 -33 -9 0 -13 -4 -10 -10 8 -12 75 -13 75 -1 0 5 -7 12 -16 15 -10 4 -14
15 -12 33 l3 28 280 3 281 2 17 -29 c10 -17 31 -40 47 -51 l30 -21 30 21 c17
12 37 35 45 51 l16 29 759 0 760 0 19 -31 c11 -17 32 -40 47 -50 25 -16 30
-16 56 -3 16 9 39 31 50 50 l20 34 758 0 758 0 20 -34 c11 -19 34 -41 50 -50
26 -13 31 -13 56 3 15 10 36 33 47 50 l19 31 758 0 758 0 17 -30 c10 -16 31
-39 47 -50 l30 -21 30 21 c17 12 37 35 45 51 l16 29 380 0 c251 0 378 3 374
10 -4 6 -141 10 -380 10 l-373 0 -19 33 c-11 17 -32 38 -46 46 -23 12 -31 12
-54 0 -14 -8 -35 -29 -46 -46 l-19 -33 -761 0 -762 0 -17 29 c-9 16 -28 37
-42 46 -22 15 -31 15 -56 5 -16 -7 -39 -28 -51 -46 l-21 -34 -758 0 -758 0
-21 34 c-12 18 -35 39 -51 46 -25 10 -34 10 -56 -5 -14 -9 -33 -30 -42 -46
l-17 -29 -762 0 -762 0 -15 29 c-16 29 -56 61 -78 61 -7 0 -25 -10 -40 -23z
m-778 -112 c0 -14 -4 -25 -10 -25 -11 0 -14 33 -3 43 11 11 13 8 13 -18z"/>
<path d="M1387 4663 c-11 -10 -8 -141 3 -148 6 -4 10 7 10 25 0 18 6 33 15 37
18 6 55 -23 55 -44 0 -7 7 -13 15 -13 12 0 11 5 -2 29 -16 27 -16 30 0 45 21
22 22 40 1 60 -15 16 -84 22 -97 9z m89 -28 c9 -23 -16 -46 -45 -43 -20 2 -27
9 -29 31 -3 25 -1 27 33 27 23 0 38 -6 41 -15z"/>
<path d="M1530 4611 c-5 -11 -10 -28 -10 -38 0 -27 28 -63 50 -63 22 0 50 36
50 65 0 25 -25 63 -35 53 -3 -3 -1 -15 6 -26 17 -27 4 -72 -21 -72 -24 0 -38
45 -21 71 14 23 14 29 1 29 -5 0 -14 -9 -20 -19z"/>
<path d="M1640 4589 c0 -16 4 -28 9 -25 8 5 3 56 -5 56 -2 0 -4 -14 -4 -31z"/>
<path d="M1680 4581 c0 -5 -7 -17 -16 -26 -9 -9 -13 -23 -9 -33 6 -16 8 -16
21 2 13 19 20 66 9 66 -3 0 -5 -4 -5 -9z"/>
<path d="M1386 3512 c-10 -10 -6 -152 4 -152 6 0 10 14 10 30 0 25 4 30 25 30
17 0 29 -9 40 -30 9 -16 20 -30 26 -30 6 0 9 3 7 8 -2 4 -10 19 -17 34 -12 23
-11 29 3 43 19 20 21 39 4 52 -15 12 -94 24 -102 15z m84 -27 c17 -20 -3 -45
-37 -45 -13 0 -26 7 -29 15 -10 25 4 45 29 45 14 0 30 -7 37 -15z"/>
<path d="M1849 3490 c-15 -21 -33 -24 -111 -17 -53 4 -57 -3 -33 -49 8 -16 15
-37 15 -46 0 -10 4 -18 10 -18 12 0 30 34 30 58 0 24 18 32 76 32 49 0 53 -9
24 -50 -11 -15 -17 -30 -13 -34 10 -10 83 -7 83 4 0 6 -13 10 -30 10 -37 0
-38 9 -4 41 l26 24 309 3 c188 2 309 7 309 12 0 6 -117 10 -305 10 -298 0
-305 0 -305 20 0 28 -62 28 -81 0z m61 -5 c0 -9 -9 -15 -25 -15 -24 0 -32 10
-18 23 12 13 43 7 43 -8z m-170 -65 c0 -11 -4 -20 -10 -20 -5 0 -10 9 -10 20
0 11 5 20 10 20 6 0 10 -9 10 -20z"/>
<path d="M1587 3474 c-4 -4 -2 -13 4 -20 18 -22 7 -69 -18 -72 -17 -3 -24 3
-29 24 -4 15 -2 35 5 46 6 10 8 18 3 18 -16 0 -32 -25 -32 -49 1 -80 99 -80
100 0 0 28 -22 64 -33 53z"/>
<path d="M1640 3439 c0 -16 4 -28 9 -25 8 5 3 56 -5 56 -2 0 -4 -14 -4 -31z"/>
<path d="M2580 3460 c0 -7 285 -10 836 -10 554 0 833 3 829 10 -4 7 -293 10
-836 10 -546 0 -829 -3 -829 -10z"/>
<path d="M4285 3460 c-4 -7 277 -10 835 -10 558 0 839 3 835 10 -4 7 -293 10
-835 10 -542 0 -831 -3 -835 -10z"/>
<path d="M5995 3460 c-4 -7 275 -10 829 -10 551 0 836 3 836 10 0 7 -283 10
-829 10 -543 0 -832 -3 -836 -10z"/>
<path d="M7700 3460 c0 -7 145 -10 416 -10 274 0 413 3 409 10 -4 6 -153 10
-416 10 -266 0 -409 -3 -409 -10z"/>
<path d="M1666 3409 c-17 -21 -16 -49 3 -49 9 0 26 58 19 65 -2 3 -12 -5 -22
-16z"/>
<path d="M1380 2285 c0 -43 4 -75 10 -75 6 0 10 14 10 30 0 25 4 30 23 30 15
0 29 -11 40 -30 10 -16 22 -30 28 -30 13 0 11 7 -6 34 -14 21 -14 26 2 54 24
43 6 62 -58 62 l-49 0 0 -75z m90 50 c17 -20 -3 -45 -37 -45 -13 0 -26 7 -29
15 -10 25 4 45 29 45 14 0 30 -7 37 -15z"/>
<path d="M1848 2335 c-8 -18 -19 -25 -39 -25 -15 0 -31 5 -34 10 -4 6 -13 7
-23 1 -11 -6 -24 -6 -35 0 -25 14 -31 -10 -12 -47 8 -16 15 -37 15 -47 0 -30
24 -14 36 24 11 32 14 34 62 37 59 3 92 -10 92 -38 0 -15 -7 -20 -25 -20 -14
0 -25 5 -25 11 0 5 -5 7 -10 4 -20 -13 12 -36 44 -33 28 3 31 7 34 41 l3 37
305 0 c196 0 304 4 304 10 0 6 -107 10 -300 10 l-300 0 -10 25 c-7 19 -17 25
-40 25 -23 0 -33 -6 -42 -25z m60 -2 c5 -17 -26 -29 -40 -15 -6 6 -7 15 -3 22
9 14 37 9 43 -7z m-172 -80 c-11 -11 -19 6 -11 24 8 17 8 17 12 0 3 -10 2 -21
-1 -24z"/>
<path d="M1532 2308 c-30 -30 -3 -98 38 -98 41 0 68 68 38 98 -17 17 -33 15
-19 -2 7 -8 11 -27 9 -43 -2 -22 -8 -28 -28 -28 -20 0 -26 6 -28 28 -2 16 2
35 9 43 14 17 -2 19 -19 2z"/>
<path d="M1640 2283 c0 -24 3 -33 9 -25 7 12 4 62 -5 62 -2 0 -4 -17 -4 -37z"/>
<path d="M2580 2300 c0 -7 283 -10 829 -10 543 0 832 3 836 10 4 7 -275 10
-829 10 -551 0 -836 -3 -836 -10z"/>
<path d="M4285 2300 c4 -7 293 -10 835 -10 542 0 831 3 835 10 4 7 -277 10
-835 10 -558 0 -839 -3 -835 -10z"/>
<path d="M5995 2300 c4 -7 293 -10 836 -10 546 0 829 3 829 10 0 7 -285 10
-836 10 -554 0 -833 -3 -829 -10z"/>
<path d="M7700 2300 c0 -7 143 -10 409 -10 263 0 412 4 416 10 4 7 -135 10
-409 10 -271 0 -416 -3 -416 -10z"/>
<path d="M1665 2254 c-13 -20 -14 -29 -6 -37 15 -15 31 7 31 41 0 28 -4 28
-25 -4z"/>
<path d="M2599 728 c-3 -46 0 -140 5 -145 3 -4 6 30 6 75 0 45 -2 82 -5 82 -3
0 -5 -6 -6 -12z"/>
<path d="M4307 733 c-11 -11 -8 -153 3 -153 6 0 10 33 10 80 0 80 -1 86 -13
73z"/>
<path d="M6010 661 c0 -47 4 -81 10 -81 6 0 10 31 10 74 0 41 -4 78 -10 81 -6
4 -10 -23 -10 -74z"/>
<path d="M7719 728 c-3 -46 0 -140 5 -145 3 -4 6 30 6 75 0 45 -2 82 -5 82 -3
0 -5 -6 -6 -12z"/>
<path d="M2350 715 c-7 -9 -13 -36 -13 -60 0 -59 16 -77 67 -73 30 2 42 8 44
21 4 17 2 18 -21 3 -29 -20 -55 -12 -68 21 -13 36 -11 51 12 74 21 21 55 19
72 -5 5 -7 7 -3 5 9 -4 27 -78 34 -98 10z"/>
<path d="M2706 715 c-9 -24 -7 -108 3 -123 5 -8 21 -12 37 -10 23 2 30 9 37
39 5 20 4 51 0 70 -8 28 -14 35 -40 37 -21 2 -32 -2 -37 -13z m52 -7 c18 -18
15 -93 -4 -109 -14 -11 -18 -10 -30 6 -25 34 -14 115 16 115 3 0 11 -5 18 -12z"/>
<path d="M4057 712 c-21 -23 -22 -81 -1 -110 17 -25 71 -31 92 -10 21 21 13
29 -13 12 -23 -15 -27 -15 -50 0 -18 12 -25 25 -25 49 0 56 35 79 78 51 23
-15 25 -15 19 1 -4 9 -7 19 -7 21 0 2 -17 4 -38 4 -25 0 -45 -7 -55 -18z"/>
<path d="M4437 668 c5 -52 3 -63 -12 -75 -17 -12 -14 -13 26 -13 39 1 42 2 27
14 -14 10 -18 28 -18 75 0 46 -4 61 -14 61 -11 0 -13 -13 -9 -62z"/>
<path d="M5763 715 c-20 -22 -16 -99 5 -118 23 -21 75 -22 92 -2 15 18 10 18
-25 5 -43 -16 -65 2 -65 55 0 53 22 71 65 55 35 -13 40 -13 25 5 -16 19 -81
19 -97 0z"/>
<path d="M6119 713 c-12 -15 -12 -16 6 -9 22 8 25 9 43 7 22 -2 13 -32 -23
-74 -19 -22 -35 -44 -35 -49 0 -4 21 -7 48 -7 27 1 36 4 22 6 -42 8 -45 20
-11 58 33 37 35 44 25 69 -8 21 -58 21 -75 -1z"/>
<path d="M7470 715 c-7 -9 -13 -36 -13 -60 0 -59 16 -77 67 -73 30 2 42 8 44
21 4 17 2 18 -21 3 -29 -20 -55 -12 -68 21 -13 36 -11 51 12 74 21 21 55 19
72 -5 5 -7 7 -3 5 9 -4 27 -78 34 -98 10z"/>
<path d="M7827 724 c-15 -15 -6 -24 13 -14 11 6 25 8 30 5 14 -9 12 -43 -2
-48 -10 -3 -8 -9 5 -24 9 -11 17 -24 17 -30 0 -20 -33 -24 -53 -6 -19 17 -19
17 -16 -2 3 -15 13 -21 42 -23 38 -3 44 5 38 48 -1 8 -3 33 -4 55 -2 37 -4 40
-32 43 -17 2 -34 0 -38 -4z"/>
<path d="M2486 674 c-10 -26 -7 -69 6 -82 17 -17 65 -15 72 4 14 36 -2 110
-19 92 -4 -3 -1 -15 6 -26 16 -25 -2 -72 -26 -72 -23 0 -40 43 -26 68 13 25
14 32 2 32 -5 0 -12 -7 -15 -16z"/>
<path d="M4190 666 c-10 -21 -11 -31 0 -56 11 -27 17 -31 44 -28 23 2 33 10
40 29 12 35 0 79 -21 79 -13 0 -14 -3 -5 -12 14 -14 15 -57 2 -78 -7 -12 -13
-12 -27 -4 -21 13 -29 52 -14 67 13 13 14 27 3 27 -5 0 -15 -11 -22 -24z"/>
<path d="M5902 678 c-15 -15 -16 -53 -2 -79 22 -41 89 -14 90 37 0 25 -25 62
-36 51 -4 -4 -2 -13 4 -19 30 -30 -1 -94 -33 -68 -18 15 -20 61 -3 78 7 7 8
12 2 12 -5 0 -15 -5 -22 -12z"/>
<path d="M7606 674 c-10 -26 -7 -69 6 -82 17 -17 65 -15 72 4 14 36 -2 110
-19 92 -4 -3 -1 -15 6 -26 16 -25 -2 -72 -26 -72 -23 0 -40 43 -26 68 13 25
14 32 2 32 -5 0 -12 -7 -15 -16z"/>
</g>
</svg>
