<?xml version="1.0" encoding="UTF-8"?>
<svg xmlns="http://www.w3.org/2000/svg" xmlns:xlink="http://www.w3.org/1999/xlink" width="px" height="px" viewBox="0 0 256 192" version="1.1">
<g id="surface1">
<path style=" stroke:none;fill-rule:nonzero;fill:rgb(0%,0%,0%);fill-opacity:1;" d="M 109.25 7.851562 C 109.25 8.050781 109.375 8.300781 109.5 8.375 C 109.824219 8.574219 110.550781 8.023438 110.351562 7.726562 C 110.125 7.351562 109.25 7.476562 109.25 7.851562 Z M 109.25 7.851562 "/>
<path style=" stroke:none;fill-rule:nonzero;fill:rgb(0%,0%,0%);fill-opacity:1;" d="M 126.800781 7.925781 C 126.851562 8.175781 127.050781 8.375 127.25 8.375 C 127.449219 8.375 127.648438 8.175781 127.699219 7.925781 C 127.75 7.625 127.625 7.5 127.25 7.5 C 126.875 7.5 126.75 7.625 126.800781 7.925781 Z M 126.800781 7.925781 "/>
<path style=" stroke:none;fill-rule:nonzero;fill:rgb(0%,0%,0%);fill-opacity:1;" d="M 132.351562 7.773438 C 132.175781 8.074219 132.726562 8.550781 133.125 8.425781 C 133.273438 8.375 133.398438 8.148438 133.449219 7.925781 C 133.550781 7.449219 132.648438 7.324219 132.351562 7.773438 Z M 132.351562 7.773438 "/>
<path style=" stroke:none;fill-rule:nonzero;fill:rgb(0%,0%,0%);fill-opacity:1;" d="M 175.625 7.800781 C 175.550781 8 175.523438 9.550781 175.550781 11.273438 C 175.625 14.175781 175.648438 14.375 176.125 14.375 C 176.601562 14.375 176.625 14.199219 176.625 11 C 176.625 8 176.574219 7.625 176.175781 7.550781 C 175.949219 7.5 175.699219 7.625 175.625 7.800781 Z M 175.625 7.800781 "/>
<path style=" stroke:none;fill-rule:nonzero;fill:rgb(0%,0%,0%);fill-opacity:1;" d="M 75.425781 9.773438 C 74.773438 10.898438 74.25 12.074219 74.25 12.398438 C 74.25 12.949219 74.351562 13 75.5 13 C 76.648438 13 76.75 13.050781 76.75 13.601562 C 76.75 13.949219 76.851562 14.273438 76.976562 14.351562 C 77.375 14.625 78 14.199219 78 13.699219 C 78 13.398438 78.199219 13.023438 78.449219 12.851562 C 78.851562 12.523438 78.851562 12.476562 78.449219 12.148438 C 78.101562 11.898438 78 11.449219 78 10.175781 C 78 8.175781 77.851562 7.75 77.148438 7.75 C 76.75 7.75 76.324219 8.226562 75.425781 9.773438 Z M 76.75 10.75 C 76.75 11.976562 76.726562 12 76 12 C 75.601562 12 75.25 11.925781 75.25 11.851562 C 75.25 11.648438 76.523438 9.5 76.648438 9.5 C 76.699219 9.5 76.75 10.050781 76.75 10.75 Z M 76.75 10.75 "/>
<path style=" stroke:none;fill-rule:nonzero;fill:rgb(0%,0%,0%);fill-opacity:1;" d="M 85.976562 8.175781 C 85.199219 9.101562 83.75 11.726562 83.699219 12.273438 C 83.625 12.824219 83.75 12.875 84.875 13 C 85.925781 13.101562 86.125 13.199219 86.25 13.75 C 86.375 14.324219 86.523438 14.398438 87.25 14.273438 C 87.398438 14.273438 87.5 14 87.5 13.726562 C 87.5 13.425781 87.699219 13.023438 87.949219 12.851562 C 88.351562 12.523438 88.351562 12.476562 87.949219 12.175781 C 87.625 11.925781 87.5 11.375 87.449219 9.851562 C 87.375 8.074219 87.324219 7.875 86.851562 7.800781 C 86.574219 7.75 86.175781 7.925781 85.976562 8.175781 Z M 86.25 10.875 C 86.25 11.949219 86.226562 12 85.5 12 C 85.101562 12 84.75 11.949219 84.75 11.851562 C 84.75 11.574219 85.875 9.75 86.074219 9.75 C 86.175781 9.75 86.25 10.25 86.25 10.875 Z M 86.25 10.875 "/>
<path style=" stroke:none;fill-rule:nonzero;fill:rgb(0%,0%,0%);fill-opacity:1;" d="M 91.300781 11.050781 C 91.375 13.800781 91.449219 14.375 91.75 14.375 C 92.050781 14.375 92.148438 13.925781 92.199219 12.125 L 92.300781 9.875 L 92.898438 11.75 C 93.226562 12.773438 93.5 13.75 93.5 13.898438 C 93.5 14.273438 94.273438 14.574219 94.5 14.324219 C 94.601562 14.226562 94.875 13.398438 95.101562 12.5 C 95.800781 10 95.851562 9.976562 96 12.25 C 96.125 14.324219 96.148438 14.425781 97 14.273438 C 97.273438 14.25 97.351562 8.824219 97.101562 8.148438 C 96.875 7.601562 95.574219 7.625 95.398438 8.175781 C 94.5 11.398438 94.199219 12.273438 94.101562 12.175781 C 94.023438 12.125 93.726562 11.125 93.398438 9.976562 C 92.851562 7.925781 92.824219 7.875 92.050781 7.800781 L 91.226562 7.726562 Z M 91.300781 11.050781 "/>
<path style=" stroke:none;fill-rule:nonzero;fill:rgb(0%,0%,0%);fill-opacity:1;" d="M 118.25 8.175781 C 118.25 8.425781 118.398438 9.25 118.601562 10 C 118.773438 10.75 119.074219 12.023438 119.25 12.824219 C 119.625 14.449219 119.773438 14.601562 120.625 14.398438 C 121.101562 14.273438 121.226562 14.023438 121.375 12.949219 C 121.601562 11.300781 122.148438 9.75 122.324219 10.25 C 122.398438 10.449219 122.601562 11.449219 122.773438 12.449219 C 123.023438 14 123.175781 14.273438 123.648438 14.398438 C 124.425781 14.601562 124.675781 14.398438 124.875 13.425781 C 124.949219 13 125.25 11.675781 125.523438 10.523438 C 126.050781 8.351562 126.023438 7.75 125.398438 7.75 C 124.976562 7.75 124.574219 8.851562 124.351562 10.699219 C 124.25 11.425781 124.101562 12.074219 124 12.125 C 123.875 12.199219 123.675781 11.648438 123.5 10.925781 C 122.800781 7.800781 122.773438 7.75 122.148438 7.75 C 121.449219 7.75 121.425781 7.824219 120.976562 10.199219 C 120.800781 11.199219 120.523438 11.976562 120.375 11.925781 C 120.25 11.875 119.949219 10.949219 119.75 9.851562 C 119.425781 8.148438 119.300781 7.875 118.800781 7.800781 C 118.398438 7.726562 118.25 7.851562 118.25 8.175781 Z M 118.25 8.175781 "/>
<path style=" stroke:none;fill-rule:nonzero;fill:rgb(0%,0%,0%);fill-opacity:1;" d="M 147.601562 8.074219 C 147.550781 8.25 147.523438 9.75 147.550781 11.398438 L 147.625 14.375 L 149.875 14.375 C 151.800781 14.375 152.125 14.324219 152.199219 13.925781 C 152.273438 13.550781 152.074219 13.5 150.824219 13.5 C 149.050781 13.5 148.675781 13.273438 148.800781 12.351562 C 148.875 11.648438 148.949219 11.625 150.375 11.5 C 151.476562 11.398438 151.875 11.273438 151.875 11 C 151.875 10.726562 151.5 10.601562 150.300781 10.550781 L 148.726562 10.476562 L 148.800781 9.675781 C 148.875 8.875 148.875 8.875 150.449219 8.800781 C 151.800781 8.726562 152 8.648438 152 8.25 C 152 7.800781 151.824219 7.75 149.875 7.75 C 148.351562 7.75 147.699219 7.851562 147.601562 8.074219 Z M 147.601562 8.074219 "/>
<path style=" stroke:none;fill-rule:nonzero;fill:rgb(0%,0%,0%);fill-opacity:1;" d="M 103.324219 8.675781 C 103.226562 8.925781 103 9.25 102.800781 9.398438 C 102.476562 9.648438 102.476562 9.75 102.824219 10.273438 C 103.125 10.675781 103.25 11.375 103.25 12.398438 C 103.25 14.148438 103.601562 14.648438 104.625 14.398438 C 105.375 14.199219 105.425781 13.875 104.75 13.5 C 104.074219 13.125 104.023438 10.601562 104.675781 10.125 C 105.101562 9.800781 105.101562 9.773438 104.675781 9.324219 C 104.449219 9.050781 104.25 8.699219 104.25 8.550781 C 104.25 8.074219 103.5 8.199219 103.324219 8.675781 Z M 103.324219 8.675781 "/>
<path style=" stroke:none;fill-rule:nonzero;fill:rgb(0%,0%,0%);fill-opacity:1;" d="M 79.25 9.675781 C 79.25 9.925781 79.476562 10.398438 79.75 10.75 C 80.398438 11.574219 80.375 11.824219 79.625 13.023438 C 79.273438 13.574219 79.050781 14.125 79.125 14.25 C 79.425781 14.726562 80 14.5 80.375 13.75 C 80.875 12.800781 81.25 12.800781 81.800781 13.75 C 82.226562 14.476562 82.824219 14.726562 83.101562 14.273438 C 83.175781 14.148438 82.976562 13.648438 82.625 13.148438 C 81.875 12.050781 81.851562 11.601562 82.5 10.625 C 83.476562 9.175781 82.75 8.648438 81.675781 10.023438 L 81.074219 10.800781 L 80.523438 10.023438 C 79.925781 9.175781 79.25 9 79.25 9.675781 Z M 79.25 9.675781 "/>
<path style=" stroke:none;fill-rule:nonzero;fill:rgb(0%,0%,0%);fill-opacity:1;" d="M 98.75 9.75 C 97.898438 10.601562 98.648438 11.148438 99.550781 10.324219 C 99.976562 9.949219 100.050781 9.949219 100.398438 10.300781 C 100.949219 10.851562 100.648438 11.226562 99.476562 11.398438 C 98.023438 11.648438 97.449219 13.175781 98.449219 14.074219 C 99.023438 14.601562 99.601562 14.601562 100.351562 14.125 C 100.875 13.773438 100.949219 13.773438 101.074219 14.125 C 101.25 14.550781 102.125 14.625 102.375 14.25 C 102.476562 14.101562 102.425781 13.851562 102.300781 13.675781 C 102.175781 13.5 102 12.648438 101.949219 11.773438 C 101.851562 10.5 101.726562 10.074219 101.273438 9.726562 C 100.523438 9.101562 99.375 9.125 98.75 9.75 Z M 100.625 12.25 C 100.851562 12.601562 100.300781 13.5 99.851562 13.5 C 99.648438 13.5 99.425781 13.324219 99.351562 13.125 C 99.074219 12.398438 100.226562 11.601562 100.625 12.25 Z M 100.625 12.25 "/>
<path style=" stroke:none;fill-rule:nonzero;fill:rgb(0%,0%,0%);fill-opacity:1;" d="M 105.875 9.824219 C 105.800781 10.125 105.75 11.273438 105.800781 12.375 C 105.875 14.175781 105.925781 14.375 106.375 14.375 C 106.800781 14.375 106.898438 14.175781 107 12.75 C 107.125 11.023438 107.324219 10.5 107.875 10.5 C 108.300781 10.5 108.574219 9.726562 108.273438 9.425781 C 108.101562 9.25 107.898438 9.273438 107.648438 9.476562 C 107.375 9.699219 107.148438 9.726562 106.773438 9.523438 C 106.101562 9.148438 106.023438 9.175781 105.875 9.824219 Z M 105.875 9.824219 "/>
<path style=" stroke:none;fill-rule:nonzero;fill:rgb(0%,0%,0%);fill-opacity:1;" d="M 109.425781 9.425781 C 109.148438 9.675781 109.226562 14.199219 109.476562 14.351562 C 109.601562 14.449219 109.875 14.425781 110.101562 14.351562 C 110.425781 14.226562 110.5 13.773438 110.5 12.023438 C 110.5 9.726562 110.101562 8.75 109.425781 9.425781 Z M 109.425781 9.425781 "/>
<path style=" stroke:none;fill-rule:nonzero;fill:rgb(0%,0%,0%);fill-opacity:1;" d="M 111.5 9.550781 C 111.5 9.726562 111.726562 10.25 112 10.699219 C 112.648438 11.75 112.625 11.949219 111.851562 13.101562 C 111.449219 13.675781 111.300781 14.148438 111.425781 14.273438 C 111.675781 14.523438 112.5 14.324219 112.5 14.023438 C 112.5 13.949219 112.726562 13.601562 112.976562 13.273438 L 113.425781 12.699219 L 113.949219 13.601562 C 114.449219 14.449219 115.074219 14.75 115.351562 14.300781 C 115.425781 14.199219 115.125 13.574219 114.726562 12.949219 L 113.976562 11.800781 L 114.625 10.75 C 115.023438 10.101562 115.199219 9.601562 115.074219 9.476562 C 114.726562 9.125 114.101562 9.449219 113.773438 10.175781 L 113.476562 10.824219 L 112.75 10.050781 C 112 9.226562 111.5 9.023438 111.5 9.550781 Z M 111.5 9.550781 "/>
<path style=" stroke:none;fill-rule:nonzero;fill:rgb(0%,0%,0%);fill-opacity:1;" d="M 126.875 9.550781 C 126.800781 9.75 126.75 10.925781 126.800781 12.148438 C 126.851562 13.925781 126.949219 14.375 127.25 14.375 C 127.550781 14.375 127.625 13.925781 127.625 11.898438 C 127.625 10.125 127.523438 9.375 127.324219 9.324219 C 127.148438 9.25 126.949219 9.375 126.875 9.550781 Z M 126.875 9.550781 "/>
<path style=" stroke:none;fill-rule:nonzero;fill:rgb(0%,0%,0%);fill-opacity:1;" d="M 129.324219 9.425781 C 129.101562 9.5 129 10.25 129 11.875 C 129 13.773438 129.074219 14.226562 129.398438 14.351562 C 130.074219 14.601562 130.25 14.273438 130.25 12.675781 C 130.25 11.023438 130.375 10.675781 131.074219 10.425781 C 131.601562 10.226562 131.648438 9.25 131.125 9.25 C 130.949219 9.25 130.675781 9.449219 130.523438 9.675781 C 130.300781 10.101562 130.273438 10.101562 130.125 9.675781 C 129.949219 9.226562 129.851562 9.199219 129.324219 9.425781 Z M 129.324219 9.425781 "/>
<path style=" stroke:none;fill-rule:nonzero;fill:rgb(0%,0%,0%);fill-opacity:1;" d="M 132.550781 9.550781 C 132.351562 9.75 132.25 10.648438 132.25 12.023438 C 132.25 13.824219 132.324219 14.226562 132.675781 14.351562 C 133.375 14.625 133.523438 14.148438 133.449219 11.75 C 133.375 9.449219 133.175781 8.925781 132.550781 9.550781 Z M 132.550781 9.550781 "/>
<path style=" stroke:none;fill-rule:nonzero;fill:rgb(0%,0%,0%);fill-opacity:1;" d="M 134.925781 9.425781 C 134.648438 9.675781 134.726562 14.199219 134.976562 14.351562 C 135.101562 14.449219 135.375 14.425781 135.601562 14.351562 C 135.875 14.25 136 13.75 136.050781 12.449219 C 136.101562 11.101562 136.226562 10.625 136.550781 10.398438 C 137.25 9.976562 137.574219 10.574219 137.726562 12.550781 C 137.851562 13.949219 137.976562 14.375 138.25 14.375 C 138.851562 14.375 138.925781 10.351562 138.351562 9.726562 C 137.875 9.199219 137.199219 9.125 136.449219 9.523438 C 136.101562 9.726562 135.875 9.726562 135.675781 9.523438 C 135.351562 9.199219 135.148438 9.175781 134.925781 9.425781 Z M 134.925781 9.425781 "/>
<path style=" stroke:none;fill-rule:nonzero;fill:rgb(0%,0%,0%);fill-opacity:1;" d="M 140.351562 9.773438 C 140 10.175781 139.875 10.675781 139.875 11.898438 C 139.875 14.023438 140.550781 14.699219 142.199219 14.148438 C 142.648438 14 142.75 14.050781 142.75 14.449219 C 142.75 15.199219 142.074219 15.648438 141.476562 15.300781 C 140.851562 14.898438 140 14.925781 140 15.351562 C 140 16.398438 142.375 16.726562 143.300781 15.800781 C 143.800781 15.300781 143.875 14.925781 143.949219 12.851562 C 144 11.550781 143.976562 10.199219 143.898438 9.875 C 143.726562 9.226562 143.125 9.023438 142.949219 9.523438 C 142.875 9.75 142.726562 9.75 142.324219 9.523438 C 141.523438 9.101562 140.875 9.199219 140.351562 9.773438 Z M 142.5 10.726562 C 143.023438 11.726562 142.625 13.5 141.875 13.5 C 141.175781 13.5 140.726562 11.75 141.148438 10.648438 C 141.351562 10.101562 142.175781 10.148438 142.5 10.726562 Z M 142.5 10.726562 "/>
<path style=" stroke:none;fill-rule:nonzero;fill:rgb(0%,0%,0%);fill-opacity:1;" d="M 153.175781 9.425781 C 153.074219 9.5 153.300781 10.074219 153.648438 10.699219 L 154.300781 11.800781 L 153.523438 13.023438 C 152.851562 14.101562 152.800781 14.300781 153.175781 14.425781 C 153.449219 14.523438 153.824219 14.300781 154.398438 13.625 C 155.148438 12.726562 155.199219 12.699219 155.351562 13.199219 C 155.574219 13.898438 156.175781 14.5 156.648438 14.5 C 157.175781 14.5 157.074219 13.976562 156.375 12.949219 C 155.601562 11.800781 155.601562 11.773438 156.398438 10.625 C 156.773438 10.074219 156.949219 9.601562 156.800781 9.449219 C 156.476562 9.125 155.925781 9.425781 155.476562 10.148438 C 155.050781 10.851562 155.074219 10.851562 154.050781 9.625 C 153.699219 9.226562 153.425781 9.148438 153.175781 9.425781 Z M 153.175781 9.425781 "/>
<path style=" stroke:none;fill-rule:nonzero;fill:rgb(0%,0%,0%);fill-opacity:1;" d="M 158.550781 9.648438 C 158.25 9.851562 158 10.199219 158 10.398438 C 158 10.851562 158.851562 10.851562 159.25 10.398438 C 159.625 9.925781 160.25 10.175781 160.25 10.773438 C 160.25 11.101562 160 11.273438 159.324219 11.398438 C 158.800781 11.5 158.226562 11.675781 158.074219 11.824219 C 157.625 12.175781 157.675781 13.648438 158.148438 14.101562 C 158.601562 14.574219 159 14.601562 159.875 14.199219 C 160.351562 13.976562 160.574219 13.976562 160.800781 14.199219 C 161.273438 14.675781 162 14.550781 162 14.023438 C 162 13.75 161.898438 13.449219 161.75 13.375 C 161.625 13.300781 161.5 12.550781 161.5 11.726562 C 161.5 10.574219 161.398438 10.148438 161 9.75 C 160.398438 9.148438 159.324219 9.101562 158.550781 9.648438 Z M 160.25 12.351562 C 160.25 13.050781 159.949219 13.5 159.5 13.5 C 158.875 13.5 158.675781 13.101562 159 12.5 C 159.300781 11.925781 160.25 11.824219 160.25 12.351562 Z M 160.25 12.351562 "/>
<path style=" stroke:none;fill-rule:nonzero;fill:rgb(0%,0%,0%);fill-opacity:1;" d="M 162.851562 9.574219 C 162.773438 9.773438 162.75 10.925781 162.800781 12.148438 C 162.875 14.023438 162.949219 14.375 163.324219 14.449219 C 163.675781 14.523438 163.75 14.324219 163.75 13.175781 C 163.75 11.601562 164.148438 10.25 164.625 10.25 C 165.175781 10.25 165.300781 10.675781 165.273438 12.375 C 165.273438 13.449219 165.375 14.023438 165.625 14.25 C 166.226562 14.75 166.5 14.273438 166.5 12.648438 C 166.5 10.824219 166.949219 9.925781 167.601562 10.476562 C 167.898438 10.726562 168 11.25 168 12.523438 C 168 14.273438 168.148438 14.625 168.851562 14.351562 C 169.148438 14.226562 169.25 13.851562 169.226562 12.648438 C 169.175781 10.324219 168.976562 9.675781 168.199219 9.398438 C 167.648438 9.199219 167.398438 9.25 167 9.625 C 166.523438 10.050781 166.476562 10.050781 166.050781 9.675781 C 165.476562 9.148438 164.898438 9.125 164.425781 9.625 C 164.101562 9.949219 164.023438 9.949219 163.75 9.625 C 163.375 9.148438 163.023438 9.148438 162.851562 9.574219 Z M 162.851562 9.574219 "/>
<path style=" stroke:none;fill-rule:nonzero;fill:rgb(0%,0%,0%);fill-opacity:1;" d="M 170.425781 9.425781 C 170.324219 9.5 170.25 11.074219 170.25 12.925781 L 170.25 16.25 L 170.875 16.25 C 171.449219 16.25 171.5 16.148438 171.5 15.125 C 171.5 14.074219 171.773438 13.675781 172.125 14.25 C 172.425781 14.726562 173.449219 14.5 173.976562 13.851562 C 174.574219 13.101562 174.699219 11.199219 174.199219 10.125 C 173.875 9.375 172.949219 9.074219 172.148438 9.449219 C 171.800781 9.601562 171.449219 9.625 171.226562 9.476562 C 170.800781 9.199219 170.625 9.199219 170.425781 9.425781 Z M 172.976562 10.601562 C 173.398438 11.125 173.226562 13.023438 172.699219 13.324219 C 172.050781 13.75 171.5 13.101562 171.5 11.898438 C 171.5 10.449219 172.273438 9.75 172.976562 10.601562 Z M 172.976562 10.601562 "/>
<path style=" stroke:none;fill-rule:nonzero;fill:rgb(0%,0%,0%);fill-opacity:1;" d="M 178.574219 9.625 C 177.75 10.199219 177.375 11.601562 177.726562 12.773438 C 178.226562 14.425781 179.949219 15.050781 181.023438 13.976562 C 181.726562 13.273438 181.300781 12.75 180.398438 13.25 C 179.574219 13.675781 178.949219 13.398438 179.050781 12.699219 C 179.125 12.199219 179.300781 12.125 180.449219 12.050781 C 181.550781 11.976562 181.75 11.898438 181.75 11.476562 C 181.75 9.75 179.925781 8.699219 178.574219 9.625 Z M 180.199219 10.300781 C 180.726562 10.824219 180.523438 11.25 179.75 11.25 C 179.300781 11.25 179 11.125 179 10.925781 C 179 10.601562 179.476562 10 179.75 10 C 179.824219 10 180.023438 10.125 180.199219 10.300781 Z M 180.199219 10.300781 "/>
<path style=" stroke:none;fill-rule:nonzero;fill:rgb(0%,0%,0%);fill-opacity:1;" d="M 105.851562 45.800781 C 105.398438 46.050781 104.925781 46.601562 104.75 47 L 104.449219 47.75 L 66.300781 47.75 L 65.773438 46.875 C 64.75 45.148438 63.25 45.148438 62.226562 46.875 L 61.699219 47.75 L 55.101562 47.75 C 49.023438 47.75 48.476562 47.726562 48.324219 47.300781 C 47.949219 46.300781 46.75 46.199219 46.25 47.125 C 45.925781 47.726562 45.824219 47.75 44.074219 47.648438 C 42.125 47.523438 42 47.625 42.601562 48.726562 L 42.925781 49.300781 L 43.125 48.726562 L 43.324219 48.125 L 43.425781 48.726562 C 43.5 49.050781 43.398438 49.398438 43.226562 49.5 C 43.050781 49.625 43 49.898438 43.101562 50.148438 C 43.324219 50.726562 43.648438 50.375 43.925781 49.25 C 44.125 48.476562 44.25 48.375 45 48.375 C 45.726562 48.375 45.875 48.476562 46.050781 49.148438 C 46.148438 49.574219 46.425781 50.074219 46.625 50.25 C 47.199219 50.726562 48.25 50.199219 48.25 49.425781 C 48.25 48.273438 48.476562 48.25 55.273438 48.25 L 61.699219 48.25 L 62.226562 49.125 C 63.25 50.851562 64.75 50.851562 65.773438 49.125 L 66.300781 48.25 L 104.449219 48.25 L 104.75 49 C 104.925781 49.398438 105.425781 49.949219 105.875 50.226562 C 106.675781 50.699219 106.699219 50.699219 107.476562 50.199219 C 107.898438 49.925781 108.425781 49.375 108.648438 48.976562 L 109.023438 48.25 L 146.976562 48.25 L 147.351562 48.976562 C 147.574219 49.375 148.101562 49.925781 148.523438 50.199219 C 149.300781 50.699219 149.324219 50.699219 150.125 50.226562 C 150.574219 49.949219 151.074219 49.398438 151.25 49 L 151.550781 48.25 L 189.699219 48.25 L 190.226562 49.125 C 190.875 50.25 191.773438 50.675781 192.625 50.300781 C 192.976562 50.125 193.5 49.601562 193.773438 49.125 L 194.300781 48.25 L 203.773438 48.25 C 209.925781 48.25 213.25 48.148438 213.25 48 C 213.25 47.851562 209.925781 47.75 203.773438 47.75 L 194.300781 47.75 L 193.773438 46.875 C 192.75 45.148438 191.25 45.148438 190.226562 46.875 L 189.699219 47.75 L 151.550781 47.75 L 151.25 47 C 151.074219 46.601562 150.574219 46.050781 150.125 45.773438 C 149.324219 45.300781 149.300781 45.300781 148.523438 45.800781 C 148.101562 46.074219 147.574219 46.625 147.351562 47.023438 L 146.976562 47.75 L 109.050781 47.75 L 108.550781 46.925781 C 108.300781 46.5 107.75 45.949219 107.351562 45.726562 C 106.675781 45.351562 106.574219 45.351562 105.851562 45.800781 Z M 47.75 47.398438 C 47.75 47.601562 47.550781 47.75 47.300781 47.75 C 46.675781 47.75 46.449219 47.476562 46.773438 47.101562 C 47.101562 46.726562 47.75 46.925781 47.75 47.398438 Z M 47.824219 49.101562 C 47.75 50 47.675781 50.074219 47.023438 49.875 C 46.699219 49.773438 46.5 49.5 46.5 49.148438 C 46.5 48.425781 46.726562 48.199219 47.375 48.300781 C 47.75 48.351562 47.875 48.550781 47.824219 49.101562 Z M 47.824219 49.101562 "/>
<path style=" stroke:none;fill-rule:nonzero;fill:rgb(0%,0%,0%);fill-opacity:1;" d="M 34.5 48.375 C 34.5 49.449219 34.601562 50.25 34.75 50.25 C 34.898438 50.25 35 49.976562 35 49.625 C 35 48.625 35.726562 48.523438 36.5 49.449219 C 37.324219 50.449219 37.675781 50.476562 37.101562 49.5 C 36.675781 48.800781 36.675781 48.75 37.125 48.25 C 37.5 47.824219 37.523438 47.648438 37.300781 47.125 C 37.050781 46.574219 36.851562 46.5 35.75 46.5 L 34.5 46.5 Z M 36.925781 47.398438 C 37.074219 47.851562 36.25 48.523438 35.648438 48.449219 C 35.273438 48.398438 35.101562 48.175781 35.050781 47.675781 C 34.976562 47 35 46.976562 35.898438 47.050781 C 36.425781 47.101562 36.875 47.25 36.925781 47.398438 Z M 36.925781 47.398438 "/>
<path style=" stroke:none;fill-rule:nonzero;fill:rgb(0%,0%,0%);fill-opacity:1;" d="M 38.199219 48.125 C 37.75 49.101562 38.199219 50.101562 39.125 50.199219 C 39.601562 50.273438 39.949219 50.148438 40.175781 49.851562 C 40.625 49.25 40.574219 48.125 40.125 47.75 C 39.601562 47.324219 39.398438 47.574219 39.773438 48.199219 C 40.199219 48.875 39.875 50 39.25 50 C 38.648438 50 38.300781 48.875 38.726562 48.226562 C 39.074219 47.648438 39.074219 47.5 38.75 47.5 C 38.601562 47.5 38.351562 47.773438 38.199219 48.125 Z M 38.199219 48.125 "/>
<path style=" stroke:none;fill-rule:nonzero;fill:rgb(0%,0%,0%);fill-opacity:1;" d="M 41.023438 48.476562 C 41 49.074219 41.074219 49.273438 41.25 49.101562 C 41.425781 48.925781 41.425781 48.625 41.273438 48.226562 C 41.050781 47.648438 41.023438 47.675781 41.023438 48.476562 Z M 41.023438 48.476562 "/>
<path style=" stroke:none;fill-rule:nonzero;fill:rgb(0%,0%,0%);fill-opacity:1;" d="M 41.824219 48.925781 C 41.726562 49.175781 41.550781 49.449219 41.425781 49.523438 C 41.273438 49.625 41.25 49.898438 41.351562 50.148438 C 41.523438 50.601562 41.550781 50.601562 41.898438 50.148438 C 42.226562 49.675781 42.398438 48.5 42.125 48.5 C 42.050781 48.5 41.898438 48.699219 41.824219 48.925781 Z M 41.824219 48.925781 "/>
<path style=" stroke:none;fill-rule:nonzero;fill:rgb(0%,0%,0%);fill-opacity:1;" d="M 62.949219 74.824219 C 62.601562 75.125 62.175781 75.625 62.023438 75.925781 L 61.726562 76.5 L 47.75 76.5 L 47.5 75.851562 C 47.226562 75.175781 46.699219 75.25 46.800781 75.949219 C 46.875 76.324219 46.601562 76.375 44.574219 76.351562 C 43.300781 76.324219 42.25 76.375 42.25 76.476562 C 42.25 76.875 43.148438 78.949219 43.375 79.023438 C 43.523438 79.074219 43.726562 78.699219 43.851562 78.175781 C 44.125 77.148438 44.574219 76.898438 46.023438 77.050781 C 46.773438 77.125 46.875 77.226562 46.949219 77.925781 C 47.023438 78.550781 46.925781 78.75 46.625 78.75 C 46.398438 78.75 46.300781 78.851562 46.375 79 C 46.574219 79.300781 48.25 79.324219 48.25 79.023438 C 48.25 78.898438 48.074219 78.726562 47.851562 78.648438 C 47.601562 78.550781 47.5 78.273438 47.550781 77.824219 L 47.625 77.125 L 54.625 77.050781 L 61.648438 77 L 62.074219 77.726562 C 62.324219 78.148438 62.851562 78.726562 63.25 79 L 64 79.523438 L 64.75 79 C 65.175781 78.699219 65.675781 78.125 65.875 77.726562 L 66.273438 77 L 104.25 77 L 104.726562 77.773438 C 105 78.199219 105.523438 78.773438 105.898438 79.023438 C 106.523438 79.425781 106.648438 79.425781 107.300781 79.101562 C 107.699219 78.875 108.273438 78.324219 108.550781 77.851562 L 109.050781 77 L 146.949219 77 L 147.449219 77.851562 C 147.726562 78.324219 148.300781 78.875 148.699219 79.101562 C 149.351562 79.425781 149.476562 79.425781 150.101562 79.023438 C 150.476562 78.773438 151 78.199219 151.273438 77.773438 L 151.75 77 L 189.648438 77 L 190.074219 77.75 C 190.324219 78.148438 190.851562 78.726562 191.25 79 L 192 79.523438 L 192.75 79 C 193.175781 78.699219 193.675781 78.125 193.875 77.726562 L 194.273438 77 L 203.773438 77 C 210.050781 77 213.226562 76.925781 213.125 76.75 C 213.023438 76.601562 209.601562 76.5 203.625 76.5 L 194.300781 76.5 L 193.824219 75.675781 C 193.550781 75.25 193.023438 74.726562 192.675781 74.523438 C 192.101562 74.226562 191.898438 74.226562 191.324219 74.523438 C 190.976562 74.726562 190.449219 75.25 190.175781 75.675781 L 189.699219 76.5 L 151.625 76.5 L 151.199219 75.773438 C 150.976562 75.375 150.5 74.851562 150.148438 74.625 C 149.601562 74.25 149.375 74.25 148.75 74.5 C 148.351562 74.675781 147.773438 75.199219 147.476562 75.648438 L 146.949219 76.5 L 109.050781 76.5 L 108.523438 75.648438 C 108.226562 75.199219 107.648438 74.675781 107.25 74.5 C 106.625 74.25 106.398438 74.25 105.851562 74.625 C 105.5 74.851562 105.023438 75.375 104.800781 75.773438 L 104.375 76.5 L 66.273438 76.5 L 65.898438 75.773438 C 65.5 75.050781 64.5 74.25 63.949219 74.25 C 63.773438 74.25 63.324219 74.5 62.949219 74.824219 Z M 43.5 77.625 C 43.5 77.976562 43.398438 78.25 43.25 78.25 C 42.976562 78.25 42.898438 77.425781 43.175781 77.175781 C 43.449219 76.898438 43.5 76.976562 43.5 77.625 Z M 43.5 77.625 "/>
<path style=" stroke:none;fill-rule:nonzero;fill:rgb(0%,0%,0%);fill-opacity:1;" d="M 34.675781 75.425781 C 34.398438 75.675781 34.476562 78.949219 34.75 79.125 C 34.898438 79.226562 35 78.949219 35 78.5 C 35 78.050781 35.148438 77.675781 35.375 77.574219 C 35.824219 77.425781 36.75 78.148438 36.75 78.675781 C 36.75 78.851562 36.925781 79 37.125 79 C 37.425781 79 37.398438 78.875 37.074219 78.273438 C 36.675781 77.601562 36.675781 77.523438 37.074219 77.148438 C 37.601562 76.601562 37.625 76.148438 37.101562 75.648438 C 36.726562 75.25 35 75.101562 34.675781 75.425781 Z M 36.898438 76.125 C 37.125 76.699219 36.5 77.273438 35.773438 77.199219 C 35.273438 77.148438 35.101562 76.976562 35.050781 76.425781 C 34.976562 75.800781 35.023438 75.75 35.875 75.75 C 36.449219 75.75 36.824219 75.898438 36.898438 76.125 Z M 36.898438 76.125 "/>
<path style=" stroke:none;fill-rule:nonzero;fill:rgb(0%,0%,0%);fill-opacity:1;" d="M 38.25 76.726562 C 38.125 77 38 77.425781 38 77.675781 C 38 78.351562 38.699219 79.25 39.25 79.25 C 39.800781 79.25 40.5 78.351562 40.5 77.625 C 40.5 77 39.875 76.050781 39.625 76.300781 C 39.550781 76.375 39.601562 76.675781 39.773438 76.949219 C 40.199219 77.625 39.875 78.75 39.25 78.75 C 38.648438 78.75 38.300781 77.625 38.726562 76.976562 C 39.074219 76.398438 39.074219 76.25 38.75 76.25 C 38.625 76.25 38.398438 76.476562 38.25 76.726562 Z M 38.25 76.726562 "/>
<path style=" stroke:none;fill-rule:nonzero;fill:rgb(0%,0%,0%);fill-opacity:1;" d="M 41 77.273438 C 41 77.675781 41.101562 77.976562 41.226562 77.898438 C 41.425781 77.773438 41.300781 76.5 41.101562 76.5 C 41.050781 76.5 41 76.851562 41 77.273438 Z M 41 77.273438 "/>
<path style=" stroke:none;fill-rule:nonzero;fill:rgb(0%,0%,0%);fill-opacity:1;" d="M 42 77.476562 C 42 77.601562 41.824219 77.898438 41.601562 78.125 C 41.375 78.351562 41.273438 78.699219 41.375 78.949219 C 41.523438 79.351562 41.574219 79.351562 41.898438 78.898438 C 42.226562 78.425781 42.398438 77.25 42.125 77.25 C 42.050781 77.25 42 77.351562 42 77.476562 Z M 42 77.476562 "/>
<path style=" stroke:none;fill-rule:nonzero;fill:rgb(0%,0%,0%);fill-opacity:1;" d="M 34.648438 104.199219 C 34.398438 104.449219 34.5 108 34.75 108 C 34.898438 108 35 107.648438 35 107.25 C 35 106.625 35.101562 106.5 35.625 106.5 C 36.050781 106.5 36.351562 106.726562 36.625 107.25 C 36.851562 107.648438 37.125 108 37.273438 108 C 37.425781 108 37.5 107.925781 37.449219 107.800781 C 37.398438 107.699219 37.199219 107.324219 37.023438 106.949219 C 36.726562 106.375 36.75 106.226562 37.101562 105.875 C 37.574219 105.375 37.625 104.898438 37.199219 104.574219 C 36.824219 104.273438 34.851562 103.976562 34.648438 104.199219 Z M 36.75 104.875 C 37.175781 105.375 36.675781 106 35.824219 106 C 35.5 106 35.175781 105.824219 35.101562 105.625 C 34.851562 105 35.199219 104.5 35.824219 104.5 C 36.175781 104.5 36.574219 104.675781 36.75 104.875 Z M 36.75 104.875 "/>
<path style=" stroke:none;fill-rule:nonzero;fill:rgb(0%,0%,0%);fill-opacity:1;" d="M 46.226562 104.75 C 45.851562 105.273438 45.398438 105.351562 43.449219 105.175781 C 42.125 105.074219 42.023438 105.25 42.625 106.398438 C 42.824219 106.800781 43 107.324219 43 107.550781 C 43 107.800781 43.101562 108 43.25 108 C 43.550781 108 44 107.148438 44 106.550781 C 44 105.949219 44.449219 105.75 45.898438 105.75 C 47.125 105.75 47.226562 105.976562 46.5 107 C 46.226562 107.375 46.074219 107.75 46.175781 107.851562 C 46.425781 108.101562 48.25 108.023438 48.25 107.75 C 48.25 107.601562 47.925781 107.5 47.5 107.5 C 46.574219 107.5 46.550781 107.273438 47.398438 106.476562 L 48.050781 105.875 L 55.773438 105.800781 C 60.476562 105.75 63.5 105.625 63.5 105.5 C 63.5 105.351562 60.574219 105.25 55.875 105.25 C 48.425781 105.25 48.25 105.25 48.25 104.75 C 48.25 104.050781 46.699219 104.050781 46.226562 104.75 Z M 47.75 104.875 C 47.75 105.101562 47.523438 105.25 47.125 105.25 C 46.523438 105.25 46.324219 105 46.675781 104.675781 C 46.976562 104.351562 47.75 104.5 47.75 104.875 Z M 43.5 106.5 C 43.5 106.773438 43.398438 107 43.25 107 C 43.125 107 43 106.773438 43 106.5 C 43 106.226562 43.125 106 43.25 106 C 43.398438 106 43.5 106.226562 43.5 106.5 Z M 43.5 106.5 "/>
<path style=" stroke:none;fill-rule:nonzero;fill:rgb(0%,0%,0%);fill-opacity:1;" d="M 39.675781 105.148438 C 39.574219 105.25 39.625 105.476562 39.773438 105.648438 C 40.226562 106.199219 39.949219 107.375 39.324219 107.449219 C 38.898438 107.523438 38.726562 107.375 38.601562 106.851562 C 38.5 106.476562 38.550781 105.976562 38.726562 105.699219 C 38.875 105.449219 38.925781 105.25 38.800781 105.25 C 38.398438 105.25 38 105.875 38 106.476562 C 38.023438 108.476562 40.476562 108.476562 40.5 106.476562 C 40.5 105.773438 39.949219 104.875 39.675781 105.148438 Z M 39.675781 105.148438 "/>
<path style=" stroke:none;fill-rule:nonzero;fill:rgb(0%,0%,0%);fill-opacity:1;" d="M 41 106.023438 C 41 106.425781 41.101562 106.726562 41.226562 106.648438 C 41.425781 106.523438 41.300781 105.25 41.101562 105.25 C 41.050781 105.25 41 105.601562 41 106.023438 Z M 41 106.023438 "/>
<path style=" stroke:none;fill-rule:nonzero;fill:rgb(0%,0%,0%);fill-opacity:1;" d="M 64.5 105.5 C 64.5 105.675781 71.625 105.75 85.398438 105.75 C 99.25 105.75 106.226562 105.675781 106.125 105.5 C 106.023438 105.324219 98.800781 105.25 85.226562 105.25 C 71.574219 105.25 64.5 105.324219 64.5 105.5 Z M 64.5 105.5 "/>
<path style=" stroke:none;fill-rule:nonzero;fill:rgb(0%,0%,0%);fill-opacity:1;" d="M 107.125 105.5 C 107.023438 105.675781 114.050781 105.75 128 105.75 C 141.949219 105.75 148.976562 105.675781 148.875 105.5 C 148.773438 105.324219 141.550781 105.25 128 105.25 C 114.449219 105.25 107.226562 105.324219 107.125 105.5 Z M 107.125 105.5 "/>
<path style=" stroke:none;fill-rule:nonzero;fill:rgb(0%,0%,0%);fill-opacity:1;" d="M 149.875 105.5 C 149.773438 105.675781 156.75 105.75 170.601562 105.75 C 184.375 105.75 191.5 105.675781 191.5 105.5 C 191.5 105.324219 184.425781 105.25 170.773438 105.25 C 157.199219 105.25 149.976562 105.324219 149.875 105.5 Z M 149.875 105.5 "/>
<path style=" stroke:none;fill-rule:nonzero;fill:rgb(0%,0%,0%);fill-opacity:1;" d="M 192.5 105.5 C 192.5 105.675781 196.125 105.75 202.898438 105.75 C 209.75 105.75 213.226562 105.675781 213.125 105.5 C 213.023438 105.351562 209.300781 105.25 202.726562 105.25 C 196.074219 105.25 192.5 105.324219 192.5 105.5 Z M 192.5 105.5 "/>
<path style=" stroke:none;fill-rule:nonzero;fill:rgb(0%,0%,0%);fill-opacity:1;" d="M 41.648438 106.773438 C 41.226562 107.300781 41.25 108 41.726562 108 C 41.949219 108 42.375 106.550781 42.199219 106.375 C 42.148438 106.300781 41.898438 106.5 41.648438 106.773438 Z M 41.648438 106.773438 "/>
<path style=" stroke:none;fill-rule:nonzero;fill:rgb(0%,0%,0%);fill-opacity:1;" d="M 34.5 134.875 C 34.5 135.949219 34.601562 136.75 34.75 136.75 C 34.898438 136.75 35 136.398438 35 136 C 35 135.375 35.101562 135.25 35.574219 135.25 C 35.949219 135.25 36.300781 135.523438 36.574219 136 C 36.824219 136.398438 37.125 136.75 37.273438 136.75 C 37.601562 136.75 37.550781 136.574219 37.125 135.898438 C 36.773438 135.375 36.773438 135.25 37.175781 134.550781 C 37.773438 133.476562 37.324219 133 35.726562 133 L 34.5 133 Z M 36.75 133.625 C 37.175781 134.125 36.675781 134.75 35.824219 134.75 C 35.5 134.75 35.175781 134.574219 35.101562 134.375 C 34.851562 133.75 35.199219 133.25 35.824219 133.25 C 36.175781 133.25 36.574219 133.425781 36.75 133.625 Z M 36.75 133.625 "/>
<path style=" stroke:none;fill-rule:nonzero;fill:rgb(0%,0%,0%);fill-opacity:1;" d="M 46.199219 133.625 C 46 134.074219 45.726562 134.25 45.226562 134.25 C 44.851562 134.25 44.449219 134.125 44.375 134 C 44.273438 133.851562 44.050781 133.824219 43.800781 133.976562 C 43.523438 134.125 43.199219 134.125 42.925781 133.976562 C 42.300781 133.625 42.148438 134.226562 42.625 135.148438 C 42.824219 135.550781 43 136.074219 43 136.324219 C 43 137.074219 43.601562 136.675781 43.898438 135.726562 C 44.175781 134.925781 44.25 134.875 45.449219 134.800781 C 46.925781 134.726562 47.75 135.050781 47.75 135.75 C 47.75 136.125 47.574219 136.25 47.125 136.25 C 46.773438 136.25 46.5 136.125 46.5 135.976562 C 46.5 135.851562 46.375 135.800781 46.25 135.875 C 45.75 136.199219 46.550781 136.773438 47.351562 136.699219 C 48.050781 136.625 48.125 136.523438 48.199219 135.675781 L 48.273438 134.75 L 55.898438 134.75 C 60.800781 134.75 63.5 134.648438 63.5 134.5 C 63.5 134.351562 60.824219 134.25 56 134.25 L 48.5 134.25 L 48.25 133.625 C 48.074219 133.148438 47.824219 133 47.25 133 C 46.675781 133 46.425781 133.148438 46.199219 133.625 Z M 47.699219 133.675781 C 47.824219 134.101562 47.050781 134.398438 46.699219 134.050781 C 46.550781 133.898438 46.523438 133.675781 46.625 133.5 C 46.851562 133.148438 47.550781 133.273438 47.699219 133.675781 Z M 43.398438 135.675781 C 43.125 135.949219 42.925781 135.523438 43.125 135.074219 C 43.324219 134.648438 43.324219 134.648438 43.425781 135.074219 C 43.5 135.324219 43.476562 135.601562 43.398438 135.675781 Z M 43.398438 135.675781 "/>
<path style=" stroke:none;fill-rule:nonzero;fill:rgb(0%,0%,0%);fill-opacity:1;" d="M 38.300781 134.300781 C 37.550781 135.050781 38.226562 136.75 39.25 136.75 C 40.273438 136.75 40.949219 135.050781 40.199219 134.300781 C 39.773438 133.875 39.375 133.925781 39.726562 134.351562 C 39.898438 134.550781 40 135.023438 39.949219 135.425781 C 39.898438 135.976562 39.75 136.125 39.25 136.125 C 38.75 136.125 38.601562 135.976562 38.550781 135.425781 C 38.5 135.023438 38.601562 134.550781 38.773438 134.351562 C 39.125 133.925781 38.726562 133.875 38.300781 134.300781 Z M 38.300781 134.300781 "/>
<path style=" stroke:none;fill-rule:nonzero;fill:rgb(0%,0%,0%);fill-opacity:1;" d="M 41 134.925781 C 41 135.523438 41.074219 135.75 41.226562 135.550781 C 41.398438 135.25 41.324219 134 41.101562 134 C 41.050781 134 41 134.425781 41 134.925781 Z M 41 134.925781 "/>
<path style=" stroke:none;fill-rule:nonzero;fill:rgb(0%,0%,0%);fill-opacity:1;" d="M 64.5 134.5 C 64.5 134.675781 71.574219 134.75 85.226562 134.75 C 98.800781 134.75 106.023438 134.675781 106.125 134.5 C 106.226562 134.324219 99.25 134.25 85.398438 134.25 C 71.625 134.25 64.5 134.324219 64.5 134.5 Z M 64.5 134.5 "/>
<path style=" stroke:none;fill-rule:nonzero;fill:rgb(0%,0%,0%);fill-opacity:1;" d="M 107.125 134.5 C 107.226562 134.675781 114.449219 134.75 128 134.75 C 141.550781 134.75 148.773438 134.675781 148.875 134.5 C 148.976562 134.324219 141.949219 134.25 128 134.25 C 114.050781 134.25 107.023438 134.324219 107.125 134.5 Z M 107.125 134.5 "/>
<path style=" stroke:none;fill-rule:nonzero;fill:rgb(0%,0%,0%);fill-opacity:1;" d="M 149.875 134.5 C 149.976562 134.675781 157.199219 134.75 170.773438 134.75 C 184.425781 134.75 191.5 134.675781 191.5 134.5 C 191.5 134.324219 184.375 134.25 170.601562 134.25 C 156.75 134.25 149.773438 134.324219 149.875 134.5 Z M 149.875 134.5 "/>
<path style=" stroke:none;fill-rule:nonzero;fill:rgb(0%,0%,0%);fill-opacity:1;" d="M 192.5 134.5 C 192.5 134.675781 196.074219 134.75 202.726562 134.75 C 209.300781 134.75 213.023438 134.648438 213.125 134.5 C 213.226562 134.324219 209.75 134.25 202.898438 134.25 C 196.125 134.25 192.5 134.324219 192.5 134.5 Z M 192.5 134.5 "/>
<path style=" stroke:none;fill-rule:nonzero;fill:rgb(0%,0%,0%);fill-opacity:1;" d="M 41.625 135.648438 C 41.300781 136.148438 41.273438 136.375 41.476562 136.574219 C 41.851562 136.949219 42.25 136.398438 42.25 135.550781 C 42.25 134.851562 42.148438 134.851562 41.625 135.648438 Z M 41.625 135.648438 "/>
<path style=" stroke:none;fill-rule:nonzero;fill:rgb(0%,0%,0%);fill-opacity:1;" d="M 64.976562 173.800781 C 64.898438 174.949219 64.976562 177.300781 65.101562 177.425781 C 65.175781 177.523438 65.25 176.675781 65.25 175.550781 C 65.25 174.425781 65.199219 173.5 65.125 173.5 C 65.050781 173.5 65 173.648438 64.976562 173.800781 Z M 64.976562 173.800781 "/>
<path style=" stroke:none;fill-rule:nonzero;fill:rgb(0%,0%,0%);fill-opacity:1;" d="M 107.675781 173.675781 C 107.398438 173.949219 107.476562 177.5 107.75 177.5 C 107.898438 177.5 108 176.675781 108 175.5 C 108 173.5 107.976562 173.351562 107.675781 173.675781 Z M 107.675781 173.675781 "/>
<path style=" stroke:none;fill-rule:nonzero;fill:rgb(0%,0%,0%);fill-opacity:1;" d="M 150.25 175.476562 C 150.25 176.648438 150.351562 177.5 150.5 177.5 C 150.648438 177.5 150.75 176.726562 150.75 175.648438 C 150.75 174.625 150.648438 173.699219 150.5 173.625 C 150.351562 173.523438 150.25 174.199219 150.25 175.476562 Z M 150.25 175.476562 "/>
<path style=" stroke:none;fill-rule:nonzero;fill:rgb(0%,0%,0%);fill-opacity:1;" d="M 192.976562 173.800781 C 192.898438 174.949219 192.976562 177.300781 193.101562 177.425781 C 193.175781 177.523438 193.25 176.675781 193.25 175.550781 C 193.25 174.425781 193.199219 173.5 193.125 173.5 C 193.050781 173.5 193 173.648438 192.976562 173.800781 Z M 192.976562 173.800781 "/>
<path style=" stroke:none;fill-rule:nonzero;fill:rgb(0%,0%,0%);fill-opacity:1;" d="M 58.75 174.125 C 58.574219 174.351562 58.425781 175.023438 58.425781 175.625 C 58.425781 177.101562 58.824219 177.550781 60.101562 177.449219 C 60.851562 177.398438 61.148438 177.25 61.199219 176.925781 C 61.300781 176.5 61.25 176.476562 60.675781 176.851562 C 59.949219 177.351562 59.300781 177.148438 58.976562 176.324219 C 58.648438 175.425781 58.699219 175.050781 59.273438 174.476562 C 59.800781 173.949219 60.648438 174 61.074219 174.601562 C 61.199219 174.773438 61.25 174.675781 61.199219 174.375 C 61.101562 173.699219 59.25 173.523438 58.75 174.125 Z M 58.75 174.125 "/>
<path style=" stroke:none;fill-rule:nonzero;fill:rgb(0%,0%,0%);fill-opacity:1;" d="M 67.648438 174.125 C 67.425781 174.726562 67.476562 176.824219 67.726562 177.199219 C 67.851562 177.398438 68.25 177.5 68.648438 177.449219 C 69.226562 177.398438 69.398438 177.226562 69.574219 176.476562 C 69.699219 175.976562 69.675781 175.199219 69.574219 174.726562 C 69.375 174.023438 69.226562 173.851562 68.574219 173.800781 C 68.050781 173.75 67.773438 173.851562 67.648438 174.125 Z M 68.949219 174.300781 C 69.398438 174.75 69.324219 176.625 68.851562 177.023438 C 68.5 177.300781 68.398438 177.273438 68.101562 176.875 C 67.476562 176.023438 67.75 174 68.5 174 C 68.574219 174 68.773438 174.125 68.949219 174.300781 Z M 68.949219 174.300781 "/>
<path style=" stroke:none;fill-rule:nonzero;fill:rgb(0%,0%,0%);fill-opacity:1;" d="M 101.425781 174.199219 C 100.898438 174.773438 100.875 176.226562 101.398438 176.949219 C 101.824219 177.574219 103.175781 177.726562 103.699219 177.199219 C 104.226562 176.675781 104.023438 176.476562 103.375 176.898438 C 102.800781 177.273438 102.699219 177.273438 102.125 176.898438 C 101.675781 176.601562 101.5 176.273438 101.5 175.675781 C 101.5 174.273438 102.375 173.699219 103.449219 174.398438 C 104.023438 174.773438 104.074219 174.773438 103.925781 174.375 C 103.824219 174.148438 103.75 173.898438 103.75 173.851562 C 103.75 173.800781 103.324219 173.75 102.800781 173.75 C 102.175781 173.75 101.675781 173.925781 101.425781 174.199219 Z M 101.425781 174.199219 "/>
<path style=" stroke:none;fill-rule:nonzero;fill:rgb(0%,0%,0%);fill-opacity:1;" d="M 110.925781 175.300781 C 111.050781 176.601562 111 176.875 110.625 177.175781 C 110.199219 177.476562 110.273438 177.5 111.273438 177.5 C 112.25 177.476562 112.324219 177.449219 111.949219 177.148438 C 111.601562 176.898438 111.5 176.449219 111.5 175.273438 C 111.5 174.125 111.398438 173.75 111.148438 173.75 C 110.875 173.75 110.824219 174.074219 110.925781 175.300781 Z M 110.925781 175.300781 "/>
<path style=" stroke:none;fill-rule:nonzero;fill:rgb(0%,0%,0%);fill-opacity:1;" d="M 144.074219 174.125 C 143.574219 174.675781 143.675781 176.601562 144.199219 177.074219 C 144.773438 177.601562 146.074219 177.625 146.5 177.125 C 146.875 176.675781 146.75 176.675781 145.875 177 C 144.800781 177.398438 144.25 176.949219 144.25 175.625 C 144.25 174.300781 144.800781 173.851562 145.875 174.25 C 146.75 174.574219 146.875 174.574219 146.5 174.125 C 146.101562 173.648438 144.476562 173.648438 144.074219 174.125 Z M 144.074219 174.125 "/>
<path style=" stroke:none;fill-rule:nonzero;fill:rgb(0%,0%,0%);fill-opacity:1;" d="M 152.976562 174.175781 C 152.675781 174.550781 152.675781 174.574219 153.125 174.398438 C 153.675781 174.199219 153.75 174.175781 154.199219 174.226562 C 154.75 174.273438 154.523438 175.023438 153.625 176.074219 C 153.148438 176.625 152.75 177.175781 152.75 177.300781 C 152.75 177.398438 153.273438 177.476562 153.949219 177.476562 C 154.625 177.449219 154.851562 177.375 154.5 177.324219 C 153.449219 177.125 153.375 176.824219 154.226562 175.875 C 155.050781 174.949219 155.101562 174.773438 154.851562 174.148438 C 154.648438 173.625 153.398438 173.625 152.976562 174.175781 Z M 152.976562 174.175781 "/>
<path style=" stroke:none;fill-rule:nonzero;fill:rgb(0%,0%,0%);fill-opacity:1;" d="M 186.75 174.125 C 186.574219 174.351562 186.425781 175.023438 186.425781 175.625 C 186.425781 177.101562 186.824219 177.550781 188.101562 177.449219 C 188.851562 177.398438 189.148438 177.25 189.199219 176.925781 C 189.300781 176.5 189.25 176.476562 188.675781 176.851562 C 187.949219 177.351562 187.300781 177.148438 186.976562 176.324219 C 186.648438 175.425781 186.699219 175.050781 187.273438 174.476562 C 187.800781 173.949219 188.648438 174 189.074219 174.601562 C 189.199219 174.773438 189.25 174.675781 189.199219 174.375 C 189.101562 173.699219 187.25 173.523438 186.75 174.125 Z M 186.75 174.125 "/>
<path style=" stroke:none;fill-rule:nonzero;fill:rgb(0%,0%,0%);fill-opacity:1;" d="M 195.675781 173.898438 C 195.300781 174.273438 195.523438 174.5 196 174.25 C 196.273438 174.101562 196.625 174.050781 196.75 174.125 C 197.101562 174.351562 197.050781 175.199219 196.699219 175.324219 C 196.449219 175.398438 196.5 175.550781 196.824219 175.925781 C 197.050781 176.199219 197.25 176.523438 197.25 176.675781 C 197.25 177.175781 196.425781 177.273438 195.925781 176.824219 C 195.449219 176.398438 195.449219 176.398438 195.523438 176.875 C 195.601562 177.25 195.851562 177.398438 196.574219 177.449219 C 197.523438 177.523438 197.675781 177.324219 197.523438 176.25 C 197.5 176.050781 197.449219 175.425781 197.425781 174.875 C 197.375 173.949219 197.324219 173.875 196.625 173.800781 C 196.199219 173.75 195.773438 173.800781 195.675781 173.898438 Z M 195.675781 173.898438 "/>
<path style=" stroke:none;fill-rule:nonzero;fill:rgb(0%,0%,0%);fill-opacity:1;" d="M 62.148438 175.148438 C 61.898438 175.800781 61.976562 176.875 62.300781 177.199219 C 62.726562 177.625 63.925781 177.574219 64.101562 177.101562 C 64.449219 176.199219 64.050781 174.351562 63.625 174.800781 C 63.523438 174.875 63.601562 175.175781 63.773438 175.449219 C 64.175781 176.074219 63.726562 177.25 63.125 177.25 C 62.550781 177.25 62.125 176.175781 62.476562 175.550781 C 62.800781 174.925781 62.824219 174.75 62.523438 174.75 C 62.398438 174.75 62.226562 174.925781 62.148438 175.148438 Z M 62.148438 175.148438 "/>
<path style=" stroke:none;fill-rule:nonzero;fill:rgb(0%,0%,0%);fill-opacity:1;" d="M 104.75 175.351562 C 104.5 175.875 104.476562 176.125 104.75 176.75 C 105.023438 177.425781 105.175781 177.523438 105.851562 177.449219 C 106.425781 177.398438 106.675781 177.199219 106.851562 176.726562 C 107.148438 175.851562 106.851562 174.75 106.324219 174.75 C 106 174.75 105.976562 174.824219 106.199219 175.050781 C 106.550781 175.398438 106.574219 176.476562 106.25 177 C 106.074219 177.300781 105.925781 177.300781 105.574219 177.101562 C 105.050781 176.773438 104.851562 175.800781 105.226562 175.425781 C 105.550781 175.101562 105.574219 174.75 105.300781 174.75 C 105.175781 174.75 104.925781 175.023438 104.75 175.351562 Z M 104.75 175.351562 "/>
<path style=" stroke:none;fill-rule:nonzero;fill:rgb(0%,0%,0%);fill-opacity:1;" d="M 147.550781 175.050781 C 147.175781 175.425781 147.148438 176.375 147.5 177.023438 C 148.050781 178.050781 149.726562 177.375 149.75 176.101562 C 149.75 175.476562 149.125 174.550781 148.851562 174.824219 C 148.75 174.925781 148.800781 175.148438 148.949219 175.300781 C 149.699219 176.050781 148.925781 177.648438 148.125 177 C 147.675781 176.625 147.625 175.476562 148.050781 175.050781 C 148.226562 174.875 148.25 174.75 148.101562 174.75 C 147.976562 174.75 147.726562 174.875 147.550781 175.050781 Z M 147.550781 175.050781 "/>
<path style=" stroke:none;fill-rule:nonzero;fill:rgb(0%,0%,0%);fill-opacity:1;" d="M 190.148438 175.148438 C 189.898438 175.800781 189.976562 176.875 190.300781 177.199219 C 190.726562 177.625 191.925781 177.574219 192.101562 177.101562 C 192.449219 176.199219 192.050781 174.351562 191.625 174.800781 C 191.523438 174.875 191.601562 175.175781 191.773438 175.449219 C 192.175781 176.074219 191.726562 177.25 191.125 177.25 C 190.550781 177.25 190.125 176.175781 190.476562 175.550781 C 190.800781 174.925781 190.824219 174.75 190.523438 174.75 C 190.398438 174.75 190.226562 174.925781 190.148438 175.148438 Z M 190.148438 175.148438 "/>
</g>
</svg>
