<?xml version="1.0" standalone="no"?>
<!DOCTYPE svg PUBLIC "-//W3C//DTD SVG 20010904//EN"
 "http://www.w3.org/TR/2001/REC-SVG-20010904/DTD/svg10.dtd">
<svg version="1.0" xmlns="http://www.w3.org/2000/svg"
 width="1024.000000pt" height="768.000000pt" viewBox="0 0 1024.000000 768.000000"
 preserveAspectRatio="xMidYMid meet">
<metadata>
Created by potrace 1.16, written by Peter Selinger 2001-2019
</metadata>
<g transform="translate(0.000000,768.000000) scale(0.100000,-0.100000)"
fill="#000000" stroke="none">
<path d="M4687 6853 c-4 -3 -7 -28 -7 -55 0 -60 25 -69 32 -10 7 56 -5 86 -25
65z"/>
<path d="M5360 6805 c0 -30 5 -55 10 -55 6 0 10 25 10 55 0 30 -4 55 -10 55
-5 0 -10 -25 -10 -55z"/>
<path d="M4275 6840 c-3 -5 1 -10 9 -10 12 0 16 -10 16 -34 0 -28 -4 -35 -22
-39 -13 -2 4 -4 37 -5 39 0 51 2 35 7 -21 6 -26 14 -28 49 -3 33 -7 42 -22 42
-10 0 -22 -4 -25 -10z"/>
<path d="M4530 6800 c0 -50 13 -67 23 -30 4 16 14 20 45 20 47 0 72 21 52 45
-8 10 -31 15 -66 15 l-54 0 0 -50z m95 20 c0 -18 -52 -27 -67 -12 -17 17 2 33
35 30 20 -2 32 -8 32 -18z"/>
<path d="M5490 6800 c0 -27 5 -50 10 -50 6 0 10 23 10 50 0 28 -4 50 -10 50
-5 0 -10 -22 -10 -50z"/>
<path d="M5947 6833 c-2 -5 -2 -25 0 -45 4 -31 9 -38 27 -38 16 0 18 2 7 9
-10 6 -12 19 -7 45 5 28 4 36 -8 36 -8 0 -17 -3 -19 -7z"/>
<path d="M4743 6819 c10 -6 17 -22 17 -39 0 -20 5 -30 15 -30 17 0 20 32 5 61
-6 10 -21 19 -33 19 -20 -1 -20 -2 -4 -11z"/>
<path d="M4810 6819 c0 -6 10 -25 22 -41 20 -28 20 -32 5 -43 -24 -17 -21 -28
3 -15 23 12 70 78 70 99 0 11 -3 11 -15 1 -8 -7 -15 -19 -15 -26 0 -23 -26
-16 -40 11 -14 26 -30 33 -30 14z"/>
<path d="M4941 6821 c-19 -12 -6 -28 29 -36 49 -11 49 -29 0 -22 -28 3 -39 2
-33 -4 6 -6 28 -9 49 -7 49 4 52 28 6 40 -19 5 -30 13 -26 19 3 6 17 8 31 4
16 -4 22 -2 18 5 -8 12 -55 13 -74 1z"/>
<path d="M5056 6823 c-3 -3 -6 -21 -6 -40 0 -23 5 -33 15 -33 10 0 15 10 15
34 0 34 -11 52 -24 39z"/>
<path d="M5114 6809 c-14 -15 -16 -24 -8 -37 12 -19 71 -29 86 -14 7 7 -1 10
-23 9 -30 -2 -34 1 -34 23 0 22 4 25 35 22 26 -1 31 0 20 8 -24 16 -56 12 -76
-11z"/>
<path d="M5245 6820 c-4 -7 2 -9 18 -5 14 4 28 2 31 -4 4 -6 1 -11 -6 -11 -10
0 -10 -2 1 -9 18 -11 5 -31 -20 -31 -21 0 -26 15 -6 24 6 3 1 4 -13 3 -15 -1
-25 -8 -25 -17 0 -11 14 -15 56 -17 56 -2 56 -2 51 25 -3 15 -9 33 -15 40 -12
15 -63 16 -72 2z"/>
<path d="M5550 6789 c0 -21 5 -39 10 -39 6 0 10 13 10 29 0 16 6 31 15 35 26
10 45 -5 45 -35 0 -16 5 -29 10 -29 6 0 10 16 10 35 0 37 -10 42 -72 43 -26 0
-28 -3 -28 -39z"/>
<path d="M5680 6773 c0 -29 5 -53 10 -53 6 0 10 6 10 14 0 10 13 16 36 18 80
7 71 72 -10 74 l-46 1 0 -54z m78 14 c3 -23 0 -27 -23 -27 -30 0 -43 24 -25
46 19 22 45 13 48 -19z"/>
<path d="M5814 6816 c-3 -9 -3 -27 0 -41 6 -23 11 -25 57 -25 l50 0 -3 35 c-3
42 -25 47 -30 8 -2 -20 -9 -29 -25 -31 -20 -3 -23 1 -23 27 0 33 -17 51 -26
27z"/>
<path d="M5105 6470 c-3 -6 -5 -36 -4 -68 l3 -57 -42 -3 -42 -3 37 -72 c20
-40 39 -83 43 -97 3 -14 13 -25 20 -25 7 0 17 11 20 25 4 14 23 57 43 97 l37
72 -42 3 -41 3 -1 64 c-1 61 -15 88 -31 61z"/>
<path d="M3454 6030 c-52 -21 -54 -34 -54 -327 l0 -272 24 -28 24 -28 827 -5
828 -5 0 -60 0 -60 -42 -3 -42 -3 41 -75 c22 -40 40 -83 40 -94 0 -13 7 -20
20 -20 13 0 20 7 20 20 0 11 18 54 40 94 l41 75 -42 3 -42 3 0 60 0 60 828 5
827 5 24 28 24 28 0 274 0 274 -24 28 -24 28 -1659 2 c-921 1 -1668 -2 -1679
-7z m3336 -13 l25 -13 3 -296 2 -297 -29 -16 c-27 -13 -216 -15 -1671 -15
-1455 0 -1644 2 -1671 15 l-29 16 2 297 3 296 25 13 c20 10 364 13 1670 13
1306 0 1650 -3 1670 -13z"/>
<path d="M4464 5745 c-14 -11 -15 -14 -4 -15 8 0 21 4 29 9 16 10 41 4 41 -10
0 -5 -18 -21 -40 -35 -22 -15 -40 -31 -40 -35 0 -5 26 -8 58 -7 42 1 47 2 20
5 -41 4 -50 18 -19 28 10 3 27 15 37 26 18 20 18 21 -1 35 -24 18 -56 18 -81
-1z"/>
<path d="M4734 5745 c-19 -15 -19 -15 0 -30 11 -8 25 -15 32 -15 7 0 25 -5 41
-11 22 -8 24 -12 13 -19 -20 -13 -67 -12 -75 0 -4 6 -11 7 -17 4 -17 -10 13
-24 54 -24 49 0 68 8 68 30 0 19 -8 23 -67 35 -18 4 -33 10 -33 15 0 15 39 21
60 10 25 -13 42 -4 20 10 -23 15 -74 12 -96 -5z"/>
<path d="M5325 5750 c3 -5 15 -10 26 -10 16 0 19 -7 19 -45 0 -33 4 -45 15
-45 11 0 15 12 15 45 0 38 3 45 20 45 11 0 20 5 20 10 0 6 -27 10 -61 10 -37
0 -58 -4 -54 -10z"/>
<path d="M5700 5705 c0 -30 5 -55 10 -55 6 0 10 7 10 15 0 8 6 15 14 15 7 0
19 -7 26 -15 7 -8 20 -15 29 -14 12 0 11 4 -6 16 -28 19 -29 31 -5 49 25 20
-3 18 -33 -2 -25 -16 -25 -16 -25 15 0 17 -4 31 -10 31 -5 0 -10 -25 -10 -55z"/>
<path d="M4880 5710 c-17 -32 4 -60 45 -60 18 0 36 4 39 9 3 5 -9 8 -27 7 -28
-1 -32 2 -32 24 0 22 4 25 32 24 18 -1 30 2 27 7 -3 5 -21 9 -39 9 -24 0 -38
-6 -45 -20z"/>
<path d="M5005 5720 c-5 -8 4 -9 29 -5 24 5 36 3 36 -4 0 -6 -13 -11 -29 -11
-30 0 -57 -22 -46 -39 3 -6 33 -10 67 -10 33 1 56 4 50 8 -6 3 -12 20 -14 36
-3 27 -7 30 -45 33 -23 2 -44 -2 -48 -8z m63 -42 c-5 -15 -48 -24 -48 -10 0
14 12 22 33 22 10 0 17 -5 15 -12z"/>
<path d="M5130 5689 c0 -49 23 -50 28 0 3 27 7 32 25 29 17 -2 23 -11 25 -35
4 -42 32 -46 32 -5 0 39 -17 52 -67 52 l-43 0 0 -41z"/>
<path d="M5454 5719 c-4 -8 3 -9 25 -4 20 4 31 3 31 -4 0 -6 -10 -11 -22 -11
-32 0 -52 -15 -45 -34 5 -12 19 -15 60 -14 52 1 53 2 49 27 -3 14 -9 32 -15
39 -12 15 -73 16 -83 1z m61 -39 c8 -13 -20 -24 -42 -16 -15 6 -15 8 -3 16 20
13 37 12 45 0z"/>
<path d="M5580 5710 c0 -14 9 -21 35 -26 51 -9 44 -28 -7 -20 -32 5 -40 4 -32
-4 18 -18 88 -8 92 13 3 12 -5 19 -27 23 -43 9 -53 28 -12 22 17 -2 31 -1 31
4 0 4 -18 8 -40 8 -33 0 -40 -3 -40 -20z"/>
<path d="M4595 5660 c-3 -5 1 -10 10 -10 9 0 13 5 10 10 -3 6 -8 10 -10 10 -2
0 -7 -4 -10 -10z"/>
<path d="M5125 4930 c11 -5 27 -9 35 -9 9 0 8 4 -5 9 -11 5 -27 9 -35 9 -9 0
-8 -4 5 -9z"/>
<path d="M5055 4920 c-13 -5 -14 -9 -5 -9 8 0 24 4 35 9 13 5 14 9 5 9 -8 0
-24 -4 -35 -9z"/>
<path d="M5365 4854 c71 -24 134 -44 140 -43 5 0 -48 20 -120 45 -71 24 -134
44 -140 43 -5 0 48 -20 120 -45z"/>
<path d="M4835 4850 c-60 -21 -105 -39 -100 -39 6 -1 62 17 125 38 63 22 108
39 100 39 -8 0 -64 -17 -125 -38z"/>
<path d="M5675 4754 c71 -24 134 -44 140 -43 5 0 -48 20 -120 45 -71 24 -134
44 -140 43 -5 0 48 -20 120 -45z"/>
<path d="M4525 4750 c-60 -21 -105 -39 -100 -39 6 -1 62 17 125 38 63 22 108
39 100 39 -8 0 -64 -17 -125 -38z"/>
<path d="M4215 4650 c-60 -21 -105 -39 -100 -39 6 -1 62 17 125 38 63 22 108
39 100 39 -8 0 -64 -17 -125 -38z"/>
<path d="M5905 4680 c11 -5 27 -9 35 -9 9 0 8 4 -5 9 -11 5 -27 9 -35 9 -9 0
-8 -4 5 -9z"/>
<path d="M6045 4635 c34 -16 72 -21 45 -6 -8 5 -28 11 -45 14 l-30 6 30 -14z"/>
<path d="M6215 4580 c11 -5 27 -9 35 -9 9 0 8 4 -5 9 -11 5 -27 9 -35 9 -9 0
-8 -4 5 -9z"/>
<path d="M3965 4570 c-13 -5 -14 -9 -5 -9 8 0 24 4 35 9 13 5 14 9 5 9 -8 0
-24 -4 -35 -9z"/>
<path d="M6455 4504 c71 -24 134 -44 140 -43 5 0 -48 20 -120 45 -71 24 -134
44 -140 43 -5 0 48 -20 120 -45z"/>
<path d="M3812 4523 c-24 -8 -41 -17 -39 -19 2 -2 28 5 58 15 30 11 47 20 39
19 -8 0 -34 -6 -58 -15z"/>
<path d="M3655 4470 c-13 -5 -14 -9 -5 -9 8 0 24 4 35 9 13 5 14 9 5 9 -8 0
-24 -4 -35 -9z"/>
<path d="M6713 4422 c42 -14 77 -29 77 -34 0 -4 -18 -13 -40 -19 -22 -7 -38
-14 -36 -16 2 -3 29 3 60 13 31 10 53 21 49 25 -10 8 -165 59 -178 58 -6 0 25
-13 68 -27z"/>
<path d="M3490 4419 c-90 -31 -88 -30 -50 -44 19 -8 42 -13 50 -13 8 0 3 4
-12 10 -16 5 -28 13 -28 17 0 4 28 17 63 28 34 12 55 21 47 21 -8 0 -40 -8
-70 -19z"/>
<path d="M4400 4430 c-22 -14 -5 -23 20 -10 22 12 50 7 50 -9 0 -5 -10 -12
-22 -16 l-23 -8 23 -4 c12 -2 22 -11 22 -20 0 -12 -8 -15 -40 -10 -40 5 -55
-5 -24 -17 26 -10 59 -7 79 8 16 11 17 17 7 29 -7 8 -9 22 -6 32 12 30 -50 48
-86 25z"/>
<path d="M4660 4384 c0 -40 4 -55 13 -52 6 3 13 14 15 26 4 28 8 28 54 -4 41
-29 68 -25 28 4 -13 9 -29 20 -34 25 -7 5 0 17 19 32 36 30 23 33 -23 5 -40
-24 -38 -24 -45 0 -11 41 -27 20 -27 -36z"/>
<path d="M5140 4385 l0 -55 66 0 c41 0 63 4 59 10 -3 6 -29 10 -56 10 -63 0
-63 23 -1 28 23 2 42 7 42 12 0 5 -15 7 -32 4 -34 -5 -68 9 -55 23 4 4 29 10
55 14 l47 6 -62 2 -63 1 0 -55z"/>
<path d="M5754 4424 c-19 -15 -19 -15 1 -11 11 3 27 7 35 11 8 3 22 1 30 -4
13 -9 11 -13 -10 -29 -35 -27 -21 -34 18 -9 37 23 40 33 13 48 -28 15 -64 12
-87 -6z"/>
<path d="M5678 4418 c-2 -7 -2 -29 2 -48 4 -28 10 -36 30 -38 23 -2 24 -1 8
11 -20 16 -24 42 -8 52 8 5 7 11 -1 21 -14 17 -26 18 -31 2z"/>
<path d="M4838 4408 c-34 -12 -38 -52 -9 -68 25 -13 68 -13 76 0 4 6 -8 10
-29 10 -20 0 -36 5 -36 10 0 6 18 10 40 10 47 0 56 24 14 40 -14 6 -26 10 -27
9 -1 0 -14 -5 -29 -11z m52 -18 c0 -5 -9 -10 -19 -10 -11 0 -23 5 -26 10 -4 6
5 10 19 10 14 0 26 -4 26 -10z"/>
<path d="M5433 4410 c-29 -12 -31 -55 -4 -70 25 -13 68 -13 76 0 4 6 -8 10
-29 10 -20 0 -36 5 -36 10 0 6 18 10 40 10 47 0 56 24 14 40 -30 12 -32 12
-61 0z m57 -20 c0 -5 -11 -10 -25 -10 -14 0 -25 5 -25 10 0 6 11 10 25 10 14
0 25 -4 25 -10z"/>
<path d="M5578 4413 c-25 -4 -28 -8 -28 -46 0 -44 16 -42 22 3 2 19 9 25 28
25 21 0 26 -5 28 -32 5 -47 22 -41 22 7 0 22 -4 40 -9 40 -5 0 -15 2 -23 3 -7
2 -25 2 -40 0z"/>
<path d="M4959 4374 c26 -44 26 -48 -1 -62 l-23 -12 25 3 c29 2 100 99 78 106
-7 2 -14 -1 -15 -6 -2 -6 -10 -19 -17 -29 -14 -18 -15 -18 -27 9 -7 15 -19 27
-27 27 -11 0 -9 -8 7 -36z"/>
<path d="M5290 4399 c0 -15 39 -69 50 -69 12 0 53 70 46 78 -4 3 -17 -6 -29
-22 l-23 -28 -13 26 c-15 27 -31 35 -31 15z"/>
<path d="M4535 4340 c3 -5 8 -10 11 -10 2 0 4 5 4 10 0 6 -5 10 -11 10 -5 0
-7 -4 -4 -10z"/>
<path d="M5785 4340 c3 -5 8 -10 11 -10 2 0 4 5 4 10 0 6 -5 10 -11 10 -5 0
-7 -4 -4 -10z"/>
<path d="M3680 4299 c63 -21 119 -39 125 -38 5 0 -42 18 -105 40 -63 21 -119
39 -125 38 -5 0 42 -18 105 -40z"/>
<path d="M6520 4295 c-69 -24 -120 -44 -115 -44 6 -1 69 19 140 43 72 25 123
44 115 44 -8 0 -71 -19 -140 -43z"/>
<path d="M3910 4225 c19 -7 42 -13 50 -13 8 0 -1 6 -20 13 -19 7 -42 13 -50
13 -8 0 1 -6 20 -13z"/>
<path d="M6270 4215 c-19 -7 -28 -13 -20 -13 8 0 31 6 50 13 19 7 28 13 20 13
-8 0 -31 -6 -50 -13z"/>
<path d="M6150 4175 c-36 -13 -60 -24 -54 -24 13 -1 134 39 134 45 0 7 -12 4
-80 -21z"/>
<path d="M4065 4175 c17 -8 37 -14 45 -14 8 0 -1 7 -20 14 -46 18 -64 17 -25
0z"/>
<path d="M4220 4125 c19 -7 42 -13 50 -13 8 0 -1 6 -20 13 -19 7 -42 13 -50
13 -8 0 1 -6 20 -13z"/>
<path d="M5975 4120 c-13 -5 -14 -9 -5 -9 8 0 24 4 35 9 13 5 14 9 5 9 -8 0
-24 -4 -35 -9z"/>
<path d="M4460 4049 c63 -21 119 -39 125 -38 5 0 -42 18 -105 40 -63 21 -119
39 -125 38 -5 0 42 -18 105 -40z"/>
<path d="M5805 4065 c-39 -17 -21 -18 25 0 19 7 28 14 20 14 -8 0 -28 -6 -45
-14z"/>
<path d="M5665 4020 c-13 -5 -14 -9 -5 -9 8 0 24 4 35 9 13 5 14 9 5 9 -8 0
-24 -4 -35 -9z"/>
<path d="M4770 3949 c63 -21 119 -39 125 -38 5 0 -42 18 -105 40 -63 21 -119
39 -125 38 -5 0 42 -18 105 -40z"/>
<path d="M5430 3945 c-69 -24 -120 -44 -115 -44 6 -1 69 19 140 43 72 25 123
44 115 44 -8 0 -71 -19 -140 -43z"/>
<path d="M5030 3866 l65 -23 3 -66 3 -67 -41 0 c-22 0 -40 -2 -40 -5 0 -3 16
-35 36 -71 20 -37 40 -78 43 -93 4 -14 14 -26 21 -26 7 0 17 12 21 26 3 15 23
56 43 93 20 36 36 68 36 71 0 3 -18 5 -40 5 l-41 0 3 67 3 66 50 18 c64 23 48
24 -22 2 -52 -16 -55 -16 -121 5 -89 29 -106 27 -22 -2z"/>
<path d="M3443 3395 c-19 -8 -35 -23 -38 -37 -3 -13 -4 -149 -3 -302 l3 -279
28 -21 c28 -21 32 -21 848 -24 l819 -2 0 -50 c0 -28 1 -53 3 -57 1 -5 -17 -9
-40 -11 l-43 -3 37 -72 c20 -40 39 -83 43 -97 3 -14 13 -25 20 -25 7 0 17 11
20 25 4 14 23 57 43 97 l37 72 -40 3 c-22 2 -40 6 -40 11 0 4 0 29 0 57 l0 50
819 2 c816 3 820 3 848 24 l28 21 3 284 c3 309 1 320 -51 339 -20 7 -552 10
-1671 10 -1383 -1 -1646 -3 -1673 -15z m3348 -15 c18 -10 19 -24 19 -305 0
-292 0 -294 -22 -309 -20 -14 -195 -16 -1668 -16 -1473 0 -1648 2 -1668 16
-22 15 -22 17 -22 309 0 269 1 295 18 304 24 15 3316 15 3343 1z"/>
<path d="M4600 3119 c-42 -17 -53 -55 -24 -83 17 -18 99 -22 124 -6 22 14 5
23 -20 10 -48 -26 -108 9 -84 48 13 21 56 27 83 13 11 -6 22 -7 25 -2 6 10
-37 31 -62 30 -9 0 -28 -5 -42 -10z"/>
<path d="M5280 3076 c0 -44 3 -56 16 -56 12 0 14 10 12 52 -4 74 -28 77 -28 4z"/>
<path d="M4322 3087 c-18 -18 -32 -36 -32 -40 0 -4 16 -7 35 -7 19 0 35 -4 35
-10 0 -15 19 -12 36 5 9 8 11 15 5 15 -6 0 -11 16 -11 35 0 46 -25 47 -68 2z
m41 -17 c-3 -11 -14 -20 -24 -20 -24 0 -24 9 -1 26 24 19 31 17 25 -6z"/>
<path d="M5407 3113 c-4 -3 -7 -26 -7 -50 l0 -43 58 2 c49 1 51 2 15 5 l-43 4
0 45 c0 41 -7 53 -23 37z"/>
<path d="M5002 3068 c3 -37 6 -43 28 -46 18 -2 21 0 11 6 -10 7 -12 20 -7 46
6 32 5 36 -14 36 -19 0 -21 -5 -18 -42z"/>
<path d="M4742 3088 c-16 -16 -15 -43 2 -57 20 -17 87 -10 100 11 24 39 -68
80 -102 46z m68 -13 c18 -21 5 -45 -25 -45 -40 0 -34 54 6 59 4 1 12 -6 19
-14z"/>
<path d="M4870 3061 c0 -30 4 -41 15 -41 10 0 15 10 15 29 0 16 6 31 13 34 23
8 37 -5 37 -34 0 -16 5 -29 11 -29 6 0 9 16 7 38 -3 37 -3 37 -50 40 l-48 3 0
-40z"/>
<path d="M5070 3059 c0 -22 5 -39 10 -39 6 0 10 11 10 25 0 14 7 28 15 31 23
9 18 22 -10 22 -22 0 -25 -5 -25 -39z"/>
<path d="M5156 3084 c-33 -32 -11 -64 44 -64 39 0 60 14 60 42 0 35 -75 52
-104 22z m62 -3 c23 -14 10 -46 -18 -46 -16 0 -26 6 -28 19 -3 16 12 36 28 36
3 0 11 -4 18 -9z"/>
<path d="M5540 3086 c-6 -8 -10 -25 -8 -38 3 -20 10 -23 50 -26 38 -2 49 1 57
16 16 29 -12 62 -53 62 -19 0 -39 -7 -46 -14z m68 -29 c3 -23 0 -27 -23 -27
-30 0 -43 24 -25 46 19 22 45 13 48 -19z"/>
<path d="M5670 3085 c-6 -8 -10 -24 -8 -37 2 -19 10 -24 41 -26 20 -2 37 -8
37 -14 0 -7 -13 -8 -35 -5 -19 3 -35 2 -35 -3 0 -16 50 -23 76 -11 21 9 24 17
24 59 l0 48 -44 2 c-28 1 -48 -4 -56 -13z m68 -29 c-2 -13 -12 -22 -25 -24
-19 -3 -23 1 -23 21 0 14 6 27 13 30 22 7 38 -5 35 -27z"/>
<path d="M5800 3060 c0 -22 5 -40 10 -40 6 0 10 18 10 40 0 22 -4 40 -10 40
-5 0 -10 -18 -10 -40z"/>
<path d="M5862 3092 c-8 -5 -12 -22 -10 -38 3 -26 7 -29 42 -32 21 -2 43 1 49
7 8 8 -1 10 -29 8 -33 -2 -39 1 -42 19 -4 26 22 38 50 23 16 -9 19 -8 16 3 -5
15 -57 22 -76 10z"/>
<path d="M3451 2299 c-49 -20 -50 -25 -51 -325 0 -268 1 -281 20 -302 12 -12
22 -23 23 -24 1 -2 375 -5 831 -8 l829 -5 0 -60 0 -60 -42 -3 -42 -3 41 -75
c22 -40 40 -83 40 -94 0 -13 7 -20 20 -20 13 0 20 7 20 20 0 11 18 54 40 94
l41 75 -42 3 -42 3 0 60 0 60 829 5 c456 3 830 6 831 8 1 1 11 12 23 24 19 21
20 34 20 302 -1 303 -1 306 -54 326 -36 13 -3301 13 -3335 -1z m3329 -12 l25
-13 0 -299 0 -299 -25 -13 c-20 -10 -362 -13 -1660 -13 -1298 0 -1640 3 -1660
13 l-25 13 0 299 0 299 25 13 c20 10 362 13 1660 13 1298 0 1640 -3 1660 -13z"/>
<path d="M4171 2008 c-12 -32 -6 -38 40 -38 33 0 40 -3 37 -17 -3 -15 -13 -17
-48 -15 -33 2 -41 -1 -30 -8 23 -15 77 -12 94 6 9 8 16 17 16 19 0 14 -37 35
-61 35 -18 0 -28 4 -24 10 3 6 19 10 36 10 16 0 29 5 29 10 0 6 -18 10 -40 10
-33 0 -42 -4 -49 -22z"/>
<path d="M4443 1982 c-18 -26 -33 -51 -33 -55 0 -13 28 -7 34 8 7 20 65 19 88
-2 30 -27 31 -8 2 39 -25 40 -41 57 -54 58 -3 0 -20 -21 -37 -48z m56 4 c9
-10 9 -16 1 -21 -17 -11 -40 3 -34 20 8 19 18 19 33 1z"/>
<path d="M4790 2016 c0 -10 -12 -16 -37 -18 -36 -3 -38 -5 -38 -38 l0 -35 50
0 50 0 0 49 c0 31 -5 51 -12 54 -7 2 -13 -3 -13 -12z m-5 -56 c0 -18 -6 -26
-23 -28 -13 -2 -25 3 -28 12 -10 26 4 48 28 44 17 -2 23 -10 23 -28z"/>
<path d="M5125 2018 c-63 -36 -32 -98 49 -98 57 0 76 8 76 30 0 19 -46 34 -56
19 -3 -5 2 -9 11 -9 27 0 11 -25 -18 -28 -34 -4 -67 14 -67 37 0 31 26 44 75
39 47 -6 62 5 23 16 -35 9 -71 7 -93 -6z"/>
<path d="M5610 2021 c0 -5 10 -11 23 -13 18 -2 23 -10 25 -45 4 -57 22 -55 22
2 0 41 2 45 25 45 14 0 25 5 25 10 0 6 -27 10 -60 10 -33 0 -60 -4 -60 -9z"/>
<path d="M5980 1975 c0 -42 3 -55 15 -55 8 0 15 7 15 15 0 19 9 19 34 0 31
-23 42 -18 17 8 -19 22 -20 25 -6 37 24 20 10 24 -19 5 l-26 -17 0 31 c0 21
-5 31 -15 31 -12 0 -15 -13 -15 -55z"/>
<path d="M4582 1963 c3 -38 3 -38 51 -41 l47 -3 0 40 c0 49 -17 55 -22 9 -5
-57 -57 -48 -58 10 0 12 -5 22 -11 22 -6 0 -9 -16 -7 -37z"/>
<path d="M4844 1986 c-8 -22 -1 -59 14 -64 8 -2 12 9 12 37 0 40 -15 55 -26
27z"/>
<path d="M4900 1980 c-18 -34 4 -60 50 -60 29 0 42 5 50 20 18 34 -4 60 -50
60 -29 0 -42 -5 -50 -20z m75 -20 c0 -18 -6 -26 -23 -28 -24 -4 -38 18 -28 44
3 9 15 14 28 12 17 -2 23 -10 23 -28z"/>
<path d="M5284 1975 c-4 -15 -1 -32 6 -40 14 -17 75 -21 85 -6 3 6 -9 7 -31 4
-29 -5 -36 -3 -32 8 2 8 21 15 41 17 61 5 39 42 -25 42 -32 0 -39 -4 -44 -25z
m71 5 c4 -6 -5 -10 -19 -10 -14 0 -26 5 -26 10 0 6 9 10 19 10 11 0 23 -4 26
-10z"/>
<path d="M5414 1986 c-8 -22 -1 -59 13 -63 7 -3 13 9 15 29 2 25 8 34 25 36
18 3 22 -2 25 -29 2 -18 9 -34 16 -37 10 -3 12 6 10 34 -3 39 -3 39 -51 42
-35 2 -49 -1 -53 -12z"/>
<path d="M5740 1991 c0 -6 12 -8 30 -4 19 3 30 1 30 -6 0 -6 -9 -11 -21 -11
-31 0 -59 -18 -53 -35 4 -11 22 -14 65 -14 44 1 57 4 50 13 -5 6 -11 22 -13
36 -3 22 -9 25 -45 28 -25 2 -43 -1 -43 -7z m60 -46 c0 -9 -9 -15 -25 -15 -26
0 -34 15 -12 23 23 10 37 7 37 -8z"/>
<path d="M5865 1990 c-10 -16 3 -28 35 -35 44 -10 38 -29 -7 -22 -25 4 -33 3
-26 -4 6 -6 28 -9 49 -7 49 4 53 29 7 43 -41 12 -43 30 -3 22 17 -4 30 -2 30
3 0 13 -77 13 -85 0z"/>
<path d="M4308 1923 c7 -3 16 -2 19 1 4 3 -2 6 -13 5 -11 0 -14 -3 -6 -6z"/>
<path d="M4307 1203 c447 -2 1179 -2 1625 0 447 1 82 2 -812 2 -894 0 -1259
-1 -813 -2z"/>
<path d="M3414 875 c0 -154 2 -216 3 -137 2 79 2 205 0 280 -1 75 -3 11 -3
-143z"/>
<path d="M6824 875 c0 -154 2 -216 3 -137 2 79 2 205 0 280 -1 75 -3 11 -3
-143z"/>
<path d="M4102 914 c-12 -8 -22 -25 -22 -38 0 -48 64 -73 101 -40 28 25 8 54
-36 54 -19 0 -35 4 -35 9 0 13 30 22 53 15 13 -4 17 -2 13 5 -10 16 -48 14
-74 -5z m64 -45 c9 -16 -20 -41 -39 -33 -17 6 -22 25 -10 37 10 11 41 8 49 -4z"/>
<path d="M4373 918 c-31 -15 -31 -61 -1 -82 49 -35 138 -9 138 39 0 46 -79 71
-137 43z m98 -16 c27 -23 21 -48 -16 -62 -30 -11 -73 2 -82 26 -7 20 29 54 57
54 10 0 28 -8 41 -18z"/>
<path d="M5163 922 c-17 -11 -33 -59 -26 -79 8 -23 34 -53 45 -53 5 0 2 10 -6
22 -9 12 -16 34 -16 48 0 14 7 36 16 48 15 22 10 28 -13 14z"/>
<path d="M5231 921 c-24 -15 -4 -39 40 -48 23 -5 44 -14 46 -20 6 -18 -41 -27
-67 -13 -25 13 -42 4 -20 -10 22 -14 84 -12 105 4 27 19 6 42 -46 51 -21 4
-41 11 -44 16 -9 14 38 21 68 10 15 -6 27 -7 27 -2 0 20 -82 29 -109 12z"/>
<path d="M5770 875 c0 -55 11 -70 28 -38 9 16 12 16 37 -1 34 -23 45 -13 14
13 -24 20 -24 20 -4 36 20 17 14 17 -30 -1 -11 -5 -15 1 -15 20 0 16 -6 26
-15 26 -12 0 -15 -13 -15 -55z"/>
<path d="M6114 908 c21 -29 20 -62 -1 -95 -17 -26 -17 -26 5 -14 43 23 49 73
14 114 -22 25 -36 21 -18 -5z"/>
<path d="M4674 910 c-6 -6 -8 -27 -5 -48 5 -30 11 -38 31 -40 18 -2 21 0 12 6
-8 5 -13 22 -12 38 4 55 -3 67 -26 44z"/>
<path d="M5004 907 c-3 -8 -4 -30 -2 -49 2 -26 8 -34 28 -36 21 -3 22 -2 11
11 -7 9 -11 30 -9 48 3 33 -17 53 -28 26z"/>
<path d="M4768 902 c-27 -3 -28 -6 -28 -58 0 -30 5 -54 10 -54 6 0 10 7 10 15
0 10 10 15 28 15 37 0 70 34 56 57 -13 20 -41 30 -76 25z m48 -27 c7 -18 -13
-45 -33 -45 -17 0 -27 24 -19 45 7 20 45 19 52 0z"/>
<path d="M5402 902 l-33 -3 3 -51 c2 -30 8 -53 16 -56 7 -2 12 5 12 15 0 16 6
19 28 15 33 -4 55 17 50 49 -4 25 -29 36 -76 31z m54 -27 c7 -18 -13 -45 -33
-45 -17 0 -27 24 -19 45 7 20 45 19 52 0z"/>
<path d="M5529 896 c-30 -14 -35 -39 -14 -60 19 -19 70 -21 81 -4 5 8 2 9 -11
4 -21 -8 -55 1 -55 15 0 5 18 9 41 9 32 0 40 3 37 17 -4 22 -50 34 -79 19z
m51 -16 c0 -5 -11 -10 -25 -10 -14 0 -25 5 -25 10 0 6 11 10 25 10 14 0 25 -4
25 -10z"/>
<path d="M5668 903 c-30 -8 -20 -20 12 -15 27 4 30 2 30 -22 0 -29 -25 -45
-42 -28 -8 8 -5 14 13 21 l24 10 -26 0 c-15 1 -32 -5 -38 -13 -18 -21 8 -35
61 -33 46 2 46 2 41 32 -3 16 -8 33 -12 36 -10 11 -44 17 -63 12z"/>
<path d="M5920 900 c-28 -7 -39 -42 -20 -66 14 -16 76 -19 85 -4 4 6 -6 9 -26
8 -18 -2 -34 2 -36 10 -3 8 7 12 31 12 36 0 49 9 38 26 -10 15 -43 21 -72 14z
m50 -20 c0 -5 -11 -10 -25 -10 -14 0 -25 5 -25 10 0 6 11 10 25 10 14 0 25 -4
25 -10z"/>
<path d="M4542 863 c3 -38 3 -38 51 -39 l47 -2 0 39 c0 21 -4 39 -10 39 -5 0
-10 -11 -10 -24 0 -13 -6 -29 -14 -35 -22 -18 -46 -2 -46 30 0 16 -5 29 -11
29 -6 0 -9 -16 -7 -37z"/>
<path d="M4872 863 c3 -38 3 -38 51 -39 l47 -1 0 39 c0 21 -4 38 -10 38 -5 0
-10 -11 -10 -24 0 -33 -25 -53 -45 -36 -8 7 -15 23 -15 36 0 13 -5 24 -11 24
-6 0 -9 -16 -7 -37z"/>
<path d="M6022 863 c3 -41 21 -48 26 -11 2 13 11 29 20 36 14 10 11 12 -17 12
-31 0 -32 -1 -29 -37z"/>
<path d="M4230 830 c0 -5 5 -10 10 -10 6 0 10 5 10 10 0 6 -4 10 -10 10 -5 0
-10 -4 -10 -10z"/>
</g>
</svg>
