<?xml version="1.0" encoding="UTF-8"?>
<svg xmlns="http://www.w3.org/2000/svg" xmlns:xlink="http://www.w3.org/1999/xlink" width="px" height="px" viewBox="0 0 256 192" version="1.1">
<g id="surface1">
<path style=" stroke:none;fill-rule:nonzero;fill:rgb(0%,0%,0%);fill-opacity:1;" d="M 117.175781 20.675781 C 117.074219 20.75 117 21.375 117 22.050781 C 117 23.550781 117.625 23.773438 117.800781 22.300781 C 117.976562 20.898438 117.675781 20.148438 117.175781 20.675781 Z M 117.175781 20.675781 "/>
<path style=" stroke:none;fill-rule:nonzero;fill:rgb(0%,0%,0%);fill-opacity:1;" d="M 134 21.875 C 134 22.625 134.125 23.25 134.25 23.25 C 134.398438 23.25 134.5 22.625 134.5 21.875 C 134.5 21.125 134.398438 20.5 134.25 20.5 C 134.125 20.5 134 21.125 134 21.875 Z M 134 21.875 "/>
<path style=" stroke:none;fill-rule:nonzero;fill:rgb(0%,0%,0%);fill-opacity:1;" d="M 106.875 21 C 106.800781 21.125 106.898438 21.25 107.101562 21.25 C 107.398438 21.25 107.5 21.5 107.5 22.101562 C 107.5 22.800781 107.398438 22.976562 106.949219 23.074219 C 106.625 23.125 107.050781 23.175781 107.875 23.199219 C 108.851562 23.199219 109.148438 23.148438 108.75 23.023438 C 108.226562 22.875 108.101562 22.675781 108.050781 21.800781 C 107.976562 20.976562 107.875 20.75 107.5 20.75 C 107.25 20.75 106.949219 20.851562 106.875 21 Z M 106.875 21 "/>
<path style=" stroke:none;fill-rule:nonzero;fill:rgb(0%,0%,0%);fill-opacity:1;" d="M 113.25 22 C 113.25 23.25 113.574219 23.675781 113.824219 22.75 C 113.925781 22.351562 114.175781 22.25 114.949219 22.25 C 116.125 22.25 116.75 21.726562 116.25 21.125 C 116.050781 20.875 115.476562 20.75 114.601562 20.75 L 113.25 20.75 Z M 115.625 21.5 C 115.625 21.949219 114.324219 22.175781 113.949219 21.800781 C 113.523438 21.375 114 20.976562 114.824219 21.050781 C 115.324219 21.101562 115.625 21.25 115.625 21.5 Z M 115.625 21.5 "/>
<path style=" stroke:none;fill-rule:nonzero;fill:rgb(0%,0%,0%);fill-opacity:1;" d="M 137.25 22 C 137.25 22.675781 137.375 23.25 137.5 23.25 C 137.648438 23.25 137.75 22.675781 137.75 22 C 137.75 21.300781 137.648438 20.75 137.5 20.75 C 137.375 20.75 137.25 21.300781 137.25 22 Z M 137.25 22 "/>
<path style=" stroke:none;fill-rule:nonzero;fill:rgb(0%,0%,0%);fill-opacity:1;" d="M 148.675781 21.175781 C 148.625 21.300781 148.625 21.800781 148.675781 22.300781 C 148.773438 23.074219 148.898438 23.25 149.351562 23.25 C 149.75 23.25 149.800781 23.199219 149.523438 23.023438 C 149.273438 22.875 149.226562 22.550781 149.351562 21.898438 C 149.476562 21.199219 149.449219 21 149.148438 21 C 148.949219 21 148.726562 21.074219 148.675781 21.175781 Z M 148.675781 21.175781 "/>
<path style=" stroke:none;fill-rule:nonzero;fill:rgb(0%,0%,0%);fill-opacity:1;" d="M 118.574219 21.523438 C 118.824219 21.675781 119 22.074219 119 22.5 C 119 23 119.125 23.25 119.375 23.25 C 119.800781 23.25 119.875 22.449219 119.5 21.726562 C 119.351562 21.476562 118.976562 21.25 118.675781 21.25 C 118.175781 21.273438 118.175781 21.300781 118.574219 21.523438 Z M 118.574219 21.523438 "/>
<path style=" stroke:none;fill-rule:nonzero;fill:rgb(0%,0%,0%);fill-opacity:1;" d="M 120.25 21.523438 C 120.25 21.675781 120.5 22.148438 120.800781 22.550781 C 121.300781 23.25 121.300781 23.351562 120.925781 23.625 C 120.324219 24.050781 120.398438 24.324219 121 24 C 121.574219 23.699219 122.75 22.050781 122.75 21.523438 C 122.75 21.25 122.675781 21.25 122.375 21.5 C 122.175781 21.675781 122 21.976562 122 22.148438 C 122 22.726562 121.351562 22.550781 121 21.875 C 120.648438 21.226562 120.25 21.050781 120.25 21.523438 Z M 120.25 21.523438 "/>
<path style=" stroke:none;fill-rule:nonzero;fill:rgb(0%,0%,0%);fill-opacity:1;" d="M 123.523438 21.476562 C 123.050781 21.773438 123.375 22.175781 124.25 22.375 C 125.476562 22.648438 125.476562 23.101562 124.25 22.925781 C 123.550781 22.851562 123.273438 22.875 123.425781 23.023438 C 123.574219 23.175781 124.125 23.25 124.648438 23.199219 C 125.875 23.101562 125.949219 22.5 124.800781 22.199219 C 124.324219 22.074219 124.050781 21.875 124.148438 21.726562 C 124.226562 21.574219 124.574219 21.523438 124.925781 21.625 C 125.324219 21.726562 125.476562 21.675781 125.375 21.5 C 125.175781 21.199219 124 21.175781 123.523438 21.476562 Z M 123.523438 21.476562 "/>
<path style=" stroke:none;fill-rule:nonzero;fill:rgb(0%,0%,0%);fill-opacity:1;" d="M 126.398438 21.425781 C 126.324219 21.5 126.25 21.949219 126.25 22.425781 C 126.25 23 126.375 23.25 126.625 23.25 C 126.875 23.25 127 23 127 22.398438 C 127 21.550781 126.726562 21.101562 126.398438 21.425781 Z M 126.398438 21.425781 "/>
<path style=" stroke:none;fill-rule:nonzero;fill:rgb(0%,0%,0%);fill-opacity:1;" d="M 127.851562 21.773438 C 127.5 22.148438 127.449219 22.375 127.648438 22.699219 C 127.949219 23.175781 129.425781 23.425781 129.800781 23.050781 C 129.976562 22.875 129.773438 22.800781 129.226562 22.824219 C 128.476562 22.875 128.375 22.800781 128.375 22.25 C 128.375 21.699219 128.476562 21.625 129.25 21.699219 C 129.898438 21.726562 130.023438 21.699219 129.75 21.5 C 129.148438 21.101562 128.351562 21.199219 127.851562 21.773438 Z M 127.851562 21.773438 "/>
<path style=" stroke:none;fill-rule:nonzero;fill:rgb(0%,0%,0%);fill-opacity:1;" d="M 131.125 21.5 C 131.023438 21.675781 131.175781 21.726562 131.574219 21.625 C 131.925781 21.523438 132.273438 21.574219 132.351562 21.726562 C 132.449219 21.875 132.375 22 132.199219 22 C 131.949219 22 131.949219 22.050781 132.226562 22.226562 C 132.675781 22.5 132.351562 23 131.726562 23 C 131.199219 23 131.074219 22.625 131.574219 22.398438 C 131.726562 22.324219 131.601562 22.300781 131.25 22.324219 C 130.875 22.351562 130.625 22.523438 130.625 22.75 C 130.625 23.023438 130.976562 23.125 132.023438 23.175781 C 133.425781 23.226562 133.425781 23.226562 133.300781 22.550781 C 133.226562 22.175781 133.074219 21.726562 132.925781 21.550781 C 132.625 21.175781 131.351562 21.148438 131.125 21.5 Z M 131.125 21.5 "/>
<path style=" stroke:none;fill-rule:nonzero;fill:rgb(0%,0%,0%);fill-opacity:1;" d="M 138.75 22.273438 C 138.75 22.800781 138.875 23.25 139 23.25 C 139.148438 23.25 139.25 22.925781 139.25 22.523438 C 139.25 22.125 139.398438 21.75 139.625 21.648438 C 140.273438 21.398438 140.75 21.773438 140.75 22.523438 C 140.75 22.925781 140.875 23.25 141 23.25 C 141.148438 23.25 141.25 22.851562 141.25 22.375 C 141.25 21.449219 141 21.324219 139.449219 21.300781 C 138.800781 21.300781 138.75 21.375 138.75 22.273438 Z M 138.75 22.273438 "/>
<path style=" stroke:none;fill-rule:nonzero;fill:rgb(0%,0%,0%);fill-opacity:1;" d="M 142 22.675781 C 142 23.398438 142.125 24 142.25 24 C 142.398438 24 142.5 23.851562 142.5 23.648438 C 142.5 23.398438 142.824219 23.25 143.398438 23.199219 C 145.398438 23.023438 145.175781 21.398438 143.148438 21.351562 L 142 21.324219 Z M 143.949219 22.324219 C 144.023438 22.898438 143.949219 23 143.375 23 C 142.625 23 142.300781 22.398438 142.75 21.851562 C 143.226562 21.300781 143.875 21.523438 143.949219 22.324219 Z M 143.949219 22.324219 "/>
<path style=" stroke:none;fill-rule:nonzero;fill:rgb(0%,0%,0%);fill-opacity:1;" d="M 145.351562 21.601562 C 145.273438 21.824219 145.273438 22.273438 145.351562 22.625 C 145.5 23.199219 145.625 23.25 146.773438 23.25 L 148.023438 23.25 L 147.949219 22.375 C 147.875 21.324219 147.324219 21.199219 147.199219 22.175781 C 147.148438 22.675781 146.976562 22.898438 146.574219 22.949219 C 146.074219 23.023438 146 22.925781 146 22.273438 C 146 21.449219 145.574219 21 145.351562 21.601562 Z M 145.351562 21.601562 "/>
<path style=" stroke:none;fill-rule:nonzero;fill:rgb(0%,0%,0%);fill-opacity:1;" d="M 127.625 30.25 C 127.550781 30.398438 127.5 31.148438 127.523438 31.949219 L 127.601562 33.375 L 125.5 33.523438 L 126.425781 35.324219 C 126.925781 36.324219 127.398438 37.398438 127.5 37.75 C 127.574219 38.101562 127.824219 38.375 128 38.375 C 128.175781 38.375 128.425781 38.101562 128.5 37.75 C 128.601562 37.398438 129.074219 36.324219 129.574219 35.324219 L 130.5 33.523438 L 129.449219 33.449219 L 128.425781 33.375 L 128.398438 31.773438 C 128.375 30.25 128.023438 29.574219 127.625 30.25 Z M 127.625 30.25 "/>
<path style=" stroke:none;fill-rule:nonzero;fill:rgb(0%,0%,0%);fill-opacity:1;" d="M 86.351562 41.25 C 85.050781 41.773438 85 42.101562 85 49.425781 L 85 56.226562 L 85.601562 56.925781 L 86.199219 57.625 L 106.875 57.75 L 127.574219 57.875 L 127.574219 60.875 L 126.523438 60.949219 L 125.476562 61.023438 L 126.5 62.898438 C 127.050781 63.898438 127.5 64.976562 127.5 65.25 C 127.5 65.574219 127.675781 65.75 128 65.75 C 128.324219 65.75 128.5 65.574219 128.5 65.25 C 128.5 64.976562 128.949219 63.898438 129.5 62.898438 L 130.523438 61.023438 L 129.476562 60.949219 L 128.425781 60.875 L 128.425781 57.875 L 149.125 57.75 L 169.800781 57.625 L 170.398438 56.925781 L 171 56.226562 L 171 42.523438 L 170.398438 41.824219 L 169.800781 41.125 L 128.324219 41.074219 C 105.300781 41.050781 86.625 41.125 86.351562 41.25 Z M 169.75 41.574219 L 170.375 41.898438 L 170.449219 49.300781 L 170.5 56.726562 L 169.773438 57.125 C 169.101562 57.449219 164.375 57.5 128 57.5 C 91.625 57.5 86.898438 57.449219 86.226562 57.125 L 85.5 56.726562 L 85.550781 49.300781 L 85.625 41.898438 L 86.25 41.574219 C 86.75 41.324219 95.351562 41.25 128 41.25 C 160.648438 41.25 169.25 41.324219 169.75 41.574219 Z M 169.75 41.574219 "/>
<path style=" stroke:none;fill-rule:nonzero;fill:rgb(0%,0%,0%);fill-opacity:1;" d="M 111.601562 48.375 C 111.25 48.648438 111.226562 48.726562 111.5 48.75 C 111.699219 48.75 112.023438 48.648438 112.226562 48.523438 C 112.625 48.273438 113.25 48.425781 113.25 48.773438 C 113.25 48.898438 112.800781 49.300781 112.25 49.648438 C 111.699219 50.023438 111.25 50.425781 111.25 50.523438 C 111.25 50.648438 111.898438 50.726562 112.699219 50.699219 C 113.75 50.675781 113.875 50.648438 113.199219 50.574219 C 112.175781 50.476562 111.949219 50.125 112.726562 49.875 C 112.976562 49.800781 113.398438 49.5 113.648438 49.226562 C 114.101562 48.726562 114.101562 48.699219 113.625 48.351562 C 113.023438 47.898438 112.226562 47.898438 111.601562 48.375 Z M 111.601562 48.375 "/>
<path style=" stroke:none;fill-rule:nonzero;fill:rgb(0%,0%,0%);fill-opacity:1;" d="M 118.351562 48.375 C 117.875 48.75 117.875 48.75 118.351562 49.125 C 118.625 49.324219 118.976562 49.5 119.148438 49.5 C 119.324219 49.5 119.773438 49.625 120.175781 49.773438 C 120.726562 49.976562 120.773438 50.074219 120.5 50.25 C 120 50.574219 118.824219 50.550781 118.625 50.25 C 118.523438 50.101562 118.351562 50.074219 118.199219 50.148438 C 117.773438 50.398438 118.523438 50.75 119.550781 50.75 C 120.773438 50.75 121.25 50.550781 121.25 50 C 121.25 49.523438 121.050781 49.425781 119.574219 49.125 C 119.125 49.023438 118.75 48.875 118.75 48.75 C 118.75 48.375 119.726562 48.226562 120.25 48.5 C 120.875 48.824219 121.300781 48.601562 120.75 48.25 C 120.175781 47.875 118.898438 47.949219 118.351562 48.375 Z M 118.351562 48.375 "/>
<path style=" stroke:none;fill-rule:nonzero;fill:rgb(0%,0%,0%);fill-opacity:1;" d="M 133.125 48.25 C 133.199219 48.375 133.5 48.5 133.773438 48.5 C 134.175781 48.5 134.25 48.675781 134.25 49.625 C 134.25 50.449219 134.351562 50.75 134.625 50.75 C 134.898438 50.75 135 50.449219 135 49.625 C 135 48.675781 135.074219 48.5 135.5 48.5 C 135.773438 48.5 136 48.375 136 48.25 C 136 48.101562 135.324219 48 134.476562 48 C 133.550781 48 133.023438 48.101562 133.125 48.25 Z M 133.125 48.25 "/>
<path style=" stroke:none;fill-rule:nonzero;fill:rgb(0%,0%,0%);fill-opacity:1;" d="M 142.5 49.375 C 142.5 50.125 142.625 50.75 142.75 50.75 C 142.898438 50.75 143 50.574219 143 50.375 C 143 50.175781 143.148438 50 143.351562 50 C 143.523438 50 143.824219 50.175781 144 50.375 C 144.175781 50.574219 144.5 50.75 144.726562 50.726562 C 145.023438 50.726562 145 50.625 144.574219 50.324219 C 143.875 49.851562 143.851562 49.550781 144.449219 49.101562 C 145.074219 48.601562 144.375 48.648438 143.625 49.148438 C 143 49.550781 143 49.550781 143 48.773438 C 143 48.351562 142.898438 48 142.75 48 C 142.625 48 142.5 48.625 142.5 49.375 Z M 142.5 49.375 "/>
<path style=" stroke:none;fill-rule:nonzero;fill:rgb(0%,0%,0%);fill-opacity:1;" d="M 122 49.25 C 121.574219 50.050781 122.101562 50.75 123.125 50.75 C 123.574219 50.75 124.023438 50.648438 124.101562 50.523438 C 124.175781 50.398438 123.875 50.324219 123.425781 50.351562 C 122.726562 50.375 122.625 50.300781 122.625 49.75 C 122.625 49.199219 122.726562 49.125 123.425781 49.148438 C 123.875 49.175781 124.175781 49.101562 124.101562 48.976562 C 124.023438 48.851562 123.574219 48.75 123.125 48.75 C 122.523438 48.75 122.175781 48.898438 122 49.25 Z M 122 49.25 "/>
<path style=" stroke:none;fill-rule:nonzero;fill:rgb(0%,0%,0%);fill-opacity:1;" d="M 125.125 49 C 125 49.199219 125.226562 49.226562 125.851562 49.125 C 126.449219 49 126.75 49.050781 126.75 49.226562 C 126.75 49.375 126.425781 49.5 126.023438 49.5 C 125.273438 49.5 124.601562 50.050781 124.875 50.476562 C 124.949219 50.625 125.699219 50.726562 126.550781 50.726562 C 127.375 50.699219 127.949219 50.625 127.800781 50.523438 C 127.648438 50.449219 127.5 50.023438 127.449219 49.625 C 127.375 48.949219 127.273438 48.875 126.324219 48.800781 C 125.75 48.75 125.226562 48.851562 125.125 49 Z M 126.699219 50.050781 C 126.574219 50.425781 125.5 50.648438 125.5 50.300781 C 125.5 49.949219 125.800781 49.75 126.324219 49.75 C 126.574219 49.75 126.75 49.875 126.699219 50.050781 Z M 126.699219 50.050781 "/>
<path style=" stroke:none;fill-rule:nonzero;fill:rgb(0%,0%,0%);fill-opacity:1;" d="M 128.25 49.773438 C 128.25 51 128.824219 51.023438 128.949219 49.773438 C 129.023438 49.101562 129.125 48.976562 129.574219 49.050781 C 130 49.101562 130.148438 49.324219 130.199219 49.925781 C 130.300781 50.976562 131 51.074219 131 50.050781 C 131 49.074219 130.574219 48.75 129.324219 48.75 L 128.25 48.75 Z M 128.25 49.773438 "/>
<path style=" stroke:none;fill-rule:nonzero;fill:rgb(0%,0%,0%);fill-opacity:1;" d="M 136.351562 49.023438 C 136.25 49.226562 136.425781 49.25 136.976562 49.125 C 137.476562 49.023438 137.75 49.050781 137.75 49.226562 C 137.75 49.375 137.5 49.5 137.199219 49.5 C 136.398438 49.5 135.898438 49.875 136.074219 50.351562 C 136.199219 50.648438 136.550781 50.726562 137.574219 50.699219 C 138.875 50.675781 138.898438 50.648438 138.800781 50.023438 C 138.726562 49.675781 138.574219 49.226562 138.425781 49.050781 C 138.125 48.675781 136.601562 48.648438 136.351562 49.023438 Z M 137.875 50 C 138.074219 50.324219 137.375 50.601562 136.824219 50.398438 C 136.449219 50.25 136.449219 50.199219 136.75 50 C 137.25 49.675781 137.675781 49.699219 137.875 50 Z M 137.875 50 "/>
<path style=" stroke:none;fill-rule:nonzero;fill:rgb(0%,0%,0%);fill-opacity:1;" d="M 139.5 49.25 C 139.5 49.601562 139.726562 49.773438 140.375 49.898438 C 141.648438 50.125 141.476562 50.601562 140.199219 50.398438 C 139.398438 50.273438 139.199219 50.300781 139.398438 50.5 C 139.851562 50.949219 141.601562 50.699219 141.699219 50.175781 C 141.773438 49.875 141.574219 49.699219 141.023438 49.601562 C 139.949219 49.375 139.699219 48.898438 140.726562 49.050781 C 141.148438 49.101562 141.5 49.074219 141.5 48.949219 C 141.5 48.851562 141.050781 48.75 140.5 48.75 C 139.675781 48.75 139.5 48.824219 139.5 49.25 Z M 139.5 49.25 "/>
<path style=" stroke:none;fill-rule:nonzero;fill:rgb(0%,0%,0%);fill-opacity:1;" d="M 114.875 50.5 C 114.800781 50.625 114.898438 50.75 115.125 50.75 C 115.351562 50.75 115.449219 50.625 115.375 50.5 C 115.300781 50.351562 115.175781 50.25 115.125 50.25 C 115.074219 50.25 114.949219 50.351562 114.875 50.5 Z M 114.875 50.5 "/>
<path style=" stroke:none;fill-rule:nonzero;fill:rgb(0%,0%,0%);fill-opacity:1;" d="M 128.125 68.75 C 128.398438 68.875 128.800781 68.976562 129 68.976562 C 129.226562 68.976562 129.199219 68.875 128.875 68.75 C 128.601562 68.625 128.199219 68.523438 128 68.523438 C 127.773438 68.523438 127.800781 68.625 128.125 68.75 Z M 128.125 68.75 "/>
<path style=" stroke:none;fill-rule:nonzero;fill:rgb(0%,0%,0%);fill-opacity:1;" d="M 126.375 69 C 126.050781 69.125 126.023438 69.226562 126.25 69.226562 C 126.449219 69.226562 126.851562 69.125 127.125 69 C 127.449219 68.875 127.476562 68.773438 127.25 68.773438 C 127.050781 68.773438 126.648438 68.875 126.375 69 Z M 126.375 69 "/>
<path style=" stroke:none;fill-rule:nonzero;fill:rgb(0%,0%,0%);fill-opacity:1;" d="M 134.125 70.648438 C 135.898438 71.25 137.476562 71.75 137.625 71.726562 C 137.75 71.726562 136.425781 71.226562 134.625 70.601562 C 132.851562 70 131.273438 69.5 131.125 69.523438 C 131 69.523438 132.324219 70.023438 134.125 70.648438 Z M 134.125 70.648438 "/>
<path style=" stroke:none;fill-rule:nonzero;fill:rgb(0%,0%,0%);fill-opacity:1;" d="M 120.875 70.75 C 119.375 71.273438 118.25 71.726562 118.375 71.726562 C 118.523438 71.75 119.925781 71.300781 121.5 70.773438 C 123.074219 70.226562 124.199219 69.800781 124 69.800781 C 123.800781 69.800781 122.398438 70.226562 120.875 70.75 Z M 120.875 70.75 "/>
<path style=" stroke:none;fill-rule:nonzero;fill:rgb(0%,0%,0%);fill-opacity:1;" d="M 141.875 73.148438 C 143.648438 73.75 145.226562 74.25 145.375 74.226562 C 145.5 74.226562 144.175781 73.726562 142.375 73.101562 C 140.601562 72.5 139.023438 72 138.875 72.023438 C 138.75 72.023438 140.074219 72.523438 141.875 73.148438 Z M 141.875 73.148438 "/>
<path style=" stroke:none;fill-rule:nonzero;fill:rgb(0%,0%,0%);fill-opacity:1;" d="M 113.125 73.25 C 111.625 73.773438 110.5 74.226562 110.625 74.226562 C 110.773438 74.25 112.175781 73.800781 113.75 73.273438 C 115.324219 72.726562 116.449219 72.300781 116.25 72.300781 C 116.050781 72.300781 114.648438 72.726562 113.125 73.25 Z M 113.125 73.25 "/>
<path style=" stroke:none;fill-rule:nonzero;fill:rgb(0%,0%,0%);fill-opacity:1;" d="M 105.375 75.75 C 103.875 76.273438 102.75 76.726562 102.875 76.726562 C 103.023438 76.75 104.425781 76.300781 106 75.773438 C 107.574219 75.226562 108.699219 74.800781 108.5 74.800781 C 108.300781 74.800781 106.898438 75.226562 105.375 75.75 Z M 105.375 75.75 "/>
<path style=" stroke:none;fill-rule:nonzero;fill:rgb(0%,0%,0%);fill-opacity:1;" d="M 147.625 75 C 147.898438 75.125 148.300781 75.226562 148.5 75.226562 C 148.726562 75.226562 148.699219 75.125 148.375 75 C 148.101562 74.875 147.699219 74.773438 147.5 74.773438 C 147.273438 74.773438 147.300781 74.875 147.625 75 Z M 147.625 75 "/>
<path style=" stroke:none;fill-rule:nonzero;fill:rgb(0%,0%,0%);fill-opacity:1;" d="M 151.125 76.125 C 151.976562 76.523438 152.925781 76.648438 152.25 76.273438 C 152.050781 76.148438 151.550781 76 151.125 75.925781 L 150.375 75.773438 Z M 151.125 76.125 "/>
<path style=" stroke:none;fill-rule:nonzero;fill:rgb(0%,0%,0%);fill-opacity:1;" d="M 155.375 77.5 C 155.648438 77.625 156.050781 77.726562 156.25 77.726562 C 156.476562 77.726562 156.449219 77.625 156.125 77.5 C 155.851562 77.375 155.449219 77.273438 155.25 77.273438 C 155.023438 77.273438 155.050781 77.375 155.375 77.5 Z M 155.375 77.5 "/>
<path style=" stroke:none;fill-rule:nonzero;fill:rgb(0%,0%,0%);fill-opacity:1;" d="M 99.125 77.75 C 98.800781 77.875 98.773438 77.976562 99 77.976562 C 99.199219 77.976562 99.601562 77.875 99.875 77.75 C 100.199219 77.625 100.226562 77.523438 100 77.523438 C 99.800781 77.523438 99.398438 77.625 99.125 77.75 Z M 99.125 77.75 "/>
<path style=" stroke:none;fill-rule:nonzero;fill:rgb(0%,0%,0%);fill-opacity:1;" d="M 161.375 79.398438 C 163.148438 80 164.726562 80.5 164.875 80.476562 C 165 80.476562 163.675781 79.976562 161.875 79.351562 C 160.101562 78.75 158.523438 78.25 158.375 78.273438 C 158.25 78.273438 159.574219 78.773438 161.375 79.398438 Z M 161.375 79.398438 "/>
<path style=" stroke:none;fill-rule:nonzero;fill:rgb(0%,0%,0%);fill-opacity:1;" d="M 95.300781 78.925781 C 94.699219 79.125 94.273438 79.351562 94.324219 79.398438 C 94.375 79.449219 95.023438 79.273438 95.773438 79.023438 C 96.523438 78.75 96.949219 78.523438 96.75 78.550781 C 96.550781 78.550781 95.898438 78.699219 95.300781 78.925781 Z M 95.300781 78.925781 "/>
<path style=" stroke:none;fill-rule:nonzero;fill:rgb(0%,0%,0%);fill-opacity:1;" d="M 91.375 80.25 C 91.050781 80.375 91.023438 80.476562 91.25 80.476562 C 91.449219 80.476562 91.851562 80.375 92.125 80.25 C 92.449219 80.125 92.476562 80.023438 92.25 80.023438 C 92.050781 80.023438 91.648438 80.125 91.375 80.25 Z M 91.375 80.25 "/>
<path style=" stroke:none;fill-rule:nonzero;fill:rgb(0%,0%,0%);fill-opacity:1;" d="M 167.824219 81.449219 C 168.875 81.800781 169.75 82.175781 169.75 82.300781 C 169.75 82.398438 169.300781 82.625 168.75 82.773438 C 168.199219 82.949219 167.800781 83.125 167.851562 83.175781 C 167.898438 83.25 168.574219 83.101562 169.351562 82.851562 C 170.125 82.601562 170.675781 82.324219 170.574219 82.226562 C 170.324219 82.023438 166.449219 80.75 166.125 80.773438 C 165.976562 80.773438 166.75 81.101562 167.824219 81.449219 Z M 167.824219 81.449219 "/>
<path style=" stroke:none;fill-rule:nonzero;fill:rgb(0%,0%,0%);fill-opacity:1;" d="M 87.25 81.523438 C 85 82.300781 85.050781 82.273438 86 82.625 C 86.476562 82.824219 87.050781 82.949219 87.25 82.949219 C 87.449219 82.949219 87.324219 82.851562 86.949219 82.699219 C 86.550781 82.574219 86.25 82.375 86.25 82.273438 C 86.25 82.175781 86.949219 81.851562 87.824219 81.574219 C 88.675781 81.273438 89.199219 81.050781 89 81.050781 C 88.800781 81.050781 88 81.25 87.25 81.523438 Z M 87.25 81.523438 "/>
<path style=" stroke:none;fill-rule:nonzero;fill:rgb(0%,0%,0%);fill-opacity:1;" d="M 110 81.25 C 109.449219 81.601562 109.875 81.824219 110.5 81.5 C 111.050781 81.199219 111.75 81.324219 111.75 81.726562 C 111.75 81.851562 111.5 82.023438 111.199219 82.125 L 110.625 82.324219 L 111.199219 82.425781 C 111.5 82.476562 111.75 82.699219 111.75 82.925781 C 111.75 83.226562 111.550781 83.300781 110.75 83.175781 C 109.75 83.050781 109.375 83.300781 110.148438 83.601562 C 110.800781 83.851562 111.625 83.773438 112.125 83.398438 C 112.523438 83.125 112.550781 82.976562 112.300781 82.675781 C 112.125 82.476562 112.074219 82.125 112.148438 81.875 C 112.449219 81.125 110.898438 80.675781 110 81.25 Z M 110 81.25 "/>
<path style=" stroke:none;fill-rule:nonzero;fill:rgb(0%,0%,0%);fill-opacity:1;" d="M 116.5 82.398438 C 116.5 83.398438 116.601562 83.773438 116.824219 83.699219 C 116.976562 83.625 117.148438 83.351562 117.199219 83.050781 C 117.300781 82.351562 117.398438 82.351562 118.550781 83.148438 C 119.574219 83.875 120.25 83.773438 119.25 83.050781 C 118.925781 82.824219 118.523438 82.550781 118.398438 82.425781 C 118.226562 82.300781 118.398438 82 118.875 81.625 C 119.773438 80.875 119.449219 80.800781 118.300781 81.5 C 117.300781 82.101562 117.351562 82.101562 117.175781 81.5 C 116.898438 80.476562 116.5 81 116.5 82.398438 Z M 116.5 82.398438 "/>
<path style=" stroke:none;fill-rule:nonzero;fill:rgb(0%,0%,0%);fill-opacity:1;" d="M 128.5 82.375 L 128.5 83.75 L 130.148438 83.75 C 131.175781 83.75 131.726562 83.648438 131.625 83.5 C 131.550781 83.351562 130.898438 83.25 130.226562 83.25 C 128.648438 83.25 128.648438 82.675781 130.199219 82.550781 C 130.773438 82.5 131.25 82.375 131.25 82.25 C 131.25 82.125 130.875 82.074219 130.449219 82.148438 C 129.601562 82.273438 128.75 81.925781 129.074219 81.574219 C 129.175781 81.476562 129.800781 81.324219 130.449219 81.226562 L 131.625 81.074219 L 130.074219 81.023438 L 128.5 81 Z M 128.5 82.375 "/>
<path style=" stroke:none;fill-rule:nonzero;fill:rgb(0%,0%,0%);fill-opacity:1;" d="M 143.851562 81.398438 C 143.375 81.773438 143.375 81.773438 143.875 81.675781 C 144.148438 81.601562 144.550781 81.5 144.75 81.398438 C 144.949219 81.324219 145.300781 81.375 145.5 81.5 C 145.824219 81.726562 145.773438 81.824219 145.25 82.226562 C 144.375 82.898438 144.726562 83.074219 145.699219 82.449219 C 146.625 81.875 146.699219 81.625 146.023438 81.25 C 145.324219 80.875 144.425781 80.949219 143.851562 81.398438 Z M 143.851562 81.398438 "/>
<path style=" stroke:none;fill-rule:nonzero;fill:rgb(0%,0%,0%);fill-opacity:1;" d="M 141.949219 81.550781 C 141.898438 81.726562 141.898438 82.273438 142 82.75 C 142.101562 83.449219 142.25 83.648438 142.75 83.699219 C 143.324219 83.75 143.351562 83.726562 142.949219 83.425781 C 142.449219 83.023438 142.351562 82.375 142.75 82.125 C 142.949219 82 142.925781 81.851562 142.726562 81.601562 C 142.375 81.175781 142.074219 81.148438 141.949219 81.550781 Z M 141.949219 81.550781 "/>
<path style=" stroke:none;fill-rule:nonzero;fill:rgb(0%,0%,0%);fill-opacity:1;" d="M 120.949219 81.800781 C 120.101562 82.101562 120 83.101562 120.726562 83.5 C 121.351562 83.824219 122.425781 83.824219 122.625 83.5 C 122.726562 83.351562 122.425781 83.25 121.898438 83.25 C 121.398438 83.25 121 83.125 121 83 C 121 82.851562 121.449219 82.75 122 82.75 C 123.175781 82.75 123.398438 82.148438 122.351562 81.75 C 122 81.601562 121.699219 81.5 121.675781 81.523438 C 121.648438 81.523438 121.324219 81.648438 120.949219 81.800781 Z M 122.25 82.25 C 122.25 82.375 122.023438 82.5 121.773438 82.5 C 121.5 82.5 121.199219 82.375 121.125 82.25 C 121.023438 82.101562 121.25 82 121.601562 82 C 121.949219 82 122.25 82.101562 122.25 82.25 Z M 122.25 82.25 "/>
<path style=" stroke:none;fill-rule:nonzero;fill:rgb(0%,0%,0%);fill-opacity:1;" d="M 135.824219 81.75 C 135.101562 82.050781 135.050781 83.125 135.726562 83.5 C 136.351562 83.824219 137.425781 83.824219 137.625 83.5 C 137.726562 83.351562 137.425781 83.25 136.898438 83.25 C 136.398438 83.25 136 83.125 136 83 C 136 82.851562 136.449219 82.75 137 82.75 C 138.175781 82.75 138.398438 82.148438 137.351562 81.75 C 136.601562 81.449219 136.550781 81.449219 135.824219 81.75 Z M 137.25 82.25 C 137.25 82.375 136.976562 82.5 136.625 82.5 C 136.273438 82.5 136 82.375 136 82.25 C 136 82.101562 136.273438 82 136.625 82 C 136.976562 82 137.25 82.101562 137.25 82.25 Z M 137.25 82.25 "/>
<path style=" stroke:none;fill-rule:nonzero;fill:rgb(0%,0%,0%);fill-opacity:1;" d="M 139.449219 81.675781 C 138.824219 81.773438 138.75 81.875 138.75 82.824219 C 138.75 83.925781 139.148438 83.875 139.300781 82.75 C 139.351562 82.273438 139.523438 82.125 140 82.125 C 140.523438 82.125 140.648438 82.25 140.699219 82.925781 C 140.824219 84.101562 141.25 83.949219 141.25 82.75 C 141.25 82.199219 141.148438 81.75 141.023438 81.75 C 140.898438 81.75 140.648438 81.699219 140.449219 81.675781 C 140.273438 81.625 139.824219 81.625 139.449219 81.675781 Z M 139.449219 81.675781 "/>
<path style=" stroke:none;fill-rule:nonzero;fill:rgb(0%,0%,0%);fill-opacity:1;" d="M 123.976562 82.648438 C 124.625 83.75 124.625 83.851562 123.949219 84.199219 L 123.375 84.5 L 124 84.425781 C 124.726562 84.375 126.5 81.949219 125.949219 81.773438 C 125.773438 81.726562 125.601562 81.800781 125.574219 81.925781 C 125.523438 82.074219 125.324219 82.398438 125.148438 82.648438 C 124.800781 83.101562 124.773438 83.101562 124.476562 82.425781 C 124.300781 82.050781 124 81.75 123.800781 81.75 C 123.523438 81.75 123.574219 81.949219 123.976562 82.648438 Z M 123.976562 82.648438 "/>
<path style=" stroke:none;fill-rule:nonzero;fill:rgb(0%,0%,0%);fill-opacity:1;" d="M 132.25 82.023438 C 132.25 82.398438 133.226562 83.75 133.5 83.75 C 133.800781 83.75 134.824219 82 134.648438 81.800781 C 134.550781 81.726562 134.226562 81.949219 133.925781 82.351562 L 133.351562 83.050781 L 133.023438 82.398438 C 132.648438 81.726562 132.25 81.523438 132.25 82.023438 Z M 132.25 82.023438 "/>
<path style=" stroke:none;fill-rule:nonzero;fill:rgb(0%,0%,0%);fill-opacity:1;" d="M 113.375 83.5 C 113.449219 83.625 113.574219 83.75 113.648438 83.75 C 113.699219 83.75 113.75 83.625 113.75 83.5 C 113.75 83.351562 113.625 83.25 113.476562 83.25 C 113.351562 83.25 113.300781 83.351562 113.375 83.5 Z M 113.375 83.5 "/>
<path style=" stroke:none;fill-rule:nonzero;fill:rgb(0%,0%,0%);fill-opacity:1;" d="M 144.625 83.5 C 144.699219 83.625 144.824219 83.75 144.898438 83.75 C 144.949219 83.75 145 83.625 145 83.5 C 145 83.351562 144.875 83.25 144.726562 83.25 C 144.601562 83.25 144.550781 83.351562 144.625 83.5 Z M 144.625 83.5 "/>
<path style=" stroke:none;fill-rule:nonzero;fill:rgb(0%,0%,0%);fill-opacity:1;" d="M 92 84.523438 C 93.574219 85.050781 94.976562 85.5 95.125 85.476562 C 95.25 85.476562 94.074219 85.023438 92.5 84.476562 C 90.925781 83.949219 89.523438 83.5 89.375 83.523438 C 89.25 83.523438 90.425781 83.976562 92 84.523438 Z M 92 84.523438 "/>
<path style=" stroke:none;fill-rule:nonzero;fill:rgb(0%,0%,0%);fill-opacity:1;" d="M 163 84.625 C 161.273438 85.226562 160 85.726562 160.125 85.726562 C 160.273438 85.75 161.851562 85.25 163.625 84.648438 C 165.425781 84.023438 166.699219 83.550781 166.5 83.550781 C 166.300781 83.550781 164.726562 84.023438 163 84.625 Z M 163 84.625 "/>
<path style=" stroke:none;fill-rule:nonzero;fill:rgb(0%,0%,0%);fill-opacity:1;" d="M 97.75 86.375 C 98.226562 86.550781 98.800781 86.699219 99 86.699219 C 99.199219 86.699219 98.976562 86.550781 98.5 86.375 C 98.023438 86.199219 97.449219 86.050781 97.25 86.050781 C 97.050781 86.050781 97.273438 86.199219 97.75 86.375 Z M 97.75 86.375 "/>
<path style=" stroke:none;fill-rule:nonzero;fill:rgb(0%,0%,0%);fill-opacity:1;" d="M 156.75 86.625 C 156.273438 86.800781 156.050781 86.949219 156.25 86.949219 C 156.449219 86.949219 157.023438 86.800781 157.5 86.625 C 157.976562 86.449219 158.199219 86.300781 158 86.300781 C 157.800781 86.300781 157.226562 86.449219 156.75 86.625 Z M 156.75 86.625 "/>
<path style=" stroke:none;fill-rule:nonzero;fill:rgb(0%,0%,0%);fill-opacity:1;" d="M 153.75 87.625 C 152.851562 87.949219 152.25 88.226562 152.398438 88.226562 C 152.726562 88.25 155.75 87.25 155.75 87.101562 C 155.75 86.925781 155.449219 87 153.75 87.625 Z M 153.75 87.625 "/>
<path style=" stroke:none;fill-rule:nonzero;fill:rgb(0%,0%,0%);fill-opacity:1;" d="M 101.625 87.625 C 102.050781 87.824219 102.550781 87.976562 102.75 87.976562 C 102.949219 87.976562 102.726562 87.800781 102.25 87.625 C 101.101562 87.175781 100.648438 87.199219 101.625 87.625 Z M 101.625 87.625 "/>
<path style=" stroke:none;fill-rule:nonzero;fill:rgb(0%,0%,0%);fill-opacity:1;" d="M 105.5 88.875 C 105.976562 89.050781 106.550781 89.199219 106.75 89.199219 C 106.949219 89.199219 106.726562 89.050781 106.25 88.875 C 105.773438 88.699219 105.199219 88.550781 105 88.550781 C 104.800781 88.550781 105.023438 88.699219 105.5 88.875 Z M 105.5 88.875 "/>
<path style=" stroke:none;fill-rule:nonzero;fill:rgb(0%,0%,0%);fill-opacity:1;" d="M 149.375 89 C 149.050781 89.125 149.023438 89.226562 149.25 89.226562 C 149.449219 89.226562 149.851562 89.125 150.125 89 C 150.449219 88.875 150.476562 88.773438 150.25 88.773438 C 150.050781 88.773438 149.648438 88.875 149.375 89 Z M 149.375 89 "/>
<path style=" stroke:none;fill-rule:nonzero;fill:rgb(0%,0%,0%);fill-opacity:1;" d="M 111.5 90.773438 C 113.074219 91.300781 114.476562 91.75 114.625 91.726562 C 114.75 91.726562 113.574219 91.273438 112 90.726562 C 110.425781 90.199219 109.023438 89.75 108.875 89.773438 C 108.75 89.773438 109.925781 90.226562 111.5 90.773438 Z M 111.5 90.773438 "/>
<path style=" stroke:none;fill-rule:nonzero;fill:rgb(0%,0%,0%);fill-opacity:1;" d="M 145.125 90.375 C 144.148438 90.800781 144.601562 90.824219 145.75 90.375 C 146.226562 90.199219 146.449219 90.023438 146.25 90.023438 C 146.050781 90.023438 145.550781 90.175781 145.125 90.375 Z M 145.125 90.375 "/>
<path style=" stroke:none;fill-rule:nonzero;fill:rgb(0%,0%,0%);fill-opacity:1;" d="M 141.625 91.5 C 141.300781 91.625 141.273438 91.726562 141.5 91.726562 C 141.699219 91.726562 142.101562 91.625 142.375 91.5 C 142.699219 91.375 142.726562 91.273438 142.5 91.273438 C 142.300781 91.273438 141.898438 91.375 141.625 91.5 Z M 141.625 91.5 "/>
<path style=" stroke:none;fill-rule:nonzero;fill:rgb(0%,0%,0%);fill-opacity:1;" d="M 119.25 93.273438 C 120.824219 93.800781 122.226562 94.25 122.375 94.226562 C 122.5 94.226562 121.324219 93.773438 119.75 93.226562 C 118.175781 92.699219 116.773438 92.25 116.625 92.273438 C 116.5 92.273438 117.675781 92.726562 119.25 93.273438 Z M 119.25 93.273438 "/>
<path style=" stroke:none;fill-rule:nonzero;fill:rgb(0%,0%,0%);fill-opacity:1;" d="M 135.75 93.375 C 134.023438 93.976562 132.75 94.476562 132.875 94.476562 C 133.023438 94.5 134.601562 94 136.375 93.398438 C 138.175781 92.773438 139.449219 92.300781 139.25 92.300781 C 139.050781 92.300781 137.476562 92.773438 135.75 93.375 Z M 135.75 93.375 "/>
<path style=" stroke:none;fill-rule:nonzero;fill:rgb(0%,0%,0%);fill-opacity:1;" d="M 125.75 95.351562 L 127.375 95.925781 L 127.449219 97.574219 L 127.523438 99.25 L 126.5 99.25 C 125.949219 99.25 125.5 99.300781 125.5 99.375 C 125.5 99.449219 125.898438 100.25 126.398438 101.148438 C 126.898438 102.074219 127.398438 103.101562 127.476562 103.476562 C 127.574219 103.824219 127.824219 104.125 128 104.125 C 128.175781 104.125 128.425781 103.824219 128.523438 103.476562 C 128.601562 103.101562 129.101562 102.074219 129.601562 101.148438 C 130.101562 100.25 130.5 99.449219 130.5 99.375 C 130.5 99.300781 130.050781 99.25 129.5 99.25 L 128.476562 99.25 L 128.550781 97.574219 L 128.625 95.925781 L 129.875 95.476562 C 131.476562 94.898438 131.074219 94.875 129.324219 95.425781 C 128.023438 95.824219 127.949219 95.824219 126.300781 95.300781 C 124.074219 94.574219 123.648438 94.625 125.75 95.351562 Z M 125.75 95.351562 "/>
<path style=" stroke:none;fill-rule:nonzero;fill:rgb(0%,0%,0%);fill-opacity:1;" d="M 86.074219 107.125 C 85.601562 107.324219 85.199219 107.699219 85.125 108.050781 C 85.050781 108.375 85.023438 111.773438 85.050781 115.601562 L 85.125 122.574219 L 85.824219 123.101562 C 86.523438 123.625 86.625 123.625 107.023438 123.699219 L 127.5 123.75 L 127.5 125 C 127.5 125.699219 127.523438 126.324219 127.574219 126.425781 C 127.601562 126.550781 127.148438 126.648438 126.574219 126.699219 L 125.5 126.773438 L 126.425781 128.574219 C 126.925781 129.574219 127.398438 130.648438 127.5 131 C 127.574219 131.351562 127.824219 131.625 128 131.625 C 128.175781 131.625 128.425781 131.351562 128.5 131 C 128.601562 130.648438 129.074219 129.574219 129.574219 128.574219 L 130.5 126.773438 L 129.5 126.699219 C 128.949219 126.648438 128.5 126.550781 128.5 126.425781 C 128.5 126.324219 128.5 125.699219 128.5 125 L 128.5 123.75 L 148.976562 123.699219 C 169.375 123.625 169.476562 123.625 170.175781 123.101562 L 170.875 122.574219 L 170.949219 115.476562 C 171.023438 107.75 170.976562 107.476562 169.675781 107 C 169.175781 106.824219 155.875 106.75 127.898438 106.75 C 93.324219 106.773438 86.75 106.824219 86.074219 107.125 Z M 169.773438 107.5 C 170.226562 107.75 170.25 108.101562 170.25 115.125 C 170.25 122.425781 170.25 122.476562 169.699219 122.851562 C 169.199219 123.199219 164.824219 123.25 128 123.25 C 91.175781 123.25 86.800781 123.199219 86.300781 122.851562 C 85.75 122.476562 85.75 122.425781 85.75 115.125 C 85.75 108.398438 85.773438 107.75 86.199219 107.523438 C 86.800781 107.148438 169.101562 107.148438 169.773438 107.5 Z M 169.773438 107.5 "/>
<path style=" stroke:none;fill-rule:nonzero;fill:rgb(0%,0%,0%);fill-opacity:1;" d="M 115 114.023438 C 113.949219 114.449219 113.675781 115.398438 114.398438 116.101562 C 114.824219 116.550781 116.875 116.648438 117.5 116.25 C 118.050781 115.898438 117.625 115.675781 117 116 C 115.800781 116.648438 114.300781 115.773438 114.898438 114.800781 C 115.226562 114.273438 116.300781 114.125 116.976562 114.476562 C 117.25 114.625 117.523438 114.648438 117.601562 114.523438 C 117.75 114.273438 116.675781 113.75 116.050781 113.773438 C 115.824219 113.773438 115.351562 113.898438 115 114.023438 Z M 115 114.023438 "/>
<path style=" stroke:none;fill-rule:nonzero;fill:rgb(0%,0%,0%);fill-opacity:1;" d="M 132 115.101562 C 132 116.199219 132.074219 116.5 132.398438 116.5 C 132.699219 116.5 132.75 116.25 132.699219 115.199219 C 132.601562 113.351562 132 113.273438 132 115.101562 Z M 132 115.101562 "/>
<path style=" stroke:none;fill-rule:nonzero;fill:rgb(0%,0%,0%);fill-opacity:1;" d="M 108.050781 114.824219 C 107.601562 115.273438 107.25 115.726562 107.25 115.824219 C 107.25 115.925781 107.648438 116 108.125 116 C 108.601562 116 109 116.101562 109 116.25 C 109 116.625 109.476562 116.550781 109.898438 116.125 C 110.125 115.925781 110.175781 115.75 110.023438 115.75 C 109.875 115.75 109.75 115.351562 109.75 114.875 C 109.75 113.726562 109.125 113.699219 108.050781 114.824219 Z M 109.074219 115.25 C 109 115.523438 108.726562 115.75 108.476562 115.75 C 107.875 115.75 107.875 115.523438 108.449219 115.101562 C 109.050781 114.625 109.226562 114.675781 109.074219 115.25 Z M 109.074219 115.25 "/>
<path style=" stroke:none;fill-rule:nonzero;fill:rgb(0%,0%,0%);fill-opacity:1;" d="M 135.175781 114.175781 C 135.074219 114.25 135 114.824219 135 115.425781 L 135 116.5 L 136.449219 116.449219 C 137.675781 116.425781 137.726562 116.398438 136.824219 116.324219 L 135.75 116.226562 L 135.75 115.101562 C 135.75 114.074219 135.574219 113.773438 135.175781 114.175781 Z M 135.175781 114.175781 "/>
<path style=" stroke:none;fill-rule:nonzero;fill:rgb(0%,0%,0%);fill-opacity:1;" d="M 125.050781 115.300781 C 125.125 116.226562 125.199219 116.375 125.75 116.449219 C 126.199219 116.5 126.273438 116.449219 126.023438 116.300781 C 125.773438 116.125 125.726562 115.800781 125.851562 115.148438 C 126 114.351562 125.976562 114.25 125.5 114.25 C 125.023438 114.25 124.976562 114.375 125.050781 115.300781 Z M 125.050781 115.300781 "/>
<path style=" stroke:none;fill-rule:nonzero;fill:rgb(0%,0%,0%);fill-opacity:1;" d="M 118.550781 114.800781 C 118.148438 115.199219 118.175781 115.875 118.601562 116.226562 C 119.101562 116.648438 120.773438 116.476562 121.101562 115.949219 C 121.699219 114.976562 119.398438 113.949219 118.550781 114.800781 Z M 120.25 115.125 C 120.699219 115.648438 120.375 116.25 119.625 116.25 C 118.625 116.25 118.773438 114.898438 119.773438 114.773438 C 119.875 114.75 120.074219 114.925781 120.25 115.125 Z M 120.25 115.125 "/>
<path style=" stroke:none;fill-rule:nonzero;fill:rgb(0%,0%,0%);fill-opacity:1;" d="M 121.75 115.476562 C 121.75 116.226562 121.851562 116.5 122.125 116.5 C 122.375 116.5 122.5 116.25 122.5 115.773438 C 122.5 115.375 122.648438 115 122.824219 114.925781 C 123.398438 114.726562 123.75 115.050781 123.75 115.773438 C 123.75 116.175781 123.875 116.5 124.023438 116.5 C 124.175781 116.5 124.25 116.101562 124.199219 115.550781 C 124.125 114.625 124.125 114.625 122.949219 114.550781 L 121.75 114.476562 Z M 121.75 115.476562 "/>
<path style=" stroke:none;fill-rule:nonzero;fill:rgb(0%,0%,0%);fill-opacity:1;" d="M 126.75 115.523438 C 126.75 116.074219 126.875 116.5 127 116.5 C 127.148438 116.5 127.25 116.226562 127.25 115.875 C 127.25 115.523438 127.425781 115.175781 127.625 115.101562 C 128.199219 114.875 128.074219 114.550781 127.375 114.550781 C 126.824219 114.550781 126.75 114.675781 126.75 115.523438 Z M 126.75 115.523438 "/>
<path style=" stroke:none;fill-rule:nonzero;fill:rgb(0%,0%,0%);fill-opacity:1;" d="M 128.898438 114.898438 C 128.074219 115.699219 128.625 116.5 130 116.5 C 130.976562 116.5 131.5 116.148438 131.5 115.449219 C 131.5 114.574219 129.625 114.148438 128.898438 114.898438 Z M 130.449219 114.976562 C 131.023438 115.324219 130.699219 116.125 130 116.125 C 129.601562 116.125 129.351562 115.976562 129.300781 115.648438 C 129.226562 115.25 129.601562 114.75 130 114.75 C 130.074219 114.75 130.273438 114.851562 130.449219 114.976562 Z M 130.449219 114.976562 "/>
<path style=" stroke:none;fill-rule:nonzero;fill:rgb(0%,0%,0%);fill-opacity:1;" d="M 138.5 114.851562 C 138.351562 115.050781 138.25 115.476562 138.300781 115.800781 C 138.375 116.300781 138.550781 116.375 139.550781 116.449219 C 140.5 116.5 140.773438 116.425781 140.976562 116.050781 C 141.375 115.324219 140.675781 114.5 139.648438 114.5 C 139.175781 114.5 138.675781 114.675781 138.5 114.851562 Z M 140.199219 115.574219 C 140.273438 116.148438 140.199219 116.25 139.625 116.25 C 138.875 116.25 138.550781 115.648438 139 115.101562 C 139.476562 114.550781 140.125 114.773438 140.199219 115.574219 Z M 140.199219 115.574219 "/>
<path style=" stroke:none;fill-rule:nonzero;fill:rgb(0%,0%,0%);fill-opacity:1;" d="M 141.75 114.875 C 141.601562 115.074219 141.5 115.476562 141.550781 115.800781 C 141.601562 116.273438 141.800781 116.398438 142.574219 116.449219 C 143.074219 116.5 143.5 116.648438 143.5 116.800781 C 143.5 116.976562 143.175781 117 142.625 116.925781 C 142.148438 116.851562 141.75 116.875 141.75 117 C 141.75 117.398438 143 117.574219 143.648438 117.273438 C 144.175781 117.050781 144.25 116.851562 144.25 115.800781 L 144.25 114.601562 L 143.148438 114.550781 C 142.449219 114.523438 141.949219 114.648438 141.75 114.875 Z M 143.449219 115.601562 C 143.398438 115.925781 143.148438 116.148438 142.824219 116.199219 C 142.351562 116.273438 142.25 116.175781 142.25 115.675781 C 142.25 115.324219 142.398438 115 142.574219 114.925781 C 143.125 114.75 143.523438 115.050781 143.449219 115.601562 Z M 143.449219 115.601562 "/>
<path style=" stroke:none;fill-rule:nonzero;fill:rgb(0%,0%,0%);fill-opacity:1;" d="M 145 115.5 C 145 116.050781 145.125 116.5 145.25 116.5 C 145.398438 116.5 145.5 116.050781 145.5 115.5 C 145.5 114.949219 145.398438 114.5 145.25 114.5 C 145.125 114.5 145 114.949219 145 115.5 Z M 145 115.5 "/>
<path style=" stroke:none;fill-rule:nonzero;fill:rgb(0%,0%,0%);fill-opacity:1;" d="M 146.550781 114.699219 C 146.351562 114.824219 146.25 115.25 146.300781 115.648438 C 146.375 116.300781 146.476562 116.375 147.351562 116.449219 C 147.875 116.5 148.425781 116.425781 148.574219 116.273438 C 148.773438 116.074219 148.550781 116.023438 147.851562 116.074219 C 147.023438 116.125 146.875 116.050781 146.800781 115.601562 C 146.699219 114.949219 147.351562 114.648438 148.050781 115.023438 C 148.449219 115.25 148.523438 115.226562 148.449219 114.949219 C 148.324219 114.574219 147.023438 114.398438 146.550781 114.699219 Z M 146.550781 114.699219 "/>
<path style=" stroke:none;fill-rule:nonzero;fill:rgb(0%,0%,0%);fill-opacity:1;" d="M 86.273438 134.523438 C 85.050781 135.023438 85.023438 135.148438 85 142.648438 C 85 149.351562 85.023438 149.675781 85.5 150.199219 C 85.800781 150.5 86.050781 150.773438 86.074219 150.800781 C 86.101562 150.851562 95.449219 150.925781 106.851562 151 L 127.574219 151.125 L 127.574219 154.125 L 126.523438 154.199219 L 125.476562 154.273438 L 126.5 156.148438 C 127.050781 157.148438 127.5 158.226562 127.5 158.5 C 127.5 158.824219 127.675781 159 128 159 C 128.324219 159 128.5 158.824219 128.5 158.5 C 128.5 158.226562 128.949219 157.148438 129.5 156.148438 L 130.523438 154.273438 L 129.476562 154.199219 L 128.425781 154.125 L 128.425781 151.125 L 149.148438 151 C 160.550781 150.925781 169.898438 150.851562 169.925781 150.800781 C 169.949219 150.773438 170.199219 150.5 170.5 150.199219 C 170.976562 149.675781 171 149.351562 171 142.648438 C 170.976562 135.074219 170.976562 135 169.648438 134.5 C 168.75 134.175781 87.125 134.175781 86.273438 134.523438 Z M 169.5 134.824219 L 170.125 135.148438 L 170.125 150.101562 L 169.5 150.425781 C 169 150.675781 160.449219 150.75 128 150.75 C 95.550781 150.75 87 150.675781 86.5 150.425781 L 85.875 150.101562 L 85.875 135.148438 L 86.5 134.824219 C 87 134.574219 95.550781 134.5 128 134.5 C 160.449219 134.5 169 134.574219 169.5 134.824219 Z M 169.5 134.824219 "/>
<path style=" stroke:none;fill-rule:nonzero;fill:rgb(0%,0%,0%);fill-opacity:1;" d="M 104.273438 141.800781 C 103.976562 142.601562 104.125 142.75 105.273438 142.75 C 106.101562 142.75 106.273438 142.824219 106.199219 143.175781 C 106.125 143.550781 105.875 143.601562 105 143.550781 C 104.175781 143.5 103.976562 143.574219 104.25 143.75 C 104.824219 144.125 106.175781 144.050781 106.601562 143.601562 C 106.824219 143.398438 107 143.175781 107 143.125 C 107 142.773438 106.074219 142.25 105.476562 142.25 C 105.023438 142.25 104.773438 142.148438 104.875 142 C 104.949219 141.851562 105.351562 141.75 105.773438 141.75 C 106.175781 141.75 106.5 141.625 106.5 141.5 C 106.5 141.351562 106.050781 141.25 105.5 141.25 C 104.675781 141.25 104.449219 141.351562 104.273438 141.800781 Z M 104.273438 141.800781 "/>
<path style=" stroke:none;fill-rule:nonzero;fill:rgb(0%,0%,0%);fill-opacity:1;" d="M 111.074219 142.449219 C 110.625 143.101562 110.25 143.726562 110.25 143.824219 C 110.25 144.148438 110.949219 144 111.101562 143.625 C 111.273438 143.125 112.726562 143.148438 113.300781 143.675781 C 114.050781 144.351562 114.074219 143.875 113.351562 142.699219 C 112.726562 141.699219 112.324219 141.273438 112 141.25 C 111.925781 141.25 111.5 141.773438 111.074219 142.449219 Z M 112.476562 142.351562 C 112.699219 142.601562 112.699219 142.75 112.5 142.875 C 112.074219 143.148438 111.5 142.800781 111.648438 142.375 C 111.851562 141.898438 112.101562 141.898438 112.476562 142.351562 Z M 112.476562 142.351562 "/>
<path style=" stroke:none;fill-rule:nonzero;fill:rgb(0%,0%,0%);fill-opacity:1;" d="M 119.75 141.601562 C 119.75 141.851562 119.449219 142 118.824219 142.050781 C 117.925781 142.125 117.875 142.175781 117.875 143 L 117.875 143.875 L 120.375 143.875 L 120.375 142.648438 C 120.375 141.875 120.25 141.375 120.074219 141.300781 C 119.898438 141.25 119.75 141.375 119.75 141.601562 Z M 119.625 143 C 119.625 143.449219 119.476562 143.648438 119.050781 143.699219 C 118.726562 143.75 118.425781 143.625 118.351562 143.398438 C 118.101562 142.75 118.449219 142.199219 119.050781 142.300781 C 119.476562 142.351562 119.625 142.550781 119.625 143 Z M 119.625 143 "/>
<path style=" stroke:none;fill-rule:nonzero;fill:rgb(0%,0%,0%);fill-opacity:1;" d="M 128.125 141.550781 C 126.550781 142.449219 127.324219 144 129.351562 144 C 130.773438 144 131.25 143.800781 131.25 143.25 C 131.25 142.773438 130.101562 142.398438 129.851562 142.773438 C 129.773438 142.898438 129.898438 143 130.125 143 C 130.800781 143 130.398438 143.625 129.675781 143.699219 C 128.824219 143.800781 128 143.351562 128 142.773438 C 128 142 128.648438 141.675781 129.875 141.800781 C 131.050781 141.949219 131.425781 141.675781 130.449219 141.398438 C 129.574219 141.175781 128.675781 141.226562 128.125 141.550781 Z M 128.125 141.550781 "/>
<path style=" stroke:none;fill-rule:nonzero;fill:rgb(0%,0%,0%);fill-opacity:1;" d="M 140.25 141.476562 C 140.25 141.601562 140.5 141.75 140.824219 141.800781 C 141.273438 141.851562 141.398438 142.050781 141.449219 142.925781 C 141.550781 144.351562 142 144.300781 142 142.875 C 142 141.851562 142.050781 141.75 142.625 141.75 C 142.976562 141.75 143.25 141.625 143.25 141.5 C 143.25 141.351562 142.574219 141.25 141.75 141.25 C 140.925781 141.25 140.25 141.351562 140.25 141.476562 Z M 140.25 141.476562 "/>
<path style=" stroke:none;fill-rule:nonzero;fill:rgb(0%,0%,0%);fill-opacity:1;" d="M 149.5 142.625 C 149.5 143.675781 149.574219 144 149.875 144 C 150.074219 144 150.25 143.824219 150.25 143.625 C 150.25 143.148438 150.476562 143.148438 151.101562 143.625 C 151.875 144.199219 152.148438 144.074219 151.523438 143.425781 C 151.050781 142.875 151.023438 142.800781 151.375 142.5 C 151.976562 142 151.625 141.898438 150.898438 142.375 L 150.25 142.800781 L 150.25 142.023438 C 150.25 141.5 150.125 141.25 149.875 141.25 C 149.574219 141.25 149.5 141.574219 149.5 142.625 Z M 149.5 142.625 "/>
<path style=" stroke:none;fill-rule:nonzero;fill:rgb(0%,0%,0%);fill-opacity:1;" d="M 114.550781 142.925781 C 114.625 143.875 114.625 143.875 115.824219 143.949219 L 117 144.023438 L 117 143.023438 C 117 141.800781 116.574219 141.648438 116.449219 142.800781 C 116.324219 144.226562 115.023438 144 115 142.550781 C 115 142.25 114.875 142 114.726562 142 C 114.574219 142 114.5 142.398438 114.550781 142.925781 Z M 114.550781 142.925781 "/>
<path style=" stroke:none;fill-rule:nonzero;fill:rgb(0%,0%,0%);fill-opacity:1;" d="M 121.101562 142.351562 C 120.898438 142.898438 121.074219 143.824219 121.449219 143.949219 C 121.648438 144 121.75 143.726562 121.75 143.023438 C 121.75 142.023438 121.375 141.648438 121.101562 142.351562 Z M 121.101562 142.351562 "/>
<path style=" stroke:none;fill-rule:nonzero;fill:rgb(0%,0%,0%);fill-opacity:1;" d="M 122.5 142.5 C 122.050781 143.351562 122.601562 144 123.75 144 C 124.476562 144 124.800781 143.875 125 143.5 C 125.449219 142.648438 124.898438 142 123.75 142 C 123.023438 142 122.699219 142.125 122.5 142.5 Z M 124.375 143 C 124.375 143.449219 124.226562 143.648438 123.800781 143.699219 C 123.199219 143.800781 122.851562 143.25 123.101562 142.601562 C 123.175781 142.375 123.476562 142.25 123.800781 142.300781 C 124.226562 142.351562 124.375 142.550781 124.375 143 Z M 124.375 143 "/>
<path style=" stroke:none;fill-rule:nonzero;fill:rgb(0%,0%,0%);fill-opacity:1;" d="M 132.101562 142.625 C 132 143 132.074219 143.425781 132.25 143.625 C 132.601562 144.050781 134.125 144.148438 134.375 143.773438 C 134.449219 143.625 134.148438 143.601562 133.601562 143.675781 C 132.875 143.800781 132.699219 143.75 132.800781 143.476562 C 132.851562 143.273438 133.324219 143.101562 133.824219 143.050781 C 135.351562 142.925781 134.800781 142 133.199219 142 C 132.398438 142 132.226562 142.101562 132.101562 142.625 Z M 133.875 142.5 C 133.976562 142.648438 133.75 142.75 133.398438 142.75 C 133.050781 142.75 132.75 142.625 132.75 142.5 C 132.75 142.351562 132.976562 142.25 133.226562 142.25 C 133.5 142.25 133.800781 142.351562 133.875 142.5 Z M 133.875 142.5 "/>
<path style=" stroke:none;fill-rule:nonzero;fill:rgb(0%,0%,0%);fill-opacity:1;" d="M 135.351562 142.351562 C 135.148438 142.898438 135.324219 143.824219 135.675781 143.925781 C 135.851562 144 136 143.699219 136.050781 143.199219 C 136.101562 142.574219 136.25 142.351562 136.675781 142.300781 C 137.125 142.226562 137.226562 142.351562 137.300781 143.023438 C 137.351562 143.476562 137.523438 143.875 137.699219 143.949219 C 137.949219 144.023438 138 143.800781 137.949219 143.101562 C 137.875 142.125 137.875 142.125 136.675781 142.050781 C 135.800781 142 135.449219 142.074219 135.351562 142.351562 Z M 135.351562 142.351562 "/>
<path style=" stroke:none;fill-rule:nonzero;fill:rgb(0%,0%,0%);fill-opacity:1;" d="M 143.5 142.226562 C 143.5 142.375 143.800781 142.425781 144.25 142.324219 C 144.726562 142.25 145 142.300781 145 142.476562 C 145 142.625 144.773438 142.75 144.476562 142.75 C 143.699219 142.75 143 143.199219 143.148438 143.625 C 143.25 143.898438 143.699219 143.976562 144.773438 143.976562 C 145.875 143.949219 146.199219 143.875 146.023438 143.648438 C 145.898438 143.5 145.75 143.101562 145.699219 142.75 C 145.625 142.199219 145.476562 142.125 144.574219 142.050781 C 143.949219 142 143.5 142.074219 143.5 142.226562 Z M 145 143.375 C 145 143.601562 144.773438 143.75 144.375 143.75 C 143.726562 143.75 143.523438 143.375 144.074219 143.175781 C 144.648438 142.925781 145 143 145 143.375 Z M 145 143.375 "/>
<path style=" stroke:none;fill-rule:nonzero;fill:rgb(0%,0%,0%);fill-opacity:1;" d="M 146.625 142.25 C 146.375 142.648438 146.699219 142.949219 147.5 143.125 C 148.601562 143.375 148.449219 143.851562 147.324219 143.675781 C 146.699219 143.574219 146.5 143.601562 146.675781 143.773438 C 146.824219 143.925781 147.375 144 147.898438 143.949219 C 149.125 143.851562 149.226562 143.226562 148.074219 142.875 C 147.050781 142.574219 147 142.125 148 142.324219 C 148.425781 142.425781 148.75 142.375 148.75 142.25 C 148.75 141.925781 146.824219 141.925781 146.625 142.25 Z M 146.625 142.25 "/>
<path style=" stroke:none;fill-rule:nonzero;fill:rgb(0%,0%,0%);fill-opacity:1;" d="M 107.699219 143.925781 C 107.875 144 108.101562 143.976562 108.175781 143.898438 C 108.273438 143.824219 108.125 143.75 107.851562 143.773438 C 107.574219 143.773438 107.5 143.851562 107.699219 143.925781 Z M 107.699219 143.925781 "/>
<path style=" stroke:none;fill-rule:nonzero;fill:rgb(0%,0%,0%);fill-opacity:1;" d="M 107.675781 161.925781 C 118.851562 161.976562 137.148438 161.976562 148.300781 161.925781 C 159.476562 161.898438 150.351562 161.875 128 161.875 C 105.648438 161.875 96.523438 161.898438 107.675781 161.925781 Z M 107.675781 161.925781 "/>
<path style=" stroke:none;fill-rule:nonzero;fill:rgb(0%,0%,0%);fill-opacity:1;" d="M 85.351562 170.125 C 85.351562 173.976562 85.398438 175.523438 85.425781 173.550781 C 85.476562 171.574219 85.476562 168.425781 85.425781 166.550781 C 85.398438 164.675781 85.351562 166.273438 85.351562 170.125 Z M 85.351562 170.125 "/>
<path style=" stroke:none;fill-rule:nonzero;fill:rgb(0%,0%,0%);fill-opacity:1;" d="M 170.601562 170.125 C 170.601562 173.976562 170.648438 175.523438 170.675781 173.550781 C 170.726562 171.574219 170.726562 168.425781 170.675781 166.550781 C 170.648438 164.675781 170.601562 166.273438 170.601562 170.125 Z M 170.601562 170.125 "/>
<path style=" stroke:none;fill-rule:nonzero;fill:rgb(0%,0%,0%);fill-opacity:1;" d="M 102.550781 169.148438 C 102.25 169.351562 102 169.773438 102 170.101562 C 102 171.300781 103.601562 171.925781 104.523438 171.101562 C 105.226562 170.476562 104.726562 169.75 103.625 169.75 C 103.148438 169.75 102.75 169.648438 102.75 169.523438 C 102.75 169.199219 103.5 168.976562 104.074219 169.148438 C 104.398438 169.25 104.5 169.199219 104.398438 169.023438 C 104.148438 168.625 103.199219 168.675781 102.550781 169.148438 Z M 104.148438 170.273438 C 104.375 170.675781 103.648438 171.300781 103.175781 171.101562 C 102.75 170.949219 102.625 170.476562 102.925781 170.175781 C 103.175781 169.898438 103.949219 169.976562 104.148438 170.273438 Z M 104.148438 170.273438 "/>
<path style=" stroke:none;fill-rule:nonzero;fill:rgb(0%,0%,0%);fill-opacity:1;" d="M 109.324219 169.050781 C 108.550781 169.425781 108.550781 170.574219 109.300781 171.101562 C 110.523438 171.976562 112.75 171.324219 112.75 170.125 C 112.75 168.976562 110.773438 168.351562 109.324219 169.050781 Z M 111.773438 169.449219 C 112.449219 170.023438 112.300781 170.648438 111.375 171 C 110.625 171.273438 109.550781 170.949219 109.324219 170.351562 C 109.148438 169.851562 110.050781 169 110.75 169 C 111 169 111.449219 169.199219 111.773438 169.449219 Z M 111.773438 169.449219 "/>
<path style=" stroke:none;fill-rule:nonzero;fill:rgb(0%,0%,0%);fill-opacity:1;" d="M 129.074219 168.949219 C 128.648438 169.226562 128.25 170.425781 128.425781 170.925781 C 128.625 171.5 129.273438 172.25 129.550781 172.25 C 129.675781 172.25 129.601562 172 129.398438 171.699219 C 129.175781 171.398438 129 170.851562 129 170.5 C 129 170.148438 129.175781 169.601562 129.398438 169.300781 C 129.773438 168.75 129.648438 168.601562 129.074219 168.949219 Z M 129.074219 168.949219 "/>
<path style=" stroke:none;fill-rule:nonzero;fill:rgb(0%,0%,0%);fill-opacity:1;" d="M 130.773438 168.976562 C 130.175781 169.351562 130.675781 169.949219 131.773438 170.175781 C 132.351562 170.300781 132.875 170.523438 132.925781 170.675781 C 133.074219 171.125 131.898438 171.351562 131.25 171 C 130.625 170.675781 130.199219 170.898438 130.75 171.25 C 131.300781 171.601562 132.851562 171.550781 133.375 171.148438 C 134.050781 170.675781 133.523438 170.101562 132.226562 169.875 C 131.699219 169.773438 131.199219 169.601562 131.125 169.476562 C 130.898438 169.125 132.074219 168.949219 132.824219 169.226562 C 133.199219 169.375 133.5 169.398438 133.5 169.273438 C 133.5 168.773438 131.449219 168.550781 130.773438 168.976562 Z M 130.773438 168.976562 "/>
<path style=" stroke:none;fill-rule:nonzero;fill:rgb(0%,0%,0%);fill-opacity:1;" d="M 144.25 170.125 C 144.25 171.5 144.523438 171.875 144.949219 171.074219 C 145.175781 170.675781 145.25 170.675781 145.875 171.101562 C 146.726562 171.675781 147 171.425781 146.226562 170.773438 C 145.625 170.273438 145.625 170.273438 146.125 169.875 C 146.625 169.449219 146.476562 169.449219 145.375 169.898438 C 145.101562 170.023438 145 169.875 145 169.398438 C 145 169 144.851562 168.75 144.625 168.75 C 144.324219 168.75 144.25 169.074219 144.25 170.125 Z M 144.25 170.125 "/>
<path style=" stroke:none;fill-rule:nonzero;fill:rgb(0%,0%,0%);fill-opacity:1;" d="M 152.851562 169.300781 C 153.375 170.023438 153.351562 170.851562 152.824219 171.675781 C 152.398438 172.324219 152.398438 172.324219 152.949219 172.023438 C 154.023438 171.449219 154.175781 170.199219 153.300781 169.175781 C 152.75 168.550781 152.398438 168.648438 152.851562 169.300781 Z M 152.851562 169.300781 "/>
<path style=" stroke:none;fill-rule:nonzero;fill:rgb(0%,0%,0%);fill-opacity:1;" d="M 116.851562 169.25 C 116.699219 169.398438 116.648438 169.925781 116.726562 170.449219 C 116.851562 171.199219 117 171.398438 117.5 171.449219 C 117.949219 171.5 118.023438 171.449219 117.800781 171.300781 C 117.601562 171.175781 117.476562 170.75 117.5 170.351562 C 117.601562 168.976562 117.425781 168.675781 116.851562 169.25 Z M 116.851562 169.25 "/>
<path style=" stroke:none;fill-rule:nonzero;fill:rgb(0%,0%,0%);fill-opacity:1;" d="M 125.101562 169.324219 C 125.023438 169.523438 125 170.074219 125.050781 170.550781 C 125.101562 171.199219 125.25 171.398438 125.75 171.449219 C 126.273438 171.523438 126.300781 171.5 126.023438 171.175781 C 125.851562 170.949219 125.75 170.425781 125.800781 169.976562 C 125.875 169.148438 125.375 168.648438 125.101562 169.324219 Z M 125.101562 169.324219 "/>
<path style=" stroke:none;fill-rule:nonzero;fill:rgb(0%,0%,0%);fill-opacity:1;" d="M 119.199219 169.449219 C 118.523438 169.523438 118.5 169.601562 118.5 170.898438 C 118.5 171.648438 118.625 172.25 118.75 172.25 C 118.898438 172.25 119 172.074219 119 171.875 C 119 171.625 119.25 171.5 119.699219 171.5 C 120.625 171.5 121.449219 170.648438 121.101562 170.074219 C 120.773438 169.574219 120.074219 169.324219 119.199219 169.449219 Z M 120.398438 170.125 C 120.574219 170.574219 120.074219 171.25 119.574219 171.25 C 119.148438 171.25 118.898438 170.648438 119.101562 170.125 C 119.273438 169.625 120.226562 169.648438 120.398438 170.125 Z M 120.398438 170.125 "/>
<path style=" stroke:none;fill-rule:nonzero;fill:rgb(0%,0%,0%);fill-opacity:1;" d="M 135.050781 169.449219 L 134.226562 169.523438 L 134.300781 170.800781 C 134.351562 171.550781 134.5 172.125 134.699219 172.199219 C 134.875 172.25 135 172.074219 135 171.824219 C 135 171.425781 135.148438 171.351562 135.699219 171.449219 C 136.523438 171.550781 137.074219 171.023438 136.949219 170.226562 C 136.851562 169.601562 136.226562 169.324219 135.050781 169.449219 Z M 136.398438 170.125 C 136.574219 170.574219 136.074219 171.25 135.574219 171.25 C 135.148438 171.25 134.898438 170.648438 135.101562 170.125 C 135.273438 169.625 136.226562 169.648438 136.398438 170.125 Z M 136.398438 170.125 "/>
<path style=" stroke:none;fill-rule:nonzero;fill:rgb(0%,0%,0%);fill-opacity:1;" d="M 138.226562 169.601562 C 137.476562 169.949219 137.351562 170.574219 137.875 171.101562 C 138.351562 171.574219 139.625 171.625 139.898438 171.199219 C 140.023438 171 139.949219 170.976562 139.625 171.101562 C 139.101562 171.300781 138.25 171.074219 138.25 170.726562 C 138.25 170.601562 138.699219 170.5 139.273438 170.5 C 140.074219 170.5 140.273438 170.425781 140.199219 170.074219 C 140.101562 169.523438 138.949219 169.226562 138.226562 169.601562 Z M 139.5 170 C 139.5 170.125 139.226562 170.25 138.875 170.25 C 138.523438 170.25 138.25 170.125 138.25 170 C 138.25 169.851562 138.523438 169.75 138.875 169.75 C 139.226562 169.75 139.5 169.851562 139.5 170 Z M 139.5 170 "/>
<path style=" stroke:none;fill-rule:nonzero;fill:rgb(0%,0%,0%);fill-opacity:1;" d="M 141.699219 169.425781 C 140.949219 169.625 141.199219 169.925781 142 169.800781 C 142.675781 169.699219 142.75 169.75 142.75 170.351562 C 142.75 171.074219 142.125 171.476562 141.699219 171.050781 C 141.5 170.851562 141.574219 170.699219 142.023438 170.523438 L 142.625 170.273438 L 141.976562 170.273438 C 141.601562 170.25 141.175781 170.398438 141.023438 170.601562 C 140.574219 171.125 141.226562 171.476562 142.550781 171.425781 C 143.699219 171.375 143.699219 171.375 143.574219 170.625 C 143.5 170.226562 143.375 169.800781 143.273438 169.726562 C 143.023438 169.449219 142.175781 169.300781 141.699219 169.425781 Z M 141.699219 169.425781 "/>
<path style=" stroke:none;fill-rule:nonzero;fill:rgb(0%,0%,0%);fill-opacity:1;" d="M 148 169.5 C 147.300781 169.675781 147.023438 170.550781 147.5 171.148438 C 147.851562 171.550781 149.398438 171.625 149.625 171.25 C 149.726562 171.101562 149.476562 171.023438 148.976562 171.050781 C 148.523438 171.101562 148.125 171 148.074219 170.800781 C 148 170.601562 148.25 170.5 148.851562 170.5 C 149.75 170.5 150.074219 170.273438 149.800781 169.851562 C 149.550781 169.476562 148.726562 169.324219 148 169.5 Z M 149.25 170 C 149.25 170.125 148.976562 170.25 148.625 170.25 C 148.273438 170.25 148 170.125 148 170 C 148 169.851562 148.273438 169.75 148.625 169.75 C 148.976562 169.75 149.25 169.851562 149.25 170 Z M 149.25 170 "/>
<path style=" stroke:none;fill-rule:nonzero;fill:rgb(0%,0%,0%);fill-opacity:1;" d="M 113.550781 170.425781 C 113.625 171.375 113.625 171.375 114.824219 171.398438 L 116 171.449219 L 116 170.476562 C 116 169.949219 115.898438 169.5 115.75 169.5 C 115.625 169.5 115.5 169.773438 115.5 170.101562 C 115.5 170.425781 115.351562 170.824219 115.148438 170.976562 C 114.601562 171.425781 114 171.023438 114 170.226562 C 114 169.824219 113.875 169.5 113.726562 169.5 C 113.574219 169.5 113.5 169.898438 113.550781 170.425781 Z M 113.550781 170.425781 "/>
<path style=" stroke:none;fill-rule:nonzero;fill:rgb(0%,0%,0%);fill-opacity:1;" d="M 121.800781 170.425781 C 121.875 171.375 121.875 171.375 123.074219 171.398438 L 124.25 171.425781 L 124.25 170.449219 C 124.25 169.925781 124.148438 169.5 124 169.5 C 123.875 169.5 123.75 169.773438 123.75 170.101562 C 123.75 170.925781 123.125 171.425781 122.625 171 C 122.425781 170.824219 122.25 170.425781 122.25 170.101562 C 122.25 169.773438 122.125 169.5 121.976562 169.5 C 121.824219 169.5 121.75 169.898438 121.800781 170.425781 Z M 121.800781 170.425781 "/>
<path style=" stroke:none;fill-rule:nonzero;fill:rgb(0%,0%,0%);fill-opacity:1;" d="M 150.550781 170.425781 C 150.625 171.449219 151.074219 171.625 151.199219 170.699219 C 151.25 170.375 151.476562 169.976562 151.699219 169.800781 C 152.050781 169.550781 151.976562 169.5 151.273438 169.5 C 150.5 169.5 150.476562 169.523438 150.550781 170.425781 Z M 150.550781 170.425781 "/>
<path style=" stroke:none;fill-rule:nonzero;fill:rgb(0%,0%,0%);fill-opacity:1;" d="M 105.75 171.25 C 105.75 171.375 105.875 171.5 106 171.5 C 106.148438 171.5 106.25 171.375 106.25 171.25 C 106.25 171.101562 106.148438 171 106 171 C 105.875 171 105.75 171.101562 105.75 171.25 Z M 105.75 171.25 "/>
</g>
</svg>
