<svg xmlns="http://www.w3.org/2000/svg" width="1147" height="860" viewBox="0 0 1147 860">
<rect width="100%" height="100%" fill="white"/>
<rect x="8" y="8" width="1131" height="844" fill="none" stroke="#d31b2b" stroke-width="1"/>
<line x1="903.74" y1="87.24" x2="1020.54" y2="87.24" stroke="#d31b2b" stroke-width="1.52" stroke-linecap="round"/>
<line x1="1020.54" y1="87.24" x2="1020.54" y2="276.15" stroke="#d31b2b" stroke-width="1.52" stroke-linecap="round"/>
<line x1="1020.54" y1="276.15" x2="903.74" y2="276.15" stroke="#d31b2b" stroke-width="1.52" stroke-linecap="round"/>
<line x1="903.74" y1="276.15" x2="903.74" y2="87.24" stroke="#d31b2b" stroke-width="1.52" stroke-linecap="round"/>
<text x="888.50" y="72.00" font-family="Arial, Helvetica, sans-serif" font-size="13.7" fill="#d31b2b" text-anchor="start">STM32U54RE</text>
<text x="888.50" y="300.60" font-family="Arial, Helvetica, sans-serif" font-size="13.7" fill="#d31b2b" text-anchor="start">STM32U54RE</text>
<line x1="873.26" y1="102.48" x2="903.74" y2="102.48" stroke="#d31b2b" stroke-width="1.00" stroke-linecap="round"/>
<rect x="869.66" y="98.88" width="7.20" height="7.20" fill="white" stroke="#d31b2b" stroke-width="1"/>
<text x="913.34" y="98.28" font-family="Arial, Helvetica, sans-serif" font-size="8.1" fill="#777777" text-anchor="start">5V</text>
<line x1="873.26" y1="117.72" x2="903.74" y2="117.72" stroke="#d31b2b" stroke-width="1.00" stroke-linecap="round"/>
<rect x="869.66" y="114.12" width="7.20" height="7.20" fill="white" stroke="#d31b2b" stroke-width="1"/>
<text x="913.34" y="113.52" font-family="Arial, Helvetica, sans-serif" font-size="8.1" fill="#777777" text-anchor="start">GND</text>
<line x1="873.26" y1="132.96" x2="903.74" y2="132.96" stroke="#d31b2b" stroke-width="1.00" stroke-linecap="round"/>
<rect x="869.66" y="129.36" width="7.20" height="7.20" fill="white" stroke="#d31b2b" stroke-width="1"/>
<text x="913.34" y="128.76" font-family="Arial, Helvetica, sans-serif" font-size="8.1" fill="#777777" text-anchor="start">A0</text>
<line x1="873.26" y1="148.20" x2="903.74" y2="148.20" stroke="#d31b2b" stroke-width="1.00" stroke-linecap="round"/>
<rect x="869.66" y="144.60" width="7.20" height="7.20" fill="white" stroke="#d31b2b" stroke-width="1"/>
<text x="913.34" y="144.00" font-family="Arial, Helvetica, sans-serif" font-size="8.1" fill="#777777" text-anchor="start">A1</text>
<line x1="873.26" y1="163.44" x2="903.74" y2="163.44" stroke="#d31b2b" stroke-width="1.00" stroke-linecap="round"/>
<rect x="869.66" y="159.84" width="7.20" height="7.20" fill="white" stroke="#d31b2b" stroke-width="1"/>
<text x="913.34" y="159.24" font-family="Arial, Helvetica, sans-serif" font-size="8.1" fill="#777777" text-anchor="start">A2</text>
<line x1="873.26" y1="178.68" x2="903.74" y2="178.68" stroke="#d31b2b" stroke-width="1.00" stroke-linecap="round"/>
<rect x="869.66" y="175.08" width="7.20" height="7.20" fill="white" stroke="#d31b2b" stroke-width="1"/>
<text x="913.34" y="174.48" font-family="Arial, Helvetica, sans-serif" font-size="8.1" fill="#777777" text-anchor="start">A3</text>
<line x1="873.26" y1="193.92" x2="903.74" y2="193.92" stroke="#d31b2b" stroke-width="1.00" stroke-linecap="round"/>
<rect x="869.66" y="190.32" width="7.20" height="7.20" fill="white" stroke="#d31b2b" stroke-width="1"/>
<text x="913.34" y="189.72" font-family="Arial, Helvetica, sans-serif" font-size="8.1" fill="#777777" text-anchor="start">A4</text>
<line x1="873.26" y1="209.16" x2="903.74" y2="209.16" stroke="#d31b2b" stroke-width="1.00" stroke-linecap="round"/>
<rect x="869.66" y="205.56" width="7.20" height="7.20" fill="white" stroke="#d31b2b" stroke-width="1"/>
<text x="913.34" y="204.96" font-family="Arial, Helvetica, sans-serif" font-size="8.1" fill="#777777" text-anchor="start">A5</text>
<line x1="873.26" y1="224.40" x2="903.74" y2="224.40" stroke="#d31b2b" stroke-width="1.00" stroke-linecap="round"/>
<rect x="869.66" y="220.80" width="7.20" height="7.20" fill="white" stroke="#d31b2b" stroke-width="1"/>
<text x="913.34" y="220.20" font-family="Arial, Helvetica, sans-serif" font-size="8.1" fill="#777777" text-anchor="start">IO/D8</text>
<line x1="873.26" y1="239.64" x2="903.74" y2="239.64" stroke="#d31b2b" stroke-width="1.00" stroke-linecap="round"/>
<rect x="869.66" y="236.04" width="7.20" height="7.20" fill="white" stroke="#d31b2b" stroke-width="1"/>
<text x="913.34" y="235.44" font-family="Arial, Helvetica, sans-serif" font-size="8.1" fill="#777777" text-anchor="start">VIN</text>
<line x1="873.26" y1="254.88" x2="903.74" y2="254.88" stroke="#d31b2b" stroke-width="1.00" stroke-linecap="round"/>
<rect x="869.66" y="251.28" width="7.20" height="7.20" fill="white" stroke="#d31b2b" stroke-width="1"/>
<text x="913.34" y="250.68" font-family="Arial, Helvetica, sans-serif" font-size="8.1" fill="#777777" text-anchor="start">GNDIN</text>
<rect x="400.82" y="635.88" width="106.68" height="121.92" fill="none" stroke="#d31b2b" stroke-width="1.2"/>
<line x1="492.26" y1="651.12" x2="522.74" y2="651.12" stroke="#d31b2b" stroke-width="1.00" stroke-linecap="round"/>
<rect x="488.66" y="647.52" width="7.20" height="7.20" fill="white" stroke="#d31b2b" stroke-width="1"/>
<text x="532.34" y="646.92" font-family="Arial, Helvetica, sans-serif" font-size="8.1" fill="#777777" text-anchor="start">OUT1</text>
<line x1="492.26" y1="666.36" x2="522.74" y2="666.36" stroke="#d31b2b" stroke-width="1.00" stroke-linecap="round"/>
<rect x="488.66" y="662.76" width="7.20" height="7.20" fill="white" stroke="#d31b2b" stroke-width="1"/>
<text x="532.34" y="662.16" font-family="Arial, Helvetica, sans-serif" font-size="8.1" fill="#777777" text-anchor="start">OUT2</text>
<line x1="492.26" y1="681.60" x2="522.74" y2="681.60" stroke="#d31b2b" stroke-width="1.00" stroke-linecap="round"/>
<rect x="488.66" y="678.00" width="7.20" height="7.20" fill="white" stroke="#d31b2b" stroke-width="1"/>
<text x="532.34" y="677.40" font-family="Arial, Helvetica, sans-serif" font-size="8.1" fill="#777777" text-anchor="start">OUT3</text>
<line x1="492.26" y1="696.84" x2="522.74" y2="696.84" stroke="#d31b2b" stroke-width="1.00" stroke-linecap="round"/>
<rect x="488.66" y="693.24" width="7.20" height="7.20" fill="white" stroke="#d31b2b" stroke-width="1"/>
<text x="532.34" y="692.64" font-family="Arial, Helvetica, sans-serif" font-size="8.1" fill="#777777" text-anchor="start">OUT4</text>
<line x1="492.26" y1="712.08" x2="522.74" y2="712.08" stroke="#d31b2b" stroke-width="1.00" stroke-linecap="round"/>
<rect x="488.66" y="708.48" width="7.20" height="7.20" fill="white" stroke="#d31b2b" stroke-width="1"/>
<text x="532.34" y="707.88" font-family="Arial, Helvetica, sans-serif" font-size="8.1" fill="#777777" text-anchor="start">12V</text>
<line x1="492.26" y1="727.32" x2="522.74" y2="727.32" stroke="#d31b2b" stroke-width="1.00" stroke-linecap="round"/>
<rect x="488.66" y="723.72" width="7.20" height="7.20" fill="white" stroke="#d31b2b" stroke-width="1"/>
<text x="532.34" y="723.12" font-family="Arial, Helvetica, sans-serif" font-size="8.1" fill="#777777" text-anchor="start">GND</text>
<line x1="492.26" y1="742.56" x2="522.74" y2="742.56" stroke="#d31b2b" stroke-width="1.00" stroke-linecap="round"/>
<rect x="488.66" y="738.96" width="7.20" height="7.20" fill="white" stroke="#d31b2b" stroke-width="1"/>
<text x="532.34" y="738.36" font-family="Arial, Helvetica, sans-serif" font-size="8.1" fill="#777777" text-anchor="start">5V</text>
<rect x="324.62" y="148.20" width="45.72" height="259.08" fill="none" stroke="#d31b2b" stroke-width="1.2"/>
<line x1="355.10" y1="163.44" x2="385.58" y2="163.44" stroke="#d31b2b" stroke-width="1.00" stroke-linecap="round"/>
<rect x="351.50" y="159.84" width="7.20" height="7.20" fill="white" stroke="#d31b2b" stroke-width="1"/>
<text x="395.18" y="159.24" font-family="Arial, Helvetica, sans-serif" font-size="8.1" fill="#777777" text-anchor="start">GND</text>
<line x1="355.10" y1="193.92" x2="385.58" y2="193.92" stroke="#d31b2b" stroke-width="1.00" stroke-linecap="round"/>
<rect x="351.50" y="190.32" width="7.20" height="7.20" fill="white" stroke="#d31b2b" stroke-width="1"/>
<text x="395.18" y="189.72" font-family="Arial, Helvetica, sans-serif" font-size="8.1" fill="#777777" text-anchor="start">5V</text>
<line x1="355.10" y1="224.40" x2="385.58" y2="224.40" stroke="#d31b2b" stroke-width="1.00" stroke-linecap="round"/>
<rect x="351.50" y="220.80" width="7.20" height="7.20" fill="white" stroke="#d31b2b" stroke-width="1"/>
<text x="395.18" y="220.20" font-family="Arial, Helvetica, sans-serif" font-size="8.1" fill="#777777" text-anchor="start">OUT1</text>
<line x1="355.10" y1="254.88" x2="385.58" y2="254.88" stroke="#d31b2b" stroke-width="1.00" stroke-linecap="round"/>
<rect x="351.50" y="251.28" width="7.20" height="7.20" fill="white" stroke="#d31b2b" stroke-width="1"/>
<text x="395.18" y="250.68" font-family="Arial, Helvetica, sans-serif" font-size="8.1" fill="#777777" text-anchor="start">OUT2</text>
<line x1="355.10" y1="285.36" x2="385.58" y2="285.36" stroke="#d31b2b" stroke-width="1.00" stroke-linecap="round"/>
<rect x="351.50" y="281.76" width="7.20" height="7.20" fill="white" stroke="#d31b2b" stroke-width="1"/>
<text x="395.18" y="281.16" font-family="Arial, Helvetica, sans-serif" font-size="8.1" fill="#777777" text-anchor="start">OUT3</text>
<line x1="355.10" y1="315.84" x2="385.58" y2="315.84" stroke="#d31b2b" stroke-width="1.00" stroke-linecap="round"/>
<rect x="351.50" y="312.24" width="7.20" height="7.20" fill="white" stroke="#d31b2b" stroke-width="1"/>
<text x="395.18" y="311.64" font-family="Arial, Helvetica, sans-serif" font-size="8.1" fill="#777777" text-anchor="start">OUT4</text>
<line x1="355.10" y1="346.32" x2="385.58" y2="346.32" stroke="#d31b2b" stroke-width="1.00" stroke-linecap="round"/>
<rect x="351.50" y="342.72" width="7.20" height="7.20" fill="white" stroke="#d31b2b" stroke-width="1"/>
<text x="395.18" y="342.12" font-family="Arial, Helvetica, sans-serif" font-size="8.1" fill="#777777" text-anchor="start">OUT5</text>
<circle cx="202.70" cy="559.68" r="45.72" fill="none" stroke="#d31b2b" stroke-width="1.2"/>
<line x1="246.90" y1="544.44" x2="263.66" y2="544.44" stroke="#d31b2b" stroke-width="1.52" stroke-linecap="round"/>
<line x1="263.66" y1="544.44" x2="263.66" y2="574.92" stroke="#d31b2b" stroke-width="1.52" stroke-linecap="round"/>
<line x1="263.66" y1="574.92" x2="246.90" y2="574.92" stroke="#d31b2b" stroke-width="1.52" stroke-linecap="round"/>
<line x1="158.51" y1="544.44" x2="141.74" y2="544.44" stroke="#d31b2b" stroke-width="1.52" stroke-linecap="round"/>
<line x1="141.74" y1="544.44" x2="141.74" y2="574.92" stroke="#d31b2b" stroke-width="1.52" stroke-linecap="round"/>
<line x1="141.74" y1="574.92" x2="158.51" y2="574.92" stroke="#d31b2b" stroke-width="1.52" stroke-linecap="round"/>
<line x1="252.99" y1="559.68" x2="259.09" y2="559.68" stroke="#d31b2b" stroke-width="1.52" stroke-linecap="round"/>
<line x1="146.31" y1="559.68" x2="152.41" y2="559.68" stroke="#d31b2b" stroke-width="1.52" stroke-linecap="round"/>
<line x1="149.36" y1="556.63" x2="149.36" y2="562.73" stroke="#d31b2b" stroke-width="1.52" stroke-linecap="round"/>
<text x="202.70" y="559.68" font-family="Arial, Helvetica, sans-serif" font-size="34.8" fill="#d31b2b" text-anchor="middle">M</text>
<text x="202.70" y="509.39" font-family="Arial, Helvetica, sans-serif" font-size="9.6" fill="#777777" text-anchor="middle">U$4</text>
<text x="202.70" y="609.97" font-family="Arial, Helvetica, sans-serif" font-size="9.6" fill="#777777" text-anchor="middle">MOTOR</text>
<line x1="126.50" y1="559.68" x2="141.74" y2="559.68" stroke="#d31b2b" stroke-width="1.00" stroke-linecap="round"/>
<rect x="122.90" y="556.08" width="7.20" height="7.20" fill="white" stroke="#d31b2b" stroke-width="1"/>
<line x1="278.90" y1="559.68" x2="263.66" y2="559.68" stroke="#d31b2b" stroke-width="1.00" stroke-linecap="round"/>
<rect x="275.30" y="556.08" width="7.20" height="7.20" fill="white" stroke="#d31b2b" stroke-width="1"/>
<text x="202.70" y="509.39" font-family="Arial, Helvetica, sans-serif" font-size="9.6" fill="#777777" text-anchor="middle">U$4</text>
<text x="202.70" y="609.97" font-family="Arial, Helvetica, sans-serif" font-size="9.6" fill="#777777" text-anchor="middle">MOTOR</text>
<circle cx="202.70" cy="696.84" r="45.72" fill="none" stroke="#d31b2b" stroke-width="1.2"/>
<line x1="246.90" y1="681.60" x2="263.66" y2="681.60" stroke="#d31b2b" stroke-width="1.52" stroke-linecap="round"/>
<line x1="263.66" y1="681.60" x2="263.66" y2="712.08" stroke="#d31b2b" stroke-width="1.52" stroke-linecap="round"/>
<line x1="263.66" y1="712.08" x2="246.90" y2="712.08" stroke="#d31b2b" stroke-width="1.52" stroke-linecap="round"/>
<line x1="158.51" y1="681.60" x2="141.74" y2="681.60" stroke="#d31b2b" stroke-width="1.52" stroke-linecap="round"/>
<line x1="141.74" y1="681.60" x2="141.74" y2="712.08" stroke="#d31b2b" stroke-width="1.52" stroke-linecap="round"/>
<line x1="141.74" y1="712.08" x2="158.51" y2="712.08" stroke="#d31b2b" stroke-width="1.52" stroke-linecap="round"/>
<line x1="252.99" y1="696.84" x2="259.09" y2="696.84" stroke="#d31b2b" stroke-width="1.52" stroke-linecap="round"/>
<line x1="146.31" y1="696.84" x2="152.41" y2="696.84" stroke="#d31b2b" stroke-width="1.52" stroke-linecap="round"/>
<line x1="149.36" y1="693.79" x2="149.36" y2="699.89" stroke="#d31b2b" stroke-width="1.52" stroke-linecap="round"/>
<text x="202.70" y="696.84" font-family="Arial, Helvetica, sans-serif" font-size="34.8" fill="#d31b2b" text-anchor="middle">M</text>
<text x="202.70" y="646.55" font-family="Arial, Helvetica, sans-serif" font-size="9.6" fill="#777777" text-anchor="middle">U$5</text>
<text x="202.70" y="747.13" font-family="Arial, Helvetica, sans-serif" font-size="9.6" fill="#777777" text-anchor="middle">MOTOR</text>
<line x1="126.50" y1="696.84" x2="141.74" y2="696.84" stroke="#d31b2b" stroke-width="1.00" stroke-linecap="round"/>
<rect x="122.90" y="693.24" width="7.20" height="7.20" fill="white" stroke="#d31b2b" stroke-width="1"/>
<line x1="278.90" y1="696.84" x2="263.66" y2="696.84" stroke="#d31b2b" stroke-width="1.00" stroke-linecap="round"/>
<rect x="275.30" y="693.24" width="7.20" height="7.20" fill="white" stroke="#d31b2b" stroke-width="1"/>
<text x="202.70" y="646.55" font-family="Arial, Helvetica, sans-serif" font-size="9.6" fill="#777777" text-anchor="middle">U$5</text>
<text x="202.70" y="747.13" font-family="Arial, Helvetica, sans-serif" font-size="9.6" fill="#777777" text-anchor="middle">MOTOR</text>
<line x1="549.41" y1="453.00" x2="526.55" y2="453.00" stroke="#d31b2b" stroke-width="1.08" stroke-linecap="round"/>
<line x1="537.98" y1="468.24" x2="537.98" y2="453.00" stroke="#d31b2b" stroke-width="1.00" stroke-linecap="round"/>
<rect x="534.38" y="464.64" width="7.20" height="7.20" fill="white" stroke="#d31b2b" stroke-width="1"/>
<text x="537.98" y="437.76" font-family="Arial, Helvetica, sans-serif" font-size="9.6" fill="#777777" text-anchor="middle">12V</text>
<text x="537.98" y="437.76" font-family="Arial, Helvetica, sans-serif" font-size="9.6" fill="#777777" text-anchor="middle">12V</text>
<line x1="545.60" y1="392.04" x2="560.84" y2="392.04" stroke="#d31b2b" stroke-width="1.08" stroke-linecap="round"/>
<line x1="560.84" y1="392.04" x2="553.22" y2="399.66" stroke="#d31b2b" stroke-width="1.08" stroke-linecap="round"/>
<line x1="553.22" y1="399.66" x2="545.60" y2="392.04" stroke="#d31b2b" stroke-width="1.08" stroke-linecap="round"/>
<line x1="553.22" y1="376.80" x2="553.22" y2="392.04" stroke="#d31b2b" stroke-width="1.00" stroke-linecap="round"/>
<rect x="549.62" y="373.20" width="7.20" height="7.20" fill="white" stroke="#d31b2b" stroke-width="1"/>
<text x="553.22" y="407.28" font-family="Arial, Helvetica, sans-serif" font-size="9.6" fill="#777777" text-anchor="middle">GND</text>
<text x="553.22" y="407.28" font-family="Arial, Helvetica, sans-serif" font-size="9.6" fill="#777777" text-anchor="middle">GND</text>
<line x1="808.49" y1="285.36" x2="785.63" y2="285.36" stroke="#d31b2b" stroke-width="1.08" stroke-linecap="round"/>
<line x1="797.06" y1="300.60" x2="797.06" y2="285.36" stroke="#d31b2b" stroke-width="1.00" stroke-linecap="round"/>
<rect x="793.46" y="297.00" width="7.20" height="7.20" fill="white" stroke="#d31b2b" stroke-width="1"/>
<text x="797.06" y="270.12" font-family="Arial, Helvetica, sans-serif" font-size="9.6" fill="#777777" text-anchor="middle">+5V</text>
<text x="797.06" y="270.12" font-family="Arial, Helvetica, sans-serif" font-size="9.6" fill="#777777" text-anchor="middle">+5V</text>
<line x1="789.44" y1="346.32" x2="804.68" y2="346.32" stroke="#d31b2b" stroke-width="1.08" stroke-linecap="round"/>
<line x1="804.68" y1="346.32" x2="797.06" y2="353.94" stroke="#d31b2b" stroke-width="1.08" stroke-linecap="round"/>
<line x1="797.06" y1="353.94" x2="789.44" y2="346.32" stroke="#d31b2b" stroke-width="1.08" stroke-linecap="round"/>
<line x1="797.06" y1="331.08" x2="797.06" y2="346.32" stroke="#d31b2b" stroke-width="1.00" stroke-linecap="round"/>
<rect x="793.46" y="327.48" width="7.20" height="7.20" fill="white" stroke="#d31b2b" stroke-width="1"/>
<text x="797.06" y="361.56" font-family="Arial, Helvetica, sans-serif" font-size="9.6" fill="#777777" text-anchor="middle">GND</text>
<text x="797.06" y="361.56" font-family="Arial, Helvetica, sans-serif" font-size="9.6" fill="#777777" text-anchor="middle">GND</text>
<line x1="355.10" y1="117.72" x2="355.10" y2="163.44" stroke="#008060" stroke-width="1.08" stroke-linecap="round"/>
<line x1="355.10" y1="117.72" x2="873.26" y2="117.72" stroke="#008060" stroke-width="1.08" stroke-linecap="round"/>
<line x1="355.10" y1="193.92" x2="233.18" y2="193.92" stroke="#008060" stroke-width="1.08" stroke-linecap="round"/>
<line x1="233.18" y1="193.92" x2="233.18" y2="102.48" stroke="#008060" stroke-width="1.08" stroke-linecap="round"/>
<line x1="233.18" y1="102.48" x2="873.26" y2="102.48" stroke="#008060" stroke-width="1.08" stroke-linecap="round"/>
<line x1="355.10" y1="224.40" x2="461.78" y2="224.40" stroke="#008060" stroke-width="1.08" stroke-linecap="round"/>
<line x1="461.78" y1="224.40" x2="461.78" y2="132.96" stroke="#008060" stroke-width="1.08" stroke-linecap="round"/>
<line x1="461.78" y1="132.96" x2="873.26" y2="132.96" stroke="#008060" stroke-width="1.08" stroke-linecap="round"/>
<line x1="355.10" y1="254.88" x2="477.02" y2="254.88" stroke="#008060" stroke-width="1.08" stroke-linecap="round"/>
<line x1="477.02" y1="254.88" x2="477.02" y2="148.20" stroke="#008060" stroke-width="1.08" stroke-linecap="round"/>
<line x1="477.02" y1="148.20" x2="873.26" y2="148.20" stroke="#008060" stroke-width="1.08" stroke-linecap="round"/>
<line x1="355.10" y1="285.36" x2="492.26" y2="285.36" stroke="#008060" stroke-width="1.08" stroke-linecap="round"/>
<line x1="492.26" y1="285.36" x2="492.26" y2="163.44" stroke="#008060" stroke-width="1.08" stroke-linecap="round"/>
<line x1="492.26" y1="163.44" x2="873.26" y2="163.44" stroke="#008060" stroke-width="1.08" stroke-linecap="round"/>
<line x1="355.10" y1="315.84" x2="522.74" y2="315.84" stroke="#008060" stroke-width="1.08" stroke-linecap="round"/>
<line x1="522.74" y1="315.84" x2="522.74" y2="178.68" stroke="#008060" stroke-width="1.08" stroke-linecap="round"/>
<line x1="522.74" y1="178.68" x2="873.26" y2="178.68" stroke="#008060" stroke-width="1.08" stroke-linecap="round"/>
<line x1="355.10" y1="346.32" x2="568.46" y2="346.32" stroke="#008060" stroke-width="1.08" stroke-linecap="round"/>
<line x1="568.46" y1="346.32" x2="568.46" y2="193.92" stroke="#008060" stroke-width="1.08" stroke-linecap="round"/>
<line x1="568.46" y1="193.92" x2="873.26" y2="193.92" stroke="#008060" stroke-width="1.08" stroke-linecap="round"/>
<line x1="492.26" y1="742.56" x2="736.10" y2="742.56" stroke="#008060" stroke-width="1.08" stroke-linecap="round"/>
<line x1="736.10" y1="742.56" x2="736.10" y2="224.40" stroke="#008060" stroke-width="1.08" stroke-linecap="round"/>
<line x1="736.10" y1="224.40" x2="873.26" y2="224.40" stroke="#008060" stroke-width="1.08" stroke-linecap="round"/>
<line x1="126.50" y1="559.68" x2="126.50" y2="498.72" stroke="#008060" stroke-width="1.08" stroke-linecap="round"/>
<line x1="126.50" y1="498.72" x2="644.66" y2="498.72" stroke="#008060" stroke-width="1.08" stroke-linecap="round"/>
<line x1="644.66" y1="498.72" x2="644.66" y2="696.84" stroke="#008060" stroke-width="1.08" stroke-linecap="round"/>
<line x1="644.66" y1="696.84" x2="492.26" y2="696.84" stroke="#008060" stroke-width="1.08" stroke-linecap="round"/>
<line x1="278.90" y1="559.68" x2="278.90" y2="529.20" stroke="#008060" stroke-width="1.08" stroke-linecap="round"/>
<line x1="278.90" y1="529.20" x2="629.42" y2="529.20" stroke="#008060" stroke-width="1.08" stroke-linecap="round"/>
<line x1="629.42" y1="529.20" x2="629.42" y2="681.60" stroke="#008060" stroke-width="1.08" stroke-linecap="round"/>
<line x1="629.42" y1="681.60" x2="492.26" y2="681.60" stroke="#008060" stroke-width="1.08" stroke-linecap="round"/>
<line x1="126.50" y1="696.84" x2="126.50" y2="620.64" stroke="#008060" stroke-width="1.08" stroke-linecap="round"/>
<line x1="126.50" y1="620.64" x2="324.62" y2="620.64" stroke="#008060" stroke-width="1.08" stroke-linecap="round"/>
<line x1="324.62" y1="620.64" x2="324.62" y2="559.68" stroke="#008060" stroke-width="1.08" stroke-linecap="round"/>
<line x1="324.62" y1="559.68" x2="614.18" y2="559.68" stroke="#008060" stroke-width="1.08" stroke-linecap="round"/>
<line x1="614.18" y1="559.68" x2="614.18" y2="666.36" stroke="#008060" stroke-width="1.08" stroke-linecap="round"/>
<line x1="614.18" y1="666.36" x2="492.26" y2="666.36" stroke="#008060" stroke-width="1.08" stroke-linecap="round"/>
<line x1="278.90" y1="696.84" x2="355.10" y2="696.84" stroke="#008060" stroke-width="1.08" stroke-linecap="round"/>
<line x1="355.10" y1="696.84" x2="355.10" y2="590.16" stroke="#008060" stroke-width="1.08" stroke-linecap="round"/>
<line x1="355.10" y1="590.16" x2="598.94" y2="590.16" stroke="#008060" stroke-width="1.08" stroke-linecap="round"/>
<line x1="598.94" y1="590.16" x2="598.94" y2="651.12" stroke="#008060" stroke-width="1.08" stroke-linecap="round"/>
<line x1="598.94" y1="651.12" x2="492.26" y2="651.12" stroke="#008060" stroke-width="1.08" stroke-linecap="round"/>
<line x1="492.26" y1="712.08" x2="675.14" y2="712.08" stroke="#008060" stroke-width="1.08" stroke-linecap="round"/>
<line x1="675.14" y1="712.08" x2="675.14" y2="468.24" stroke="#008060" stroke-width="1.08" stroke-linecap="round"/>
<line x1="675.14" y1="468.24" x2="537.98" y2="468.24" stroke="#008060" stroke-width="1.08" stroke-linecap="round"/>
<line x1="492.26" y1="727.32" x2="705.62" y2="727.32" stroke="#008060" stroke-width="1.08" stroke-linecap="round"/>
<line x1="705.62" y1="727.32" x2="705.62" y2="376.80" stroke="#008060" stroke-width="1.08" stroke-linecap="round"/>
<line x1="705.62" y1="376.80" x2="553.22" y2="376.80" stroke="#008060" stroke-width="1.08" stroke-linecap="round"/>
<line x1="797.06" y1="331.08" x2="842.78" y2="331.08" stroke="#008060" stroke-width="1.08" stroke-linecap="round"/>
<line x1="842.78" y1="331.08" x2="842.78" y2="254.88" stroke="#008060" stroke-width="1.08" stroke-linecap="round"/>
<line x1="842.78" y1="254.88" x2="873.26" y2="254.88" stroke="#008060" stroke-width="1.08" stroke-linecap="round"/>
<line x1="797.06" y1="300.60" x2="797.06" y2="239.64" stroke="#008060" stroke-width="1.08" stroke-linecap="round"/>
<line x1="797.06" y1="239.64" x2="873.26" y2="239.64" stroke="#008060" stroke-width="1.08" stroke-linecap="round"/>
<text x="263.66" y="270.12" font-family="Arial, Helvetica, sans-serif" font-size="9.6" fill="#777777" text-anchor="start">sensors</text>
<text x="431.30" y="788.28" font-family="Arial, Helvetica, sans-serif" font-size="9.6" fill="#777777" text-anchor="start">L298N</text>
</svg>