<?xml version="1.0" encoding="UTF-8"?>
<svg width="800" height="600" xmlns="http://www.w3.org/2000/svg">
  <defs>
    <marker id="arrowhead" markerWidth="10" markerHeight="7" refX="9" refY="3.5" orient="auto">
      <polygon points="0 0, 10 3.5, 0 7" fill="black" />
    </marker>
  </defs>

  <rect x="300" y="20" width="200" height="40" style="fill:#c8e6c9;stroke:black;stroke-width:1;" />
  <text x="400" y="45" font-family="Arial" font-size="12" text-anchor="middle">MAINS POWER (AC)</text>
  
  <rect x="300" y="100" width="200" height="40" style="fill:#ffcdd2;stroke:black;stroke-width:1;" />
  <text x="400" y="125" font-family="Arial" font-size="12" text-anchor="middle">12V 20A PSU</text>

  <rect x="100" y="200" width="160" height="50" style="fill:#bbdefb;stroke:black;stroke-width:1;" />
  <text x="180" y="220" font-family="Arial" font-size="11" text-anchor="middle">REGULATOR LM2596</text>
  <text x="180" y="235" font-family="Arial" font-size="10" text-anchor="middle">(12V to 5V)</text>

  <rect x="300" y="300" width="200" height="80" style="fill:#bbdefb;stroke:black;stroke-width:2;" />
  <text x="400" y="340" font-family="Arial" font-size="14" font-weight="bold" text-anchor="middle">STM32 BLUE PILL</text>

  <rect x="550" y="200" width="160" height="50" style="fill:#ffcdd2;stroke:black;stroke-width:1;" />
  <text x="630" y="220" font-family="Arial" font-size="11" text-anchor="middle">A4988 DRIVER</text>
  <text x="630" y="235" font-family="Arial" font-size="10" text-anchor="middle">(1/16 Microstepping)</text>

  <rect x="550" y="300" width="160" height="50" style="fill:#ffcdd2;stroke:black;stroke-width:1;" />
  <text x="630" y="330" font-family="Arial" font-size="12" text-anchor="middle">MOTOR NEMA 17</text>

  <rect x="50" y="315" width="120" height="40" style="fill:#fff9c4;stroke:black;stroke-width:1;" />
  <text x="110" y="340" font-family="Arial" font-size="11" text-anchor="middle">ENCODER</text>

  <rect x="100" y="450" width="150" height="40" style="fill:#e1bee7;stroke:black;stroke-width:1;" />
  <text x="175" y="475" font-family="Arial" font-size="11" text-anchor="middle">OLED 0.96 I2C</text>

  <rect x="300" y="450" width="150" height="40" style="fill:#e1bee7;stroke:black;stroke-width:1;" />
  <text x="375" y="465" font-family="Arial" font-size="11" text-anchor="middle">SUN &amp; STARS</text>
  <text x="375" y="480" font-family="Arial" font-size="9" text-anchor="middle">(WS2812B + LED Matrix)</text>

  <rect x="500" y="450" width="150" height="40" style="fill:#e1bee7;stroke:black;stroke-width:1;" />
  <text x="575" y="475" font-family="Arial" font-size="11" text-anchor="middle">RTC DS3231</text>

  <path d="M400 60 L400 100" marker-end="url(#arrowhead)" fill="none" stroke="black" stroke-width="2"/>
  <path d="M400 140 L400 170 L180 170 L180 200" marker-end="url(#arrowhead)" fill="none" stroke="black" stroke-width="2"/>
  <path d="M400 140 L400 170 L630 170 L630 200" marker-end="url(#arrowhead)" fill="none" stroke="black" stroke-width="2"/>
  <path d="M180 250 L180 270 L300 270 L300 300" marker-end="url(#arrowhead)" fill="none" stroke="black" stroke-width="2"/>
  <path d="M630 250 L630 300" marker-end="url(#arrowhead)" fill="none" stroke="black" stroke-width="2"/>
  <path d="M170 335 L300 335" marker-end="url(#arrowhead)" fill="none" stroke="black" stroke-dasharray="4"/>
  <path d="M400 380 L175 450" marker-end="url(#arrowhead)" fill="none" stroke="black" stroke-dasharray="4"/>
  <path d="M400 380 L375 450" marker-end="url(#arrowhead)" fill="none" stroke="black" stroke-dasharray="4"/>
  <path d="M400 380 L575 450" marker-end="url(#arrowhead)" fill="none" stroke="black" stroke-dasharray="4"/>
</svg>
