<svg width="1024" height="768" viewBox="0 0 680 768" role="img" xmlns="http://www.w3.org/2000/svg">
<title>Schemă electronică Smart Recycling Bin</title>
<desc>Schemă electronică pentru proiectul Smart Recycling Bin cu STM32, senzor IR, servo motor, modul NFC RC522 și LED-uri indicatoare</desc>
<defs>
  <marker id="arrow" viewBox="0 0 10 10" refX="8" refY="5" markerWidth="6" markerHeight="6" orient="auto-start-reverse">
    <path d="M2 1L8 5L2 9" fill="none" stroke="context-stroke" stroke-width="1.5" stroke-linecap="round" stroke-linejoin="round"/>
  </marker>
</defs>
<rect width="680" height="768" fill="#ffffff"/>
<rect x="20" y="720" width="640" height="40" fill="none" stroke="#888780" stroke-width="0.5"/>
<line x1="20" y1="720" x2="660" y2="720" stroke="#888780" stroke-width="0.5"/>
<text font-family="Arial,sans-serif" font-size="14" font-weight="500" x="240" y="744" text-anchor="middle" fill="#2C2C2A">Smart Recycling Bin</text>
<text font-family="Arial,sans-serif" font-size="12" x="460" y="736" text-anchor="middle" fill="#5F5E5A">Ana-Sorina Ciurea</text>
<text font-family="Arial,sans-serif" font-size="12" x="460" y="752" text-anchor="middle" fill="#5F5E5A">REV 1.0 — Sheet 1/1</text>
<line x1="400" y1="720" x2="400" y2="760" stroke="#888780" stroke-width="0.5"/>
<line x1="540" y1="720" x2="540" y2="760" stroke="#888780" stroke-width="0.5"/>
<text font-family="Arial,sans-serif" font-size="12" x="570" y="744" text-anchor="middle" fill="#5F5E5A">EasyEDA</text>
<line x1="310" y1="38" x2="310" y2="52" stroke="#E24B4A" stroke-width="1.2"/>
<polygon points="310,30 303,42 317,42" fill="#E24B4A"/>
<text font-family="Arial,sans-serif" font-size="12" x="322" y="38" fill="#E24B4A">VCC</text>
<rect x="200" y="52" width="220" height="260" rx="4" fill="none" stroke="#185FA5" stroke-width="1"/>
<rect x="200" y="52" width="220" height="18" fill="#185FA5" opacity="0.12"/>
<text font-family="Arial,sans-serif" font-size="14" font-weight="500" x="310" y="65" text-anchor="middle" fill="#185FA5">U1 — STM32 Nucleo</text>
<text font-family="Arial,sans-serif" font-size="12" x="208" y="90" fill="#5F5E5A">PA0 — GPIO_IN</text>
<text font-family="Arial,sans-serif" font-size="12" x="208" y="110" fill="#5F5E5A">PA1 — GPIO_IN</text>
<text font-family="Arial,sans-serif" font-size="12" x="208" y="130" fill="#5F5E5A">PA5 — SPI_SCK</text>
<text font-family="Arial,sans-serif" font-size="12" x="208" y="150" fill="#5F5E5A">PA6 — SPI_MISO</text>
<text font-family="Arial,sans-serif" font-size="12" x="208" y="170" fill="#5F5E5A">PA7 — SPI_MOSI</text>
<text font-family="Arial,sans-serif" font-size="12" x="208" y="190" fill="#5F5E5A">PA4 — SPI_CS</text>
<text font-family="Arial,sans-serif" font-size="12" x="208" y="210" fill="#5F5E5A">PB6 — I2C_SCL</text>
<text font-family="Arial,sans-serif" font-size="12" x="208" y="230" fill="#5F5E5A">PB7 — I2C_SDA</text>
<text font-family="Arial,sans-serif" font-size="12" x="208" y="250" fill="#5F5E5A">PA8 — TIM1_CH1</text>
<text font-family="Arial,sans-serif" font-size="12" x="208" y="270" fill="#5F5E5A">PC13 — GPIO_OUT</text>
<text font-family="Arial,sans-serif" font-size="12" x="208" y="290" fill="#5F5E5A">PC14 — GPIO_OUT</text>
<line x1="196" y1="87" x2="200" y2="87" stroke="#185FA5" stroke-width="1.5"/>
<line x1="196" y1="107" x2="200" y2="107" stroke="#185FA5" stroke-width="1.5"/>
<line x1="196" y1="127" x2="200" y2="127" stroke="#185FA5" stroke-width="1.5"/>
<line x1="196" y1="147" x2="200" y2="147" stroke="#185FA5" stroke-width="1.5"/>
<line x1="196" y1="167" x2="200" y2="167" stroke="#185FA5" stroke-width="1.5"/>
<line x1="196" y1="187" x2="200" y2="187" stroke="#185FA5" stroke-width="1.5"/>
<line x1="196" y1="207" x2="200" y2="207" stroke="#185FA5" stroke-width="1.5"/>
<line x1="196" y1="227" x2="200" y2="227" stroke="#185FA5" stroke-width="1.5"/>
<line x1="196" y1="247" x2="200" y2="247" stroke="#185FA5" stroke-width="1.5"/>
<line x1="196" y1="267" x2="200" y2="267" stroke="#185FA5" stroke-width="1.5"/>
<line x1="196" y1="287" x2="200" y2="287" stroke="#185FA5" stroke-width="1.5"/>
<line x1="310" y1="312" x2="310" y2="326" stroke="#444441" stroke-width="1"/>
<line x1="304" y1="326" x2="316" y2="326" stroke="#444441" stroke-width="1"/>
<line x1="306" y1="329" x2="314" y2="329" stroke="#444441" stroke-width="1"/>
<line x1="308" y1="332" x2="312" y2="332" stroke="#444441" stroke-width="1"/>
<text font-family="Arial,sans-serif" font-size="12" x="322" y="330" fill="#5F5E5A">GND</text>
<rect x="20" y="80" width="130" height="64" rx="4" fill="none" stroke="#0F6E56" stroke-width="1"/>
<rect x="20" y="80" width="130" height="14" fill="#0F6E56" opacity="0.12"/>
<text font-family="Arial,sans-serif" font-size="14" font-weight="500" x="85" y="91" text-anchor="middle" fill="#0F6E56">Q1 — IR Sensor</text>
<text font-family="Arial,sans-serif" font-size="12" x="28" y="112" fill="#5F5E5A">VCC</text>
<text font-family="Arial,sans-serif" font-size="12" x="28" y="128" fill="#5F5E5A">GND</text>
<text font-family="Arial,sans-serif" font-size="12" x="90" y="112" fill="#5F5E5A">OUT →</text>
<line x1="46" y1="80" x2="46" y2="74" stroke="#E24B4A" stroke-width="1"/>
<polygon points="46,66 40,76 52,76" fill="#E24B4A"/>
<text font-family="Arial,sans-serif" font-size="12" x="58" y="72" fill="#E24B4A">VCC</text>
<line x1="46" y1="144" x2="46" y2="154" stroke="#444441" stroke-width="1"/>
<line x1="40" y1="154" x2="52" y2="154" stroke="#444441" stroke-width="1"/>
<line x1="42" y1="157" x2="50" y2="157" stroke="#444441" stroke-width="1"/>
<line x1="150" y1="112" x2="170" y2="112" stroke="#0F6E56" stroke-width="1"/>
<line x1="170" y1="112" x2="170" y2="87" stroke="#0F6E56" stroke-width="1"/>
<line x1="170" y1="87" x2="196" y2="87" stroke="#0F6E56" stroke-width="1" marker-end="url(#arrow)"/>
<circle cx="170" cy="112" r="2.5" fill="#0F6E56"/>
<rect x="20" y="200" width="130" height="64" rx="4" fill="none" stroke="#854F0B" stroke-width="1"/>
<rect x="20" y="200" width="130" height="14" fill="#854F0B" opacity="0.12"/>
<text font-family="Arial,sans-serif" font-size="14" font-weight="500" x="85" y="211" text-anchor="middle" fill="#854F0B">M1 — Servo Motor</text>
<text font-family="Arial,sans-serif" font-size="12" x="28" y="232" fill="#5F5E5A">VCC</text>
<text font-family="Arial,sans-serif" font-size="12" x="28" y="248" fill="#5F5E5A">GND</text>
<text font-family="Arial,sans-serif" font-size="12" x="90" y="232" fill="#5F5E5A">PWM ←</text>
<line x1="46" y1="200" x2="46" y2="194" stroke="#E24B4A" stroke-width="1"/>
<polygon points="46,186 40,196 52,196" fill="#E24B4A"/>
<text font-family="Arial,sans-serif" font-size="12" x="58" y="192" fill="#E24B4A">VCC</text>
<line x1="46" y1="264" x2="46" y2="274" stroke="#444441" stroke-width="1"/>
<line x1="40" y1="274" x2="52" y2="274" stroke="#444441" stroke-width="1"/>
<line x1="42" y1="277" x2="50" y2="277" stroke="#444441" stroke-width="1"/>
<line x1="196" y1="247" x2="180" y2="247" stroke="#854F0B" stroke-width="1"/>
<line x1="180" y1="247" x2="180" y2="232" stroke="#854F0B" stroke-width="1"/>
<line x1="150" y1="232" x2="180" y2="232" stroke="#854F0B" stroke-width="1" marker-end="url(#arrow)"/>
<circle cx="180" cy="247" r="2.5" fill="#854F0B"/>
<rect x="440" y="52" width="160" height="110" rx="4" fill="none" stroke="#533AB7" stroke-width="1"/>
<rect x="440" y="52" width="160" height="14" fill="#533AB7" opacity="0.12"/>
<text font-family="Arial,sans-serif" font-size="14" font-weight="500" x="520" y="63" text-anchor="middle" fill="#533AB7">U2 — RC522 NFC</text>
<text font-family="Arial,sans-serif" font-size="12" x="448" y="84" fill="#5F5E5A">3.3V</text>
<text font-family="Arial,sans-serif" font-size="12" x="448" y="100" fill="#5F5E5A">GND</text>
<text font-family="Arial,sans-serif" font-size="12" x="448" y="116" fill="#5F5E5A">SCK</text>
<text font-family="Arial,sans-serif" font-size="12" x="448" y="132" fill="#5F5E5A">MOSI</text>
<text font-family="Arial,sans-serif" font-size="12" x="448" y="148" fill="#5F5E5A">MISO</text>
<text font-family="Arial,sans-serif" font-size="12" x="448" y="164" fill="#5F5E5A">SDA/CS</text>
<line x1="474" y1="52" x2="474" y2="46" stroke="#E24B4A" stroke-width="1"/>
<polygon points="474,38 468,48 480,48" fill="#E24B4A"/>
<text font-family="Arial,sans-serif" font-size="12" x="486" y="44" fill="#E24B4A">3.3V</text>
<line x1="474" y1="162" x2="474" y2="172" stroke="#444441" stroke-width="1"/>
<line x1="468" y1="172" x2="480" y2="172" stroke="#444441" stroke-width="1"/>
<line x1="470" y1="175" x2="478" y2="175" stroke="#444441" stroke-width="1"/>
<line x1="420" y1="127" x2="436" y2="127" stroke="#533AB7" stroke-width="1"/>
<line x1="436" y1="127" x2="436" y2="116" stroke="#533AB7" stroke-width="1"/>
<line x1="436" y1="116" x2="440" y2="116" stroke="#533AB7" stroke-width="1" marker-end="url(#arrow)"/>
<circle cx="420" cy="127" r="2.5" fill="#533AB7"/>
<line x1="420" y1="167" x2="434" y2="167" stroke="#533AB7" stroke-width="1"/>
<line x1="434" y1="167" x2="434" y2="132" stroke="#533AB7" stroke-width="1"/>
<line x1="434" y1="132" x2="440" y2="132" stroke="#533AB7" stroke-width="1" marker-end="url(#arrow)"/>
<line x1="420" y1="147" x2="432" y2="147" stroke="#533AB7" stroke-width="1"/>
<line x1="432" y1="147" x2="432" y2="148" stroke="#533AB7" stroke-width="1"/>
<line x1="432" y1="148" x2="440" y2="148" stroke="#533AB7" stroke-width="1" marker-end="url(#arrow)"/>
<line x1="420" y1="187" x2="430" y2="187" stroke="#533AB7" stroke-width="1"/>
<line x1="430" y1="187" x2="430" y2="164" stroke="#533AB7" stroke-width="1"/>
<line x1="430" y1="164" x2="440" y2="164" stroke="#533AB7" stroke-width="1" marker-end="url(#arrow)"/>
<line x1="420" y1="127" x2="424" y2="127" stroke="#185FA5" stroke-width="1.5"/>
<line x1="420" y1="147" x2="424" y2="147" stroke="#185FA5" stroke-width="1.5"/>
<line x1="420" y1="167" x2="424" y2="167" stroke="#185FA5" stroke-width="1.5"/>
<line x1="420" y1="187" x2="424" y2="187" stroke="#185FA5" stroke-width="1.5"/>
<rect x="440" y="200" width="80" height="60" rx="4" fill="none" stroke="#3B6D11" stroke-width="1"/>
<rect x="440" y="200" width="80" height="14" fill="#3B6D11" opacity="0.12"/>
<text font-family="Arial,sans-serif" font-size="14" font-weight="500" x="480" y="211" text-anchor="middle" fill="#3B6D11">D1 — LED</text>
<text font-family="Arial,sans-serif" font-size="12" x="448" y="232" fill="#5F5E5A">Green</text>
<rect x="444" y="243" width="30" height="10" rx="2" fill="none" stroke="#3B6D11" stroke-width="1"/>
<text font-family="Arial,sans-serif" font-size="12" x="462" y="258" text-anchor="middle" fill="#5F5E5A">R1 330Ω</text>
<line x1="420" y1="267" x2="438" y2="267" stroke="#3B6D11" stroke-width="1"/>
<line x1="438" y1="267" x2="438" y2="248" stroke="#3B6D11" stroke-width="1"/>
<line x1="438" y1="248" x2="444" y2="248" stroke="#3B6D11" stroke-width="1" marker-end="url(#arrow)"/>
<line x1="420" y1="267" x2="424" y2="267" stroke="#185FA5" stroke-width="1.5"/>
<line x1="480" y1="260" x2="480" y2="268" stroke="#444441" stroke-width="1"/>
<line x1="474" y1="268" x2="486" y2="268" stroke="#444441" stroke-width="1"/>
<line x1="476" y1="271" x2="484" y2="271" stroke="#444441" stroke-width="1"/>
<rect x="540" y="200" width="80" height="60" rx="4" fill="none" stroke="#A32D2D" stroke-width="1"/>
<rect x="540" y="200" width="80" height="14" fill="#A32D2D" opacity="0.12"/>
<text font-family="Arial,sans-serif" font-size="14" font-weight="500" x="580" y="211" text-anchor="middle" fill="#A32D2D">D2 — LED</text>
<text font-family="Arial,sans-serif" font-size="12" x="548" y="232" fill="#5F5E5A">Red</text>
<rect x="544" y="243" width="30" height="10" rx="2" fill="none" stroke="#A32D2D" stroke-width="1"/>
<text font-family="Arial,sans-serif" font-size="12" x="562" y="258" text-anchor="middle" fill="#5F5E5A">R2 330Ω</text>
<line x1="420" y1="287" x2="535" y2="287" stroke="#A32D2D" stroke-width="1"/>
<line x1="535" y1="287" x2="535" y2="248" stroke="#A32D2D" stroke-width="1"/>
<line x1="535" y1="248" x2="540" y2="248" stroke="#A32D2D" stroke-width="1" marker-end="url(#arrow)"/>
<line x1="420" y1="287" x2="424" y2="287" stroke="#185FA5" stroke-width="1.5"/>
<line x1="580" y1="260" x2="580" y2="268" stroke="#444441" stroke-width="1"/>
<line x1="574" y1="268" x2="586" y2="268" stroke="#444441" stroke-width="1"/>
<line x1="576" y1="271" x2="584" y2="271" stroke="#444441" stroke-width="1"/>
<text font-family="Arial,sans-serif" font-size="12" x="310" y="358" text-anchor="middle" fill="#5F5E5A">C1 100nF</text>
<line x1="280" y1="345" x2="340" y2="345" stroke="#5F5E5A" stroke-width="1"/>
<line x1="280" y1="350" x2="340" y2="350" stroke="#5F5E5A" stroke-width="1"/>
<line x1="310" y1="312" x2="310" y2="345" stroke="#E24B4A" stroke-width="1"/>
<line x1="310" y1="350" x2="310" y2="368" stroke="#444441" stroke-width="1"/>
<line x1="304" y1="368" x2="316" y2="368" stroke="#444441" stroke-width="1"/>
<line x1="306" y1="371" x2="314" y2="371" stroke="#444441" stroke-width="1"/>
<text font-family="Arial,sans-serif" font-size="14" font-weight="500" x="310" y="410" text-anchor="middle" fill="#5F5E5A">I2C Pull-ups</text>
<rect x="254" y="420" width="36" height="12" rx="2" fill="none" stroke="#5F5E5A" stroke-width="0.8"/>
<text font-family="Arial,sans-serif" font-size="12" x="272" y="435" text-anchor="middle" fill="#5F5E5A">4.7kΩ</text>
<line x1="272" y1="415" x2="272" y2="420" stroke="#E24B4A" stroke-width="1"/>
<polygon points="272,407 266,417 278,417" fill="#E24B4A"/>
<line x1="272" y1="432" x2="272" y2="442" stroke="#5F5E5A" stroke-width="1"/>
<line x1="272" y1="442" x2="196" y2="442" stroke="#5F5E5A" stroke-width="1"/>
<line x1="196" y1="442" x2="196" y2="207" stroke="#5F5E5A" stroke-width="1"/>
<line x1="196" y1="207" x2="200" y2="207" stroke="#5F5E5A" stroke-width="1" marker-end="url(#arrow)"/>
<rect x="340" y="420" width="36" height="12" rx="2" fill="none" stroke="#5F5E5A" stroke-width="0.8"/>
<text font-family="Arial,sans-serif" font-size="12" x="358" y="435" text-anchor="middle" fill="#5F5E5A">4.7kΩ</text>
<line x1="358" y1="415" x2="358" y2="420" stroke="#E24B4A" stroke-width="1"/>
<polygon points="358,407 352,417 364,417" fill="#E24B4A"/>
<line x1="358" y1="432" x2="358" y2="446" stroke="#5F5E5A" stroke-width="1"/>
<line x1="358" y1="446" x2="193" y2="446" stroke="#5F5E5A" stroke-width="1"/>
<line x1="193" y1="446" x2="193" y2="227" stroke="#5F5E5A" stroke-width="1"/>
<line x1="193" y1="227" x2="200" y2="227" stroke="#5F5E5A" stroke-width="1" marker-end="url(#arrow)"/>
<rect x="20" y="330" width="130" height="56" rx="4" fill="none" stroke="#5F5E5A" stroke-width="1"/>
<rect x="20" y="330" width="130" height="14" fill="#5F5E5A" opacity="0.12"/>
<text font-family="Arial,sans-serif" font-size="14" font-weight="500" x="85" y="341" text-anchor="middle" fill="#5F5E5A">S1 — Push Button</text>
<text font-family="Arial,sans-serif" font-size="12" x="28" y="362" fill="#5F5E5A">Reset / User</text>
<line x1="150" y1="362" x2="185" y2="362" stroke="#5F5E5A" stroke-width="1"/>
<line x1="185" y1="362" x2="185" y2="107" stroke="#5F5E5A" stroke-width="1"/>
<line x1="185" y1="107" x2="196" y2="107" stroke="#5F5E5A" stroke-width="1" marker-end="url(#arrow)"/>
<line x1="85" y1="386" x2="85" y2="396" stroke="#444441" stroke-width="1"/>
<line x1="79" y1="396" x2="91" y2="396" stroke="#444441" stroke-width="1"/>
<line x1="81" y1="399" x2="89" y2="399" stroke="#444441" stroke-width="1"/>
<line x1="85" y1="330" x2="85" y2="322" stroke="#E24B4A" stroke-width="1"/>
<polygon points="85,314 79,324 91,324" fill="#E24B4A"/>
<rect x="20" y="430" width="130" height="80" rx="4" fill="none" stroke="#888780" stroke-width="1"/>
<rect x="20" y="430" width="130" height="14" fill="#888780" opacity="0.12"/>
<text font-family="Arial,sans-serif" font-size="14" font-weight="500" x="85" y="441" text-anchor="middle" fill="#5F5E5A">CON1 — Power</text>
<text font-family="Arial,sans-serif" font-size="12" x="28" y="462" fill="#5F5E5A">USB / 5V IN</text>
<text font-family="Arial,sans-serif" font-size="12" x="28" y="478" fill="#5F5E5A">GND</text>
<text font-family="Arial,sans-serif" font-size="12" x="28" y="494" fill="#5F5E5A">3.3V reg out</text>
<line x1="85" y1="510" x2="85" y2="520" stroke="#444441" stroke-width="1"/>
<line x1="79" y1="520" x2="91" y2="520" stroke="#444441" stroke-width="1"/>
<line x1="81" y1="523" x2="89" y2="523" stroke="#444441" stroke-width="1"/>
<line x1="85" y1="430" x2="85" y2="424" stroke="#E24B4A" stroke-width="1"/>
<polygon points="85,416 79,426 91,426" fill="#E24B4A"/>
<rect x="440" y="320" width="200" height="150" rx="4" fill="none" stroke="#B4B2A9" stroke-width="0.5"/>
<text font-family="Arial,sans-serif" font-size="14" font-weight="500" x="450" y="338" fill="#2C2C2A">Notes</text>
<text font-family="Arial,sans-serif" font-size="12" x="450" y="356" fill="#5F5E5A">All caps: 100nF bypass</text>
<text font-family="Arial,sans-serif" font-size="12" x="450" y="372" fill="#5F5E5A">on each VCC pin</text>
<text font-family="Arial,sans-serif" font-size="12" x="450" y="392" fill="#5F5E5A">I2C: 4.7kΩ pull-ups to 3.3V</text>
<text font-family="Arial,sans-serif" font-size="12" x="450" y="412" fill="#5F5E5A">SPI: max 10 MHz</text>
<text font-family="Arial,sans-serif" font-size="12" x="450" y="428" fill="#5F5E5A">Servo PWM: 50 Hz</text>
<text font-family="Arial,sans-serif" font-size="12" x="450" y="444" fill="#5F5E5A">Logic level: 3.3V</text>
<line x1="420" y1="207" x2="424" y2="207" stroke="#185FA5" stroke-width="1.5"/>
<line x1="420" y1="227" x2="424" y2="227" stroke="#185FA5" stroke-width="1.5"/>
<line x1="420" y1="247" x2="424" y2="247" stroke="#185FA5" stroke-width="1.5"/>
<rect x="8" y="8" width="664" height="752" fill="none" stroke="#B4B2A9" stroke-width="0.5"/>
<rect x="12" y="12" width="656" height="744" fill="none" stroke="#D3D1C7" stroke-width="0.3"/>
<text font-family="Arial,sans-serif" font-size="12" x="14" y="100" fill="#B4B2A9">A</text>
<text font-family="Arial,sans-serif" font-size="12" x="14" y="220" fill="#B4B2A9">B</text>
<text font-family="Arial,sans-serif" font-size="12" x="14" y="380" fill="#B4B2A9">C</text>
<text font-family="Arial,sans-serif" font-size="12" x="14" y="500" fill="#B4B2A9">D</text>
<text font-family="Arial,sans-serif" font-size="12" x="100" y="718" fill="#B4B2A9">1</text>
<text font-family="Arial,sans-serif" font-size="12" x="260" y="718" fill="#B4B2A9">2</text>
<text font-family="Arial,sans-serif" font-size="12" x="420" y="718" fill="#B4B2A9">3</text>
<text font-family="Arial,sans-serif" font-size="12" x="580" y="718" fill="#B4B2A9">4</text>
</svg>