<?xml version="1.0" standalone="no"?>
<!DOCTYPE svg PUBLIC "-//W3C//DTD SVG 20010904//EN"
 "http://www.w3.org/TR/2001/REC-SVG-20010904/DTD/svg10.dtd">
<svg version="1.0" xmlns="http://www.w3.org/2000/svg"
 width="846.000000pt" height="830.000000pt" viewBox="0 0 846.000000 830.000000"
 preserveAspectRatio="xMidYMid meet">

<g transform="translate(0.000000,830.000000) scale(0.100000,-0.100000)"
fill="#000000" stroke="none">
<path d="M3828 7778 l4 -118 -411 0 -411 0 0 -111 0 -111 -118 4 c-75 2 -119
-1 -119 -7 0 -6 44 -9 119 -7 l118 4 0 -72 0 -72 -118 4 c-75 2 -119 -1 -119
-7 0 -6 44 -9 119 -7 l118 4 0 -147 0 -147 -118 4 c-75 2 -119 -1 -119 -7 0
-6 44 -9 119 -7 l118 4 0 -72 0 -72 -118 4 c-75 2 -119 -1 -119 -7 0 -6 44 -9
119 -7 l118 4 0 -146 0 -146 -1154 0 -1155 0 -4 38 -4 37 -1 -37 -2 -38 -57 0
-58 1 55 29 c73 38 56 38 -20 0 l-59 -30 -4 38 -4 37 -1 -38 -2 -39 -78 4
c-48 2 -79 -1 -79 -7 0 -6 30 -9 78 -7 l78 4 4 -44 4 -43 1 41 2 42 65 -35
c36 -19 65 -32 65 -29 0 3 -26 19 -57 35 l-58 30 62 1 62 0 4 -42 4 -43 1 43
2 42 1155 0 1155 0 0 -70 0 -70 -1005 0 -1005 0 -1 38 c-1 20 -3 29 -6 20 -7
-28 -19 -21 -21 14 -3 41 -12 50 -12 12 0 -26 -7 -33 -54 -57 l-55 -26 -4 37
-4 37 -1 -38 -2 -39 -78 4 c-48 2 -79 -1 -79 -7 0 -6 30 -9 78 -7 l78 4 4 -44
4 -43 1 41 2 42 65 -35 c36 -19 65 -32 65 -29 0 3 -26 19 -57 35 l-58 30 62 1
62 0 4 -42 4 -43 1 43 2 42 1005 0 1005 0 0 -70 0 -70 -894 0 -895 0 1 30 c1
17 -2 33 -5 37 -4 3 -7 -1 -7 -10 0 -31 -16 -18 -18 15 -3 41 -12 50 -12 12 0
-26 -7 -33 -54 -57 l-55 -26 -4 37 -4 37 -1 -38 -2 -39 -78 4 c-48 2 -79 -1
-79 -7 0 -6 30 -9 78 -7 l78 4 4 -44 4 -43 1 41 2 42 65 -35 c36 -19 65 -32
65 -29 0 3 -26 19 -57 35 l-58 30 62 1 62 0 4 -42 4 -43 1 43 2 42 895 0 895
0 0 -70 0 -70 -780 0 -780 0 -1 38 c-1 20 -3 29 -6 20 -7 -28 -19 -21 -21 14
-3 41 -12 50 -12 12 0 -26 -7 -33 -54 -57 l-55 -26 -4 37 -4 37 -1 -38 -2 -39
-78 4 c-48 2 -79 -1 -79 -7 0 -6 30 -9 78 -7 l78 4 4 -44 4 -43 1 41 2 42 65
-35 c36 -19 65 -32 65 -29 0 3 -26 19 -57 35 l-58 30 62 1 62 0 4 -42 4 -43 1
43 2 42 780 0 780 0 0 -70 0 -70 -669 0 -670 0 1 30 c1 17 -2 33 -5 37 -4 3
-7 -1 -7 -10 0 -31 -16 -18 -18 15 -3 41 -12 50 -12 12 0 -26 -7 -33 -54 -57
l-55 -26 -4 37 -4 37 -1 -38 -2 -39 -78 4 c-48 2 -79 -1 -79 -7 0 -6 30 -9 78
-7 l78 4 4 -44 4 -43 1 41 2 42 65 -35 c36 -19 65 -32 65 -29 0 3 -26 19 -57
35 l-58 30 62 1 62 0 4 -42 4 -43 1 43 2 42 670 0 670 0 0 -70 0 -70 -559 0
-560 0 -4 38 -4 37 -1 -37 -2 -38 -57 0 -58 1 55 30 c30 17 47 28 37 25 -15
-5 -17 -2 -13 17 4 16 3 16 -6 -4 -13 -32 -98 -78 -98 -54 0 8 7 15 15 15 15
0 41 38 32 47 -3 2 -8 -5 -12 -16 -10 -31 -25 -25 -25 10 0 24 4 30 16 25 8
-3 12 -2 9 4 -20 33 -45 -10 -45 -77 0 -25 -1 -25 -78 -21 -48 2 -79 -1 -79
-7 0 -6 30 -9 78 -7 l78 4 4 -44 4 -43 1 43 c2 37 4 41 20 31 13 -8 16 -21 13
-55 -3 -41 -1 -44 20 -43 17 1 19 3 7 6 -20 5 -25 33 -5 33 8 0 7 3 -3 10 -21
13 -5 24 25 16 20 -5 25 -13 25 -36 0 -20 5 -30 15 -30 20 0 35 32 35 74 l0
36 560 0 560 0 0 -71 0 -71 -118 4 c-75 2 -119 -1 -119 -7 0 -6 44 -9 119 -7
l118 4 0 -71 0 -71 -519 0 -520 0 1 30 c1 17 -2 33 -5 37 -4 3 -7 -1 -7 -10 0
-31 -16 -18 -18 15 -3 41 -12 50 -12 12 0 -26 -7 -33 -54 -57 l-55 -26 -4 37
-4 37 -1 -38 -2 -39 -78 4 c-48 2 -79 -1 -79 -7 0 -6 30 -9 78 -7 l78 4 4 -44
4 -43 1 41 2 42 65 -35 c36 -19 65 -32 65 -29 0 3 -26 19 -57 35 l-58 30 62 1
62 0 4 -42 4 -43 1 43 2 42 520 0 520 0 0 -70 0 -70 -409 0 -410 0 -4 38 -4
37 -1 -37 -2 -38 -57 0 -58 1 55 29 c73 38 56 38 -20 0 l-59 -30 -4 38 -4 37
-1 -38 -2 -39 -78 4 c-48 2 -79 -1 -79 -7 0 -6 30 -9 78 -7 l78 4 4 -44 4 -43
1 41 2 42 65 -35 c36 -19 65 -32 65 -29 0 3 -26 19 -57 35 l-58 30 62 1 62 0
4 -42 4 -43 1 43 2 42 410 0 410 0 0 -70 0 -70 -259 0 -260 0 -4 38 -4 37 -1
-37 -2 -38 -57 0 -58 1 55 29 c73 38 56 38 -20 0 l-59 -30 -4 38 -4 37 -1 -38
-2 -39 -78 4 c-48 2 -79 -1 -79 -7 0 -6 30 -9 78 -7 l78 4 4 -44 4 -43 1 41 2
42 65 -35 c36 -19 65 -32 65 -29 0 3 -26 19 -57 35 l-58 30 62 1 62 0 4 -42 4
-43 1 43 2 42 260 0 260 0 0 -70 0 -70 -367 1 c-203 1 -379 4 -393 8 -31 9
-43 49 -21 76 8 11 -4 2 -27 -20 -23 -21 -42 -41 -42 -44 0 -2 11 6 25 19 l25
23 0 -31 c0 -36 1 -36 -34 -23 -13 6 -26 20 -29 33 -3 17 -5 15 -6 -9 l-1 -33
-280 0 -280 0 0 -1955 0 -1955 150 0 150 0 0 -75 0 -75 115 0 115 0 0 -75 0
-75 75 0 75 0 0 -75 0 -75 1235 0 1235 0 0 -75 0 -75 230 0 230 0 0 680 0 680
-230 0 -230 0 0 -34 c0 -19 -6 -37 -12 -39 -10 -4 -10 -6 0 -6 6 -1 12 -12 12
-26 0 -14 -6 -25 -12 -25 -9 0 -8 -4 2 -10 11 -7 7 -10 -17 -10 l-33 0 0 185
0 185 560 0 560 0 0 35 0 35 75 0 75 0 0 115 0 115 40 0 40 0 0 450 0 450 145
0 145 0 0 -150 0 -150 445 0 445 0 0 -115 0 -115 230 0 230 0 0 455 0 455
-230 0 -230 0 0 -74 c0 -50 -4 -76 -12 -79 -10 -4 -10 -6 0 -6 6 -1 12 -10 12
-21 0 -11 -6 -20 -12 -20 -9 0 -8 -4 2 -10 10 -7 -32 -10 -127 -10 l-143 0 0
2210 0 2210 -1245 0 -1245 0 0 -115 0 -115 -146 0 -146 0 4 118 c2 75 -1 119
-7 119 -6 0 -9 -44 -7 -119 l4 -118 -147 0 -147 0 4 118 c2 75 -1 119 -7 119
-6 0 -9 -44 -7 -119z m3082 -2108 l0 -2210 145 0 c145 0 145 0 145 -23 0 -13
-6 -29 -12 -36 -10 -11 -10 -13 0 -7 15 9 17 -40 1 -50 -8 -4 -7 -9 2 -15 8
-5 -111 -9 -278 -9 l-293 0 0 1535 0 1535 -675 0 -675 0 0 635 0 635 -415 0
-415 0 0 110 0 110 1235 0 1235 0 0 -2210z m-2822 1964 c-25 -13 -28 -20 -28
-69 0 -42 -3 -55 -15 -55 -11 0 -15 12 -15 43 l-1 42 -34 -37 -35 -38 0 35 c0
24 -5 35 -15 35 -8 0 -15 -8 -15 -17 0 -15 2 -16 10 -3 7 11 10 5 10 -22 0
-27 -4 -38 -15 -38 -10 0 -15 16 -18 58 l-3 57 -2 -62 c-2 -57 0 -63 18 -63
16 0 20 -7 20 -35 0 -19 4 -35 10 -35 5 0 7 14 3 33 l-6 32 37 -34 36 -35 0
37 c0 30 4 37 20 37 18 0 20 7 20 58 0 96 -30 92 630 92 l560 0 0 -1940 0
-1940 -1120 0 -1120 0 0 1940 0 1940 548 0 c489 -1 544 -3 520 -16z m-68 -126
l0 -62 -30 29 -29 28 27 33 c15 18 28 33 30 33 1 1 2 -27 2 -61z m-3039 -1088
c5 0 9 -7 9 -15 0 -12 -13 -15 -57 -15 l-58 1 35 19 c19 11 41 17 48 15 8 -3
18 -5 23 -5z m5629 -1570 l0 -1530 -145 0 -145 0 0 1460 0 1460 -525 0 -525 0
0 70 0 70 670 0 670 0 0 -1530z m-5409 1420 c5 0 9 -7 9 -15 0 -12 -13 -15
-57 -15 l-58 1 35 19 c19 11 41 17 48 15 8 -3 18 -5 23 -5z m5109 -1495 l0
-1455 -145 0 -145 0 0 1085 0 1085 -375 0 -375 0 0 71 0 71 113 -4 c71 -2 114
1 114 7 0 6 -43 9 -114 7 l-113 -4 0 72 0 72 113 -4 c71 -2 114 1 114 7 0 6
-43 9 -114 7 l-113 -4 0 72 0 72 113 -4 c71 -2 114 1 114 7 0 6 -43 9 -114 7
l-113 -4 0 72 0 72 113 -4 c71 -2 114 1 114 7 0 6 -43 9 -114 7 l-113 -4 0 71
0 71 520 0 520 0 0 -1455z m-4879 1345 c5 0 9 -7 9 -15 0 -12 -13 -15 -57 -15
l-58 1 35 19 c19 11 41 17 48 15 8 -3 18 -5 23 -5z m220 -150 c5 0 9 -7 9 -15
0 -12 -13 -15 -57 -15 l-58 1 35 19 c19 11 41 17 48 15 8 -3 18 -5 23 -5z
m225 -232 c-3 -24 -5 -46 -5 -50 -1 -5 -6 -8 -12 -8 -13 0 -8 52 6 63 6 5 -1
6 -15 3 -14 -2 -40 3 -60 14 l-35 19 63 1 63 0 -5 -42z m75 -218 c5 0 9 -7 9
-15 0 -12 -13 -15 -57 -15 l-58 1 35 19 c19 11 41 17 48 15 8 -3 18 -5 23 -5z
m4059 -1120 l0 -1080 -35 0 -35 0 0 710 0 710 -150 0 -150 0 0 75 0 75 -185 0
-185 0 0 146 0 146 113 -4 c71 -2 114 1 114 7 0 6 -43 9 -114 7 l-113 -4 0
146 0 146 370 0 370 0 0 -1080z m-3000 560 l0 -70 -565 0 -565 0 0 -1875 0
-1875 -145 0 -145 0 0 1945 0 1945 710 0 710 0 0 -70z m0 -150 l0 -70 -450 0
-450 0 0 -1800 0 -1800 -110 0 -110 0 0 1870 0 1870 560 0 560 0 0 -70z m2620
0 l0 -70 -180 0 -180 0 0 70 0 70 180 0 180 0 0 -70z m-2620 -150 l0 -70 -375
0 -375 0 0 -1725 0 -1725 -70 0 -70 0 0 1795 0 1795 445 0 445 0 0 -70z m2620
0 l0 -70 -180 0 -180 0 0 70 0 70 180 0 180 0 0 -70z m300 -635 l0 -705 -70 0
-70 0 0 635 0 635 -75 0 -75 0 0 70 0 70 145 0 145 0 0 -705z m-2920 485 l0
-70 -300 0 -300 0 0 -980 0 -980 635 0 635 0 0 -145 0 -145 -260 0 -260 0 0
-230 0 -230 490 0 490 0 0 245 0 245 23 1 22 0 -22 9 c-23 9 -32 40 -13 40 5
0 7 -8 3 -17 -5 -15 -3 -14 10 2 14 18 14 20 -4 23 -18 3 -19 17 -19 506 0
377 3 505 12 514 9 9 188 12 745 12 l733 0 0 -445 0 -445 -635 0 -635 0 0
-570 0 -570 185 0 c178 0 185 -1 185 -20 0 -11 -4 -20 -10 -20 -5 0 -10 -12
-10 -26 0 -14 4 -23 10 -19 6 3 10 -3 10 -15 0 -14 -4 -19 -12 -14 -9 5 -9 2
1 -9 13 -16 -63 -17 -1218 -17 l-1231 0 0 1720 0 1720 370 0 370 0 0 -70z
m2620 -560 l0 -630 -733 0 c-557 0 -736 3 -745 12 -9 9 -12 72 -12 220 l0 208
565 0 565 0 0 261 0 261 113 -4 c71 -2 114 1 114 7 0 6 -43 9 -114 7 l-113 -4
0 146 0 146 180 0 180 0 0 -630z m150 0 l0 -630 -70 0 -70 0 0 630 0 630 70 0
70 0 0 -630z m-2770 409 l0 -71 -118 4 c-75 2 -119 -1 -119 -7 0 -6 44 -9 119
-7 l118 4 0 -261 0 -261 560 0 560 0 0 -205 c0 -145 -4 -211 -12 -225 -10 -15
-10 -22 0 -32 15 -15 18 -918 3 -918 -6 0 -11 19 -13 42 -3 38 -4 40 -18 23
-9 -11 -10 -16 -2 -11 8 5 12 -1 12 -23 0 -16 -6 -32 -12 -34 -7 -3 -1 -6 15
-6 l27 -1 0 -315 0 -315 -480 0 -480 0 0 220 0 220 254 0 255 0 4 -22 c2 -13
5 63 6 169 1 190 1 192 24 196 19 4 18 4 -5 6 -22 1 -28 -4 -28 -19 0 -20 -7
-20 -630 -20 l-630 0 0 970 0 970 295 0 295 0 0 -71z m4640 -1124 l0 -445
-220 0 -220 0 0 110 0 110 43 2 42 1 -42 4 c-33 3 -43 8 -42 21 0 12 2 13 6 3
8 -21 22 7 15 32 -5 20 -6 20 -13 1 -5 -13 -8 -2 -8 34 l-1 52 43 2 42 1 -45
6 c-32 4 -40 8 -27 13 9 4 17 13 17 19 0 7 -8 21 -17 32 -10 11 -13 17 -6 14
6 -4 14 -3 18 3 3 5 -1 10 -9 10 -10 0 -16 9 -16 25 0 22 4 25 43 27 l42 1
-45 5 c-35 3 -41 6 -25 12 17 7 17 9 3 9 -23 1 -23 9 -1 34 17 18 17 19 0 32
-9 6 -17 22 -17 34 0 18 6 21 43 23 l42 1 -45 5 c-35 3 -41 6 -25 12 17 7 17
9 3 9 -16 1 -18 12 -18 96 l0 95 220 0 220 0 0 -445z m-425 156 c3 -5 1 -12
-5 -16 -5 -3 -10 1 -10 9 0 18 6 21 15 7z m-1445 -526 l0 -445 -70 0 -70 0 0
445 0 445 70 0 70 0 0 -445z m150 0 l0 -445 -70 0 -70 0 0 445 0 445 70 0 70
0 0 -445z m80 0 l0 -445 -35 0 -35 0 0 445 0 445 35 0 35 0 0 -445z m600 370
l0 -75 296 0 296 0 -4 -47 c-1 -27 -7 -51 -13 -55 -6 -5 -5 -8 3 -8 6 0 12 -7
12 -15 0 -13 -56 -15 -440 -15 l-440 0 0 145 0 145 145 0 145 0 0 -75z m590
50 c0 -14 -6 -25 -12 -26 -10 0 -10 -2 0 -6 6 -2 12 -18 12 -34 0 -16 -5 -29
-12 -29 -9 0 -8 -4 2 -10 10 -6 -85 -10 -277 -10 l-293 0 0 70 0 70 290 0 290
0 0 -25z m30 -80 c0 -8 -4 -15 -10 -15 -5 0 -10 7 -10 15 0 8 5 15 10 15 6 0
10 -7 10 -15z m-1600 -865 l0 -70 -600 0 -600 0 0 -420 0 -420 151 0 151 0 -4
-42 c-1 -24 -7 -46 -13 -50 -6 -5 -5 -8 3 -8 6 0 12 -9 12 -20 0 -19 -7 -20
-180 -20 l-180 0 0 560 0 560 630 0 630 0 0 -70z m150 -40 l0 -110 -600 0
-600 0 0 -305 0 -305 75 0 c68 0 75 -2 75 -20 0 -11 -6 -20 -12 -21 -10 0 -10
-2 0 -6 6 -2 12 -20 12 -39 0 -26 -3 -33 -12 -28 -9 5 -9 2 1 -9 12 -16 3 -17
-133 -17 l-146 0 0 410 0 410 600 0 600 0 0 75 0 75 70 0 70 0 0 -110z m150 0
l0 -110 -70 0 -70 0 0 110 0 110 70 0 70 0 0 -110z m-150 -150 l0 -30 -560 0
-560 0 0 -195 0 -195 35 0 c27 0 35 -4 35 -18 0 -10 -6 -24 -12 -31 -10 -11
-10 -13 0 -7 15 9 17 -31 2 -54 -6 -9 -5 -17 3 -22 7 -4 -21 -8 -60 -8 l-73 0
0 295 0 295 595 0 595 0 0 -30z m-600 -940 l0 -670 -220 0 -220 0 0 70 0 70
43 2 42 1 -45 6 c-28 4 -40 9 -32 14 14 10 16 73 2 82 -5 3 -10 15 -10 26 0
15 8 19 43 21 l42 1 -41 4 -41 4 -1 44 c0 25 4 45 9 45 4 0 6 -8 3 -17 -5 -15
-4 -16 5 -3 15 21 14 30 -4 30 -8 0 -15 9 -15 20 0 17 7 20 43 22 l42 1 -45 6
c-28 4 -40 9 -32 14 6 5 12 19 12 32 0 13 -6 26 -12 28 -10 4 -9 8 2 16 10 7
11 11 3 11 -7 0 -13 9 -13 20 0 17 7 20 43 22 l42 1 -45 6 c-28 4 -40 9 -32
14 6 5 12 19 12 32 0 13 -6 26 -12 28 -10 4 -9 8 2 16 10 7 11 11 3 11 -7 0
-13 9 -13 20 0 17 7 20 43 22 l42 1 -42 4 c-37 4 -43 7 -42 26 0 21 1 21 8 3
7 -19 8 -19 13 1 7 25 -7 53 -15 32 -3 -8 -6 7 -6 34 l-1 47 43 2 42 1 -45 6
c-29 4 -40 9 -32 14 13 9 13 87 0 87 -5 0 -8 9 -8 20 0 17 7 20 43 22 l42 1
-45 7 c-25 4 -38 8 -30 9 12 1 12 3 2 10 -10 6 -11 13 -1 35 10 20 10 29 1 38
-7 7 -12 20 -12 30 0 14 9 18 43 20 l42 1 -45 4 c-31 3 -40 7 -30 14 10 6 11
9 3 9 -9 0 -13 19 -13 60 l0 60 220 0 220 0 0 -670z m-433 448 c-3 -8 -6 -5
-6 6 -1 11 2 17 5 13 3 -3 4 -12 1 -19z m0 -190 c-3 -7 -5 -2 -5 12 0 14 2 19
5 13 2 -7 2 -19 0 -25z m0 -300 c-3 -7 -5 -2 -5 12 0 14 2 19 5 13 2 -7 2 -19
0 -25z m-2637 -108 l0 -70 -110 0 -110 0 0 70 0 70 110 0 110 0 0 -70z m150 0
l0 -70 -70 0 -70 0 0 70 0 70 70 0 70 0 0 -70z m2470 46 c0 -14 -4 -28 -10
-31 -5 -3 -10 -19 -10 -36 0 -16 5 -29 10 -29 6 0 10 -4 10 -10 0 -7 -417 -10
-1230 -10 l-1230 0 0 70 0 70 1230 0 1230 0 0 -24z m-3 -78 c-3 -8 -6 -5 -6 6
-1 11 2 17 5 13 3 -3 4 -12 1 -19z m20 -10 c-3 -7 -5 -2 -5 12 0 14 2 19 5 13
2 -7 2 -19 0 -25z m-2487 -108 l0 -70 -70 0 -70 0 0 70 0 70 70 0 70 0 0 -70z
m2470 50 c0 -11 -6 -20 -12 -21 -10 0 -10 -2 0 -6 7 -3 12 -23 12 -49 l0 -44
-1230 0 -1230 0 0 70 0 70 1230 0 c1223 0 1230 0 1230 -20z m0 -155 c0 -14 -4
-25 -10 -25 -5 0 -10 -16 -10 -35 0 -19 5 -35 10 -35 6 0 10 -4 10 -10 0 -7
-417 -10 -1230 -10 l-1230 0 0 70 0 70 1230 0 1230 0 0 -25z m17 -87 c-3 -7
-5 -2 -5 12 0 14 2 19 5 13 2 -7 2 -19 0 -25z"/>
<path d="M5328 6473 c28 -6 28 -20 0 -50 l-21 -23 29 1 c23 0 25 2 11 8 -17 6
-17 8 -3 20 9 7 16 22 16 32 0 14 -7 19 -27 18 -24 -2 -25 -2 -5 -6z"/>
<path d="M5390 6465 c-9 -11 -10 -16 -2 -11 8 5 12 0 12 -18 0 -13 -6 -27 -12
-29 -7 -3 3 -5 22 -5 19 0 27 2 18 5 -11 3 -18 17 -20 40 -3 34 -4 35 -18 18z"/>
<path d="M3793 7574 c-3 -8 1 -22 10 -31 13 -14 17 -13 33 12 17 25 19 26 31
9 7 -10 13 -13 13 -7 0 6 -6 16 -14 22 -12 10 -18 7 -31 -13 -19 -28 -40 -25
-32 5 6 23 -1 25 -10 3z"/>
<path d="M4093 7574 c-3 -8 1 -22 10 -31 13 -14 17 -13 33 12 17 25 19 26 31
9 7 -10 13 -13 13 -7 0 16 -24 33 -36 25 -6 -4 -13 -15 -17 -25 -9 -24 -30
-11 -24 14 6 23 -1 25 -10 3z"/>
<path d="M4390 7561 c0 -17 2 -31 4 -31 8 0 13 51 5 56 -5 3 -9 -9 -9 -25z"/>
<path d="M4422 7577 c-7 -8 -9 -17 -5 -20 3 -4 11 1 18 10 16 21 38 7 31 -20
-4 -15 -2 -17 7 -8 8 8 9 16 1 29 -14 22 -38 26 -52 9z"/>
<path d="M3815 7501 c3 -2 -3 -14 -12 -25 -18 -20 -18 -20 8 -4 14 9 36 18 50
20 19 3 16 5 -13 9 -21 3 -35 3 -33 0z"/>
<path d="M4131 7503 c51 -5 47 -26 -7 -34 l-39 -7 45 2 c38 1 45 4 45 21 0 17
-7 20 -43 21 l-42 1 41 -4z"/>
<path d="M4433 7503 c9 -2 15 -9 12 -14 -8 -11 6 -12 23 0 10 6 8 10 -10 14
-12 4 -27 6 -33 6 -5 -1 -2 -3 8 -6z"/>
<path d="M3091 7466 c-10 -12 -7 -18 13 -31 28 -19 25 -40 -5 -32 -11 3 -17 1
-13 -4 8 -14 30 -11 43 5 10 12 7 18 -14 32 -26 17 -26 19 -9 31 10 7 13 13 7
13 -6 0 -16 -6 -22 -14z"/>
<path d="M3211 7464 c0 -11 3 -14 6 -6 3 7 2 16 -1 19 -3 4 -6 -2 -5 -13z"/>
<path d="M3252 7468 c-31 -31 0 -90 35 -69 16 9 15 10 -7 8 -22 -2 -25 2 -25
28 0 26 3 30 25 27 19 -2 22 0 10 8 -19 13 -24 12 -38 -2z"/>
<path d="M3322 7438 c-2 -44 0 -48 21 -47 16 1 17 3 5 6 -12 3 -18 17 -21 46
l-4 42 -1 -47z"/>
<path d="M3383 7435 c0 -27 2 -39 4 -26 l5 25 19 -25 20 -24 -12 26 c-8 20 -8
32 1 50 13 24 13 24 -8 6 -20 -18 -20 -18 -25 0 -3 10 -5 -4 -4 -32z"/>
<path d="M3181 7450 c0 -8 6 -26 14 -40 8 -14 14 -19 14 -10 0 8 -6 26 -14 40
-8 14 -14 19 -14 10z"/>
<path d="M3161 7440 c0 -8 4 -24 9 -35 l9 -20 0 20 c0 11 -4 27 -9 35 -9 13
-10 13 -9 0z"/>
<path d="M3794 7435 c-14 -35 28 -49 46 -15 13 24 34 16 25 -9 -5 -12 -3 -13
6 -4 15 15 5 43 -15 43 -9 0 -20 -9 -26 -20 -12 -22 -35 -17 -26 6 3 8 3 14 0
14 -2 0 -7 -7 -10 -15z"/>
<path d="M4391 7420 c1 -18 3 -20 6 -7 3 10 11 16 18 13 8 -3 15 0 17 6 3 7
12 9 22 5 12 -5 16 -13 11 -25 -5 -13 -3 -14 6 -5 23 23 3 43 -41 40 -36 -2
-40 -5 -39 -27z"/>
<path d="M4120 7431 c-14 -4 -26 -15 -28 -24 -3 -14 5 -17 42 -17 47 0 59 13
34 38 -13 13 -12 13 -48 3z m48 -19 c2 -7 -3 -12 -12 -12 -9 0 -16 7 -16 16 0
17 22 14 28 -4z m-38 -2 c0 -5 -7 -10 -15 -10 -8 0 -15 5 -15 10 0 6 7 10 15
10 8 0 15 -4 15 -10z"/>
<path d="M3845 7360 c3 -5 -2 -10 -11 -10 -10 0 -15 -2 -12 -5 3 -4 18 -3 33
1 20 5 23 9 13 15 -18 12 -31 11 -23 -1z"/>
<path d="M4133 7353 c9 -2 15 -9 12 -14 -8 -11 6 -12 23 0 10 6 8 10 -10 14
-12 4 -27 6 -33 6 -5 -1 -2 -3 8 -6z"/>
<path d="M3091 7316 c-10 -12 -7 -18 13 -31 28 -19 25 -40 -5 -32 -11 3 -17 1
-13 -4 8 -13 30 -11 42 4 13 15 4 31 -23 41 -20 7 -20 8 -1 22 11 8 15 14 9
14 -6 0 -16 -6 -22 -14z"/>
<path d="M3211 7314 c0 -11 3 -14 6 -6 3 7 2 16 -1 19 -3 4 -6 -2 -5 -13z"/>
<path d="M3240 7285 c0 -25 4 -45 9 -45 19 0 41 12 41 23 0 7 -4 7 -12 -1 -20
-20 -28 -14 -28 23 0 40 12 45 34 13 9 -12 16 -17 16 -11 0 16 -29 43 -46 43
-10 0 -14 -13 -14 -45z"/>
<path d="M3323 7285 c0 -27 2 -38 4 -22 2 15 2 37 0 50 -2 12 -4 0 -4 -28z"/>
<path d="M3363 7323 c-7 -2 -13 -20 -13 -38 0 -34 17 -49 45 -39 21 8 20 70
-1 78 -9 3 -16 6 -17 5 -1 0 -8 -3 -14 -6z m32 -39 c0 -19 -5 -29 -15 -29 -16
0 -25 28 -16 51 10 25 31 10 31 -22z"/>
<path d="M3181 7300 c0 -8 6 -26 14 -40 8 -14 14 -19 14 -10 0 8 -6 26 -14 40
-8 14 -14 19 -14 10z"/>
<path d="M3808 7303 c-2 -5 -1 -24 2 -43 l6 -35 5 38 c5 34 -4 59 -13 40z"/>
<path d="M3847 7304 c-3 -3 -3 -13 0 -21 3 -8 0 -19 -8 -24 -11 -7 -11 -9 2
-9 10 0 19 10 21 25 5 25 -3 40 -15 29z"/>
<path d="M3161 7290 c0 -8 4 -24 9 -35 l9 -20 0 20 c0 11 -4 27 -9 35 -9 13
-10 13 -9 0z"/>
<path d="M4108 7288 c-2 -7 -1 -29 2 -48 l6 -35 5 38 c5 38 -4 71 -13 45z"/>
<path d="M4149 7290 c-1 -8 0 -21 1 -29 1 -8 -4 -18 -12 -23 -11 -8 -10 -9 1
-6 19 5 31 41 20 59 -7 12 -9 12 -10 -1z"/>
<path d="M3091 6983 c1 -27 4 -38 6 -25 l4 22 20 -22 c16 -18 18 -19 11 -4 -7
13 -6 26 2 38 9 15 8 21 -4 28 -31 20 -40 11 -39 -37z m37 19 c2 -7 -3 -12
-12 -12 -9 0 -16 7 -16 16 0 17 22 14 28 -4z"/>
<path d="M3161 6994 c-1 -31 3 -44 16 -48 25 -10 35 7 30 50 l-4 39 -1 -43
c-2 -55 -24 -52 -33 4 l-6 39 -2 -41z"/>
<path d="M3240 6985 c0 -27 2 -46 5 -44 7 8 9 78 2 85 -4 4 -7 -14 -7 -41z"/>
<path d="M3278 6995 c-2 -19 0 -41 4 -48 4 -7 8 9 8 36 0 55 -6 62 -12 12z"/>
<path d="M3350 7010 l-35 -6 38 -5 c21 -3 40 -2 43 2 7 12 -9 15 -46 9z"/>
<path d="M3340 6978 c0 -11 8 -18 20 -18 11 0 22 0 25 0 3 0 4 3 3 8 -1 4 -9
6 -17 4 -7 -2 -18 2 -22 10 -7 10 -9 9 -9 -4z"/>
<path d="M3080 6876 c0 -8 51 -13 56 -5 3 5 -9 9 -25 9 -17 0 -31 -2 -31 -4z"/>
<path d="M3223 6873 c19 -3 27 -9 23 -18 -3 -8 0 -15 6 -17 7 -3 9 -12 5 -22
-5 -12 -13 -16 -29 -11 -20 5 -21 5 -5 -5 31 -20 47 -5 44 40 -2 39 -3 40 -37
38 -31 -1 -32 -1 -7 -5z"/>
<path d="M3350 6835 c0 -43 1 -45 28 -44 23 2 24 2 5 6 -27 5 -31 30 -5 36 16
4 16 5 0 6 -26 2 -22 29 5 34 19 4 18 4 -5 6 -27 1 -28 -1 -28 -44z"/>
<path d="M3420 6835 c0 -27 2 -46 5 -44 7 8 9 78 2 85 -4 4 -7 -14 -7 -41z"/>
<path d="M3458 6845 c-2 -19 0 -41 4 -48 4 -7 8 9 8 36 0 55 -6 62 -12 12z"/>
<path d="M3530 6860 l-35 -6 38 -5 c21 -3 40 -2 43 2 7 12 -9 15 -46 9z"/>
<path d="M3107 6854 c-4 -4 1 -12 10 -19 21 -16 7 -38 -20 -31 -14 3 -17 2 -9
-6 13 -13 40 -4 49 18 6 17 -19 49 -30 38z"/>
<path d="M3166 6825 c2 -11 4 -24 4 -30 0 -5 5 -3 10 5 12 19 13 33 1 25 -5
-3 -11 0 -14 7 -2 7 -3 4 -1 -7z"/>
<path d="M3510 6831 c0 -6 6 -14 13 -16 28 -9 46 -9 46 0 0 6 -7 9 -15 7 -9
-2 -22 2 -30 9 -10 8 -14 8 -14 0z"/>
<path d="M3293 6793 c9 -2 25 -2 35 0 9 3 1 5 -18 5 -19 0 -27 -2 -17 -5z"/>
<path d="M3090 6559 c-7 -11 -9 -23 -7 -26 3 -2 8 5 12 16 3 11 16 22 28 24
l22 4 -22 2 c-13 0 -27 -7 -33 -20z"/>
<path d="M3161 6533 c1 -27 4 -38 6 -25 3 14 12 22 24 22 14 0 19 7 19 25 0
20 -5 25 -25 25 -23 0 -25 -3 -24 -47z m39 22 c0 -8 -7 -15 -15 -15 -8 0 -15
7 -15 15 0 8 7 15 15 15 8 0 15 -7 15 -15z"/>
<path d="M3243 6535 c0 -27 2 -38 4 -22 2 15 2 37 0 50 -2 12 -4 0 -4 -28z"/>
<path d="M3277 6573 c-4 -3 -7 -21 -7 -39 0 -33 25 -53 43 -35 6 6 2 9 -9 8
-15 -2 -20 6 -22 32 -3 30 -1 33 17 28 12 -3 21 -1 21 4 0 10 -33 12 -43 2z"/>
<path d="M3354 6566 c-9 -25 0 -71 15 -71 21 0 35 29 27 58 -7 29 -33 36 -42
13z m31 -29 c0 -39 -19 -38 -23 2 -3 24 0 32 10 29 7 -3 13 -17 13 -31z"/>
<path d="M3450 6560 l-35 -6 38 -5 c20 -3 42 -2 48 2 17 10 -12 16 -51 9z"/>
<path d="M3321 6534 c0 -11 3 -14 6 -6 3 7 2 16 -1 19 -3 4 -6 -2 -5 -13z"/>
<path d="M3116 6532 c6 -4 14 -14 17 -22 4 -10 6 -8 6 8 1 15 -5 22 -16 22
-11 0 -14 -3 -7 -8z"/>
<path d="M3440 6532 c0 -15 39 -32 58 -24 11 4 11 6 1 12 -7 5 -19 6 -27 3 -8
-3 -18 0 -23 8 -6 10 -9 11 -9 1z"/>
<path d="M3090 6511 c0 -5 7 -12 16 -15 14 -5 15 -4 4 9 -14 17 -20 19 -20 6z"/>
<path d="M3090 6409 c-7 -11 -9 -23 -7 -26 3 -2 8 5 12 16 3 11 16 22 28 24
l22 4 -22 2 c-13 0 -27 -7 -33 -20z"/>
<path d="M3161 6383 c1 -27 4 -38 6 -25 3 14 12 22 24 22 14 0 19 7 19 25 0
20 -5 25 -25 25 -23 0 -25 -3 -24 -47z m39 22 c0 -8 -7 -15 -15 -15 -8 0 -15
7 -15 15 0 8 7 15 15 15 8 0 15 -7 15 -15z"/>
<path d="M3243 6385 c0 -27 2 -38 4 -22 2 15 2 37 0 50 -2 12 -4 0 -4 -28z"/>
<path d="M3277 6423 c-4 -3 -7 -21 -7 -39 0 -33 25 -53 43 -35 6 6 2 9 -9 8
-15 -2 -20 6 -22 32 -3 30 -1 33 17 28 12 -3 21 -1 21 4 0 10 -33 12 -43 2z"/>
<path d="M3360 6415 c-9 -11 -10 -16 -2 -11 8 5 12 -1 12 -23 0 -16 -6 -32
-12 -34 -7 -3 1 -6 17 -6 17 0 25 3 18 7 -6 4 -13 25 -15 46 -3 37 -4 38 -18
21z"/>
<path d="M4810 6409 c-7 -11 -9 -23 -7 -26 3 -2 8 5 12 16 3 11 16 22 28 24
l22 4 -22 2 c-13 0 -27 -7 -33 -20z"/>
<path d="M4881 6383 c1 -27 4 -38 6 -25 3 13 12 22 23 22 10 0 21 4 24 9 11
18 -6 41 -30 41 -22 0 -24 -4 -23 -47z m42 22 c1 -5 -6 -11 -15 -13 -11 -2
-18 3 -18 13 0 17 30 18 33 0z"/>
<path d="M4963 6385 c0 -27 2 -38 4 -22 2 15 2 37 0 50 -2 12 -4 0 -4 -28z"/>
<path d="M4997 6424 c-13 -14 -7 -72 8 -78 30 -11 46 5 43 43 -2 27 -8 37 -23
39 -12 2 -24 0 -28 -4z m41 -36 c-2 -21 -8 -33 -18 -33 -10 0 -16 12 -18 33
-3 27 0 32 18 32 18 0 21 -5 18 -32z"/>
<path d="M5081 6417 c-9 -11 -10 -17 -2 -17 15 0 14 -47 -1 -53 -7 -3 1 -6 17
-6 17 0 25 3 18 7 -6 4 -13 25 -15 46 -3 35 -5 37 -17 23z"/>
<path d="M5144 6406 c-9 -37 -1 -61 21 -61 14 0 21 8 23 27 3 21 -2 27 -20 30
l-23 5 25 11 c24 10 24 11 3 11 -16 1 -24 -6 -29 -23z m36 -37 c0 -24 -23 -21
-28 4 -2 10 3 17 12 17 10 0 16 -9 16 -21z"/>
<path d="M3450 6410 l-35 -6 38 -5 c20 -3 42 -2 48 2 17 10 -12 16 -51 9z"/>
<path d="M4730 6410 l-35 -6 38 -5 c21 -3 40 -2 43 2 7 12 -9 15 -46 9z"/>
<path d="M3321 6384 c0 -11 3 -14 6 -6 3 7 2 16 -1 19 -3 4 -6 -2 -5 -13z"/>
<path d="M3116 6382 c6 -4 14 -14 17 -22 4 -10 6 -8 6 8 1 15 -5 22 -16 22
-11 0 -14 -3 -7 -8z"/>
<path d="M3440 6382 c0 -15 39 -32 58 -24 11 4 11 6 1 12 -7 5 -19 6 -27 3 -8
-3 -18 0 -23 8 -6 10 -9 11 -9 1z"/>
<path d="M4720 6378 c0 -11 8 -18 20 -18 11 0 22 0 25 0 3 0 4 3 3 8 -1 4 -9
6 -17 4 -7 -2 -18 2 -22 10 -7 10 -9 9 -9 -4z"/>
<path d="M4847 6370 c6 -22 -7 -26 -25 -8 -8 8 -12 8 -12 1 0 -13 28 -25 41
-17 12 7 12 44 0 44 -5 0 -7 -9 -4 -20z"/>
<path d="M3090 6361 c0 -5 7 -12 16 -15 14 -5 15 -4 4 9 -14 17 -20 19 -20 6z"/>
<path d="M3090 6259 c-7 -11 -9 -23 -7 -26 3 -2 8 5 12 16 3 11 16 22 28 24
l22 4 -22 2 c-13 0 -27 -7 -33 -20z"/>
<path d="M3161 6233 c1 -27 4 -38 6 -25 3 14 12 22 24 22 14 0 19 7 19 25 0
20 -5 25 -25 25 -23 0 -25 -3 -24 -47z m39 22 c0 -8 -7 -15 -15 -15 -8 0 -15
7 -15 15 0 8 7 15 15 15 8 0 15 -7 15 -15z"/>
<path d="M3243 6235 c0 -27 2 -38 4 -22 2 15 2 37 0 50 -2 12 -4 0 -4 -28z"/>
<path d="M3277 6273 c-4 -3 -7 -21 -7 -39 0 -33 25 -53 43 -35 6 6 2 9 -9 8
-15 -2 -20 6 -22 32 -3 30 -1 33 17 28 12 -3 21 -1 21 4 0 10 -33 12 -43 2z"/>
<path d="M3350 6271 c0 -5 9 -7 20 -4 29 8 25 -15 -7 -49 l-27 -28 35 1 c25 1
28 3 11 6 l-24 5 22 23 c26 27 21 55 -10 55 -11 0 -20 -4 -20 -9z"/>
<path d="M4810 6259 c-7 -11 -9 -23 -7 -26 3 -2 8 5 12 16 3 11 16 22 28 24
l22 4 -22 2 c-13 0 -27 -7 -33 -20z"/>
<path d="M4881 6233 c1 -27 4 -38 6 -25 3 13 12 22 23 22 10 0 21 4 24 9 11
18 -6 41 -30 41 -22 0 -24 -4 -23 -47z m42 22 c1 -5 -6 -11 -15 -13 -11 -2
-18 3 -18 13 0 17 30 18 33 0z"/>
<path d="M4963 6235 c0 -27 2 -38 4 -22 2 15 2 37 0 50 -2 12 -4 0 -4 -28z"/>
<path d="M4997 6274 c-13 -14 -7 -72 8 -78 30 -11 46 5 43 43 -2 27 -8 37 -23
39 -12 2 -24 0 -28 -4z m41 -36 c-2 -21 -8 -33 -18 -33 -10 0 -16 12 -18 33
-3 27 0 32 18 32 18 0 21 -5 18 -32z"/>
<path d="M5081 6267 c-9 -11 -10 -17 -2 -17 15 0 14 -47 -1 -53 -7 -3 1 -6 17
-6 17 0 25 3 18 7 -6 4 -13 25 -15 46 -3 35 -5 37 -17 23z"/>
<path d="M5153 6273 c9 -2 25 -2 35 0 9 3 1 5 -18 5 -19 0 -27 -2 -17 -5z"/>
<path d="M3450 6260 l-35 -6 38 -5 c20 -3 42 -2 48 2 17 10 -12 16 -51 9z"/>
<path d="M4730 6260 l-35 -6 38 -5 c21 -3 40 -2 43 2 7 12 -9 15 -46 9z"/>
<path d="M3321 6234 c0 -11 3 -14 6 -6 3 7 2 16 -1 19 -3 4 -6 -2 -5 -13z"/>
<path d="M3116 6232 c6 -4 14 -14 17 -22 4 -10 6 -8 6 8 1 15 -5 22 -16 22
-11 0 -14 -3 -7 -8z"/>
<path d="M3440 6232 c0 -15 39 -32 58 -24 11 4 11 6 1 12 -7 5 -19 6 -27 3 -8
-3 -18 0 -23 8 -6 10 -9 11 -9 1z"/>
<path d="M4720 6228 c0 -11 8 -18 20 -18 11 0 22 0 25 0 3 0 4 3 3 8 -1 4 -9
6 -17 4 -7 -2 -18 2 -22 10 -7 10 -9 9 -9 -4z"/>
<path d="M4847 6220 c6 -22 -7 -26 -25 -8 -8 8 -12 8 -12 1 0 -13 28 -25 41
-17 12 7 12 44 0 44 -5 0 -7 -9 -4 -20z"/>
<path d="M3090 6211 c0 -5 7 -12 16 -15 14 -5 15 -4 4 9 -14 17 -20 19 -20 6z"/>
<path d="M3090 6109 c-7 -11 -9 -23 -7 -26 3 -2 8 5 12 16 3 11 16 22 28 24
l22 4 -22 2 c-13 0 -27 -7 -33 -20z"/>
<path d="M3161 6083 c1 -27 4 -38 6 -25 3 14 12 22 24 22 14 0 19 7 19 25 0
20 -5 25 -25 25 -23 0 -25 -3 -24 -47z m39 22 c0 -8 -7 -15 -15 -15 -8 0 -15
7 -15 15 0 8 7 15 15 15 8 0 15 -7 15 -15z"/>
<path d="M3243 6085 c0 -27 2 -38 4 -22 2 15 2 37 0 50 -2 12 -4 0 -4 -28z"/>
<path d="M3277 6123 c-4 -3 -7 -21 -7 -39 0 -33 25 -53 43 -35 6 6 2 9 -9 8
-15 -2 -20 6 -22 32 -3 30 -1 33 17 28 12 -3 21 -1 21 4 0 10 -33 12 -43 2z"/>
<path d="M3340 6126 c0 -8 51 -13 56 -5 3 5 -9 9 -25 9 -17 0 -31 -2 -31 -4z"/>
<path d="M4810 6109 c-7 -11 -9 -23 -7 -26 3 -2 8 5 12 16 3 11 16 22 28 24
l22 4 -22 2 c-13 0 -27 -7 -33 -20z"/>
<path d="M4881 6083 c1 -27 4 -38 6 -25 3 13 12 22 23 22 10 0 21 4 24 9 11
18 -6 41 -30 41 -22 0 -24 -4 -23 -47z m42 22 c1 -5 -6 -11 -15 -13 -11 -2
-18 3 -18 13 0 17 30 18 33 0z"/>
<path d="M4963 6085 c0 -27 2 -38 4 -22 2 15 2 37 0 50 -2 12 -4 0 -4 -28z"/>
<path d="M4997 6124 c-13 -14 -7 -72 8 -78 30 -11 46 5 43 43 -2 27 -8 37 -23
39 -12 2 -24 0 -28 -4z m41 -36 c-2 -21 -8 -33 -18 -33 -10 0 -16 12 -18 33
-3 27 0 32 18 32 18 0 21 -5 18 -32z"/>
<path d="M5081 6117 c-9 -11 -10 -17 -2 -17 15 0 14 -47 -1 -53 -7 -3 1 -6 17
-6 17 0 25 3 18 7 -6 4 -13 25 -15 46 -3 35 -5 37 -17 23z"/>
<path d="M5144 6116 c-3 -8 -4 -27 -2 -43 2 -20 8 -28 23 -28 16 0 21 8 23 43
3 37 1 42 -18 42 -11 0 -23 -6 -26 -14z m36 -6 c0 -5 -7 -10 -15 -10 -8 0 -15
5 -15 10 0 6 7 10 15 10 8 0 15 -4 15 -10z m0 -40 c0 -21 -15 -27 -25 -10 -7
12 2 30 16 30 5 0 9 -9 9 -20z"/>
<path d="M3450 6110 l-35 -6 38 -5 c20 -3 42 -2 48 2 17 10 -12 16 -51 9z"/>
<path d="M4730 6110 l-35 -6 38 -5 c21 -3 40 -2 43 2 7 12 -9 15 -46 9z"/>
<path d="M3365 6100 c-3 -5 1 -10 10 -10 10 0 15 -6 13 -17 -3 -12 -12 -17
-28 -15 -18 2 -22 0 -13 -9 17 -17 48 -7 51 17 3 24 -22 51 -33 34z"/>
<path d="M3321 6084 c0 -11 3 -14 6 -6 3 7 2 16 -1 19 -3 4 -6 -2 -5 -13z"/>
<path d="M3116 6082 c6 -4 14 -14 17 -22 4 -10 6 -8 6 8 1 15 -5 22 -16 22
-11 0 -14 -3 -7 -8z"/>
<path d="M3440 6081 c0 -14 40 -30 58 -23 11 4 11 6 1 13 -7 4 -17 5 -21 2 -5
-2 -15 1 -23 7 -11 9 -15 9 -15 1z"/>
<path d="M4720 6078 c0 -11 8 -18 20 -18 11 0 22 0 25 0 3 0 4 3 3 8 -1 4 -9
6 -17 4 -7 -2 -18 2 -22 10 -7 10 -9 9 -9 -4z"/>
<path d="M4847 6070 c6 -22 -7 -26 -25 -8 -8 8 -12 8 -12 1 0 -13 28 -25 41
-17 12 7 12 44 0 44 -5 0 -7 -9 -4 -20z"/>
<path d="M3090 6061 c0 -5 7 -12 16 -15 14 -5 15 -4 4 9 -14 17 -20 19 -20 6z"/>
<path d="M3090 5959 c-7 -11 -9 -23 -7 -26 3 -2 8 5 12 16 3 11 16 22 28 24
l22 4 -22 2 c-13 0 -27 -7 -33 -20z"/>
<path d="M3161 5933 c1 -27 4 -38 6 -25 3 14 12 22 24 22 14 0 19 7 19 25 0
20 -5 25 -25 25 -23 0 -25 -3 -24 -47z m39 22 c0 -8 -7 -15 -15 -15 -8 0 -15
7 -15 15 0 8 7 15 15 15 8 0 15 -7 15 -15z"/>
<path d="M3243 5935 c0 -27 2 -38 4 -22 2 15 2 37 0 50 -2 12 -4 0 -4 -28z"/>
<path d="M3277 5973 c-4 -3 -7 -21 -7 -39 0 -33 25 -53 43 -35 6 6 2 9 -9 8
-15 -2 -20 6 -22 32 -3 30 -1 33 17 28 12 -3 21 -1 21 4 0 10 -33 12 -43 2z"/>
<path d="M4810 5959 c-7 -11 -9 -23 -7 -26 3 -2 8 5 12 16 3 11 16 22 28 24
l22 4 -22 2 c-13 0 -27 -7 -33 -20z"/>
<path d="M4881 5933 c1 -27 4 -38 6 -25 3 13 12 22 23 22 10 0 21 4 24 9 11
18 -6 41 -30 41 -22 0 -24 -4 -23 -47z m42 22 c1 -5 -6 -11 -15 -13 -11 -2
-18 3 -18 13 0 17 30 18 33 0z"/>
<path d="M4963 5935 c0 -27 2 -38 4 -22 2 15 2 37 0 50 -2 12 -4 0 -4 -28z"/>
<path d="M4997 5974 c-13 -14 -7 -72 8 -78 30 -11 46 5 43 43 -2 27 -8 37 -23
39 -12 2 -24 0 -28 -4z m41 -36 c-2 -21 -8 -33 -18 -33 -10 0 -16 12 -18 33
-3 27 0 32 18 32 18 0 21 -5 18 -32z"/>
<path d="M5081 5967 c-9 -11 -10 -17 -2 -17 15 0 14 -47 -1 -53 -7 -3 1 -6 17
-6 17 0 25 3 18 7 -6 4 -13 25 -15 46 -3 35 -5 37 -17 23z"/>
<path d="M5147 5973 c-15 -14 -6 -45 14 -50 21 -6 21 -7 4 -20 -11 -7 -14 -13
-9 -13 19 0 34 24 34 57 0 25 -4 33 -18 33 -10 0 -22 -3 -25 -7z m33 -24 c0
-24 -23 -21 -28 4 -2 10 3 17 12 17 10 0 16 -9 16 -21z"/>
<path d="M3450 5960 l-35 -6 38 -5 c20 -3 42 -2 48 2 17 10 -12 16 -51 9z"/>
<path d="M4730 5960 l-35 -6 38 -5 c21 -3 40 -2 43 2 7 12 -9 15 -46 9z"/>
<path d="M3321 5934 c0 -11 3 -14 6 -6 3 7 2 16 -1 19 -3 4 -6 -2 -5 -13z"/>
<path d="M3380 5941 c0 -7 -6 -11 -15 -7 -8 3 -15 1 -15 -4 0 -6 6 -10 14 -10
8 0 16 -8 18 -17 3 -15 5 -15 10 3 3 12 2 28 -3 35 -7 12 -9 12 -9 0z"/>
<path d="M3116 5932 c6 -4 14 -14 17 -22 4 -10 6 -8 6 8 1 15 -5 22 -16 22
-11 0 -14 -3 -7 -8z"/>
<path d="M3440 5931 c0 -14 40 -30 58 -23 11 4 11 6 1 13 -7 4 -17 5 -21 2 -5
-2 -15 1 -23 7 -11 9 -15 9 -15 1z"/>
<path d="M4720 5928 c0 -11 8 -18 20 -18 11 0 22 0 25 0 3 0 4 3 3 8 -1 4 -9
6 -17 4 -7 -2 -18 2 -22 10 -7 10 -9 9 -9 -4z"/>
<path d="M4847 5920 c6 -22 -7 -26 -25 -8 -8 8 -12 8 -12 1 0 -13 28 -25 41
-17 12 7 12 44 0 44 -5 0 -7 -9 -4 -20z"/>
<path d="M3090 5911 c0 -5 7 -12 16 -15 14 -5 15 -4 4 9 -14 17 -20 19 -20 6z"/>
<path d="M3090 5809 c-7 -11 -9 -23 -7 -26 3 -2 8 5 12 16 3 11 16 22 28 24
l22 4 -22 2 c-13 0 -27 -7 -33 -20z"/>
<path d="M3161 5783 c1 -27 4 -38 6 -25 3 14 12 22 24 22 14 0 19 7 19 25 0
20 -5 25 -25 25 -23 0 -25 -3 -24 -47z m39 22 c0 -8 -7 -15 -15 -15 -8 0 -15
7 -15 15 0 8 7 15 15 15 8 0 15 -7 15 -15z"/>
<path d="M3243 5785 c0 -27 2 -38 4 -22 2 15 2 37 0 50 -2 12 -4 0 -4 -28z"/>
<path d="M3277 5823 c-13 -12 -7 -61 9 -74 14 -11 18 -10 30 6 8 10 14 26 13
34 0 9 -5 3 -11 -12 -13 -36 -32 -30 -36 13 -3 29 -1 32 17 27 12 -3 21 -1 21
4 0 10 -33 12 -43 2z"/>
<path d="M3350 5806 c0 -20 4 -23 21 -19 17 5 20 2 17 -13 -2 -11 -11 -18 -22
-17 -13 1 -15 -2 -8 -9 16 -16 42 -2 42 23 0 12 -8 23 -20 26 -27 7 -25 21 3
26 19 4 18 4 -5 6 -23 1 -28 -3 -28 -23z"/>
<path d="M4810 5809 c-7 -11 -9 -23 -7 -26 3 -2 8 5 12 16 3 11 16 22 28 24
l22 4 -22 2 c-13 0 -27 -7 -33 -20z"/>
<path d="M4881 5783 c1 -27 4 -38 6 -25 3 13 12 22 23 22 10 0 21 4 24 9 11
18 -6 41 -30 41 -22 0 -24 -4 -23 -47z m42 22 c1 -5 -6 -11 -15 -13 -11 -2
-18 3 -18 13 0 17 30 18 33 0z"/>
<path d="M4963 5785 c0 -27 2 -38 4 -22 2 15 2 37 0 50 -2 12 -4 0 -4 -28z"/>
<path d="M4997 5824 c-13 -13 -7 -61 8 -74 23 -19 47 6 43 44 -2 22 -9 32 -23
34 -12 2 -24 0 -28 -4z m41 -36 c-2 -21 -8 -33 -18 -33 -10 0 -16 12 -18 33
-3 27 0 32 18 32 18 0 21 -5 18 -32z"/>
<path d="M5070 5821 c0 -5 9 -7 20 -4 29 8 25 -15 -7 -49 l-27 -28 35 1 c25 1
28 3 11 6 l-24 5 22 23 c26 27 21 55 -10 55 -11 0 -20 -4 -20 -9z"/>
<path d="M5146 5815 c-10 -26 -7 -52 7 -63 21 -18 39 2 35 39 -3 37 -31 52
-42 24z m32 -27 c-3 -34 -20 -42 -26 -13 -5 22 5 45 18 45 7 0 10 -14 8 -32z"/>
<path d="M3450 5810 l-35 -6 38 -5 c20 -3 42 -2 48 2 17 10 -12 16 -51 9z"/>
<path d="M4730 5810 l-35 -6 38 -5 c21 -3 40 -2 43 2 7 12 -9 15 -46 9z"/>
<path d="M3116 5782 c6 -4 14 -14 17 -22 4 -10 6 -8 6 8 1 15 -5 22 -16 22
-11 0 -14 -3 -7 -8z"/>
<path d="M3440 5781 c0 -14 40 -30 58 -23 11 4 11 6 1 13 -7 4 -17 5 -21 2 -5
-2 -15 1 -23 7 -11 9 -15 9 -15 1z"/>
<path d="M4720 5778 c0 -11 8 -18 20 -18 11 0 22 0 25 0 3 0 4 3 3 8 -1 4 -9
6 -17 4 -7 -2 -18 2 -22 10 -7 10 -9 9 -9 -4z"/>
<path d="M4847 5770 c6 -23 -6 -26 -27 -8 -8 7 -8 4 2 -6 9 -10 21 -15 27 -12
13 9 15 46 2 46 -5 0 -7 -9 -4 -20z"/>
<path d="M3090 5766 c0 -2 8 -10 18 -17 15 -13 16 -12 3 4 -13 16 -21 21 -21
13z"/>
<path d="M3090 5659 c-7 -11 -9 -23 -7 -26 3 -2 8 5 12 16 3 11 16 22 28 24
l22 4 -22 2 c-13 0 -27 -7 -33 -20z"/>
<path d="M3161 5633 c1 -27 4 -38 6 -25 3 14 12 22 24 22 14 0 19 7 19 25 0
20 -5 25 -25 25 -23 0 -25 -3 -24 -47z m39 22 c0 -8 -7 -15 -15 -15 -8 0 -15
7 -15 15 0 8 7 15 15 15 8 0 15 -7 15 -15z"/>
<path d="M3243 5635 c0 -27 2 -38 4 -22 2 15 2 37 0 50 -2 12 -4 0 -4 -28z"/>
<path d="M3277 5673 c-13 -12 -7 -61 9 -74 14 -11 18 -10 30 6 8 10 14 26 13
34 0 9 -5 3 -11 -12 -13 -36 -32 -30 -36 13 -3 29 -1 32 17 27 12 -3 21 -1 21
4 0 10 -33 12 -43 2z"/>
<path d="M3354 5656 c-9 -37 -1 -61 21 -61 30 0 34 45 4 52 -21 6 -21 7 -4 20
17 11 17 13 2 13 -9 0 -19 -11 -23 -24z m34 -33 c-5 -25 -28 -28 -28 -4 0 12
6 21 16 21 9 0 14 -7 12 -17z"/>
<path d="M4810 5659 c-7 -11 -9 -23 -7 -26 3 -2 8 5 12 16 3 11 16 22 28 24
l22 4 -22 2 c-13 0 -27 -7 -33 -20z"/>
<path d="M4881 5633 c1 -26 4 -38 6 -26 3 13 13 23 26 25 34 5 29 42 -5 46
-27 3 -28 2 -27 -45z m42 22 c1 -5 -6 -11 -15 -13 -11 -2 -18 3 -18 13 0 17
30 18 33 0z"/>
<path d="M4963 5635 c0 -27 2 -38 4 -22 2 15 2 37 0 50 -2 12 -4 0 -4 -28z"/>
<path d="M4997 5674 c-13 -13 -7 -61 8 -74 23 -19 47 6 43 44 -2 22 -9 32 -23
34 -12 2 -24 0 -28 -4z m41 -36 c-2 -21 -8 -33 -18 -33 -10 0 -16 12 -18 33
-3 27 0 32 18 32 18 0 21 -5 18 -32z"/>
<path d="M5070 5671 c0 -5 9 -7 20 -4 29 8 25 -15 -7 -49 l-27 -28 35 1 c25 1
28 3 11 6 l-24 5 22 23 c26 27 21 55 -10 55 -11 0 -20 -4 -20 -9z"/>
<path d="M5151 5667 c-9 -11 -10 -17 -2 -17 15 0 14 -47 -1 -53 -7 -3 1 -6 17
-6 17 0 25 3 18 7 -6 4 -13 25 -15 46 -3 35 -5 37 -17 23z"/>
<path d="M3450 5660 l-35 -6 38 -5 c20 -3 42 -2 48 2 17 10 -12 16 -51 9z"/>
<path d="M4730 5660 l-35 -6 38 -5 c21 -3 40 -2 43 2 7 12 -9 15 -46 9z"/>
<path d="M3116 5632 c6 -4 14 -14 17 -22 4 -10 6 -8 6 8 1 15 -5 22 -16 22
-11 0 -14 -3 -7 -8z"/>
<path d="M3440 5631 c0 -14 40 -30 58 -23 11 4 11 6 1 13 -7 4 -17 5 -21 2 -5
-2 -15 1 -23 7 -11 9 -15 9 -15 1z"/>
<path d="M4720 5628 c0 -11 8 -18 20 -18 11 0 22 0 25 0 3 0 4 3 3 8 -1 4 -9
6 -17 4 -7 -2 -18 2 -22 10 -7 10 -9 9 -9 -4z"/>
<path d="M4847 5620 c6 -23 -6 -26 -27 -8 -8 7 -8 4 2 -6 9 -10 21 -15 27 -12
13 9 15 46 2 46 -5 0 -7 -9 -4 -20z"/>
<path d="M3090 5616 c0 -2 8 -10 18 -17 15 -13 16 -12 3 4 -13 16 -21 21 -21
13z"/>
<path d="M3090 5509 c-7 -11 -9 -23 -7 -26 3 -2 8 5 12 16 3 11 16 22 28 24
l22 4 -22 2 c-13 0 -27 -7 -33 -20z"/>
<path d="M3161 5483 c1 -27 4 -38 6 -25 3 14 12 22 24 22 14 0 19 7 19 25 0
20 -5 25 -25 25 -23 0 -25 -3 -24 -47z m39 22 c0 -8 -7 -15 -15 -15 -8 0 -15
7 -15 15 0 8 7 15 15 15 8 0 15 -7 15 -15z"/>
<path d="M3243 5485 c0 -27 2 -38 4 -22 2 15 2 37 0 50 -2 12 -4 0 -4 -28z"/>
<path d="M3277 5523 c-13 -12 -7 -61 9 -74 14 -11 18 -10 30 6 8 10 14 26 13
34 0 9 -5 3 -11 -12 -13 -36 -32 -30 -36 13 -3 29 -1 32 17 27 12 -3 21 -1 21
4 0 10 -33 12 -43 2z"/>
<path d="M3362 5523 c20 -3 25 -9 22 -21 -5 -15 -4 -15 5 -2 17 24 13 30 -21
29 -30 -2 -30 -2 -6 -6z"/>
<path d="M4810 5509 c-7 -11 -9 -23 -7 -26 3 -2 8 5 12 16 3 11 16 22 28 24
l22 4 -22 2 c-13 0 -27 -7 -33 -20z"/>
<path d="M4881 5483 c1 -26 4 -38 6 -26 3 13 13 23 26 25 34 5 29 42 -5 46
-27 3 -28 2 -27 -45z m42 22 c1 -5 -6 -11 -15 -13 -11 -2 -18 3 -18 13 0 17
30 18 33 0z"/>
<path d="M4963 5485 c0 -27 2 -38 4 -22 2 15 2 37 0 50 -2 12 -4 0 -4 -28z"/>
<path d="M4997 5524 c-13 -13 -7 -61 8 -74 23 -19 47 6 43 44 -2 22 -9 32 -23
34 -12 2 -24 0 -28 -4z m41 -36 c-2 -21 -8 -33 -18 -33 -10 0 -16 12 -18 33
-3 27 0 32 18 32 18 0 21 -5 18 -32z"/>
<path d="M5070 5521 c0 -5 9 -7 20 -4 29 8 25 -15 -7 -49 l-27 -28 35 1 c25 1
28 3 11 6 l-24 5 22 23 c26 27 21 55 -10 55 -11 0 -20 -4 -20 -9z"/>
<path d="M5140 5521 c0 -5 9 -7 20 -4 21 6 29 -20 10 -32 -5 -3 -15 -15 -20
-26 -9 -17 -7 -19 17 -18 17 1 21 3 10 6 -15 4 -16 6 -2 26 23 33 19 57 -10
57 -14 0 -25 -4 -25 -9z"/>
<path d="M3450 5510 l-35 -6 38 -5 c20 -3 42 -2 48 2 17 10 -12 16 -51 9z"/>
<path d="M4730 5510 l-35 -6 38 -5 c21 -3 40 -2 43 2 7 12 -9 15 -46 9z"/>
<path d="M3116 5482 c6 -4 14 -14 17 -22 4 -10 6 -8 6 8 1 15 -5 22 -16 22
-11 0 -14 -3 -7 -8z"/>
<path d="M3440 5481 c0 -14 40 -30 58 -23 11 4 11 6 1 13 -7 4 -17 5 -21 2 -5
-2 -15 1 -23 7 -11 9 -15 9 -15 1z"/>
<path d="M4720 5478 c0 -11 8 -18 20 -18 11 0 22 0 25 0 3 0 4 3 3 8 -1 4 -9
6 -17 4 -7 -2 -18 2 -22 10 -7 10 -9 9 -9 -4z"/>
<path d="M4847 5470 c6 -23 -6 -26 -27 -8 -8 7 -8 4 2 -6 9 -10 21 -15 27 -12
13 9 15 46 2 46 -5 0 -7 -9 -4 -20z"/>
<path d="M3366 5465 c-9 -26 -7 -32 5 -12 6 10 9 21 6 23 -2 3 -7 -2 -11 -11z"/>
<path d="M3090 5466 c0 -2 8 -10 18 -17 15 -13 16 -12 3 4 -13 16 -21 21 -21
13z"/>
<path d="M3090 5359 c-7 -11 -9 -23 -7 -26 3 -2 8 5 12 16 3 11 16 22 28 24
l22 4 -22 2 c-13 0 -27 -7 -33 -20z"/>
<path d="M3161 5333 c1 -27 4 -38 6 -25 3 14 12 22 24 22 14 0 19 7 19 25 0
20 -5 25 -25 25 -23 0 -25 -3 -24 -47z m39 22 c0 -8 -7 -15 -15 -15 -8 0 -15
7 -15 15 0 8 7 15 15 15 8 0 15 -7 15 -15z"/>
<path d="M3243 5335 c0 -27 2 -38 4 -22 2 15 2 37 0 50 -2 12 -4 0 -4 -28z"/>
<path d="M3277 5373 c-13 -12 -7 -61 9 -74 14 -11 18 -10 30 6 8 10 14 26 13
34 0 9 -5 3 -11 -12 -13 -36 -32 -30 -36 13 -3 29 -1 32 17 27 12 -3 21 -1 21
4 0 10 -33 12 -43 2z"/>
<path d="M3352 5338 c2 -35 7 -43 23 -43 17 0 20 7 20 40 0 34 -3 40 -23 43
-22 3 -23 0 -20 -40z m38 22 c0 -5 -7 -10 -15 -10 -8 0 -15 5 -15 10 0 6 7 10
15 10 8 0 15 -4 15 -10z m-5 -40 c0 -7 -6 -15 -12 -17 -8 -3 -13 4 -13 17 0
13 5 20 13 18 6 -3 12 -11 12 -18z"/>
<path d="M3450 5360 l-35 -6 38 -5 c20 -3 42 -2 48 2 17 10 -12 16 -51 9z"/>
<path d="M3116 5332 c6 -4 14 -14 17 -22 4 -10 6 -8 6 8 1 15 -5 22 -16 22
-11 0 -14 -3 -7 -8z"/>
<path d="M3440 5331 c0 -14 40 -30 58 -23 11 4 11 6 1 13 -7 4 -17 5 -21 2 -5
-2 -15 1 -23 7 -11 9 -15 9 -15 1z"/>
<path d="M3090 5316 c0 -2 8 -10 18 -17 15 -13 16 -12 3 4 -13 16 -21 21 -21
13z"/>
<path d="M3090 5209 c-7 -11 -9 -23 -7 -26 3 -2 8 5 12 16 3 11 16 22 28 24
l22 4 -22 2 c-13 0 -27 -7 -33 -20z"/>
<path d="M3161 5183 c1 -27 4 -38 6 -25 3 14 12 22 24 22 14 0 19 7 19 25 0
20 -5 25 -25 25 -23 0 -25 -3 -24 -47z m39 22 c0 -8 -7 -15 -15 -15 -8 0 -15
7 -15 15 0 8 7 15 15 15 8 0 15 -7 15 -15z"/>
<path d="M3243 5185 c0 -27 2 -38 4 -22 2 15 2 37 0 50 -2 12 -4 0 -4 -28z"/>
<path d="M3277 5223 c-13 -12 -7 -61 9 -74 14 -11 18 -10 30 6 8 10 14 26 13
34 0 9 -5 3 -11 -12 -13 -36 -32 -30 -36 13 -3 29 -1 32 17 27 12 -3 21 -1 21
4 0 10 -33 12 -43 2z"/>
<path d="M3350 5205 c0 -17 7 -28 23 -34 l22 -9 -25 -10 c-16 -7 -19 -11 -9
-11 43 -2 54 81 12 87 -19 3 -23 -1 -23 -23z m38 -2 c-5 -25 -28 -28 -28 -4 0
12 6 21 16 21 9 0 14 -7 12 -17z"/>
<path d="M4687 5216 c-9 -24 -9 -28 3 -21 6 3 10 1 10 -4 0 -6 -7 -11 -15 -11
-8 0 -15 -4 -15 -9 0 -5 9 -7 20 -4 21 6 23 16 11 47 -7 18 -8 18 -14 2z"/>
<path d="M4740 5185 c0 -25 3 -45 8 -45 4 0 6 19 4 41 -3 32 -1 40 9 37 8 -3
13 -18 13 -37 -1 -17 2 -28 7 -25 23 14 5 74 -22 74 -16 0 -19 -8 -19 -45z"/>
<path d="M4816 5214 c-16 -42 11 -91 37 -65 9 10 8 11 -5 6 -13 -5 -19 0 -24
19 -7 30 3 49 22 42 8 -3 14 -1 14 4 0 16 -37 11 -44 -6z"/>
<path d="M5011 5183 c1 -26 4 -38 6 -27 2 12 13 24 24 27 28 7 21 41 -9 45
-20 3 -22 0 -21 -45z m39 22 c0 -8 -7 -15 -15 -15 -8 0 -15 7 -15 15 0 8 7 15
15 15 8 0 15 -7 15 -15z"/>
<path d="M5080 5185 c0 -43 1 -45 28 -44 23 2 24 2 5 6 -27 5 -31 30 -5 36 16
4 16 5 0 6 -26 2 -22 29 5 34 19 4 18 4 -5 6 -27 1 -28 -1 -28 -44z"/>
<path d="M5151 5183 c1 -27 4 -38 6 -26 2 12 12 24 21 26 15 4 15 5 0 6 -26 2
-22 29 5 34 19 4 18 4 -5 6 -27 1 -28 -1 -27 -46z"/>
<path d="M3450 5210 l-35 -6 38 -5 c20 -3 42 -2 48 2 17 10 -12 16 -51 9z"/>
<path d="M4970 5186 c0 -9 -4 -14 -10 -11 -12 8 -13 -5 -1 -23 6 -10 10 -7 15
13 4 15 5 30 1 33 -3 3 -5 -2 -5 -12z"/>
<path d="M3116 5182 c6 -4 14 -14 17 -22 4 -10 6 -8 6 8 1 15 -5 22 -16 22
-11 0 -14 -3 -7 -8z"/>
<path d="M3440 5181 c0 -14 40 -30 58 -23 11 4 11 6 1 13 -7 4 -17 5 -21 2 -5
-2 -15 1 -23 7 -11 9 -15 9 -15 1z"/>
<path d="M3090 5166 c0 -2 8 -10 18 -17 15 -13 16 -12 3 4 -13 16 -21 21 -21
13z"/>
<path d="M4888 5143 c12 -2 30 -2 40 0 9 3 -1 5 -23 4 -22 0 -30 -2 -17 -4z"/>
<path d="M3090 5059 c-7 -11 -9 -23 -7 -26 3 -2 8 5 12 16 3 11 16 22 28 24
l22 4 -22 2 c-13 0 -27 -7 -33 -20z"/>
<path d="M3161 5038 c1 -24 3 -35 6 -25 2 9 13 17 24 17 14 0 19 7 19 25 0 20
-5 25 -25 25 -23 0 -25 -4 -24 -42z m39 17 c0 -8 -7 -15 -15 -15 -8 0 -15 7
-15 15 0 8 7 15 15 15 8 0 15 -7 15 -15z"/>
<path d="M3243 5040 c0 -25 2 -35 4 -22 2 12 2 32 0 45 -2 12 -4 2 -4 -23z"/>
<path d="M3274 5066 c-10 -26 1 -61 20 -64 20 -4 36 13 35 38 0 8 -4 5 -9 -7
-14 -35 -40 -29 -40 8 0 26 3 31 20 26 11 -3 20 -1 20 4 0 15 -40 10 -46 -5z"/>
<path d="M3360 5065 c-9 -11 -10 -16 -2 -11 8 5 12 0 12 -18 0 -13 -6 -27 -12
-29 -7 -3 1 -6 17 -6 17 0 25 3 18 7 -6 4 -13 23 -15 41 -3 32 -4 33 -18 16z"/>
<path d="M3424 5066 c-11 -28 0 -61 21 -61 16 0 20 7 20 35 0 25 -5 36 -18 38
-9 2 -20 -3 -23 -12z m36 -32 c0 -15 -6 -24 -15 -24 -15 0 -21 40 -9 53 12 11
24 -3 24 -29z"/>
<path d="M3525 5060 l-40 -6 43 -5 c24 -2 45 -1 48 2 7 12 -9 15 -51 9z"/>
<path d="M3118 5033 c20 -8 14 -26 -8 -20 -11 3 -18 1 -14 -4 11 -18 44 -10
44 11 0 13 -6 20 -17 19 -11 0 -13 -3 -5 -6z"/>
<path d="M3510 5031 c0 -6 6 -14 13 -16 28 -9 46 -9 46 0 0 6 -7 9 -15 7 -9
-2 -22 2 -30 9 -10 8 -14 8 -14 0z"/>
<path d="M3090 4909 c-7 -11 -9 -23 -7 -26 3 -2 8 5 12 16 3 11 16 22 28 24
l22 4 -22 2 c-13 0 -27 -7 -33 -20z"/>
<path d="M3161 4888 c1 -24 3 -35 6 -25 2 9 13 17 24 17 14 0 19 7 19 25 0 20
-5 25 -25 25 -23 0 -25 -4 -24 -42z m39 17 c0 -8 -7 -15 -15 -15 -8 0 -15 7
-15 15 0 8 7 15 15 15 8 0 15 -7 15 -15z"/>
<path d="M3243 4890 c0 -25 2 -35 4 -22 2 12 2 32 0 45 -2 12 -4 2 -4 -23z"/>
<path d="M3274 4916 c-11 -29 1 -61 23 -64 24 -4 38 25 28 58 -7 23 -43 27
-51 6z m41 -26 c0 -16 -6 -26 -17 -28 -14 -3 -18 3 -18 28 0 25 4 31 18 28 11
-2 17 -12 17 -28z"/>
<path d="M3360 4915 c-9 -11 -10 -16 -2 -11 8 5 12 0 12 -18 0 -13 -6 -27 -12
-29 -7 -3 1 -6 17 -6 17 0 25 3 18 7 -6 4 -13 23 -15 41 -3 32 -4 33 -18 16z"/>
<path d="M3431 4917 c-9 -11 -10 -17 -2 -17 15 0 14 -37 -1 -43 -7 -3 1 -6 17
-6 17 0 25 3 18 7 -6 4 -13 23 -15 41 -3 31 -4 33 -17 18z"/>
<path d="M4470 4909 c-7 -11 -9 -23 -7 -26 3 -2 8 5 12 16 3 11 14 22 23 24
16 4 16 5 0 6 -10 0 -22 -8 -28 -20z"/>
<path d="M4541 4888 c1 -24 3 -35 6 -25 2 9 13 17 24 17 14 0 19 7 19 25 0 20
-5 25 -25 25 -23 0 -25 -4 -24 -42z m39 17 c0 -8 -7 -15 -15 -15 -8 0 -15 7
-15 15 0 8 7 15 15 15 8 0 15 -7 15 -15z"/>
<path d="M4623 4890 c0 -25 2 -35 4 -22 2 12 2 32 0 45 -2 12 -4 2 -4 -23z"/>
<path d="M4654 4916 c-11 -29 1 -61 23 -64 24 -4 38 25 28 58 -7 23 -43 27
-51 6z m41 -26 c0 -16 -6 -26 -17 -28 -14 -3 -18 3 -18 28 0 25 4 31 18 28 11
-2 17 -12 17 -28z"/>
<path d="M4730 4921 c0 -5 9 -7 20 -4 29 8 25 -14 -7 -42 l-28 -24 35 0 c19 1
27 3 17 6 -17 4 -18 6 -2 24 10 10 15 25 12 34 -7 16 -47 21 -47 6z"/>
<path d="M4806 4914 c-3 -9 -6 -26 -6 -39 0 -21 6 -24 57 -31 46 -5 58 -4 68
10 7 9 20 16 29 16 19 0 20 7 2 38 -12 23 -13 23 -25 -17 -11 -38 -15 -41 -46
-41 -29 0 -35 4 -35 21 0 13 -8 23 -21 26 -21 6 -21 7 -4 20 16 11 16 13 3 13
-9 0 -19 -7 -22 -16z m149 -24 c3 -5 1 -10 -4 -10 -6 0 -11 5 -11 10 0 6 2 10
4 10 3 0 8 -4 11 -10z m-115 -15 c0 -8 -7 -15 -15 -15 -8 0 -15 7 -15 15 0 8
7 15 15 15 8 0 15 -7 15 -15z"/>
<path d="M4990 4890 c0 -33 3 -40 19 -40 11 0 22 4 25 9 4 5 -3 7 -14 4 -17
-5 -20 0 -20 26 0 36 25 43 35 10 4 -11 9 -18 12 -16 10 11 -19 47 -37 47 -17
0 -20 -7 -20 -40z"/>
<path d="M5070 4909 c-7 -11 -9 -23 -7 -26 3 -2 8 5 12 17 5 15 13 20 26 17
10 -3 19 -1 19 4 0 18 -40 9 -50 -12z"/>
<path d="M5144 4916 c-11 -30 0 -61 24 -64 21 -3 23 0 20 35 -3 40 -32 59 -44
29z m36 -26 c0 -20 -5 -30 -15 -30 -15 0 -21 40 -8 53 14 15 23 6 23 -23z"/>
<path d="M3525 4910 l-40 -6 43 -5 c24 -2 45 -1 48 2 7 12 -9 15 -51 9z"/>
<path d="M4390 4910 l-35 -6 38 -5 c21 -3 40 -2 43 2 7 12 -9 15 -46 9z"/>
<path d="M3118 4883 c20 -8 14 -26 -8 -20 -11 3 -18 1 -14 -4 11 -18 44 -10
44 11 0 13 -6 20 -17 19 -11 0 -13 -3 -5 -6z"/>
<path d="M3510 4881 c0 -6 6 -14 13 -16 28 -9 46 -9 46 0 0 6 -7 9 -15 7 -9
-2 -22 2 -30 9 -10 8 -14 8 -14 0z"/>
<path d="M4376 4876 c3 -9 15 -16 25 -16 10 0 21 0 24 0 3 0 5 3 4 8 0 4 -7 6
-15 4 -9 -2 -22 2 -30 9 -12 10 -13 9 -8 -5z"/>
<path d="M4498 4883 c20 -8 14 -26 -8 -20 -11 3 -18 1 -14 -4 11 -18 44 -10
44 11 0 13 -6 20 -17 19 -11 0 -13 -3 -5 -6z"/>
<path d="M5078 4858 c6 -6 18 -8 28 -6 14 3 12 5 -9 10 -19 3 -25 2 -19 -4z"/>
<path d="M3090 4759 c-7 -11 -9 -23 -7 -26 3 -2 8 5 12 16 3 11 16 22 28 24
l22 4 -22 2 c-13 0 -27 -7 -33 -20z"/>
<path d="M3161 4738 c1 -24 3 -35 6 -25 2 9 13 17 24 17 14 0 19 7 19 25 0 20
-5 25 -25 25 -23 0 -25 -4 -24 -42z m39 17 c0 -8 -7 -15 -15 -15 -8 0 -15 7
-15 15 0 8 7 15 15 15 8 0 15 -7 15 -15z"/>
<path d="M3243 4740 c0 -25 2 -35 4 -22 2 12 2 32 0 45 -2 12 -4 2 -4 -23z"/>
<path d="M3274 4766 c-11 -29 1 -61 23 -64 24 -4 38 25 28 58 -7 23 -43 27
-51 6z m41 -26 c0 -16 -6 -26 -17 -28 -14 -3 -18 3 -18 28 0 25 4 31 18 28 11
-2 17 -12 17 -28z"/>
<path d="M3360 4765 c-9 -11 -10 -16 -2 -11 8 5 12 0 12 -18 0 -13 -6 -27 -12
-29 -7 -3 1 -6 17 -6 17 0 25 3 18 7 -6 4 -13 23 -15 41 -3 32 -4 33 -18 16z"/>
<path d="M3420 4771 c0 -5 9 -7 20 -4 29 8 25 -14 -7 -42 l-28 -24 35 0 c19 1
27 3 17 6 -17 4 -18 6 -2 24 10 10 15 25 12 34 -7 16 -47 21 -47 6z"/>
<path d="M4470 4759 c-7 -11 -9 -23 -7 -26 3 -2 8 5 12 16 3 11 14 22 23 24
16 4 16 5 0 6 -10 0 -22 -8 -28 -20z"/>
<path d="M4541 4738 c1 -24 3 -35 6 -25 2 9 13 17 24 17 14 0 19 7 19 25 0 20
-5 25 -25 25 -23 0 -25 -4 -24 -42z m39 17 c0 -8 -7 -15 -15 -15 -8 0 -15 7
-15 15 0 8 7 15 15 15 8 0 15 -7 15 -15z"/>
<path d="M4623 4740 c0 -25 2 -35 4 -22 2 12 2 32 0 45 -2 12 -4 2 -4 -23z"/>
<path d="M4654 4766 c-11 -29 1 -61 23 -64 24 -4 38 25 28 58 -7 23 -43 27
-51 6z m41 -26 c0 -16 -6 -26 -17 -28 -14 -3 -18 3 -18 28 0 25 4 31 18 28 11
-2 17 -12 17 -28z"/>
<path d="M4730 4771 c0 -5 9 -7 20 -4 29 8 25 -14 -7 -42 l-28 -24 35 0 c19 1
27 3 17 6 -17 4 -18 6 -2 24 10 10 15 25 12 34 -7 16 -47 21 -47 6z"/>
<path d="M4803 4773 c9 -2 25 -2 35 0 9 3 1 5 -18 5 -19 0 -27 -2 -17 -5z"/>
<path d="M4932 4741 c-11 -36 -16 -40 -50 -44 l-37 -4 38 -1 c25 -1 39 3 43
13 4 8 15 15 25 15 22 0 23 6 5 38 -12 23 -13 23 -24 -17z m23 -1 c3 -5 1 -10
-4 -10 -6 0 -11 5 -11 10 0 6 2 10 4 10 3 0 8 -4 11 -10z"/>
<path d="M4990 4740 c0 -33 3 -40 19 -40 11 0 22 4 25 9 4 5 -3 7 -14 4 -17
-5 -20 0 -20 26 0 36 25 43 35 10 4 -11 9 -18 12 -16 10 11 -19 47 -37 47 -17
0 -20 -7 -20 -40z"/>
<path d="M5070 4759 c-7 -11 -9 -23 -7 -26 3 -2 8 5 12 17 5 15 13 20 26 17
10 -3 19 -1 19 4 0 18 -40 9 -50 -12z"/>
<path d="M5151 4767 c-9 -11 -10 -17 -2 -17 15 0 14 -37 -1 -43 -7 -3 1 -6 17
-6 17 0 25 3 18 7 -6 4 -13 23 -15 41 -3 31 -4 33 -17 18z"/>
<path d="M3525 4760 l-40 -6 43 -5 c24 -2 45 -1 48 2 7 12 -9 15 -51 9z"/>
<path d="M4390 4760 l-35 -6 38 -5 c21 -3 40 -2 43 2 7 12 -9 15 -46 9z"/>
<path d="M4826 4745 c-9 -26 -7 -32 5 -12 6 10 9 21 6 23 -2 3 -7 -2 -11 -11z"/>
<path d="M3118 4733 c20 -8 14 -26 -8 -20 -11 3 -18 1 -14 -4 11 -18 44 -10
44 11 0 13 -6 20 -17 19 -11 0 -13 -3 -5 -6z"/>
<path d="M3510 4731 c0 -6 6 -14 13 -16 28 -9 46 -9 46 0 0 6 -7 9 -15 7 -9
-2 -22 2 -30 9 -10 8 -14 8 -14 0z"/>
<path d="M4376 4726 c3 -9 15 -16 25 -16 10 0 21 0 24 0 3 0 5 3 4 8 0 4 -7 6
-15 4 -9 -2 -22 2 -30 9 -12 10 -13 9 -8 -5z"/>
<path d="M4498 4733 c20 -8 14 -26 -8 -20 -11 3 -18 1 -14 -4 11 -18 44 -10
44 11 0 13 -6 20 -17 19 -11 0 -13 -3 -5 -6z"/>
<path d="M5078 4708 c6 -6 18 -8 28 -6 14 3 12 5 -9 10 -19 3 -25 2 -19 -4z"/>
<path d="M3090 4609 c-7 -11 -9 -23 -7 -26 3 -2 8 5 12 16 3 11 16 22 28 24
l22 4 -22 2 c-13 0 -27 -7 -33 -20z"/>
<path d="M3161 4588 c1 -24 3 -35 6 -25 2 9 13 17 24 17 14 0 19 7 19 25 0 20
-5 25 -25 25 -23 0 -25 -4 -24 -42z m39 17 c0 -8 -7 -15 -15 -15 -8 0 -15 7
-15 15 0 8 7 15 15 15 8 0 15 -7 15 -15z"/>
<path d="M3243 4590 c0 -25 2 -35 4 -22 2 12 2 32 0 45 -2 12 -4 2 -4 -23z"/>
<path d="M3274 4616 c-11 -29 1 -61 23 -64 24 -4 38 25 28 58 -7 23 -43 27
-51 6z m41 -26 c0 -16 -6 -26 -17 -28 -14 -3 -18 3 -18 28 0 25 4 31 18 28 11
-2 17 -12 17 -28z"/>
<path d="M3360 4615 c-9 -11 -10 -16 -2 -11 8 5 12 0 12 -18 0 -13 -6 -27 -12
-29 -7 -3 1 -6 17 -6 17 0 25 3 18 7 -6 4 -13 23 -15 41 -3 32 -4 33 -18 16z"/>
<path d="M3428 4623 c15 -3 22 -10 18 -19 -3 -8 -1 -14 4 -14 23 0 8 -29 -17
-33 -26 -4 -26 -4 4 -6 32 -1 32 0 30 39 -2 37 -4 40 -32 39 -25 -1 -26 -3 -7
-6z"/>
<path d="M4470 4609 c-7 -11 -9 -23 -7 -26 3 -2 8 5 12 16 3 11 14 22 23 24
16 4 16 5 0 6 -10 0 -22 -8 -28 -20z"/>
<path d="M4541 4588 c1 -24 3 -35 6 -25 2 9 13 17 24 17 14 0 19 7 19 25 0 20
-5 25 -25 25 -23 0 -25 -4 -24 -42z m39 17 c0 -8 -7 -15 -15 -15 -8 0 -15 7
-15 15 0 8 7 15 15 15 8 0 15 -7 15 -15z"/>
<path d="M4623 4590 c0 -25 2 -35 4 -22 2 12 2 32 0 45 -2 12 -4 2 -4 -23z"/>
<path d="M4654 4616 c-11 -29 1 -61 23 -64 24 -4 38 25 28 58 -7 23 -43 27
-51 6z m41 -26 c0 -16 -6 -26 -17 -28 -14 -3 -18 3 -18 28 0 25 4 31 18 28 11
-2 17 -12 17 -28z"/>
<path d="M4730 4621 c0 -5 9 -7 20 -4 29 8 25 -14 -7 -42 l-28 -24 35 0 c19 1
27 3 17 6 -17 4 -18 6 -2 24 10 10 15 25 12 34 -7 16 -47 21 -47 6z"/>
<path d="M4800 4591 l0 -40 57 -7 c46 -5 58 -4 68 10 7 9 20 16 29 16 19 0 20
7 2 38 -12 23 -13 23 -25 -17 -11 -38 -15 -41 -46 -41 -29 0 -35 4 -36 23 -1
12 -2 29 -3 37 0 8 -11 16 -23 18 -21 3 -23 -1 -23 -37z m40 19 c0 -5 -7 -10
-15 -10 -8 0 -15 5 -15 10 0 6 7 10 15 10 8 0 15 -4 15 -10z m115 -20 c3 -5 1
-10 -4 -10 -6 0 -11 5 -11 10 0 6 2 10 4 10 3 0 8 -4 11 -10z m-117 -18 c2 -7
-3 -12 -12 -12 -9 0 -16 7 -16 16 0 17 22 14 28 -4z"/>
<path d="M4990 4590 c0 -33 3 -40 19 -40 11 0 22 4 25 9 4 5 -3 7 -14 4 -17
-5 -20 0 -20 26 0 36 25 43 35 10 4 -11 9 -18 12 -16 10 11 -19 47 -37 47 -17
0 -20 -7 -20 -40z"/>
<path d="M5070 4609 c-7 -11 -9 -23 -7 -26 3 -2 8 5 12 17 5 15 13 20 26 17
10 -3 19 -1 19 4 0 18 -40 9 -50 -12z"/>
<path d="M5140 4621 c0 -5 9 -7 20 -4 27 7 26 -14 -2 -44 l-21 -23 29 1 c23 0
25 2 11 8 -17 6 -17 8 -3 20 26 21 20 51 -9 51 -14 0 -25 -4 -25 -9z"/>
<path d="M3525 4610 l-40 -6 43 -5 c24 -2 45 -1 48 2 7 12 -9 15 -51 9z"/>
<path d="M4390 4610 l-35 -6 38 -5 c21 -3 40 -2 43 2 7 12 -9 15 -46 9z"/>
<path d="M3118 4583 c20 -8 14 -26 -8 -20 -11 3 -18 1 -14 -4 11 -18 44 -10
44 11 0 13 -6 20 -17 19 -11 0 -13 -3 -5 -6z"/>
<path d="M3510 4581 c0 -6 6 -14 13 -16 28 -9 46 -9 46 0 0 6 -7 9 -15 7 -9
-2 -22 2 -30 9 -10 8 -14 8 -14 0z"/>
<path d="M4376 4576 c3 -9 15 -16 25 -16 10 0 21 0 24 0 3 0 5 3 4 8 0 4 -7 6
-15 4 -9 -2 -22 2 -30 9 -12 10 -13 9 -8 -5z"/>
<path d="M4498 4583 c20 -8 14 -26 -8 -20 -11 3 -18 1 -14 -4 11 -18 44 -10
44 11 0 13 -6 20 -17 19 -11 0 -13 -3 -5 -6z"/>
<path d="M5078 4558 c6 -6 18 -8 28 -6 14 3 12 5 -9 10 -19 3 -25 2 -19 -4z"/>
<path d="M3090 4459 c-7 -11 -9 -23 -7 -26 3 -2 8 5 12 16 3 11 16 22 28 24
l22 4 -22 2 c-13 0 -27 -7 -33 -20z"/>
<path d="M3161 4438 c1 -24 3 -35 6 -25 2 9 13 17 24 17 14 0 19 7 19 25 0 20
-5 25 -25 25 -23 0 -25 -4 -24 -42z m39 17 c0 -8 -7 -15 -15 -15 -8 0 -15 7
-15 15 0 8 7 15 15 15 8 0 15 -7 15 -15z"/>
<path d="M3243 4440 c0 -25 2 -35 4 -22 2 12 2 32 0 45 -2 12 -4 2 -4 -23z"/>
<path d="M3274 4466 c-11 -29 1 -61 23 -64 24 -4 38 25 28 58 -7 23 -43 27
-51 6z m41 -26 c0 -16 -6 -26 -17 -28 -14 -3 -18 3 -18 28 0 25 4 31 18 28 11
-2 17 -12 17 -28z"/>
<path d="M3360 4465 c-9 -11 -10 -16 -2 -11 8 5 12 0 12 -18 0 -13 -6 -27 -12
-29 -7 -3 1 -6 17 -6 17 0 25 3 18 7 -6 4 -13 23 -15 41 -3 32 -4 33 -18 16z"/>
<path d="M3525 4460 l-40 -6 43 -5 c24 -2 45 -1 48 2 7 12 -9 15 -51 9z"/>
<path d="M3451 4448 c-1 -10 -9 -18 -18 -19 -14 0 -15 -2 -3 -6 8 -3 18 -10
21 -15 10 -16 17 15 8 37 -6 17 -8 17 -8 3z"/>
<path d="M3118 4433 c20 -8 14 -26 -8 -20 -11 3 -18 1 -14 -4 11 -18 44 -10
44 11 0 13 -6 20 -17 19 -11 0 -13 -3 -5 -6z"/>
<path d="M3510 4431 c0 -6 6 -14 13 -16 28 -9 46 -9 46 0 0 6 -7 9 -15 7 -9
-2 -22 2 -30 9 -10 8 -14 8 -14 0z"/>
<path d="M3090 4309 c-7 -11 -9 -23 -7 -26 3 -2 8 5 12 16 3 11 16 22 28 24
l22 4 -22 2 c-13 0 -27 -7 -33 -20z"/>
<path d="M3161 4288 c1 -24 3 -35 6 -25 2 9 13 17 24 17 14 0 19 7 19 25 0 20
-5 25 -25 25 -23 0 -25 -4 -24 -42z m39 17 c0 -8 -7 -15 -15 -15 -8 0 -15 7
-15 15 0 8 7 15 15 15 8 0 15 -7 15 -15z"/>
<path d="M3243 4290 c0 -25 2 -35 4 -22 2 12 2 32 0 45 -2 12 -4 2 -4 -23z"/>
<path d="M3274 4316 c-11 -29 1 -61 23 -64 24 -4 38 25 28 58 -7 23 -43 27
-51 6z m41 -26 c0 -16 -6 -26 -17 -28 -14 -3 -18 3 -18 28 0 25 4 31 18 28 11
-2 17 -12 17 -28z"/>
<path d="M3360 4315 c-9 -11 -10 -16 -2 -11 8 5 12 0 12 -18 0 -13 -6 -27 -12
-29 -7 -3 1 -6 17 -6 17 0 25 3 18 7 -6 4 -13 23 -15 41 -3 32 -4 33 -18 16z"/>
<path d="M3420 4306 c0 -19 4 -23 20 -19 14 4 20 0 20 -10 0 -9 -10 -18 -22
-20 -20 -4 -19 -4 5 -6 21 -1 27 3 27 20 0 12 -8 23 -20 26 -27 7 -25 21 3 26
19 4 18 4 -5 6 -23 1 -28 -3 -28 -23z"/>
<path d="M4932 4305 c-16 -34 -15 -35 8 -35 11 0 20 -5 20 -12 0 -6 2 -9 5 -6
3 2 -1 22 -8 42 l-13 38 -12 -27z m18 -15 c0 -5 -5 -10 -11 -10 -5 0 -7 5 -4
10 3 6 8 10 11 10 2 0 4 -4 4 -10z"/>
<path d="M4990 4309 c-7 -11 -9 -23 -7 -26 3 -2 8 5 12 16 3 11 16 22 28 24
l22 4 -22 2 c-13 0 -27 -7 -33 -20z"/>
<path d="M5062 4290 c0 -41 1 -42 8 -15 4 17 8 25 9 19 0 -5 8 -19 16 -30 13
-18 14 -16 13 26 0 41 -1 42 -8 15 -4 -16 -8 -25 -9 -19 0 5 -8 19 -16 30 -13
18 -14 16 -13 -26z"/>
<path d="M5140 4290 c0 -37 2 -41 23 -38 18 2 22 9 22 38 0 29 -4 36 -22 38
-21 3 -23 -1 -23 -38z m40 0 c0 -20 -5 -30 -15 -30 -10 0 -15 10 -15 30 0 20
5 30 15 30 10 0 15 -10 15 -30z"/>
<path d="M3525 4310 l-40 -6 43 -5 c24 -2 45 -1 48 2 7 12 -9 15 -51 9z"/>
<path d="M4845 4310 l-40 -6 43 -5 c24 -2 45 -1 48 2 7 12 -9 15 -51 9z"/>
<path d="M3118 4283 c20 -8 14 -26 -8 -20 -11 3 -18 1 -14 -4 11 -18 44 -10
44 11 0 13 -6 20 -17 19 -11 0 -13 -3 -5 -6z"/>
<path d="M3510 4281 c0 -6 6 -14 13 -16 28 -9 46 -9 46 0 0 6 -7 9 -15 7 -9
-2 -22 2 -30 9 -10 8 -14 8 -14 0z"/>
<path d="M4830 4281 c0 -6 6 -14 13 -16 28 -9 46 -9 46 0 0 6 -7 9 -15 7 -9
-2 -22 2 -30 9 -10 8 -14 8 -14 0z"/>
<path d="M5018 4283 c20 -8 14 -26 -8 -20 -11 3 -18 1 -14 -4 11 -18 44 -10
44 11 0 13 -6 20 -17 19 -11 0 -13 -3 -5 -6z"/>
<path d="M4210 4005 c0 -183 -2 -205 -17 -215 -17 -11 -17 -11 0 -6 10 3 21 6
23 6 2 0 4 92 4 205 l0 205 508 3 507 2 -512 3 -513 2 0 -205z"/>
<path d="M4108 4138 c-2 -7 -1 -29 2 -48 l6 -35 5 38 c5 38 -4 71 -13 45z"/>
<path d="M4149 4140 c-1 -8 0 -21 1 -29 1 -8 -4 -18 -12 -22 -10 -7 -9 -9 3
-9 19 0 31 42 18 62 -7 10 -9 10 -10 -2z"/>
<path d="M4107 4033 c-3 -5 10 -8 28 -8 18 0 31 3 28 8 -2 4 -15 7 -28 7 -13
0 -26 -3 -28 -7z"/>
<path d="M4090 3998 c0 -5 20 -8 45 -8 25 0 45 3 45 8 0 4 -20 7 -45 7 -25 0
-45 -3 -45 -7z"/>
<path d="M4091 3955 c8 -7 78 -9 85 -2 4 4 -14 7 -41 7 -27 0 -46 -2 -44 -5z"/>
<path d="M4097 3918 c-7 -4 9 -8 36 -8 26 0 47 2 47 4 0 8 -71 12 -83 4z"/>
<path d="M4130 3873 c0 -15 2 -16 10 -3 7 12 12 12 22 2 17 -17 -3 -35 -33
-30 -16 2 -24 9 -23 21 1 9 -2 17 -7 17 -13 0 -11 -24 3 -38 28 -28 85 -3 72
32 -8 22 -44 21 -44 -1z"/>
<path d="M5328 6323 c28 -6 28 -20 0 -50 l-21 -23 29 1 c23 0 25 2 11 8 -17 6
-17 8 -3 20 9 7 16 22 16 32 0 14 -7 19 -27 18 -24 -2 -25 -2 -5 -6z"/>
<path d="M5403 6323 c34 -5 34 -10 0 -45 l-27 -28 35 1 c25 1 28 3 11 6 l-24
5 22 23 c26 28 19 46 -18 44 l-27 -2 28 -4z"/>
<path d="M5391 6159 c-14 -41 -14 -39 8 -39 11 0 21 -5 23 -12 3 -8 6 -7 10 3
3 7 2 23 -3 34 -6 17 -8 17 -8 3 -1 -10 -8 -18 -16 -18 -12 0 -13 5 -4 26 5
15 8 29 5 31 -2 2 -9 -10 -15 -28z"/>
<path d="M5328 6173 c28 -6 28 -20 0 -50 l-21 -23 29 1 c23 0 25 2 11 8 -17 6
-17 8 -3 20 9 7 16 22 16 32 0 14 -7 19 -27 18 -24 -2 -25 -2 -5 -6z"/>
<path d="M5328 6023 c28 -6 28 -20 0 -50 l-21 -23 29 1 c23 0 25 2 11 8 -17 6
-17 8 -3 20 9 7 16 22 16 32 0 14 -7 19 -27 18 -24 -2 -25 -2 -5 -6z"/>
<path d="M5398 6023 c6 -2 18 -2 25 0 6 3 1 5 -13 5 -14 0 -19 -2 -12 -5z"/>
<path d="M5408 5993 c29 -5 23 -28 -7 -27 -13 0 -18 -3 -12 -9 15 -15 46 -3
46 18 0 14 -7 20 -25 21 -23 1 -23 1 -2 -3z"/>
<path d="M5328 5873 c28 -6 28 -20 0 -50 l-21 -23 29 1 c23 0 25 2 11 8 -17 6
-17 8 -3 20 9 7 16 22 16 32 0 14 -7 19 -27 18 -24 -2 -25 -2 -5 -6z"/>
<path d="M5385 5850 c-8 -36 0 -50 26 -50 30 0 36 30 11 51 -20 16 -21 18 -5
22 14 4 13 5 -4 6 -16 1 -23 -6 -28 -29z m41 -11 c10 -17 -13 -36 -27 -22 -12
12 -4 33 11 33 5 0 12 -5 16 -11z"/>
<path d="M5328 5723 c28 -6 28 -20 0 -50 l-21 -23 29 1 c23 0 25 2 11 8 -17 6
-17 8 -3 20 9 7 16 22 16 32 0 14 -7 19 -27 18 -24 -2 -25 -2 -5 -6z"/>
<path d="M5393 5723 c9 -2 25 -2 35 0 9 3 1 5 -18 5 -19 0 -27 -2 -17 -5z"/>
<path d="M5416 5695 c-9 -26 -7 -32 5 -12 6 10 9 21 6 23 -2 3 -7 -2 -11 -11z"/>
<path d="M5328 5573 c28 -6 28 -20 0 -50 l-21 -23 29 1 c23 0 25 2 11 8 -17 6
-17 8 -3 20 9 7 16 22 16 32 0 14 -7 19 -27 18 -24 -2 -25 -2 -5 -6z"/>
<path d="M5384 5565 c-7 -18 3 -35 22 -35 20 0 18 -18 -3 -23 -17 -4 -17 -5 0
-6 20 -1 42 40 34 63 -8 20 -46 21 -53 1z m46 -10 c0 -8 -9 -15 -20 -15 -11 0
-20 7 -20 15 0 8 9 15 20 15 11 0 20 -7 20 -15z"/>
<path d="M5323 5273 c9 -2 15 -9 12 -14 -4 -5 -1 -9 4 -9 6 0 11 -10 11 -21 0
-16 -5 -20 -20 -16 -11 3 -20 1 -20 -4 0 -5 11 -9 25 -9 23 0 25 3 23 40 -3
36 -6 40 -28 39 -17 -1 -19 -3 -7 -6z"/>
<path d="M5398 5273 c6 -2 18 -2 25 0 6 3 1 5 -13 5 -14 0 -19 -2 -12 -5z"/>
<path d="M5385 5250 c-4 -6 4 -9 17 -7 15 1 23 -3 23 -13 0 -9 -9 -15 -22 -14
-12 0 -20 -3 -17 -8 9 -14 44 -9 50 7 12 29 -35 61 -51 35z"/>
<path d="M5323 4973 c9 -2 15 -9 12 -14 -4 -5 -1 -9 4 -9 6 0 11 -10 11 -21 0
-16 -5 -20 -20 -16 -11 3 -20 1 -20 -4 0 -5 11 -9 25 -9 23 0 25 3 23 40 -3
36 -6 40 -28 39 -17 -1 -19 -3 -7 -6z"/>
<path d="M5390 4965 c-9 -11 -10 -16 -2 -11 8 5 12 0 12 -18 0 -13 -6 -27 -12
-29 -7 -3 3 -5 22 -5 19 0 27 2 18 5 -11 3 -18 17 -20 40 -3 34 -4 35 -18 18z"/>
<path d="M2850 4965 c-9 -11 -10 -16 -2 -11 8 5 12 0 12 -18 0 -13 -6 -27 -12
-29 -7 -3 1 -6 17 -6 17 0 25 3 18 7 -6 4 -13 23 -15 41 -3 32 -4 33 -18 16z"/>
<path d="M2910 4961 c0 -14 5 -18 20 -14 16 4 20 0 20 -17 0 -17 -4 -21 -20
-17 -11 3 -20 1 -20 -4 0 -5 11 -9 25 -9 20 0 25 5 25 26 0 18 -6 28 -22 32
-23 6 -23 6 2 13 l25 7 -27 1 c-21 1 -28 -4 -28 -18z"/>
<path d="M2850 4815 c-9 -11 -10 -16 -2 -11 8 5 12 0 12 -18 0 -13 -6 -27 -12
-29 -7 -3 1 -6 17 -6 17 0 25 3 18 7 -6 4 -13 23 -15 41 -3 32 -4 33 -18 16z"/>
<path d="M2914 4816 c-11 -29 1 -61 24 -64 18 -3 22 1 22 23 0 19 -6 29 -22
33 -23 6 -23 6 2 13 24 7 24 7 2 8 -12 1 -25 -5 -28 -13z m36 -36 c0 -11 -7
-20 -15 -20 -15 0 -21 21 -8 33 12 13 23 7 23 -13z"/>
<path d="M5323 4823 c9 -2 15 -9 12 -14 -4 -5 -1 -9 4 -9 6 0 11 -10 11 -21 0
-16 -5 -20 -20 -16 -11 3 -20 1 -20 -4 0 -5 11 -9 25 -9 23 0 25 3 23 40 -3
36 -6 40 -28 39 -17 -1 -19 -3 -7 -6z"/>
<path d="M5403 4823 c34 -5 34 -10 0 -45 l-27 -28 35 1 c25 1 28 3 11 6 l-24
5 22 23 c26 28 19 46 -18 44 l-27 -2 28 -4z"/>
<path d="M2850 4665 c-9 -11 -10 -16 -2 -11 8 5 12 0 12 -18 0 -13 -6 -27 -12
-29 -7 -3 1 -6 17 -6 17 0 25 3 18 7 -6 4 -13 23 -15 41 -3 32 -4 33 -18 16z"/>
<path d="M2928 4673 c26 -5 26 -6 7 -43 -9 -17 -13 -30 -10 -30 2 0 14 18 25
40 l20 40 -32 -1 c-24 -1 -27 -3 -10 -6z"/>
<path d="M5391 4659 c-14 -41 -14 -39 8 -39 11 0 21 -5 23 -12 3 -8 6 -7 10 3
3 7 2 23 -3 34 -6 17 -8 17 -8 3 -1 -10 -8 -18 -16 -18 -12 0 -13 5 -4 26 5
15 8 29 5 31 -2 2 -9 -10 -15 -28z"/>
<path d="M5323 4673 c9 -2 15 -9 12 -14 -4 -5 -1 -9 4 -9 6 0 11 -10 11 -21 0
-16 -5 -20 -20 -16 -11 3 -20 1 -20 -4 0 -5 11 -9 25 -9 23 0 25 3 23 40 -3
36 -6 40 -28 39 -17 -1 -19 -3 -7 -6z"/>
<path d="M2850 4515 c-9 -11 -10 -16 -2 -11 8 5 12 0 12 -18 0 -13 -6 -27 -12
-29 -7 -3 1 -6 17 -6 17 0 25 3 18 7 -6 4 -13 23 -15 41 -3 32 -4 33 -18 16z"/>
<path d="M2910 4509 c0 -13 8 -23 21 -26 21 -6 21 -7 4 -20 -16 -11 -16 -13
-3 -13 18 0 28 20 28 56 0 19 -5 24 -25 24 -19 0 -25 -5 -25 -21z m40 -4 c0
-8 -7 -15 -15 -15 -8 0 -15 7 -15 15 0 8 7 15 15 15 8 0 15 -7 15 -15z"/>
<path d="M3596 2455 c-6 -17 5 -26 21 -17 8 5 7 11 -2 19 -10 10 -14 9 -19 -2z"/>
<path d="M3595 2281 c-3 -7 0 -8 9 -5 30 11 29 -24 -1 -50 l-28 -25 35 0 c19
1 27 3 17 6 -17 4 -17 6 -2 23 9 10 15 27 13 37 -4 20 -33 30 -43 14z"/>
<path d="M4194 2266 c-3 -9 -4 -23 0 -31 6 -17 36 -21 36 -4 0 5 -4 8 -9 4 -5
-3 -12 -1 -16 5 -3 6 3 10 15 10 13 0 20 5 18 13 -7 18 -37 21 -44 3z m33 -2
c-3 -3 -12 -4 -19 -1 -8 3 -5 6 6 6 11 1 17 -2 13 -5z"/>
<path d="M4261 2248 c2 -28 2 -29 6 -8 3 14 10 28 17 32 7 5 5 8 -6 8 -14 0
-18 -8 -17 -32z"/>
<path d="M5323 4373 c9 -2 15 -9 12 -14 -4 -5 -1 -9 4 -9 6 0 11 -10 11 -21 0
-16 -5 -20 -20 -16 -11 3 -20 1 -20 -4 0 -5 11 -9 25 -9 23 0 25 3 23 40 -3
36 -6 40 -28 39 -17 -1 -19 -3 -7 -6z"/>
<path d="M5395 4370 c11 -5 16 -9 11 -9 -6 -1 -2 -7 9 -14 22 -17 11 -41 -16
-34 -11 3 -19 1 -19 -4 0 -5 11 -9 25 -9 29 0 43 23 26 43 -8 10 -7 17 1 25 9
9 4 12 -22 11 -29 0 -31 -2 -15 -9z"/>
<path d="M4297 3646 c-9 -24 -9 -28 3 -21 6 3 10 -1 10 -10 0 -11 -5 -15 -15
-11 -8 3 -15 1 -15 -4 0 -6 9 -10 19 -10 11 0 22 -6 24 -12 12 -28 5 19 -7 51
-10 28 -14 31 -19 17z"/>
<path d="M4355 3639 c-15 -18 -15 -20 -2 -10 15 12 17 10 17 -17 0 -21 -6 -32
-17 -35 -10 -3 -2 -5 17 -6 19 0 30 3 23 7 -6 4 -13 25 -15 46 l-3 38 -20 -23z"/>
<path d="M4281 3463 c1 -27 4 -38 6 -25 2 12 7 22 10 22 2 0 14 -10 24 -22 19
-22 19 -22 10 -2 -7 15 -7 24 1 32 15 15 -7 42 -33 42 -16 0 -19 -7 -18 -47z
m47 20 c2 -8 -5 -13 -17 -13 -12 0 -21 6 -21 16 0 18 31 15 38 -3z"/>
<path d="M4551 3467 c-1 -45 1 -48 22 -45 30 4 37 47 8 55 -11 3 -22 12 -24
22 -3 9 -5 -6 -6 -32z m39 -17 c0 -11 -7 -20 -15 -20 -8 0 -15 9 -15 20 0 11
7 20 15 20 8 0 15 -9 15 -20z"/>
<path d="M4841 3463 c1 -26 4 -38 6 -25 3 14 12 22 24 22 30 0 22 44 -8 48
-21 3 -23 0 -22 -45z m37 19 c2 -7 -3 -12 -12 -12 -9 0 -16 7 -16 16 0 17 22
14 28 -4z"/>
<path d="M4910 3500 c0 -5 5 -10 11 -10 5 0 7 5 4 10 -3 6 -8 10 -11 10 -2 0
-4 -4 -4 -10z"/>
<path d="M5000 3466 c0 -44 -1 -45 -35 -49 l-35 -4 37 1 c31 1 39 5 41 24 2
14 10 22 22 22 10 0 22 5 25 10 9 15 -14 40 -36 40 -16 0 -19 -8 -19 -44z m48
17 c2 -8 -5 -13 -17 -13 -12 0 -21 6 -21 16 0 18 31 15 38 -3z"/>
<path d="M5301 3494 c0 -11 3 -14 6 -6 3 7 2 16 -1 19 -3 4 -6 -2 -5 -13z"/>
<path d="M4374 3471 c19 -7 19 -8 -3 -14 -28 -7 -23 -31 7 -35 19 -3 22 1 22
27 0 26 -4 31 -22 30 -21 0 -22 -1 -4 -8z m16 -31 c0 -5 -7 -10 -15 -10 -8 0
-15 5 -15 10 0 6 7 10 15 10 8 0 15 -4 15 -10z"/>
<path d="M4425 3470 c-3 -6 1 -13 9 -16 21 -8 20 -21 -1 -27 -14 -4 -12 -5 5
-6 26 -1 31 26 5 36 -15 6 -15 7 3 14 16 6 16 8 2 8 -9 1 -20 -4 -23 -9z"/>
<path d="M4491 3438 c0 -24 3 -37 6 -30 2 6 11 12 19 12 9 0 14 11 14 30 0 23
-4 30 -20 30 -17 0 -20 -6 -19 -42z m29 12 c0 -11 -4 -20 -10 -20 -5 0 -10 9
-10 20 0 11 5 20 10 20 6 0 10 -9 10 -20z"/>
<path d="M4620 3450 c0 -25 4 -30 23 -29 16 1 18 2 5 6 -22 5 -24 23 -3 23 8
0 15 7 15 15 0 8 -9 15 -20 15 -16 0 -20 -7 -20 -30z"/>
<path d="M4691 3448 c2 -28 2 -29 6 -8 3 14 10 28 17 32 7 5 5 8 -6 8 -14 0
-18 -8 -17 -32z"/>
<path d="M4731 3448 c1 -22 3 -26 6 -13 3 11 10 26 15 33 8 9 6 12 -6 12 -12
0 -16 -9 -15 -32z"/>
<path d="M4912 3450 c0 -19 2 -27 5 -17 2 9 2 25 0 35 -3 9 -5 1 -5 -18z"/>
<path d="M5082 3450 c0 -19 2 -27 5 -17 2 9 2 25 0 35 -3 9 -5 1 -5 -18z"/>
<path d="M5114 3465 c-10 -24 4 -45 28 -44 l23 2 -22 4 c-14 3 -23 12 -23 23
0 11 9 20 23 23 l22 4 -23 2 c-12 0 -25 -6 -28 -14z"/>
<path d="M5180 3450 c0 -23 4 -30 20 -30 16 0 20 7 20 30 0 23 -4 30 -20 30
-16 0 -20 -7 -20 -30z m30 0 c0 -11 -4 -20 -10 -20 -5 0 -10 9 -10 20 0 11 5
20 10 20 6 0 10 -9 10 -20z"/>
<path d="M5322 3460 c-17 -28 -15 -48 3 -24 14 19 14 19 15 -1 l1 -20 9 20 c5
11 9 27 9 35 1 12 -1 13 -8 1 -6 -9 -10 -10 -12 -2 -2 6 -10 2 -17 -9z"/>
<path d="M4780 3455 c0 -5 4 -16 9 -23 6 -11 10 -10 15 4 3 9 4 19 1 22 -3 3
-5 -1 -5 -9 0 -11 -2 -11 -10 1 -5 8 -10 11 -10 5z"/>
<path d="M5248 3413 c12 -2 30 -2 40 0 9 3 -1 5 -23 4 -22 0 -30 -2 -17 -4z"/>
<path d="M2858 4373 c28 -6 28 -20 0 -50 l-21 -23 29 1 c23 0 25 2 11 8 -17 6
-17 8 -3 20 9 7 16 22 16 32 0 14 -7 19 -27 18 -24 -2 -25 -2 -5 -6z"/>
<path d="M2914 4366 c-11 -29 0 -61 21 -61 16 0 21 8 23 38 3 32 0 37 -18 37
-11 0 -23 -6 -26 -14z m36 -27 c0 -38 -24 -35 -28 4 -2 19 1 27 12 27 11 0 16
-10 16 -31z"/>
<path d="M4041 3640 c1 -18 3 -20 6 -7 3 11 11 16 19 13 8 -3 14 -1 14 4 0 20
29 9 33 -12 4 -20 4 -19 6 5 1 26 -1 27 -39 25 -36 -3 -40 -6 -39 -28z"/>
<path d="M3600 2575 c-9 -11 -10 -16 -2 -11 8 5 12 -1 12 -23 0 -16 -6 -32
-12 -34 -7 -3 1 -6 17 -6 17 0 25 3 18 7 -6 4 -13 25 -15 46 -3 37 -4 38 -18
21z"/>
<path d="M3748 2508 c5 -5 16 -8 23 -6 8 3 3 7 -10 11 -17 4 -21 3 -13 -5z"/>
<path d="M3810 2475 c13 -14 26 -25 28 -25 3 0 -5 11 -18 25 -13 14 -26 25
-28 25 -3 0 5 -11 18 -25z"/>
<path d="M3930 2416 c0 -38 3 -46 19 -46 28 0 41 22 32 56 -5 19 -15 30 -29
32 -20 3 -22 -1 -22 -42z m32 19 c0 -5 -5 -11 -11 -13 -6 -2 -11 4 -11 13 0 9
5 15 11 13 6 -2 11 -8 11 -13z m11 -40 c1 -5 -6 -11 -15 -13 -11 -2 -18 3 -18
13 0 17 30 18 33 0z"/>
<path d="M4018 2453 c15 -3 22 -10 18 -19 -8 -21 2 -17 14 6 10 18 8 20 -22
19 -25 -1 -27 -3 -10 -6z"/>
<path d="M4010 2390 c-10 -18 -8 -20 22 -19 25 1 27 3 10 6 -15 3 -22 10 -18
19 8 21 -2 17 -14 -6z"/>
<path d="M3872 2345 c-1 -22 -5 -51 -7 -65 l-6 -25 11 25 c6 13 9 42 7 65 l-4
40 -1 -40z"/>
<path d="M3930 2266 c0 -38 3 -46 19 -46 28 0 41 22 32 56 -5 19 -15 30 -29
32 -20 3 -22 -1 -22 -42z m32 19 c0 -5 -5 -11 -11 -13 -6 -2 -11 4 -11 13 0 9
5 15 11 13 6 -2 11 -8 11 -13z m11 -40 c1 -5 -6 -11 -15 -13 -11 -2 -18 3 -18
13 0 17 30 18 33 0z"/>
<path d="M4014 2250 c1 -15 8 -26 19 -28 14 -3 17 3 16 30 -2 30 -2 31 -6 6
-5 -34 -20 -37 -26 -5 -3 19 -4 19 -3 -3z"/>
<path d="M4083 2273 c17 -4 17 -6 2 -29 -15 -23 -15 -24 12 -23 18 1 22 3 10
6 -17 4 -17 6 -2 29 15 23 15 24 -12 23 -18 -1 -22 -3 -10 -6z"/>
<path d="M3799 2193 c-13 -16 -12 -17 4 -4 9 7 17 15 17 17 0 8 -8 3 -21 -13z"/>
<path d="M3725 2160 l-30 -8 27 -1 c15 0 30 4 33 9 3 6 5 9 3 9 -2 -1 -16 -5
-33 -9z"/>
<path d="M7423 3503 c-7 -2 -13 -9 -13 -15 0 -6 6 -6 15 2 8 6 20 8 26 4 8 -4
9 -3 5 4 -8 13 -13 14 -33 5z"/>
<path d="M7492 3498 c-24 -24 -11 -78 19 -78 10 0 19 4 19 9 0 5 -8 8 -17 7
-14 -1 -18 7 -18 29 0 22 4 30 17 29 10 -1 15 2 12 7 -7 12 -18 11 -32 -3z"/>
<path d="M7370 3466 c0 -9 -4 -14 -10 -11 -12 8 -13 -5 -1 -23 6 -10 10 -7 15
13 4 15 5 30 1 33 -3 3 -5 -2 -5 -12z"/>
<path d="M7401 3467 c-2 -20 21 -47 39 -47 11 0 20 4 20 9 0 5 -8 7 -18 4 -12
-3 -22 3 -29 19 -7 13 -12 19 -12 15z"/>
<path d="M7352 3348 c-28 -28 -3 -85 32 -72 21 8 21 34 -1 34 -14 0 -15 -2 -4
-9 10 -6 10 -10 1 -16 -17 -11 -32 9 -28 36 2 16 9 24 20 23 10 -1 15 2 12 7
-7 12 -18 11 -32 -3z"/>
<path d="M7420 3315 c0 -27 2 -46 5 -44 7 8 9 78 2 85 -4 4 -7 -14 -7 -41z"/>
<path d="M7458 3325 c-2 -19 0 -41 4 -48 4 -7 8 9 8 36 0 55 -6 62 -12 12z"/>
<path d="M7500 3315 c0 -49 1 -50 31 -35 34 19 15 80 -25 80 -3 0 -6 -20 -6
-45z m40 0 c0 -13 -7 -25 -15 -29 -12 -4 -15 3 -15 29 0 26 3 33 15 29 8 -4
15 -16 15 -29z"/>
<path d="M7343 3194 c-4 -11 2 -23 17 -34 23 -18 13 -38 -12 -24 -10 5 -10 4
-1 -6 6 -7 19 -10 27 -7 23 9 20 38 -4 44 -24 6 -21 29 3 27 9 -1 14 2 11 7
-9 15 -34 10 -41 -7z"/>
<path d="M7410 3165 c0 -32 4 -45 14 -45 17 0 46 27 46 43 0 6 -7 1 -16 -11
-22 -32 -34 -27 -34 13 0 37 8 43 28 23 8 -8 12 -8 12 -1 0 11 -22 23 -41 23
-5 0 -9 -20 -9 -45z"/>
<path d="M7492 3169 c-6 -24 -9 -45 -6 -48 2 -2 4 1 4 7 0 7 9 12 20 12 11 0
20 4 20 10 0 5 -7 7 -15 4 -10 -4 -15 0 -15 11 0 9 5 13 10 10 12 -7 13 5 1
23 -6 9 -12 0 -19 -29z"/>
<path d="M7343 3044 c-4 -11 2 -23 17 -34 23 -18 13 -38 -12 -24 -10 5 -10 4
-1 -6 6 -7 19 -10 27 -7 23 9 20 38 -4 44 -24 6 -21 29 3 27 9 -1 14 2 11 7
-9 15 -34 10 -41 -7z"/>
<path d="M7447 3049 c7 -7 15 -10 18 -7 3 3 -2 9 -12 12 -14 6 -15 5 -6 -5z"/>
<path d="M7492 3018 c-2 -44 0 -48 21 -47 16 1 17 3 5 6 -12 3 -18 17 -21 46
l-4 42 -1 -47z"/>
<path d="M7417 3043 c-9 -9 -9 -51 1 -56 4 -3 7 10 7 29 0 19 0 34 -1 34 0 0
-4 -3 -7 -7z"/>
<path d="M7445 2980 c-3 -6 1 -7 9 -4 18 7 21 14 7 14 -6 0 -13 -4 -16 -10z"/>
<path d="M4871 1728 c1 -22 3 -26 6 -13 3 11 10 26 15 33 8 9 6 12 -6 12 -12
0 -16 -9 -15 -32z"/>
<path d="M4920 1745 c-16 -19 -5 -47 17 -43 11 2 18 12 18 27 0 29 -17 37 -35
16z m30 -21 c0 -16 -16 -19 -25 -4 -8 13 4 32 16 25 5 -4 9 -13 9 -21z"/>
<path d="M5002 1728 c-17 -17 -15 -33 2 -19 11 9 15 9 19 -1 4 -9 6 -7 6 4 1
22 -13 30 -27 16z"/>
<path d="M4871 1578 c1 -22 3 -26 6 -13 3 11 10 26 15 33 8 9 6 12 -6 12 -12
0 -16 -9 -15 -32z"/>
<path d="M4920 1595 c-16 -19 -5 -47 17 -43 11 2 18 12 18 27 0 29 -17 37 -35
16z m30 -21 c0 -16 -16 -19 -25 -4 -8 13 4 32 16 25 5 -4 9 -13 9 -21z"/>
<path d="M5002 1578 c-17 -17 -15 -33 2 -19 11 9 15 9 19 -1 4 -9 6 -7 6 4 1
22 -13 30 -27 16z"/>
<path d="M4871 1428 c1 -22 3 -26 6 -13 3 11 10 26 15 33 8 9 6 12 -6 12 -12
0 -16 -9 -15 -32z"/>
<path d="M4920 1445 c-16 -19 -5 -47 17 -43 11 2 18 12 18 27 0 29 -17 37 -35
16z m30 -21 c0 -16 -16 -19 -25 -4 -8 13 4 32 16 25 5 -4 9 -13 9 -21z"/>
<path d="M5002 1428 c-17 -17 -15 -33 2 -19 11 9 15 9 19 -1 4 -9 6 -7 6 4 1
22 -13 30 -27 16z"/>
<path d="M4871 1278 c1 -22 3 -26 6 -13 3 11 10 26 15 33 8 9 6 12 -6 12 -12
0 -16 -9 -15 -32z"/>
<path d="M4920 1295 c-16 -19 -5 -47 17 -43 11 2 18 12 18 27 0 29 -17 37 -35
16z m30 -21 c0 -16 -16 -19 -25 -4 -8 13 4 32 16 25 5 -4 9 -13 9 -21z"/>
<path d="M5002 1278 c-17 -17 -15 -33 2 -19 11 9 15 9 19 -1 4 -9 6 -7 6 4 1
22 -13 30 -27 16z"/>
<path d="M5000 1146 c0 -19 3 -37 8 -40 4 -2 6 13 4 35 -5 48 -12 51 -12 5z"/>
<path d="M4877 1153 c-4 -3 -7 -17 -7 -30 0 -18 5 -23 23 -22 16 1 18 2 5 6
-10 2 -18 14 -18 25 0 14 5 18 16 14 8 -3 12 -2 9 4 -7 12 -19 13 -28 3z"/>
<path d="M4934 1146 c-9 -24 4 -48 23 -44 12 2 18 12 18 28 0 29 -32 41 -41
16z m36 -22 c0 -8 -7 -14 -15 -14 -15 0 -21 21 -9 33 10 9 24 -2 24 -19z"/>
<path d="M5000 996 c0 -19 3 -37 8 -40 4 -2 6 13 4 35 -5 48 -12 51 -12 5z"/>
<path d="M4877 1003 c-4 -3 -7 -17 -7 -30 0 -18 5 -23 23 -22 16 1 18 2 5 6
-10 2 -18 14 -18 25 0 14 5 18 16 14 8 -3 12 -2 9 4 -7 12 -19 13 -28 3z"/>
<path d="M4934 996 c-9 -24 4 -48 23 -44 12 2 18 12 18 28 0 29 -32 41 -41 16z
m36 -22 c0 -8 -7 -14 -15 -14 -15 0 -21 21 -9 33 10 9 24 -2 24 -19z"/>
<path d="M5000 846 c0 -19 3 -37 8 -40 4 -2 6 13 4 35 -5 48 -12 51 -12 5z"/>
<path d="M4870 830 c0 -25 4 -30 23 -29 16 1 18 2 5 6 -10 2 -18 13 -18 23 0
10 8 21 18 23 13 4 11 5 -5 6 -19 1 -23 -4 -23 -29z"/>
<path d="M4934 846 c-9 -24 4 -48 23 -44 12 2 18 12 18 28 0 29 -32 41 -41 16z
m36 -16 c0 -11 -7 -20 -15 -20 -8 0 -15 9 -15 20 0 11 7 20 15 20 8 0 15 -9
15 -20z"/>
<path d="M5000 696 c0 -19 3 -37 8 -40 4 -2 6 13 4 35 -5 48 -12 51 -12 5z"/>
<path d="M4870 680 c0 -25 4 -30 23 -29 16 1 18 2 5 6 -10 2 -18 13 -18 23 0
10 8 21 18 23 13 4 11 5 -5 6 -19 1 -23 -4 -23 -29z"/>
<path d="M4934 696 c-9 -24 4 -48 23 -44 12 2 18 12 18 28 0 29 -32 41 -41 16z
m36 -16 c0 -11 -7 -20 -15 -20 -8 0 -15 9 -15 20 0 11 7 20 15 20 8 0 15 -9
15 -20z"/>
<path d="M3744 7815 c-8 -19 3 -35 25 -35 12 0 20 9 23 25 4 21 1 25 -19 25
-13 0 -26 -7 -29 -15z m36 -10 c0 -8 -7 -15 -15 -15 -8 0 -15 7 -15 15 0 8 7
15 15 15 8 0 15 -7 15 -15z"/>
<path d="M4044 7815 c-9 -23 9 -37 42 -33 21 2 29 8 29 23 0 26 -62 35 -71 10z
m66 -10 c0 -10 -10 -15 -30 -15 -20 0 -30 5 -30 15 0 10 10 15 30 15 20 0 30
-5 30 -15z"/>
<path d="M4368 7805 c-5 -22 -2 -25 23 -25 24 0 29 4 29 25 0 20 -5 25 -24 25
-17 0 -25 -7 -28 -25z m42 0 c0 -8 -7 -15 -15 -15 -8 0 -15 7 -15 15 0 8 7 15
15 15 8 0 15 -7 15 -15z"/>
<path d="M3811 7804 c0 -11 3 -14 6 -6 3 7 2 16 -1 19 -3 4 -6 -2 -5 -13z"/>
<path d="M4341 7804 c0 -11 3 -14 6 -6 3 7 2 16 -1 19 -3 4 -6 -2 -5 -13z"/>
<path d="M3741 7725 c1 -25 2 -26 6 -7 3 15 10 22 19 18 8 -3 14 -1 14 4 0 23
29 8 33 -17 4 -26 4 -26 6 5 1 32 0 32 -39 30 -37 -3 -40 -5 -39 -33z"/>
<path d="M4075 7749 c-17 -6 -17 -8 -2 -8 9 -1 17 -5 17 -11 0 -6 -9 -6 -26 0
-31 12 -44 12 -24 1 34 -19 60 -23 60 -8 0 9 5 17 12 19 8 3 7 6 -3 10 -7 3
-23 2 -34 -3z"/>
<path d="M4341 7725 c1 -25 2 -26 6 -7 3 15 10 22 19 18 8 -3 14 -1 14 4 0 23
29 8 33 -17 4 -26 4 -26 6 5 1 32 0 32 -39 30 -37 -3 -40 -5 -39 -33z"/>
<path d="M2840 7490 c0 -37 2 -41 23 -38 18 2 22 9 22 38 0 29 -4 36 -22 38
-21 3 -23 -1 -23 -38z m40 0 c0 -20 -5 -30 -15 -30 -10 0 -15 10 -15 30 0 20
5 30 15 30 10 0 15 -10 15 -30z"/>
<path d="M2922 7514 c-7 -8 -8 -14 -2 -14 14 0 13 -37 -2 -43 -7 -3 3 -5 22
-5 19 0 27 2 18 5 -11 3 -18 16 -20 38 -2 27 -5 31 -16 19z"/>
<path d="M2840 7340 c0 -37 2 -41 23 -38 18 2 22 9 22 38 0 29 -4 36 -22 38
-21 3 -23 -1 -23 -38z m40 0 c0 -20 -5 -30 -15 -30 -10 0 -15 10 -15 30 0 20
5 30 15 30 10 0 15 -10 15 -30z"/>
<path d="M2910 7376 c0 -8 51 -13 56 -5 3 5 -9 9 -25 9 -17 0 -31 -2 -31 -4z"/>
<path d="M2936 7351 c-4 -6 0 -11 8 -11 28 0 17 -28 -11 -33 l-28 -4 28 -2
c17 0 30 5 34 15 7 19 -21 51 -31 35z"/>
<path d="M2853 7073 c11 -3 16 -11 13 -19 -3 -8 -1 -14 4 -14 20 0 9 -29 -12
-33 -20 -4 -19 -4 5 -6 26 -1 27 1 25 39 -3 36 -6 40 -28 39 -18 -1 -20 -3 -7
-6z"/>
<path d="M2914 7066 c-11 -29 1 -61 24 -64 20 -3 22 1 22 37 0 35 -3 41 -20
41 -11 0 -23 -6 -26 -14z m36 -26 c0 -20 -5 -30 -15 -30 -10 0 -15 10 -15 30
0 20 5 30 15 30 10 0 15 -10 15 -30z"/>
<path d="M460 6910 c0 -37 2 -41 23 -38 18 2 22 9 22 38 0 29 -4 36 -22 38
-21 3 -23 -1 -23 -38z m40 0 c0 -20 -5 -30 -15 -30 -10 0 -15 10 -15 30 0 20
5 30 15 30 10 0 15 -10 15 -30z"/>
<path d="M540 6935 c-9 -11 -10 -16 -2 -11 8 5 12 0 12 -18 0 -13 -6 -27 -12
-29 -7 -3 3 -5 22 -5 19 0 27 2 18 5 -11 3 -18 17 -20 40 -3 34 -4 35 -18 18z"/>
<path d="M2853 6923 c11 -3 16 -11 13 -19 -3 -8 -1 -14 4 -14 20 0 9 -29 -12
-33 -20 -4 -19 -4 5 -6 26 -1 27 1 25 39 -3 36 -6 40 -28 39 -18 -1 -20 -3 -7
-6z"/>
<path d="M2928 6923 c26 -5 26 -6 7 -43 -9 -17 -13 -30 -10 -30 2 0 14 18 25
40 l20 40 -32 -1 c-24 -1 -27 -3 -10 -6z"/>
<path d="M432 6763 c-2 -41 -1 -43 26 -42 22 1 23 2 5 6 -17 3 -23 13 -26 41
l-4 37 -1 -42z"/>
<path d="M490 6760 c0 -37 2 -40 28 -39 23 2 24 2 5 6 -27 5 -31 30 -5 36 16
4 16 5 0 6 -26 2 -22 19 5 24 19 4 18 4 -5 6 -26 1 -28 -2 -28 -39z"/>
<path d="M560 6760 c0 -37 2 -41 23 -38 18 2 22 9 22 38 0 29 -4 36 -22 38
-21 3 -23 -1 -23 -38z m40 0 c0 -20 -5 -30 -15 -30 -10 0 -15 10 -15 30 0 20
5 30 15 30 10 0 15 -10 15 -30z"/>
<path d="M760 6760 c0 -37 2 -41 23 -38 18 2 22 9 22 38 0 29 -4 36 -22 38
-21 3 -23 -1 -23 -38z m40 0 c0 -20 -5 -30 -15 -30 -10 0 -15 10 -15 30 0 20
5 30 15 30 10 0 15 -10 15 -30z"/>
<path d="M853 6793 c34 -5 34 -10 0 -45 l-27 -28 35 1 c25 1 28 3 11 6 l-24 5
22 23 c26 28 19 46 -18 44 l-27 -2 28 -4z"/>
<path d="M732 6613 c-2 -41 -1 -43 26 -42 22 1 23 2 5 6 -17 3 -23 13 -26 41
l-4 37 -1 -42z"/>
<path d="M790 6610 c0 -37 2 -40 28 -39 23 2 24 2 5 6 -27 5 -31 30 -5 36 16
4 16 5 0 6 -26 2 -22 19 5 24 19 4 18 4 -5 6 -26 1 -28 -2 -28 -39z"/>
<path d="M860 6610 c0 -37 2 -41 23 -38 18 2 22 9 22 38 0 29 -4 36 -22 38
-21 3 -23 -1 -23 -38z m40 0 c0 -20 -5 -30 -15 -30 -10 0 -15 10 -15 30 0 20
5 30 15 30 10 0 15 -10 15 -30z"/>
<path d="M990 6610 c0 -26 5 -40 13 -40 34 0 52 62 21 74 -29 11 -34 6 -34
-34z m35 0 c0 -13 -6 -25 -12 -27 -9 -3 -13 6 -13 27 0 21 4 30 13 28 6 -3 12
-15 12 -28z"/>
<path d="M1068 6643 c15 -3 22 -10 18 -19 -3 -8 -1 -14 4 -14 6 0 10 -7 10
-16 0 -12 -7 -15 -26 -11 -16 3 -22 1 -16 -5 6 -6 18 -8 28 -6 14 2 19 12 19
41 1 35 -1 37 -30 36 -24 -1 -26 -3 -7 -6z"/>
<path d="M2885 6616 c-16 -13 -17 -15 -2 -10 13 5 17 1 17 -19 0 -16 -7 -27
-17 -30 -10 -3 -2 -5 17 -6 19 0 30 3 23 7 -6 4 -13 22 -15 40 -3 31 -4 32
-23 18z"/>
<path d="M1291 6479 c-14 -41 -14 -39 8 -39 11 0 21 -5 23 -12 3 -8 6 -7 10 3
3 7 2 23 -3 34 -6 17 -8 17 -8 3 -1 -10 -8 -18 -16 -18 -12 0 -13 5 -4 26 5
15 8 29 5 31 -2 2 -9 -10 -15 -28z"/>
<path d="M1020 6460 c0 -35 3 -40 23 -39 16 1 18 2 5 6 -21 5 -24 29 -5 36 10
4 10 6 0 6 -19 1 -16 19 5 24 13 4 11 5 -5 6 -20 1 -23 -4 -23 -39z"/>
<path d="M1090 6460 c0 -26 5 -40 13 -40 34 0 52 62 21 74 -29 11 -34 6 -34
-34z m35 0 c0 -13 -6 -25 -12 -27 -9 -3 -13 6 -13 27 0 21 4 30 13 28 6 -3 12
-15 12 -28z"/>
<path d="M1210 6460 c0 -37 2 -41 23 -38 18 2 22 9 22 38 0 29 -4 36 -22 38
-21 3 -23 -1 -23 -38z m40 0 c0 -20 -5 -30 -15 -30 -10 0 -15 10 -15 30 0 20
5 30 15 30 10 0 15 -10 15 -30z"/>
<path d="M395 6448 l-40 -43 43 40 c23 21 42 40 42 42 0 8 -9 0 -45 -39z"/>
<path d="M475 6448 l-40 -43 43 40 c23 21 42 40 42 42 0 8 -9 0 -45 -39z"/>
<path d="M2893 6473 c34 -5 34 -10 0 -45 l-27 -28 35 1 c25 1 28 3 11 6 l-24
5 22 23 c26 28 19 46 -18 44 l-27 -2 28 -4z"/>
<path d="M341 6423 c-1 -31 1 -33 32 -32 29 1 30 2 7 8 -14 4 -27 17 -31 31
-6 23 -7 22 -8 -7z"/>
<path d="M421 6423 c-1 -30 2 -33 27 -32 23 0 24 2 7 8 -11 4 -23 19 -26 32
-6 21 -7 20 -8 -8z"/>
<path d="M1240 6310 c0 -37 2 -40 28 -39 23 2 24 2 5 6 -27 5 -31 30 -5 36 16
4 16 5 0 6 -26 2 -22 19 5 24 19 4 18 4 -5 6 -26 1 -28 -2 -28 -39z"/>
<path d="M1310 6310 c0 -37 2 -41 23 -38 18 2 22 9 22 38 0 29 -4 36 -22 38
-21 3 -23 -1 -23 -38z m40 0 c0 -20 -5 -30 -15 -30 -10 0 -15 10 -15 30 0 20
5 30 15 30 10 0 15 -10 15 -30z"/>
<path d="M1440 6310 c0 -26 5 -40 13 -40 34 0 52 62 21 74 -29 11 -34 6 -34
-34z m35 0 c0 -13 -6 -25 -12 -27 -9 -3 -13 6 -13 27 0 21 4 30 13 28 6 -3 12
-15 12 -28z"/>
<path d="M1510 6331 c0 -12 7 -18 17 -17 10 0 19 -7 21 -18 3 -15 0 -18 -17
-13 -12 3 -21 1 -21 -5 0 -5 10 -8 23 -6 32 4 37 47 5 56 l-23 6 25 7 25 7
-27 1 c-21 1 -28 -4 -28 -18z"/>
<path d="M695 6298 l-40 -43 43 40 c23 21 42 40 42 42 0 8 -9 0 -45 -39z"/>
<path d="M775 6298 l-40 -43 43 40 c23 21 42 40 42 42 0 8 -9 0 -45 -39z"/>
<path d="M2881 6309 c-14 -41 -14 -39 8 -39 11 0 21 -5 23 -12 3 -8 6 -7 10 3
3 7 2 23 -3 34 -6 17 -8 17 -8 3 -1 -10 -8 -18 -16 -18 -12 0 -13 5 -4 26 5
15 8 29 5 31 -2 2 -9 -10 -15 -28z"/>
<path d="M641 6273 c-1 -31 1 -33 32 -32 29 1 30 2 7 8 -14 4 -27 17 -31 31
-6 23 -7 22 -8 -7z"/>
<path d="M721 6273 c-1 -30 2 -33 27 -32 23 0 24 2 7 8 -11 4 -23 19 -26 32
-6 21 -7 20 -8 -8z"/>
<path d="M1470 6160 c0 -35 3 -40 23 -39 16 1 18 2 5 6 -21 5 -24 29 -5 36 10
4 10 6 0 6 -19 1 -16 19 5 24 13 4 11 5 -5 6 -20 1 -23 -4 -23 -39z"/>
<path d="M1540 6160 c0 -26 5 -40 13 -40 34 0 52 62 21 74 -29 11 -34 6 -34
-34z m35 0 c0 -13 -6 -25 -12 -27 -9 -3 -13 6 -13 27 0 21 4 30 13 28 6 -3 12
-15 12 -28z"/>
<path d="M1660 6160 c0 -37 2 -41 23 -38 18 2 22 9 22 38 0 29 -4 36 -22 38
-21 3 -23 -1 -23 -38z m40 0 c0 -20 -5 -30 -15 -30 -10 0 -15 10 -15 30 0 20
5 30 15 30 10 0 15 -10 15 -30z"/>
<path d="M1735 6170 c-8 -36 0 -50 26 -50 25 0 27 48 2 57 -15 6 -15 7 3 14
18 7 18 8 -3 8 -16 1 -23 -7 -28 -29z m35 -20 c0 -21 -15 -27 -25 -10 -7 12 2
30 16 30 5 0 9 -9 9 -20z"/>
<path d="M925 6148 c-22 -24 -28 -32 -12 -19 l27 24 0 -31 c0 -30 2 -32 33
-31 29 1 30 2 7 8 -31 8 -43 49 -22 74 30 34 5 16 -33 -25z"/>
<path d="M995 6148 l-40 -43 43 40 c23 21 42 40 42 42 0 8 -9 0 -45 -39z"/>
<path d="M2888 6173 c6 -2 18 -2 25 0 6 3 1 5 -13 5 -14 0 -19 -2 -12 -5z"/>
<path d="M871 6123 c-1 -30 2 -33 27 -32 23 0 24 2 7 8 -11 4 -23 19 -26 32
-6 21 -7 20 -8 -8z"/>
<path d="M2898 6143 c29 -5 23 -28 -7 -27 -13 0 -18 -3 -12 -9 15 -15 46 -3
46 18 0 14 -7 20 -25 21 -23 1 -23 1 -2 -3z"/>
<path d="M1690 6010 c0 -37 2 -40 28 -39 23 2 24 2 5 6 -27 5 -31 30 -5 36 16
4 16 5 0 6 -26 2 -22 19 5 24 19 4 18 4 -5 6 -26 1 -28 -2 -28 -39z"/>
<path d="M1760 6010 c0 -37 2 -41 23 -38 18 2 22 9 22 38 0 29 -4 36 -22 38
-21 3 -23 -1 -23 -38z m40 0 c0 -20 -5 -30 -15 -30 -10 0 -15 10 -15 30 0 20
5 30 15 30 10 0 15 -10 15 -30z"/>
<path d="M1145 5998 l-40 -43 43 40 c39 36 47 45 39 45 -2 0 -21 -19 -42 -42z"/>
<path d="M1225 5998 l-40 -43 43 40 c23 21 42 40 42 42 0 8 -9 0 -45 -39z"/>
<path d="M2886 6021 c-4 -5 3 -7 14 -4 23 6 26 13 6 13 -8 0 -17 -4 -20 -9z"/>
<path d="M1091 5973 c-1 -31 1 -33 32 -32 29 1 30 2 7 8 -14 4 -27 17 -31 31
-6 23 -7 22 -8 -7z"/>
<path d="M1171 5973 c-1 -30 2 -33 27 -32 23 0 24 2 7 8 -11 4 -23 19 -26 32
-6 21 -7 20 -8 -8z"/>
<path d="M2872 5978 c4 -31 53 -34 53 -3 0 15 -8 21 -28 23 -25 3 -28 0 -25
-20z m46 0 c-3 -7 -11 -13 -18 -13 -7 0 -15 6 -17 13 -3 7 4 12 17 12 13 0 20
-5 18 -12z"/>
<path d="M1813 5893 c9 -2 25 -2 35 0 9 3 1 5 -18 5 -19 0 -27 -2 -17 -5z"/>
<path d="M1375 5848 c-22 -24 -28 -32 -12 -19 l27 24 0 -31 c0 -30 2 -32 33
-31 29 1 30 2 7 8 -31 8 -43 49 -22 74 30 34 5 16 -33 -25z"/>
<path d="M1445 5848 l-40 -43 43 40 c23 21 42 40 42 42 0 8 -9 0 -45 -39z"/>
<path d="M2883 5873 c9 -2 25 -2 35 0 9 3 1 5 -18 5 -19 0 -27 -2 -17 -5z"/>
<path d="M2906 5845 c-9 -26 -7 -32 5 -12 6 10 9 21 6 23 -2 3 -7 -2 -11 -11z"/>
<path d="M1321 5823 c-1 -30 2 -33 27 -32 23 0 24 2 7 8 -11 4 -23 19 -26 32
-6 21 -7 20 -8 -8z"/>
<path d="M1670 5703 l-45 -48 43 40 42 39 0 -32 c0 -27 4 -32 23 -31 16 1 17
3 5 6 -11 3 -18 17 -20 39 l-3 35 -45 -48z"/>
<path d="M1960 5710 c0 -37 2 -41 23 -38 18 2 22 9 22 38 0 29 -4 36 -22 38
-21 3 -23 -1 -23 -38z m40 0 c0 -20 -5 -30 -15 -30 -10 0 -15 10 -15 30 0 20
5 30 15 30 10 0 15 -10 15 -30z"/>
<path d="M2038 5743 c-2 -5 -3 -21 -3 -38 0 -23 5 -31 23 -33 20 -3 22 1 22
37 0 34 -3 41 -19 41 -11 0 -21 -3 -23 -7z m32 -13 c0 -5 -4 -10 -9 -10 -6 0
-13 5 -16 10 -3 6 1 10 9 10 9 0 16 -4 16 -10z m0 -36 c0 -9 -5 -14 -12 -12
-18 6 -21 28 -4 28 9 0 16 -7 16 -16z"/>
<path d="M1595 5698 c-22 -24 -28 -32 -12 -19 l27 24 0 -31 c0 -30 2 -32 33
-31 29 1 30 2 7 8 -31 8 -43 49 -22 74 30 34 5 16 -33 -25z"/>
<path d="M2874 5715 c-7 -18 3 -35 22 -35 20 0 18 -18 -3 -23 -17 -4 -17 -5 0
-6 20 -1 42 40 34 63 -8 20 -46 21 -53 1z m46 -10 c0 -8 -9 -15 -20 -15 -11 0
-20 7 -20 15 0 8 9 15 20 15 11 0 20 -7 20 -15z"/>
<path d="M1541 5673 c-1 -30 2 -33 27 -32 23 0 24 2 7 8 -11 4 -23 19 -26 32
-6 21 -7 20 -8 -8z"/>
<path d="M1990 5560 c0 -37 2 -40 28 -39 23 2 24 2 5 6 -27 5 -31 30 -5 36 16
4 16 5 0 6 -26 2 -22 19 5 24 19 4 18 4 -5 6 -26 1 -28 -2 -28 -39z"/>
<path d="M2060 5560 c0 -37 2 -41 23 -38 18 2 22 9 22 38 0 29 -4 36 -22 38
-21 3 -23 -1 -23 -38z m40 0 c0 -20 -5 -30 -15 -30 -10 0 -15 10 -15 30 0 20
5 30 15 30 10 0 15 -10 15 -30z"/>
<path d="M2260 5560 c0 -37 2 -41 23 -38 18 2 22 9 22 38 0 29 -4 36 -22 38
-21 3 -23 -1 -23 -38z m40 0 c0 -20 -5 -30 -15 -30 -10 0 -15 10 -15 30 0 20
5 30 15 30 10 0 15 -10 15 -30z"/>
<path d="M2334 5585 c-8 -19 3 -35 24 -35 15 -1 15 -2 -2 -15 -16 -12 -17 -15
-4 -15 18 0 28 20 28 56 0 17 -5 24 -20 24 -11 0 -23 -7 -26 -15z m36 -11 c0
-9 -5 -14 -12 -12 -18 6 -21 28 -4 28 9 0 16 -7 16 -16z"/>
<path d="M2850 5565 c-9 -11 -10 -16 -2 -11 8 5 12 0 12 -18 0 -13 -6 -27 -12
-29 -7 -3 1 -6 17 -6 17 0 25 3 18 7 -6 4 -13 23 -15 41 -3 32 -4 33 -18 16z"/>
<path d="M2914 5566 c-11 -29 0 -61 21 -61 16 0 21 8 23 38 3 32 0 37 -18 37
-11 0 -23 -6 -26 -14z m36 -27 c0 -38 -24 -35 -28 4 -2 19 1 27 12 27 11 0 16
-10 16 -31z"/>
<path d="M2232 5413 c-2 -41 -1 -43 26 -42 22 1 23 2 5 6 -17 3 -23 13 -26 41
l-4 37 -1 -42z"/>
<path d="M2290 5410 c0 -37 2 -40 28 -39 23 2 24 2 5 6 -27 5 -31 30 -5 36 16
4 16 5 0 6 -26 2 -22 19 5 24 19 4 18 4 -5 6 -26 1 -28 -2 -28 -39z"/>
<path d="M2360 5410 c0 -37 2 -41 23 -38 18 2 22 9 22 38 0 29 -4 36 -22 38
-21 3 -23 -1 -23 -38z m40 0 c0 -20 -5 -30 -15 -30 -10 0 -15 10 -15 30 0 20
5 30 15 30 10 0 15 -10 15 -30z"/>
<path d="M1665 5398 l-40 -43 43 40 c23 21 42 40 42 42 0 8 -9 0 -45 -39z"/>
<path d="M1745 5398 l-40 -43 43 40 c23 21 42 40 42 42 0 8 -9 0 -45 -39z"/>
<path d="M2850 5415 c-9 -11 -10 -16 -2 -11 8 5 12 0 12 -18 0 -13 -6 -27 -12
-29 -7 -3 1 -6 17 -6 17 0 25 3 18 7 -6 4 -13 23 -15 41 -3 32 -4 33 -18 16z"/>
<path d="M2920 5415 c-9 -11 -10 -16 -2 -11 8 5 12 0 12 -18 0 -13 -6 -27 -12
-29 -7 -3 1 -6 17 -6 17 0 25 3 18 7 -6 4 -13 23 -15 41 -3 32 -4 33 -18 16z"/>
<path d="M1611 5373 c-1 -31 1 -33 32 -32 29 1 30 2 7 8 -14 4 -27 17 -31 31
-6 23 -7 22 -8 -7z"/>
<path d="M1691 5373 c-1 -30 2 -33 27 -32 23 0 24 2 7 8 -11 4 -23 19 -26 32
-6 21 -7 20 -8 -8z"/>
<path d="M1895 5248 c-22 -24 -28 -32 -12 -19 l27 24 0 -31 c0 -30 2 -32 33
-31 29 1 30 2 7 8 -31 8 -43 49 -22 74 30 34 5 16 -33 -25z"/>
<path d="M1965 5248 l-40 -43 43 40 c23 21 42 40 42 42 0 8 -9 0 -45 -39z"/>
<path d="M2850 5265 c-9 -11 -10 -16 -2 -11 8 5 12 0 12 -18 0 -13 -6 -27 -12
-29 -7 -3 1 -6 17 -6 17 0 25 3 18 7 -6 4 -13 23 -15 41 -3 32 -4 33 -18 16z"/>
<path d="M2928 5273 c28 -6 28 -20 0 -50 l-21 -23 29 1 c23 0 25 2 11 8 -17 6
-17 8 -3 20 9 7 16 22 16 32 0 14 -7 19 -27 18 -24 -2 -25 -2 -5 -6z"/>
<path d="M1841 5223 c-1 -30 2 -33 27 -32 23 0 24 2 7 8 -11 4 -23 19 -26 32
-6 21 -7 20 -8 -8z"/>
<path d="M2265 5098 l-40 -43 43 40 c23 21 42 40 42 42 0 8 -9 0 -45 -39z"/>
<path d="M2921 5109 c-14 -41 -14 -39 8 -39 11 0 21 -5 23 -12 3 -8 6 -7 10 3
3 7 2 23 -3 34 -6 17 -8 17 -8 3 -1 -10 -8 -18 -16 -18 -12 0 -13 5 -4 26 5
15 8 29 5 31 -2 2 -9 -10 -15 -28z"/>
<path d="M2850 5115 c-9 -11 -10 -16 -2 -11 8 5 12 0 12 -18 0 -13 -6 -27 -12
-29 -7 -3 1 -6 17 -6 17 0 25 3 18 7 -6 4 -13 23 -15 41 -3 32 -4 33 -18 16z"/>
<path d="M7362 3783 c-2 -39 0 -43 21 -42 16 1 17 3 5 6 -11 3 -18 17 -21 41
l-4 37 -1 -42z"/>
<path d="M7420 3799 c-7 -11 -9 -23 -7 -26 3 -2 8 5 12 17 5 15 13 20 26 17
10 -3 19 -1 19 4 0 18 -40 9 -50 -12z"/>
<path d="M7490 3780 c0 -33 3 -40 19 -40 11 0 22 4 25 9 4 5 -3 7 -14 4 -17
-5 -20 0 -20 26 0 36 25 43 35 10 4 -11 9 -18 12 -16 10 11 -19 47 -37 47 -17
0 -20 -7 -20 -40z"/>
<path d="M7428 3748 c6 -6 18 -8 28 -6 14 3 12 5 -9 10 -19 3 -25 2 -19 -4z"/>
<path d="M7753 3355 c2 -36 5 -40 27 -40 22 0 25 4 27 40 l1 40 -6 -35 c-4
-22 -13 -35 -22 -35 -9 0 -18 13 -22 35 l-6 35 1 -40z"/>
<path d="M7848 3383 c28 -6 28 -20 0 -50 l-21 -23 29 1 c23 0 25 2 11 8 -17 6
-17 8 -3 20 9 7 16 22 16 32 0 14 -7 19 -27 18 -24 -2 -25 -2 -5 -6z"/>
<path d="M4802 1995 c0 -27 2 -44 5 -37 4 10 8 10 21 0 15 -12 16 -11 3 5 -11
14 -11 20 0 35 13 15 12 16 -3 4 -15 -12 -17 -10 -21 15 -2 16 -4 6 -5 -22z"/>
<path d="M5152 2028 c-1 -11 -10 -18 -22 -18 -28 0 -28 -46 1 -55 28 -9 31 -4
26 46 -2 24 -4 36 -5 27z m-2 -49 c0 -24 -23 -21 -28 4 -2 10 3 17 12 17 10 0
16 -9 16 -21z"/>
<path d="M4854 1995 c-13 -32 24 -63 41 -35 3 5 0 7 -8 4 -8 -3 -18 -1 -22 5
-3 7 2 11 14 11 12 0 21 7 21 15 0 8 -9 15 -20 15 -11 0 -23 -7 -26 -15z m33
-1 c-3 -3 -12 -4 -19 -1 -8 3 -5 6 6 6 11 1 17 -2 13 -5z"/>
<path d="M4980 1970 c0 -39 0 -39 20 -23 11 10 20 28 20 40 0 16 -6 23 -20 23
-17 0 -20 -7 -20 -40z m30 10 c0 -11 -4 -20 -10 -20 -5 0 -10 9 -10 20 0 11 5
20 10 20 6 0 10 -9 10 -20z"/>
<path d="M5064 2001 c19 -7 19 -8 -3 -14 -28 -7 -23 -31 7 -35 19 -3 22 1 22
27 0 26 -4 31 -22 30 -21 0 -22 -1 -4 -8z m16 -31 c0 -5 -4 -10 -9 -10 -6 0
-13 5 -16 10 -3 6 1 10 9 10 9 0 16 -4 16 -10z"/>
<path d="M4926 1971 c4 -14 1 -27 -7 -32 -11 -7 -10 -9 4 -9 9 0 17 6 17 14 0
8 3 23 6 33 4 13 3 15 -4 4 -8 -11 -11 -11 -16 0 -3 8 -3 3 0 -10z"/>
<path d="M5281 1344 c-1 -31 3 -44 16 -48 25 -10 35 7 30 50 l-4 39 -1 -43
c-2 -55 -24 -52 -33 4 l-6 39 -2 -41z"/>
<path d="M5370 1365 c-9 -11 -10 -16 -2 -11 8 5 12 -1 12 -23 0 -16 -6 -32
-12 -34 -7 -3 1 -6 17 -6 17 0 25 3 18 7 -6 4 -13 25 -15 46 -3 37 -4 38 -18
21z"/>
</g>
</svg>
