<?xml version="1.0" standalone="no"?>
<!DOCTYPE svg PUBLIC "-//W3C//DTD SVG 20010904//EN"
 "http://www.w3.org/TR/2001/REC-SVG-20010904/DTD/svg10.dtd">
<svg version="1.0" xmlns="http://www.w3.org/2000/svg"
 width="1024.000000pt" height="686.000000pt" viewBox="0 0 1027.000000 686.000000"
 preserveAspectRatio="xMidYMid meet">

<g transform="translate(0.000000,686.000000) scale(0.100000,-0.100000)"
fill="#000000" stroke="none">
<path d="M6600 6803 c1 -58 26 -203 46 -261 62 -184 215 -361 377 -435 l37
-17 0 -198 c0 -109 -3 -202 -6 -205 -4 -3 -15 -2 -26 4 -28 15 -32 6 -14 -30
9 -16 16 -32 16 -36 0 -3 -965 -5 -2145 -5 l-2145 0 0 265 0 265 -1195 0
-1195 0 0 -2925 0 -2925 1195 0 1195 0 0 1460 0 1460 346 0 345 0 -4 528 c-2
290 -1 535 1 545 4 16 26 17 294 17 288 0 289 0 283 -21 -6 -19 -4 -19 46 7
l53 26 -44 24 c-55 28 -63 29 -55 5 5 -18 -7 -19 -295 -26 l-300 -7 0 -544 0
-544 -335 0 -335 0 0 1190 0 1190 2369 0 2368 0 18 -40 c10 -22 21 -40 25 -40
6 0 50 84 50 96 0 3 -9 2 -20 -1 -20 -6 -20 -2 -20 229 l0 235 73 37 c52 27
96 62 158 124 88 89 129 151 174 261 24 60 55 211 55 272 l0 27 -695 0 c-382
0 -695 -3 -695 -7z m1374 -55 c-19 -191 -79 -335 -190 -457 -116 -126 -215
-186 -359 -216 -94 -19 -166 -19 -262 1 -137 28 -241 91 -352 211 -117 126
-191 305 -191 459 l0 54 680 0 679 0 -5 -52z m-5254 -3523 l0 -2915 -1180 0
-1180 0 0 2915 0 2915 1180 0 1180 0 0 -2915z m4424 2840 c64 -19 234 -19 306
0 30 8 58 15 63 15 4 0 7 -103 7 -229 l-1 -229 -225 -1 c-123 -1 -224 2 -224
6 1 4 7 19 15 33 19 32 19 44 0 36 -13 -5 -15 20 -15 189 0 149 3 195 13 195
6 0 34 -7 61 -15z"/>
<path d="M6373 6431 c-2 -28 22 -44 53 -37 19 5 25 12 21 26 -3 13 1 20 17 23
11 2 -4 5 -34 6 -48 1 -56 -2 -57 -18z m62 -11 c0 -18 -33 -26 -47 -12 -6 6
-7 15 -3 22 10 16 50 8 50 -10z"/>
<path d="M6376 6358 c-12 -37 -3 -48 38 -47 l41 2 -35 6 c-22 4 -35 12 -35 21
0 9 13 17 35 21 l35 6 -38 2 c-22 0 -39 -4 -41 -11z"/>
<path d="M6371 6258 c1 -29 2 -30 8 -10 l6 24 27 -21 c35 -28 38 -27 37 12 -1
23 -3 26 -6 9 l-4 -22 -29 20 c-37 27 -40 26 -39 -12z"/>
<path d="M6371 6178 c1 -29 2 -30 8 -10 l6 24 27 -21 c35 -28 38 -27 37 12 -1
23 -3 26 -6 9 l-4 -22 -29 20 c-37 27 -40 26 -39 -12z"/>
<path d="M6380 6125 c-14 -16 -7 -45 11 -45 8 0 8 4 -1 15 -6 8 -9 19 -5 25
11 19 25 10 25 -16 0 -19 5 -25 17 -22 10 2 19 12 21 22 7 33 -45 49 -68 21z
m52 -27 c-9 -9 -12 -7 -12 12 0 19 3 21 12 12 9 -9 9 -15 0 -24z"/>
<path d="M6395 6043 c17 -2 36 -12 43 -21 11 -14 12 -13 12 6 0 19 -5 22 -42
21 -34 -2 -37 -3 -13 -6z"/>
<path d="M4580 4919 c-143 -18 -286 -126 -353 -266 -31 -65 -32 -73 -32 -193
l0 -125 48 -104 c49 -107 77 -224 77 -323 l0 -49 133 3 132 3 3 224 c3 239 2
241 -45 241 -22 0 -23 4 -23 65 l0 66 133 -3 132 -3 0 -60 c0 -59 -1 -60 -30
-65 l-30 -5 -3 -233 -2 -232 134 0 133 0 5 108 c5 110 17 157 68 267 46 100
54 136 53 230 -3 289 -239 490 -533 454z"/>
<path d="M8945 4176 c-141 -39 -258 -158 -280 -284 -10 -62 -23 -74 -65 -62
-81 23 -200 -4 -284 -65 -56 -40 -122 -128 -132 -174 -3 -14 -9 -34 -15 -43
-12 -24 -12 -155 1 -163 6 -3 10 -16 10 -28 0 -58 97 -175 180 -218 23 -12 44
-27 46 -33 2 -6 -8 -36 -23 -66 -23 -49 -26 -67 -26 -155 0 -89 3 -106 28
-158 37 -77 105 -143 185 -180 56 -26 77 -30 156 -31 81 -1 96 2 150 29 32 16
77 46 99 67 22 21 46 38 53 38 8 0 30 -16 50 -37 21 -20 65 -49 99 -65 53 -24
76 -28 145 -28 91 0 128 10 203 54 83 49 139 125 164 221 22 81 7 206 -31 271
-11 18 -17 38 -14 43 3 5 25 19 48 31 190 97 257 348 142 531 -28 45 -113 119
-136 119 -10 0 -18 4 -18 8 0 5 -36 17 -80 27 -68 15 -88 17 -131 7 -55 -13
-69 -10 -69 16 -1 27 -38 131 -59 166 -23 37 -95 106 -111 106 -5 0 -10 5 -10
10 0 6 -5 10 -11 10 -6 0 -25 6 -42 14 -84 36 -148 43 -222 22z m185 -164
c104 -63 140 -187 85 -296 -38 -74 -51 -80 -185 -81 -63 -1 -123 -5 -132 -9
-14 -6 -23 4 -49 61 -67 143 -43 252 72 325 46 29 161 30 209 0z m487 -358
c62 -28 122 -125 123 -196 0 -32 -31 -105 -58 -136 -61 -70 -190 -94 -271 -50
-25 13 -41 29 -41 40 0 41 -26 116 -58 168 l-35 54 54 49 c30 27 65 56 77 65
49 32 144 35 209 6z m-986 0 c46 -23 106 -87 114 -123 5 -22 -1 -42 -20 -77
-17 -31 -28 -68 -32 -113 -3 -36 -10 -72 -16 -78 -17 -22 -185 -17 -234 7 -58
28 -111 93 -119 146 -7 51 3 134 17 134 5 0 9 6 9 13 1 18 31 51 75 80 33 21
52 26 106 26 42 1 78 -5 100 -15z m477 -183 c133 -69 134 -253 1 -326 -59 -32
-102 -32 -166 0 -40 20 -56 36 -77 76 -33 64 -33 104 0 167 46 89 156 127 242
83z m289 -372 c71 -38 89 -53 121 -104 52 -81 26 -220 -51 -279 -73 -56 -200
-57 -272 -2 -51 39 -105 169 -86 205 6 11 11 28 11 39 0 13 17 27 53 45 56 29
97 63 123 102 21 32 32 31 101 -6z m-621 -20 c38 -41 123 -96 155 -101 22 -3
24 -6 21 -53 -2 -27 -7 -54 -12 -60 -4 -5 -10 -27 -14 -47 -10 -57 -82 -123
-148 -137 -102 -22 -210 25 -252 111 -34 68 -13 186 43 238 91 85 158 101 207
49z"/>
<path d="M4324 3716 c-3 -7 -4 -38 -2 -67 l3 -54 310 -3 c171 -1 320 0 333 3
20 5 22 11 22 64 0 44 -4 60 -16 65 -9 3 -157 6 -330 6 -257 0 -316 -3 -320
-14z"/>
<path d="M4210 3326 c0 -8 -10 -16 -22 -18 -19 -2 -23 -9 -23 -38 0 -31 3 -35
28 -38 27 -3 27 -2 27 52 0 31 -2 56 -5 56 -3 0 -5 -6 -5 -14z m-5 -56 c0 -13
-6 -25 -12 -27 -16 -6 -27 21 -19 43 9 23 31 11 31 -16z"/>
<path d="M4301 3318 c-9 -25 -24 -99 -16 -83 3 6 11 31 19 58 14 48 12 65 -3
25z"/>
<path d="M4790 3285 c0 -30 5 -55 10 -55 6 0 10 25 10 55 0 30 -4 55 -10 55
-5 0 -10 -25 -10 -55z"/>
<path d="M4960 3326 c0 -8 -10 -16 -22 -18 -19 -2 -23 -9 -23 -38 0 -31 3 -35
28 -38 27 -3 27 -2 27 52 0 31 -2 56 -5 56 -3 0 -5 -6 -5 -14z m-5 -56 c0 -13
-6 -25 -12 -27 -16 -6 -27 21 -19 43 9 23 31 11 31 -16z"/>
<path d="M5043 3285 c0 -33 2 -45 4 -27 2 18 2 45 0 60 -2 15 -4 0 -4 -33z"/>
<path d="M5192 3285 c1 -47 2 -52 7 -25 4 22 12 35 21 35 9 0 18 -13 22 -35
l6 -35 -1 40 c-2 33 -6 41 -24 43 -12 2 -24 11 -26 20 -3 9 -5 -10 -5 -43z"/>
<path d="M5268 3317 c-8 -23 7 -80 22 -85 12 -4 13 -2 3 9 -15 15 -17 56 -4
61 5 2 3 8 -4 15 -10 9 -14 9 -17 0z"/>
<path d="M4032 3268 l1 -43 4 37 c3 24 10 38 21 41 12 3 11 5 -5 6 -21 1 -23
-3 -21 -41z"/>
<path d="M4082 3298 c-15 -15 -15 -41 0 -56 14 -14 44 -16 52 -3 3 4 -6 6 -19
3 -18 -3 -25 0 -25 12 0 11 9 16 26 16 19 0 25 5 22 18 -4 21 -39 27 -56 10z
m43 -8 c3 -5 -3 -10 -14 -10 -12 0 -21 5 -21 10 0 6 6 10 14 10 8 0 18 -4 21
-10z"/>
<path d="M4370 3290 c-15 -28 5 -64 31 -57 13 4 19 1 16 -6 -2 -7 -14 -12 -26
-11 -11 0 -21 -3 -21 -8 0 -5 12 -8 28 -6 25 3 27 7 30 53 3 48 1 51 -22 53
-17 1 -29 -5 -36 -18z m45 -20 c0 -13 -6 -25 -12 -27 -16 -6 -27 21 -19 43 9
23 31 11 31 -16z"/>
<path d="M4451 3265 l1 -40 8 34 c4 18 14 37 21 42 10 6 7 8 -9 6 -19 -1 -22
-7 -21 -42z"/>
<path d="M4504 3296 c-11 -30 1 -61 25 -64 13 -2 28 1 34 7 7 7 2 10 -18 8
-15 -1 -30 4 -32 11 -3 8 6 12 26 12 33 0 39 8 19 28 -16 16 -47 15 -54 -2z
m46 -6 c0 -5 -9 -10 -21 -10 -11 0 -17 5 -14 10 3 6 13 10 21 10 8 0 14 -4 14
-10z"/>
<path d="M4592 3298 c-15 -15 -15 -41 0 -56 14 -14 44 -16 52 -3 3 4 -6 6 -19
3 -18 -3 -25 0 -25 12 0 11 9 16 26 16 19 0 25 5 22 18 -4 21 -39 27 -56 10z
m43 -8 c3 -5 -3 -10 -14 -10 -12 0 -21 5 -21 10 0 6 6 10 14 10 8 0 18 -4 21
-10z"/>
<path d="M4671 3266 l2 -41 6 35 c8 48 38 54 44 8 l4 -33 -1 35 c-1 31 -4 35
-28 36 -26 1 -28 -1 -27 -40z"/>
<path d="M4832 3298 c-15 -15 -15 -41 0 -56 14 -14 44 -16 52 -3 3 4 -6 6 -19
3 -18 -3 -25 0 -25 12 0 11 9 16 26 16 19 0 25 5 22 18 -4 21 -39 27 -56 10z
m43 -8 c3 -5 -3 -10 -14 -10 -12 0 -21 5 -21 10 0 6 6 10 14 10 8 0 18 -4 21
-10z"/>
<path d="M5073 3270 c0 -25 2 -35 4 -22 2 12 2 32 0 45 -2 12 -4 2 -4 -23z"/>
<path d="M5104 3296 c-11 -29 1 -60 26 -67 21 -5 22 -7 8 -14 -9 -4 -23 -3
-30 1 -10 5 -10 4 -2 -5 7 -7 20 -11 30 -9 15 2 20 14 22 56 3 50 2 52 -23 52
-14 0 -28 -6 -31 -14z m41 -26 c0 -13 -6 -25 -12 -27 -16 -6 -27 21 -19 43 9
23 31 11 31 -16z"/>
<path d="M6387 2838 c-4 -106 -10 -248 -14 -315 -6 -119 -5 -123 14 -123 21 0
21 2 15 310 l-5 310 151 0 152 0 0 -45 c0 -49 -1 -50 -31 -34 -18 9 -18 6 6
-40 14 -28 25 -53 25 -55 0 -3 -55 -7 -122 -9 -68 -1 229 -4 660 -5 l783 -2
-16 -30 c-20 -38 -19 -43 5 -35 19 6 20 2 20 -144 l0 -151 -320 0 -320 0 0
-97 c0 -108 13 -313 31 -468 51 -467 194 -842 397 -1042 206 -204 392 -277
702 -277 158 0 222 9 340 46 487 156 758 720 787 1636 l6 202 -801 0 -802 0 0
151 c0 146 1 150 20 144 24 -8 25 -3 5 35 -11 22 -12 30 -2 33 7 3 5 6 -5 6
-9 1 -19 7 -22 14 -5 10 -7 10 -12 0 -4 -10 -147 -13 -665 -13 l-659 0 25 50
c30 59 31 64 6 50 -30 -15 -31 -14 -31 40 l0 50 -158 0 -159 0 -6 -192z m3036
-388 l217 0 0 -87 c0 -100 -15 -325 -31 -458 -82 -702 -338 -1127 -759 -1263
-197 -64 -487 -61 -680 6 -405 141 -657 562 -735 1232 -11 96 -35 475 -35 557
0 13 731 21 1475 16 182 -2 428 -3 548 -3z"/>
<path d="M8013 1005 c0 -33 2 -45 4 -27 2 18 2 45 0 60 -2 15 -4 0 -4 -33z"/>
<path d="M8398 1037 c-7 -22 7 -80 20 -83 7 -1 8 0 2 3 -12 6 -13 60 -1 65 5
2 3 8 -4 15 -10 9 -14 9 -17 0z"/>
<path d="M7817 1023 c-13 -12 -7 -23 18 -35 33 -15 32 -32 -1 -25 -16 3 -22 1
-16 -5 15 -15 46 -5 50 14 2 12 -5 19 -22 24 -33 8 -34 28 -1 22 13 -3 22 -1
19 3 -6 11 -38 12 -47 2z"/>
<path d="M7894 1016 c-3 -8 -4 -25 -2 -38 2 -17 9 -23 28 -23 15 0 25 6 26 15
1 10 -1 10 -3 2 -7 -21 -38 -9 -41 16 -4 26 25 42 40 21 8 -12 9 -11 5 1 -5
20 -46 25 -53 6z"/>
<path d="M7983 990 c0 -25 2 -35 4 -22 2 12 2 32 0 45 -2 12 -4 2 -4 -23z"/>
<path d="M8081 986 l2 -41 6 35 c8 48 38 54 44 8 l4 -33 -1 35 c-1 31 -4 35
-28 36 -26 1 -28 -1 -27 -40z"/>
<path d="M8157 1022 c6 -4 13 -23 16 -42 4 -33 4 -33 5 8 2 34 -1 42 -15 42
-12 0 -14 -3 -6 -8z"/>
<path d="M8210 1011 c-15 -29 4 -63 33 -59 18 2 22 10 22 38 0 28 -4 36 -22
38 -14 2 -26 -4 -33 -17z m45 -21 c0 -15 -6 -26 -16 -28 -19 -3 -31 21 -22 43
9 25 38 13 38 -15z"/>
<path d="M8293 990 c0 -25 2 -35 4 -22 2 12 2 32 0 45 -2 12 -4 2 -4 -23z"/>
<path d="M8327 1023 c-13 -12 -7 -23 18 -35 33 -15 32 -32 -1 -25 -16 3 -22 1
-16 -5 15 -15 46 -5 50 14 2 12 -5 19 -22 24 -33 8 -34 28 -1 22 13 -3 22 -1
19 3 -6 11 -38 12 -47 2z"/>
<path d="M8443 995 c2 -36 5 -40 30 -41 25 -1 27 1 26 40 l-2 41 -6 -35 c-4
-22 -12 -35 -21 -35 -9 0 -18 13 -22 35 l-6 35 1 -40z"/>
<path d="M8534 1016 c-3 -8 -4 -27 -1 -43 3 -24 4 -23 6 9 0 20 7 39 14 41 9
4 9 6 -1 6 -7 1 -15 -5 -18 -13z"/>
<path d="M8582 1018 c-25 -25 -6 -68 29 -68 10 0 20 4 23 8 2 4 -7 8 -21 7
-14 0 -28 6 -30 13 -3 8 6 12 26 12 17 0 31 4 31 8 0 12 -22 32 -35 32 -6 0
-16 -5 -23 -12z m43 -8 c4 -6 -5 -10 -20 -10 -15 0 -24 4 -20 10 3 6 12 10 20
10 8 0 17 -4 20 -10z"/>
<path d="M8707 1023 c-15 -14 -6 -31 18 -37 15 -4 23 -11 19 -17 -3 -6 -15 -9
-25 -6 -11 3 -17 1 -13 -4 9 -15 41 -10 48 6 4 10 -3 20 -19 27 -30 13 -33 33
-5 25 11 -3 18 -1 14 4 -6 11 -28 12 -37 2z"/>
<path d="M8782 1018 c-25 -25 -6 -68 29 -68 10 0 20 4 23 8 2 4 -7 8 -21 7
-14 0 -28 6 -30 13 -3 8 6 12 26 12 17 0 31 4 31 8 0 12 -22 32 -35 32 -6 0
-16 -5 -23 -12z m43 -8 c4 -6 -5 -10 -20 -10 -15 0 -24 4 -20 10 3 6 12 10 20
10 8 0 17 -4 20 -10z"/>
<path d="M8863 990 c0 -25 2 -35 4 -22 2 12 2 32 0 45 -2 12 -4 2 -4 -23z"/>
<path d="M8892 1018 c9 -7 19 -26 21 -43 3 -21 4 -18 3 10 -1 31 -5 41 -21 43
-18 4 -19 3 -3 -10z"/>
<path d="M8947 1023 c-14 -14 -6 -31 18 -37 33 -8 33 -30 -1 -23 -16 3 -22 1
-16 -5 15 -15 46 -5 50 14 2 12 -5 19 -22 24 -14 3 -26 11 -26 16 0 6 9 8 20
5 11 -3 20 -1 20 4 0 10 -33 12 -43 2z"/>
<path d="M9020 1011 c-15 -29 4 -63 33 -59 18 2 22 10 22 38 0 28 -4 36 -22
38 -14 2 -26 -4 -33 -17z m45 -21 c0 -15 -6 -26 -16 -28 -19 -3 -31 21 -22 43
9 25 38 13 38 -15z"/>
<path d="M9101 985 c2 -33 3 -35 6 -10 2 17 11 35 20 42 13 10 13 12 -6 10
-18 -1 -21 -7 -20 -42z"/>
<path d="M2760 1840 c0 -7 497 -10 1470 -10 973 0 1470 3 1470 10 0 7 -497 10
-1470 10 -973 0 -1470 -3 -1470 -10z"/>
<path d="M5403 1005 c0 -33 2 -48 4 -32 4 23 9 27 38 27 29 0 34 -4 38 -27 2
-16 4 -1 4 32 0 33 -2 48 -4 33 -4 -24 -9 -28 -38 -28 -29 0 -34 4 -38 28 -2
15 -4 0 -4 -33z"/>
<path d="M5800 1042 c0 -13 -7 -18 -22 -18 -20 1 -23 -4 -23 -34 0 -31 3 -35
28 -36 26 -1 27 1 27 52 0 30 -2 54 -5 54 -3 0 -5 -8 -5 -18z m-5 -52 c0 -13
-6 -25 -12 -27 -16 -6 -27 21 -19 43 9 23 31 11 31 -16z"/>
<path d="M5868 1037 c-7 -22 7 -80 20 -83 7 -1 8 0 2 3 -12 6 -13 60 -1 65 5
2 3 8 -4 15 -10 9 -14 9 -17 0z"/>
<path d="M6041 1034 c0 -11 3 -14 6 -6 3 7 2 16 -1 19 -3 4 -6 -2 -5 -13z"/>
<path d="M6109 1038 c-4 -39 9 -88 23 -88 9 0 9 3 0 12 -14 14 -16 55 -3 60 5
2 3 9 -5 16 -11 10 -14 10 -15 0z"/>
<path d="M6659 1038 c-4 -39 9 -88 23 -88 9 0 9 3 0 12 -14 14 -16 55 -3 60 5
2 3 9 -5 16 -11 10 -14 10 -15 0z"/>
<path d="M5514 995 c1 -31 5 -41 21 -43 18 -4 19 -3 3 10 -9 7 -19 27 -21 43
-3 21 -4 18 -3 -10z"/>
<path d="M5563 990 c0 -25 2 -35 4 -22 2 12 2 32 0 45 -2 12 -4 2 -4 -23z"/>
<path d="M5602 987 l1 -42 4 38 c3 24 9 37 19 37 9 0 14 -12 15 -37 l2 -38 6
35 c9 50 38 53 44 6 l4 -36 -1 37 -1 38 -47 2 -48 2 2 -42z"/>
<path d="M5723 990 c0 -25 2 -35 4 -22 2 12 2 32 0 45 -2 12 -4 2 -4 -23z"/>
<path d="M5843 990 c0 -25 2 -35 4 -22 2 12 2 32 0 45 -2 12 -4 2 -4 -23z"/>
<path d="M5911 1026 c-1 -5 4 -26 11 -48 10 -33 9 -41 -3 -50 -12 -8 -12 -9 0
-6 13 4 56 108 45 108 -3 0 -10 -14 -16 -32 l-11 -32 -13 34 c-7 19 -13 31
-13 26z"/>
<path d="M6162 1021 c-20 -12 -11 -65 12 -69 10 -2 22 0 27 5 6 6 1 9 -12 9
-12 -1 -24 5 -26 12 -3 8 6 12 26 12 33 0 39 8 19 28 -14 14 -28 15 -46 3z
m43 -11 c4 -6 -5 -10 -20 -10 -15 0 -24 4 -20 10 3 6 12 10 20 10 8 0 17 -4
20 -10z"/>
<path d="M6242 988 l1 -43 4 38 c3 24 9 37 19 37 9 0 14 -12 15 -37 l2 -38 6
35 c9 50 38 53 44 6 l4 -36 -1 37 -1 38 -47 3 -48 2 2 -42z"/>
<path d="M6361 971 c1 -32 4 -48 7 -36 4 11 16 20 26 20 51 0 43 69 -8 71 -25
1 -26 -1 -25 -55z m54 19 c0 -29 -32 -41 -41 -16 -9 24 4 48 23 44 12 -2 18
-12 18 -28z"/>
<path d="M6452 1018 c-25 -25 -6 -68 29 -68 10 0 20 4 23 8 2 4 -7 8 -21 7
-14 0 -28 6 -30 13 -3 8 6 12 26 12 17 0 31 4 31 8 0 12 -22 32 -35 32 -6 0
-16 -5 -23 -12z m43 -8 c4 -6 -5 -10 -20 -10 -15 0 -24 4 -20 10 3 6 12 10 20
10 8 0 17 -4 20 -10z"/>
<path d="M6532 988 c1 -41 1 -41 5 -8 3 19 10 38 16 42 8 5 6 8 -5 8 -15 0
-18 -8 -16 -42z"/>
<path d="M6585 1021 c-3 -7 0 -8 9 -5 32 12 38 -9 6 -22 -39 -17 -35 -39 9
-40 31 -1 32 0 29 35 -2 28 -8 37 -25 39 -11 2 -24 -2 -28 -7z m45 -40 c0 -15
-19 -23 -38 -16 -14 5 -14 7 -2 15 19 12 40 13 40 1z"/>
<path d="M6704 995 c1 -31 5 -41 21 -43 18 -4 19 -3 3 10 -9 7 -19 27 -21 43
-3 21 -4 18 -3 -10z"/>
<path d="M6753 990 c0 -25 2 -35 4 -22 2 12 2 32 0 45 -2 12 -4 2 -4 -23z"/>
<path d="M6792 988 c1 -41 1 -41 5 -8 3 19 10 38 16 42 8 5 6 8 -5 8 -15 0
-18 -8 -16 -42z"/>
<path d="M6846 1022 c-3 -6 2 -8 13 -5 10 3 22 0 25 -6 5 -7 -4 -11 -23 -11
-32 0 -41 -16 -19 -38 14 -14 44 -16 52 -3 3 4 -5 6 -18 4 -15 -3 -25 1 -29
11 -5 12 0 16 24 16 24 0 30 4 27 18 -4 19 -42 29 -52 14z"/>
<path d="M6967 1023 c-14 -14 -6 -31 18 -37 33 -8 33 -30 -1 -23 -16 3 -22 1
-16 -5 15 -15 46 -5 50 14 2 12 -5 19 -22 24 -14 3 -26 11 -26 16 0 6 9 8 20
5 11 -3 20 -1 20 4 0 10 -33 12 -43 2z"/>
<path d="M7046 1022 c-3 -6 2 -8 13 -5 10 3 22 0 25 -6 5 -7 -4 -11 -23 -11
-32 0 -41 -16 -19 -38 14 -14 44 -16 52 -3 3 4 -5 6 -18 4 -15 -3 -25 1 -29
11 -5 12 0 16 24 16 24 0 30 4 27 18 -4 19 -42 29 -52 14z"/>
<path d="M7121 986 l2 -41 6 35 c8 48 38 54 44 8 l4 -33 -1 35 c-1 31 -4 35
-28 36 -26 1 -28 -1 -27 -40z"/>
<path d="M7207 1023 c-13 -12 -7 -23 18 -35 33 -15 32 -32 -1 -25 -16 3 -22 1
-16 -5 15 -15 46 -5 50 14 2 12 -5 19 -22 24 -33 8 -34 28 -1 22 13 -3 22 -1
19 3 -6 11 -38 12 -47 2z"/>
<path d="M7284 1016 c-3 -8 -4 -25 -2 -38 2 -17 9 -23 28 -23 15 0 25 6 26 15
1 10 -1 10 -3 2 -7 -21 -38 -9 -41 16 -4 26 25 42 40 21 8 -12 9 -11 5 1 -5
20 -46 25 -53 6z"/>
<path d="M7361 985 c2 -33 3 -35 6 -10 2 17 11 35 20 42 13 10 13 12 -6 10
-18 -1 -21 -7 -20 -42z"/>
<path d="M6021 964 c0 -11 3 -14 6 -6 3 7 2 16 -1 19 -3 4 -6 -2 -5 -13z"/>
<path d="M820 135 c0 -30 5 -55 10 -55 6 0 10 11 10 25 0 16 6 25 15 25 9 0
21 -11 27 -25 6 -14 15 -25 20 -25 13 0 9 16 -7 30 -14 12 -14 15 1 31 23 26
3 49 -42 49 l-34 0 0 -55z m70 25 c0 -15 -7 -20 -25 -20 -18 0 -25 5 -25 20 0
15 7 20 25 20 18 0 25 -5 25 -20z"/>
<path d="M1170 134 l0 -55 33 3 c29 3 32 6 32 38 0 29 -4 36 -22 38 -13 2 -23
10 -23 18 0 8 -4 14 -10 14 -5 0 -10 -25 -10 -56z m55 -14 c0 -16 -6 -26 -17
-28 -14 -3 -18 3 -18 28 0 25 4 31 18 28 11 -2 17 -12 17 -28z"/>
<path d="M1561 133 c1 -32 4 -46 6 -31 3 22 10 27 36 30 27 2 32 7 32 28 0 22
-5 25 -37 28 l-38 3 1 -58z m64 27 c0 -9 -11 -16 -27 -18 -23 -3 -28 1 -28 18
0 17 5 21 28 18 16 -2 27 -9 27 -18z"/>
<path d="M1730 136 c0 -31 5 -56 10 -56 6 0 10 11 10 24 0 19 6 25 28 28 21 2
27 8 27 28 0 22 -5 25 -37 28 l-38 3 0 -55z m68 27 c-2 -10 -13 -19 -26 -21
-17 -3 -22 2 -22 17 0 16 6 21 26 21 19 0 25 -5 22 -17z"/>
<path d="M2067 184 c-4 -4 -7 -12 -7 -18 0 -6 5 -5 12 2 7 7 18 12 25 12 22 0
15 -35 -12 -60 -34 -32 -31 -40 13 -39 31 2 33 3 8 6 l-28 5 28 29 c23 24 26
33 18 47 -12 18 -45 28 -57 16z"/>
<path d="M2145 178 c2 -7 9 -32 15 -55 10 -41 30 -59 30 -29 0 8 5 27 11 43
l12 28 11 -38 c13 -42 28 -48 37 -14 17 64 19 77 10 77 -4 0 -12 -19 -16 -42
l-7 -43 -15 43 c-18 51 -30 53 -39 7 -9 -50 -21 -52 -29 -5 -4 22 -11 40 -16
40 -4 0 -6 -6 -4 -12z"/>
<path d="M936 151 c-3 -4 6 -6 19 -3 33 6 32 -14 -1 -22 -36 -9 -28 -41 11
-43 29 -1 30 0 27 38 -4 33 -8 39 -27 39 -13 0 -26 -4 -29 -9z m44 -41 c0 -13
-28 -25 -38 -16 -3 4 0 11 8 16 20 13 30 12 30 0z"/>
<path d="M1017 153 c-13 -12 -7 -23 18 -35 34 -15 32 -32 -2 -23 -21 5 -25 4
-17 -5 7 -7 20 -10 30 -8 27 5 30 35 5 43 -12 3 -21 11 -21 16 0 6 9 7 21 4
15 -5 19 -4 15 4 -8 12 -39 15 -49 4z"/>
<path d="M1091 101 c1 -32 4 -48 7 -36 4 11 16 20 26 20 51 0 43 69 -8 71 -25
1 -26 -1 -25 -55z m49 19 c0 -20 -5 -30 -15 -30 -18 0 -30 24 -21 45 10 28 36
17 36 -15z"/>
<path d="M1262 148 c-15 -15 -15 -41 0 -56 14 -14 44 -16 52 -3 3 4 -6 6 -19
3 -18 -3 -25 0 -25 12 0 11 9 16 26 16 19 0 25 5 22 18 -4 21 -39 27 -56 10z
m43 -8 c3 -5 -3 -10 -14 -10 -12 0 -21 5 -21 10 0 6 6 10 14 10 8 0 18 -4 21
-10z"/>
<path d="M1341 118 c2 -34 3 -37 6 -13 2 17 12 36 21 43 14 11 13 12 -6 12
-19 0 -22 -5 -21 -42z"/>
<path d="M1391 115 l2 -40 6 35 c9 49 34 51 49 3 9 -28 8 -40 -1 -52 -10 -11
-9 -13 2 -10 15 5 55 109 42 109 -5 0 -12 -15 -18 -32 l-10 -33 -7 33 c-7 28
-11 32 -37 30 -27 -2 -29 -5 -28 -43z"/>
<path d="M1663 120 c0 -25 2 -35 4 -22 2 12 2 32 0 45 -2 12 -4 2 -4 -23z"/>
<path d="M1833 120 c0 -25 2 -35 4 -22 2 12 2 32 0 45 -2 12 -4 2 -4 -23z"/>
<path d="M1872 148 c-25 -25 -6 -68 29 -68 10 0 21 5 24 10 4 7 -2 9 -18 5
-17 -5 -26 -2 -30 9 -10 25 4 48 24 43 11 -3 19 -1 19 4 0 13 -34 11 -48 -3z"/>
<path d="M1944 146 c-11 -29 1 -61 23 -64 29 -4 48 30 33 58 -12 23 -48 27
-56 6z m41 -26 c0 -13 -6 -25 -12 -27 -16 -6 -27 21 -19 43 9 23 31 11 31 -16z"/>
</g>
</svg>
