<?xml version="1.0" standalone="no"?>
<!DOCTYPE svg PUBLIC "-//W3C//DTD SVG 20010904//EN"
 "http://www.w3.org/TR/2001/REC-SVG-20010904/DTD/svg10.dtd">
<svg version="1.0" xmlns="http://www.w3.org/2000/svg"
 width="1389.000000pt" height="1024.000000pt" viewBox="0 0 1389.000000 1024.000000"
 preserveAspectRatio="xMidYMid meet">

<g transform="translate(0.000000,1024.000000) scale(0.100000,-0.100000)"
fill="#000000" stroke="none">
<path d="M885 9666 c-16 -7 -39 -23 -50 -36 -20 -22 -20 -38 -23 -741 -3 -795
-5 -759 61 -799 31 -19 56 -20 850 -20 l817 0 0 -225 c0 -218 1 -225 20 -225
19 0 20 7 20 225 l0 225 605 0 c668 0 656 -1 695 62 19 32 20 49 20 738 0 665
-1 707 -18 740 -10 19 -34 43 -53 52 -32 17 -122 18 -1474 18 -1173 -1 -1446
-3 -1470 -14z m2952 -49 l28 -27 3 -710 2 -709 -29 -33 -29 -33 -1457 0 -1457
0 -29 33 -29 32 0 704 0 703 21 27 c12 15 31 32 43 36 11 5 670 8 1463 7
l1443 -2 27 -28z"/>
<path d="M1560 9175 l0 -145 25 0 25 0 0 145 0 145 -25 0 -25 0 0 -145z"/>
<path d="M1680 9175 c0 -138 1 -145 20 -145 19 0 20 7 20 118 l0 117 64 -115
c58 -105 67 -115 95 -118 l31 -3 0 145 0 146 -25 0 -25 0 0 -112 0 -113 -62
113 c-56 101 -65 112 -90 112 l-28 0 0 -145z"/>
<path d="M1970 9175 c0 -138 1 -145 20 -145 19 0 20 7 20 117 0 64 2 114 5
111 3 -2 20 -54 38 -114 29 -99 35 -109 58 -112 24 -3 27 3 62 110 l36 113 1
-112 c0 -106 1 -113 20 -113 19 0 20 7 20 145 l0 145 -29 0 c-28 0 -30 -3 -69
-117 l-39 -118 -38 118 -38 117 -33 0 -34 0 0 -145z"/>
<path d="M2330 9175 c0 -138 1 -145 20 -145 18 0 20 7 20 55 l0 55 54 0 c48 0
57 3 80 31 28 33 32 64 15 102 -16 34 -49 47 -124 47 l-65 0 0 -145z m135 95
c8 -7 15 -25 15 -40 0 -35 -19 -50 -70 -57 l-40 -6 0 63 0 63 40 -6 c23 -3 47
-11 55 -17z"/>
<path d="M2602 9222 c-34 -55 -62 -106 -62 -115 0 -14 11 -17 65 -17 l65 0 0
-30 c0 -23 4 -30 20 -30 16 0 20 7 20 30 0 23 4 30 20 30 13 0 20 7 20 20 0
13 -7 20 -20 20 -19 0 -20 7 -20 95 0 92 -1 95 -23 95 -17 0 -36 -22 -85 -98z
m68 -27 l0 -65 -41 0 c-22 0 -39 3 -37 8 6 14 73 122 75 122 2 0 3 -29 3 -65z"/>
<path d="M2830 9228 c-33 -51 -60 -103 -60 -115 0 -22 4 -23 65 -23 l65 0 0
-30 c0 -23 4 -30 20 -30 16 0 20 7 20 30 0 23 4 30 20 30 12 0 20 7 20 16 0 9
-9 18 -20 21 -18 5 -20 14 -20 99 0 94 0 94 -25 94 -21 0 -36 -16 -85 -92z
m67 -95 c-3 -2 -23 -3 -46 -1 l-40 3 42 65 42 65 3 -64 c2 -35 1 -65 -1 -68z"/>
<path d="M3059 9297 c-14 -12 -34 -27 -44 -33 -29 -16 -10 -34 25 -24 l30 9 0
-90 0 -89 -35 0 c-28 0 -35 -4 -35 -20 0 -18 7 -20 85 -20 78 0 85 2 85 20 0
15 -7 20 -25 20 l-25 0 0 125 c0 113 -2 125 -17 125 -10 0 -30 -11 -44 -23z"/>
<path d="M2539 8823 c-1 -4 -2 -72 -3 -150 -1 -142 -1 -143 22 -143 21 0 22 4
22 73 0 77 9 97 45 97 36 0 45 -20 45 -97 0 -68 2 -73 21 -73 20 0 21 4 18 86
-4 76 -7 88 -28 105 -28 23 -64 25 -81 4 -21 -25 -25 -18 -25 42 0 47 -3 58
-17 61 -10 2 -18 0 -19 -5z"/>
<path d="M1620 8805 c-15 -17 -5 -35 20 -35 22 0 33 23 17 39 -15 15 -22 14
-37 -4z"/>
<path d="M1270 8670 c0 -133 1 -140 20 -140 19 0 20 7 21 118 l0 117 37 -115
c34 -104 40 -115 63 -118 24 -3 27 3 61 110 l37 113 0 -112 c1 -106 2 -113 21
-113 19 0 20 7 20 140 l0 140 -30 0 c-16 0 -30 -1 -30 -2 0 -2 -18 -54 -39
-117 l-39 -113 -38 116 -38 116 -33 0 -33 0 0 -140z"/>
<path d="M1743 8716 c-25 -22 -28 -31 -28 -86 0 -55 3 -64 28 -86 37 -31 81
-31 112 1 14 13 25 29 25 35 0 16 -37 12 -44 -5 -3 -9 -18 -15 -35 -15 -35 0
-51 22 -51 70 0 48 16 70 51 70 22 0 32 -5 36 -20 6 -23 43 -27 43 -5 0 9 -11
27 -25 40 -31 32 -75 32 -112 1z"/>
<path d="M1980 8718 c-17 -18 -20 -19 -20 -5 0 9 -7 17 -15 17 -12 0 -15 -18
-15 -100 0 -93 1 -100 20 -100 18 0 20 7 20 69 0 74 14 101 51 101 12 0 19 7
19 20 0 27 -33 26 -60 -2z"/>
<path d="M2110 8727 c-33 -16 -50 -52 -50 -105 0 -88 92 -133 157 -78 25 22
28 31 28 86 0 55 -3 64 -28 86 -31 26 -69 30 -107 11z m90 -53 c24 -63 3 -116
-45 -116 -36 0 -55 25 -55 73 0 45 21 69 61 69 22 0 32 -6 39 -26z"/>
<path d="M2364 8725 c-22 -17 -38 -20 -29 -5 3 6 -3 10 -14 10 -20 0 -21 -5
-21 -145 0 -138 1 -145 20 -145 18 0 20 7 20 57 0 54 1 55 18 40 24 -22 64
-22 92 1 24 19 38 91 26 137 -14 56 -70 82 -112 50z m64 -37 c15 -15 16 -82 2
-109 -7 -12 -21 -19 -40 -19 -34 0 -50 23 -50 70 0 46 16 70 48 70 16 0 33 -5
40 -12z"/>
<path d="M2789 8711 c-24 -24 -29 -38 -29 -76 0 -51 20 -99 45 -109 66 -25
128 11 140 81 18 108 -84 176 -156 104z m105 -33 c43 -61 -12 -151 -70 -113
-19 12 -24 24 -24 56 0 22 5 49 10 60 15 27 64 25 84 -3z"/>
<path d="M3052 8724 c-12 -8 -22 -10 -22 -5 0 6 -7 11 -15 11 -12 0 -15 -18
-15 -100 0 -93 1 -100 20 -100 18 0 20 7 20 73 0 78 9 97 47 97 31 0 43 -28
43 -104 0 -60 2 -66 21 -66 20 0 21 4 18 86 -4 76 -7 88 -28 105 -28 23 -59
24 -89 3z"/>
<path d="M3254 8725 c-52 -36 -57 -141 -9 -182 40 -35 106 -26 133 18 19 29
-13 38 -39 10 -11 -11 -26 -21 -34 -21 -22 0 -55 37 -55 60 0 18 7 20 71 20
l71 0 -7 33 c-13 64 -82 97 -131 62z m80 -37 c24 -34 20 -38 -34 -38 -27 0
-50 3 -50 8 0 18 33 52 50 52 10 0 26 -10 34 -22z"/>
<path d="M1620 8630 c0 -93 1 -100 20 -100 19 0 20 7 20 100 0 93 -1 100 -20
100 -19 0 -20 -7 -20 -100z"/>
<path d="M6023 9530 c-67 -40 -63 -3 -63 -689 0 -679 -2 -660 57 -698 25 -17
94 -18 1015 -23 l987 -5 -43 -75 c-24 -41 -42 -78 -39 -82 2 -5 22 -8 44 -8
l39 0 0 -155 c0 -131 2 -155 15 -155 13 0 15 24 15 155 l0 155 38 0 c21 0 41
3 44 6 3 3 -14 40 -38 82 l-44 77 973 5 c905 5 974 6 1004 23 70 38 67 14 68
692 0 674 2 647 -64 692 l-34 23 -1971 0 c-1936 0 -1972 0 -2003 -20z m4008
-48 l29 -32 0 -616 0 -616 -29 -29 -29 -29 -1976 0 -1975 0 -28 24 -28 24 -3
620 -2 619 21 27 c12 15 31 32 43 36 11 5 904 8 1984 7 l1964 -2 29 -33z"/>
<path d="M6690 9230 c-11 -11 -20 -27 -20 -35 0 -22 27 -18 33 5 6 24 39 27
57 5 17 -20 5 -46 -49 -107 -22 -25 -41 -49 -41 -52 0 -3 29 -6 65 -6 48 0 65
4 65 14 0 9 -12 12 -40 11 -47 -3 -49 3 -14 36 55 51 68 108 32 133 -31 22
-64 20 -88 -4z"/>
<path d="M9120 9070 c0 -143 1 -150 20 -150 19 0 20 7 20 150 0 143 -1 150
-20 150 -19 0 -20 -7 -20 -150z"/>
<path d="M6925 9203 c-82 -21 -119 -138 -74 -236 14 -32 65 -57 114 -57 42 0
95 44 95 79 0 30 -27 26 -42 -6 -11 -23 -21 -29 -54 -31 -36 -3 -45 1 -64 25
-19 24 -21 37 -18 92 5 71 27 101 78 101 27 0 60 -26 60 -48 0 -7 11 -12 24
-12 19 0 22 4 19 24 -10 48 -80 83 -138 69z"/>
<path d="M7295 9200 c-80 -18 -103 -61 -97 -182 4 -82 92 -129 175 -94 46 19
67 63 67 141 0 105 -55 156 -145 135z m75 -48 c24 -19 38 -91 26 -137 -15 -61
-92 -88 -131 -45 -39 43 -26 172 19 190 34 14 62 11 86 -8z"/>
<path d="M7500 9065 l0 -145 85 0 c74 0 85 2 85 18 0 15 -8 17 -65 14 l-65 -4
0 131 c0 124 -1 131 -20 131 -19 0 -20 -7 -20 -145z"/>
<path d="M8601 9196 c-16 -19 -6 -36 20 -36 15 0 20 6 17 22 -4 27 -21 33 -37
14z"/>
<path d="M6530 9185 c0 -8 9 -15 20 -15 19 0 20 -7 20 -110 0 -103 -1 -110
-20 -110 -13 0 -18 -5 -14 -15 5 -11 21 -15 60 -15 41 0 54 4 54 15 0 8 -9 15
-20 15 -19 0 -20 7 -20 125 l0 125 -40 0 c-29 0 -40 -4 -40 -15z"/>
<path d="M7710 9060 l0 -140 85 0 c69 0 85 3 85 15 0 12 -14 15 -65 15 l-65 0
0 50 0 50 60 0 c47 0 60 3 60 15 0 12 -13 15 -60 15 l-60 0 0 45 0 45 65 0
c51 0 65 3 65 15 0 12 -16 15 -85 15 l-85 0 0 -140z"/>
<path d="M7940 9060 l0 -140 73 0 c39 0 83 6 97 13 53 26 75 121 46 192 -22
52 -68 75 -148 75 l-68 0 0 -140z m159 73 c20 -23 23 -34 19 -85 -5 -71 -20
-88 -82 -95 l-46 -6 0 111 0 111 43 -4 c30 -3 49 -12 66 -32z"/>
<path d="M8311 9060 l-2 -142 86 3 c83 4 88 5 116 37 25 28 29 40 29 92 0 110
-32 141 -151 148 l-77 4 -1 -142z m134 96 c27 -12 36 -23 45 -57 24 -87 -15
-149 -91 -149 l-39 0 0 110 0 110 25 0 c14 0 41 -6 60 -14z"/>
<path d="M8948 9116 c-16 -8 -28 -11 -28 -5 0 5 -7 9 -15 9 -13 0 -15 -23 -15
-145 0 -138 1 -145 20 -145 17 0 20 7 20 50 0 47 1 50 19 40 33 -17 61 -11 93
20 28 29 30 35 26 86 -7 82 -60 122 -120 90z m66 -48 c32 -45 8 -118 -38 -118
-33 0 -46 19 -46 70 0 25 5 51 12 58 19 19 55 14 72 -10z"/>
<path d="M8600 9015 c0 -98 1 -105 20 -105 19 0 20 7 20 105 0 98 -1 105 -20
105 -19 0 -20 -7 -20 -105z"/>
<path d="M8706 9104 c-37 -36 -11 -85 54 -101 24 -6 36 -16 38 -30 4 -29 -31
-40 -63 -19 -30 20 -45 20 -45 1 0 -26 47 -48 88 -42 41 7 62 29 62 63 0 30
-23 51 -70 64 -45 12 -57 25 -40 45 16 19 39 19 61 -1 10 -9 25 -14 34 -12 14
3 14 5 0 26 -13 17 -26 22 -60 22 -26 0 -50 -6 -59 -16z"/>
<path d="M9236 9104 c-9 -8 -16 -22 -16 -30 0 -18 29 -18 36 0 13 35 74 23 74
-14 0 -16 -7 -20 -34 -20 -41 0 -86 -33 -86 -64 0 -55 67 -88 103 -51 13 13
16 13 27 0 7 -8 18 -15 26 -15 19 0 28 20 15 33 -6 6 -11 38 -11 72 0 81 -17
105 -75 105 -26 0 -50 -6 -59 -16z m94 -106 c0 -28 -10 -42 -32 -51 -25 -9
-48 2 -48 23 0 25 24 41 73 49 4 0 7 -9 7 -21z"/>
<path d="M9402 9108 c55 -157 70 -208 65 -221 -4 -11 -18 -17 -37 -17 -20 0
-30 -5 -30 -15 0 -19 59 -21 83 -2 9 6 34 69 55 140 34 111 37 127 22 127 -20
0 -33 -27 -50 -103 -7 -31 -16 -57 -19 -57 -3 0 -17 36 -30 80 -19 65 -28 80
-44 80 -11 0 -17 -5 -15 -12z"/>
<path d="M7553 8739 c-65 -24 -88 -191 -39 -287 18 -36 32 -52 46 -52 11 0 20
1 20 3 0 1 -11 24 -25 51 -36 70 -35 173 0 241 14 26 24 49 23 50 -2 2 -13 -1
-25 -6z"/>
<path d="M8520 8747 c0 -1 11 -24 25 -51 35 -69 35 -169 0 -244 l-25 -53 22 3
c15 2 30 20 47 53 36 71 36 172 1 234 -14 24 -35 48 -47 52 -13 5 -23 7 -23 6z"/>
<path d="M7651 8703 c-57 -46 -50 -231 10 -263 33 -18 88 -12 114 14 43 43 48
181 8 234 -26 35 -97 43 -132 15z m99 -38 c7 -8 14 -43 17 -77 5 -80 -10 -112
-55 -116 -29 -3 -34 0 -48 35 -18 41 -13 135 8 160 14 18 63 17 78 -2z"/>
<path d="M7970 8702 c-15 -12 -24 -33 -27 -62 -4 -38 -1 -49 21 -72 27 -30 82
-38 104 -16 9 9 12 5 12 -18 0 -56 -47 -87 -80 -54 -24 24 -50 26 -50 5 0 -8
9 -24 20 -35 28 -28 82 -26 117 4 25 21 28 31 31 100 5 89 -1 119 -28 146 -26
26 -90 27 -120 2z m99 -44 c22 -38 2 -78 -38 -78 -48 0 -68 55 -34 92 23 25
54 19 72 -14z"/>
<path d="M8203 8705 c-48 -34 -53 -206 -7 -252 55 -55 144 -13 144 67 0 77
-44 114 -103 85 -16 -8 -31 -15 -32 -15 0 0 1 16 3 36 3 22 12 40 27 50 22 14
55 10 55 -7 0 -5 9 -9 20 -9 27 0 25 25 -2 44 -28 20 -77 20 -105 1z m85 -137
c13 -13 16 -56 6 -82 -9 -23 -61 -21 -74 3 -14 28 -12 52 7 73 19 21 44 23 61
6z"/>
<path d="M8385 8678 c8 -49 12 -58 26 -58 5 0 9 23 9 50 0 44 -2 50 -21 50
-19 0 -20 -4 -14 -42z"/>
<path d="M8454 8689 c3 -17 6 -40 6 -50 0 -11 7 -19 15 -19 11 0 15 12 15 50
0 44 -2 50 -21 50 -19 0 -21 -4 -15 -31z"/>
<path d="M7850 8455 c0 -20 5 -25 25 -25 20 0 25 5 25 25 0 20 -5 25 -25 25
-20 0 -25 -5 -25 -25z"/>
<path d="M7700 7440 c0 -133 1 -140 20 -140 19 0 20 7 20 140 0 133 -1 140
-20 140 -19 0 -20 -7 -20 -140z"/>
<path d="M8744 7566 c-7 -19 3 -36 22 -36 10 0 14 8 12 22 -4 26 -26 36 -34
14z"/>
<path d="M7015 7560 c-4 -7 -3 -16 3 -22 14 -14 45 -2 40 15 -6 16 -34 21 -43
7z"/>
<path d="M6804 7433 c38 -115 45 -128 68 -131 23 -3 27 4 66 120 23 68 42 126
42 131 0 4 -8 7 -18 7 -14 0 -25 -24 -53 -112 l-35 -113 -35 110 c-29 92 -38
111 -56 113 -21 3 -20 -1 21 -125z"/>
<path d="M8624 7525 c-3 -20 -12 -35 -20 -35 -8 0 -14 -4 -14 -10 0 -5 7 -10
15 -10 12 0 15 -14 15 -66 0 -84 11 -104 55 -104 24 0 35 5 35 15 0 9 -8 14
-22 12 -22 -2 -23 2 -26 72 -3 70 -2 73 18 68 15 -4 20 0 20 14 0 12 -7 19
-20 19 -16 0 -20 7 -20 30 0 43 -27 39 -36 -5z"/>
<path d="M2074 7485 c-7 -18 3 -35 21 -35 15 0 24 19 18 38 -6 17 -32 15 -39
-3z"/>
<path d="M2641 7486 c-9 -10 -8 -16 4 -26 19 -16 41 1 32 24 -8 20 -21 20 -36
2z"/>
<path d="M7020 7400 c0 -82 3 -100 15 -100 12 0 15 18 15 100 0 82 -3 100 -15
100 -12 0 -15 -18 -15 -100z"/>
<path d="M7122 7484 c-25 -17 -29 -56 -8 -73 7 -6 31 -17 52 -25 27 -9 39 -19
39 -32 0 -25 -54 -33 -67 -10 -11 19 -38 21 -38 3 0 -23 35 -47 67 -47 45 0
63 9 74 38 13 35 -11 69 -56 78 -37 7 -61 27 -50 44 8 13 65 13 65 0 0 -5 9
-10 20 -10 25 0 26 12 2 33 -23 21 -71 22 -100 1z"/>
<path d="M7290 7417 c0 -94 13 -117 65 -117 16 0 37 7 47 17 17 15 18 15 18 0
0 -10 7 -17 15 -17 12 0 15 18 15 100 0 93 -1 100 -20 100 -18 0 -20 -7 -20
-73 0 -77 -9 -97 -45 -97 -36 0 -45 20 -45 97 0 58 -3 73 -15 73 -12 0 -15
-16 -15 -83z"/>
<path d="M7522 7484 c-12 -8 -22 -22 -22 -30 0 -19 27 -18 38 2 14 25 66 15
70 -13 3 -18 -2 -23 -18 -23 -36 0 -88 -27 -95 -50 -11 -34 19 -70 58 -70 18
0 38 5 45 12 9 9 15 9 24 0 17 -17 38 -15 38 3 0 8 -4 15 -10 15 -6 0 -10 32
-10 75 0 63 -3 76 -19 85 -28 15 -73 12 -99 -6z m88 -112 c0 -25 -19 -42 -47
-42 -28 0 -40 24 -23 45 18 22 70 20 70 -3z"/>
<path d="M7891 7474 c-15 -19 -21 -41 -21 -80 0 -45 4 -56 26 -73 34 -27 88
-27 114 -1 11 11 20 25 20 30 0 15 -26 12 -40 -5 -7 -8 -26 -15 -41 -15 -23 0
-32 6 -40 27 -14 37 -1 46 65 41 l56 -3 0 30 c0 51 -24 75 -75 75 -35 0 -48
-5 -64 -26z m89 -14 c31 -31 24 -40 -30 -40 -54 0 -61 9 -30 40 11 11 25 20
30 20 6 0 19 -9 30 -20z"/>
<path d="M8080 7399 c0 -86 2 -100 16 -97 12 2 16 19 17 75 3 79 12 96 48 91
23 -3 24 -7 27 -85 3 -75 5 -83 22 -83 18 0 20 7 20 73 0 75 9 97 42 97 26 0
38 -32 38 -104 0 -52 3 -66 15 -66 24 0 21 161 -3 183 -23 21 -66 22 -82 2
-12 -14 -15 -14 -30 0 -22 20 -59 19 -82 -2 -17 -15 -18 -15 -18 0 0 10 -7 17
-15 17 -12 0 -15 -18 -15 -101z"/>
<path d="M8423 7485 c-26 -18 -45 -78 -36 -114 16 -70 99 -96 148 -46 33 32
35 110 4 149 -24 30 -81 36 -116 11z m91 -37 c23 -33 20 -75 -9 -103 -29 -30
-39 -31 -65 -5 -40 40 -15 130 35 130 13 0 31 -10 39 -22z"/>
<path d="M8742 7403 c3 -84 6 -98 21 -101 15 -3 17 7 17 97 0 95 -1 101 -20
101 -20 0 -21 -5 -18 -97z"/>
<path d="M8852 7480 c-41 -39 -36 -146 8 -170 30 -16 86 -12 111 9 20 16 24
28 24 79 0 77 -20 102 -80 102 -27 0 -48 -7 -63 -20z m96 -22 c7 -7 12 -33 12
-58 0 -53 -13 -70 -52 -70 -32 0 -48 24 -48 70 0 46 16 70 48 70 16 0 33 -5
40 -12z"/>
<path d="M9050 7400 c0 -82 3 -100 15 -100 12 0 15 14 15 66 0 76 12 104 43
104 38 0 47 -19 47 -98 0 -62 3 -73 16 -70 31 6 24 169 -8 190 -20 12 -72 10
-86 -4 -9 -9 -12 -9 -12 0 0 7 -7 12 -15 12 -12 0 -15 -18 -15 -100z"/>
<path d="M1630 7473 c0 -5 18 -63 41 -130 36 -109 43 -123 63 -123 20 0 28 16
68 131 42 120 44 130 25 127 -16 -2 -26 -22 -49 -98 -17 -52 -33 -98 -37 -103
-4 -4 -22 40 -41 98 -26 82 -38 105 -52 105 -10 0 -18 -3 -18 -7z"/>
<path d="M3394 7450 c-4 -16 -13 -30 -20 -30 -8 0 -14 -7 -14 -15 0 -8 7 -15
15 -15 12 0 15 -14 15 -66 0 -36 5 -74 10 -85 13 -24 70 -27 70 -4 0 10 -7 15
-17 13 -16 -3 -18 7 -21 70 -3 67 -1 72 18 72 11 0 20 7 20 15 0 8 -9 15 -20
15 -16 0 -20 7 -20 30 0 20 -5 30 -15 30 -9 0 -18 -12 -21 -30z"/>
<path d="M1909 7416 c-55 -18 -76 -93 -44 -155 25 -48 86 -56 132 -17 24 21
28 31 28 79 0 84 -42 117 -116 93z m69 -38 c7 -7 12 -33 12 -58 0 -52 -13 -70
-50 -70 -37 0 -50 18 -50 70 0 52 13 70 50 70 14 0 31 -5 38 -12z"/>
<path d="M2217 7419 c-41 -11 -56 -37 -57 -97 0 -64 30 -102 80 -102 39 0 98
52 66 58 -10 2 -23 -3 -28 -12 -13 -23 -54 -20 -72 6 -18 26 -21 71 -6 99 13
23 68 26 76 4 4 -8 15 -15 25 -15 16 0 17 3 7 25 -13 29 -53 44 -91 34z"/>
<path d="M2395 7418 c-34 -20 -44 -41 -45 -96 0 -66 29 -102 83 -102 30 0 77
32 77 53 0 14 -38 7 -44 -8 -8 -23 -53 -18 -70 7 -29 41 -21 48 55 48 61 0 70
2 65 16 -3 9 -6 22 -6 30 0 23 -47 64 -72 64 -13 0 -32 -6 -43 -12z m67 -35
c32 -29 23 -44 -28 -42 -53 3 -58 8 -38 37 18 26 41 28 66 5z"/>
<path d="M2793 7413 c-18 -9 -29 -11 -31 -4 -2 6 -10 11 -18 11 -11 0 -14 -20
-14 -95 0 -88 1 -95 20 -95 18 0 20 7 20 68 0 73 10 92 47 92 31 0 43 -28 43
-99 0 -48 3 -61 15 -61 12 0 15 15 15 73 0 104 -34 143 -97 110z"/>
<path d="M2078 7325 c-3 -85 -1 -95 15 -95 15 0 17 11 17 95 0 76 -3 95 -14
95 -12 0 -15 -21 -18 -95z"/>
<path d="M2640 7325 c0 -88 1 -95 20 -95 19 0 20 7 20 95 0 88 -1 95 -20 95
-19 0 -20 -7 -20 -95z"/>
<path d="M2950 7285 c0 -122 2 -135 18 -135 14 0 17 7 13 47 -3 42 -2 45 15
38 46 -19 73 -17 98 8 31 31 36 100 11 147 -14 26 -21 30 -58 30 -24 0 -48 -5
-55 -12 -9 -9 -12 -9 -12 0 0 7 -7 12 -15 12 -13 0 -15 -22 -15 -135z m118 93
c16 -16 16 -100 0 -116 -16 -16 -53 -15 -67 2 -16 19 -17 92 -1 111 15 18 51
20 68 3z"/>
<path d="M3170 7336 c0 -76 2 -86 22 -100 12 -9 32 -16 43 -16 11 0 31 7 43
16 20 14 22 14 22 -1 0 -9 6 -15 13 -13 8 3 13 35 15 101 3 92 2 97 -18 97
-18 0 -20 -6 -20 -73 0 -78 -9 -97 -47 -97 -31 0 -43 28 -43 104 0 52 -3 66
-15 66 -12 0 -15 -16 -15 -84z"/>
<path d="M7283 7155 c-16 -11 -23 -26 -23 -51 0 -27 -4 -34 -20 -34 -11 0 -20
-7 -20 -15 0 -8 9 -15 20 -15 18 0 19 -6 17 -80 -2 -70 0 -80 16 -80 15 0 17
10 17 80 0 79 0 80 25 80 16 0 25 6 25 15 0 9 -9 15 -25 15 -19 0 -25 5 -25
23 0 28 17 47 43 47 24 0 17 24 -9 28 -10 1 -29 -5 -41 -13z"/>
<path d="M7890 7110 c0 -49 0 -49 -24 -39 -59 27 -106 -21 -106 -106 0 -77 62
-119 118 -79 12 8 22 10 22 5 0 -6 7 -11 15 -11 13 0 15 22 15 140 0 133 -1
140 -20 140 -17 0 -20 -7 -20 -50z m-12 -72 c7 -7 12 -36 12 -65 0 -43 -4 -54
-21 -64 -16 -8 -28 -8 -45 0 -20 9 -24 18 -24 56 0 26 5 55 10 66 12 21 50 25
68 7z"/>
<path d="M7990 7020 c0 -118 2 -140 15 -140 8 0 15 4 15 10 0 5 13 2 28 -7 61
-35 112 12 112 102 0 78 -62 119 -119 79 l-23 -17 4 57 c3 48 1 56 -14 56 -16
0 -18 -13 -18 -140z m114 14 c10 -9 16 -33 16 -59 0 -47 -19 -75 -49 -75 -25
0 -41 21 -48 64 -10 65 42 110 81 70z"/>
<path d="M8607 7153 c-4 -3 -7 -66 -7 -140 0 -126 1 -133 20 -133 15 0 20 7
20 28 0 16 8 36 19 46 17 16 19 14 42 -29 17 -33 30 -45 46 -45 22 0 21 2 -12
57 l-35 57 30 31 c34 35 37 45 14 45 -9 0 -35 -21 -59 -47 l-44 -48 -1 93 c0
70 -3 92 -13 92 -8 0 -17 -3 -20 -7z"/>
<path d="M2540 6340 l0 -740 751 0 752 0 -6 -40 c-3 -22 -3 -40 0 -40 12 0
173 92 173 99 0 6 -164 101 -174 101 -2 0 -1 -20 2 -45 l5 -45 -732 0 -731 0
0 725 c0 718 0 725 -20 725 -20 0 -20 -7 -20 -740z"/>
<path d="M7384 7056 c-24 -20 -28 -31 -28 -81 -1 -50 2 -59 27 -81 34 -29 76
-31 111 -3 31 24 33 39 6 39 -11 0 -20 -4 -20 -10 0 -5 -11 -12 -25 -16 -30
-7 -65 18 -65 48 0 16 9 18 66 18 l67 0 -6 38 c-12 69 -80 94 -133 48z m84
-18 c25 -25 13 -38 -33 -38 -49 0 -50 1 -35 31 12 21 50 25 68 7z"/>
<path d="M7585 7055 c-21 -20 -25 -34 -25 -80 0 -46 4 -60 25 -80 14 -15 36
-25 53 -25 29 0 82 33 82 51 0 14 -26 11 -40 -6 -18 -22 -57 -18 -74 7 -29 41
-21 48 53 48 l69 0 -9 38 c-16 70 -86 95 -134 47z m96 -32 c8 -22 6 -23 -41
-23 -43 0 -49 2 -43 18 15 39 70 42 84 5z"/>
<path d="M8240 7068 c-28 -15 -40 -48 -17 -48 8 0 20 7 27 15 18 22 49 18 59
-7 12 -31 6 -38 -32 -38 -18 0 -43 -7 -55 -16 -33 -23 -27 -73 11 -94 25 -14
30 -13 57 2 17 9 30 13 30 9 0 -15 33 -22 44 -10 8 8 8 13 -1 16 -9 3 -13 28
-13 78 0 49 -4 76 -13 84 -23 18 -70 22 -97 9z m80 -111 c0 -25 -32 -58 -53
-55 -28 4 -35 38 -11 55 23 17 64 17 64 0z"/>
<path d="M8453 7070 c-39 -16 -56 -55 -51 -112 6 -59 32 -88 80 -88 28 0 78
38 78 60 0 18 -27 11 -42 -12 -13 -20 -19 -21 -44 -13 -24 9 -30 17 -32 49 -5
53 4 84 27 91 24 7 51 -4 51 -21 0 -8 9 -14 20 -14 25 0 25 11 3 38 -21 25
-60 35 -90 22z"/>
<path d="M8020 6695 c0 -87 3 -105 15 -105 12 0 15 18 15 105 0 87 -3 105 -15
105 -12 0 -15 -18 -15 -105z"/>
<path d="M4420 6449 c-90 -7 -124 -22 -150 -64 -19 -31 -20 -53 -20 -791 0
-735 1 -760 20 -791 40 -67 -31 -63 1134 -63 l1055 0 -50 -87 c-27 -49 -49
-90 -49 -93 0 -3 20 -5 45 -5 l45 0 0 -287 c0 -248 2 -288 15 -288 13 0 15 41
17 288 l3 287 43 3 c23 2 42 6 42 9 0 3 -22 43 -49 89 l-50 84 990 0 c1061 0
1028 -1 1074 50 19 21 20 38 23 401 1 208 5 379 9 379 5 0 86 -44 149 -82 l32
-18 -6 45 -5 45 183 0 c141 0 181 3 178 13 -4 9 -51 13 -183 15 l-178 2 6 45
5 45 -77 -41 c-42 -23 -80 -46 -86 -50 -5 -5 -13 -9 -17 -9 -4 0 -8 171 -8
381 0 430 -1 434 -71 469 -37 19 -80 20 -2016 22 -1088 2 -2012 0 -2053 -3z
m4081 -65 l24 -26 3 -741 c2 -408 0 -757 -3 -775 -4 -23 -16 -39 -38 -52 -31
-20 -68 -20 -2080 -20 -1894 0 -2051 1 -2077 17 -16 9 -33 27 -39 40 -8 17
-11 256 -11 774 l0 751 29 29 29 29 2069 0 2070 0 24 -26z"/>
<path d="M6230 6058 c-1 -2 -2 -81 -3 -175 l-3 -173 23 0 c13 0 23 5 23 11 0
5 10 3 22 -5 31 -22 80 -20 111 4 54 42 59 143 10 200 -20 24 -33 30 -66 30
-24 0 -48 -7 -59 -17 -17 -15 -18 -13 -18 55 0 65 -2 72 -20 72 -11 0 -20 -1
-20 -2z m144 -164 c22 -21 21 -111 -1 -136 -32 -36 -86 -15 -99 38 -8 29 2 82
17 101 15 18 64 17 83 -3z"/>
<path d="M5170 5880 l0 -170 30 0 c17 0 29 3 29 8 -1 4 -1 35 0 70 1 60 2 62
27 62 41 0 58 -15 89 -79 25 -53 32 -61 57 -61 l28 0 -26 58 c-14 31 -32 67
-40 80 -8 12 -10 22 -4 22 23 0 50 41 50 76 0 77 -41 104 -160 104 l-80 0 0
-170z m178 102 c17 -22 15 -52 -5 -74 -11 -13 -30 -18 -67 -18 l-51 0 2 57 c1
32 2 60 2 61 2 11 108 -12 119 -26z"/>
<path d="M7449 6043 c-1 -5 -2 -81 -3 -170 l-1 -163 28 0 c26 0 27 1 27 60 l0
60 50 0 c87 0 130 38 130 114 0 44 -32 83 -78 96 -43 12 -151 14 -153 3z m156
-57 c13 -9 19 -26 19 -51 0 -47 -23 -65 -81 -65 l-43 0 0 65 0 65 43 0 c24 0
52 -6 62 -14z"/>
<path d="M7726 6034 c-8 -21 11 -44 35 -44 19 0 35 33 24 50 -10 16 -52 12
-59 -6z"/>
<path d="M5495 5925 c-14 -13 -25 -29 -25 -35 0 -18 45 -10 58 11 17 27 53 21
69 -10 15 -31 9 -41 -26 -41 -15 0 -42 -5 -59 -11 -52 -18 -66 -93 -23 -126
22 -17 72 -16 98 2 18 13 22 13 33 0 19 -23 60 -19 60 5 0 11 -7 20 -15 20
-12 0 -15 16 -15 85 0 72 -3 88 -20 105 -30 30 -103 28 -135 -5z m105 -134 c0
-36 -20 -53 -57 -49 -58 6 -32 78 28 78 25 0 29 -4 29 -29z"/>
<path d="M5735 5925 c-46 -45 -27 -88 49 -110 30 -9 57 -23 60 -32 15 -38 -50
-59 -85 -27 -9 8 -28 14 -41 12 -23 -3 -23 -3 9 -36 61 -62 163 -32 163 48 0
45 -9 53 -75 72 -38 10 -51 19 -53 35 -5 32 41 42 71 16 21 -19 57 -21 57 -3
0 5 -12 18 -26 29 -38 30 -98 28 -129 -4z"/>
<path d="M5950 5780 l0 -170 24 0 c24 0 25 2 22 60 -4 61 2 72 24 45 22 -26
79 -19 110 15 47 50 47 153 -1 201 -24 24 -95 26 -121 2 -17 -15 -18 -15 -18
0 0 10 -8 17 -20 17 -19 0 -20 -7 -20 -170z m144 114 c11 -10 16 -34 16 -69 0
-44 -4 -57 -22 -69 -51 -36 -88 -6 -88 70 0 59 17 84 55 84 13 0 31 -7 39 -16z"/>
<path d="M6527 5920 c-31 -36 -43 -98 -27 -145 26 -79 115 -101 173 -43 30 29
30 32 12 38 -13 5 -27 1 -41 -11 -40 -37 -104 -11 -104 43 0 16 10 18 80 18
l80 0 0 34 c0 22 -9 45 -26 65 -22 27 -32 31 -74 31 -41 0 -52 -4 -73 -30z
m101 -16 c12 -8 22 -24 22 -35 0 -16 -7 -19 -55 -19 -60 0 -61 1 -44 33 21 40
42 46 77 21z"/>
<path d="M6760 5825 l0 -125 25 0 c25 0 25 1 25 88 0 96 12 122 58 122 15 0
22 6 22 20 0 25 -45 28 -72 3 -17 -15 -18 -15 -18 0 0 10 -8 17 -20 17 -19 0
-20 -7 -20 -125z"/>
<path d="M6940 5945 c-1 -3 -1 -58 -1 -122 -1 -110 1 -118 19 -121 18 -3 20 4
24 87 4 96 16 121 54 121 17 0 24 6 24 20 0 26 -54 28 -69 3 -10 -17 -10 -17
-11 0 0 10 -8 17 -20 17 -11 0 -20 -2 -20 -5z"/>
<path d="M7090 5938 c0 -15 66 -206 79 -229 16 -27 -15 -62 -50 -57 -23 4 -29
1 -29 -14 0 -26 80 -26 103 0 9 10 35 78 57 151 23 73 44 139 47 147 3 10 -3
14 -20 14 -23 0 -28 -7 -42 -57 -9 -32 -22 -76 -29 -98 l-13 -40 -26 86 c-15
48 -27 92 -27 98 0 6 -11 11 -25 11 -14 0 -25 -6 -25 -12z"/>
<path d="M7730 5830 l0 -120 25 0 25 0 0 120 0 120 -25 0 -25 0 0 -120z"/>
<path d="M6060 5475 c-18 -21 -5 -45 25 -45 14 0 28 7 31 15 7 17 -12 45 -31
45 -7 0 -18 -7 -25 -15z"/>
<path d="M5770 5310 l0 -170 25 0 c24 0 25 2 25 64 l0 63 60 6 c34 3 71 12 84
21 35 22 51 77 36 121 -18 54 -42 65 -142 65 l-88 0 0 -170z m162 113 c22 -20
24 -66 2 -87 -10 -10 -33 -16 -65 -16 l-49 0 0 60 0 60 47 0 c29 0 53 -6 65
-17z"/>
<path d="M6774 5471 c3 -4 17 -64 31 -132 42 -202 41 -199 75 -199 33 0 32 -2
72 168 21 83 38 118 38 76 0 -9 12 -68 27 -130 l27 -114 31 0 32 0 37 163 c20
89 36 165 36 170 0 4 -11 7 -25 7 -20 0 -25 -6 -31 -37 -3 -21 -16 -84 -28
-141 l-22 -102 -35 137 c-33 129 -37 138 -60 138 -22 0 -26 -9 -60 -139 l-36
-140 -28 142 -28 142 -29 0 c-16 0 -27 -4 -24 -9z"/>
<path d="M6060 5265 l0 -125 25 0 25 0 0 125 0 125 -25 0 -25 0 0 -125z"/>
<path d="M6217 5379 c-63 -37 -62 -194 2 -229 37 -19 100 -12 126 15 14 13 25
31 25 40 0 22 -37 19 -50 -5 -13 -25 -61 -27 -83 -2 -25 28 -26 112 -1 136 23
24 75 21 81 -4 3 -13 14 -20 29 -20 31 0 31 24 -1 55 -18 19 -35 25 -67 25
-24 0 -51 -5 -61 -11z"/>
<path d="M6457 5369 c-56 -43 -60 -148 -7 -201 23 -22 37 -28 73 -28 54 0 91
26 107 76 13 39 6 110 -13 135 -33 43 -117 53 -160 18z m119 -44 c19 -29 15
-104 -6 -130 -16 -19 -60 -19 -86 -1 -15 11 -19 26 -19 69 0 65 15 87 61 87
25 0 38 -7 50 -25z"/>
<path d="M10675 6439 c-17 -4 -44 -22 -60 -39 l-30 -31 -3 -389 -3 -388 -79
44 c-44 24 -82 44 -84 44 -2 0 -1 -20 2 -45 l5 -45 -157 0 c-132 0 -156 -2
-156 -15 0 -13 24 -15 156 -15 l157 0 -6 -40 c-3 -22 -3 -40 0 -40 3 0 38 18
78 40 40 22 75 40 79 40 3 0 6 -143 6 -317 0 -357 3 -372 70 -405 32 -17 87
-18 693 -18 l657 0 0 -165 c0 -140 2 -165 15 -165 13 0 15 25 15 165 l0 165
643 0 c709 0 683 -2 731 63 21 28 21 36 21 751 0 673 -1 724 -18 749 -9 15
-29 35 -44 44 -26 17 -104 18 -1343 20 -745 1 -1328 -3 -1345 -8z m2689 -60
l26 -31 0 -717 0 -718 -24 -26 c-13 -14 -35 -29 -48 -32 -12 -3 -614 -4 -1336
-3 l-1314 3 -29 33 -29 32 0 706 c0 752 0 745 47 773 12 7 464 10 1350 11
l1331 0 26 -31z"/>
<path d="M11896 6070 c-42 -7 -70 -49 -61 -90 6 -28 16 -36 71 -61 36 -16 68
-37 71 -46 11 -28 -11 -48 -53 -48 -31 0 -41 5 -49 23 -12 28 -45 30 -45 2 0
-11 9 -29 20 -40 47 -47 134 -36 164 20 28 52 9 88 -62 116 -30 12 -61 29 -70
38 -24 24 -4 50 41 54 28 2 38 -1 47 -17 10 -20 50 -30 50 -12 0 4 -9 20 -20
33 -21 27 -57 37 -104 28z"/>
<path d="M12115 6069 c-25 -15 -45 -39 -45 -56 0 -20 34 -15 48 7 7 11 23 20
36 20 56 0 61 -76 6 -87 -37 -7 -43 -43 -7 -43 47 0 65 -56 26 -84 -26 -18
-60 -8 -74 22 -13 28 -45 29 -45 2 0 -11 9 -29 20 -40 38 -38 95 -38 141 -1
31 25 32 86 2 110 -20 17 -20 18 -2 40 24 30 24 73 0 95 -24 22 -80 30 -106
15z"/>
<path d="M12334 6070 c-21 -8 -54 -46 -54 -62 0 -5 11 -8 24 -8 15 0 26 7 29
20 7 27 62 28 76 2 15 -27 -9 -66 -42 -70 -30 -4 -38 -32 -9 -32 56 0 82 -66
38 -95 -28 -19 -58 -9 -76 25 -15 28 -40 25 -40 -3 0 -38 35 -62 91 -62 37 0
54 5 71 22 29 30 30 89 1 112 -20 17 -20 18 -2 40 55 68 -21 146 -107 111z"/>
<path d="M11350 5924 l0 -147 76 6 c44 3 86 12 100 22 52 34 69 129 36 195
-23 47 -72 70 -149 70 l-63 0 0 -146z m151 87 c18 -14 23 -31 27 -79 4 -55 2
-63 -21 -86 -20 -19 -36 -26 -67 -26 l-40 0 0 105 0 105 39 0 c23 0 48 -8 62
-19z"/>
<path d="M11600 6050 c0 -17 7 -20 40 -20 l40 0 0 -126 c0 -124 0 -125 23
-122 21 3 22 6 22 126 l0 122 43 0 c35 0 42 3 42 20 0 19 -7 20 -105 20 -98 0
-105 -1 -105 -20z"/>
<path d="M12579 6043 c-6 -16 -28 -79 -49 -140 l-39 -113 23 0 c18 0 25 8 32
33 9 31 12 32 66 35 l56 3 12 -36 c9 -27 17 -35 35 -35 l24 0 -47 140 c-45
134 -48 139 -75 140 -21 0 -30 -6 -38 -27z m81 -150 c0 -2 -21 -3 -46 -3 -33
0 -45 4 -42 13 3 6 13 36 23 66 l18 54 23 -64 c13 -35 24 -65 24 -66z"/>
<path d="M12480 5550 l0 -58 -30 14 c-56 28 -110 -19 -110 -98 0 -52 17 -84
53 -99 26 -11 34 -10 61 5 19 11 32 14 34 7 2 -6 10 -11 18 -11 11 0 14 26 14
144 0 135 -1 144 -20 149 -18 5 -20 0 -20 -53z m-10 -91 c14 -25 12 -93 -2
-107 -19 -19 -66 -15 -78 7 -14 27 -13 84 3 103 24 31 60 30 77 -3z"/>
<path d="M11514 5590 c-42 -9 -54 -18 -65 -48 -20 -52 20 -96 104 -117 48 -12
61 -56 23 -80 -31 -21 -74 -10 -88 21 -13 29 -48 32 -48 6 0 -26 40 -60 77
-68 39 -8 100 12 113 36 17 31 12 76 -11 96 -11 10 -41 26 -67 35 -25 8 -50
23 -56 32 -27 42 57 80 86 39 19 -29 54 -33 50 -7 -7 42 -61 67 -118 55z"/>
<path d="M12810 5455 c0 -137 1 -145 19 -145 19 0 20 9 23 145 3 145 3 145
-19 145 -23 0 -23 -1 -23 -145z"/>
<path d="M10972 5573 c2 -13 15 -19 46 -21 l42 -3 0 -125 c0 -117 1 -124 20
-124 19 0 20 7 20 125 l0 125 45 0 c38 0 45 3 45 20 0 19 -7 20 -111 20 -100
0 -110 -2 -107 -17z"/>
<path d="M11202 5573 c2 -13 15 -19 46 -21 l42 -3 0 -120 c0 -99 3 -119 15
-119 8 0 18 0 21 0 4 0 6 54 5 120 l-2 120 45 0 c39 0 46 3 46 20 0 19 -7 20
-111 20 -100 0 -110 -2 -107 -17z"/>
<path d="M11813 5582 l-33 -3 0 -135 c0 -127 1 -134 20 -134 18 0 20 8 22 113
l3 112 38 -112 c34 -101 41 -113 62 -113 21 0 27 12 60 110 20 61 39 110 41
110 3 0 4 -51 3 -112 -1 -102 0 -113 16 -113 16 0 18 13 19 137 l1 138 -31 0
c-31 0 -32 -1 -70 -111 l-38 -112 -32 94 c-47 139 -44 134 -81 131z"/>
<path d="M12952 5510 c-52 -21 -67 -140 -22 -184 31 -32 105 -29 132 4 18 23
19 25 3 28 -9 2 -24 -3 -34 -12 -24 -21 -47 -20 -71 4 -38 38 -27 50 50 50
l70 0 0 31 c0 20 -10 40 -29 60 -30 30 -58 35 -99 19z m80 -44 c18 -27 7 -36
-42 -36 -54 0 -61 9 -29 41 21 21 56 19 71 -5z"/>
<path d="M12153 5495 c-54 -38 -48 -151 9 -181 37 -19 90 -12 119 17 29 29 27
128 -4 157 -28 26 -92 30 -124 7z m94 -27 c32 -41 17 -124 -23 -134 -39 -10
-64 19 -64 76 0 25 5 51 12 58 16 16 63 15 75 0z"/>
<path d="M12580 5430 c0 -73 3 -83 25 -105 28 -28 66 -32 89 -9 15 14 17 14
32 0 8 -9 17 -16 20 -16 2 0 4 47 4 105 0 98 -1 105 -20 105 -18 0 -20 -7 -20
-74 0 -76 -13 -106 -45 -106 -32 0 -45 30 -45 106 0 67 -2 74 -20 74 -18 0
-20 -7 -20 -80z"/>
<path d="M9170 5630 c0 -54 5 -110 11 -124 23 -51 125 -60 162 -15 23 28 26
239 3 239 -11 0 -15 -22 -18 -99 -2 -80 -7 -103 -22 -120 -23 -25 -44 -27 -74
-5 -20 14 -22 23 -22 120 0 97 -1 104 -20 104 -19 0 -20 -7 -20 -100z"/>
<path d="M9436 5600 c-25 -73 -46 -134 -46 -136 0 -2 8 -4 19 -4 12 0 21 11
27 33 9 31 12 32 66 35 l56 3 12 -36 c8 -24 18 -35 31 -35 10 0 19 4 19 8 0 4
-20 64 -44 132 -39 111 -46 125 -68 128 -24 3 -28 -5 -72 -128z m103 -17 c1
-9 -13 -13 -38 -13 l-40 0 22 60 22 60 17 -48 c9 -26 17 -53 17 -59z"/>
<path d="M9660 5596 c0 -129 1 -136 20 -136 18 0 20 7 20 61 0 60 0 60 28 57
22 -2 32 -13 54 -60 20 -42 33 -58 48 -58 25 0 25 0 -9 69 l-28 57 23 21 c30
27 32 73 3 99 -15 13 -40 20 -90 22 l-69 4 0 -136z m121 94 c11 -6 19 -21 19
-35 0 -28 -26 -45 -69 -45 -30 0 -31 1 -31 45 0 44 1 45 31 45 17 0 39 -5 50
-10z"/>
<path d="M9850 5715 c0 -11 12 -15 45 -15 l45 0 0 -120 c0 -100 3 -120 15
-120 13 0 15 20 15 120 l0 120 40 0 c29 0 40 4 40 15 0 12 -18 15 -100 15 -82
0 -100 -3 -100 -15z"/>
<path d="M11244 4465 c-4 -9 -2 -21 4 -27 15 -15 44 -1 40 19 -4 23 -36 29
-44 8z"/>
<path d="M10799 4465 c-3 -2 15 -63 39 -135 34 -101 48 -130 62 -130 10 0 22
6 28 13 8 10 92 240 92 253 0 2 -8 4 -19 4 -15 0 -25 -20 -50 -99 -17 -54 -31
-104 -31 -110 0 -6 -4 -11 -8 -11 -4 0 -24 48 -43 107 -32 98 -51 127 -70 108z"/>
<path d="M11068 4395 c-51 -28 -62 -131 -17 -171 33 -30 96 -25 125 9 41 48
28 143 -23 166 -31 14 -52 13 -85 -4z m91 -59 c19 -41 4 -88 -33 -101 -24 -8
-31 -6 -47 14 -21 26 -25 72 -8 102 16 31 70 22 88 -15z"/>
<path d="M11384 4400 c-69 -28 -73 -159 -7 -189 13 -6 33 -11 44 -11 21 0 69
42 69 60 0 15 -30 12 -36 -5 -8 -20 -39 -28 -62 -16 -25 13 -34 61 -21 101 9
24 17 30 40 30 17 0 32 -6 35 -15 6 -16 44 -21 44 -6 0 18 -36 50 -60 55 -14
3 -35 1 -46 -4z"/>
<path d="M11553 4386 c-24 -21 -28 -31 -28 -79 0 -61 18 -91 62 -102 32 -8 74
9 91 35 10 17 10 20 -7 20 -10 0 -24 -7 -31 -15 -25 -31 -80 -6 -80 36 0 17 7
19 66 19 l66 0 -7 33 c-8 39 -47 77 -80 77 -13 0 -37 -11 -52 -24z m85 -18
c25 -25 13 -38 -33 -38 -30 0 -45 4 -45 13 0 19 21 37 45 37 12 0 26 -5 33
-12z"/>
<path d="M11872 4394 c-12 -8 -22 -10 -22 -5 0 6 -9 11 -20 11 -19 0 -20 -7
-20 -95 0 -88 1 -95 20 -95 18 0 20 7 20 64 0 69 14 96 51 96 12 0 19 7 19 20
0 24 -18 26 -48 4z"/>
<path d="M11973 4395 c-46 -32 -53 -134 -11 -172 26 -24 90 -23 117 1 12 11
21 23 21 28 0 14 -38 9 -44 -7 -13 -36 -86 -3 -86 38 0 14 11 17 65 17 l65 0
0 30 c0 63 -75 101 -127 65z m75 -27 c25 -25 13 -38 -33 -38 -49 0 -50 1 -35
31 12 21 50 25 68 7z"/>
<path d="M12170 4397 c-28 -14 -39 -59 -20 -82 7 -8 27 -17 46 -21 41 -8 61
-36 39 -54 -16 -13 -65 -6 -65 10 0 6 -9 10 -20 10 -26 0 -25 -12 1 -36 24
-22 89 -25 113 -5 9 7 16 26 16 42 0 31 -25 53 -73 65 -33 8 -47 32 -26 45 20
13 36 11 53 -6 16 -16 46 -20 46 -7 0 15 -33 40 -60 46 -14 4 -36 0 -50 -7z"/>
<path d="M12390 4403 c-8 -3 -19 -11 -23 -17 -6 -8 -10 -7 -14 2 -2 6 -11 12
-19 12 -11 0 -14 -25 -14 -135 0 -128 1 -135 20 -135 17 0 20 7 20 52 0 49 1
50 18 35 60 -55 142 37 112 127 -17 53 -56 76 -100 59z m60 -59 c15 -40 12
-72 -10 -94 -40 -40 -80 -13 -80 54 0 49 13 66 52 66 21 0 31 -6 38 -26z"/>
<path d="M12584 4400 c-34 -14 -54 -50 -54 -98 0 -58 13 -79 58 -92 52 -16 89
0 108 46 18 43 11 105 -15 128 -22 20 -70 28 -97 16z m76 -49 c26 -49 -1 -121
-44 -121 -41 0 -64 55 -45 109 9 26 16 31 45 31 23 0 37 -6 44 -19z"/>
<path d="M12810 4393 c-17 -12 -25 -13 -28 -5 -2 7 -10 12 -18 12 -11 0 -14
-20 -14 -95 0 -88 1 -95 20 -95 18 0 20 7 20 69 0 75 12 95 51 89 29 -4 42
-46 35 -110 -4 -43 -3 -48 14 -48 18 0 20 7 20 75 0 67 -3 79 -25 100 -29 29
-42 31 -75 8z"/>
<path d="M13005 4403 c-32 -8 -45 -23 -45 -54 0 -29 30 -59 60 -59 9 0 25 -6
35 -14 16 -12 17 -16 6 -30 -17 -20 -60 -21 -67 -1 -6 16 -44 21 -44 7 0 -21
44 -47 80 -47 47 0 70 19 70 56 0 31 -25 53 -73 65 -33 8 -47 32 -26 45 21 13
36 11 53 -7 9 -8 23 -14 32 -12 15 3 14 5 -2 25 -21 24 -49 33 -79 26z"/>
<path d="M13170 4392 c-40 -32 -43 -133 -6 -171 23 -22 89 -20 115 3 12 11 21
23 21 28 0 14 -38 9 -44 -7 -8 -23 -53 -18 -70 7 -29 41 -21 48 50 48 l67 0
-6 38 c-11 65 -78 94 -127 54z m78 -24 c25 -25 13 -38 -33 -38 -49 0 -50 1
-35 31 12 21 50 25 68 7z"/>
<path d="M11250 4305 c0 -78 3 -95 15 -95 12 0 15 17 15 95 0 78 -3 95 -15 95
-12 0 -15 -17 -15 -95z"/>
<path d="M12000 4020 l0 -100 -45 0 c-25 0 -45 -2 -45 -4 0 -3 23 -43 50 -91
28 -48 50 -88 50 -91 0 -2 -277 -4 -615 -4 -531 0 -620 -2 -645 -15 -63 -33
-60 19 -60 -1023 l0 -949 23 -34 c13 -19 38 -39 57 -46 26 -9 337 -12 1253
-12 1364 -1 1269 -6 1307 70 19 37 20 66 20 969 0 1025 3 980 -62 1020 -32 19
-49 20 -645 20 -337 0 -613 3 -613 6 0 3 20 43 45 88 25 46 45 86 45 90 0 3
-20 6 -45 6 l-45 0 0 100 c0 82 -3 100 -15 100 -12 0 -15 -18 -15 -100z m1286
-354 l34 -34 0 -934 c0 -915 0 -934 -20 -966 -11 -18 -32 -37 -46 -42 -17 -7
-463 -9 -1251 -8 l-1225 3 -29 33 -29 32 0 946 0 946 29 29 29 29 1237 0 1237
0 34 -34z"/>
<path d="M11935 3365 c-75 -58 -140 -105 -144 -106 -3 0 -42 -2 -85 -4 -44 -2
-90 -6 -102 -9 -36 -9 -47 -69 -42 -223 5 -167 2 -164 135 -171 l98 -5 139
-104 c76 -57 144 -102 150 -100 33 11 36 49 33 424 -3 368 -6 403 -37 403 -4
0 -69 -47 -145 -105z m143 -493 l-3 -190 -132 99 -133 100 0 172 0 173 133
100 132 100 3 -182 c1 -101 1 -268 0 -372z m-298 183 l0 -166 -87 3 -88 3 -3
150 c-1 82 0 155 2 162 4 9 30 13 91 13 l85 0 0 -165z"/>
<path d="M12325 3380 c-4 -6 12 -31 35 -56 23 -25 54 -71 68 -102 24 -51 27
-69 27 -167 0 -129 -16 -175 -89 -253 -31 -33 -42 -52 -36 -61 20 -33 104 62
140 158 56 147 23 333 -80 445 -44 48 -54 53 -65 36z"/>
<path d="M12234 3259 c-3 -6 7 -25 24 -42 88 -94 93 -228 11 -321 -41 -46 -48
-66 -25 -66 25 0 64 40 90 92 21 42 26 66 26 127 0 86 -19 136 -68 189 -32 34
-46 39 -58 21z"/>
<path d="M12580 2215 c0 -122 2 -145 15 -145 10 0 15 10 15 28 0 16 9 37 19
46 19 17 20 16 46 -28 17 -29 34 -46 46 -46 25 0 24 4 -11 62 -16 26 -30 51
-30 55 0 4 14 22 32 40 32 33 32 33 7 33 -16 0 -37 -15 -66 -47 l-42 -48 -1
98 c0 79 -3 97 -15 97 -13 0 -15 -23 -15 -145z"/>
<path d="M11046 2319 c-41 -48 -13 -70 30 -24 13 14 29 25 37 25 23 0 39 -26
35 -57 -2 -21 -10 -30 -35 -38 -36 -12 -32 -26 12 -40 36 -12 45 -48 19 -76
-24 -26 -41 -24 -73 10 -34 37 -62 28 -43 -13 23 -50 118 -60 155 -15 25 31
22 84 -5 104 -15 10 -19 18 -12 23 15 10 34 47 34 67 0 31 -46 65 -89 65 -32
0 -44 -6 -65 -31z"/>
<path d="M11715 2325 c-14 -13 -25 -36 -25 -50 0 -32 38 -72 77 -81 46 -11 73
-32 73 -59 0 -53 -94 -56 -107 -5 -4 13 -14 20 -30 20 -21 0 -23 -3 -18 -22
12 -39 40 -60 86 -65 53 -5 89 12 107 51 26 52 -9 95 -98 121 -52 15 -68 55
-31 75 32 17 58 12 79 -15 22 -28 52 -33 52 -10 0 9 -11 27 -25 40 -18 19 -35
25 -70 25 -35 0 -52 -6 -70 -25z"/>
<path d="M11234 2318 c3 -13 18 -76 32 -140 27 -114 28 -118 54 -118 26 0 28
4 51 105 13 58 26 105 29 105 3 0 16 -47 29 -105 23 -101 25 -105 50 -105 26
0 28 4 59 133 18 72 32 135 32 140 0 4 -8 7 -19 7 -15 0 -22 -18 -42 -110 -13
-60 -26 -110 -29 -110 -3 0 -16 48 -30 108 -22 92 -28 107 -46 110 -20 3 -24
-7 -50 -113 -32 -130 -31 -130 -64 18 -19 84 -24 97 -42 97 -16 0 -19 -5 -14
-22z"/>
<path d="M12200 2267 c-62 -31 -68 -150 -11 -194 27 -21 85 -16 109 10 12 13
22 26 22 30 0 13 -31 7 -46 -8 -30 -30 -84 -7 -84 36 0 17 7 19 65 19 62 0 65
1 65 25 0 40 -21 73 -53 85 -37 12 -37 12 -67 -3z m78 -54 c3 -21 -1 -23 -42
-23 -31 0 -46 4 -46 13 0 23 24 38 55 35 22 -2 31 -9 33 -25z"/>
<path d="M12825 2271 c-41 -17 -59 -49 -59 -107 -1 -49 2 -59 28 -81 25 -21
37 -24 70 -20 46 6 93 49 61 55 -9 2 -24 -3 -34 -12 -25 -23 -57 -20 -75 6
-29 41 -21 48 54 48 76 0 79 2 59 59 -6 18 -24 38 -40 46 -31 17 -36 17 -64 6z
m65 -50 c15 -30 14 -31 -40 -31 -54 0 -55 1 -40 31 7 12 21 19 40 19 19 0 33
-7 40 -19z"/>
<path d="M11930 2125 c0 -138 1 -145 20 -145 17 0 20 7 20 50 0 47 1 50 19 40
33 -17 71 -11 96 15 33 33 36 119 4 159 -24 30 -72 35 -107 10 -20 -14 -22
-14 -22 0 0 9 -7 16 -15 16 -13 0 -15 -23 -15 -145z m120 95 c36 -36 16 -130
-27 -130 -48 0 -73 91 -36 132 21 23 38 23 63 -2z"/>
<path d="M12380 2250 c-11 -11 -20 -24 -20 -30 0 -16 37 -12 44 5 9 24 55 19
65 -7 5 -13 6 -24 2 -25 -3 -1 -23 -4 -43 -8 -21 -3 -44 -13 -53 -21 -22 -23
-20 -81 4 -94 28 -15 67 -12 81 5 12 14 15 14 30 0 9 -8 22 -15 28 -15 15 0
16 26 2 35 -5 3 -10 37 -10 75 0 49 -4 73 -16 84 -23 23 -89 21 -114 -4z m90
-114 c0 -48 -62 -63 -68 -17 -4 26 12 41 46 41 17 0 22 -6 22 -24z"/>
<path d="M12980 2170 c0 -97 1 -100 23 -100 21 0 22 4 23 69 0 73 13 101 45
101 11 0 19 7 19 15 0 21 -47 19 -59 -2 -10 -17 -10 -17 -11 0 0 10 -8 17 -20
17 -19 0 -20 -7 -20 -100z"/>
<path d="M5990 3772 c0 -128 2 -140 18 -138 13 2 17 13 18 52 l1 49 49 3 c64
4 98 36 97 88 -2 57 -28 76 -112 82 l-71 5 0 -141z m128 86 c7 -7 12 -24 12
-38 0 -37 -18 -50 -67 -50 l-43 0 0 50 0 50 43 0 c24 0 48 -5 55 -12z"/>
<path d="M6255 3831 c-52 -22 -75 -87 -51 -145 18 -43 52 -61 100 -52 46 9 66
39 66 99 0 61 -11 82 -51 96 -36 13 -37 13 -64 2z m71 -56 c28 -43 4 -115 -39
-115 -48 0 -74 69 -47 121 16 29 65 25 86 -6z"/>
<path d="M6719 3811 c-49 -49 -36 -147 22 -171 43 -18 109 7 109 41 0 14 -26
11 -40 -6 -24 -29 -72 -11 -85 33 -6 21 -4 22 65 22 l70 0 -6 28 c-11 44 -24
62 -50 72 -39 15 -53 12 -85 -19z m85 -17 c26 -25 19 -34 -29 -34 -46 0 -58
13 -33 38 17 17 44 15 62 -4z"/>
<path d="M6975 3833 c-11 -3 -26 -12 -32 -21 -12 -14 -13 -14 -13 1 0 9 -7 17
-15 17 -21 0 -22 -185 -1 -193 22 -9 26 2 26 73 0 68 10 90 42 90 11 0 18 7
18 20 0 11 -1 19 -2 19 -2 -1 -12 -3 -23 -6z"/>
<path d="M6404 3798 c3 -17 15 -61 26 -98 15 -50 24 -66 39 -67 15 -1 22 11
37 68 10 38 21 69 26 69 4 0 8 -5 8 -11 0 -6 7 -35 16 -65 13 -45 19 -54 38
-54 20 0 25 10 44 88 26 103 26 102 7 102 -14 0 -30 -42 -41 -112 -7 -44 -19
-42 -28 4 -17 84 -27 108 -46 108 -19 0 -29 -24 -46 -108 -8 -41 -20 -41 -28
0 -16 78 -27 108 -43 108 -12 0 -14 -7 -9 -32z"/>
<path d="M6457 3543 c-4 -3 -7 -143 -7 -310 l0 -303 -1055 0 c-1166 0 -1095 4
-1135 -63 -19 -31 -20 -56 -20 -867 0 -811 1 -836 20 -867 41 -68 -137 -63
2142 -63 1630 0 2068 3 2088 13 13 7 35 28 47 46 l23 34 0 836 c0 812 -1 837
-20 868 -40 67 24 63 -1070 63 l-990 0 0 310 c0 171 -4 310 -8 310 -5 0 -12
-3 -15 -7z m2023 -660 c16 -9 33 -27 39 -40 8 -17 11 -276 11 -844 0 -890 2
-861 -55 -887 -20 -9 -509 -12 -2083 -12 -1934 0 -2058 1 -2078 18 -12 9 -27
27 -33 39 -17 34 -15 1660 3 1692 30 53 -93 50 2114 51 1899 0 2056 -1 2082
-17z"/>
<path d="M6550 2525 c0 -148 1 -155 20 -155 18 0 20 7 20 78 0 86 8 102 52
102 37 0 48 -24 48 -109 0 -65 2 -71 21 -71 20 0 21 4 17 89 -2 70 -7 93 -22
110 -23 25 -63 27 -94 5 l-22 -15 0 60 c0 54 -2 61 -20 61 -19 0 -20 -7 -20
-155z"/>
<path d="M5522 2647 c-51 -54 -52 -199 -2 -249 33 -32 91 -38 127 -13 60 42
54 242 -8 275 -33 18 -94 12 -117 -13z m110 -39 c15 -29 15 -147 -1 -176 -8
-15 -21 -22 -41 -22 -43 0 -60 31 -60 110 0 79 17 110 60 110 20 0 33 -7 42
-22z"/>
<path d="M5997 2659 c-64 -37 -62 -244 1 -278 34 -18 79 -13 109 13 23 20 28
32 28 69 0 80 -65 122 -124 80 l-24 -16 7 39 c5 21 12 45 18 52 14 17 53 15
68 -3 13 -16 50 -21 50 -6 0 4 -9 20 -21 35 -16 20 -29 26 -57 26 -20 0 -45
-5 -55 -11z m88 -163 c32 -49 -17 -109 -64 -79 -20 12 -27 69 -10 89 18 22 57
17 74 -10z"/>
<path d="M6333 2654 c-83 -41 -96 -196 -22 -258 62 -53 168 -26 185 47 5 22 3
27 -13 27 -11 0 -25 -11 -31 -25 -17 -37 -53 -51 -88 -34 -40 20 -56 55 -51
117 4 62 35 102 79 102 27 0 68 -30 68 -50 0 -5 9 -10 20 -10 42 0 16 64 -35
86 -44 18 -72 17 -112 -2z"/>
<path d="M7394 2655 c-8 -19 3 -35 26 -35 19 0 30 17 23 38 -6 17 -42 15 -49
-3z"/>
<path d="M4770 2640 c0 -17 7 -20 46 -20 l45 0 -3 -125 c-3 -124 -3 -125 20
-125 22 0 22 2 22 125 l0 125 45 0 c38 0 45 3 45 20 0 19 -7 20 -110 20 -103
0 -110 -1 -110 -20z"/>
<path d="M5030 2515 l0 -145 26 0 c25 0 26 2 22 55 l-3 55 43 0 c80 0 132 51
116 114 -12 48 -48 66 -130 66 l-74 0 0 -145z m150 86 c25 -48 -1 -81 -66 -81
l-44 0 0 50 0 50 50 0 c38 0 52 -4 60 -19z"/>
<path d="M5301 2564 c-33 -52 -61 -102 -61 -110 0 -11 15 -14 65 -14 l65 0 0
-35 c0 -28 4 -35 20 -35 16 0 20 7 20 35 0 28 4 35 20 35 11 0 20 7 20 15 0 8
-9 15 -20 15 -19 0 -20 7 -20 95 0 93 0 95 -24 95 -19 0 -36 -19 -85 -96z m69
-24 l0 -70 -41 0 c-22 0 -39 4 -37 9 5 13 73 130 76 131 1 0 2 -31 2 -70z"/>
<path d="M5747 2653 c-3 -5 -7 -39 -8 -77 -4 -76 4 -88 45 -66 35 18 69 9 80
-22 19 -54 -49 -105 -84 -63 -16 19 -50 20 -50 1 0 -23 50 -56 86 -56 20 0 44
9 61 24 24 21 28 32 28 74 0 70 -24 96 -85 90 l-46 -5 4 34 c4 33 4 33 58 33
47 0 54 2 54 20 0 18 -7 20 -69 20 -39 0 -72 -3 -74 -7z"/>
<path d="M6805 2565 c-14 -13 -25 -29 -25 -35 0 -18 35 -11 48 10 21 35 72 19
72 -22 0 -13 -8 -18 -25 -18 -14 0 -41 -6 -60 -14 -69 -29 -52 -116 23 -116
21 0 43 5 50 12 9 9 15 9 24 0 17 -17 48 -15 48 3 0 8 -4 15 -10 15 -6 0 -10
32 -10 75 0 62 -4 79 -20 95 -29 29 -84 27 -115 -5z m95 -113 c0 -52 -71 -73
-78 -23 -4 28 12 41 51 41 19 0 27 -5 27 -18z"/>
<path d="M7062 2574 c-12 -8 -22 -10 -22 -5 0 6 -8 11 -17 11 -16 0 -18 -12
-18 -105 0 -102 1 -105 23 -105 21 0 22 4 22 71 0 82 11 109 45 109 18 0 25 5
25 20 0 24 -26 26 -58 4z"/>
<path d="M7173 2566 c-24 -21 -28 -31 -28 -79 0 -45 5 -60 24 -81 28 -30 66
-34 99 -10 21 15 22 14 22 -18 0 -19 -5 -39 -12 -46 -17 -17 -63 -15 -78 3
-14 17 -50 20 -50 5 0 -27 41 -50 90 -50 82 0 90 14 90 165 0 120 -1 125 -21
125 -11 0 -17 -4 -14 -10 9 -15 -4 -12 -21 5 -23 22 -69 18 -101 -9z m107 -35
c26 -50 4 -111 -40 -111 -32 0 -60 30 -60 65 0 56 76 90 100 46z"/>
<path d="M7398 2582 c-1 -4 -2 -53 -2 -109 -1 -100 0 -103 22 -103 21 0 22 3
22 104 0 95 -2 104 -20 109 -11 3 -21 2 -22 -1z"/>
<path d="M7562 2574 c-12 -8 -22 -10 -22 -5 0 6 -9 11 -20 11 -19 0 -20 -7
-20 -105 l0 -105 25 0 c25 0 25 1 25 78 0 82 9 102 45 102 36 0 45 -20 45
-102 0 -71 2 -78 20 -78 18 0 20 7 20 81 0 77 -10 115 -34 131 -19 13 -60 9
-84 -8z"/>
<path d="M7773 2575 c-28 -19 -47 -78 -39 -118 13 -66 84 -100 128 -60 17 15
18 14 18 -18 0 -19 -5 -40 -12 -47 -17 -17 -63 -15 -78 3 -14 17 -50 20 -50 5
0 -49 133 -72 164 -28 23 32 23 268 1 268 -8 0 -15 -5 -15 -11 0 -5 -10 -3
-22 5 -28 20 -67 20 -95 1z m97 -44 c26 -50 4 -111 -39 -111 -36 0 -55 23 -55
65 0 18 6 40 13 49 19 23 68 21 81 -3z"/>
<path d="M6240 2129 c0 -55 -1 -59 -16 -45 -24 25 -62 19 -95 -13 -25 -25 -29
-37 -29 -84 0 -72 26 -107 79 -107 20 0 43 6 50 13 11 10 14 10 18 0 3 -7 13
-13 24 -13 18 0 19 9 19 155 l0 155 -25 0 c-24 0 -25 -3 -25 -61z m-12 -81 c7
-7 12 -35 12 -63 0 -28 -5 -56 -12 -63 -17 -17 -48 -15 -70 5 -23 21 -25 95
-2 117 18 19 55 21 72 4z"/>
<path d="M6590 2035 c0 -148 1 -155 20 -155 19 0 20 7 20 155 0 148 -1 155
-20 155 -19 0 -20 -7 -20 -155z"/>
<path d="M5520 2025 c0 -140 1 -145 21 -145 19 0 20 5 17 115 -2 63 -1 115 2
115 3 0 21 -51 40 -113 32 -101 38 -112 60 -112 21 0 27 11 59 107 20 59 38
109 41 111 3 3 3 -46 2 -109 l-4 -114 26 0 26 0 0 145 0 145 -34 0 -35 0 -37
-114 c-21 -63 -41 -113 -44 -111 -4 2 -22 54 -41 115 l-34 110 -32 0 -33 0 0
-145z"/>
<path d="M7090 2085 l0 -45 -45 0 c-33 0 -45 -4 -45 -15 0 -11 12 -15 45 -15
l45 0 0 -45 c0 -33 4 -45 15 -45 11 0 15 12 15 45 l0 45 45 0 c33 0 45 4 45
15 0 11 -12 15 -45 15 l-45 0 0 45 c0 33 -4 45 -15 45 -11 0 -15 -12 -15 -45z"/>
<path d="M5913 2090 c-47 -19 -68 -112 -38 -169 17 -34 33 -41 89 -41 50 0 72
19 87 74 27 97 -49 172 -138 136z m88 -51 c29 -55 6 -129 -41 -129 -35 0 -60
31 -60 75 0 17 7 41 16 53 20 29 69 30 85 1z"/>
<path d="M6350 2010 c0 -106 13 -130 70 -130 22 0 45 7 54 16 15 14 16 14 16
0 0 -9 8 -16 20 -16 19 0 20 7 20 105 0 98 -1 105 -20 105 -18 0 -20 -7 -20
-68 0 -77 -17 -112 -55 -112 -34 0 -45 27 -45 112 0 67 -2 74 -20 74 -18 0
-20 -7 -20 -86z"/>
<path d="M6724 2085 c-30 -21 -49 -95 -35 -136 19 -54 39 -69 91 -69 47 0 80
20 80 48 0 17 -37 15 -44 -3 -7 -18 -60 -20 -73 -2 -6 6 -13 22 -16 34 -5 21
-2 22 67 25 l71 3 -3 35 c-6 66 -84 103 -138 65z m90 -37 c21 -29 12 -38 -40
-38 -37 0 -44 3 -44 20 0 39 60 53 84 18z"/>
<path d="M5168 1662 c-47 -32 -51 -56 -8 -47 l30 7 0 -96 0 -96 -35 0 c-28 0
-35 -4 -35 -20 0 -18 7 -20 80 -20 73 0 80 2 80 20 0 15 -7 20 -25 20 l-25 0
0 130 c0 144 0 145 -62 102z"/>
<path d="M5341 1673 c-11 -10 -24 -32 -27 -50 -5 -25 -1 -37 18 -56 l24 -24
-23 -17 c-18 -13 -23 -27 -23 -61 0 -56 28 -78 98 -77 38 1 51 6 70 27 28 33
29 88 2 115 -19 19 -19 22 -5 36 25 25 19 79 -11 103 -33 26 -94 28 -123 4z
m93 -29 c30 -30 9 -84 -33 -84 -58 0 -53 98 6 100 6 0 19 -7 27 -16z m6 -134
c11 -11 20 -26 20 -33 0 -24 -31 -57 -55 -57 -49 0 -72 55 -38 92 21 24 48 23
73 -2z"/>
<path d="M5594 1678 c-12 -5 -27 -21 -33 -34 -18 -41 -24 -126 -11 -174 17
-65 34 -80 91 -80 39 0 51 4 68 26 58 74 -11 189 -90 150 -29 -14 -29 -14 -29
15 0 47 16 69 51 69 22 0 32 -5 36 -20 3 -13 14 -20 29 -20 18 0 22 4 17 18
-19 54 -76 76 -129 50z m78 -155 c39 -35 6 -113 -42 -98 -19 6 -40 41 -40 66
0 13 38 49 52 49 6 0 20 -7 30 -17z"/>
<path d="M6037 1670 c-53 -42 -60 -208 -11 -257 20 -20 32 -24 76 -21 67 4 90
32 96 118 6 79 -3 122 -33 154 -30 33 -90 36 -128 6z m97 -35 c19 -19 30 -94
21 -142 -12 -69 -55 -93 -95 -53 -16 16 -20 33 -20 93 0 82 16 117 55 117 13
0 30 -7 39 -15z"/>
<path d="M6340 1540 l0 -150 79 0 c99 0 131 20 131 81 0 33 -5 43 -28 56 l-28
16 23 23 c61 61 -5 124 -129 124 l-48 0 0 -150z m131 100 c21 -12 25 -50 7
-68 -7 -7 -29 -12 -50 -12 l-38 0 0 45 c0 44 1 45 31 45 17 0 39 -5 50 -10z
m10 -130 c21 -12 26 -52 7 -68 -7 -5 -32 -12 -55 -14 l-43 -4 0 48 0 48 36 0
c19 0 44 -5 55 -10z"/>
<path d="M5785 1604 c-9 -88 0 -105 39 -79 56 37 108 -15 75 -74 -19 -33 -53
-38 -76 -12 -18 22 -53 29 -53 10 0 -65 116 -88 160 -31 24 30 27 98 5 129
-19 27 -79 40 -101 22 -14 -11 -15 -7 -12 32 l3 44 55 1 c43 1 56 5 58 17 3
15 -7 17 -71 17 l-75 0 -7 -76z"/>
<path d="M6830 1635 c0 -24 -5 -35 -15 -35 -17 0 -21 -26 -4 -32 6 -2 11 -37
12 -82 2 -65 5 -80 22 -92 26 -19 69 -14 73 9 3 13 -2 16 -20 15 -22 -3 -23 0
-26 75 -3 77 -3 77 23 77 16 0 25 6 25 15 0 9 -9 15 -25 15 -22 0 -25 4 -25
35 0 28 -4 35 -20 35 -16 0 -20 -7 -20 -35z"/>
<path d="M6980 1635 c0 -28 -4 -35 -20 -35 -11 0 -20 -7 -20 -15 0 -8 7 -15
15 -15 12 0 15 -15 15 -75 0 -62 4 -79 20 -95 29 -29 80 -24 80 7 0 9 -6 13
-14 10 -8 -3 -21 0 -31 6 -13 10 -15 26 -13 77 3 59 5 65 26 68 29 4 29 32 -1
32 -20 0 -23 4 -19 35 4 30 1 35 -17 35 -17 0 -21 -6 -21 -35z"/>
<path d="M6626 1589 c-29 -22 -35 -49 -11 -49 8 0 24 9 35 20 24 24 34 25 54
4 24 -24 20 -44 -9 -44 -100 0 -146 -102 -60 -130 29 -10 40 -9 58 3 19 13 25
12 45 -1 17 -11 26 -12 34 -4 9 9 9 15 0 24 -7 7 -12 41 -12 80 0 60 -3 72
-25 93 -30 31 -73 32 -109 4z m94 -113 c0 -44 -37 -74 -70 -56 -24 13 -25 28
-3 52 19 22 73 25 73 4z"/>
<path d="M7125 1586 c-30 -31 -41 -87 -26 -138 10 -31 20 -43 48 -55 52 -21
123 4 123 44 0 18 -36 17 -44 -2 -7 -18 -60 -20 -74 -2 -5 6 -13 22 -16 35 -7
21 -5 22 67 22 l74 0 -7 42 c-5 24 -17 50 -30 60 -32 26 -86 23 -115 -6z m102
-36 c12 -25 12 -25 -38 -28 -28 -2 -54 -1 -56 2 -3 3 2 17 11 31 22 34 65 31
83 -5z"/>
<path d="M7380 1590 c-16 -16 -20 -17 -20 -5 0 8 -8 15 -17 15 -16 0 -18 -12
-18 -105 0 -102 1 -105 23 -105 21 0 22 4 22 74 0 79 13 106 51 106 12 0 19 7
19 20 0 13 -7 20 -20 20 -11 0 -29 -9 -40 -20z"/>
<path d="M7488 1498 c20 -57 40 -106 45 -109 19 -13 -13 -49 -43 -49 -20 0
-30 -5 -30 -15 0 -19 59 -21 84 -2 10 7 34 67 57 142 21 72 39 131 39 133 0 1
-9 2 -19 2 -19 0 -39 -49 -57 -140 -4 -16 -10 -28 -13 -25 -4 2 -18 40 -31 84
-20 71 -26 81 -46 81 l-23 0 37 -102z"/>
<path d="M703 2750 c-66 -40 -63 -10 -63 -747 0 -738 -2 -709 63 -757 28 -21
35 -21 975 -24 887 -2 949 -1 981 15 19 10 44 31 55 46 20 27 21 43 24 348 l3
319 651 0 650 0 -7 -46 -7 -46 91 48 c50 27 91 51 91 55 0 3 -21 18 -47 32
-27 15 -67 38 -91 53 l-44 26 7 -46 7 -46 -650 0 -651 0 -3 353 c-3 326 -4
354 -22 380 -41 60 12 57 -1028 57 -928 0 -954 -1 -985 -20z m1956 -26 c51
-36 51 -35 51 -728 0 -378 -4 -655 -9 -669 -6 -14 -20 -35 -32 -46 l-23 -21
-956 0 -956 0 -23 21 c-12 11 -26 32 -32 46 -14 36 -12 1311 2 1352 22 63 -29
60 1009 61 858 0 948 -2 969 -16z"/>
<path d="M1950 2275 c0 -138 1 -145 20 -145 18 0 20 7 20 73 0 77 9 97 45 97
36 0 45 -20 45 -97 0 -66 2 -73 20 -73 18 0 20 7 20 79 0 64 -4 83 -21 105
-24 30 -69 35 -93 10 -15 -14 -16 -10 -16 40 0 49 -2 56 -20 56 -19 0 -20 -7
-20 -145z"/>
<path d="M1270 2270 l0 -140 25 0 c24 0 25 3 25 54 0 48 2 54 19 49 27 -7 95
14 115 36 23 25 23 84 2 116 -15 23 -22 25 -101 25 l-85 0 0 -140z m144 94
c39 -39 3 -94 -61 -94 l-33 0 0 55 0 55 39 0 c23 0 46 -7 55 -16z"/>
<path d="M1520 2257 c0 -105 13 -127 74 -127 23 0 47 5 54 12 9 9 12 9 12 0 0
-7 7 -12 15 -12 12 0 15 18 15 106 0 95 -2 105 -17 102 -15 -3 -19 -16 -21
-78 -3 -83 -12 -100 -52 -100 -35 0 -40 13 -40 106 0 67 -2 74 -20 74 -18 0
-20 -7 -20 -83z"/>
<path d="M1772 2328 c-26 -13 -39 -54 -25 -77 5 -9 32 -23 59 -32 55 -17 73
-52 35 -64 -24 -7 -61 2 -61 16 0 5 -9 9 -20 9 -24 0 -26 -13 -4 -34 25 -26
98 -25 127 1 39 36 13 82 -58 105 -48 16 -59 44 -20 54 18 4 32 1 45 -11 10
-9 27 -15 37 -13 16 3 15 7 -9 31 -29 29 -66 34 -106 15z"/>
<path d="M1130 1800 l0 -140 80 0 c67 0 83 3 100 20 34 34 18 110 -22 110 -7
0 -2 10 10 23 24 25 28 57 12 87 -12 23 -68 40 -132 40 l-48 0 0 -140z m142
75 c16 -34 -2 -52 -57 -57 l-45 -3 0 42 0 43 45 0 c39 0 47 -4 57 -25z m-8
-108 c12 -9 17 -23 14 -42 -3 -29 -6 -30 -55 -33 l-53 -3 0 45 0 46 38 0 c21
0 46 -6 56 -13z"/>
<path d="M1777 1914 c-4 -4 -7 -20 -7 -36 0 -21 -5 -28 -20 -28 -11 0 -20 -7
-20 -15 0 -8 8 -15 18 -15 15 0 17 -10 17 -76 0 -64 3 -78 20 -90 27 -20 69
-14 73 10 3 14 0 17 -13 12 -32 -12 -45 12 -45 80 0 62 1 64 25 64 16 0 25 6
25 15 0 9 -10 15 -26 15 -22 0 -25 4 -22 32 3 29 -10 46 -25 32z"/>
<path d="M1625 1880 c-4 -16 -13 -30 -21 -30 -8 0 -14 -7 -14 -15 0 -8 7 -15
15 -15 12 0 15 -15 15 -73 0 -82 17 -112 62 -105 31 4 37 35 6 34 -22 -1 -23
3 -26 72 -3 71 -3 72 23 72 16 0 25 6 25 15 0 9 -9 15 -25 15 -21 0 -25 5 -25
30 0 19 -5 30 -14 30 -8 0 -17 -13 -21 -30z"/>
<path d="M1934 1851 c-34 -15 -54 -52 -54 -99 0 -56 14 -80 57 -98 47 -20 97
-4 119 38 21 40 14 113 -13 139 -22 23 -79 33 -109 20z m81 -43 c6 -5 10 -32
10 -59 0 -56 -23 -84 -59 -73 -31 9 -46 34 -46 76 0 64 53 96 95 56z"/>
<path d="M2172 1844 c-12 -8 -22 -10 -22 -5 0 6 -7 11 -15 11 -12 0 -15 -18
-15 -100 0 -93 1 -100 20 -100 18 0 20 7 20 73 0 83 8 100 45 100 37 0 45 -17
45 -100 0 -66 2 -73 20 -73 18 0 20 7 20 80 0 73 -3 83 -25 105 -28 29 -61 32
-93 9z"/>
<path d="M1380 1778 c0 -40 6 -84 13 -97 17 -35 59 -46 97 -28 16 9 30 11 30
6 0 -5 7 -9 15 -9 12 0 15 18 15 100 0 93 -1 100 -20 100 -18 0 -20 -7 -20
-74 0 -54 -4 -79 -16 -90 -19 -20 -24 -20 -52 0 -19 13 -22 24 -22 90 0 67 -2
74 -20 74 -18 0 -20 -7 -20 -72z"/>
</g>
</svg>
