<?xml version="1.0" standalone="no"?>
<!DOCTYPE svg PUBLIC "-//W3C//DTD SVG 20010904//EN"
 "http://www.w3.org/TR/2001/REC-SVG-20010904/DTD/svg10.dtd">
<svg version="1.0" xmlns="http://www.w3.org/2000/svg"
 width="928.000000pt" height="595.000000pt" viewBox="0 0 928.000000 595.000000"
 preserveAspectRatio="xMidYMid meet">

<g transform="translate(0.000000,595.000000) scale(0.100000,-0.100000)"
fill="#000000" stroke="none">
<path d="M100 4705 l0 -1205 265 0 265 0 0 -315 0 -315 520 0 520 0 0 -545 0
-545 -109 0 c-60 0 -116 3 -125 6 -9 3 -16 18 -16 32 0 14 -3 22 -7 18 -4 -4
-8 -17 -8 -29 0 -19 -6 -22 -42 -25 l-43 -3 0 50 0 51 -165 0 -165 0 0 -265 0
-265 165 0 165 0 0 50 0 50 205 0 205 0 0 -340 0 -340 753 0 c413 0 1141 -1
1617 -3 l865 -2 3 -47 3 -48 1015 -2 c557 0 1032 -1 1054 -1 22 0 285 1 585 1
l545 2 0 1080 0 1080 -233 0 c-160 0 -237 4 -244 11 -15 15 -43 4 -43 -16 0
-20 28 -31 43 -16 7 7 83 11 239 11 l228 0 0 -1070 0 -1070 -542 2 -543 3 -3
1068 -2 1067 203 0 c138 0 207 -4 214 -11 15 -15 43 -4 43 16 0 20 -28 31 -43
16 -7 -7 -76 -11 -214 -11 l-203 0 0 335 0 335 50 0 c47 0 50 -2 50 -25 l0
-25 240 0 240 0 0 111 c0 109 1 112 31 150 21 26 28 45 24 58 -9 30 -41 35
-71 12 -25 -20 -39 -21 -245 -21 l-219 0 0 -25 c0 -24 -2 -25 -75 -25 l-75 0
0 390 0 390 50 0 c43 0 50 -3 50 -20 0 -19 7 -20 240 -20 l240 0 0 111 c0 104
2 113 25 141 52 62 11 115 -54 69 -27 -20 -42 -21 -240 -21 -204 0 -211 -1
-211 -20 0 -21 -8 -24 -34 -14 -10 4 -16 18 -16 37 0 37 -13 28 -14 -10 l-1
-28 -97 -3 -98 -3 0 81 0 80 -835 0 -835 0 0 310 0 310 -105 0 -105 0 0 210 0
210 -2440 0 -2440 0 0 -1205z m4870 990 l0 -205 -570 0 -570 0 0 135 0 135
-1210 0 -1210 0 0 -135 0 -135 -390 0 -390 0 0 -990 0 -990 -260 0 -260 0 0
1195 0 1195 2430 0 2430 0 0 -205z m-1150 -75 l0 -130 -1200 0 -1200 0 0 130
0 130 1200 0 1200 0 0 -130z m-2410 -660 l0 -520 105 0 105 0 0 -55 0 -55 185
0 185 0 0 -100 0 -100 -550 0 -550 0 0 -310 0 -310 -125 0 -125 0 0 985 0 985
385 0 385 0 0 -520z m2410 -525 l0 -1045 185 0 185 0 0 -45 c0 -43 -1 -45 -30
-45 -23 0 -30 4 -30 20 0 14 -6 20 -22 19 -17 -1 -19 -2 -5 -6 9 -2 17 -9 17
-15 0 -5 -7 -7 -16 -4 -8 3 -12 2 -9 -4 4 -7 -95 -10 -284 -10 l-291 0 0 785
0 785 -135 0 -135 0 0 180 0 180 -235 0 -235 0 0 105 0 105 -240 0 -240 0 0
-285 0 -285 -340 0 -340 0 0 -210 0 -210 -100 0 -100 0 0 515 0 515 1200 0
1200 0 0 -1045z m1150 556 c-1 -480 -1 -489 -20 -484 -11 3 -28 2 -37 -2 -16
-6 -16 -8 6 -26 14 -11 18 -19 10 -19 -10 0 -10 -3 -3 -8 6 -4 14 -14 17 -22
4 -12 6 -11 6 3 1 27 21 20 21 -8 l0 -25 -101 0 -101 0 4 78 c2 51 -1 79 -8
79 -6 0 -9 -20 -8 -49 1 -41 -1 -48 -17 -48 -11 0 -19 -4 -19 -10 0 -5 8 -6
17 -3 12 5 15 2 10 -10 -3 -9 -2 -17 3 -17 6 0 10 -4 10 -10 0 -6 -102 -10
-285 -10 l-285 0 0 -241 0 -241 -83 4 c-52 2 -84 -1 -84 -7 0 -6 32 -9 84 -7
l83 4 0 -46 c0 -43 -2 -46 -26 -46 -17 0 -24 4 -21 13 21 57 22 57 -30 57 -35
0 -44 -3 -33 -10 8 -5 11 -10 6 -10 -5 0 -3 -7 4 -15 11 -14 7 -19 -12 -16 -5
0 -8 -4 -8 -9 0 -6 -10 -8 -23 -6 -14 2 -24 -1 -24 -7 0 -9 25 -11 84 -9 l83
4 0 -102 0 -101 -32 3 c-29 3 -34 7 -38 37 -4 31 -6 33 -19 18 -9 -11 -10 -17
-2 -17 6 0 11 -6 11 -14 0 -18 -30 -28 -62 -22 -15 2 -25 -1 -25 -7 0 -9 25
-11 84 -9 l83 4 0 -46 c0 -44 -1 -46 -27 -46 -34 0 -60 15 -44 24 20 13 12 36
-11 35 -17 -1 -19 -2 -5 -6 40 -10 -6 -57 -50 -50 -18 3 -30 0 -30 -7 0 -7 26
-10 84 -8 l83 4 0 -51 c0 -50 -1 -51 -30 -51 -26 0 -30 4 -30 28 0 15 -4 22
-8 16 -4 -6 -14 -14 -22 -17 -12 -4 -11 -6 3 -6 9 -1 17 -5 17 -11 0 -6 -55
-10 -145 -10 l-145 0 0 1040 0 1040 570 0 570 0 0 -489z m210 184 l0 -306 -97
3 -98 3 -3 303 -2 302 100 0 100 0 0 -305z m-2410 150 l0 -105 235 0 235 0 0
-175 0 -175 -465 0 -465 0 0 280 0 280 230 0 230 0 0 -105z m-470 -545 l0 -81
-30 16 c-30 15 -30 15 -29 -12 1 -17 3 -21 6 -10 5 20 8 20 34 7 10 -6 19 -17
19 -25 0 -13 -26 -15 -155 -15 l-155 0 0 -56 0 -56 -58 4 c-38 2 -59 0 -59 -7
0 -7 21 -9 59 -7 l58 4 0 -46 c0 -46 -9 -56 -39 -37 -9 6 -10 11 -2 15 20 13
12 36 -11 35 -17 -1 -19 -2 -5 -6 21 -6 21 -12 0 -35 -14 -16 -33 -18 -160
-18 l-143 0 0 205 0 205 335 0 335 0 0 -80z m940 -755 l0 -835 -675 0 -675 0
0 155 0 155 210 0 210 0 0 155 0 155 160 0 160 0 0 425 0 425 -160 0 -160 0 0
100 0 100 465 0 465 0 0 -835z m270 50 l0 -785 340 0 340 0 0 -50 0 -50 -470
0 -470 0 0 835 0 835 130 0 130 0 0 -785z m1670 606 c0 -141 -3 -181 -14 -190
-10 -8 -16 -9 -21 -1 -3 5 2 10 12 11 11 0 13 3 5 6 -7 3 -19 0 -26 -6 -11 -9
-15 -9 -19 1 -4 9 -6 10 -6 1 -1 -16 37 -36 55 -29 8 3 14 -1 14 -8 0 -9 -7
-12 -19 -9 -10 3 -22 0 -25 -5 -4 -6 3 -8 16 -4 17 4 20 2 15 -12 -4 -10 -3
-15 3 -11 6 3 10 -1 10 -9 0 -13 -16 -16 -100 -16 l-100 0 0 223 c0 123 3 227
7 230 3 4 48 7 100 7 l93 0 0 -179z m1670 104 l0 -75 -285 0 -285 0 0 -940 0
-940 -180 0 -180 0 0 25 c0 20 -5 25 -27 26 -16 1 -35 3 -43 4 -8 1 -22 3 -30
4 -11 1 -11 4 -2 13 19 19 14 38 -10 37 -17 -1 -19 -2 -5 -6 21 -6 21 -12 0
-35 -25 -28 -33 -22 -33 28 l0 46 78 -4 c48 -2 79 1 79 7 0 6 -31 9 -79 7
l-78 -4 0 52 0 52 78 -4 c55 -2 79 0 79 9 0 6 -10 9 -24 7 -18 -3 -23 0 -23
16 0 11 -6 20 -12 20 -9 0 -8 4 2 10 13 8 13 10 -2 10 -18 0 -33 -33 -23 -50
8 -12 -5 -13 -24 -1 -9 6 -10 11 -2 15 20 13 12 36 -11 35 -17 -1 -19 -2 -5
-6 21 -6 21 -12 0 -35 -25 -28 -33 -22 -33 28 l0 46 78 -4 c48 -2 79 1 79 7 0
6 -31 9 -79 7 l-78 -4 0 52 0 52 78 -4 c55 -2 79 0 79 9 0 6 -10 9 -24 7 -19
-4 -23 -1 -21 13 2 11 -2 17 -11 15 -9 -2 -11 3 -7 15 5 15 4 15 -9 -2 -14
-18 -14 -20 -1 -23 22 -5 20 -22 -1 -22 -26 0 -48 16 -34 24 20 13 12 36 -11
35 -17 -1 -19 -2 -5 -6 21 -6 21 -12 0 -35 -25 -28 -33 -22 -33 28 l0 46 78
-4 c55 -2 79 0 79 9 0 6 -9 10 -19 8 -34 -7 -49 4 -35 26 16 25 -6 51 -25 30
-11 -11 -10 -13 5 -8 21 8 22 -11 1 -34 -22 -24 -48 -14 -31 12 16 25 -6 51
-25 30 -11 -11 -10 -13 5 -8 22 8 22 -11 0 -35 -26 -29 -33 -22 -33 33 l0 51
78 -4 c53 -2 79 1 79 8 0 6 -12 10 -26 10 -20 -1 -27 5 -31 26 -4 22 -8 25
-20 18 -10 -6 -11 -10 -2 -10 16 0 16 -27 -1 -33 -19 -7 -43 8 -28 17 20 13
12 36 -11 35 -17 -1 -19 -2 -5 -6 9 -2 17 -7 17 -10 0 -10 -32 -43 -42 -43 -4
0 -8 200 -8 445 l0 445 -290 0 -290 0 0 230 0 230 830 0 830 0 0 -75z m788
-28 c2 -10 -20 -48 -50 -87 l-53 -70 -13 25 c-8 16 -25 28 -43 32 -16 3 -32
10 -35 14 -3 5 -14 9 -26 9 -16 0 -18 -3 -9 -14 9 -10 9 -20 0 -39 -7 -16 -8
-37 -4 -54 5 -15 7 -34 6 -41 -2 -11 6 -12 31 -7 60 12 68 16 83 43 8 15 26
41 40 57 l25 30 0 -97 0 -98 -230 0 -230 0 1 143 c1 89 4 129 9 107 4 -19 8
-29 9 -22 0 6 8 12 16 12 8 0 15 8 14 18 0 10 -3 12 -6 5 -5 -15 -23 -17 -23
-4 0 15 33 22 42 9 6 -10 8 -10 8 0 0 6 7 12 15 12 8 0 15 -6 15 -12 0 -9 4
-8 10 2 7 11 10 6 11 -20 0 -29 2 -31 9 -15 6 13 9 15 9 5 1 -13 3 -13 10 -1
7 11 10 10 14 -5 3 -12 5 -6 6 14 l1 32 117 0 117 0 -42 -32 c-23 -17 -40 -34
-37 -36 2 -2 34 21 72 52 69 57 105 67 111 33z m-350 -28 c-2 -6 -8 -10 -13
-10 -5 0 -11 4 -13 10 -2 6 4 11 13 11 9 0 15 -5 13 -11z m-438 -524 l0 -495
-155 0 -155 0 0 -440 0 -440 -125 0 -125 0 0 935 0 935 279 0 280 0 1 -495z
m270 445 l0 -51 -127 3 -128 3 -3 48 -3 47 130 0 131 0 0 -50z m-4500 -415 l0
-415 -310 0 -310 0 0 415 0 415 310 0 310 0 0 -415z m4882 398 c22 -20 23 -42
2 -71 -18 -26 -50 -28 -76 -5 -22 20 -23 42 -2 71 18 26 50 28 76 5z m-382
-88 c0 -37 -3 -45 -18 -45 -14 0 -17 8 -17 35 1 29 -2 35 -19 35 -17 0 -18 -2
-6 -10 8 -5 11 -10 6 -10 -5 0 -3 -7 4 -15 11 -14 7 -19 -12 -16 -5 0 -8 -3
-8 -9 0 -5 -9 -10 -20 -10 -20 0 -20 -7 -20 -395 l0 -395 -75 0 -75 0 0 433
c0 239 3 437 7 440 3 4 62 7 130 7 l123 0 0 -45z m-2152 -67 c2 -10 -2 -18 -8
-18 -7 0 -10 6 -7 14 4 9 0 12 -13 9 -10 -3 -21 0 -25 7 -5 8 2 11 21 8 18 -2
30 -10 32 -20z m-2978 -88 l0 -50 -180 0 -180 0 0 50 0 50 180 0 180 0 0 -50z
m2948 -11 c-13 -7 -18 -22 -18 -49 0 -22 -4 -40 -10 -40 -5 0 -10 12 -10 27
l0 26 -25 -23 -25 -23 0 21 c0 12 -5 22 -10 22 -6 0 -8 -11 -4 -25 4 -15 2
-25 -4 -25 -6 0 -12 19 -14 42 -2 26 -9 43 -18 46 -12 4 -13 2 -2 -9 6 -7 12
-30 12 -51 0 -27 4 -38 15 -38 9 0 15 -9 15 -25 0 -14 5 -25 11 -25 6 0 8 9 3
23 l-6 22 26 -24 26 -24 0 26 c0 17 5 27 15 27 11 0 15 11 15 43 0 37 4 46 25
55 18 9 141 12 415 12 l390 0 0 -1175 c0 -865 -3 -1181 -12 -1200 l-11 -25
-359 0 -358 0 0 -148 0 -149 -25 -11 c-18 -9 -140 -12 -410 -12 l-385 0 0
1360 0 1360 378 0 c254 -1 371 -4 360 -11z m-48 -96 c0 -36 0 -36 -20 -18 -19
17 -19 19 -4 37 23 24 24 24 24 -19z m-2900 -208 c0 -38 -3 -45 -19 -45 -14 0
-18 5 -14 20 4 13 -1 22 -13 27 -16 6 -16 7 2 14 17 7 17 8 -3 8 -16 1 -23 -5
-23 -19 0 -13 5 -18 15 -14 10 4 15 0 15 -11 0 -11 -5 -15 -16 -11 -8 3 -12 2
-9 -4 4 -7 -77 -10 -229 -10 l-236 0 0 -260 0 -260 -280 0 -280 0 0 305 0 305
545 0 545 0 0 -45z m0 -105 l0 -50 -55 0 -55 0 0 -205 0 -205 -205 0 -205 0 0
255 0 255 260 0 260 0 0 -50z m0 -110 l0 -50 155 0 c131 0 155 -2 155 -15 0
-10 -10 -15 -30 -15 -23 0 -30 -4 -30 -20 0 -15 7 -20 28 -20 20 0 23 3 12 10
-8 5 -11 12 -7 17 18 17 27 -29 27 -139 l0 -118 -205 0 -205 0 0 200 0 200 50
0 50 0 0 -50z m2149 -10 c-14 -39 -34 -39 -35 0 -1 25 3 30 22 30 21 0 22 -2
13 -30z m3531 -63 c0 -10 -39 -47 -49 -47 -6 0 -11 -7 -11 -15 0 -8 7 -15 15
-15 8 0 15 5 15 10 0 6 7 10 15 10 8 0 15 4 15 9 0 5 7 12 16 15 20 8 13 -4
-50 -82 -48 -60 -50 -62 -62 -41 -6 12 -21 27 -33 34 -22 11 -20 14 46 68 61
50 83 64 83 54z m-81 -41 c-31 -31 -95 -73 -106 -69 -39 15 -65 -65 -38 -116
14 -29 20 -32 48 -26 59 12 66 16 86 49 11 18 29 41 41 51 20 18 20 18 20 -78
l0 -97 -230 0 -230 0 0 145 0 145 207 0 c113 0 204 -2 202 -4z m-739 -96 l0
-50 80 0 80 0 0 -385 0 -385 -230 0 -230 0 0 435 0 435 150 0 150 0 0 -50z
m160 5 l0 -45 -75 0 -75 0 0 45 0 45 75 0 75 0 0 -45z m160 0 c0 -45 -5 -50
-34 -39 -12 5 -13 9 -3 25 15 25 -6 50 -25 30 -11 -10 -10 -11 5 -6 22 9 23
-12 0 -37 -10 -11 -30 -18 -55 -18 l-38 0 0 45 0 45 75 0 75 0 0 -45z m383
-13 c36 -32 12 -84 -45 -94 -15 -3 -25 -2 -23 2 3 4 -2 13 -10 20 -8 7 -15 23
-15 35 0 12 7 28 15 35 8 7 13 16 10 20 -8 13 49 -2 68 -18z m-96 -11 c-8 -22
-8 -37 1 -58 11 -26 11 -27 -3 -9 -18 23 -19 49 -5 77 16 29 20 23 7 -10z
m-287 -76 c0 -33 -4 -45 -15 -45 -13 0 -21 25 -16 53 0 4 -9 7 -21 6 -13 0
-17 -3 -10 -6 6 -2 10 -9 6 -14 -3 -5 0 -9 5 -9 26 0 8 -20 -24 -26 l-35 -6 0
-339 c0 -332 0 -339 -20 -339 -20 0 -20 7 -20 385 l0 385 75 0 75 0 0 -45z
m-6280 -215 l0 -160 285 0 285 0 0 -50 0 -50 210 0 210 0 0 -55 0 -55 680 0
680 0 0 -255 0 -255 -575 0 -575 0 0 -395 0 -395 -385 0 -385 0 0 50 0 50 180
0 180 0 0 555 0 555 -520 0 -520 0 0 310 0 310 125 0 125 0 0 -160z m570 5 l0
-155 -280 0 -280 0 0 155 0 155 280 0 280 0 0 -155z m420 0 l0 -155 -205 0
-205 0 0 155 0 155 205 0 205 0 0 -155z m0 -210 l0 -45 -205 0 -205 0 0 45 0
45 205 0 205 0 0 -45z m1360 0 l0 -45 -675 0 -675 0 0 45 0 45 675 0 675 0 0
-45z m950 0 l0 -44 -470 -1 -470 0 0 45 0 45 470 0 470 0 0 -45z m1680 -25 c0
-5 -2 -10 -4 -10 -3 0 -8 5 -11 10 -3 6 -1 10 4 10 6 0 11 -4 11 -10z m-2630
-80 l0 -50 -675 0 -675 0 0 50 0 50 675 0 675 0 0 -50z m950 0 l0 -50 -470 0
-470 0 0 50 0 50 470 0 470 0 0 -50z m0 -105 c0 -39 -3 -45 -21 -45 -15 0 -19
5 -15 15 8 21 -3 45 -20 45 -9 0 -14 -11 -14 -30 0 -22 -4 -28 -15 -24 -8 4
-15 18 -15 32 0 14 -3 22 -7 18 -4 -4 -8 -17 -8 -29 0 -17 -6 -22 -26 -21 -14
0 -26 -4 -26 -10 0 -7 28 -10 84 -8 l83 4 0 -52 0 -52 -83 4 c-52 2 -84 -1
-84 -7 0 -6 32 -9 84 -7 l83 4 0 -46 c0 -48 -1 -49 -38 -40 -22 6 -22 8 -6 25
16 17 16 19 0 25 -9 4 -20 4 -23 0 -4 -3 2 -6 12 -6 17 0 17 -1 0 -20 -25 -28
-45 -25 -45 7 0 14 -3 23 -7 19 -4 -4 -8 -17 -8 -29 0 -17 -6 -22 -26 -21 -14
0 -26 -4 -26 -10 0 -7 28 -10 84 -8 l83 4 0 -51 0 -51 -370 0 -370 0 0 -50 0
-50 -100 0 -100 0 0 255 0 255 470 0 470 0 0 -45z m-48 -27 c-9 -9 -12 -7 -12
12 0 19 3 21 12 12 9 -9 9 -15 0 -24z m1766 -53 l-5 -25 188 0 189 0 0 -810 0
-810 -650 0 -650 0 0 230 0 230 395 0 395 0 0 186 0 186 78 -4 c54 -2 79 1 79
8 0 7 -11 10 -27 8 -24 -4 -26 -2 -25 31 1 28 -2 35 -17 35 -18 0 -18 -1 -4
-16 21 -20 21 -48 0 -40 -8 3 -12 2 -9 -4 3 -6 0 -10 -8 -10 -10 0 -13 7 -10
19 3 10 0 22 -5 25 -6 4 -8 -3 -4 -16 4 -17 2 -20 -12 -15 -10 4 -15 3 -11 -3
3 -6 -1 -10 -9 -10 -14 0 -16 16 -16 101 l0 101 78 -4 c55 -2 79 0 79 9 0 6
-10 9 -25 7 -18 -4 -23 -1 -19 9 3 8 1 20 -4 28 -6 10 -9 10 -9 2 0 -7 -8 -14
-17 -14 -17 -1 -17 -2 0 -6 25 -7 21 -23 -7 -23 -19 0 -23 4 -19 19 3 10 0 22
-5 25 -6 4 -8 -3 -4 -16 4 -17 2 -20 -12 -15 -10 4 -15 3 -11 -3 3 -6 -1 -10
-9 -10 -12 0 -16 11 -16 46 l0 46 78 -4 c48 -2 79 1 79 7 0 6 -31 9 -79 7
l-78 -4 0 52 0 52 78 -4 c53 -2 79 1 79 8 0 6 -12 10 -26 10 -22 -1 -27 4 -31
33 -4 31 -6 33 -19 18 -9 -11 -10 -17 -2 -17 6 0 11 -7 11 -15 0 -8 -2 -15 -4
-15 -2 0 -11 -3 -19 -6 -12 -4 -14 0 -10 14 2 11 0 23 -5 26 -6 4 -8 -3 -4
-16 4 -17 2 -20 -12 -15 -10 4 -15 3 -11 -3 3 -6 -1 -10 -9 -10 -14 0 -16 16
-16 101 l0 101 78 -4 c55 -2 79 0 79 9 0 6 -10 9 -24 7 -18 -3 -23 0 -23 16 0
14 -6 20 -22 19 -17 -1 -19 -2 -5 -6 9 -2 17 -9 17 -15 0 -5 -7 -7 -16 -4 -8
3 -12 2 -9 -4 3 -6 1 -10 -4 -10 -6 0 -11 9 -11 20 0 11 -4 20 -10 20 -5 0 -6
-8 -3 -17 5 -12 2 -15 -10 -10 -9 3 -17 2 -17 -3 0 -6 -4 -10 -10 -10 -6 0
-10 40 -10 100 l0 100 71 0 c71 0 71 0 67 -25z m1612 -20 c0 -8 -7 -15 -15
-15 -8 0 -15 7 -15 15 0 8 7 15 15 15 8 0 15 -7 15 -15z m170 0 c0 -8 -7 -15
-15 -15 -8 0 -15 7 -15 15 0 8 7 15 15 15 8 0 15 -7 15 -15z m-1150 -920 l0
-915 -780 0 -780 0 0 100 0 100 655 0 655 0 0 815 0 815 125 0 125 0 0 -915z
m468 -152 l-3 -1068 -1011 -3 -1012 -2 -1 150 -1 150 785 0 785 0 0 920 0 920
230 0 230 0 -2 -1067z m50 0 c-3 -942 -5 -1068 -18 -1068 -13 0 -15 126 -18
1068 -2 1063 -2 1067 18 1067 20 0 20 -4 18 -1067z m-2868 752 c0 -38 -3 -45
-19 -45 -14 0 -18 5 -14 20 3 13 -1 22 -12 26 -13 5 -14 9 -3 15 10 7 9 9 -4
9 -11 0 -18 -8 -18 -20 0 -11 4 -19 9 -18 5 2 9 -1 9 -7 0 -5 -4 -9 -9 -7 -5
1 -9 -2 -9 -8 0 -5 -7 -7 -15 -4 -9 4 -15 19 -15 37 0 37 -13 28 -14 -10 l-1
-28 -307 -3 -308 -2 0 45 0 45 365 0 365 0 0 -45z m-950 -445 l0 -390 -570 0
-570 0 0 390 0 390 570 0 570 0 0 -390z m210 0 l0 -390 -100 0 -100 0 0 390 0
390 100 0 100 0 0 -390z m740 340 l0 -50 -240 0 -240 0 0 -580 0 -580 55 0 55
0 0 -105 0 -105 575 0 576 0 -3 -98 -3 -97 -855 0 -855 0 -3 438 -2 437 105 0
105 0 0 395 0 395 365 0 365 0 0 -50z m0 -105 c0 -42 -2 -45 -26 -45 -17 0
-24 4 -21 13 20 54 19 57 -10 56 -22 -1 -24 -3 -6 -6 19 -4 20 -7 11 -34 -11
-32 -10 -31 -32 -23 -10 4 -16 18 -16 37 0 37 -13 28 -14 -10 l-1 -28 -127 -3
-128 -3 0 -524 0 -525 -50 0 -50 0 0 570 0 570 235 0 235 0 0 -45z m0 -106 l0
-51 -83 4 c-52 2 -84 -1 -84 -7 0 -6 32 -9 84 -7 l83 4 0 -47 c0 -45 -1 -46
-27 -43 -22 2 -29 9 -31 32 -3 19 0 26 8 21 7 -4 9 -16 6 -28 -4 -15 -2 -17 7
-8 8 8 9 16 1 29 -15 23 -29 13 -29 -20 0 -16 -1 -28 -2 -28 -1 0 -8 3 -17 6
-12 5 -13 9 -3 25 16 25 -6 51 -25 30 -9 -10 -9 -12 -1 -7 20 11 26 -14 7 -35
-10 -11 -26 -17 -39 -15 -12 2 -22 -1 -22 -7 0 -9 25 -11 84 -9 l83 4 0 -186
0 -186 390 0 390 0 0 -26 c0 -14 -5 -35 -11 -46 -8 -15 -8 -19 0 -14 8 5 11
-47 11 -183 l0 -191 -570 0 -570 0 0 520 0 520 180 0 180 0 0 -51z m1570 -349
l0 -170 -382 0 c-265 1 -378 4 -365 11 15 9 17 27 17 154 l0 145 355 0 c307 0
356 2 361 15 4 8 8 15 10 15 2 0 4 -76 4 -170z m-4450 -225 l0 -255 -155 0
-155 0 0 255 0 255 155 0 155 0 0 -255z m780 0 l0 -45 -328 0 -328 0 1 35 c1
31 -1 35 -24 34 -24 0 -24 -1 -6 -9 11 -5 16 -9 11 -9 -5 -1 -3 -7 3 -14 13
-17 4 -28 -17 -20 -10 4 -13 2 -8 -5 5 -8 -5 -12 -33 -12 l-41 0 0 45 0 45
385 0 385 0 0 -45z m1148 -392 l-3 -438 -747 -3 -748 -2 0 340 0 340 -210 0
-210 0 0 50 0 50 390 0 390 0 0 50 0 50 570 0 570 0 -2 -437z m1732 -133 l0
-100 -570 0 -570 0 0 100 0 100 570 0 570 0 0 -100z"/>
<path d="M1950 4169 c0 -6 -7 -9 -15 -5 -8 3 -15 2 -15 -3 0 -5 9 -11 20 -14
15 -4 20 0 20 14 0 10 -2 19 -5 19 -3 0 -5 -5 -5 -11z"/>
<path d="M4108 3353 c7 -3 16 -2 19 1 4 3 -2 6 -13 5 -11 0 -14 -3 -6 -6z"/>
<path d="M4702 4493 c5 -25 25 -27 38 -4 10 19 8 21 -15 21 -19 0 -26 -5 -23
-17z m28 3 c0 -3 -4 -8 -10 -11 -5 -3 -10 -1 -10 4 0 6 5 11 10 11 6 0 10 -2
10 -4z"/>
<path d="M4702 4440 c0 -14 2 -19 5 -12 2 6 2 18 0 25 -3 6 -5 1 -5 -13z"/>
<path d="M4078 3983 c6 -2 10 -9 6 -14 -3 -5 0 -9 5 -9 18 0 12 -18 -6 -23
-14 -4 -12 -5 5 -6 19 -1 22 4 20 29 -2 23 -7 30 -23 29 -11 0 -14 -3 -7 -6z"/>
<path d="M4120 3960 c0 -19 5 -30 14 -30 17 0 28 24 20 45 -11 27 -34 17 -34
-15z m22 -12 c-9 -9 -12 -7 -12 12 0 19 3 21 12 12 9 -9 9 -15 0 -24z"/>
<path d="M1929 4603 c-10 -11 -10 -14 -1 -9 7 4 12 2 12 -8 0 -8 -6 -17 -12
-19 -7 -3 -4 -6 8 -6 17 -1 20 4 16 29 -5 35 -5 35 -23 13z"/>
<path d="M2686 4305 c-8 -23 4 -45 25 -45 10 0 19 7 19 15 0 8 -5 15 -11 15
-5 0 -7 -4 -4 -10 3 -5 2 -10 -4 -10 -20 0 -24 23 -6 37 16 11 16 13 3 13 -9
0 -18 -7 -22 -15z"/>
<path d="M2741 4290 c0 -33 1 -34 10 -11 6 16 6 28 -1 35 -7 7 -10 -1 -9 -24z"/>
<path d="M2766 4298 c-3 -13 -1 -27 4 -32 7 -7 10 1 10 22 0 37 -5 41 -14 10z"/>
<path d="M2790 4291 c0 -25 4 -31 21 -31 16 0 20 5 17 27 -2 17 -10 29 -20 31
-14 3 -18 -3 -18 -27z m30 -1 c0 -11 -4 -20 -10 -20 -5 0 -10 9 -10 20 0 11 5
20 10 20 6 0 10 -9 10 -20z"/>
<path d="M2849 4303 c-10 -11 -10 -14 -1 -9 7 4 12 2 12 -8 0 -8 -6 -17 -12
-19 -7 -3 -4 -6 8 -6 17 -1 20 4 16 29 -5 35 -5 35 -23 13z"/>
<path d="M2685 4200 c-3 -6 1 -13 9 -16 21 -8 20 -21 -1 -27 -14 -4 -12 -5 5
-6 26 -1 31 26 5 36 -15 6 -15 7 3 14 16 6 16 8 2 8 -9 1 -20 -4 -23 -9z"/>
<path d="M2739 4178 c5 -32 6 -32 9 -6 3 22 9 28 35 31 28 3 27 4 -9 5 -40 2
-41 2 -35 -30z"/>
<path d="M2828 4203 c6 -2 18 -2 25 0 6 3 1 5 -13 5 -14 0 -19 -2 -12 -5z"/>
<path d="M2878 4203 c6 -2 10 -9 6 -14 -3 -5 0 -9 5 -9 6 0 11 -5 11 -11 0 -6
-7 -9 -15 -5 -8 3 -15 1 -15 -4 0 -6 9 -10 20 -10 16 0 20 6 18 30 -2 23 -7
30 -23 29 -11 0 -14 -3 -7 -6z"/>
<path d="M2920 4195 c0 -8 7 -15 15 -15 8 0 15 -5 15 -11 0 -6 -7 -9 -15 -5
-8 3 -15 1 -15 -4 0 -6 9 -10 20 -10 26 0 28 40 3 41 -15 0 -15 2 2 9 19 8 19
9 -2 9 -14 1 -23 -5 -23 -14z"/>
<path d="M4095 3240 c-3 -11 -3 -24 0 -30 11 -18 35 -11 35 10 0 11 -6 20 -12
20 -9 0 -8 4 2 10 13 8 13 10 -2 10 -9 0 -19 -9 -23 -20z m25 -20 c0 -5 -5
-10 -11 -10 -5 0 -7 5 -4 10 3 6 8 10 11 10 2 0 4 -4 4 -10z"/>
<path d="M5112 4440 c0 -14 2 -19 5 -12 2 6 2 18 0 25 -3 6 -5 1 -5 -13z"/>
<path d="M5795 3250 c-3 -6 1 -7 9 -4 21 8 20 -5 -1 -28 -15 -17 -15 -18 8
-18 17 0 20 3 10 9 -9 6 -10 11 -2 15 16 10 14 36 -3 36 -8 0 -18 -4 -21 -10z"/>
<path d="M5849 3258 c-7 -25 -5 -36 7 -31 8 3 14 0 14 -5 0 -6 -8 -13 -17 -15
-14 -4 -12 -5 5 -6 16 -1 22 5 22 19 0 12 -7 20 -17 21 -15 0 -15 2 2 9 17 7
17 9 3 9 -10 1 -18 0 -19 -1z"/>
<path d="M6063 2990 c0 -47 2 -66 4 -42 2 23 2 61 0 85 -2 23 -4 4 -4 -43z"/>
<path d="M5795 3040 c-3 -6 1 -7 9 -4 21 8 20 -5 -1 -28 -15 -17 -15 -18 8
-18 17 0 20 3 10 9 -9 6 -10 11 -2 15 16 10 14 36 -3 36 -8 0 -18 -4 -21 -10z"/>
<path d="M5853 3043 c20 -5 20 -8 7 -34 -6 -10 -8 -19 -6 -19 3 0 12 14 21 30
15 30 15 30 -12 29 -17 -1 -21 -3 -10 -6z"/>
<path d="M5847 2933 c-12 -11 -8 -22 13 -33 18 -9 20 -8 20 15 0 24 -18 34
-33 18z m23 -13 c0 -5 -2 -10 -4 -10 -3 0 -8 5 -11 10 -3 6 -1 10 4 10 6 0 11
-4 11 -10z"/>
<path d="M7583 4745 c-42 -45 -21 -64 22 -20 14 13 25 29 25 35 0 17 -24 10
-47 -15z"/>
<path d="M7206 4713 c-11 -12 -6 -30 9 -30 8 0 15 6 15 13 0 15 -15 26 -24 17z"/>
<path d="M7392 4648 c-20 -20 -13 -108 8 -108 5 0 3 14 -3 30 -8 22 -8 38 0
60 13 34 12 35 -5 18z"/>
<path d="M7154 4606 c-8 -8 -7 -15 0 -22 8 -8 15 -7 22 0 8 8 7 15 0 22 -8 8
-15 7 -22 0z"/>
<path d="M7153 4493 c9 -2 23 -2 30 0 6 3 -1 5 -18 5 -16 0 -22 -2 -12 -5z"/>
<path d="M7063 4663 c21 -6 21 -12 0 -35 -15 -17 -15 -18 8 -18 17 0 20 3 10
9 -9 6 -10 11 -2 15 20 13 12 36 -11 35 -17 -1 -19 -2 -5 -6z"/>
<path d="M2277 4584 c-18 -19 -5 -34 29 -34 28 0 35 3 32 18 -3 17 -48 29 -61
16z m48 -14 c4 -6 -5 -10 -19 -10 -14 0 -26 5 -26 10 0 6 9 10 19 10 11 0 23
-4 26 -10z"/>
<path d="M2051 4553 c-1 -28 2 -33 22 -32 15 1 17 3 5 6 -9 2 -19 16 -21 31
-4 24 -4 24 -6 -5z"/>
<path d="M2100 4550 c0 -22 5 -30 18 -30 13 0 14 2 4 9 -14 9 -13 32 3 43 6 4
2 8 -7 8 -13 0 -18 -8 -18 -30z"/>
<path d="M2140 4550 c0 -25 4 -31 18 -28 11 2 17 12 17 28 0 16 -6 26 -17 28
-14 3 -18 -3 -18 -28z m30 0 c0 -11 -4 -20 -10 -20 -5 0 -10 9 -10 20 0 11 5
20 10 20 6 0 10 -9 10 -20z"/>
<path d="M2270 4536 c0 -9 50 -12 62 -5 8 6 -1 9 -24 9 -21 0 -38 -2 -38 -4z"/>
<path d="M2278 4509 c-8 -6 1 -9 25 -9 20 0 37 2 37 4 0 9 -50 12 -62 5z"/>
<path d="M2300 4480 c0 -5 3 -9 8 -9 19 3 26 -2 13 -10 -17 -11 -43 -3 -35 10
3 5 0 9 -5 9 -18 0 -13 -18 8 -29 22 -12 58 9 47 27 -9 15 -36 16 -36 2z"/>
<path d="M2054 4468 c-4 -6 0 -16 9 -23 22 -16 22 -29 0 -20 -14 5 -15 3 -6
-6 6 -6 16 -8 22 -5 17 11 13 36 -5 36 -8 0 -12 5 -9 10 4 6 11 7 17 4 7 -4 8
-2 4 4 -9 15 -23 15 -32 0z"/>
<path d="M2112 4468 c-16 -16 -15 -33 2 -47 10 -8 16 -9 21 -1 4 6 1 9 -7 8
-7 -2 -13 6 -13 17 0 11 6 19 13 17 8 -1 11 2 7 8 -8 13 -8 13 -23 -2z"/>
<path d="M2151 4445 c0 -36 1 -38 10 -16 5 14 15 32 22 40 10 14 10 14 -5 3
-13 -10 -17 -10 -21 0 -3 7 -5 -5 -6 -27z"/>
<path d="M2050 4356 c0 -8 8 -17 18 -21 16 -7 15 -8 -3 -15 -19 -8 -19 -9 3
-9 26 -1 30 24 5 34 -17 7 -16 8 2 15 19 8 19 9 -2 9 -13 1 -23 -5 -23 -13z"/>
<path d="M2100 4340 c0 -25 4 -31 18 -28 11 2 17 12 17 28 0 16 -6 26 -17 28
-14 3 -18 -3 -18 -28z m30 0 c0 -11 -4 -20 -10 -20 -5 0 -10 9 -10 20 0 11 5
20 10 20 6 0 10 -9 10 -20z"/>
<path d="M2163 4353 c3 -13 1 -23 -4 -23 -5 0 -9 -4 -9 -8 0 -4 9 -8 20 -8 24
0 24 3 4 36 -14 24 -15 24 -11 3z"/>
<path d="M2063 4143 c3 -13 1 -23 -4 -23 -5 0 -9 -4 -9 -8 0 -4 9 -8 20 -8 24
0 24 3 4 36 -14 24 -15 24 -11 3z"/>
<path d="M2100 4130 c0 -25 4 -31 18 -28 11 2 17 12 17 28 0 16 -6 26 -17 28
-14 3 -18 -3 -18 -28z m30 0 c0 -11 -4 -20 -10 -20 -5 0 -10 9 -10 20 0 11 5
20 10 20 6 0 10 -9 10 -20z"/>
<path d="M2051 4023 c0 -28 2 -33 8 -18 8 19 8 19 19 0 9 -17 10 -15 9 15 -1
24 -7 36 -19 38 -15 3 -18 -4 -17 -35z m29 17 c0 -5 -4 -10 -10 -10 -5 0 -10
5 -10 10 0 6 5 10 10 10 6 0 10 -4 10 -10z"/>
<path d="M2110 4025 c0 -27 4 -35 18 -35 10 0 13 3 6 8 -6 4 -11 16 -11 27 0
11 5 23 11 27 7 5 4 8 -6 8 -14 0 -18 -8 -18 -35z"/>
<path d="M2157 4053 c-13 -12 -7 -33 9 -33 8 0 12 -5 9 -10 -4 -6 -12 -7 -18
-4 -8 5 -8 3 1 -7 10 -10 14 -11 25 0 10 10 9 15 -5 25 -22 16 -23 30 -2 22 8
-3 12 -2 9 4 -7 12 -19 13 -28 3z"/>
<path d="M2200 4025 c0 -30 3 -35 23 -34 16 1 18 2 5 6 -21 5 -23 19 -5 26 10
4 10 6 0 6 -24 2 -13 21 12 21 20 0 25 -5 25 -26 0 -30 21 -54 48 -54 22 0 37
26 21 35 -5 4 -8 1 -7 -7 2 -7 -6 -13 -17 -13 -11 0 -19 6 -17 13 1 8 -2 11
-9 6 -8 -5 -10 2 -7 25 4 30 3 31 -34 31 -37 0 -38 -1 -38 -35z"/>
<path d="M2275 3950 c-10 -16 4 -30 30 -30 29 0 42 17 25 33 -9 9 -11 8 -8 -3
2 -9 -4 -15 -17 -15 -11 0 -19 6 -17 13 3 15 -4 16 -13 2z"/>
<path d="M2054 3935 c-4 -8 -4 -22 0 -30 6 -16 36 -21 36 -5 0 5 -7 7 -15 4
-21 -9 -19 23 3 35 16 10 16 10 -1 11 -10 0 -20 -7 -23 -15z"/>
<path d="M2105 3940 c-3 -6 1 -13 9 -16 21 -8 20 -21 -1 -27 -14 -4 -12 -5 5
-6 26 -1 31 26 5 36 -15 6 -15 7 3 14 16 6 16 8 2 8 -9 1 -20 -4 -23 -9z"/>
<path d="M2305 3890 c3 -5 14 -10 23 -10 15 0 15 2 2 10 -20 13 -33 13 -25 0z"/>
<path d="M7450 4595 c0 -8 7 -15 15 -15 8 0 15 7 15 15 0 8 -7 15 -15 15 -8 0
-15 -7 -15 -15z"/>
<path d="M1928 4403 c6 -2 10 -9 6 -14 -3 -5 0 -9 5 -9 18 0 12 -18 -6 -23
-14 -4 -12 -5 5 -6 19 -1 22 4 20 29 -2 23 -7 30 -23 29 -11 0 -14 -3 -7 -6z"/>
<path d="M4732 4318 c2 -13 7 -28 11 -35 4 -6 3 -14 -1 -17 -5 -3 -9 -16 -8
-28 1 -26 36 -39 36 -14 0 9 5 16 11 16 6 0 8 -7 4 -17 -5 -15 -4 -16 6 -5 11
10 11 14 0 25 -10 10 -15 9 -25 -5 -17 -24 -25 -23 -23 2 1 14 11 23 32 28
l30 8 -33 7 -32 7 20 20 c25 25 34 26 25 3 -5 -14 -3 -15 6 -6 6 6 8 16 5 22
-9 14 -36 14 -36 1 0 -5 -5 -10 -11 -10 -5 0 -7 5 -4 10 3 6 1 10 -5 10 -6 0
-9 -10 -8 -22z"/>
<path d="M4940 4326 c0 -24 22 -31 36 -12 12 16 13 16 17 -1 4 -14 5 -14 6 5
1 13 -5 22 -14 22 -8 0 -15 -4 -15 -10 0 -5 -5 -10 -11 -10 -5 0 -7 5 -4 10 3
6 1 10 -4 10 -6 0 -11 -6 -11 -14z"/>
<path d="M5152 4315 c0 -16 2 -22 5 -12 2 9 2 23 0 30 -3 6 -5 -1 -5 -18z"/>
<path d="M5170 4330 c0 -5 6 -7 14 -4 8 3 16 -2 19 -13 4 -14 5 -14 6 5 1 16
-5 22 -19 22 -11 0 -20 -4 -20 -10z"/>
<path d="M4963 4283 c15 -2 27 -8 27 -13 0 -5 -12 -11 -27 -13 -26 -4 -26 -4
5 -6 26 -1 32 3 32 19 0 16 -6 20 -32 19 -31 -2 -31 -2 -5 -6z"/>
<path d="M5180 4280 c12 -8 12 -10 1 -10 -8 0 -12 -2 -9 -5 3 -3 13 -2 22 1
14 5 15 9 4 15 -7 5 -17 9 -23 9 -5 0 -3 -5 5 -10z"/>
<path d="M5152 4235 c0 -16 2 -24 5 -17 2 6 9 10 14 6 5 -3 9 0 9 5 0 18 18
12 23 -6 3 -13 5 -11 6 6 1 20 -3 22 -23 17 -15 -4 -26 -1 -29 7 -3 6 -5 -1
-5 -18z"/>
<path d="M4947 4233 c-17 -16 -5 -33 23 -33 23 0 30 4 30 20 0 14 -7 20 -23
20 -13 0 -27 -3 -30 -7z"/>
<path d="M4750 4174 l-25 -15 25 7 c14 3 32 10 40 15 13 7 13 8 0 8 -8 0 -26
-6 -40 -15z"/>
<path d="M4965 4170 c3 -5 14 -10 23 -10 15 0 15 2 2 10 -20 13 -33 13 -25 0z"/>
<path d="M4747 4142 c-8 -15 8 -51 20 -44 19 12 20 44 1 47 -10 2 -19 0 -21
-3z"/>
<path d="M4959 4136 c-11 -12 3 -55 16 -50 16 7 26 42 14 50 -5 3 -9 -5 -10
-18 l-1 -23 -7 23 c-3 13 -9 21 -12 18z"/>
<path d="M4241 3918 c0 -24 2 -28 8 -15 4 10 11 17 16 15 5 -2 11 5 13 15 2
12 -3 17 -17 17 -17 0 -21 -6 -20 -32z"/>
<path d="M4293 3925 c1 -19 8 -31 20 -33 13 -3 17 3 16 30 l-1 33 -8 -30 c-7
-29 -8 -29 -24 15 -3 8 -4 2 -3 -15z"/>
<path d="M4351 3920 c0 -33 1 -34 10 -11 6 16 6 28 -1 35 -7 7 -10 -1 -9 -24z"/>
<path d="M4376 3928 c-3 -13 -1 -27 4 -32 7 -7 10 1 10 22 0 37 -5 41 -14 10z"/>
<path d="M4413 3933 c9 -2 25 -2 35 0 9 3 1 5 -18 5 -19 0 -27 -2 -17 -5z"/>
<path d="M4413 3913 c9 -14 47 -24 47 -12 0 5 -4 9 -9 9 -5 0 -17 3 -27 7 -11
4 -15 3 -11 -4z"/>
<path d="M4248 3843 c6 -2 10 -9 6 -14 -3 -5 0 -9 5 -9 18 0 12 -18 -6 -23
-13 -3 -11 -5 6 -6 20 -1 22 3 17 23 -4 15 -1 26 7 29 6 3 -1 5 -18 5 -16 0
-24 -2 -17 -5z"/>
<path d="M4333 3843 c9 -2 15 -9 12 -14 -4 -5 -1 -9 4 -9 19 0 12 -20 -6 -21
-10 0 -4 -5 12 -10 17 -5 48 -6 70 -2 25 4 33 8 21 11 -15 3 -16 6 -5 13 10 6
10 9 2 9 -19 0 -16 18 5 23 13 4 11 5 -5 6 -19 1 -23 -4 -23 -29 0 -25 -4 -30
-25 -30 -23 0 -32 17 -26 53 0 4 -11 6 -26 6 -18 -1 -21 -3 -10 -6z"/>
<path d="M4471 3820 c0 -33 1 -34 10 -11 6 16 6 28 -1 35 -7 7 -10 -1 -9 -24z"/>
<path d="M4496 3828 c-3 -13 -1 -27 4 -32 7 -7 10 1 10 22 0 37 -5 41 -14 10z"/>
<path d="M4553 3831 c-13 -4 -19 -10 -15 -17 11 -16 41 -24 47 -14 4 6 -4 10
-17 11 -23 1 -23 1 2 8 14 4 20 9 15 12 -6 3 -20 3 -32 0z"/>
<path d="M4310 3821 c0 -7 -4 -9 -10 -6 -6 4 -7 -1 -3 -11 6 -15 7 -15 15 1 6
9 7 19 4 22 -3 4 -6 1 -6 -6z"/>
<path d="M4247 3633 c-4 -3 -7 -17 -7 -30 0 -16 6 -23 20 -23 11 0 20 7 20 15
0 8 -5 15 -11 15 -5 0 -7 -4 -4 -10 3 -5 1 -10 -4 -10 -18 0 -12 38 7 43 14 4
14 5 1 6 -9 0 -19 -2 -22 -6z"/>
<path d="M4291 3608 c0 -18 3 -27 6 -20 2 6 11 12 19 12 8 0 14 9 14 20 0 13
-7 20 -20 20 -16 0 -20 -6 -19 -32z m29 12 c0 -5 -4 -10 -10 -10 -5 0 -10 5
-10 10 0 6 5 10 10 10 6 0 10 -4 10 -10z"/>
<path d="M4342 3610 c0 -19 2 -27 5 -17 2 9 2 25 0 35 -3 9 -5 1 -5 -18z"/>
<path d="M4370 3611 c0 -25 4 -31 21 -31 16 0 20 5 17 27 -2 17 -10 29 -20 31
-14 3 -18 -3 -18 -27z m30 -1 c0 -11 -4 -20 -10 -20 -5 0 -10 9 -10 20 0 11 5
20 10 20 6 0 10 -9 10 -20z"/>
<path d="M4424 3626 c-9 -22 2 -46 21 -46 12 0 15 8 13 27 -3 30 -25 42 -34
19z m22 -33 c-11 -11 -19 6 -11 24 8 17 8 17 12 0 3 -10 2 -21 -1 -24z"/>
<path d="M4497 3622 c-22 -3 -25 -6 -15 -16 19 -18 47 -26 53 -16 4 6 -4 10
-17 11 -23 1 -23 1 2 8 31 9 15 18 -23 13z"/>
<path d="M4242 3503 c3 -30 38 -47 38 -19 0 9 -5 16 -11 16 -5 0 -7 -4 -4 -10
3 -5 1 -10 -4 -10 -18 0 -12 38 7 43 12 3 11 5 -6 6 -20 1 -23 -3 -20 -26z"/>
<path d="M4291 3498 c1 -18 3 -25 6 -15 2 9 11 17 19 17 8 0 14 7 14 15 0 8
-9 15 -20 15 -16 0 -20 -6 -19 -32z"/>
<path d="M4342 3500 c0 -19 2 -27 5 -17 2 9 2 25 0 35 -3 9 -5 1 -5 -18z"/>
<path d="M4370 3499 c0 -24 4 -30 18 -27 10 2 18 14 20 31 3 22 -1 27 -17 27
-17 0 -21 -6 -21 -31z m30 1 c0 -11 -4 -20 -10 -20 -5 0 -10 9 -10 20 0 11 5
20 10 20 6 0 10 -9 10 -20z"/>
<path d="M4425 3520 c-3 -5 -1 -10 4 -10 15 0 14 -27 -1 -33 -7 -3 -4 -6 8 -6
17 -1 20 4 16 29 -4 30 -16 39 -27 20z"/>
<path d="M5444 3515 c-9 -21 3 -45 21 -45 8 0 15 7 15 15 0 8 -5 15 -11 15 -5
0 -7 -4 -4 -10 3 -5 1 -10 -4 -10 -18 0 -12 38 7 43 16 4 16 5 -1 6 -10 0 -20
-6 -23 -14z"/>
<path d="M5491 3498 c1 -18 3 -25 6 -15 2 9 11 17 19 17 8 0 14 7 14 15 0 8
-9 15 -20 15 -16 0 -20 -6 -19 -32z"/>
<path d="M5552 3500 c0 -19 2 -27 5 -17 2 9 2 25 0 35 -3 9 -5 1 -5 -18z"/>
<path d="M5572 3503 c2 -17 10 -29 21 -31 13 -3 17 3 17 27 0 25 -4 31 -21 31
-16 0 -20 -5 -17 -27z m28 -3 c0 -11 -4 -20 -10 -20 -5 0 -10 9 -10 20 0 11 5
20 10 20 6 0 10 -9 10 -20z"/>
<path d="M5625 3520 c-3 -5 -1 -10 4 -10 15 0 14 -27 -1 -33 -7 -3 -4 -6 8 -6
17 -1 20 4 16 29 -4 30 -16 39 -27 20z"/>
<path d="M5675 3510 c-3 -11 -3 -24 0 -30 11 -18 35 -11 35 10 0 11 -6 20 -12
20 -9 0 -8 4 2 10 13 8 13 10 -2 10 -9 0 -19 -9 -23 -20z m25 -20 c0 -5 -4
-10 -10 -10 -5 0 -10 5 -10 10 0 6 5 10 10 10 6 0 10 -4 10 -10z"/>
<path d="M4478 3513 c6 -2 12 -11 12 -19 0 -8 10 -14 23 -14 16 0 23 6 23 20
0 16 -7 20 -36 19 -19 0 -29 -3 -22 -6z m42 -13 c0 -5 -4 -10 -10 -10 -5 0
-10 5 -10 10 0 6 5 10 10 10 6 0 10 -4 10 -10z"/>
<path d="M5380 3500 c6 -11 19 -20 28 -20 11 0 18 8 18 20 0 15 -7 20 -28 20
-26 0 -28 -2 -18 -20z m30 0 c0 -5 -4 -10 -10 -10 -5 0 -10 5 -10 10 0 6 5 10
10 10 6 0 10 -4 10 -10z"/>
<path d="M4247 3423 c-4 -3 -7 -17 -7 -30 0 -16 6 -23 20 -23 11 0 20 7 20 15
0 8 -5 15 -11 15 -5 0 -7 -4 -4 -10 3 -5 1 -10 -4 -10 -18 0 -12 38 7 43 14 4
14 5 1 6 -9 0 -19 -2 -22 -6z"/>
<path d="M4291 3398 c0 -18 3 -27 6 -20 2 6 11 12 19 12 8 0 14 9 14 20 0 13
-7 20 -20 20 -16 0 -20 -6 -19 -32z m29 12 c0 -5 -4 -10 -10 -10 -5 0 -10 5
-10 10 0 6 5 10 10 10 6 0 10 -4 10 -10z"/>
<path d="M4342 3400 c0 -19 2 -27 5 -17 2 9 2 25 0 35 -3 9 -5 1 -5 -18z"/>
<path d="M4370 3401 c0 -25 4 -31 21 -31 16 0 20 5 17 27 -2 17 -10 29 -20 31
-14 3 -18 -3 -18 -27z m30 -1 c0 -11 -4 -20 -10 -20 -5 0 -10 9 -10 20 0 11 5
20 10 20 6 0 10 -9 10 -20z"/>
<path d="M4433 3423 c21 -6 21 -12 0 -35 -15 -17 -15 -18 8 -18 17 0 20 3 10
9 -9 6 -10 11 -2 15 20 13 12 36 -11 35 -17 -1 -19 -2 -5 -6z"/>
<path d="M5444 3415 c-9 -21 3 -45 21 -45 8 0 15 7 15 15 0 8 -5 15 -11 15 -5
0 -7 -4 -4 -10 3 -5 1 -10 -4 -10 -18 0 -13 28 7 39 16 10 16 10 -1 11 -10 0
-20 -7 -23 -15z"/>
<path d="M5491 3398 c0 -18 3 -27 6 -20 2 6 11 12 19 12 8 0 14 9 14 20 0 13
-7 20 -20 20 -16 0 -20 -6 -19 -32z m29 12 c0 -5 -4 -10 -10 -10 -5 0 -10 5
-10 10 0 6 5 10 10 10 6 0 10 -4 10 -10z"/>
<path d="M5552 3400 c0 -19 2 -27 5 -17 2 9 2 25 0 35 -3 9 -5 1 -5 -18z"/>
<path d="M5577 3423 c-4 -3 -7 -17 -7 -30 0 -16 6 -23 20 -23 16 0 20 7 20 30
0 28 -17 40 -33 23z m23 -23 c0 -11 -4 -20 -10 -20 -5 0 -10 9 -10 20 0 11 5
20 10 20 6 0 10 -9 10 -20z"/>
<path d="M5629 3413 c-10 -11 -10 -14 -1 -9 7 4 12 2 12 -8 0 -8 -6 -17 -12
-19 -7 -3 -4 -6 8 -6 17 -1 20 4 16 29 -5 35 -5 35 -23 13z"/>
<path d="M5670 3426 c0 -9 40 -13 46 -5 3 5 -6 9 -20 9 -14 0 -26 -2 -26 -4z"/>
<path d="M4497 3412 c-22 -3 -25 -6 -15 -16 19 -18 47 -26 53 -16 4 6 -4 10
-17 11 -23 1 -23 1 2 8 31 9 15 18 -23 13z"/>
<path d="M5393 3411 c-13 -4 -19 -10 -15 -17 11 -16 41 -24 47 -14 4 6 -4 10
-17 11 -23 1 -23 1 2 8 14 4 20 9 15 12 -6 3 -20 3 -32 0z"/>
<path d="M4242 3293 c3 -30 38 -47 38 -19 0 9 -5 16 -11 16 -5 0 -7 -4 -4 -10
3 -5 1 -10 -4 -10 -18 0 -12 38 7 43 12 3 11 5 -6 6 -20 1 -23 -3 -20 -26z"/>
<path d="M4291 3288 c1 -18 3 -25 6 -15 2 9 11 17 19 17 8 0 14 7 14 15 0 8
-9 15 -20 15 -16 0 -20 -6 -19 -32z"/>
<path d="M4342 3290 c0 -19 2 -27 5 -17 2 9 2 25 0 35 -3 9 -5 1 -5 -18z"/>
<path d="M4370 3289 c0 -24 4 -30 18 -27 10 2 18 14 20 31 3 22 -1 27 -17 27
-17 0 -21 -6 -21 -31z m30 1 c0 -11 -4 -20 -10 -20 -5 0 -10 9 -10 20 0 11 5
20 10 20 6 0 10 -9 10 -20z"/>
<path d="M4428 3313 c6 -2 10 -9 6 -14 -3 -5 0 -9 5 -9 6 0 11 -5 11 -11 0 -6
-7 -9 -15 -5 -8 3 -15 1 -15 -4 0 -6 9 -10 20 -10 16 0 20 6 18 30 -2 23 -7
30 -23 29 -11 0 -14 -3 -7 -6z"/>
<path d="M4495 3309 c-16 -4 -24 -7 -17 -8 6 0 12 -8 12 -16 0 -9 9 -15 23
-15 17 0 23 5 22 20 -2 26 -5 27 -40 19z m25 -19 c0 -5 -4 -10 -10 -10 -5 0
-10 5 -10 10 0 6 5 10 10 10 6 0 10 -4 10 -10z"/>
<path d="M5393 3312 c-19 -3 -21 -7 -13 -23 14 -26 47 -25 45 1 -2 25 -5 27
-32 22z m17 -22 c0 -5 -4 -10 -10 -10 -5 0 -10 5 -10 10 0 6 5 10 10 10 6 0
10 -4 10 -10z"/>
<path d="M5444 3305 c-9 -21 3 -45 21 -45 8 0 15 7 15 15 0 8 -5 15 -11 15 -5
0 -7 -5 -3 -12 4 -7 3 -8 -4 -4 -18 11 -14 34 6 39 16 4 16 5 -1 6 -10 0 -20
-6 -23 -14z"/>
<path d="M5491 3288 c1 -18 3 -25 6 -15 2 9 11 17 19 17 8 0 14 7 14 15 0 8
-9 15 -20 15 -16 0 -20 -6 -19 -32z"/>
<path d="M5552 3290 c0 -19 2 -27 5 -17 2 9 2 25 0 35 -3 9 -5 1 -5 -18z"/>
<path d="M5572 3293 c2 -17 10 -29 21 -31 13 -3 17 3 17 27 0 25 -4 31 -21 31
-16 0 -20 -5 -17 -27z m28 -3 c0 -11 -4 -20 -10 -20 -5 0 -10 9 -10 20 0 11 5
20 10 20 6 0 10 -9 10 -20z"/>
<path d="M5630 3310 c-10 -6 -11 -10 -2 -10 6 0 12 -6 12 -14 0 -8 -6 -17 -12
-19 -7 -3 -4 -6 8 -6 17 -1 20 4 16 29 -2 17 -5 30 -6 30 0 0 -8 -5 -16 -10z"/>
<path d="M5677 3313 c-9 -19 0 -48 16 -51 13 -3 17 3 17 27 0 20 -5 31 -14 31
-8 0 -17 -3 -19 -7z m23 -33 c0 -5 -2 -10 -4 -10 -3 0 -8 5 -11 10 -3 6 -1 10
4 10 6 0 11 -4 11 -10z"/>
<path d="M4247 3213 c-4 -3 -7 -17 -7 -30 0 -16 6 -23 20 -23 11 0 20 7 20 15
0 8 -5 15 -11 15 -5 0 -7 -4 -4 -10 3 -5 1 -10 -4 -10 -18 0 -12 38 7 43 14 4
14 5 1 6 -9 0 -19 -2 -22 -6z"/>
<path d="M4291 3188 c0 -18 3 -27 6 -20 2 6 11 12 19 12 8 0 14 9 14 20 0 13
-7 20 -20 20 -16 0 -20 -6 -19 -32z m29 12 c0 -5 -4 -10 -10 -10 -5 0 -10 5
-10 10 0 6 5 10 10 10 6 0 10 -4 10 -10z"/>
<path d="M4342 3190 c0 -19 2 -27 5 -17 2 9 2 25 0 35 -3 9 -5 1 -5 -18z"/>
<path d="M4370 3191 c0 -25 4 -31 21 -31 16 0 20 5 17 27 -2 17 -10 29 -20 31
-14 3 -18 -3 -18 -27z m30 -1 c0 -11 -4 -20 -10 -20 -5 0 -10 9 -10 20 0 11 5
20 10 20 6 0 10 -9 10 -20z"/>
<path d="M5444 3205 c-9 -21 3 -45 21 -45 8 0 15 7 15 15 0 8 -5 15 -11 15 -5
0 -7 -4 -4 -10 3 -5 1 -10 -4 -10 -18 0 -13 28 7 39 16 10 16 10 -1 11 -10 0
-20 -7 -23 -15z"/>
<path d="M5491 3188 c0 -18 3 -27 6 -20 2 6 11 12 19 12 8 0 14 9 14 20 0 13
-7 20 -20 20 -16 0 -20 -6 -19 -32z m29 12 c0 -5 -4 -10 -10 -10 -5 0 -10 5
-10 10 0 6 5 10 10 10 6 0 10 -4 10 -10z"/>
<path d="M5552 3190 c0 -19 2 -27 5 -17 2 9 2 25 0 35 -3 9 -5 1 -5 -18z"/>
<path d="M5577 3213 c-4 -3 -7 -17 -7 -30 0 -16 6 -23 20 -23 16 0 20 7 20 30
0 28 -17 40 -33 23z m23 -23 c0 -11 -4 -20 -10 -20 -5 0 -10 9 -10 20 0 11 5
20 10 20 6 0 10 -9 10 -20z"/>
<path d="M5629 3203 c-10 -11 -10 -14 -1 -9 7 4 12 2 12 -8 0 -8 -6 -17 -12
-19 -7 -3 -4 -6 8 -6 17 -1 20 4 16 29 -5 35 -5 35 -23 13z"/>
<path d="M5674 3208 c-4 -6 1 -17 10 -24 13 -9 14 -13 4 -17 -8 -4 -7 -6 5 -6
12 -1 17 7 17 29 0 31 -22 42 -36 18z m26 -8 c0 -5 -5 -10 -11 -10 -5 0 -7 5
-4 10 3 6 8 10 11 10 2 0 4 -4 4 -10z"/>
<path d="M4497 3202 c-22 -3 -25 -6 -15 -16 19 -18 47 -26 53 -16 4 6 -4 10
-17 11 -23 1 -23 1 2 8 31 9 15 18 -23 13z"/>
<path d="M5393 3201 c-13 -4 -19 -10 -15 -17 11 -16 41 -24 47 -14 4 6 -4 10
-17 11 -23 1 -23 1 2 8 14 4 20 9 15 12 -6 3 -20 3 -32 0z"/>
<path d="M4450 3189 c0 -6 -7 -9 -15 -5 -8 3 -15 2 -15 -3 0 -5 9 -11 20 -14
15 -4 20 0 20 14 0 10 -2 19 -5 19 -3 0 -5 -5 -5 -11z"/>
<path d="M4253 3113 c-18 -6 -16 -50 1 -56 8 -3 17 -3 20 0 10 10 7 33 -4 33
-5 0 -7 -8 -3 -17 5 -14 3 -16 -7 -6 -15 14 -5 47 11 37 8 -4 9 -3 5 4 -4 7
-8 12 -9 11 -1 0 -8 -3 -14 -6z"/>
<path d="M4291 3083 c1 -21 3 -30 6 -20 2 9 11 17 19 17 21 0 13 34 -9 38 -14
3 -17 -4 -16 -35z m29 17 c0 -5 -4 -10 -10 -10 -5 0 -10 5 -10 10 0 6 5 10 10
10 6 0 10 -4 10 -10z"/>
<path d="M4343 3085 c0 -22 2 -30 4 -17 2 12 2 30 0 40 -3 9 -5 -1 -4 -23z"/>
<path d="M4374 3106 c-9 -23 0 -51 16 -51 10 0 15 10 15 29 0 32 -21 47 -31
22z m26 -15 c0 -11 -4 -23 -10 -26 -6 -4 -10 5 -10 19 0 14 5 26 10 26 6 0 10
-9 10 -19z"/>
<path d="M4420 3100 c0 -13 5 -18 15 -14 10 4 15 0 15 -11 0 -12 -5 -15 -17
-10 -14 5 -15 3 -6 -6 6 -6 16 -8 22 -5 17 11 13 36 -6 43 -15 6 -15 7 3 14
17 7 17 8 -3 8 -16 1 -23 -5 -23 -19z"/>
<path d="M5449 3104 c-8 -10 -10 -21 -3 -31 13 -21 28 -21 32 0 2 9 -1 17 -7
17 -6 0 -8 -8 -4 -17 5 -14 3 -16 -7 -6 -15 14 -5 47 11 37 8 -4 9 -3 5 4 -9
15 -11 15 -27 -4z"/>
<path d="M5491 3083 c1 -21 3 -30 6 -20 2 9 11 17 19 17 21 0 13 34 -9 38 -14
3 -17 -4 -16 -35z m29 17 c0 -5 -4 -10 -10 -10 -5 0 -10 5 -10 10 0 6 5 10 10
10 6 0 10 -4 10 -10z"/>
<path d="M5553 3085 c0 -22 2 -30 4 -17 2 12 2 30 0 40 -3 9 -5 -1 -4 -23z"/>
<path d="M5574 3106 c-9 -23 0 -51 16 -51 10 0 15 10 15 29 0 32 -21 47 -31
22z m26 -23 c0 -20 -3 -24 -11 -16 -7 7 -9 19 -6 27 10 24 17 19 17 -11z"/>
<path d="M5624 3108 c-5 -8 -2 -9 9 -5 22 8 22 -11 0 -35 -15 -17 -15 -18 8
-17 13 0 18 3 11 6 -10 4 -10 8 -1 19 12 15 6 44 -10 44 -5 0 -13 -5 -17 -12z"/>
<path d="M5680 3105 c-9 -11 -11 -22 -4 -32 14 -23 29 -20 32 6 5 32 -11 46
-28 26z m20 -22 c0 -20 -3 -24 -11 -16 -7 7 -9 19 -6 27 10 24 17 19 17 -11z"/>
<path d="M4498 3102 c-25 -3 -26 -4 -10 -23 22 -25 49 -25 47 1 -2 25 -4 26
-37 22z m22 -22 c0 -5 -4 -10 -10 -10 -5 0 -10 5 -10 10 0 6 5 10 10 10 6 0
10 -4 10 -10z"/>
<path d="M5393 3102 c-19 -3 -21 -7 -13 -23 14 -26 47 -25 45 1 -2 25 -5 27
-32 22z m17 -22 c0 -5 -2 -10 -4 -10 -3 0 -8 5 -11 10 -3 6 -1 10 4 10 6 0 11
-4 11 -10z"/>
<path d="M4244 2995 c-9 -21 3 -45 21 -45 8 0 15 7 15 15 0 8 -5 15 -11 15 -5
0 -7 -4 -4 -10 3 -5 1 -10 -4 -10 -18 0 -12 38 7 43 16 4 16 5 -1 6 -10 0 -20
-6 -23 -14z"/>
<path d="M4290 2980 c0 -29 1 -29 20 -13 11 10 20 23 20 30 0 7 -9 13 -20 13
-16 0 -20 -7 -20 -30z m30 10 c0 -5 -4 -10 -10 -10 -5 0 -10 5 -10 10 0 6 5
10 10 10 6 0 10 -4 10 -10z"/>
<path d="M4342 2980 c0 -19 2 -27 5 -17 2 9 2 25 0 35 -3 9 -5 1 -5 -18z"/>
<path d="M4370 2980 c0 -25 4 -31 18 -28 11 2 17 12 17 28 0 16 -6 26 -17 28
-14 3 -18 -3 -18 -28z m30 0 c0 -11 -4 -20 -10 -20 -5 0 -10 9 -10 20 0 11 5
20 10 20 6 0 10 -9 10 -20z"/>
<path d="M4427 3003 c-4 -3 -7 -17 -7 -30 0 -16 6 -23 20 -23 26 0 28 40 3 41
-15 0 -15 2 2 9 15 6 16 9 4 9 -9 1 -19 -2 -22 -6z m23 -33 c0 -5 -4 -10 -10
-10 -5 0 -10 5 -10 10 0 6 5 10 10 10 6 0 10 -4 10 -10z"/>
<path d="M5444 2995 c-9 -21 3 -45 21 -45 8 0 15 7 15 15 0 8 -5 15 -11 15 -5
0 -7 -4 -4 -10 3 -5 1 -10 -4 -10 -18 0 -12 38 7 43 16 4 16 5 -1 6 -10 0 -20
-6 -23 -14z"/>
<path d="M5490 2980 c0 -29 1 -29 20 -13 11 10 20 23 20 30 0 7 -9 13 -20 13
-16 0 -20 -7 -20 -30z m30 10 c0 -5 -4 -10 -10 -10 -5 0 -10 5 -10 10 0 6 5
10 10 10 6 0 10 -4 10 -10z"/>
<path d="M5552 2980 c0 -19 2 -27 5 -17 2 9 2 25 0 35 -3 9 -5 1 -5 -18z"/>
<path d="M5574 2995 c-9 -21 3 -45 21 -45 10 0 15 10 15 30 0 32 -26 43 -36
15z m26 -15 c0 -11 -4 -20 -10 -20 -5 0 -10 9 -10 20 0 11 5 20 10 20 6 0 10
-9 10 -20z"/>
<path d="M5633 3003 c21 -6 21 -12 0 -35 -15 -17 -15 -18 8 -18 17 0 20 3 10
9 -9 6 -10 11 -2 15 20 13 12 36 -11 35 -17 -1 -19 -2 -5 -6z"/>
<path d="M5680 3000 c-10 -6 -11 -10 -2 -10 6 0 12 -6 12 -14 0 -8 -6 -17 -12
-19 -7 -3 -4 -6 8 -6 17 -1 20 4 16 29 -2 17 -5 30 -6 30 0 0 -8 -5 -16 -10z"/>
<path d="M4493 2993 c15 -2 27 -9 27 -15 0 -5 -7 -8 -15 -4 -8 3 -15 1 -15 -4
0 -6 7 -10 15 -10 8 0 18 -1 22 -2 3 -2 7 7 8 20 1 19 -3 22 -34 21 -30 -2
-32 -3 -8 -6z"/>
<path d="M5388 2993 c12 -2 22 -9 22 -15 0 -5 -7 -8 -15 -4 -8 3 -15 1 -15 -4
0 -9 21 -13 37 -7 4 1 8 10 8 20 1 13 -6 17 -29 16 -24 -1 -26 -3 -8 -6z"/>
<path d="M4253 2903 c-18 -6 -16 -50 1 -56 8 -3 17 -3 20 0 10 10 7 33 -4 33
-5 0 -7 -8 -3 -17 5 -14 3 -16 -7 -6 -15 14 -5 47 11 37 8 -4 9 -3 5 4 -4 7
-8 12 -9 11 -1 0 -8 -3 -14 -6z"/>
<path d="M4291 2873 c1 -21 3 -30 6 -20 2 9 11 17 19 17 21 0 13 34 -9 38 -14
3 -17 -4 -16 -35z m29 17 c0 -5 -4 -10 -10 -10 -5 0 -10 5 -10 10 0 6 5 10 10
10 6 0 10 -4 10 -10z"/>
<path d="M4343 2875 c0 -22 2 -30 4 -17 2 12 2 30 0 40 -3 9 -5 -1 -4 -23z"/>
<path d="M4374 2896 c-9 -23 0 -51 16 -51 10 0 15 10 15 29 0 32 -21 47 -31
22z m26 -27 c0 -10 -4 -19 -10 -19 -5 0 -10 12 -10 26 0 14 4 23 10 19 6 -3
10 -15 10 -26z"/>
<path d="M4432 2903 c14 -3 15 -9 8 -29 -6 -14 -10 -28 -10 -32 1 -10 17 20
24 46 6 19 4 22 -16 21 -16 -1 -18 -3 -6 -6z"/>
<path d="M5449 2894 c-8 -10 -10 -21 -3 -31 13 -21 28 -21 32 0 2 9 -1 17 -7
17 -6 0 -8 -8 -4 -17 5 -14 3 -16 -7 -6 -15 14 -5 47 11 37 8 -4 9 -3 5 4 -9
15 -11 15 -27 -4z"/>
<path d="M5491 2873 c1 -21 3 -30 6 -20 2 9 11 17 19 17 21 0 13 34 -9 38 -14
3 -17 -4 -16 -35z m29 17 c0 -5 -4 -10 -10 -10 -5 0 -10 5 -10 10 0 6 5 10 10
10 6 0 10 -4 10 -10z"/>
<path d="M5553 2875 c0 -22 2 -30 4 -17 2 12 2 30 0 40 -3 9 -5 -1 -4 -23z"/>
<path d="M5574 2896 c-9 -23 0 -51 16 -51 10 0 15 10 15 29 0 32 -21 47 -31
22z m26 -23 c0 -20 -3 -24 -11 -16 -7 7 -9 19 -6 27 10 24 17 19 17 -11z"/>
<path d="M5630 2899 c0 -5 5 -7 10 -4 16 10 11 -17 -7 -37 -15 -17 -15 -18 8
-17 13 0 18 3 11 6 -10 4 -10 8 -1 19 6 7 9 21 5 29 -6 17 -26 20 -26 4z"/>
<path d="M5675 2900 c-3 -6 1 -7 9 -4 21 8 20 -14 -1 -38 -15 -17 -15 -18 8
-17 13 0 18 3 11 6 -10 4 -10 8 -1 19 12 15 6 44 -10 44 -5 0 -13 -4 -16 -10z"/>
<path d="M4498 2892 c-25 -3 -26 -4 -10 -23 22 -25 49 -25 47 1 -2 25 -4 26
-37 22z m22 -22 c0 -5 -2 -10 -4 -10 -3 0 -8 5 -11 10 -3 6 -1 10 4 10 6 0 11
-4 11 -10z"/>
<path d="M5393 2892 c-19 -3 -21 -7 -13 -23 14 -26 47 -25 45 1 -2 25 -5 27
-32 22z m17 -22 c0 -5 -2 -10 -4 -10 -3 0 -8 5 -11 10 -3 6 -1 10 4 10 6 0 11
-4 11 -10z"/>
<path d="M4244 2785 c-9 -21 3 -45 21 -45 8 0 15 7 15 15 0 8 -5 15 -11 15 -5
0 -7 -4 -4 -10 3 -5 1 -10 -4 -10 -18 0 -12 38 7 43 16 4 16 5 -1 6 -10 0 -20
-6 -23 -14z"/>
<path d="M4290 2770 c0 -29 1 -29 20 -13 11 10 20 23 20 30 0 7 -9 13 -20 13
-16 0 -20 -7 -20 -30z m30 10 c0 -5 -4 -10 -10 -10 -5 0 -10 5 -10 10 0 6 5
10 10 10 6 0 10 -4 10 -10z"/>
<path d="M4342 2770 c0 -19 2 -27 5 -17 2 9 2 25 0 35 -3 9 -5 1 -5 -18z"/>
<path d="M4370 2770 c0 -25 4 -31 18 -28 11 2 17 12 17 28 0 16 -6 26 -17 28
-14 3 -18 -3 -18 -28z m30 0 c0 -11 -4 -20 -10 -20 -5 0 -10 9 -10 20 0 11 5
20 10 20 6 0 10 -9 10 -20z"/>
<path d="M4420 2770 c0 -23 4 -30 20 -30 16 0 20 7 20 30 0 23 -4 30 -20 30
-16 0 -20 -7 -20 -30z m30 -10 c0 -5 -4 -10 -10 -10 -5 0 -10 5 -10 10 0 6 5
10 10 10 6 0 10 -4 10 -10z"/>
<path d="M4493 2783 c15 -2 27 -9 27 -15 0 -5 -7 -8 -15 -4 -8 3 -15 1 -15 -4
0 -6 7 -10 15 -10 8 0 18 -1 22 -2 3 -2 7 7 8 20 1 19 -3 22 -34 21 -30 -2
-32 -3 -8 -6z"/>
<path d="M4253 2693 c-18 -6 -16 -50 1 -56 8 -3 17 -3 20 0 10 10 7 33 -4 33
-5 0 -7 -8 -3 -17 5 -14 3 -16 -7 -6 -15 14 -5 47 11 37 8 -4 9 -3 5 4 -4 7
-8 12 -9 11 -1 0 -8 -3 -14 -6z"/>
<path d="M4291 2663 c1 -21 3 -30 6 -20 2 9 11 17 19 17 21 0 13 34 -9 38 -14
3 -17 -4 -16 -35z m29 17 c0 -5 -4 -10 -10 -10 -5 0 -10 5 -10 10 0 6 5 10 10
10 6 0 10 -4 10 -10z"/>
<path d="M4343 2665 c0 -22 2 -30 4 -17 2 12 2 30 0 40 -3 9 -5 -1 -4 -23z"/>
<path d="M4374 2686 c-9 -23 0 -51 16 -51 10 0 15 10 15 29 0 32 -21 47 -31
22z m26 -15 c0 -11 -4 -23 -10 -26 -6 -4 -10 5 -10 19 0 14 5 26 10 26 6 0 10
-9 10 -19z"/>
<path d="M4424 2685 c-4 -8 -1 -21 5 -29 6 -7 8 -16 4 -19 -3 -4 -1 -7 5 -7
14 0 27 44 17 59 -9 16 -25 13 -31 -4z m26 -10 c0 -8 -4 -15 -10 -15 -5 0 -10
7 -10 15 0 8 5 15 10 15 6 0 10 -7 10 -15z"/>
<path d="M5352 2668 c-6 -17 -9 -34 -7 -37 3 -2 5 1 5 7 0 7 7 12 15 12 16 0
17 5 7 33 -6 14 -10 12 -20 -15z"/>
<path d="M5390 2682 c0 -11 -3 -28 -6 -37 -5 -13 -2 -16 17 -13 19 2 24 9 24
33 0 20 -5 31 -17 33 -12 2 -18 -3 -18 -16z m30 -17 c0 -8 -4 -17 -10 -20 -6
-4 -10 5 -10 20 0 15 4 24 10 20 6 -3 10 -12 10 -20z"/>
<path d="M5451 2682 c-15 -27 4 -48 45 -50 44 -3 43 4 -1 9 -16 2 -33 8 -37
13 -9 13 2 37 15 29 6 -3 7 -1 3 5 -10 16 -14 15 -25 -6z"/>
<path d="M5536 2680 c3 -14 10 -32 15 -40 7 -13 8 -13 8 0 0 8 -6 26 -15 40
l-15 25 7 -25z"/>
<path d="M5581 2663 c1 -21 3 -30 6 -20 2 9 11 17 19 17 21 0 13 34 -9 38 -14
3 -17 -4 -16 -35z m29 17 c0 -5 -4 -10 -10 -10 -5 0 -10 5 -10 10 0 6 5 10 10
10 6 0 10 -4 10 -10z"/>
<path d="M5630 2665 c0 -30 3 -35 23 -34 16 1 18 2 5 6 -21 5 -23 19 -5 26 10
4 10 6 0 6 -19 1 -16 19 5 24 13 4 11 5 -5 6 -20 1 -23 -4 -23 -34z"/>
<path d="M5681 2663 c0 -21 3 -31 6 -23 3 8 11 18 17 22 8 5 7 8 -1 8 -19 0
-16 18 5 23 13 4 11 5 -5 6 -20 1 -23 -4 -22 -36z"/>
<path d="M4498 2682 c-25 -3 -26 -4 -10 -23 22 -25 49 -25 47 1 -2 25 -4 26
-37 22z m22 -22 c0 -5 -2 -10 -4 -10 -3 0 -8 5 -11 10 -3 6 -1 10 4 10 6 0 11
-4 11 -10z"/>
<path d="M4244 2575 c-9 -21 3 -45 21 -45 8 0 15 7 15 15 0 8 -5 15 -11 15 -5
0 -7 -4 -4 -10 3 -5 1 -10 -4 -10 -18 0 -12 38 7 43 16 4 16 5 -1 6 -10 0 -20
-6 -23 -14z"/>
<path d="M4290 2560 c0 -29 1 -29 20 -13 11 10 20 23 20 30 0 7 -9 13 -20 13
-16 0 -20 -7 -20 -30z m30 10 c0 -5 -4 -10 -10 -10 -5 0 -10 5 -10 10 0 6 5
10 10 10 6 0 10 -4 10 -10z"/>
<path d="M4342 2560 c0 -19 2 -27 5 -17 2 9 2 25 0 35 -3 9 -5 1 -5 -18z"/>
<path d="M4370 2560 c0 -25 4 -31 18 -28 11 2 17 12 17 28 0 16 -6 26 -17 28
-14 3 -18 -3 -18 -28z m30 0 c0 -11 -4 -20 -10 -20 -5 0 -10 9 -10 20 0 11 5
20 10 20 6 0 10 -9 10 -20z"/>
<path d="M4430 2580 c-10 -6 -11 -10 -2 -10 6 0 12 -6 12 -14 0 -8 -6 -17 -12
-19 -7 -3 -4 -6 8 -6 17 -1 20 4 16 29 -2 17 -5 30 -6 30 0 0 -8 -5 -16 -10z"/>
<path d="M4474 2575 c-9 -21 3 -45 21 -45 10 0 15 10 15 30 0 32 -26 43 -36
15z m26 -15 c0 -11 -4 -20 -10 -20 -5 0 -10 9 -10 20 0 11 5 20 10 20 6 0 10
-9 10 -20z"/>
<path d="M4543 2573 c15 -2 27 -9 27 -15 0 -5 -7 -8 -15 -4 -8 3 -15 1 -15 -4
0 -6 7 -10 15 -10 8 0 18 -1 22 -2 3 -2 7 7 8 20 1 19 -3 22 -34 21 -30 -2
-32 -3 -8 -6z"/>
<path d="M4253 2483 c-18 -6 -16 -50 1 -56 8 -3 17 -3 20 0 10 10 7 33 -4 33
-5 0 -7 -8 -3 -17 5 -14 3 -16 -7 -6 -15 14 -5 47 11 37 8 -4 9 -3 5 4 -4 7
-8 12 -9 11 -1 0 -8 -3 -14 -6z"/>
<path d="M4291 2453 c1 -21 3 -30 6 -20 2 9 11 17 19 17 21 0 13 34 -9 38 -14
3 -17 -4 -16 -35z m29 17 c0 -5 -4 -10 -10 -10 -5 0 -10 5 -10 10 0 6 5 10 10
10 6 0 10 -4 10 -10z"/>
<path d="M4343 2455 c0 -22 2 -30 4 -17 2 12 2 30 0 40 -3 9 -5 -1 -4 -23z"/>
<path d="M4374 2476 c-9 -23 0 -51 16 -51 10 0 15 10 15 29 0 32 -21 47 -31
22z m26 -27 c0 -10 -4 -19 -10 -19 -5 0 -10 12 -10 26 0 14 4 23 10 19 6 -3
10 -15 10 -26z"/>
<path d="M4430 2475 c-9 -10 -9 -15 -1 -15 15 0 14 -27 -1 -33 -7 -3 -4 -6 7
-6 18 -1 20 4 17 34 -5 40 -5 40 -22 20z"/>
<path d="M4480 2475 c-9 -10 -9 -15 -1 -15 15 0 14 -27 -1 -33 -7 -3 -4 -6 7
-6 18 -1 20 4 17 34 -5 40 -5 40 -22 20z"/>
<path d="M5209 2474 c-8 -10 -10 -21 -3 -31 13 -21 28 -21 32 0 2 9 -1 17 -7
17 -6 0 -8 -8 -4 -17 5 -14 3 -16 -7 -6 -14 13 -6 48 10 38 5 -3 10 -1 10 4 0
16 -16 13 -31 -5z"/>
<path d="M5261 2453 c0 -21 3 -31 6 -23 4 8 13 20 21 26 17 12 8 34 -14 34
-10 0 -14 -11 -13 -37z m24 17 c3 -5 1 -10 -4 -10 -6 0 -11 5 -11 10 0 6 2 10
4 10 3 0 8 -4 11 -10z"/>
<path d="M5313 2455 c0 -22 2 -30 4 -17 2 12 2 30 0 40 -3 9 -5 -1 -4 -23z"/>
<path d="M5337 2484 c-11 -11 -8 -52 4 -60 6 -3 18 1 27 10 13 12 14 21 6 33
-12 20 -27 26 -37 17z m30 -38 c-4 -9 -11 -16 -17 -16 -11 0 -14 33 -3 44 11
10 26 -11 20 -28z"/>
<path d="M5390 2480 c0 -5 3 -9 8 -9 22 4 23 -4 2 -26 l-23 -25 29 1 c18 1 22
3 11 6 -17 4 -17 6 -2 23 9 10 14 24 10 29 -8 14 -35 14 -35 1z"/>
<path d="M5444 2476 c-13 -33 0 -51 40 -54 24 -2 42 2 47 10 7 11 11 10 19 -2
8 -13 10 -12 10 3 0 9 -4 17 -9 17 -5 0 -7 10 -5 23 3 15 0 13 -13 -10 -28
-55 -74 -41 -64 20 2 13 -20 7 -25 -7z m13 -38 c-3 -8 -6 -5 -6 6 -1 11 2 17
5 13 3 -3 4 -12 1 -19z"/>
<path d="M5570 2455 c0 -38 0 -38 24 -29 31 12 14 64 -20 64 -2 0 -4 -16 -4
-35z m30 0 c0 -8 -4 -17 -10 -20 -6 -4 -10 5 -10 20 0 15 4 24 10 20 6 -3 10
-12 10 -20z"/>
<path d="M5632 2478 c-16 -16 -15 -33 2 -47 10 -8 16 -9 21 -1 4 6 1 9 -7 8
-7 -2 -13 6 -13 17 0 11 6 19 13 17 8 -1 11 2 7 8 -8 13 -8 13 -23 -2z"/>
<path d="M5680 2475 c-9 -11 -11 -22 -4 -32 14 -23 29 -20 32 6 5 32 -11 46
-28 26z m20 -22 c0 -20 -3 -24 -11 -16 -7 7 -9 19 -6 27 10 24 17 19 17 -11z"/>
<path d="M4547 2472 c-22 -3 -25 -6 -15 -16 19 -18 47 -26 53 -16 4 6 -4 10
-17 11 -23 1 -23 1 2 8 31 9 15 18 -23 13z"/>
<path d="M5153 2471 c-13 -4 -19 -10 -15 -17 11 -16 41 -24 47 -14 4 6 -4 10
-17 11 -23 1 -23 1 2 8 14 4 20 9 15 12 -6 3 -20 3 -32 0z"/>
<path d="M4244 2365 c-9 -21 3 -45 21 -45 8 0 15 7 15 15 0 8 -5 15 -11 15 -5
0 -7 -4 -4 -10 3 -5 1 -10 -4 -10 -18 0 -12 38 7 43 16 4 16 5 -1 6 -10 0 -20
-6 -23 -14z"/>
<path d="M4291 2348 c1 -18 3 -25 6 -15 2 9 11 17 19 17 8 0 14 7 14 15 0 8
-9 15 -20 15 -16 0 -20 -6 -19 -32z"/>
<path d="M4342 2350 c0 -19 2 -27 5 -17 2 9 2 25 0 35 -3 9 -5 1 -5 -18z"/>
<path d="M4370 2350 c0 -25 4 -31 18 -28 11 2 17 12 17 28 0 16 -6 26 -17 28
-14 3 -18 -3 -18 -28z m30 0 c0 -11 -4 -20 -10 -20 -5 0 -10 9 -10 20 0 11 5
20 10 20 6 0 10 -9 10 -20z"/>
<path d="M4430 2370 c-10 -6 -11 -10 -2 -10 6 0 12 -6 12 -14 0 -8 -6 -17 -12
-19 -7 -3 -4 -6 8 -6 17 -1 20 4 16 29 -2 17 -5 30 -6 30 0 0 -8 -5 -16 -10z"/>
<path d="M4483 2373 c21 -6 21 -12 0 -35 -15 -17 -15 -18 8 -18 17 0 20 3 10
9 -9 6 -10 11 -2 15 20 13 12 36 -11 35 -17 -1 -19 -2 -5 -6z"/>
<path d="M5204 2365 c-9 -21 3 -45 21 -45 8 0 15 7 15 15 0 8 -5 15 -11 15 -5
0 -7 -4 -4 -10 3 -5 1 -10 -4 -10 -18 0 -12 38 7 43 16 4 16 5 -1 6 -10 0 -20
-6 -23 -14z"/>
<path d="M5261 2348 c0 -18 3 -26 6 -18 3 8 12 19 20 23 16 10 8 27 -13 27 -9
0 -14 -11 -13 -32z"/>
<path d="M5312 2350 c0 -19 2 -27 5 -17 2 9 2 25 0 35 -3 9 -5 1 -5 -18z"/>
<path d="M5334 2365 c-8 -21 3 -45 20 -45 16 0 31 34 21 50 -9 15 -35 12 -41
-5z m34 -12 c-5 -25 -28 -28 -28 -4 0 12 6 21 16 21 9 0 14 -7 12 -17z"/>
<path d="M5403 2372 c17 -4 17 -6 -4 -28 l-22 -24 29 1 c22 0 25 2 11 8 -18 6
-18 7 0 23 10 9 29 18 43 21 14 2 3 4 -25 4 -27 -1 -42 -2 -32 -5z"/>
<path d="M5532 2360 c-10 -16 -10 -20 2 -20 8 0 17 -6 19 -12 4 -9 5 -8 6 2 0
8 -4 23 -7 32 -7 17 -8 16 -20 -2z"/>
<path d="M5570 2350 c0 -25 4 -31 18 -28 11 2 17 12 17 28 0 16 -6 26 -17 28
-14 3 -18 -3 -18 -28z m30 0 c0 -11 -4 -20 -10 -20 -5 0 -10 9 -10 20 0 11 5
20 10 20 6 0 10 -9 10 -20z"/>
<path d="M5624 2365 c-4 -8 -4 -22 0 -30 6 -17 36 -21 36 -4 0 5 -4 8 -9 4
-19 -11 -24 18 -6 32 17 12 17 13 2 13 -10 0 -20 -7 -23 -15z"/>
<path d="M5680 2370 c-10 -6 -11 -10 -2 -10 6 0 12 -6 12 -14 0 -8 -6 -17 -12
-19 -7 -3 -4 -6 8 -6 17 -1 20 4 16 29 -2 17 -5 30 -6 30 0 0 -8 -5 -16 -10z"/>
<path d="M4543 2363 c15 -2 27 -9 27 -15 0 -5 -7 -8 -15 -4 -8 3 -15 1 -15 -4
0 -6 7 -10 15 -10 8 0 18 -1 22 -2 3 -2 7 7 8 20 1 19 -3 22 -34 21 -30 -2
-32 -3 -8 -6z"/>
<path d="M5148 2363 c12 -2 22 -9 22 -15 0 -5 -7 -8 -15 -4 -8 3 -15 1 -15 -4
0 -9 21 -13 37 -7 4 1 8 10 8 20 1 13 -6 17 -29 16 -24 -1 -26 -3 -8 -6z"/>
<path d="M5483 2323 c9 -2 25 -2 35 0 9 3 1 5 -18 5 -19 0 -27 -2 -17 -5z"/>
<path d="M4247 2273 c-4 -3 -7 -17 -7 -30 0 -16 6 -23 20 -23 11 0 20 7 20 15
0 8 -5 15 -11 15 -5 0 -7 -4 -4 -10 3 -5 1 -10 -4 -10 -18 0 -12 38 7 43 14 4
14 5 1 6 -9 0 -19 -2 -22 -6z"/>
<path d="M4291 2248 c0 -18 3 -27 6 -20 2 6 11 12 19 12 8 0 14 9 14 20 0 13
-7 20 -20 20 -16 0 -20 -6 -19 -32z m29 12 c0 -5 -4 -10 -10 -10 -5 0 -10 5
-10 10 0 6 5 10 10 10 6 0 10 -4 10 -10z"/>
<path d="M4342 2250 c0 -19 2 -27 5 -17 2 9 2 25 0 35 -3 9 -5 1 -5 -18z"/>
<path d="M4370 2251 c0 -25 4 -31 21 -31 16 0 20 5 17 27 -2 17 -10 29 -20 31
-14 3 -18 -3 -18 -27z m30 -1 c0 -11 -4 -20 -10 -20 -5 0 -10 9 -10 20 0 11 5
20 10 20 6 0 10 -9 10 -20z"/>
<path d="M4429 2263 c-10 -11 -10 -14 -1 -9 7 4 12 2 12 -8 0 -8 -6 -17 -12
-19 -7 -3 -4 -6 8 -6 17 -1 20 4 16 29 -5 35 -5 35 -23 13z"/>
<path d="M4478 2273 c6 -2 10 -9 6 -14 -3 -5 0 -9 5 -9 18 0 12 -18 -6 -23
-14 -4 -12 -5 5 -6 19 -1 22 4 20 29 -2 23 -7 30 -23 29 -11 0 -14 -3 -7 -6z"/>
<path d="M5204 2265 c-9 -21 3 -45 21 -45 8 0 15 7 15 15 0 8 -5 15 -11 15 -5
0 -7 -4 -4 -10 3 -5 1 -10 -4 -10 -18 0 -13 28 7 39 16 10 16 10 -1 11 -10 0
-20 -7 -23 -15z"/>
<path d="M5260 2250 l0 -31 21 20 c22 20 19 41 -7 41 -9 0 -14 -11 -14 -30z
m30 16 c0 -3 -4 -8 -10 -11 -5 -3 -10 -1 -10 4 0 6 5 11 10 11 6 0 10 -2 10
-4z"/>
<path d="M5312 2250 c0 -19 2 -27 5 -17 2 9 2 25 0 35 -3 9 -5 1 -5 -18z"/>
<path d="M5337 2273 c-4 -3 -7 -16 -7 -29 0 -20 5 -22 53 -22 33 0 45 3 32 7
-18 7 -18 8 -1 18 11 6 16 15 12 22 -9 14 -36 15 -36 0 0 -5 5 -7 10 -4 15 9
12 -11 -4 -24 -11 -10 -15 -8 -19 6 -4 17 -5 17 -6 1 0 -10 -8 -18 -16 -18
-21 0 -19 38 3 43 14 4 14 5 1 6 -9 0 -19 -2 -22 -6z"/>
<path d="M5440 2250 c0 -25 4 -30 35 -36 22 -4 41 -2 50 6 8 6 19 9 25 5 5 -3
10 -1 10 4 0 6 -5 11 -11 11 -6 0 -8 10 -5 23 4 13 -1 9 -11 -10 -23 -45 -63
-47 -63 -3 0 20 -5 30 -15 30 -10 0 -15 -10 -15 -30z"/>
<path d="M5570 2251 c0 -25 4 -31 21 -31 16 0 20 5 17 27 -2 17 -10 29 -20 31
-14 3 -18 -3 -18 -27z m30 -1 c0 -11 -4 -20 -10 -20 -5 0 -10 9 -10 20 0 11 5
20 10 20 6 0 10 -9 10 -20z"/>
<path d="M5624 2265 c-9 -23 3 -45 23 -44 17 1 17 2 0 6 -20 5 -19 40 1 36 7
-2 12 2 12 7 0 16 -30 12 -36 -5z"/>
<path d="M5675 2270 c-3 -6 1 -7 9 -4 21 8 20 -5 -1 -28 -15 -17 -15 -18 8
-18 17 0 20 3 10 9 -9 6 -10 11 -2 15 16 10 14 36 -3 36 -8 0 -18 -4 -21 -10z"/>
<path d="M4547 2262 c-22 -3 -25 -6 -15 -16 19 -18 47 -26 53 -16 4 6 -4 10
-17 11 -23 1 -23 1 2 8 31 9 15 18 -23 13z"/>
<path d="M5153 2261 c-13 -4 -19 -10 -15 -17 11 -16 41 -24 47 -14 4 6 -4 10
-17 11 -23 1 -23 1 2 8 14 4 20 9 15 12 -6 3 -20 3 -32 0z"/>
<path d="M4242 2143 c3 -30 38 -47 38 -19 0 9 -5 16 -11 16 -5 0 -7 -4 -4 -10
3 -5 1 -10 -4 -10 -18 0 -12 38 7 43 12 3 11 5 -6 6 -20 1 -23 -3 -20 -26z"/>
<path d="M4291 2138 c1 -18 3 -25 6 -15 2 9 11 17 19 17 8 0 14 7 14 15 0 8
-9 15 -20 15 -16 0 -20 -6 -19 -32z"/>
<path d="M4342 2140 c0 -19 2 -27 5 -17 2 9 2 25 0 35 -3 9 -5 1 -5 -18z"/>
<path d="M4370 2139 c0 -24 4 -30 18 -27 10 2 18 14 20 31 3 22 -1 27 -17 27
-17 0 -21 -6 -21 -31z m30 1 c0 -11 -4 -20 -10 -20 -5 0 -10 9 -10 20 0 11 5
20 10 20 6 0 10 -9 10 -20z"/>
<path d="M4430 2160 c-10 -6 -11 -10 -2 -10 6 0 12 -6 12 -14 0 -8 -6 -17 -12
-19 -7 -3 -4 -6 8 -6 17 -1 20 4 16 29 -2 17 -5 30 -6 30 0 0 -8 -5 -16 -10z"/>
<path d="M4500 2149 c0 -6 -7 -9 -15 -5 -8 3 -15 1 -15 -4 0 -6 6 -10 14 -10
8 0 17 -6 19 -12 3 -7 6 -1 6 15 1 15 -1 27 -4 27 -3 0 -5 -5 -5 -11z"/>
<path d="M4543 2153 c15 -2 27 -9 27 -15 0 -5 -7 -8 -15 -4 -8 3 -15 1 -15 -4
0 -6 10 -10 23 -10 16 0 23 6 23 20 0 17 -6 20 -36 19 -30 -2 -31 -3 -7 -6z"/>
<path d="M4247 2063 c-4 -3 -7 -17 -7 -30 0 -16 6 -23 20 -23 11 0 20 7 20 15
0 8 -5 15 -11 15 -5 0 -7 -4 -4 -10 3 -5 1 -10 -4 -10 -18 0 -12 38 7 43 14 4
14 5 1 6 -9 0 -19 -2 -22 -6z"/>
<path d="M4291 2038 c0 -18 3 -27 6 -20 2 6 11 12 19 12 8 0 14 9 14 20 0 13
-7 20 -20 20 -16 0 -20 -6 -19 -32z m29 12 c0 -5 -4 -10 -10 -10 -5 0 -10 5
-10 10 0 6 5 10 10 10 6 0 10 -4 10 -10z"/>
<path d="M4342 2040 c0 -19 2 -27 5 -17 2 9 2 25 0 35 -3 9 -5 1 -5 -18z"/>
<path d="M4370 2041 c0 -25 4 -31 21 -31 16 0 20 5 17 27 -2 17 -10 29 -20 31
-14 3 -18 -3 -18 -27z m30 -1 c0 -11 -4 -20 -10 -20 -5 0 -10 9 -10 20 0 11 5
20 10 20 6 0 10 -9 10 -20z"/>
<path d="M4429 2053 c-10 -11 -10 -14 -1 -9 7 4 12 2 12 -8 0 -8 -6 -17 -12
-19 -7 -3 -4 -6 8 -6 17 -1 20 4 16 29 -5 35 -5 35 -23 13z"/>
<path d="M4470 2050 c0 -13 5 -18 15 -14 8 4 15 1 15 -4 0 -6 -8 -13 -17 -15
-14 -4 -12 -5 5 -6 16 -1 22 5 22 19 0 12 -7 20 -17 21 -15 0 -15 2 2 9 19 8
19 9 -2 9 -16 1 -23 -5 -23 -19z"/>
<path d="M5524 2047 c-4 -20 -10 -23 -32 -19 l-27 6 25 6 c14 3 20 8 15 11 -6
3 -20 3 -32 0 -37 -10 -11 -33 40 -35 33 -1 43 2 40 11 -3 7 -10 10 -15 7 -6
-4 -8 2 -3 15 3 11 4 21 1 21 -3 0 -8 -11 -12 -23z"/>
<path d="M5566 2055 c-8 -23 4 -45 25 -45 10 0 19 7 19 15 0 8 -5 15 -11 15
-5 0 -7 -4 -4 -10 3 -5 2 -10 -4 -10 -20 0 -24 23 -6 37 16 11 16 13 3 13 -9
0 -18 -7 -22 -15z"/>
<path d="M5621 2040 c0 -33 1 -34 10 -11 6 16 6 28 -1 35 -7 7 -10 -1 -9 -24z"/>
<path d="M5646 2048 c-3 -13 -1 -27 4 -32 7 -7 10 1 10 22 0 37 -5 41 -14 10z"/>
<path d="M5670 2041 c0 -25 4 -31 21 -31 16 0 20 5 17 27 -2 17 -10 29 -20 31
-14 3 -18 -3 -18 -27z m30 -1 c0 -11 -4 -20 -10 -20 -5 0 -10 9 -10 20 0 11 5
20 10 20 6 0 10 -9 10 -20z"/>
<path d="M4547 2052 c-22 -3 -25 -6 -15 -16 19 -18 47 -26 53 -16 4 6 -4 10
-17 11 -23 1 -23 1 2 8 31 9 15 18 -23 13z"/>
<path d="M4959 1936 c-11 -12 3 -55 16 -50 16 7 26 42 14 50 -5 3 -9 -5 -10
-18 l-1 -23 -7 23 c-3 13 -9 21 -12 18z"/>
<path d="M4952 1858 c-19 -19 -14 -28 18 -28 32 0 42 23 14 34 -20 8 -18 8
-32 -6z m33 -8 c3 -6 -4 -10 -17 -10 -18 0 -20 2 -8 10 19 12 18 12 25 0z"/>
<path d="M4940 1806 c0 -9 39 -13 51 -5 10 6 4 9 -18 9 -18 0 -33 -2 -33 -4z"/>
<path d="M4945 1780 c-4 -6 7 -10 27 -9 27 0 30 2 13 9 -27 12 -33 12 -40 0z"/>
<path d="M4945 1750 c-10 -16 4 -30 31 -30 17 0 24 5 24 20 0 11 -7 20 -15 20
-8 0 -15 -5 -15 -11 0 -5 5 -7 10 -4 6 3 10 1 10 -4 0 -6 -9 -11 -21 -11 -15
0 -19 5 -15 15 6 17 0 20 -9 5z"/>
<path d="M1927 3983 c-4 -3 -7 -17 -7 -30 0 -16 6 -23 20 -23 26 0 28 40 3 41
-15 0 -15 2 2 9 15 6 16 9 4 9 -9 1 -19 -2 -22 -6z m23 -33 c0 -5 -4 -10 -10
-10 -5 0 -10 5 -10 10 0 6 5 10 10 10 6 0 10 -4 10 -10z"/>
<path d="M7191 3708 c1 -18 3 -25 6 -15 2 9 11 17 19 17 8 0 14 7 14 15 0 8
-9 15 -20 15 -16 0 -20 -6 -19 -32z"/>
<path d="M7311 3710 c0 -31 1 -33 11 -15 11 19 11 19 19 0 6 -16 8 -13 8 14 1
28 -1 31 -13 22 -11 -9 -15 -9 -19 1 -3 7 -6 -3 -6 -22z"/>
<path d="M7257 3716 c-10 -26 -8 -43 3 -26 9 13 10 13 10 0 0 -13 1 -13 10 0
12 19 13 33 1 26 -5 -4 -11 -1 -13 6 -3 7 -7 5 -11 -6z"/>
<path d="M7204 3616 c-8 -8 -7 -15 0 -22 8 -8 15 -7 22 0 8 8 7 15 0 22 -8 8
-15 7 -22 0z"/>
<path d="M7203 3493 c9 -2 23 -2 30 0 6 3 -1 5 -18 5 -16 0 -22 -2 -12 -5z"/>
<path d="M7500 3605 c0 -8 7 -15 15 -15 8 0 15 7 15 15 0 8 -7 15 -15 15 -8 0
-15 -7 -15 -15z"/>
<path d="M1413 1733 c18 -4 17 -6 -4 -29 l-22 -24 29 1 c23 0 25 2 11 8 -17 6
-17 8 -3 20 19 16 12 31 -12 30 -14 -1 -14 -2 1 -6z"/>
<path d="M4098 3143 c6 -2 18 -2 25 0 6 3 1 5 -13 5 -14 0 -19 -2 -12 -5z"/>
<path d="M4094 3038 c-4 -6 1 -17 10 -24 11 -7 13 -14 6 -17 -6 -3 -5 -4 2 -3
19 4 23 56 4 56 -8 0 -18 -5 -22 -12z m26 -8 c0 -5 -5 -10 -11 -10 -5 0 -7 5
-4 10 3 6 8 10 11 10 2 0 4 -4 4 -10z"/>
<path d="M4080 2840 c-1 -3 -3 -17 -4 -32 -2 -22 2 -28 19 -28 12 0 16 3 9 8
-7 4 -14 18 -17 32 -2 14 -5 23 -7 20z"/>
<path d="M4130 2840 c-1 -3 -3 -17 -4 -32 -2 -22 2 -28 19 -28 12 0 16 3 9 8
-7 4 -14 18 -17 32 -2 14 -5 23 -7 20z"/>
<path d="M4080 2630 c-1 -3 -3 -17 -4 -32 -2 -22 2 -28 19 -28 12 0 16 3 9 8
-7 4 -14 18 -17 32 -2 14 -5 23 -7 20z"/>
<path d="M4136 2611 c4 -16 3 -21 -5 -17 -6 4 -11 3 -11 -2 0 -12 28 -24 34
-14 2 4 -2 18 -10 32 l-15 25 7 -24z"/>
<path d="M5798 2723 c6 -2 18 -2 25 0 6 3 1 5 -13 5 -14 0 -19 -2 -12 -5z"/>
<path d="M5858 2723 c7 -3 16 -2 19 1 4 3 -2 6 -13 5 -11 0 -14 -3 -6 -6z"/>
<path d="M5798 2523 c6 -2 18 -2 25 0 6 3 1 5 -13 5 -14 0 -19 -2 -12 -5z"/>
<path d="M5798 2413 c6 -2 18 -2 25 0 6 3 1 5 -13 5 -14 0 -19 -2 -12 -5z"/>
<path d="M5853 2413 c21 -6 21 -12 0 -35 -15 -17 -15 -18 8 -18 17 0 20 3 10
9 -9 6 -10 11 -2 15 20 13 12 36 -11 35 -17 -1 -19 -2 -5 -6z"/>
<path d="M5816 2386 c3 -8 -2 -16 -13 -19 -14 -4 -14 -5 5 -6 16 -1 22 5 22
19 0 11 -4 20 -10 20 -5 0 -7 -6 -4 -14z"/>
<path d="M5798 2313 c6 -2 18 -2 25 0 6 3 1 5 -13 5 -14 0 -19 -2 -12 -5z"/>
<path d="M5798 2103 c6 -2 18 -2 25 0 6 3 1 5 -13 5 -14 0 -19 -2 -12 -5z"/>
<path d="M5082 1575 c-15 -33 -16 -31 8 -31 11 0 20 4 20 8 0 4 -4 8 -9 8 -5
0 -7 9 -4 20 7 28 -2 25 -15 -5z"/>
<path d="M5131 1595 c-10 -43 -7 -55 13 -55 13 0 16 3 10 8 -7 4 -14 18 -17
32 -2 14 -5 21 -6 15z"/>
<path d="M5081 1458 c0 -28 2 -30 9 -13 5 11 9 16 9 10 1 -5 5 -3 10 5 12 17
5 30 -15 30 -9 0 -14 -11 -13 -32z"/>
<path d="M5270 1461 c0 -21 5 -31 15 -31 8 0 15 8 15 19 0 10 -7 24 -15 31
-13 11 -15 8 -15 -19z m17 -13 c-3 -8 -6 -5 -6 6 -1 11 2 17 5 13 3 -3 4 -12
1 -19z"/>
<path d="M5461 1458 c1 -18 3 -25 6 -15 2 9 11 17 19 17 8 0 14 7 14 15 0 8
-9 15 -20 15 -16 0 -20 -6 -19 -32z"/>
<path d="M5510 1460 c0 -16 2 -30 4 -30 2 0 6 14 8 30 3 17 1 30 -4 30 -4 0
-8 -13 -8 -30z"/>
<path d="M5580 1466 c0 -19 -6 -26 -27 -29 -26 -4 -26 -4 5 -6 22 -1 32 3 32
14 0 8 7 15 15 15 8 0 15 7 15 15 0 8 -9 15 -20 15 -15 0 -20 -7 -20 -24z"/>
<path d="M5632 1460 c0 -19 2 -27 5 -17 2 9 2 25 0 35 -3 9 -5 1 -5 -18z"/>
<path d="M5830 1481 c0 -7 -4 -9 -10 -6 -5 3 -10 1 -10 -5 0 -6 -4 -8 -10 -5
-13 8 -13 -5 0 -25 9 -13 10 -13 10 0 0 12 2 12 9 2 6 -10 10 -6 14 15 3 15 3
30 1 32 -2 2 -4 -1 -4 -8z"/>
<path d="M5130 1456 c0 -17 5 -26 16 -26 10 0 14 7 12 22 -5 32 -28 35 -28 4z"/>
<path d="M5175 1471 c-3 -6 3 -14 12 -20 17 -10 17 -10 -1 -11 -11 0 -17 -3
-13 -6 13 -14 35 5 30 25 -6 22 -18 27 -28 12z"/>
<path d="M5220 1445 c0 -33 1 -35 16 -21 17 18 16 47 -3 54 -9 2 -13 -8 -13
-33z m17 3 c-3 -8 -6 -5 -6 6 -1 11 2 17 5 13 3 -3 4 -12 1 -19z"/>
<path d="M5317 1474 c-14 -14 -7 -44 11 -44 14 0 15 2 2 10 -13 8 -12 10 3 10
10 0 17 5 15 12 -5 14 -22 21 -31 12z"/>
<path d="M5360 1455 c0 -14 2 -25 4 -25 2 0 6 11 8 25 3 14 1 25 -3 25 -5 0
-9 -11 -9 -25z"/>
<path d="M5391 1453 c0 -27 0 -28 10 -5 12 31 32 17 24 -17 -4 -16 -3 -22 3
-16 5 6 12 24 16 40 5 22 4 26 -4 15 -6 -10 -10 -11 -10 -2 0 6 -9 12 -20 12
-15 0 -20 -6 -19 -27z"/>
<path d="M5654 1465 c-8 -19 3 -35 24 -35 15 1 15 2 -1 11 -9 6 -15 15 -12 20
4 5 11 6 17 3 7 -4 8 -2 4 4 -10 16 -26 15 -32 -3z"/>
<path d="M5707 1473 c-4 -3 -7 -14 -7 -23 0 -14 9 -17 48 -17 26 0 35 2 21 4
-16 3 -29 12 -32 24 -5 19 -18 25 -30 12z m18 -12 c3 -5 1 -12 -5 -16 -5 -3
-10 1 -10 9 0 18 6 21 15 7z"/>
<path d="M4081 2420 c-2 -3 -4 -17 -5 -32 -1 -22 3 -28 19 -28 12 0 16 3 9 8
-7 4 -14 18 -17 32 -2 14 -5 23 -6 20z"/>
<path d="M4120 2390 c0 -19 5 -30 14 -30 23 0 31 22 12 36 -13 9 -14 13 -4 17
8 4 7 6 -4 6 -13 1 -18 -7 -18 -29z m30 -10 c0 -5 -4 -10 -10 -10 -5 0 -10 5
-10 10 0 6 5 10 10 10 6 0 10 -4 10 -10z"/>
<path d="M4081 2210 c-2 -3 -4 -17 -5 -32 -1 -22 3 -28 19 -28 12 0 16 3 9 8
-7 4 -14 18 -17 32 -2 14 -5 23 -6 20z"/>
<path d="M4120 2190 c0 -11 6 -20 13 -20 8 0 7 -4 -3 -10 -13 -8 -13 -10 2
-10 18 0 33 33 23 50 -11 18 -35 11 -35 -10z m30 0 c0 -5 -4 -10 -10 -10 -5 0
-10 5 -10 10 0 6 5 10 10 10 6 0 10 -4 10 -10z"/>
<path d="M4901 1585 c0 -11 3 -14 6 -7 2 6 9 10 14 6 5 -3 9 -1 9 5 0 5 8 12
18 14 9 2 2 4 -15 3 -26 -1 -33 -5 -32 -21z"/>
<path d="M1111 1809 c-1 -3 4 -21 11 -40 l12 -34 12 30 c7 17 13 23 14 14 0
-22 26 -44 35 -29 4 6 1 9 -7 8 -7 -2 -13 6 -13 17 0 11 6 19 13 17 8 -1 11 2
7 8 -5 8 -11 7 -21 -1 -11 -9 -14 -8 -14 2 -1 8 -6 4 -14 -9 l-12 -23 -12 23
c-6 13 -11 20 -11 17z"/>
<path d="M1221 1792 c-6 -11 -6 -24 0 -35 11 -19 29 -23 29 -6 0 5 -4 8 -9 5
-11 -7 -20 14 -14 31 2 7 11 9 20 6 11 -4 14 -2 9 5 -10 17 -24 15 -35 -6z"/>
<path d="M1096 1692 c7 -4 14 -18 16 -32 3 -23 4 -22 9 8 5 27 3 32 -15 32
-13 0 -17 -3 -10 -8z"/>
<path d="M1141 1668 c0 -18 3 -27 6 -20 3 8 9 10 16 3 9 -6 13 -1 14 20 2 23
-2 29 -17 29 -16 0 -20 -7 -19 -32z m29 18 c0 -3 -4 -8 -10 -11 -5 -3 -10 -1
-10 4 0 6 5 11 10 11 6 0 10 -2 10 -4z"/>
<path d="M1192 1670 c0 -19 2 -27 5 -17 2 9 2 25 0 35 -3 9 -5 1 -5 -18z"/>
<path d="M1216 1685 c-8 -23 4 -45 25 -45 10 0 19 7 19 15 0 8 -5 15 -11 15
-5 0 -7 -4 -4 -10 3 -5 2 -10 -4 -10 -20 0 -24 23 -6 37 16 11 16 13 3 13 -9
0 -18 -7 -22 -15z"/>
<path d="M1060 1570 c0 -22 5 -30 18 -30 14 0 15 2 2 10 -13 9 -13 10 0 10 13
0 13 1 0 10 -13 9 -13 11 0 20 13 8 12 10 -2 10 -13 0 -18 -8 -18 -30z"/>
<path d="M1111 1586 c-16 -19 -3 -46 23 -45 21 0 21 0 -1 9 -14 6 -21 15 -17
24 3 9 12 12 21 9 11 -4 14 -2 9 5 -9 16 -21 15 -35 -2z"/>
<path d="M1161 1570 c0 -26 2 -31 9 -20 9 13 11 13 20 0 7 -11 9 -6 9 20 -1
19 -3 27 -6 18 -2 -10 -8 -18 -13 -18 -5 0 -11 8 -13 18 -3 9 -5 1 -6 -18z"/>
<path d="M1217 1593 c-4 -3 -7 -17 -7 -30 0 -16 6 -23 20 -23 25 0 36 25 20
45 -14 16 -23 19 -33 8z m33 -29 c0 -8 -7 -14 -15 -14 -15 0 -21 21 -9 33 10
9 24 -2 24 -19z"/>
<path d="M1112 1463 c3 -30 38 -47 38 -19 0 9 -5 16 -11 16 -5 0 -7 -4 -4 -10
3 -5 1 -10 -4 -10 -18 0 -12 38 7 43 12 3 11 5 -6 6 -20 1 -23 -3 -20 -26z"/>
<path d="M1161 1460 c0 -33 1 -34 10 -11 6 16 6 28 -1 35 -7 7 -10 -1 -9 -24z"/>
<path d="M1186 1468 c-3 -13 -1 -27 4 -32 7 -7 10 1 10 22 0 37 -5 41 -14 10z"/>
<path d="M1220 1460 c0 -19 5 -30 14 -30 17 0 28 24 20 45 -11 27 -34 17 -34
-15z m22 -12 c-9 -9 -12 -7 -12 12 0 19 3 21 12 12 9 -9 9 -15 0 -24z"/>
<path d="M1406 1515 c-3 -9 0 -23 8 -30 19 -20 29 4 11 28 -11 16 -13 16 -19
2z"/>
<path d="M7710 4686 c0 -8 6 -17 13 -19 9 -4 8 -8 -3 -16 -13 -9 -13 -11 2
-11 25 0 33 21 14 36 -16 12 -16 13 1 17 14 4 14 5 -4 6 -14 1 -23 -5 -23 -13z"/>
<path d="M7762 4673 c3 -30 38 -47 38 -19 0 9 -5 16 -11 16 -5 0 -7 -4 -4 -10
3 -5 1 -10 -4 -10 -18 0 -12 38 7 43 12 3 11 5 -6 6 -20 1 -23 -3 -20 -26z"/>
<path d="M7810 4680 c0 -11 6 -20 13 -20 8 0 7 -4 -3 -11 -12 -8 -12 -10 5 -7
13 2 21 12 23 31 3 22 -1 27 -17 27 -14 0 -21 -6 -21 -20z m30 0 c0 -5 -4 -10
-10 -10 -5 0 -10 5 -10 10 0 6 5 10 10 10 6 0 10 -4 10 -10z"/>
<path d="M7862 4673 c4 -36 33 -39 33 -3 0 16 -6 26 -18 28 -15 3 -18 -2 -15
-25z m28 -3 c0 -11 -4 -20 -10 -20 -5 0 -10 9 -10 20 0 11 5 20 10 20 6 0 10
-9 10 -20z"/>
<path d="M7710 4573 c0 -18 2 -33 4 -33 9 0 13 39 5 51 -6 10 -9 4 -9 -18z"/>
<path d="M7736 4578 c-3 -13 -1 -27 4 -32 7 -7 10 1 10 22 0 37 -5 41 -14 10z"/>
<path d="M7818 4589 c-9 -28 3 -46 33 -47 23 0 29 4 29 20 0 15 -5 19 -20 15
-12 -3 -23 1 -29 10 -7 13 -9 13 -13 2z m52 -29 c0 -5 -4 -10 -10 -10 -5 0
-10 5 -10 10 0 6 5 10 10 10 6 0 10 -4 10 -10z"/>
<path d="M7964 4588 c-4 -6 1 -17 11 -24 16 -12 14 -14 -24 -20 -23 -4 -40 -9
-37 -11 3 -3 23 -2 45 2 40 7 55 28 29 38 -10 4 -9 8 2 16 13 9 13 11 -2 11
-9 0 -20 -5 -24 -12z"/>
<path d="M7770 4560 c0 -11 7 -20 15 -20 8 0 15 9 15 20 0 11 -7 20 -15 20 -8
0 -15 -9 -15 -20z"/>
<path d="M7891 4558 c0 -16 2 -18 6 -8 3 8 11 18 17 22 7 5 4 8 -6 8 -12 0
-18 -7 -17 -22z"/>
<path d="M8017 4573 c-15 -14 -6 -33 16 -32 17 1 18 2 4 6 -9 2 -15 9 -11 14
3 5 10 7 15 4 5 -4 9 -1 9 4 0 12 -23 15 -33 4z"/>
<path d="M8061 4558 c1 -17 2 -19 6 -5 6 21 22 22 30 1 5 -13 7 -13 14 -2 13
21 11 24 -21 26 -25 2 -30 -1 -29 -20z"/>
<path d="M8130 4560 c0 -13 7 -20 20 -20 13 0 20 7 20 20 0 13 -7 20 -20 20
-13 0 -20 -7 -20 -20z m30 0 c0 -5 -4 -10 -10 -10 -5 0 -10 5 -10 10 0 6 5 10
10 10 6 0 10 -4 10 -10z"/>
<path d="M7110 3770 c-10 -6 -11 -10 -2 -10 6 0 12 -6 12 -14 0 -8 -6 -17 -12
-19 -7 -3 -4 -6 8 -6 17 -1 20 4 16 29 -2 17 -5 30 -6 30 0 0 -8 -5 -16 -10z"/>
<path d="M7760 3695 c0 -9 8 -19 17 -22 15 -6 15 -7 -3 -14 -17 -7 -17 -8 4
-8 13 -1 22 5 22 14 0 8 -7 15 -15 15 -21 0 -19 18 3 23 13 4 11 5 -5 6 -15 1
-23 -5 -23 -14z"/>
<path d="M7817 3703 c-4 -3 -7 -17 -7 -30 0 -16 6 -23 20 -23 11 0 20 7 20 15
0 8 -5 15 -11 15 -5 0 -7 -4 -4 -10 3 -5 1 -10 -4 -10 -18 0 -12 38 7 43 14 4
14 5 1 6 -9 0 -19 -2 -22 -6z"/>
<path d="M7867 3703 c-13 -13 -7 -33 11 -33 15 0 15 -2 2 -11 -13 -9 -13 -10
0 -6 20 5 26 57 7 57 -7 0 -17 -3 -20 -7z m23 -13 c0 -5 -4 -10 -10 -10 -5 0
-10 5 -10 10 0 6 5 10 10 10 6 0 10 -4 10 -10z"/>
<path d="M7914 3696 c-9 -22 2 -46 21 -46 12 0 15 8 13 27 -3 30 -25 42 -34
19z m22 -33 c-11 -11 -19 6 -11 24 8 17 8 17 12 0 3 -10 2 -21 -1 -24z"/>
<path d="M7761 3570 c0 -33 1 -34 10 -11 6 16 6 28 -1 35 -7 7 -10 -1 -9 -24z"/>
<path d="M7789 3579 c-6 -13 -7 -19 -1 -15 6 3 13 -2 15 -11 3 -10 5 -3 6 15
1 37 -4 40 -20 11z"/>
<path d="M7868 3595 c-7 -7 3 -55 11 -55 8 0 7 47 -1 55 -2 3 -7 3 -10 0z"/>
<path d="M8020 3585 c0 -8 5 -15 10 -15 6 0 10 -4 10 -9 0 -6 -17 -12 -37 -14
l-38 -4 42 -1 c46 -2 65 14 39 34 -16 12 -16 13 1 17 14 4 14 5 -4 6 -14 1
-23 -5 -23 -14z"/>
<path d="M7827 3584 c-15 -15 -7 -45 11 -42 9 2 17 12 17 22 0 20 -16 31 -28
20z m18 -13 c3 -5 1 -12 -5 -16 -5 -3 -10 1 -10 9 0 18 6 21 15 7z"/>
<path d="M7906 3583 c-12 -12 -6 -43 9 -43 8 0 15 9 15 19 0 21 -13 34 -24 24z
m11 -25 c-3 -8 -6 -5 -6 6 -1 11 2 17 5 13 3 -3 4 -12 1 -19z"/>
<path d="M7950 3565 c0 -14 2 -25 4 -25 2 0 6 11 8 25 3 14 1 25 -3 25 -5 0
-9 -11 -9 -25z"/>
<path d="M8070 3565 c0 -17 5 -25 18 -25 13 0 14 2 3 9 -11 7 -11 9 0 13 7 2
9 10 5 16 -12 20 -26 13 -26 -13z"/>
<path d="M8111 3563 c0 -16 3 -21 6 -13 3 8 12 21 21 28 14 10 13 12 -6 12
-18 0 -22 -6 -21 -27z"/>
<path d="M8179 3566 c12 -31 44 -35 39 -4 -2 15 -10 23 -25 24 -18 1 -20 -2
-14 -20z m31 -2 c0 -8 -5 -12 -10 -9 -6 4 -8 11 -5 16 9 14 15 11 15 -7z"/>
<path d="M8155 3559 c-4 -6 -5 -12 -2 -15 2 -3 7 2 10 11 7 17 1 20 -8 4z"/>
<path d="M7524 3158 c-4 -6 1 -17 10 -24 16 -12 16 -13 -1 -17 -14 -4 -14 -5
5 -6 13 -1 22 5 22 14 0 8 -7 15 -15 15 -8 0 -15 5 -15 11 0 6 7 8 16 5 8 -3
12 -2 9 4 -8 13 -22 13 -31 -2z"/>
<path d="M7641 3165 c-10 -43 -7 -55 13 -55 13 0 16 3 10 8 -7 4 -14 18 -17
32 -2 14 -5 21 -6 15z"/>
<path d="M7586 3143 c-11 -12 -6 -30 9 -30 8 0 15 6 15 13 0 15 -15 26 -24 17z"/>
<path d="M7430 3046 c0 -8 8 -17 18 -21 16 -7 15 -8 -3 -15 -16 -7 -17 -9 -3
-9 25 -1 34 20 14 35 -16 12 -16 13 1 17 14 4 14 5 -4 6 -14 1 -23 -5 -23 -13z"/>
<path d="M7484 3047 c3 -10 6 -26 6 -35 0 -14 2 -14 9 -3 7 11 9 11 14 0 4
-10 6 -9 6 3 1 9 4 25 7 35 4 13 3 14 -4 5 -5 -8 -13 -14 -17 -14 -4 0 -12 6
-17 14 -7 9 -8 8 -4 -5z"/>
<path d="M7580 3036 c0 -19 -6 -26 -27 -29 -26 -4 -26 -4 5 -6 22 -1 32 3 32
14 0 8 7 15 15 15 8 0 15 7 15 15 0 8 -9 15 -20 15 -15 0 -20 -7 -20 -24z"/>
<path d="M7721 3027 c2 -28 2 -29 7 -7 l5 25 8 -25 7 -25 1 26 c1 15 -5 29
-14 33 -12 4 -15 -2 -14 -27z"/>
<path d="M7633 3031 c3 -36 27 -40 26 -4 -2 27 -2 27 -7 3 l-5 -25 -8 25 -8
25 2 -24z"/>
<path d="M7680 3036 c0 -9 6 -16 13 -16 8 0 7 -4 -3 -10 -13 -8 -12 -10 3 -10
13 0 17 6 15 22 -4 25 -28 37 -28 14z"/>
<path d="M7592 2918 l-2 -37 -57 -4 c-32 -2 -6 -3 57 -3 63 0 92 1 63 3 -52 4
-52 4 -56 41 l-4 37 -1 -37z"/>
<path d="M1101 2105 c-1 -38 12 -60 33 -52 11 5 16 18 15 44 l-2 38 -6 -33
c-3 -18 -10 -33 -16 -33 -5 0 -13 15 -16 33 l-6 33 -2 -30z"/>
<path d="M1181 2125 c-1 -5 -3 -25 -4 -43 -2 -26 2 -32 18 -32 13 0 16 3 8 8
-6 4 -13 23 -16 42 -2 19 -5 31 -6 25z"/>
<path d="M942 1985 c0 -22 2 -32 5 -22 2 9 11 17 18 17 7 0 16 -8 18 -17 3
-10 5 0 5 22 0 22 -2 32 -5 23 -2 -10 -11 -18 -18 -18 -7 0 -16 8 -18 18 -3 9
-5 -1 -5 -23z"/>
<path d="M1016 2011 c-4 -5 3 -7 14 -4 23 6 26 13 6 13 -8 0 -17 -4 -20 -9z"/>
<path d="M1145 2010 c-8 -14 3 -30 21 -30 23 0 16 -18 -8 -23 -20 -4 -19 -4 5
-6 34 -1 37 23 5 41 l-23 12 25 7 c23 6 23 7 3 8 -12 1 -25 -3 -28 -9z"/>
<path d="M1211 1983 c1 -21 3 -30 6 -20 4 17 6 17 16 3 10 -14 12 -10 14 19 3
29 0 35 -17 35 -17 0 -20 -6 -19 -37z m29 17 c0 -5 -4 -10 -10 -10 -5 0 -10 5
-10 10 0 6 5 10 10 10 6 0 10 -4 10 -10z"/>
<path d="M1270 1985 c0 -28 4 -35 20 -35 16 0 20 7 20 35 0 28 -4 35 -20 35
-16 0 -20 -7 -20 -35z m30 0 c0 -14 -4 -25 -10 -25 -5 0 -10 11 -10 25 0 14 5
25 10 25 6 0 10 -11 10 -25z"/>
<path d="M1360 1991 c0 -7 -6 -11 -15 -7 -8 3 -15 1 -15 -4 0 -6 6 -10 14 -10
8 0 16 -5 18 -12 3 -8 6 -7 10 3 3 9 2 22 -3 30 -7 11 -9 11 -9 0z"/>
<path d="M1083 1973 c9 -2 25 -2 35 0 9 3 1 5 -18 5 -19 0 -27 -2 -17 -5z"/>
<path d="M1018 1958 c5 -5 16 -8 23 -6 8 3 3 7 -10 11 -17 4 -21 3 -13 -5z"/>
</g>
</svg>
