<?xml version="1.0" standalone="no"?>
<!DOCTYPE svg PUBLIC "-//W3C//DTD SVG 20010904//EN"
 "http://www.w3.org/TR/2001/REC-SVG-20010904/DTD/svg10.dtd">
<svg version="1.0" xmlns="http://www.w3.org/2000/svg"
 width="1024.000000pt" height="768.000000pt" viewBox="0 0 1267.000000 768.000000"
 preserveAspectRatio="xMidYMid meet">

<g transform="translate(0.000000,776.000000) scale(0.100000,-0.100000)"
fill="#000000" stroke="none">
<path d="M3544 7565 c-5 -13 -133 -15 -1065 -15 l-1059 0 0 -1030 0 -1030
-195 0 -195 0 0 -395 0 -395 195 0 195 0 0 -290 0 -290 -295 0 -295 0 0 -1280
0 -1280 1109 0 c976 0 1110 -2 1115 -15 7 -19 55 -19 62 0 5 13 106 15 820 15
l814 0 0 -190 0 -190 -40 0 -40 0 0 -200 0 -200 40 0 40 0 0 -195 0 -195 340
0 339 0 47 -50 c26 -27 72 -62 103 -77 50 -25 67 -28 156 -28 82 0 109 4 147
22 105 48 192 163 205 271 l6 52 803 0 804 0 0 470 c0 457 1 471 20 490 20 20
33 20 1860 20 l1840 0 0 470 c0 345 3 470 11 470 13 0 38 29 39 44 0 4 -9 -2
-19 -15 -11 -13 -22 -21 -26 -17 -11 11 5 46 23 51 12 3 11 5 -5 6 -33 1 -29
29 5 34 l27 4 -27 2 c-16 0 -28 7 -28 14 0 8 12 20 28 27 l27 14 -27 4 c-35 4
-38 32 -3 32 17 0 25 5 25 18 -1 21 -23 52 -39 52 -8 0 -11 39 -11 130 l0 130
150 0 150 0 0 200 0 199 98 4 97 3 -97 2 -98 2 0 2055 0 2055 -1799 0 c-1590
0 -1800 2 -1805 15 -3 8 -17 15 -31 15 -14 0 -28 -7 -31 -15 -5 -13 -262 -15
-2224 -15 -1962 0 -2219 2 -2224 15 -3 8 -17 15 -31 15 -14 0 -28 -7 -31 -15z
m6 -45 c20 -20 20 -33 20 -1220 l0 -1200 -875 0 -875 0 0 195 0 195 -195 0
-195 0 0 1025 0 1025 1050 0 c1037 0 1050 0 1070 -20z m4510 0 c19 -19 20 -33
20 -290 l0 -270 -190 0 -190 0 -2 153 -2 152 -3 -152 -4 -153 -189 0 -190 0
-2 153 -2 152 -3 -152 -4 -153 -539 0 -540 0 0 -440 0 -440 -147 -2 -148 -2
148 -3 147 -4 0 -89 0 -90 -147 -2 -148 -2 148 -3 147 -4 0 -194 0 -195 -147
-2 -148 -2 148 -3 147 -4 0 -89 0 -90 -147 -2 -148 -2 148 -3 147 -4 0 -94 0
-95 -1320 0 -1320 0 0 1200 c0 1129 1 1201 18 1219 17 19 62 19 2230 20 2199
1 2212 1 2232 -19z m3650 -1935 l0 -1955 -345 0 -345 0 0 -145 0 -146 -185 2
-185 1 -7 27 -6 26 -10 -28 -9 -27 -724 0 -724 0 0 190 0 190 148 2 147 2
-147 3 -148 4 0 189 0 190 148 2 147 2 -147 3 -148 4 0 94 0 95 148 2 147 2
-147 3 -148 4 0 89 0 90 148 2 147 2 -147 3 -148 4 0 94 0 95 148 2 147 2
-147 3 -148 4 0 94 0 95 148 2 147 2 -147 3 -148 4 0 89 0 90 148 2 147 2
-147 3 -148 4 0 94 0 95 148 2 147 2 -147 3 -148 4 0 829 0 830 -540 0 -540 0
0 270 c0 243 2 272 18 289 17 19 56 19 1810 20 l1792 1 0 -1955z m-4375 1355
c17 -7 24 -7 20 0 -4 6 47 10 145 10 94 0 149 -4 145 -10 -4 -6 4 -6 22 0 17
6 306 9 758 8 l730 -3 3 -2195 3 -2195 -22 -47 -22 -48 -664 0 -663 0 2 -277
3 -278 2 273 3 272 660 0 659 0 18 32 c18 32 18 26 21 -277 1 -170 0 -315 -3
-322 -3 -10 -153 -13 -715 -13 -515 0 -709 3 -704 11 5 8 1 8 -14 0 -15 -8
-233 -10 -754 -9 l-733 3 -3 2525 c-1 1389 0 2531 3 2538 6 15 1058 18 1100 2z
m-5530 -1845 l0 -380 -380 0 -380 0 -3 370 c-1 203 0 376 3 383 3 10 85 12
382 10 l378 -3 0 -380z m1765 -95 l0 -90 -685 0 -685 0 0 -595 0 -595 295 0
295 0 0 -145 0 -145 145 0 145 0 0 -910 c0 -897 0 -910 -20 -930 -20 -20 -33
-20 -1120 -20 l-1100 0 0 1270 0 1270 295 0 295 0 0 295 0 295 195 0 195 0 0
195 0 195 875 0 875 0 0 -90z m2650 0 l0 -90 -1320 0 -1320 0 0 90 0 90 1320
0 1320 0 0 -90z m-2650 -635 l0 -535 -90 0 -90 0 0 145 0 145 -300 0 -300 0 0
-195 0 -195 -290 0 -290 0 0 585 0 585 680 0 680 0 0 -535z m2650 440 l0 -95
-540 0 -540 0 0 -100 0 -100 -195 0 -195 0 0 -1470 0 -1470 -810 0 c-797 0
-810 0 -830 20 -20 20 -20 33 -20 930 l0 910 150 0 150 0 0 195 0 195 95 0 95
0 0 540 0 540 1320 0 1320 0 0 -95z m0 -200 l0 -95 -535 0 -535 0 0 95 0 95
535 0 535 0 0 -95z m-1080 -1175 l0 -1070 -40 0 -40 0 0 -200 0 -200 40 0 40
0 0 -195 0 -195 -190 0 -190 0 0 1465 0 1465 190 0 190 0 0 -1070z m1080 980
l0 -90 -147 -2 -148 -2 148 -3 147 -4 0 -94 0 -95 -147 -2 -148 -2 148 -3 147
-4 0 -89 0 -90 -147 -2 -148 -2 148 -3 147 -4 0 -94 0 -95 -147 -2 -148 -2
148 -3 147 -4 0 -94 0 -95 -147 -2 -148 -2 148 -3 147 -4 0 -89 0 -90 -147 -2
-148 -2 148 -3 147 -4 0 -94 0 -95 -147 -2 -148 -2 148 -3 147 -4 0 -89 0 -90
-147 -2 -148 -2 148 -3 147 -4 0 -94 0 -95 -147 -2 -148 -2 148 -3 147 -4 0
-94 0 -95 -147 -2 -148 -2 148 -3 147 -4 0 -339 0 -340 735 0 735 0 0 -125 c0
-112 -2 -127 -20 -145 -20 -20 -33 -20 -1270 -20 l-1250 0 0 195 0 195 40 0
40 0 0 200 0 200 -40 0 -40 0 0 1070 0 1070 535 0 535 0 0 -90z m-2840 -635
l0 -335 -290 0 -290 0 0 335 0 335 290 0 290 0 0 -335z m8330 -445 l0 -290
-340 0 -340 0 0 290 0 290 340 0 340 0 0 -290z m-1100 -10 c0 -5 14 -10 31
-10 16 0 28 4 25 9 -3 5 74 9 174 10 l180 2 0 -151 0 -150 195 0 195 0 0 -130
c0 -108 -3 -130 -15 -130 -16 0 -35 -30 -35 -54 0 -10 9 -16 25 -16 36 0 33
-30 -2 -31 l-28 -2 28 -4 c15 -2 27 -10 27 -17 0 -7 -12 -19 -27 -26 l-28 -14
28 -4 c25 -3 27 -7 27 -48 0 -31 -4 -44 -14 -44 -17 0 -30 34 -20 52 5 10 4
10 -6 1 -17 -16 2 -63 25 -63 13 0 15 -55 15 -465 l0 -465 -1835 0 c-1822 0
-1835 0 -1855 20 -18 18 -20 33 -20 145 l0 125 735 0 735 0 0 340 0 340 148 2
147 2 -147 3 -148 4 0 194 0 195 148 2 147 2 -147 3 -148 4 0 89 0 90 148 2
147 2 -147 3 -148 4 0 94 0 95 720 0 c473 0 720 -3 720 -10z m37 4 c-3 -3 -12
-4 -19 -1 -8 3 -5 6 6 6 11 1 17 -2 13 -5z m763 -589 c0 -18 -5 -25 -20 -25
-21 0 -24 8 -14 34 10 25 34 19 34 -9z m38 13 c18 -18 14 -38 -8 -38 -15 0
-20 7 -20 25 0 27 9 32 28 13z m-6233 -588 l0 -185 -70 0 -70 0 -3 175 c-1 96
0 180 3 188 3 9 23 12 72 10 l68 -3 0 -185z m-75 -990 l0 -390 144 0 145 0
-21 -47 c-39 -87 -35 -217 8 -320 5 -10 -64 -13 -325 -13 l-331 0 0 190 0 190
40 0 40 0 0 200 0 200 -40 0 -40 0 0 190 0 190 190 0 190 0 0 -390z m2530 370
c19 -19 20 -33 20 -485 l0 -465 -799 0 -798 0 -6 52 c-13 108 -100 223 -205
271 -38 18 -65 22 -147 22 -121 0 -167 -18 -248 -94 l-54 -51 -141 0 -142 0 0
385 0 385 1250 0 c1237 0 1250 0 1270 -20z m-2845 -560 l0 -185 -70 0 -70 0
-3 175 c-1 96 0 180 3 188 3 9 23 12 72 10 l68 -3 0 -185z m990 -65 c121 -31
219 -129 250 -250 8 -32 15 -63 15 -67 0 -13 -115 -9 -128 4 -8 8 -12 45 -12
100 l0 88 -50 0 -50 0 -2 53 -2 52 -3 -47 c-2 -27 -6 -48 -9 -48 -2 0 -45 20
-94 45 -49 25 -92 45 -95 45 -3 0 -5 -22 -5 -50 l0 -50 -80 0 c-75 0 -80 1
-71 18 17 31 113 91 171 106 71 19 94 19 165 1z m-85 -85 l75 -39 -82 -1 -83
0 0 40 c0 22 3 40 8 40 4 -1 41 -19 82 -40z m-100 -100 c0 -27 2 -50 5 -50 3
0 46 20 95 45 49 25 92 45 94 45 3 0 7 -21 9 -47 l3 -48 2 53 2 52 45 0 45 0
0 -80 c0 -46 -5 -89 -12 -100 -10 -15 -10 -22 0 -32 7 -7 12 -42 12 -90 l0
-78 -45 0 -45 0 -2 53 -2 52 -3 -47 c-2 -27 -6 -48 -9 -48 -2 0 -45 20 -94 45
-49 25 -92 45 -95 45 -3 0 -5 -22 -5 -50 l0 -50 -90 0 c-105 0 -109 3 -136
113 -19 76 -11 147 27 224 l21 43 89 0 89 0 0 -50z m100 10 c-41 -21 -78 -39
-82 -40 -5 0 -8 18 -8 40 l0 40 83 0 82 -1 -75 -39z m350 -168 c0 -4 -7 -35
-15 -67 -31 -121 -129 -219 -250 -250 -74 -19 -86 -19 -160 0 -65 17 -154 72
-180 111 l-15 24 85 0 85 0 0 -50 c0 -27 2 -50 5 -50 3 0 46 20 95 45 49 25
92 45 94 45 3 0 7 -21 9 -47 l3 -48 2 53 2 52 50 0 50 0 0 83 c0 51 5 88 12
95 13 13 128 17 128 4z m-350 -132 l75 -39 -82 -1 -83 0 0 40 c0 22 3 40 8 40
4 -1 41 -19 82 -40z m0 -90 c-41 -21 -78 -39 -82 -40 -5 0 -8 18 -8 40 l0 40
83 0 82 -1 -75 -39z"/>
<path d="M1886 5221 c-4 -5 4 -7 15 -4 15 4 27 0 35 -12 8 -11 14 -14 14 -9 0
26 -51 46 -64 25z"/>
<path d="M1905 5150 l-29 -30 40 1 c31 2 34 3 10 6 l-28 5 23 24 c12 13 20 24
18 24 -3 0 -18 -13 -34 -30z"/>
<path d="M7180 7175 c-20 -24 -3 -55 31 -55 27 0 29 3 29 35 0 30 -3 35 -24
35 -13 0 -29 -7 -36 -15z m50 -20 c0 -18 -5 -25 -19 -25 -11 0 -23 5 -26 10
-11 18 3 40 25 40 15 0 20 -7 20 -25z"/>
<path d="M7608 7183 c6 -2 18 -2 25 0 6 3 1 5 -13 5 -14 0 -19 -2 -12 -5z"/>
<path d="M8007 7183 c-4 -3 -7 -17 -7 -30 0 -31 -22 -25 -31 8 -6 21 -7 21 -8
4 -1 -31 18 -45 60 -45 29 0 39 5 44 20 11 34 -34 67 -58 43z m48 -28 c0 -13
-8 -21 -22 -23 -19 -3 -23 1 -23 23 0 22 4 26 23 23 14 -2 22 -10 22 -23z"/>
<path d="M7257 7168 c6 -7 13 -20 16 -28 4 -10 6 -8 6 6 1 12 -6 25 -15 28
-13 5 -14 3 -7 -6z"/>
<path d="M7574 7165 c-13 -32 4 -46 48 -43 32 2 44 8 46 22 2 10 0 22 -5 27
-6 6 -9 1 -9 -13 1 -20 -4 -23 -34 -23 -30 0 -35 3 -34 23 1 26 -4 28 -12 7z"/>
<path d="M7630 7093 c0 -6 -8 -14 -17 -16 -16 -4 -16 -5 1 -6 13 -1 17 -6 13
-21 -3 -11 -1 -20 4 -20 5 0 9 9 9 20 0 12 7 20 18 21 13 0 14 2 2 6 -8 3 -18
11 -22 17 -6 8 -8 8 -8 -1z"/>
<path d="M7171 7053 c2 -30 3 -32 6 -11 4 24 7 26 23 18 13 -7 19 -6 24 5 3 8
15 15 27 15 18 0 21 -5 17 -30 -3 -19 -1 -27 5 -21 5 5 7 19 5 32 -3 26 -45
40 -58 19 -6 -9 -13 -9 -29 -1 -20 11 -21 10 -20 -26z"/>
<path d="M7961 7053 c2 -30 3 -32 6 -11 4 24 7 27 24 18 15 -9 19 -7 19 5 0
11 7 15 23 13 18 -2 22 -9 20 -33 -2 -25 0 -27 8 -12 17 29 2 57 -32 57 -16 0
-29 -5 -29 -10 0 -7 -6 -7 -20 0 -18 10 -20 8 -19 -27z"/>
<path d="M6012 6203 c24 -4 27 -7 18 -24 -8 -15 -7 -19 5 -19 10 0 15 -9 15
-26 0 -23 -3 -26 -29 -22 -17 2 -28 1 -25 -4 3 -4 18 -8 35 -8 25 0 29 4 29
29 0 17 -5 33 -10 36 -7 4 -7 13 0 26 10 17 7 19 -27 18 -30 -2 -32 -3 -11 -6z"/>
<path d="M6113 6203 c-7 -3 -13 -9 -13 -15 0 -7 4 -7 13 1 10 8 17 7 25 -1 8
-8 12 -9 12 -1 0 13 -20 22 -37 16z"/>
<path d="M6091 6154 c0 -11 3 -14 6 -6 3 7 2 16 -1 19 -3 4 -6 -2 -5 -13z"/>
<path d="M6151 6154 c0 -11 3 -14 6 -6 3 7 2 16 -1 19 -3 4 -6 -2 -5 -13z"/>
<path d="M6104 6118 c2 -7 11 -13 21 -13 10 0 19 6 21 13 1 7 0 8 -3 2 -2 -5
-11 -10 -18 -10 -7 0 -16 5 -18 10 -3 6 -4 5 -3 -2z"/>
<path d="M6012 6003 c24 -4 27 -7 18 -24 -8 -15 -7 -19 5 -19 10 0 15 -9 15
-26 0 -24 -3 -26 -32 -21 -29 5 -30 4 -11 -5 32 -16 53 -3 53 32 0 16 -5 30
-10 30 -7 0 -7 6 0 20 10 18 8 20 -27 19 -30 -2 -32 -3 -11 -6z"/>
<path d="M6108 6003 c12 -2 30 -2 40 0 9 3 -1 5 -23 4 -22 0 -30 -2 -17 -4z"/>
<path d="M6062 5599 c-8 -11 -9 -18 -3 -14 7 4 11 -6 11 -29 0 -19 -6 -37 -12
-39 -7 -3 3 -5 22 -5 19 0 27 2 18 5 -13 3 -18 17 -20 54 -3 46 -4 48 -16 28z"/>
<path d="M6050 5412 c0 -5 11 -7 25 -4 36 6 33 -24 -7 -65 l-32 -33 40 1 c32
2 34 3 10 6 l-28 5 27 28 c33 35 30 64 -8 68 -15 2 -27 -1 -27 -6z"/>
<path d="M6091 5176 c-1 -13 -6 -17 -21 -13 -11 3 -20 1 -20 -4 0 -5 9 -9 19
-9 11 0 22 -8 24 -17 4 -17 5 -17 6 0 0 9 7 17 14 17 8 0 9 3 1 8 -6 4 -14 14
-17 22 -4 11 -6 11 -6 -4z"/>
<path d="M9236 5411 c-3 -4 5 -6 18 -4 32 7 42 -14 19 -40 -49 -56 -49 -57 -7
-56 31 2 34 3 11 6 l-28 4 25 34 c15 19 23 40 20 49 -6 17 -49 22 -58 7z"/>
<path d="M9342 5401 c-8 -13 -9 -20 -3 -17 7 5 11 -5 11 -28 0 -19 -6 -37 -12
-39 -7 -3 3 -5 22 -5 19 0 27 2 18 5 -13 3 -18 17 -20 56 -3 49 -4 51 -16 28z"/>
<path d="M9240 5220 c-11 -8 -8 -9 12 -4 19 4 29 1 37 -13 6 -10 11 -13 11 -7
0 13 -21 34 -34 34 -6 0 -18 -5 -26 -10z"/>
<path d="M9336 5222 c-3 -5 5 -8 17 -8 35 1 33 -32 -5 -65 l-33 -28 40 1 c30
1 33 2 12 5 l-28 4 26 20 c28 23 33 64 9 73 -21 8 -32 8 -38 -2z"/>
<path d="M9255 5150 l-29 -30 40 1 c31 2 34 3 10 6 l-28 5 23 24 c12 13 20 24
18 24 -3 0 -18 -13 -34 -30z"/>
<path d="M9236 5021 c-3 -4 5 -6 18 -4 32 7 42 -14 19 -40 -49 -56 -49 -57 -7
-56 31 2 34 3 11 6 l-28 4 25 34 c15 19 23 40 20 49 -6 17 -49 22 -58 7z"/>
<path d="M9371 4981 c-1 -18 -5 -22 -21 -18 -11 3 -20 1 -20 -4 0 -5 9 -9 19
-9 11 0 22 -8 24 -17 4 -17 5 -17 6 0 0 9 7 17 14 17 8 0 9 2 1 8 -7 4 -14 16
-17 27 -4 17 -5 17 -6 -4z"/>
<path d="M9236 4822 c-3 -6 3 -8 14 -5 11 3 28 -1 37 -8 14 -12 16 -12 11 1
-5 17 -53 26 -62 12z"/>
<path d="M9330 4807 c0 -18 5 -23 23 -23 16 1 23 -5 25 -23 3 -21 0 -23 -22
-19 -14 3 -26 1 -26 -4 0 -5 12 -8 28 -6 21 2 28 9 30 30 3 22 -2 29 -22 34
-34 8 -33 22 2 27 25 4 25 4 -5 6 -28 1 -33 -2 -33 -22z"/>
<path d="M9255 4760 l-29 -30 40 1 c31 2 34 3 10 6 l-28 5 23 24 c12 13 20 24
18 24 -3 0 -18 -13 -34 -30z"/>
<path d="M9240 4630 c-11 -8 -8 -9 11 -4 35 8 46 -12 22 -39 -49 -56 -49 -57
-7 -56 31 2 34 3 11 6 l-28 4 26 35 c22 28 24 38 15 49 -14 17 -29 19 -50 5z"/>
<path d="M9346 4631 c-4 -5 3 -7 14 -4 23 6 26 13 6 13 -8 0 -17 -4 -20 -9z"/>
<path d="M9332 4572 c3 -32 6 -37 28 -37 21 0 25 5 25 29 0 24 -5 31 -28 37
-27 7 -28 7 -25 -29z m48 -7 c0 -18 -5 -25 -20 -25 -15 0 -20 7 -20 25 0 18 5
25 20 25 15 0 20 -7 20 -25z"/>
<path d="M9236 4431 c-3 -4 5 -6 18 -4 32 7 42 -14 19 -40 -49 -56 -49 -57 -7
-56 31 2 34 3 11 6 l-28 4 25 34 c15 19 23 40 20 49 -6 17 -49 22 -58 7z"/>
<path d="M9338 4433 c12 -2 32 -2 45 0 12 2 2 4 -23 4 -25 0 -35 -2 -22 -4z"/>
<path d="M9240 4240 c-11 -8 -8 -9 12 -4 19 4 29 1 37 -13 6 -10 11 -13 11 -7
0 13 -21 34 -34 34 -6 0 -18 -5 -26 -10z"/>
<path d="M9337 4243 c-4 -3 -7 -19 -7 -35 0 -23 4 -28 25 -28 31 0 33 -18 3
-30 -14 -5 -17 -9 -7 -9 25 -1 39 20 39 60 0 24 -5 39 -16 43 -20 8 -29 8 -37
-1z m41 -31 c3 -17 -2 -22 -17 -22 -14 0 -21 6 -21 18 0 38 33 41 38 4z"/>
<path d="M9255 4170 l-29 -30 40 1 c31 2 34 3 10 6 l-28 5 23 24 c12 13 20 24
18 24 -3 0 -18 -13 -34 -30z"/>
<path d="M10257 3873 c-16 -16 -6 -43 19 -49 32 -8 29 -39 -4 -38 -14 0 -19
-3 -13 -9 5 -5 18 -6 30 -2 29 9 27 43 -4 55 -33 13 -32 38 3 43 l27 4 -26 2
c-14 0 -29 -2 -32 -6z"/>
<path d="M10430 3869 c0 -5 5 -7 10 -4 6 3 10 8 10 11 0 2 -4 4 -10 4 -5 0
-10 -5 -10 -11z"/>
<path d="M10481 3840 c0 -25 3 -51 8 -59 5 -8 7 5 4 35 -6 68 -11 77 -12 24z"/>
<path d="M10532 3825 c1 -46 2 -51 5 -20 5 40 5 40 18 15 l13 -25 14 30 13 29
6 -44 6 -45 1 58 c1 31 0 57 -3 57 -2 0 -12 -14 -21 -32 l-16 -32 -19 35 -18
34 1 -60z"/>
<path d="M10730 3869 c0 -5 5 -7 10 -4 6 3 10 8 10 11 0 2 -4 4 -10 4 -5 0
-10 -5 -10 -11z"/>
<path d="M10861 3868 c-1 -10 -7 -18 -13 -18 -10 0 -10 -2 -1 -8 6 -4 13 -20
15 -36 1 -16 9 -31 16 -32 7 -1 8 0 2 3 -15 7 -13 63 3 63 8 0 9 3 1 8 -6 4
-14 14 -17 22 -4 12 -6 11 -6 -2z"/>
<path d="M11146 3864 c-8 -21 0 -33 30 -44 30 -12 31 -28 2 -40 -16 -6 -18 -9
-7 -9 42 -2 47 55 6 61 -33 5 -27 32 8 39 l30 7 -31 1 c-21 1 -34 -5 -38 -15z"/>
<path d="M9255 3841 c21 -4 26 -9 17 -15 -10 -6 -10 -11 4 -21 26 -18 11 -49
-21 -43 -14 3 -25 1 -25 -3 0 -5 14 -9 30 -9 36 0 49 23 31 52 -9 15 -9 23 0
34 10 12 5 14 -27 13 -37 -1 -38 -2 -9 -8z"/>
<path d="M9330 3827 c0 -18 5 -23 23 -23 16 1 23 -5 25 -23 3 -21 0 -23 -22
-19 -14 3 -26 1 -26 -4 0 -5 12 -8 28 -6 21 2 28 9 30 30 3 22 -2 29 -22 34
-34 8 -33 22 2 27 25 4 25 4 -5 6 -28 1 -33 -2 -33 -22z"/>
<path d="M10352 3838 c-27 -27 -2 -75 32 -62 21 8 21 60 0 68 -20 8 -18 8 -32
-6z m33 -28 c0 -13 -6 -25 -12 -27 -16 -6 -27 21 -19 43 9 23 31 11 31 -16z"/>
<path d="M10433 3810 c0 -25 2 -35 4 -22 2 12 2 32 0 45 -2 12 -4 2 -4 -23z"/>
<path d="M10653 3843 c-18 -7 -16 -60 2 -67 8 -3 22 -3 30 0 20 8 19 60 -1 68
-9 3 -16 6 -17 5 -1 0 -8 -3 -14 -6z m32 -33 c0 -27 -22 -39 -31 -16 -8 22 3
49 19 43 6 -2 12 -14 12 -27z"/>
<path d="M10733 3810 c0 -25 2 -35 4 -22 2 12 2 32 0 45 -2 12 -4 2 -4 -23z"/>
<path d="M10780 3835 c-10 -12 -8 -16 15 -25 30 -11 24 -35 -8 -26 -15 4 -17
2 -8 -7 8 -8 16 -8 28 -1 22 14 20 27 -7 40 -13 7 -18 14 -11 18 6 4 16 4 23
0 7 -4 8 -3 4 4 -10 16 -21 15 -36 -3z"/>
<path d="M10911 3824 c-1 -34 13 -51 42 -51 13 0 17 9 16 41 l-2 41 -6 -35
c-4 -22 -12 -35 -21 -35 -9 0 -17 13 -21 35 l-6 35 -2 -31z"/>
<path d="M11001 3805 c2 -33 3 -35 6 -10 2 17 11 35 20 42 13 10 13 12 -6 10
-18 -1 -21 -7 -20 -42z"/>
<path d="M11067 3843 c-4 -3 -7 -19 -7 -35 0 -31 24 -48 42 -30 8 8 5 9 -10 5
-18 -4 -21 -1 -20 26 1 19 6 31 15 31 7 0 13 -4 13 -10 0 -5 5 -10 11 -10 8 0
8 5 -1 15 -13 16 -32 19 -43 8z"/>
<path d="M11247 3844 c-4 -4 -7 -20 -7 -36 0 -31 24 -48 42 -30 8 8 5 9 -10 5
-18 -4 -21 -1 -20 26 1 20 6 31 15 31 8 0 11 -4 8 -10 -3 -5 -1 -10 5 -10 16
0 6 24 -11 28 -8 1 -18 0 -22 -4z"/>
<path d="M11332 3808 l1 -43 4 38 c5 47 25 45 34 -4 l6 -34 2 31 c1 31 -14 54
-36 54 -9 0 -12 -13 -11 -42z"/>
<path d="M11417 3843 c-14 -13 -6 -33 13 -33 12 0 20 -7 20 -16 0 -12 -6 -15
-21 -11 -16 4 -19 3 -11 -5 14 -14 42 -3 42 18 0 9 -9 18 -20 21 -11 3 -20 10
-20 15 0 6 9 8 20 5 11 -3 18 -1 14 4 -6 11 -28 12 -37 2z"/>
<path d="M11503 3843 c-18 -7 -16 -60 2 -67 8 -3 22 -3 30 0 20 8 19 60 -1 68
-9 3 -16 6 -17 5 -1 0 -8 -3 -14 -6z m32 -33 c0 -13 -6 -25 -12 -27 -16 -6
-27 21 -19 43 9 23 31 11 31 -16z"/>
<path d="M11581 3805 c2 -33 3 -35 6 -10 2 17 11 35 20 42 13 10 13 12 -6 10
-18 -1 -21 -7 -20 -42z"/>
<path d="M9252 3453 c24 -4 27 -7 18 -24 -9 -15 -7 -19 5 -19 11 0 15 -7 13
-22 -2 -18 -9 -23 -30 -23 -16 1 -24 -3 -19 -8 26 -26 74 19 54 51 -7 12 -8
24 -1 35 8 15 4 17 -29 16 -30 -2 -32 -3 -11 -6z"/>
<path d="M9342 3441 c-8 -13 -9 -20 -3 -17 7 5 11 -5 11 -28 0 -19 -6 -37 -12
-39 -7 -3 3 -5 22 -5 19 0 27 2 18 5 -13 3 -18 17 -20 56 -3 49 -4 51 -16 28z"/>
<path d="M10912 3453 c24 -4 27 -7 18 -24 -9 -15 -7 -19 5 -19 11 0 15 -7 13
-22 -2 -19 -9 -23 -33 -21 -25 2 -27 0 -12 -8 29 -17 57 -2 57 32 0 16 -5 29
-10 29 -7 0 -7 6 0 20 10 18 8 20 -27 19 -30 -2 -32 -3 -11 -6z"/>
<path d="M10705 3380 c-4 -6 -4 -14 -1 -17 3 -4 6 -1 6 5 0 15 26 16 33 2 3
-6 4 -5 3 2 -3 17 -32 22 -41 8z"/>
<path d="M7383 6919 c14 -8 17 -24 17 -84 0 -73 1 -75 25 -75 23 0 25 -3 25
-50 0 -27 4 -50 10 -50 6 0 7 19 3 48 l-6 47 46 -50 46 -50 1 53 c0 49 2 52
25 52 24 0 25 2 25 75 0 60 3 76 18 85 16 11 16 11 -1 6 -10 -3 -21 -6 -23 -6
-2 0 -4 -34 -4 -75 0 -68 -2 -75 -20 -75 -17 0 -20 7 -20 53 l-1 52 -44 -48
-45 -49 0 46 c0 34 -4 46 -15 46 -8 0 -15 -8 -15 -17 0 -15 2 -16 10 -3 7 11
10 2 10 -32 0 -41 -3 -48 -20 -48 -18 0 -20 7 -20 74 0 58 -3 75 -16 80 -24 9
-31 7 -11 -5z m157 -155 l0 -87 -39 44 -38 44 36 42 c20 23 37 42 39 43 1 0 2
-39 2 -86z"/>
<path d="M7307 6863 c-14 -13 -7 -25 8 -13 16 13 18 10 28 -35 3 -13 5 -9 6
11 1 21 -5 34 -15 38 -19 7 -19 7 -27 -1z"/>
<path d="M7641 6843 c-1 -31 12 -44 37 -35 6 2 12 9 12 14 0 6 -6 5 -15 -2
-16 -13 -18 -10 -28 35 -3 13 -5 8 -6 -12z"/>
<path d="M7703 6863 c-7 -2 -13 -10 -13 -16 0 -8 4 -7 12 1 18 18 26 14 31
-15 4 -28 4 -28 3 1 -1 30 -11 38 -33 29z"/>
<path d="M8031 6834 c1 -36 2 -37 8 -10 6 27 7 28 20 12 14 -17 15 -16 23 4
11 31 43 22 43 -12 -1 -15 3 -24 7 -22 12 8 10 38 -4 52 -17 17 -48 15 -55 -3
-5 -14 -8 -14 -24 1 -18 16 -19 16 -18 -22z"/>
<path d="M7241 6839 c-1 -9 5 -22 13 -28 15 -13 46 -5 46 12 0 7 -4 7 -12 -1
-18 -18 -28 -15 -38 11 -6 15 -9 17 -9 6z"/>
<path d="M7683 6763 c42 -4 47 -7 47 -28 0 -21 -5 -24 -42 -28 l-43 -4 45 1
c43 1 45 2 45 31 0 29 -1 30 -50 31 l-50 1 48 -4z"/>
<path d="M7283 6745 c0 -6 14 -9 34 -7 18 2 33 5 33 7 0 2 -15 5 -33 7 -20 2
-34 -1 -34 -7z"/>
<path d="M8100 6751 c12 -9 13 -11 1 -11 -8 0 -12 -2 -9 -5 3 -3 16 -1 29 4
13 5 19 10 12 10 -6 1 -20 4 -30 7 -15 5 -15 4 -3 -5z"/>
<path d="M7247 6683 c-12 -11 -8 -40 7 -52 15 -12 46 -5 46 11 0 6 -6 5 -15
-2 -20 -16 -38 -2 -32 26 5 26 4 28 -6 17z"/>
<path d="M7305 6680 c-4 -6 -4 -14 -1 -17 3 -4 6 -1 6 5 0 28 29 10 33 -20 l5
-33 -2 35 c-1 35 -26 54 -41 30z"/>
<path d="M8031 6653 c2 -30 3 -32 6 -11 4 24 7 27 24 18 15 -9 19 -7 19 5 0
11 7 15 23 13 17 -2 22 -9 22 -30 -1 -17 3 -24 8 -19 5 5 7 21 3 35 -5 19 -13
26 -31 26 -13 0 -27 -5 -30 -10 -4 -7 -13 -7 -26 0 -17 10 -19 7 -18 -27z"/>
<path d="M7650 6662 c-5 -2 -10 -15 -10 -28 0 -22 4 -24 50 -24 49 0 50 1 50
30 0 29 -2 30 -40 28 -22 -2 -44 -4 -50 -6z m30 -28 c0 -8 -7 -14 -15 -14 -15
0 -21 21 -9 33 10 9 24 -2 24 -19z m50 6 c0 -13 -7 -20 -20 -20 -19 0 -27 20
-13 33 13 14 33 6 33 -13z"/>
<path d="M7315 6570 c3 -5 1 -10 -6 -10 -7 0 -10 -2 -8 -5 3 -2 15 -2 28 2 17
4 19 8 9 14 -18 12 -31 11 -23 -1z"/>
<path d="M7675 6562 l40 -19 -38 -12 c-21 -7 -37 -15 -34 -17 2 -2 26 4 53 13
l49 17 -30 12 c-52 20 -82 25 -40 6z"/>
<path d="M7268 6498 c-2 -7 -1 -33 3 -58 l6 -45 1 48 c2 36 5 46 15 41 8 -5 8
-2 -2 9 -16 20 -18 21 -23 5z"/>
<path d="M7319 6500 c-1 -8 0 -23 1 -34 1 -10 -4 -23 -12 -27 -10 -7 -9 -9 3
-9 19 0 31 51 17 72 -6 10 -8 10 -9 -2z"/>
<path d="M7659 6474 c-8 -10 -9 -15 -2 -11 8 5 13 -6 15 -40 l3 -48 5 48 c6
57 -1 75 -21 51z"/>
<path d="M7709 6478 c-1 -7 0 -21 1 -31 1 -10 -4 -25 -12 -34 -11 -14 -11 -15
2 -11 8 2 16 19 18 36 2 22 7 30 15 25 7 -4 6 0 -2 10 -16 20 -21 21 -22 5z"/>
<path d="M6321 6083 c1 -32 4 -48 6 -35 5 28 10 28 42 0 16 -14 20 -15 9 -3
-17 18 -17 20 -1 38 22 23 7 51 -31 55 -26 3 -26 2 -25 -55z m54 22 c0 -13 -8
-21 -22 -23 -19 -3 -23 1 -23 23 0 22 4 26 23 23 14 -2 22 -10 22 -23z"/>
<path d="M6424 6085 c1 -45 3 -50 25 -53 31 -5 41 13 39 68 l-1 45 -6 -50 c-5
-42 -10 -51 -28 -53 -20 -3 -22 2 -26 45 l-4 48 1 -50z"/>
<path d="M6522 6083 c1 -57 1 -58 7 -14 l6 44 23 -42 c13 -22 25 -41 28 -41 2
0 3 26 2 58 -1 56 -1 57 -7 13 l-6 -44 -23 42 c-13 22 -25 41 -28 41 -2 0 -3
-26 -2 -57z"/>
<path d="M6665 6110 l-50 -7 58 -1 c37 -1 56 2 52 8 -3 6 -7 9 -8 8 -1 0 -24
-4 -52 -8z"/>
<path d="M6650 6073 c0 -15 9 -20 40 -24 14 -2 26 1 27 6 1 6 -10 8 -24 7 -14
-2 -30 2 -34 10 -6 9 -9 9 -9 1z"/>
<path d="M6332 5933 c24 -4 27 -7 18 -24 -9 -15 -7 -19 5 -19 11 0 15 -7 13
-22 -2 -19 -9 -23 -33 -21 -25 2 -27 0 -12 -8 27 -15 57 -2 57 26 0 13 -5 27
-10 30 -7 4 -7 13 0 26 10 17 7 19 -27 18 -30 -2 -32 -3 -11 -6z"/>
<path d="M6512 5933 c24 -4 27 -7 18 -24 -9 -15 -7 -19 5 -19 11 0 15 -7 13
-22 -2 -18 -9 -23 -30 -23 -17 1 -24 -3 -19 -8 5 -5 21 -7 35 -3 19 5 26 13
26 31 0 13 -5 27 -10 30 -7 4 -7 13 0 26 10 17 7 19 -27 18 -30 -2 -32 -3 -11
-6z"/>
<path d="M6670 5885 c0 -54 1 -55 28 -54 23 2 24 2 5 6 -27 5 -31 39 -5 46 16
4 16 5 0 6 -27 2 -23 39 5 44 19 4 18 4 -5 6 -27 1 -28 0 -28 -54z"/>
<path d="M6760 5885 c0 -32 2 -56 4 -54 8 8 10 98 3 105 -4 4 -7 -19 -7 -51z"/>
<path d="M6808 5894 c-2 -25 0 -51 4 -57 4 -7 8 14 8 46 0 68 -7 75 -12 11z"/>
<path d="M6900 5910 l-45 -6 48 -5 c27 -2 53 -1 59 2 17 11 -14 15 -62 9z"/>
<path d="M6882 5875 c3 -22 57 -38 80 -24 15 10 2 13 -39 10 -12 -1 -26 6 -33
16 -10 17 -11 17 -8 -2z"/>
<path d="M6427 5862 c1 -8 3 -19 3 -25 0 -7 4 -6 10 3 12 19 13 33 1 26 -5 -4
-11 -3 -14 1 -2 5 -2 2 0 -5z"/>
<path d="M6588 5823 c12 -2 32 -2 45 0 12 2 2 4 -23 4 -25 0 -35 -2 -22 -4z"/>
<path d="M6337 5532 c-34 -37 -13 -98 30 -90 25 5 31 48 6 47 -10 0 -13 -3 -5
-6 22 -9 14 -35 -10 -31 -17 2 -24 11 -26 31 -4 33 15 60 35 53 8 -3 11 -1 8
4 -9 15 -20 12 -38 -8z"/>
<path d="M6421 5493 c1 -32 4 -46 6 -30 3 21 10 27 29 27 14 0 27 7 30 15 9
21 -14 45 -42 45 -23 0 -24 -3 -23 -57z m54 27 c0 -8 -10 -16 -22 -18 -18 -3
-23 2 -23 18 0 16 5 21 23 18 12 -2 22 -10 22 -18z"/>
<path d="M6523 5495 c0 -33 2 -45 4 -27 2 18 2 45 0 60 -2 15 -4 0 -4 -33z"/>
<path d="M6571 5536 c-7 -8 -11 -32 -9 -53 3 -35 5 -38 33 -38 28 0 30 3 33
38 3 39 -10 67 -33 67 -7 0 -18 -6 -24 -14z m47 -44 c3 -39 1 -42 -22 -42 -23
0 -26 4 -26 38 0 43 7 54 30 50 10 -2 16 -17 18 -46z"/>
<path d="M6683 5543 c-7 -3 -13 -9 -13 -15 0 -7 4 -7 13 1 10 8 17 7 25 -1 8
-8 12 -9 12 -1 0 13 -20 22 -37 16z"/>
<path d="M6800 5520 l-45 -6 48 -5 c27 -2 53 -1 59 2 17 11 -14 15 -62 9z"/>
<path d="M6661 5494 c0 -11 3 -14 6 -6 3 7 2 16 -1 19 -3 4 -6 -2 -5 -13z"/>
<path d="M6721 5494 c0 -11 3 -14 6 -6 3 7 2 16 -1 19 -3 4 -6 -2 -5 -13z"/>
<path d="M6785 5477 c7 -17 58 -28 77 -15 14 8 0 12 -35 8 -10 -1 -25 4 -33
11 -12 10 -13 9 -9 -4z"/>
<path d="M6674 5458 c2 -7 11 -13 21 -13 10 0 19 6 21 13 1 7 0 8 -3 2 -2 -5
-11 -10 -18 -10 -7 0 -16 5 -18 10 -3 6 -4 5 -3 -2z"/>
<path d="M6332 5338 c-31 -31 4 -107 42 -92 22 9 21 54 -1 54 -15 0 -15 -2 -4
-9 14 -9 9 -41 -7 -41 -18 0 -33 29 -30 56 2 20 10 30 28 35 21 6 22 7 5 8
-12 1 -26 -4 -33 -11z"/>
<path d="M6421 5293 c1 -32 4 -46 6 -30 3 20 10 27 28 27 12 0 25 7 29 15 10
26 -5 45 -35 45 -29 0 -29 0 -28 -57z m54 27 c0 -8 -10 -16 -22 -18 -18 -3
-23 2 -23 18 0 16 5 21 23 18 12 -2 22 -10 22 -18z"/>
<path d="M6523 5295 c0 -33 2 -45 4 -27 2 18 2 45 0 60 -2 15 -4 0 -4 -33z"/>
<path d="M6567 5344 c-13 -14 -7 -81 9 -95 27 -22 49 1 49 52 0 40 -3 44 -25
47 -14 2 -29 0 -33 -4z m51 -46 c-2 -35 -7 -43 -23 -43 -16 0 -21 8 -23 43 -3
39 -2 42 23 42 25 0 26 -3 23 -42z"/>
<path d="M6675 5329 c-15 -18 -15 -20 -2 -10 16 12 17 10 17 -27 0 -30 -4 -42
-17 -45 -10 -3 0 -5 22 -5 22 0 32 2 23 5 -13 3 -18 17 -20 55 l-3 50 -20 -23z"/>
<path d="M8582 5338 c-31 -31 4 -107 42 -92 22 9 21 54 -1 54 -15 0 -15 -2 -4
-9 14 -9 9 -41 -7 -41 -18 0 -33 29 -30 56 2 20 10 30 28 35 21 6 22 7 5 8
-12 1 -26 -4 -33 -11z"/>
<path d="M8671 5293 c1 -32 4 -46 6 -30 3 20 10 27 28 27 12 0 25 7 29 15 10
26 -5 45 -35 45 -29 0 -29 0 -28 -57z m54 27 c0 -8 -10 -16 -22 -18 -18 -3
-23 2 -23 18 0 16 5 21 23 18 12 -2 22 -10 22 -18z"/>
<path d="M8773 5295 c0 -33 2 -45 4 -27 2 18 2 45 0 60 -2 15 -4 0 -4 -33z"/>
<path d="M8827 5343 c-3 -5 8 -8 23 -8 15 0 26 3 23 8 -2 4 -13 7 -23 7 -10 0
-21 -3 -23 -7z"/>
<path d="M8925 5329 c-15 -18 -15 -20 -2 -10 16 12 17 10 17 -27 0 -30 -4 -42
-17 -45 -10 -3 0 -5 22 -5 22 0 32 2 23 5 -13 3 -18 17 -20 55 l-3 50 -20 -23z"/>
<path d="M9022 5338 c-18 -18 -15 -85 3 -92 27 -10 46 5 43 33 -2 18 -10 27
-25 29 -13 2 -23 8 -23 13 0 5 10 14 23 19 13 5 16 9 7 9 -9 1 -21 -4 -28 -11z
m36 -60 c-2 -13 -10 -23 -18 -23 -8 0 -16 10 -18 23 -3 17 2 22 18 22 16 0 21
-5 18 -22z"/>
<path d="M6800 5320 l-45 -6 48 -5 c27 -2 53 -1 59 2 17 11 -14 15 -62 9z"/>
<path d="M8470 5320 l-45 -6 48 -5 c27 -2 53 -1 59 2 17 11 -14 15 -62 9z"/>
<path d="M8812 5300 c0 -14 2 -19 5 -12 2 6 2 18 0 25 -3 6 -5 1 -5 -13z"/>
<path d="M8882 5300 c0 -14 2 -19 5 -12 2 6 2 18 0 25 -3 6 -5 1 -5 -13z"/>
<path d="M6780 5293 c0 -23 57 -47 79 -33 9 5 7 11 -5 21 -12 9 -15 10 -10 2
11 -19 -24 -16 -46 4 -10 9 -18 11 -18 6z"/>
<path d="M8450 5293 c0 -23 57 -47 79 -33 9 5 7 11 -5 21 -12 9 -15 10 -10 2
11 -19 -24 -16 -46 4 -10 9 -18 11 -18 6z"/>
<path d="M8826 5256 c8 -21 28 -20 45 2 13 15 12 16 -3 3 -15 -11 -21 -11 -33
-1 -13 11 -14 10 -9 -4z"/>
<path d="M6337 5142 c-34 -37 -13 -98 30 -90 25 5 31 48 6 47 -10 0 -13 -3 -5
-6 22 -9 14 -35 -10 -31 -17 2 -24 11 -26 31 -4 33 15 60 35 53 8 -3 11 -1 8
4 -9 15 -20 12 -38 -8z"/>
<path d="M6421 5103 c1 -32 4 -48 6 -36 2 13 13 23 25 25 51 7 44 68 -8 68
-23 0 -24 -3 -23 -57z m54 22 c0 -13 -8 -21 -22 -23 -19 -3 -23 1 -23 23 0 22
4 26 23 23 14 -2 22 -10 22 -23z"/>
<path d="M6523 5105 c0 -33 2 -45 4 -27 2 18 2 45 0 60 -2 15 -4 0 -4 -33z"/>
<path d="M6571 5146 c-7 -8 -11 -32 -9 -53 3 -35 5 -38 33 -38 28 0 30 3 33
38 3 39 -10 67 -33 67 -7 0 -18 -6 -24 -14z m47 -44 c3 -39 1 -42 -22 -42 -23
0 -26 4 -26 38 0 43 7 54 30 50 10 -2 16 -17 18 -46z"/>
<path d="M6670 5150 c-11 -8 -8 -9 12 -4 19 4 29 1 37 -13 6 -10 11 -13 11 -7
0 13 -21 34 -34 34 -6 0 -18 -5 -26 -10z"/>
<path d="M8587 5142 c-34 -37 -13 -98 30 -90 25 5 31 48 6 47 -10 0 -13 -3 -5
-6 22 -9 14 -35 -10 -31 -17 2 -24 11 -26 31 -4 32 15 60 35 53 7 -3 13 -1 13
4 0 16 -26 11 -43 -8z"/>
<path d="M8671 5103 c1 -32 4 -48 6 -36 2 13 13 23 25 25 51 7 44 68 -8 68
-23 0 -24 -3 -23 -57z m54 22 c0 -13 -8 -21 -22 -23 -19 -3 -23 1 -23 23 0 22
4 26 23 23 14 -2 22 -10 22 -23z"/>
<path d="M8773 5105 c0 -33 2 -45 4 -27 2 18 2 45 0 60 -2 15 -4 0 -4 -33z"/>
<path d="M8826 5144 c-5 -14 -4 -15 9 -4 12 10 18 10 33 -1 15 -13 16 -12 3 4
-17 21 -37 22 -45 1z"/>
<path d="M8926 5136 c-16 -16 -16 -18 -3 -13 14 5 17 0 17 -28 0 -24 -5 -35
-17 -38 -10 -3 0 -5 22 -5 22 0 32 2 23 5 -12 3 -18 17 -20 51 -3 47 -3 47
-22 28z"/>
<path d="M9018 5153 c12 -2 32 -2 45 0 12 2 2 4 -23 4 -25 0 -35 -2 -22 -4z"/>
<path d="M6800 5129 l-45 -6 48 -1 c36 -2 46 -5 41 -14 -5 -9 -2 -9 9 1 9 7
17 15 17 16 0 8 -30 10 -70 4z"/>
<path d="M8470 5129 l-45 -6 48 -1 c36 -2 46 -5 41 -14 -5 -9 -2 -9 9 1 9 7
17 15 17 16 0 8 -30 10 -70 4z"/>
<path d="M8812 5100 c0 -14 2 -19 5 -12 2 6 2 18 0 25 -3 6 -5 1 -5 -13z"/>
<path d="M8882 5100 c0 -14 2 -19 5 -12 2 6 2 18 0 25 -3 6 -5 1 -5 -13z"/>
<path d="M6685 5080 l-29 -30 40 1 c31 2 34 3 10 6 l-28 5 23 24 c12 13 20 24
18 24 -3 0 -18 -13 -34 -30z"/>
<path d="M6782 5090 c5 -17 61 -31 80 -19 10 7 10 9 -2 10 -8 1 -23 0 -33 -1
-10 -1 -25 4 -34 12 -14 11 -15 11 -11 -2z"/>
<path d="M8455 5087 c7 -17 58 -28 77 -15 14 8 0 12 -35 8 -10 -1 -25 4 -33
11 -12 10 -13 9 -9 -4z"/>
<path d="M8827 5058 c2 -5 13 -8 23 -8 10 0 21 3 23 8 3 4 -8 7 -23 7 -15 0
-26 -3 -23 -7z"/>
<path d="M6338 4949 c-25 -14 -24 -71 2 -86 10 -7 26 -10 35 -7 21 8 19 44 -2
44 -15 0 -16 -2 -3 -10 12 -7 12 -12 3 -21 -18 -18 -43 7 -43 41 0 28 22 46
42 33 7 -3 8 -1 4 5 -9 14 -16 15 -38 1z"/>
<path d="M6421 4903 c1 -32 4 -46 6 -30 3 20 10 27 28 27 27 0 40 26 24 46 -6
8 -22 14 -35 14 -23 0 -24 -3 -23 -57z m54 27 c0 -8 -10 -16 -22 -18 -18 -3
-23 2 -23 18 0 16 5 21 23 18 12 -2 22 -10 22 -18z"/>
<path d="M6523 4905 c0 -33 2 -45 4 -27 2 18 2 45 0 60 -2 15 -4 0 -4 -33z"/>
<path d="M6572 4951 c-8 -5 -12 -22 -10 -46 6 -75 68 -70 68 5 0 45 -25 62
-58 41z m43 -46 c0 -33 -3 -40 -20 -40 -15 0 -21 8 -23 28 -5 39 5 59 25 55
14 -2 18 -13 18 -43z"/>
<path d="M6682 4951 c21 -4 25 -10 18 -20 -6 -10 -3 -19 7 -26 25 -18 9 -48
-22 -43 -13 3 -22 1 -19 -3 8 -14 40 -10 54 6 10 12 10 22 3 38 -7 15 -7 29
-1 40 8 15 4 17 -29 16 -34 -1 -35 -2 -11 -8z"/>
<path d="M8588 4949 c-25 -14 -24 -71 2 -86 10 -7 26 -10 35 -7 21 8 19 44 -2
44 -15 0 -16 -2 -3 -10 12 -7 12 -12 3 -21 -18 -18 -43 7 -43 41 0 27 22 46
41 34 5 -3 9 0 9 5 0 14 -20 14 -42 0z"/>
<path d="M8671 4903 c1 -32 4 -46 6 -30 3 20 10 27 28 27 27 0 40 26 24 46 -6
8 -22 14 -35 14 -23 0 -24 -3 -23 -57z m54 27 c0 -8 -10 -16 -22 -18 -18 -3
-23 2 -23 18 0 16 5 21 23 18 12 -2 22 -10 22 -18z"/>
<path d="M8773 4905 c0 -33 2 -45 4 -27 2 18 2 45 0 60 -2 15 -4 0 -4 -33z"/>
<path d="M8826 4952 c-3 -5 8 -9 25 -9 19 0 25 3 17 9 -17 10 -35 10 -42 0z"/>
<path d="M8925 4939 c-15 -18 -15 -20 -2 -10 16 12 17 10 17 -27 0 -30 -4 -42
-17 -45 -10 -3 0 -5 22 -5 22 0 32 2 23 5 -13 3 -18 17 -20 55 l-3 50 -20 -23z"/>
<path d="M9024 4952 c-6 -4 -12 -26 -12 -48 -2 -43 13 -59 43 -48 27 11 14
104 -15 104 -3 0 -10 -4 -16 -8z m34 -20 c2 -7 -6 -12 -17 -12 -21 0 -27 11
-14 24 9 9 26 2 31 -12z m-1 -38 c8 -21 -13 -42 -28 -27 -13 13 -5 43 11 43 6
0 13 -7 17 -16z"/>
<path d="M6800 4930 l-45 -6 48 -5 c27 -2 53 -1 59 2 17 11 -14 15 -62 9z"/>
<path d="M8470 4930 l-45 -6 48 -5 c27 -2 53 -1 59 2 17 11 -14 15 -62 9z"/>
<path d="M8812 4910 c-1 -26 18 -60 35 -60 20 0 45 38 40 62 -4 22 -4 21 -6
-3 -3 -59 -55 -59 -64 -1 -4 27 -4 27 -5 2z"/>
<path d="M6780 4904 c0 -25 57 -48 81 -33 12 7 11 9 -1 10 -8 1 -23 0 -33 -1
-10 -1 -25 7 -33 17 -7 10 -14 13 -14 7z"/>
<path d="M8450 4904 c0 -25 57 -48 81 -33 12 7 11 9 -1 10 -8 1 -23 0 -33 -1
-10 -1 -25 7 -33 17 -7 10 -14 13 -14 7z"/>
<path d="M6332 4748 c-7 -7 -12 -24 -12 -38 0 -32 17 -50 47 -50 18 0 23 6 23
25 0 17 -5 25 -17 24 -11 0 -13 -3 -5 -6 22 -9 14 -35 -10 -31 -19 2 -23 9
-23 38 0 28 4 35 25 41 21 6 22 7 5 8 -12 1 -26 -4 -33 -11z"/>
<path d="M6421 4708 c1 -29 4 -43 6 -30 3 13 12 22 22 22 24 0 43 23 35 44 -4
10 -18 16 -35 16 -28 0 -29 -1 -28 -52z m54 22 c0 -8 -10 -16 -22 -18 -18 -3
-23 2 -23 18 0 16 5 21 23 18 12 -2 22 -10 22 -18z"/>
<path d="M6523 4710 c0 -30 2 -43 4 -27 2 15 2 39 0 55 -2 15 -4 2 -4 -28z"/>
<path d="M6564 4747 c-3 -8 -4 -30 -2 -49 3 -29 6 -33 33 -33 29 0 30 2 30 45
0 42 -2 45 -28 48 -17 2 -29 -2 -33 -11z m56 -37 c0 -36 -2 -40 -25 -40 -22 0
-25 4 -25 40 0 36 3 40 25 40 23 0 25 -4 25 -40z"/>
<path d="M8582 4748 c-7 -7 -12 -24 -12 -38 0 -32 17 -50 47 -50 18 0 23 6 23
25 0 17 -5 25 -17 24 -11 0 -13 -3 -5 -6 22 -9 14 -35 -10 -31 -19 2 -23 9
-23 38 0 28 4 35 25 41 21 6 22 7 5 8 -12 1 -26 -4 -33 -11z"/>
<path d="M8671 4708 c1 -29 4 -43 6 -30 3 13 12 22 22 22 24 0 43 23 35 44 -4
10 -18 16 -35 16 -28 0 -29 -1 -28 -52z m54 22 c0 -8 -10 -16 -22 -18 -18 -3
-23 2 -23 18 0 16 5 21 23 18 12 -2 22 -10 22 -18z"/>
<path d="M8773 4710 c0 -30 2 -43 4 -27 2 15 2 39 0 55 -2 15 -4 2 -4 -28z"/>
<path d="M8827 4753 c-3 -5 8 -8 23 -8 15 0 26 3 23 8 -2 4 -13 7 -23 7 -10 0
-21 -3 -23 -7z"/>
<path d="M8925 4743 c-16 -13 -17 -15 -2 -10 14 5 17 0 17 -28 0 -24 -5 -35
-17 -38 -10 -3 0 -5 22 -5 22 0 32 2 23 5 -12 3 -18 17 -20 48 -3 42 -4 43
-23 28z"/>
<path d="M9017 4754 c-11 -11 -8 -54 3 -55 6 -1 16 -2 23 -3 6 -1 16 -5 20
-11 4 -5 6 8 5 30 -2 32 -7 41 -23 43 -12 2 -24 0 -28 -4z m41 -26 c-2 -13
-10 -23 -18 -23 -8 0 -16 10 -18 23 -3 17 2 22 18 22 16 0 21 -5 18 -22z"/>
<path d="M6676 4735 c-9 -26 -7 -32 5 -12 6 10 9 21 6 23 -2 3 -7 -2 -11 -11z"/>
<path d="M6843 4743 c5 -8 -6 -13 -40 -15 l-48 -3 48 -5 c57 -6 75 1 51 21
-10 8 -15 9 -11 2z"/>
<path d="M8513 4743 c5 -8 -6 -13 -40 -15 l-48 -3 48 -5 c57 -6 75 1 51 21
-10 8 -15 9 -11 2z"/>
<path d="M6711 4718 c-1 -10 -11 -18 -28 -21 l-28 -4 27 -2 c16 0 28 -8 30
-18 3 -16 5 -15 9 2 3 11 2 29 -2 40 -6 16 -8 17 -8 3z"/>
<path d="M8812 4710 c0 -14 2 -19 5 -12 2 6 2 18 0 25 -3 6 -5 1 -5 -13z"/>
<path d="M8882 4710 c0 -14 2 -19 5 -12 2 6 2 18 0 25 -3 6 -5 1 -5 -13z"/>
<path d="M6782 4700 c2 -8 19 -16 36 -18 22 -2 30 -7 25 -15 -4 -7 1 -6 11 2
20 17 5 31 -25 24 -11 -3 -27 1 -36 8 -14 12 -16 12 -11 -1z"/>
<path d="M8456 4696 c4 -10 18 -16 36 -16 21 0 27 -4 22 -12 -5 -9 -2 -8 10 1
20 17 5 31 -25 24 -11 -3 -26 0 -34 7 -13 11 -14 10 -9 -4z"/>
<path d="M8827 4668 c2 -5 13 -8 23 -8 10 0 21 3 23 8 3 4 -8 7 -23 7 -15 0
-26 -3 -23 -7z"/>
<path d="M9028 4663 c6 -2 18 -2 25 0 6 3 1 5 -13 5 -14 0 -19 -2 -12 -5z"/>
<path d="M6337 4552 c-34 -37 -13 -98 30 -90 25 5 31 48 6 47 -10 0 -13 -3 -5
-6 22 -9 14 -35 -10 -31 -17 2 -24 11 -26 31 -4 33 15 60 35 53 8 -3 11 -1 8
4 -9 15 -20 12 -38 -8z"/>
<path d="M6421 4513 c1 -32 4 -46 6 -30 3 21 10 27 29 27 14 0 27 7 30 15 9
21 -14 45 -42 45 -23 0 -24 -3 -23 -57z m54 27 c0 -8 -10 -16 -22 -18 -18 -3
-23 2 -23 18 0 16 5 21 23 18 12 -2 22 -10 22 -18z"/>
<path d="M6523 4515 c0 -33 2 -45 4 -27 2 18 2 45 0 60 -2 15 -4 0 -4 -33z"/>
<path d="M6571 4556 c-7 -8 -11 -32 -9 -53 3 -35 5 -38 33 -38 28 0 30 3 33
38 3 39 -10 67 -33 67 -7 0 -18 -6 -24 -14z m47 -44 c3 -39 1 -42 -22 -42 -23
0 -26 4 -26 38 0 43 7 54 30 50 10 -2 16 -17 18 -46z"/>
<path d="M6670 4561 c0 -4 11 -6 25 -3 14 2 25 6 25 8 0 2 -11 4 -25 4 -14 0
-25 -4 -25 -9z"/>
<path d="M8587 4552 c-34 -37 -13 -98 30 -90 25 5 31 48 6 47 -10 0 -13 -3 -5
-6 22 -9 14 -35 -10 -31 -17 2 -24 11 -26 31 -4 32 15 60 35 53 7 -3 13 -1 13
4 0 16 -26 11 -43 -8z"/>
<path d="M8671 4513 c1 -32 4 -46 6 -30 3 21 10 27 29 27 14 0 27 7 30 15 9
21 -14 45 -42 45 -23 0 -24 -3 -23 -57z m54 27 c0 -8 -10 -16 -22 -18 -18 -3
-23 2 -23 18 0 16 5 21 23 18 12 -2 22 -10 22 -18z"/>
<path d="M8773 4515 c0 -33 2 -45 4 -27 2 18 2 45 0 60 -2 15 -4 0 -4 -33z"/>
<path d="M8826 4554 c-5 -14 -4 -15 9 -4 12 10 18 10 33 -1 15 -13 16 -12 3 4
-17 21 -37 22 -45 1z"/>
<path d="M8920 4560 c-11 -8 -8 -9 12 -4 44 10 48 -20 7 -62 l-33 -34 40 1
c35 1 36 2 11 8 l-29 6 26 24 c29 28 34 56 10 65 -21 8 -26 7 -44 -4z"/>
<path d="M9022 4558 c-25 -25 -12 -98 18 -98 20 0 30 19 30 59 0 25 -15 51
-30 51 -3 0 -11 -5 -18 -12z m33 -44 c0 -28 -4 -39 -15 -39 -16 0 -26 45 -16
72 11 28 31 7 31 -33z"/>
<path d="M6800 4540 l-45 -6 48 -5 c27 -2 53 -1 59 2 17 11 -14 15 -62 9z"/>
<path d="M8470 4540 l-45 -6 48 -5 c27 -2 53 -1 59 2 17 11 -14 15 -62 9z"/>
<path d="M6660 4522 c0 -4 12 -8 28 -7 20 0 27 -5 27 -20 0 -15 -7 -20 -27
-20 -14 1 -24 -3 -22 -7 9 -15 52 -8 58 8 12 31 -3 54 -35 54 -16 0 -29 -4
-29 -8z"/>
<path d="M8812 4510 c0 -14 2 -19 5 -12 2 6 2 18 0 25 -3 6 -5 1 -5 -13z"/>
<path d="M8882 4510 c0 -14 2 -19 5 -12 2 6 2 18 0 25 -3 6 -5 1 -5 -13z"/>
<path d="M6785 4497 c7 -17 58 -28 77 -15 14 8 0 12 -35 8 -10 -1 -25 4 -33
11 -12 10 -13 9 -9 -4z"/>
<path d="M8456 4496 c6 -16 58 -26 76 -14 15 9 1 12 -39 8 -13 -1 -23 3 -23 9
0 6 -4 11 -10 11 -5 0 -7 -6 -4 -14z"/>
<path d="M8827 4468 c2 -5 13 -8 23 -8 10 0 21 3 23 8 3 4 -8 7 -23 7 -15 0
-26 -3 -23 -7z"/>
<path d="M6332 4358 c-31 -31 4 -107 42 -92 22 9 21 54 -1 54 -15 0 -15 -2 -4
-9 14 -9 9 -41 -7 -41 -18 0 -33 29 -30 56 2 20 10 30 28 35 21 6 22 7 5 8
-12 1 -26 -4 -33 -11z"/>
<path d="M6421 4313 c1 -32 4 -46 6 -30 3 20 10 27 28 27 12 0 25 7 29 15 10
26 -5 45 -35 45 -29 0 -29 0 -28 -57z m54 27 c0 -8 -10 -16 -22 -18 -18 -3
-23 2 -23 18 0 16 5 21 23 18 12 -2 22 -10 22 -18z"/>
<path d="M6523 4315 c0 -33 2 -45 4 -27 2 18 2 45 0 60 -2 15 -4 0 -4 -33z"/>
<path d="M6567 4364 c-13 -14 -7 -81 9 -95 27 -22 49 1 49 52 0 40 -3 44 -25
47 -14 2 -29 0 -33 -4z m51 -46 c-2 -35 -7 -43 -23 -43 -16 0 -21 8 -23 43 -3
39 -2 42 23 42 25 0 26 -3 23 -42z"/>
<path d="M6676 4354 c-5 -13 -3 -14 6 -7 7 6 20 13 28 16 10 4 8 6 -6 6 -12 1
-25 -6 -28 -15z"/>
<path d="M8582 4358 c-31 -31 4 -107 42 -92 22 9 21 54 -1 54 -15 0 -15 -2 -4
-9 14 -9 9 -41 -7 -41 -18 0 -33 29 -30 56 2 20 10 30 28 35 21 6 22 7 5 8
-12 1 -26 -4 -33 -11z"/>
<path d="M8671 4313 c1 -32 4 -46 6 -30 3 20 10 27 28 27 12 0 25 7 29 15 10
26 -5 45 -35 45 -29 0 -29 0 -28 -57z m54 27 c0 -8 -10 -16 -22 -18 -18 -3
-23 2 -23 18 0 16 5 21 23 18 12 -2 22 -10 22 -18z"/>
<path d="M8773 4315 c0 -33 2 -45 4 -27 2 18 2 45 0 60 -2 15 -4 0 -4 -33z"/>
<path d="M8827 4363 c-3 -5 8 -8 23 -8 15 0 26 3 23 8 -2 4 -13 7 -23 7 -10 0
-21 -3 -23 -7z"/>
<path d="M8916 4362 c-3 -4 8 -6 25 -4 40 6 39 -22 -3 -65 l-32 -33 40 1 c32
2 34 3 10 6 l-28 5 27 28 c33 34 30 64 -7 68 -14 2 -29 -1 -32 -6z"/>
<path d="M9025 4349 c-15 -18 -15 -20 -2 -10 16 12 17 10 17 -27 0 -30 -4 -42
-17 -45 -10 -3 -2 -5 17 -6 19 0 30 3 23 7 -6 4 -13 29 -15 56 l-3 48 -20 -23z"/>
<path d="M6800 4340 l-45 -6 48 -5 c27 -2 53 -1 59 2 17 11 -14 15 -62 9z"/>
<path d="M8470 4340 l-45 -6 48 -5 c27 -2 53 -1 59 2 17 11 -14 15 -62 9z"/>
<path d="M8812 4320 c0 -14 2 -19 5 -12 2 6 2 18 0 25 -3 6 -5 1 -5 -13z"/>
<path d="M8882 4320 c0 -14 2 -19 5 -12 2 6 2 18 0 25 -3 6 -5 1 -5 -13z"/>
<path d="M6660 4307 c0 -14 7 -30 16 -38 21 -17 49 0 49 32 0 20 -6 25 -32 27
-29 3 -33 0 -33 -21z m58 -10 c4 -20 -25 -34 -40 -19 -15 15 -1 44 19 40 10
-2 19 -11 21 -21z"/>
<path d="M6780 4313 c0 -23 57 -47 79 -33 9 5 7 11 -5 21 -12 9 -15 10 -10 2
11 -19 -24 -16 -46 4 -10 9 -18 11 -18 6z"/>
<path d="M8450 4313 c0 -23 57 -47 79 -33 9 5 7 11 -5 21 -12 9 -15 10 -10 2
11 -19 -24 -16 -46 4 -10 9 -18 11 -18 6z"/>
<path d="M8826 4276 c8 -21 28 -20 45 2 13 15 12 16 -3 3 -15 -11 -21 -11 -33
-1 -13 11 -14 10 -9 -4z"/>
<path d="M6337 4162 c-34 -37 -13 -98 30 -90 25 5 31 48 6 47 -10 0 -13 -3 -5
-6 22 -9 14 -35 -10 -31 -17 2 -24 11 -26 31 -4 33 15 60 35 53 8 -3 11 -1 8
4 -9 15 -20 12 -38 -8z"/>
<path d="M6421 4123 c1 -32 4 -48 6 -36 2 13 13 23 25 25 51 7 44 68 -8 68
-23 0 -24 -3 -23 -57z m54 22 c0 -13 -8 -21 -22 -23 -19 -3 -23 1 -23 23 0 22
4 26 23 23 14 -2 22 -10 22 -23z"/>
<path d="M6523 4125 c0 -33 2 -45 4 -27 2 18 2 45 0 60 -2 15 -4 0 -4 -33z"/>
<path d="M6571 4166 c-7 -8 -11 -32 -9 -53 3 -35 5 -38 33 -38 28 0 30 3 33
38 3 39 -10 67 -33 67 -7 0 -18 -6 -24 -14z m47 -44 c3 -39 1 -42 -22 -42 -23
0 -26 4 -26 38 0 43 7 54 30 50 10 -2 16 -17 18 -46z"/>
<path d="M6678 4173 c12 -2 30 -2 40 0 9 3 -1 5 -23 4 -22 0 -30 -2 -17 -4z"/>
<path d="M8587 4162 c-34 -37 -13 -98 30 -90 25 5 31 48 6 47 -10 0 -13 -3 -5
-6 22 -9 14 -35 -10 -31 -17 2 -24 11 -26 31 -4 32 15 60 35 53 7 -3 13 -1 13
4 0 16 -26 11 -43 -8z"/>
<path d="M8671 4123 c1 -32 4 -48 6 -36 2 13 13 23 25 25 51 7 44 68 -8 68
-23 0 -24 -3 -23 -57z m54 22 c0 -13 -8 -21 -22 -23 -19 -3 -23 1 -23 23 0 22
4 26 23 23 14 -2 22 -10 22 -23z"/>
<path d="M8773 4125 c0 -33 2 -45 4 -27 2 18 2 45 0 60 -2 15 -4 0 -4 -33z"/>
<path d="M8826 4164 c-5 -14 -4 -15 9 -4 12 10 18 10 33 -1 15 -13 16 -12 3 4
-17 21 -37 22 -45 1z"/>
<path d="M8920 4170 c-11 -7 -7 -9 15 -7 43 3 45 -28 3 -64 l-33 -28 40 1 c30
1 33 2 12 5 l-28 4 26 20 c49 39 17 102 -35 69z"/>
<path d="M9016 4172 c-3 -5 5 -8 17 -8 35 1 33 -32 -5 -65 l-33 -28 40 1 c30
1 33 2 12 5 l-28 4 26 20 c28 23 33 64 9 73 -21 8 -32 8 -38 -2z"/>
<path d="M6800 4149 l-45 -6 48 -1 c36 -2 46 -5 41 -14 -5 -9 -2 -9 9 1 9 7
17 15 17 16 0 8 -30 10 -70 4z"/>
<path d="M8470 4149 l-45 -6 48 -1 c36 -2 46 -5 41 -14 -5 -9 -2 -9 9 1 9 7
17 15 17 16 0 8 -30 10 -70 4z"/>
<path d="M8812 4120 c0 -14 2 -19 5 -12 2 6 2 18 0 25 -3 6 -5 1 -5 -13z"/>
<path d="M8882 4120 c0 -14 2 -19 5 -12 2 6 2 18 0 25 -3 6 -5 1 -5 -13z"/>
<path d="M6782 4110 c5 -17 61 -31 80 -19 10 7 10 9 -2 10 -8 1 -23 0 -33 -1
-10 -1 -25 4 -34 12 -14 11 -15 11 -11 -2z"/>
<path d="M8455 4107 c7 -17 58 -28 77 -15 14 8 0 12 -35 8 -10 -1 -25 4 -33
11 -12 10 -13 9 -9 -4z"/>
<path d="M8827 4078 c2 -5 13 -8 23 -8 10 0 21 3 23 8 3 4 -8 7 -23 7 -15 0
-26 -3 -23 -7z"/>
<path d="M6338 3969 c-25 -14 -24 -71 2 -86 10 -7 26 -10 35 -7 21 8 19 44 -2
44 -15 0 -16 -2 -3 -10 12 -7 12 -12 3 -21 -18 -18 -43 7 -43 41 0 28 22 46
42 33 7 -3 8 -1 4 5 -9 14 -16 15 -38 1z"/>
<path d="M6421 3923 c1 -32 4 -46 6 -30 3 20 10 27 28 27 27 0 40 26 24 46 -6
8 -22 14 -35 14 -23 0 -24 -3 -23 -57z m54 27 c0 -8 -10 -16 -22 -18 -18 -3
-23 2 -23 18 0 16 5 21 23 18 12 -2 22 -10 22 -18z"/>
<path d="M6523 3925 c0 -33 2 -45 4 -27 2 18 2 45 0 60 -2 15 -4 0 -4 -33z"/>
<path d="M6572 3971 c-8 -5 -12 -22 -10 -46 6 -75 68 -70 68 5 0 45 -25 62
-58 41z m43 -46 c0 -33 -3 -40 -20 -40 -15 0 -21 8 -23 28 -5 39 5 59 25 55
14 -2 18 -13 18 -43z"/>
<path d="M6674 3969 c-27 -45 -1 -115 34 -92 18 11 23 69 8 91 -11 15 -33 16
-42 1z m41 -8 c3 -5 1 -13 -5 -16 -15 -9 -43 3 -35 15 8 13 32 13 40 1z m3
-54 c4 -20 -25 -34 -40 -19 -15 15 -1 44 19 40 10 -2 19 -11 21 -21z"/>
<path d="M6800 3950 l-45 -6 48 -5 c27 -2 53 -1 59 2 17 11 -14 15 -62 9z"/>
<path d="M6780 3924 c0 -25 57 -48 81 -33 12 7 11 9 -1 10 -8 1 -23 0 -33 -1
-10 -1 -25 7 -33 17 -7 10 -14 13 -14 7z"/>
<path d="M6332 3768 c-7 -7 -12 -24 -12 -38 0 -32 17 -50 47 -50 18 0 23 6 23
25 0 17 -5 25 -17 24 -11 0 -13 -3 -5 -6 22 -9 14 -35 -10 -31 -19 2 -23 9
-23 38 0 28 4 35 25 41 21 6 22 7 5 8 -12 1 -26 -4 -33 -11z"/>
<path d="M6421 3728 c1 -29 4 -43 6 -30 3 13 12 22 22 22 24 0 43 23 35 44 -4
10 -18 16 -35 16 -28 0 -29 -1 -28 -52z m54 22 c0 -8 -10 -16 -22 -18 -18 -3
-23 2 -23 18 0 16 5 21 23 18 12 -2 22 -10 22 -18z"/>
<path d="M6523 3730 c0 -30 2 -43 4 -27 2 15 2 39 0 55 -2 15 -4 2 -4 -28z"/>
<path d="M6564 3767 c-3 -8 -4 -30 -2 -49 3 -29 6 -33 33 -33 29 0 30 2 30 45
0 42 -2 45 -28 48 -17 2 -29 -2 -33 -11z m56 -37 c0 -36 -2 -40 -25 -40 -22 0
-25 4 -25 40 0 36 3 40 25 40 23 0 25 -4 25 -40z"/>
<path d="M6665 3760 c-8 -24 7 -46 35 -53 22 -6 35 21 25 53 -9 27 -51 27 -60
0z m53 -13 c4 -20 -25 -34 -40 -19 -15 15 -1 44 19 40 10 -2 19 -11 21 -21z"/>
<path d="M8396 3735 c-9 -27 -14 -51 -11 -53 3 -3 5 0 5 6 0 7 14 12 30 12 35
0 35 3 11 49 l-18 34 -17 -48z m28 -23 c-21 -5 -24 0 -17 27 l6 23 13 -23 c11
-20 10 -25 -2 -27z"/>
<path d="M8480 3730 c0 -50 1 -51 27 -48 14 2 28 9 29 16 1 7 0 8 -3 2 -2 -5
-13 -10 -24 -10 -16 0 -19 7 -19 40 0 33 3 40 19 40 11 0 22 -5 24 -10 3 -6 4
-5 3 2 -1 7 -15 14 -29 16 -26 3 -27 2 -27 -48z"/>
<path d="M8585 3769 c-4 -6 -4 -13 -1 -16 3 -4 6 -1 6 6 0 9 9 12 25 9 14 -3
25 -1 25 3 0 13 -48 11 -55 -2z"/>
<path d="M8746 3760 c4 -14 12 -38 18 -55 l12 -30 17 49 c9 27 15 51 13 53 -2
3 -10 -13 -17 -34 l-12 -38 -19 40 c-10 22 -15 29 -12 15z"/>
<path d="M8831 3728 c1 -29 4 -43 6 -30 2 12 9 22 15 22 5 0 19 -10 29 -22
l20 -23 -11 24 c-9 18 -9 25 0 31 24 15 6 45 -28 48 l-32 3 1 -53z m57 25 c-2
-10 -13 -19 -26 -21 -17 -3 -22 2 -22 17 0 16 6 21 26 21 19 0 25 -5 22 -17z"/>
<path d="M8930 3730 l0 -50 33 1 c30 2 30 2 5 6 -35 5 -39 40 -5 46 l22 4 -22
2 c-33 2 -29 29 5 34 25 4 25 4 -5 6 l-33 1 0 -50z"/>
<path d="M9021 3728 c1 -29 4 -41 6 -26 2 15 12 29 21 31 15 4 15 5 0 6 -29 2
-21 29 10 34 25 4 25 4 -5 6 l-33 1 1 -52z"/>
<path d="M6843 3763 c5 -8 -6 -13 -40 -15 l-48 -3 48 -5 c57 -6 75 1 51 21
-10 8 -15 9 -11 2z"/>
<path d="M6782 3720 c2 -8 19 -16 36 -18 22 -2 30 -7 25 -15 -4 -7 1 -6 11 2
20 17 5 31 -25 24 -11 -3 -27 1 -36 8 -14 12 -16 12 -11 -1z"/>
<path d="M8583 3700 c2 -8 16 -16 33 -17 25 -1 26 0 4 4 -14 3 -29 10 -33 17
-6 7 -7 6 -4 -4z"/>
<path d="M6678 3683 c6 -2 18 -2 25 0 6 3 1 5 -13 5 -14 0 -19 -2 -12 -5z"/>
<path d="M8673 3673 c15 -2 37 -2 50 0 12 2 0 4 -28 4 -27 0 -38 -2 -22 -4z"/>
<path d="M6337 3572 c-34 -37 -13 -98 30 -90 25 5 31 48 6 47 -10 0 -13 -3 -5
-6 22 -9 14 -35 -10 -31 -17 2 -24 11 -26 31 -4 33 15 60 35 53 8 -3 11 -1 8
4 -9 15 -20 12 -38 -8z"/>
<path d="M6421 3533 c1 -32 4 -46 6 -30 3 21 10 27 29 27 14 0 27 7 30 15 9
21 -14 45 -42 45 -23 0 -24 -3 -23 -57z m54 27 c0 -8 -10 -16 -22 -18 -18 -3
-23 2 -23 18 0 16 5 21 23 18 12 -2 22 -10 22 -18z"/>
<path d="M6523 3535 c0 -33 2 -45 4 -27 2 18 2 45 0 60 -2 15 -4 0 -4 -33z"/>
<path d="M6571 3576 c-7 -8 -11 -32 -9 -53 3 -35 5 -38 33 -38 28 0 30 3 33
38 3 39 -10 67 -33 67 -7 0 -18 -6 -24 -14z m47 -44 c3 -39 1 -42 -22 -42 -23
0 -26 4 -26 38 0 43 7 54 30 50 10 -2 16 -17 18 -46z"/>
<path d="M6676 3566 c-16 -16 -16 -18 -3 -13 14 5 17 0 17 -28 0 -24 -5 -35
-17 -38 -10 -3 0 -5 22 -5 22 0 32 2 23 5 -12 3 -18 17 -20 51 -3 47 -3 47
-22 28z"/>
<path d="M6772 3581 c-9 -5 -12 -24 -10 -52 2 -34 7 -45 22 -47 10 -2 22 2 27
10 13 19 11 72 -3 86 -14 14 -19 15 -36 3z m33 -47 c0 -29 -4 -40 -17 -42 -15
-3 -18 4 -18 36 0 21 3 42 7 46 15 15 28 -3 28 -40z"/>
<path d="M6895 3560 l-50 -6 53 -4 c30 -3 56 -2 58 2 7 12 -9 14 -61 8z"/>
<path d="M6880 3522 c0 -14 9 -19 40 -23 14 -2 26 1 27 6 1 6 -7 9 -18 7 -11
-2 -27 2 -35 8 -9 8 -14 9 -14 2z"/>
<path d="M6332 3378 c-31 -31 4 -107 42 -92 22 9 21 54 -1 54 -15 0 -15 -2 -4
-9 14 -9 9 -41 -7 -41 -18 0 -33 29 -30 56 2 20 10 30 28 35 21 6 22 7 5 8
-12 1 -26 -4 -33 -11z"/>
<path d="M6421 3333 c1 -32 4 -46 6 -30 3 20 10 27 28 27 12 0 25 7 29 15 10
26 -5 45 -35 45 -29 0 -29 0 -28 -57z m54 27 c0 -8 -10 -16 -22 -18 -18 -3
-23 2 -23 18 0 16 5 21 23 18 12 -2 22 -10 22 -18z"/>
<path d="M6523 3335 c0 -33 2 -45 4 -27 2 18 2 45 0 60 -2 15 -4 0 -4 -33z"/>
<path d="M6567 3384 c-13 -14 -7 -81 9 -95 27 -22 49 1 49 52 0 40 -3 44 -25
47 -14 2 -29 0 -33 -4z m51 -46 c-2 -35 -7 -43 -23 -43 -16 0 -21 8 -23 43 -3
39 -2 42 23 42 25 0 26 -3 23 -42z"/>
<path d="M6675 3369 c-15 -18 -15 -20 -2 -10 16 12 17 10 17 -27 0 -30 -4 -42
-17 -45 -10 -3 0 -5 22 -5 22 0 32 2 23 5 -13 3 -18 17 -20 55 l-3 50 -20 -23z"/>
<path d="M6773 3379 c-7 -7 -13 -18 -13 -23 0 -6 5 -4 10 4 7 11 10 4 10 -27
0 -24 -5 -43 -12 -46 -7 -3 3 -5 22 -5 19 0 27 2 18 5 -13 3 -18 17 -20 54 -2
40 -5 48 -15 38z"/>
<path d="M8137 3383 c-4 -3 -7 -11 -7 -17 0 -7 3 -7 8 0 4 7 18 14 32 17 l25
4 -26 2 c-14 0 -29 -2 -32 -6z"/>
<path d="M8221 3333 c1 -32 4 -46 6 -30 3 20 10 27 28 27 12 0 25 7 29 15 10
26 -5 45 -35 45 -29 0 -29 0 -28 -57z m54 27 c0 -8 -10 -16 -22 -18 -18 -3
-23 2 -23 18 0 16 5 21 23 18 12 -2 22 -10 22 -18z"/>
<path d="M8323 3335 c0 -33 2 -45 4 -27 2 18 2 45 0 60 -2 15 -4 0 -4 -33z"/>
<path d="M8377 3383 c-3 -5 8 -8 23 -8 15 0 26 3 23 8 -2 4 -13 7 -23 7 -10 0
-21 -3 -23 -7z"/>
<path d="M8470 3382 c0 -5 11 -7 25 -4 36 6 33 -24 -7 -65 l-32 -33 40 1 c32
2 34 3 10 6 l-28 5 27 28 c33 35 30 64 -8 68 -15 2 -27 -1 -27 -6z"/>
<path d="M8572 3378 c-7 -7 -12 -29 -12 -49 0 -29 5 -39 20 -44 27 -8 52 12
48 39 -2 15 -12 22 -31 24 -33 4 -31 24 4 33 21 6 21 7 4 8 -12 1 -26 -4 -33
-11z m43 -63 c0 -30 -39 -27 -43 3 -3 20 0 23 20 20 15 -2 23 -10 23 -23z"/>
<path d="M8751 3383 c-1 -6 -4 -20 -7 -30 -5 -15 -4 -15 5 -3 9 12 11 13 11 1
0 -8 2 -12 5 -9 3 3 1 16 -4 29 -5 13 -10 19 -10 12z"/>
<path d="M8820 3335 c0 -60 13 -70 43 -37 32 35 16 92 -25 92 -15 0 -18 -9
-18 -55z m48 12 c3 -28 -12 -57 -29 -57 -5 0 -9 21 -9 46 0 38 3 45 18 42 10
-2 18 -14 20 -31z"/>
<path d="M8922 3378 c-26 -26 -2 -98 34 -98 4 0 -2 7 -14 16 -17 12 -22 24
-20 47 3 28 7 32 31 32 15 -1 27 3 27 7 0 12 -45 9 -58 -4z"/>
<path d="M9016 3374 c-20 -51 8 -110 39 -84 28 23 16 100 -15 100 -10 0 -21
-7 -24 -16z m39 -40 c0 -28 -4 -39 -15 -39 -16 0 -26 45 -16 72 11 28 31 7 31
-33z"/>
<path d="M6895 3360 l-50 -6 53 -4 c30 -3 56 -2 58 2 7 12 -9 14 -61 8z"/>
<path d="M8020 3360 l-45 -6 48 -5 c27 -2 53 -1 59 2 17 11 -14 15 -62 9z"/>
<path d="M8362 3340 c0 -14 2 -19 5 -12 2 6 2 18 0 25 -3 6 -5 1 -5 -13z"/>
<path d="M8432 3340 c0 -14 2 -19 5 -12 2 6 2 18 0 25 -3 6 -5 1 -5 -13z"/>
<path d="M6882 3325 c3 -20 64 -40 74 -24 3 5 -8 9 -25 9 -18 0 -34 7 -41 18
-10 16 -11 15 -8 -3z"/>
<path d="M8012 3326 c3 -21 48 -38 67 -26 9 5 7 11 -5 21 -12 9 -15 10 -10 2
5 -9 1 -13 -13 -13 -11 0 -25 8 -31 18 -10 16 -11 16 -8 -2z"/>
<path d="M8166 3332 c7 -4 14 -16 17 -27 4 -15 5 -14 6 8 1 20 -4 27 -16 27
-12 0 -14 -3 -7 -8z"/>
<path d="M8730 3318 c0 -5 11 -8 25 -8 14 0 25 3 25 8 0 4 -11 7 -25 7 -14 0
-25 -3 -25 -7z"/>
<path d="M8130 3311 c0 -10 29 -36 34 -30 1 2 -6 12 -16 22 -10 9 -18 13 -18
8z"/>
<path d="M8379 3298 c17 -22 37 -23 45 -2 5 14 4 15 -9 4 -12 -10 -18 -10 -32
1 -16 13 -17 12 -4 -3z"/>
<path d="M8720 3292 c0 -7 -19 -13 -47 -14 l-48 -1 44 -4 c41 -4 73 9 58 24
-4 3 -7 1 -7 -5z"/>
<path d="M6337 3182 c-34 -37 -13 -98 30 -90 25 5 31 48 6 47 -10 0 -13 -3 -5
-6 22 -9 14 -35 -10 -31 -17 2 -24 11 -26 31 -4 33 15 60 35 53 8 -3 11 -1 8
4 -9 15 -20 12 -38 -8z"/>
<path d="M6421 3143 c1 -32 4 -48 6 -36 2 13 13 23 25 25 51 7 44 68 -8 68
-23 0 -24 -3 -23 -57z m54 22 c0 -13 -8 -21 -22 -23 -19 -3 -23 1 -23 23 0 22
4 26 23 23 14 -2 22 -10 22 -23z"/>
<path d="M6523 3145 c0 -33 2 -45 4 -27 2 18 2 45 0 60 -2 15 -4 0 -4 -33z"/>
<path d="M6571 3186 c-7 -8 -11 -32 -9 -53 3 -35 5 -38 33 -38 28 0 30 3 33
38 3 39 -10 67 -33 67 -7 0 -18 -6 -24 -14z m47 -44 c3 -39 1 -42 -22 -42 -23
0 -26 4 -26 38 0 43 7 54 30 50 10 -2 16 -17 18 -46z"/>
<path d="M6676 3176 c-16 -16 -16 -18 -3 -13 14 5 17 0 17 -28 0 -24 -5 -35
-17 -38 -10 -3 0 -5 22 -5 22 0 32 2 23 5 -12 3 -18 17 -20 51 -3 47 -3 47
-22 28z"/>
<path d="M6766 3192 c-3 -5 5 -8 17 -8 35 1 33 -32 -5 -65 l-33 -28 40 1 c30
1 33 2 12 5 l-28 4 26 20 c28 23 33 64 9 73 -21 8 -32 8 -38 -2z"/>
<path d="M8142 3188 c-7 -7 -12 -16 -12 -22 0 -5 6 -1 14 9 8 11 19 16 30 12
10 -4 15 -3 11 3 -8 14 -28 13 -43 -2z"/>
<path d="M8221 3143 c1 -32 4 -48 6 -36 2 13 13 23 25 25 51 7 44 68 -8 68
-23 0 -24 -3 -23 -57z m54 22 c0 -13 -8 -21 -22 -23 -19 -3 -23 1 -23 23 0 22
4 26 23 23 14 -2 22 -10 22 -23z"/>
<path d="M8323 3145 c0 -33 2 -45 4 -27 2 18 2 45 0 60 -2 15 -4 0 -4 -33z"/>
<path d="M8379 3183 c-13 -16 -12 -17 4 -4 14 11 20 11 32 1 13 -11 14 -10 9
4 -8 21 -28 20 -45 -1z"/>
<path d="M8476 3192 c-3 -5 5 -8 17 -8 35 1 33 -32 -5 -65 l-33 -28 40 1 c30
1 33 2 12 5 l-28 4 26 20 c28 23 33 64 9 73 -21 8 -32 8 -38 -2z"/>
<path d="M8568 3193 c12 -2 32 -2 45 0 12 2 2 4 -23 4 -25 0 -35 -2 -22 -4z"/>
<path d="M8751 3193 c-1 -6 -4 -20 -7 -30 -5 -15 -4 -15 5 -3 9 12 11 13 11 1
0 -8 2 -12 5 -9 3 3 1 16 -4 29 -5 13 -10 19 -10 12z"/>
<path d="M8820 3145 c0 -46 3 -55 18 -55 42 0 58 63 24 93 -32 30 -42 21 -42
-38z m39 31 c18 -21 10 -70 -11 -74 -15 -3 -18 4 -18 42 0 47 9 57 29 32z"/>
<path d="M8927 3182 c-20 -22 -22 -63 -5 -80 13 -13 58 -16 58 -4 0 4 -12 8
-27 7 -24 0 -28 4 -31 32 -2 23 3 35 20 47 12 9 18 16 12 16 -6 0 -18 -8 -27
-18z"/>
<path d="M9026 3176 c-16 -16 -16 -18 -3 -13 14 5 17 0 17 -28 0 -24 -5 -35
-17 -38 -10 -3 -2 -5 17 -6 19 0 30 3 23 7 -6 4 -13 28 -15 52 -3 45 -3 45
-22 26z"/>
<path d="M6895 3170 l-50 -7 58 -1 c37 -1 56 2 52 8 -3 6 -7 9 -8 8 -1 0 -24
-4 -52 -8z"/>
<path d="M8020 3169 l-45 -6 48 -1 c36 -2 46 -5 41 -14 -5 -9 -2 -9 9 1 9 7
17 15 17 16 0 8 -30 10 -70 4z"/>
<path d="M8362 3140 c0 -14 2 -19 5 -12 2 6 2 18 0 25 -3 6 -5 1 -5 -13z"/>
<path d="M8432 3140 c0 -14 2 -19 5 -12 2 6 2 18 0 25 -3 6 -5 1 -5 -13z"/>
<path d="M6880 3128 c0 -13 8 -18 30 -18 17 0 32 0 35 0 3 0 5 3 5 8 -1 4 -13
5 -27 4 -14 -2 -30 2 -34 10 -7 10 -9 9 -9 -4z"/>
<path d="M8010 3129 c0 -19 51 -31 72 -17 14 9 0 12 -36 8 -10 -1 -23 4 -27
12 -7 10 -9 9 -9 -3z"/>
<path d="M8168 3133 c6 -2 12 -11 12 -19 0 -16 -36 -19 -43 -4 -3 6 -4 5 -3
-2 1 -7 15 -14 29 -16 23 -3 27 0 27 22 0 18 -5 26 -17 25 -11 0 -13 -3 -5 -6z"/>
<path d="M8730 3128 c0 -5 11 -8 25 -8 14 0 25 3 25 8 0 4 -11 7 -25 7 -14 0
-25 -3 -25 -7z"/>
<path d="M8377 3098 c2 -5 13 -8 23 -8 10 0 21 3 23 8 3 4 -8 7 -23 7 -15 0
-26 -3 -23 -7z"/>
<path d="M8720 3102 c0 -7 -19 -13 -47 -14 l-48 -1 44 -4 c41 -4 73 9 58 24
-4 3 -7 1 -7 -5z"/>
<path d="M6338 2989 c-25 -14 -24 -71 2 -86 10 -7 26 -10 35 -7 21 8 19 44 -2
44 -15 0 -16 -2 -3 -10 12 -7 12 -12 3 -21 -18 -18 -43 7 -43 41 0 28 22 46
42 33 7 -3 8 -1 4 5 -9 14 -16 15 -38 1z"/>
<path d="M6421 2943 c1 -32 4 -46 6 -30 3 20 10 27 28 27 27 0 40 26 24 46 -6
8 -22 14 -35 14 -23 0 -24 -3 -23 -57z m54 27 c0 -8 -10 -16 -22 -18 -18 -3
-23 2 -23 18 0 16 5 21 23 18 12 -2 22 -10 22 -18z"/>
<path d="M6523 2945 c0 -33 2 -45 4 -27 2 18 2 45 0 60 -2 15 -4 0 -4 -33z"/>
<path d="M6572 2991 c-8 -5 -12 -22 -10 -46 6 -75 68 -70 68 5 0 45 -25 62
-58 41z m43 -46 c0 -33 -3 -40 -20 -40 -15 0 -21 8 -23 28 -5 39 5 59 25 55
14 -2 18 -13 18 -43z"/>
<path d="M6675 2979 c-15 -18 -15 -20 -2 -10 16 12 17 10 17 -27 0 -30 -4 -42
-17 -45 -10 -3 0 -5 22 -5 22 0 32 2 23 5 -13 3 -18 17 -20 55 l-3 50 -20 -23z"/>
<path d="M6772 2993 c24 -4 27 -7 18 -24 -9 -15 -7 -19 5 -19 11 0 15 -7 13
-22 -2 -19 -9 -23 -32 -21 -21 2 -26 -1 -18 -9 6 -6 22 -8 36 -4 19 5 26 13
26 31 0 13 -5 27 -10 30 -7 4 -7 13 0 26 10 17 7 19 -27 18 -30 -2 -32 -3 -11
-6z"/>
<path d="M8143 2993 c-7 -2 -13 -9 -13 -15 0 -6 6 -6 15 2 8 7 22 10 30 6 9
-3 13 -2 10 4 -7 11 -22 12 -42 3z"/>
<path d="M8221 2943 c1 -32 4 -46 6 -30 3 20 10 27 28 27 27 0 40 26 24 46 -6
8 -22 14 -35 14 -23 0 -24 -3 -23 -57z m54 27 c0 -8 -10 -16 -22 -18 -18 -3
-23 2 -23 18 0 16 5 21 23 18 12 -2 22 -10 22 -18z"/>
<path d="M8323 2945 c0 -33 2 -45 4 -27 2 18 2 45 0 60 -2 15 -4 0 -4 -33z"/>
<path d="M8382 2992 c-8 -6 -2 -9 17 -9 17 0 28 4 25 9 -7 10 -25 10 -42 0z"/>
<path d="M8476 2991 c-4 -5 3 -7 14 -4 36 10 36 -25 -1 -63 l-33 -34 40 1 c35
1 36 2 11 8 l-29 6 26 24 c14 14 26 32 26 42 0 24 -42 39 -54 20z"/>
<path d="M8574 2992 c-6 -4 -12 -26 -12 -49 -2 -34 2 -43 19 -48 29 -10 48 11
45 49 -5 52 -22 68 -52 48z m37 -17 c0 -5 -9 -11 -21 -13 -20 -3 -27 8 -13 22
10 9 34 3 34 -9z m7 -48 c4 -20 -25 -34 -40 -19 -15 15 -1 44 19 40 10 -2 19
-11 21 -21z"/>
<path d="M8751 2993 c-1 -6 -4 -20 -7 -30 -5 -15 -4 -15 5 -3 9 12 11 13 11 1
0 -8 2 -12 5 -9 3 3 1 16 -4 29 -5 13 -10 19 -10 12z"/>
<path d="M8820 2945 c0 -58 9 -67 43 -41 24 18 23 72 -2 86 -35 18 -41 12 -41
-45z m34 39 c29 -11 15 -84 -16 -84 -4 0 -8 20 -8 45 0 48 0 48 24 39z"/>
<path d="M8928 2989 c-35 -20 -14 -97 27 -99 5 0 -1 7 -13 16 -30 21 -30 67 1
82 12 6 18 11 12 11 -5 0 -18 -4 -27 -10z"/>
<path d="M9016 2991 c-4 -5 3 -7 14 -4 36 10 36 -25 -1 -63 l-33 -34 40 1 c35
1 36 2 11 8 l-29 6 26 24 c14 14 26 32 26 42 0 24 -42 39 -54 20z"/>
<path d="M6895 2970 l-50 -6 53 -4 c30 -3 56 -2 58 2 7 12 -9 14 -61 8z"/>
<path d="M8020 2970 l-45 -6 48 -5 c27 -2 53 -1 59 2 17 11 -14 15 -62 9z"/>
<path d="M8361 2949 c-1 -25 25 -59 46 -59 15 0 36 45 30 66 -3 14 -5 12 -6
-7 -2 -59 -55 -59 -64 -1 l-4 27 -2 -26z"/>
<path d="M8121 2944 c0 -11 3 -14 6 -6 3 7 2 16 -1 19 -3 4 -6 -2 -5 -13z"/>
<path d="M6880 2938 c0 -20 7 -25 42 -29 15 -2 27 1 27 6 0 6 -11 9 -24 7 -14
-2 -27 4 -34 15 -9 16 -10 16 -11 1z"/>
<path d="M8012 2936 c3 -22 49 -38 69 -25 12 7 11 9 -1 10 -8 1 -22 0 -29 -1
-8 -1 -21 6 -29 17 -13 17 -14 17 -10 -1z"/>
<path d="M8166 2932 c6 -4 14 -14 17 -22 4 -10 6 -8 6 8 1 15 -5 22 -16 22
-11 0 -14 -3 -7 -8z"/>
<path d="M8730 2928 c0 -5 11 -8 25 -8 14 0 25 3 25 8 0 4 -11 7 -25 7 -14 0
-25 -3 -25 -7z"/>
<path d="M8142 2904 c10 -10 20 -16 22 -13 3 3 -5 11 -17 18 -21 13 -21 12 -5
-5z"/>
<path d="M8720 2902 c0 -7 -19 -13 -47 -14 l-48 -1 44 -4 c41 -4 73 9 58 24
-4 3 -7 1 -7 -5z"/>
<path d="M6332 2788 c-7 -7 -12 -24 -12 -38 0 -32 17 -50 47 -50 18 0 23 6 23
25 0 17 -5 25 -17 24 -11 0 -13 -3 -5 -6 22 -9 14 -35 -10 -31 -19 2 -23 9
-23 38 0 28 4 35 25 41 21 6 22 7 5 8 -12 1 -26 -4 -33 -11z"/>
<path d="M6421 2748 c1 -29 4 -43 6 -30 3 13 12 22 22 22 24 0 43 23 35 44 -4
10 -18 16 -35 16 -28 0 -29 -1 -28 -52z m54 22 c0 -8 -10 -16 -22 -18 -18 -3
-23 2 -23 18 0 16 5 21 23 18 12 -2 22 -10 22 -18z"/>
<path d="M6523 2750 c0 -30 2 -43 4 -27 2 15 2 39 0 55 -2 15 -4 2 -4 -28z"/>
<path d="M6564 2787 c-3 -8 -4 -30 -2 -49 3 -29 6 -33 33 -33 29 0 30 2 30 45
0 42 -2 45 -28 48 -17 2 -29 -2 -33 -11z m56 -37 c0 -36 -2 -40 -25 -40 -22 0
-25 4 -25 40 0 36 3 40 25 40 23 0 25 -4 25 -40z"/>
<path d="M6675 2783 c-16 -13 -17 -15 -2 -10 14 5 17 0 17 -28 0 -24 -5 -35
-17 -38 -10 -3 0 -5 22 -5 22 0 32 2 23 5 -12 3 -18 17 -20 48 -3 42 -4 43
-23 28z"/>
<path d="M6801 2756 c-1 -13 -6 -17 -21 -13 -11 3 -20 1 -20 -4 0 -5 9 -9 19
-9 11 0 22 -8 24 -17 4 -17 5 -17 6 0 0 9 7 17 14 17 8 0 9 3 1 8 -6 4 -14 14
-17 22 -4 11 -6 11 -6 -4z"/>
<path d="M6851 2766 c7 -8 98 -10 105 -3 4 4 -19 7 -51 7 -32 0 -56 -2 -54 -4z"/>
<path d="M6880 2738 c0 -14 9 -18 41 -18 22 0 38 4 35 9 -3 4 -17 6 -32 3 -16
-3 -29 1 -35 9 -7 11 -9 10 -9 -3z"/>
<path d="M6337 2592 c-34 -37 -13 -98 30 -90 25 5 31 48 6 47 -10 0 -13 -3 -5
-6 22 -9 14 -35 -10 -31 -17 2 -24 11 -26 31 -4 33 15 60 35 53 8 -3 11 -1 8
4 -9 15 -20 12 -38 -8z"/>
<path d="M6421 2553 c1 -32 4 -46 6 -30 3 21 10 27 29 27 14 0 27 7 30 15 9
21 -14 45 -42 45 -23 0 -24 -3 -23 -57z m54 27 c0 -8 -10 -16 -22 -18 -18 -3
-23 2 -23 18 0 16 5 21 23 18 12 -2 22 -10 22 -18z"/>
<path d="M6523 2555 c0 -33 2 -45 4 -27 2 18 2 45 0 60 -2 15 -4 0 -4 -33z"/>
<path d="M6571 2596 c-7 -8 -11 -32 -9 -53 3 -35 5 -38 33 -38 28 0 30 3 33
38 3 39 -10 67 -33 67 -7 0 -18 -6 -24 -14z m47 -44 c3 -39 1 -42 -22 -42 -23
0 -26 4 -26 38 0 43 7 54 30 50 10 -2 16 -17 18 -46z"/>
<path d="M6676 2586 c-16 -16 -16 -18 -3 -13 14 5 17 0 17 -28 0 -24 -5 -35
-17 -38 -10 -3 0 -5 22 -5 22 0 32 2 23 5 -12 3 -18 17 -20 51 -3 47 -3 47
-22 28z"/>
<path d="M6760 2581 c0 -25 3 -28 25 -23 22 4 25 1 25 -23 0 -24 -3 -27 -25
-23 -14 3 -25 1 -25 -4 0 -5 12 -8 28 -6 23 3 27 8 27 33 0 23 -5 31 -22 33
-32 5 -29 30 5 35 25 4 25 4 -5 6 -30 1 -33 -2 -33 -28z"/>
<path d="M8741 2603 c-1 -6 -4 -20 -7 -30 -5 -15 -4 -15 5 -3 9 12 11 13 11 1
0 -8 2 -12 5 -9 3 3 1 16 -4 29 -5 13 -10 19 -10 12z"/>
<path d="M8816 2588 c-9 -12 -16 -29 -16 -38 1 -8 7 0 15 19 12 26 20 32 35
28 11 -3 18 -1 14 4 -9 16 -32 10 -48 -13z"/>
<path d="M8902 2553 c1 -57 1 -58 7 -14 l6 44 23 -42 c13 -22 25 -41 28 -41 2
0 3 26 2 58 -1 56 -1 57 -7 13 l-6 -44 -23 42 c-13 22 -25 41 -28 41 -2 0 -3
-26 -2 -57z"/>
<path d="M9010 2555 c0 -46 3 -55 18 -55 42 0 58 63 24 93 -32 30 -42 21 -42
-38z m39 31 c18 -21 10 -70 -11 -74 -15 -3 -18 4 -18 42 0 47 9 57 29 32z"/>
<path d="M6895 2580 l-50 -6 53 -4 c30 -3 56 -2 58 2 7 12 -9 14 -61 8z"/>
<path d="M8620 2580 l-45 -6 48 -5 c27 -2 53 -1 59 2 17 11 -14 15 -62 9z"/>
<path d="M6880 2542 c0 -14 9 -19 40 -23 14 -2 26 1 27 6 1 6 -7 9 -18 7 -11
-2 -27 2 -35 8 -9 8 -14 9 -14 2z"/>
<path d="M8605 2537 c7 -17 58 -28 77 -15 14 8 0 12 -35 8 -10 -1 -25 4 -33
11 -12 10 -13 9 -9 -4z"/>
<path d="M8720 2538 c0 -5 11 -8 25 -8 14 0 25 3 25 8 0 4 -11 7 -25 7 -14 0
-25 -3 -25 -7z"/>
<path d="M8848 2543 c6 -2 12 -11 12 -19 0 -16 -36 -19 -43 -4 -3 6 -4 5 -3
-2 1 -7 15 -14 29 -16 23 -3 27 0 27 22 0 18 -5 26 -17 25 -11 0 -13 -3 -5 -6z"/>
<path d="M7659 2354 c-8 -10 -9 -15 -2 -11 8 5 13 -6 15 -40 l3 -48 5 48 c6
57 -1 75 -21 51z"/>
<path d="M7709 2358 c-1 -7 0 -21 1 -31 1 -10 -4 -25 -12 -34 -11 -14 -11 -15
2 -11 8 2 16 19 18 36 2 22 7 30 15 25 7 -4 6 0 -2 10 -16 20 -21 21 -22 5z"/>
<path d="M7647 2213 c-4 -3 -7 -17 -7 -30 0 -21 4 -23 51 -23 49 0 50 1 47 27
-2 14 -9 28 -16 29 -7 1 -8 0 -2 -3 5 -2 10 -13 10 -24 0 -16 -7 -19 -40 -19
-33 0 -40 3 -40 19 0 11 6 22 13 24 6 3 7 6 1 6 -6 1 -14 -2 -17 -6z"/>
<path d="M7675 2111 l40 -6 -33 -14 c-51 -21 -48 -31 10 -30 51 2 52 2 13 8
l-40 6 33 14 c51 21 48 31 -10 30 -51 -2 -52 -2 -13 -8z"/>
<path d="M7691 2013 c0 -11 3 -13 6 -5 2 6 11 12 19 12 16 0 20 -46 4 -53 -6
-3 -5 -4 2 -3 7 1 14 17 16 34 3 28 0 32 -22 32 -18 0 -26 -5 -25 -17z"/>
<path d="M7643 1996 c1 -17 9 -31 17 -33 10 -3 11 -2 4 4 -7 4 -14 19 -17 33
-4 22 -5 21 -4 -4z"/>
<path d="M1375 5400 c-3 -6 1 -7 9 -4 18 7 21 14 7 14 -6 0 -13 -4 -16 -10z"/>
<path d="M1450 5403 c5 -2 10 -13 10 -24 0 -16 -7 -19 -44 -19 -26 0 -46 5
-49 13 -3 7 -6 5 -6 -5 -1 -15 8 -18 55 -18 54 0 55 1 52 27 -2 14 -9 28 -16
29 -7 1 -8 0 -2 -3z"/>
<path d="M1372 5298 c-7 -7 -12 -20 -12 -30 0 -15 9 -18 56 -18 54 0 55 1 52
27 -2 14 -9 28 -16 29 -7 1 -8 0 -2 -3 5 -2 10 -13 10 -24 0 -16 -7 -19 -45
-19 -48 0 -62 19 -27 39 9 6 12 11 7 11 -6 0 -16 -5 -23 -12z"/>
<path d="M1433 5203 c4 -3 5 -9 1 -14 -7 -12 7 -11 26 1 9 6 10 10 3 10 -6 0
-17 2 -25 3 -7 2 -10 2 -5 0z"/>
<path d="M1430 5106 c0 -34 -5 -56 -12 -59 -7 -3 3 -3 22 0 46 8 60 20 60 53
0 29 -27 60 -53 60 -14 0 -17 -10 -17 -54z m49 30 c20 -24 10 -70 -16 -74 -21
-3 -23 1 -23 42 0 48 16 60 39 32z"/>
<path d="M1551 5153 c-1 -6 -4 -20 -7 -30 -5 -15 -4 -15 5 -3 9 12 11 13 11 1
0 -8 2 -12 5 -9 3 3 1 16 -4 29 -5 13 -10 19 -10 12z"/>
<path d="M1612 5153 c13 -3 18 -18 21 -56 l3 -52 2 52 c2 40 6 53 20 56 9 3
-1 5 -23 5 -22 0 -32 -2 -23 -5z"/>
<path d="M1711 5153 c-1 -6 -4 -20 -7 -30 -5 -15 -4 -15 5 -3 9 12 11 13 11 1
0 -8 2 -12 5 -9 3 3 1 16 -4 29 -5 13 -10 19 -10 12z"/>
<path d="M1530 5088 c0 -5 11 -8 25 -8 14 0 25 3 25 8 0 4 -11 7 -25 7 -14 0
-25 -3 -25 -7z"/>
<path d="M1690 5088 c0 -5 11 -8 25 -8 14 0 25 3 25 8 0 4 -11 7 -25 7 -14 0
-25 -3 -25 -7z"/>
<path d="M1372 5028 c-7 -7 -12 -20 -12 -30 0 -15 9 -18 56 -18 54 0 55 1 52
27 -2 14 -9 28 -16 29 -7 1 -8 0 -2 -3 5 -2 10 -13 10 -24 0 -16 -7 -19 -45
-19 -48 0 -62 19 -27 39 9 6 12 11 7 11 -6 0 -16 -5 -23 -12z"/>
<path d="M1399 4941 l44 -6 -42 -23 c-22 -13 -41 -25 -41 -28 0 -2 26 -3 58
-2 56 1 57 1 13 7 l-44 6 42 23 c22 13 41 25 41 28 0 2 -26 3 -57 2 -57 -1
-58 -1 -14 -7z"/>
<path d="M1421 4833 c0 -10 3 -13 6 -5 9 22 35 14 31 -10 -2 -17 -11 -24 -31
-26 -34 -4 -60 15 -52 37 5 13 4 13 -6 4 -10 -10 -9 -17 6 -33 34 -37 102 -18
93 27 -5 25 -48 31 -47 6z"/>
<path d="M2973 3363 c-14 -5 -18 -63 -4 -63 4 0 6 11 4 24 -7 32 14 42 40 19
56 -49 57 -49 56 -7 -2 31 -3 34 -6 11 l-4 -28 -34 25 c-19 14 -35 26 -37 25
-2 0 -9 -3 -15 -6z"/>
<path d="M6050 5001 c0 -25 3 -28 26 -23 22 4 25 2 22 -19 -2 -18 -9 -24 -26
-23 -14 0 -19 -3 -13 -9 5 -5 19 -6 31 -2 30 10 24 59 -7 63 -32 5 -29 30 5
35 25 4 25 4 -5 6 -30 1 -33 -2 -33 -28z"/>
<path d="M3465 3929 c-15 -18 -15 -20 -2 -10 16 12 17 10 17 -27 0 -30 -4 -42
-17 -45 -10 -3 -2 -5 17 -6 19 0 30 3 23 7 -6 4 -13 29 -15 56 l-3 48 -20 -23z"/>
<path d="M2683 3843 c22 -4 26 -7 17 -18 -8 -9 -7 -14 5 -19 8 -3 15 -15 15
-27 0 -18 -5 -21 -30 -17 -16 3 -30 1 -30 -4 0 -5 15 -8 33 -6 25 2 33 8 35
27 2 13 -2 27 -9 32 -10 6 -10 11 0 23 12 14 9 16 -25 15 -31 -2 -34 -3 -11
-6z"/>
<path d="M6056 4814 c-3 -9 -6 -31 -6 -50 0 -33 2 -35 28 -32 21 2 28 9 30 29
3 22 -2 29 -25 37 l-28 10 25 10 c23 10 23 11 4 11 -12 1 -25 -6 -28 -15z m42
-52 c3 -17 -2 -22 -17 -22 -16 0 -21 6 -21 26 0 33 33 30 38 -4z"/>
<path d="M3276 3225 c-9 -27 -14 -51 -11 -53 3 -3 5 0 5 6 0 7 14 12 30 12 35
0 35 3 11 49 l-18 34 -17 -48z m28 -23 c-21 -5 -24 0 -17 27 l6 23 13 -23 c11
-20 10 -25 -2 -27z"/>
<path d="M3439 3255 c-9 -34 5 -80 24 -81 12 -1 13 -1 2 3 -21 6 -19 50 3 56
15 4 15 5 0 6 -9 0 -18 9 -20 19 -3 15 -4 14 -9 -3z"/>
<path d="M3495 3260 c3 -5 8 -10 11 -10 2 0 4 5 4 10 0 6 -5 10 -11 10 -5 0
-7 -4 -4 -10z"/>
<path d="M3700 3220 l0 -51 33 3 c31 3 32 5 32 48 0 43 -1 45 -32 48 l-33 3 0
-51z m55 25 c0 -5 -10 -11 -22 -13 -16 -2 -23 2 -23 13 0 11 7 15 23 13 12 -2
22 -7 22 -13z m3 -47 c3 -13 -3 -18 -22 -18 -20 0 -26 5 -26 21 0 15 5 20 22
17 13 -2 24 -11 26 -20z"/>
<path d="M3354 3216 c-8 -33 2 -46 34 -45 l27 1 -25 7 c-16 4 -25 14 -25 26 0
12 9 22 25 26 l25 7 -27 1 c-21 1 -29 -5 -34 -23z"/>
<path d="M3503 3205 c0 -22 2 -30 4 -17 2 12 2 30 0 40 -3 9 -5 -1 -4 -23z"/>
<path d="M3546 3220 c13 -50 21 -54 33 -20 6 18 9 35 7 37 -2 3 -7 -6 -11 -18
l-7 -22 -15 24 -14 24 7 -25z"/>
<path d="M3620 3205 c0 -32 2 -35 28 -34 21 1 22 3 6 6 -25 5 -31 53 -7 53 8
0 11 -4 8 -10 -3 -5 -1 -10 4 -10 6 0 11 7 11 15 0 9 -9 15 -25 15 -22 0 -25
-4 -25 -35z"/>
<path d="M3803 3208 c1 -26 7 -34 25 -36 20 -3 22 1 20 35 -1 37 -1 37 -5 6
-5 -42 -30 -43 -37 -3 -6 30 -6 30 -3 -2z"/>
<path d="M3898 3233 l22 -4 -21 -30 -20 -29 33 1 c24 1 27 3 10 6 l-22 4 21
30 20 29 -33 -1 c-24 -1 -27 -3 -10 -6z"/>
<path d="M3978 3233 l22 -4 -21 -30 -20 -29 33 1 c24 1 27 3 10 6 l-22 4 21
30 20 29 -33 -1 c-24 -1 -27 -3 -10 -6z"/>
<path d="M4044 3226 c-11 -30 1 -51 29 -52 22 -1 23 -1 3 3 -31 5 -35 53 -4
53 10 0 16 -4 13 -10 -3 -5 -1 -10 4 -10 6 0 11 7 11 15 0 20 -49 20 -56 1z"/>
<path d="M4131 3203 c1 -27 3 -31 6 -13 2 14 12 31 21 38 14 11 13 12 -6 12
-19 0 -22 -5 -21 -37z"/>
<path d="M6058 4633 c12 -2 32 -2 45 0 12 2 2 4 -23 4 -25 0 -35 -2 -22 -4z"/>
<path d="M6052 4408 c2 -25 8 -33 23 -33 11 0 24 -4 28 -10 4 -5 6 8 5 30 -3
36 -6 40 -31 43 -27 3 -28 1 -25 -30z m46 0 c-5 -34 -38 -37 -38 -4 0 20 5 26
21 26 15 0 20 -5 17 -22z"/>
<path d="M6065 4340 c-13 -6 -15 -9 -5 -9 8 0 22 4 30 9 18 12 2 12 -25 0z"/>
<path d="M6016 4226 c-16 -16 -16 -18 -3 -13 14 5 17 0 17 -28 0 -24 -5 -35
-17 -38 -10 -3 -2 -5 17 -6 19 0 30 3 23 7 -6 4 -13 28 -15 52 -3 45 -3 45
-22 26z"/>
<path d="M6113 4243 c-7 -3 -13 -9 -13 -15 0 -7 4 -7 13 1 10 8 17 7 25 -1 8
-8 12 -9 12 -1 0 13 -20 22 -37 16z"/>
<path d="M6091 4194 c0 -11 3 -14 6 -6 3 7 2 16 -1 19 -3 4 -6 -2 -5 -13z"/>
<path d="M6151 4194 c0 -11 3 -14 6 -6 3 7 2 16 -1 19 -3 4 -6 -2 -5 -13z"/>
<path d="M6104 4158 c2 -7 11 -13 21 -13 10 0 19 6 21 13 1 7 0 8 -3 2 -2 -5
-11 -10 -18 -10 -7 0 -16 5 -18 10 -3 6 -4 5 -3 -2z"/>
<path d="M6015 4029 c-15 -18 -15 -20 -2 -10 16 12 17 10 17 -27 0 -30 -4 -42
-17 -45 -10 -3 -2 -5 17 -6 19 0 30 3 23 7 -6 4 -13 29 -15 56 l-3 48 -20 -23z"/>
<path d="M6105 4029 c-15 -18 -15 -20 -2 -10 16 12 17 10 17 -27 0 -30 -4 -42
-17 -45 -10 -3 0 -5 22 -5 22 0 32 2 23 5 -13 3 -18 17 -20 55 l-3 50 -20 -23z"/>
<path d="M6015 3833 c-16 -13 -17 -15 -2 -10 14 5 17 0 17 -28 0 -24 -5 -35
-17 -38 -10 -3 -2 -5 17 -6 19 0 30 3 23 7 -6 4 -13 26 -15 49 -3 40 -4 41
-23 26z"/>
<path d="M6096 3842 c-3 -6 3 -8 14 -5 11 3 28 -1 37 -8 14 -12 16 -12 11 1
-5 17 -53 26 -62 12z"/>
<path d="M6115 3780 l-29 -30 40 1 c31 2 34 3 10 6 l-28 5 23 24 c12 13 20 24
18 24 -3 0 -18 -13 -34 -30z"/>
<path d="M6016 3636 c-16 -16 -16 -18 -3 -13 14 5 17 0 17 -28 0 -24 -5 -35
-17 -38 -10 -3 -2 -5 17 -6 19 0 30 3 23 7 -6 4 -13 28 -15 52 -3 45 -3 45
-22 26z"/>
<path d="M6106 3625 c-9 -26 -7 -32 5 -12 6 10 9 21 6 23 -2 3 -7 -2 -11 -11z"/>
<path d="M6141 3613 c-1 -16 -9 -23 -28 -26 l-28 -4 27 -2 c16 0 28 -8 30 -18
3 -16 4 -15 9 2 3 11 2 31 -2 45 -6 23 -7 23 -8 3z"/>
<path d="M6015 3439 c-15 -18 -15 -20 -2 -10 16 12 17 10 17 -27 0 -30 -4 -42
-17 -45 -10 -3 -2 -5 17 -6 19 0 30 3 23 7 -6 4 -13 29 -15 56 l-3 48 -20 -23z"/>
<path d="M6100 3451 c0 -4 11 -6 25 -3 14 2 25 6 25 8 0 2 -11 4 -25 4 -14 0
-25 -4 -25 -9z"/>
<path d="M6090 3419 c0 -5 14 -9 31 -9 26 0 30 -3 27 -22 -2 -19 -9 -23 -33
-21 -28 1 -29 1 -8 -9 28 -14 55 6 51 36 -2 14 -13 22 -35 27 -18 4 -33 3 -33
-2z"/>
<path d="M6016 3246 c-16 -16 -16 -18 -3 -13 14 5 17 0 17 -28 0 -24 -5 -35
-17 -38 -10 -3 -2 -5 17 -6 19 0 30 3 23 7 -6 4 -13 28 -15 52 -3 45 -3 45
-22 26z"/>
<path d="M6116 3261 c-4 -5 3 -7 14 -4 23 6 26 13 6 13 -8 0 -17 -4 -20 -9z"/>
<path d="M6095 3219 c-10 -31 4 -59 30 -59 27 0 43 33 25 54 -19 24 -49 26
-55 5z m53 -22 c4 -20 -25 -34 -40 -19 -15 15 -1 44 19 40 10 -2 19 -11 21
-21z"/>
<path d="M6015 3049 c-15 -18 -15 -20 -2 -10 16 12 17 10 17 -27 0 -30 -4 -42
-17 -45 -10 -3 -2 -5 17 -6 19 0 30 3 23 7 -6 4 -13 29 -15 56 l-3 48 -20 -23z"/>
<path d="M6108 3063 c12 -2 30 -2 40 0 9 3 -1 5 -23 4 -22 0 -30 -2 -17 -4z"/>
<path d="M6015 2853 c-16 -13 -17 -15 -2 -10 14 5 17 0 17 -28 0 -24 -5 -35
-17 -38 -10 -3 -2 -5 17 -6 19 0 30 3 23 7 -6 4 -13 26 -15 49 -3 40 -4 41
-23 26z"/>
<path d="M6094 2856 c-9 -23 2 -45 28 -55 l23 -9 -25 -10 c-23 -10 -23 -11 -4
-11 24 -1 48 44 42 76 -4 24 -56 31 -64 9z m54 -19 c4 -20 -25 -34 -40 -19
-15 15 -1 44 19 40 10 -2 19 -11 21 -21z"/>
<path d="M6006 2672 c-3 -5 6 -7 19 -4 36 6 33 -24 -7 -65 l-32 -33 40 1 c32
2 34 3 10 6 l-28 5 27 28 c15 15 25 36 23 47 -3 19 -42 31 -52 15z"/>
<path d="M6113 2673 c-7 -3 -13 -9 -13 -15 0 -7 4 -7 13 1 10 8 17 7 25 -1 8
-8 12 -9 12 -1 0 13 -20 22 -37 16z"/>
<path d="M6091 2624 c0 -11 3 -14 6 -6 3 7 2 16 -1 19 -3 4 -6 -2 -5 -13z"/>
<path d="M6151 2624 c0 -11 3 -14 6 -6 3 7 2 16 -1 19 -3 4 -6 -2 -5 -13z"/>
<path d="M6104 2588 c2 -7 11 -13 21 -13 10 0 19 6 21 13 1 7 0 8 -3 2 -2 -5
-11 -10 -18 -10 -7 0 -16 5 -18 10 -3 6 -4 5 -3 -2z"/>
<path d="M5376 2212 c-3 -5 5 -8 17 -8 35 1 33 -32 -5 -65 l-33 -28 40 1 c30
1 33 2 12 5 l-28 4 26 20 c28 23 33 64 9 73 -21 8 -32 8 -38 -2z"/>
<path d="M5466 2212 c-3 -5 6 -7 19 -4 38 7 33 -34 -7 -69 l-33 -28 40 1 c30
1 33 2 12 5 l-28 4 26 21 c33 26 32 71 -2 76 -11 2 -24 -1 -27 -6z"/>
<path d="M5573 2213 c-7 -3 -13 -9 -13 -15 0 -7 4 -7 13 1 10 8 17 7 25 -1 8
-8 12 -9 12 -1 0 13 -20 22 -37 16z"/>
<path d="M5731 2206 c-7 -8 -11 -32 -9 -53 2 -31 7 -39 27 -41 13 -2 27 0 32
5 6 6 -2 8 -21 5 -29 -4 -30 -3 -30 37 0 47 19 62 48 40 15 -13 16 -12 3 4
-16 21 -35 22 -50 3z"/>
<path d="M5833 2165 c0 -33 2 -45 4 -27 3 18 10 32 18 32 8 0 15 -14 18 -32
l4 -33 1 33 c2 26 -3 35 -17 39 -11 3 -22 15 -24 27 -2 11 -4 -6 -4 -39z"/>
<path d="M5551 2167 c-1 -26 17 -57 34 -57 17 0 35 31 34 57 0 10 -5 3 -10
-14 -5 -18 -16 -33 -24 -33 -8 0 -19 15 -24 33 -5 17 -10 24 -10 14z"/>
<path d="M5792 2160 c0 -14 2 -19 5 -12 2 6 2 18 0 25 -3 6 -5 1 -5 -13z"/>
<path d="M5922 2143 c1 -37 1 -37 5 -5 3 18 10 32 18 32 8 0 15 -14 18 -32 l4
-33 1 33 c1 20 7 32 16 32 9 0 16 -13 19 -32 4 -32 4 -32 5 5 l2 37 -45 0 -45
0 2 -37z"/>
<path d="M6045 2170 c-8 -14 3 -30 21 -30 23 0 16 -18 -8 -23 -20 -4 -19 -4 5
-6 21 -1 27 4 27 19 0 13 -7 20 -20 20 -27 0 -25 18 3 23 22 4 22 4 0 6 -12 0
-25 -3 -28 -9z"/>
<path d="M7571 1714 c1 -37 2 -38 8 -9 4 21 9 26 15 17 6 -10 11 -10 21 4 18
26 49 11 43 -21 -3 -14 -1 -25 3 -25 5 0 9 14 9 30 0 36 -23 49 -52 31 -15 -9
-23 -9 -34 0 -12 10 -14 5 -13 -27z"/>
<path d="M3253 3934 c-14 -38 49 -71 83 -43 15 12 19 45 6 53 -4 2 -8 -8 -7
-22 0 -24 -4 -27 -35 -27 -32 0 -35 3 -35 28 1 31 -3 34 -12 11z"/>
<path d="M3252 3823 c2 -14 10 -28 18 -30 12 -4 13 -3 1 5 -8 6 -12 19 -8 31
3 12 1 21 -5 21 -5 0 -8 -12 -6 -27z"/>
<path d="M3337 3829 c4 -12 0 -25 -8 -31 -12 -8 -11 -9 1 -5 17 4 27 57 12 57
-6 0 -8 -9 -5 -21z"/>
<path d="M2833 3815 c-8 -22 25 -55 57 -55 32 0 50 17 50 47 0 18 -6 23 -25
23 -17 0 -25 -5 -24 -17 0 -11 3 -13 6 -5 9 22 35 14 31 -10 -2 -17 -11 -24
-31 -26 -34 -4 -60 15 -54 40 6 22 -1 24 -10 3z"/>
<path d="M3285 3742 l40 -19 -38 -12 c-21 -7 -37 -15 -34 -17 2 -2 26 4 53 13
l49 17 -30 12 c-52 20 -82 25 -40 6z"/>
<path d="M2858 3723 c18 -2 45 -2 60 0 15 2 0 4 -33 4 -33 0 -45 -2 -27 -4z"/>
<path d="M2897 3683 c-14 -13 -7 -25 8 -13 16 13 18 10 28 -35 3 -13 5 -9 6
11 1 21 -5 34 -15 38 -19 7 -19 7 -27 -1z"/>
<path d="M2831 3660 c-1 -37 48 -56 55 -22 1 7 0 8 -3 2 -9 -18 -33 -11 -43
13 -5 12 -9 15 -9 7z"/>
<path d="M2990 3566 c0 -2 7 -7 16 -10 8 -3 12 -2 9 4 -6 10 -25 14 -25 6z"/>
<path d="M3060 3515 c0 -32 2 -56 4 -54 8 8 10 98 3 105 -4 4 -7 -19 -7 -51z"/>
<path d="M3108 3524 c-2 -25 0 -51 4 -57 4 -7 8 14 8 46 0 68 -7 75 -12 11z"/>
<path d="M3160 3514 c0 -54 0 -55 28 -52 24 3 27 8 30 42 2 21 0 42 -5 47 -4
4 -6 -12 -5 -36 4 -40 2 -45 -17 -45 -18 0 -21 6 -21 44 0 26 5 46 13 49 7 3
5 6 -5 6 -15 1 -18 -8 -18 -55z"/>
<path d="M2960 3539 c-6 -11 -10 -25 -8 -30 2 -5 8 4 15 21 13 34 9 40 -7 9z"/>
<path d="M3007 3490 c4 -15 0 -20 -15 -20 -11 0 -23 5 -25 10 -3 6 -4 5 -3 -2
1 -7 15 -14 29 -16 23 -3 27 0 27 22 0 14 -4 26 -9 26 -5 0 -7 -9 -4 -20z"/>
<path d="M11583 3544 c-14 -38 49 -71 83 -43 15 12 19 45 6 53 -4 2 -8 -8 -7
-22 0 -24 -4 -27 -35 -27 -32 0 -35 3 -35 28 1 31 -3 34 -12 11z"/>
<path d="M11583 3444 c-14 -38 49 -71 83 -43 15 12 19 45 6 53 -4 2 -8 -8 -7
-22 0 -24 -4 -27 -35 -27 -32 0 -35 3 -35 28 1 31 -3 34 -12 11z"/>
<path d="M11068 3399 c-35 -20 -8 -60 39 -58 10 0 3 5 -14 10 -18 5 -33 16
-33 24 0 8 15 19 33 24 19 6 24 9 12 10 -11 0 -28 -4 -37 -10z"/>
<path d="M11138 3388 c8 -8 9 -15 1 -25 -8 -9 -8 -13 -1 -13 13 0 21 21 14 38
-2 6 -9 12 -15 12 -8 0 -7 -4 1 -12z"/>
<path d="M11615 3352 l40 -19 -38 -12 c-21 -7 -37 -15 -34 -17 2 -2 26 4 53
13 l49 17 -30 12 c-52 20 -82 25 -40 6z"/>
<path d="M11115 3285 c0 -14 3 -25 8 -25 4 0 7 11 7 25 0 14 -3 25 -7 25 -5 0
-8 -11 -8 -25z"/>
<path d="M11066 3291 c-19 -7 -18 -8 4 -14 13 -3 26 -4 29 -2 2 3 -2 5 -10 5
-11 0 -11 2 1 10 18 11 3 12 -24 1z"/>
<path d="M11320 3176 c0 -2 7 -7 16 -10 8 -3 12 -2 9 4 -6 10 -25 14 -25 6z"/>
<path d="M11390 3125 c0 -32 2 -56 4 -54 8 8 10 98 3 105 -4 4 -7 -19 -7 -51z"/>
<path d="M11438 3134 c-2 -25 0 -51 4 -57 4 -7 8 14 8 46 0 68 -7 75 -12 11z"/>
<path d="M11490 3124 c0 -54 0 -55 28 -52 24 3 27 8 30 42 2 21 0 42 -5 47 -4
4 -6 -12 -5 -36 4 -40 2 -45 -17 -45 -18 0 -21 6 -21 44 0 26 5 46 13 49 7 3
5 6 -5 6 -15 1 -18 -8 -18 -55z"/>
<path d="M11295 3159 c-4 -6 -5 -12 -2 -15 2 -3 7 2 10 11 7 17 1 20 -8 4z"/>
<path d="M11337 3100 c4 -15 0 -20 -15 -20 -11 0 -23 5 -25 10 -3 6 -4 5 -3
-2 1 -7 15 -14 29 -16 23 -3 27 0 27 22 0 14 -4 26 -9 26 -5 0 -7 -9 -4 -20z"/>
<path d="M10700 3303 c0 -13 28 -25 41 -17 5 3 9 10 9 16 0 7 -4 7 -13 -1 -10
-8 -17 -7 -25 1 -8 8 -12 9 -12 1z"/>
<path d="M9252 3261 c21 -4 25 -10 18 -20 -6 -10 -3 -19 7 -26 25 -18 9 -48
-22 -43 -14 3 -25 1 -25 -3 0 -5 13 -9 29 -9 33 0 51 31 31 55 -8 10 -8 19 0
34 10 20 8 21 -27 20 -34 -1 -35 -2 -11 -8z"/>
<path d="M9336 3262 c-3 -5 5 -8 17 -8 35 1 33 -32 -5 -65 l-33 -28 40 1 c30
1 33 2 12 5 l-28 4 26 20 c28 23 33 64 9 73 -21 8 -32 8 -38 -2z"/>
<path d="M9252 3061 c21 -4 25 -10 18 -20 -6 -10 -3 -19 7 -26 25 -18 9 -48
-22 -43 -13 3 -22 1 -19 -3 8 -14 40 -10 54 6 10 12 10 22 3 38 -7 15 -7 29
-1 40 8 15 4 17 -29 16 -34 -1 -35 -2 -11 -8z"/>
<path d="M9371 3021 c-1 -18 -5 -22 -21 -18 -11 3 -20 1 -20 -4 0 -5 9 -9 19
-9 11 0 22 -8 24 -17 4 -17 5 -17 6 0 0 9 7 17 14 17 8 0 9 2 1 8 -7 4 -14 16
-17 27 -4 17 -5 17 -6 -4z"/>
<path d="M11297 2963 c-10 -9 -8 -53 2 -53 4 0 6 11 3 25 -6 36 24 33 65 -7
l33 -32 -1 40 c-1 35 -2 36 -8 11 l-6 -29 -24 26 c-24 25 -51 33 -64 19z"/>
<path d="M9252 2671 c21 -4 25 -10 18 -20 -6 -10 -3 -19 7 -26 25 -18 9 -48
-22 -43 -14 3 -25 1 -25 -3 0 -5 13 -9 29 -9 33 0 49 28 32 57 -6 11 -6 24 0
35 9 16 5 18 -28 17 -34 -1 -35 -2 -11 -8z"/>
<path d="M9342 2673 c24 -4 27 -7 18 -24 -8 -15 -7 -19 5 -19 10 0 15 -9 15
-26 0 -24 -3 -26 -30 -22 -19 3 -27 1 -21 -5 5 -5 19 -7 32 -5 26 3 39 42 20
61 -7 7 -7 16 0 29 9 16 6 18 -28 17 -30 -2 -32 -3 -11 -6z"/>
<path d="M7891 1673 c1 -32 4 -48 6 -35 2 12 7 22 10 22 2 0 14 -10 24 -22
l20 -23 -12 25 c-9 18 -9 25 0 28 17 6 13 49 -5 56 -38 15 -44 8 -43 -51z m44
22 c0 -11 -8 -21 -17 -23 -14 -3 -18 3 -18 23 0 20 4 26 18 23 9 -2 17 -12 17
-23z"/>
<path d="M8241 1678 c-1 -55 0 -58 23 -58 13 0 27 7 30 16 10 25 -3 54 -24 54
-11 0 -20 9 -23 23 -2 12 -5 -4 -6 -35z m44 -23 c0 -11 -8 -21 -17 -23 -14 -3
-18 3 -18 23 0 20 4 26 18 23 9 -2 17 -12 17 -23z"/>
<path d="M8611 1673 c1 -32 4 -48 6 -36 2 13 13 23 25 25 51 7 44 68 -8 68
-23 0 -24 -3 -23 -57z m54 22 c0 -13 -8 -21 -22 -23 -19 -3 -23 1 -23 23 0 22
4 26 23 23 14 -2 22 -10 22 -23z"/>
<path d="M8705 1720 c-3 -5 -1 -10 4 -10 6 0 11 5 11 10 0 6 -2 10 -4 10 -3 0
-8 -4 -11 -10z"/>
<path d="M8831 1673 c1 -32 4 -48 6 -36 2 13 13 23 25 25 51 7 44 68 -8 68
-23 0 -24 -3 -23 -57z m54 22 c0 -13 -8 -21 -22 -23 -19 -3 -23 1 -23 23 0 22
4 26 23 23 14 -2 22 -10 22 -23z"/>
<path d="M8925 1720 c-3 -5 -1 -10 4 -10 6 0 11 5 11 10 0 6 -2 10 -4 10 -3 0
-8 -4 -11 -10z"/>
<path d="M9226 1722 c-3 -5 5 -8 17 -8 35 1 33 -32 -5 -65 -25 -21 -43 -28
-77 -29 -24 0 -42 -3 -38 -6 3 -4 41 -3 84 2 43 4 65 10 50 12 l-28 3 26 20
c28 23 33 64 9 73 -21 8 -32 8 -38 -2z"/>
<path d="M9341 1664 c-7 -19 -11 -38 -8 -40 2 -3 8 8 12 23 l8 28 13 -30 c17
-39 18 -17 1 24 l-13 31 -13 -36z"/>
<path d="M8008 1683 c12 -2 22 -8 22 -13 0 -5 -10 -10 -22 -12 -33 -4 -29 -32
5 -36 27 -3 28 -1 25 30 -2 27 -7 33 -28 35 -22 1 -22 1 -2 -4z m22 -43 c0 -5
-9 -10 -20 -10 -11 0 -20 5 -20 10 0 6 9 10 20 10 11 0 20 -4 20 -10z"/>
<path d="M8070 1670 c0 -13 7 -20 20 -20 27 0 25 -18 -2 -23 -20 -4 -19 -4 5
-6 21 -1 27 4 27 19 0 13 -7 20 -20 20 -27 0 -25 18 3 23 19 4 18 4 -5 6 -22
1 -28 -4 -28 -19z"/>
<path d="M8151 1633 c1 -32 4 -48 6 -36 3 13 13 23 26 25 17 2 22 10 22 33 0
25 -4 30 -27 33 -28 3 -28 3 -27 -55z m49 22 c0 -18 -5 -25 -20 -25 -15 0 -20
7 -20 25 0 18 5 25 20 25 15 0 20 -7 20 -25z"/>
<path d="M8330 1655 c0 -32 2 -35 28 -34 21 1 22 3 6 6 -25 5 -31 53 -7 53 8
0 11 -4 8 -10 -3 -5 -1 -10 4 -10 6 0 11 7 11 15 0 9 -9 15 -25 15 -22 0 -25
-4 -25 -35z"/>
<path d="M8411 1653 c1 -27 3 -31 6 -13 2 14 12 31 21 38 14 11 13 12 -6 12
-19 0 -22 -5 -21 -37z"/>
<path d="M8481 1653 c2 -35 2 -35 6 -8 3 16 10 33 16 37 8 5 6 8 -5 8 -14 0
-18 -8 -17 -37z"/>
<path d="M8530 1689 c0 -3 5 -20 11 -37 8 -22 7 -36 -1 -52 -7 -13 -7 -20 -2
-16 11 7 44 97 38 103 -2 3 -7 -6 -11 -18 l-7 -22 -14 24 c-7 13 -13 21 -14
18z"/>
<path d="M8713 1655 c0 -22 2 -30 4 -17 2 12 2 30 0 40 -3 9 -5 -1 -4 -23z"/>
<path d="M8933 1655 c0 -22 2 -30 4 -17 2 12 2 30 0 40 -3 9 -5 -1 -4 -23z"/>
<path d="M8974 1676 c-11 -30 1 -51 29 -52 25 -1 25 -1 2 3 -37 6 -35 50 3 56
l27 4 -28 2 c-16 0 -30 -5 -33 -13z"/>
<path d="M9055 1671 c-9 -28 5 -51 30 -51 25 0 39 23 30 51 -4 12 -16 19 -30
19 -14 0 -26 -7 -30 -19z m53 -14 c4 -20 -25 -34 -40 -19 -15 15 -1 44 19 40
10 -2 19 -11 21 -21z"/>
<path d="M9321 1674 c0 -11 3 -14 6 -6 3 7 2 16 -1 19 -3 4 -6 -2 -5 -13z"/>
<path d="M9381 1674 c0 -11 3 -14 6 -6 3 7 2 16 -1 19 -3 4 -6 -2 -5 -13z"/>
<path d="M8753 1613 c15 -2 37 -2 50 0 12 2 0 4 -28 4 -27 0 -38 -2 -22 -4z"/>
<path d="M5275 499 c-15 -18 -15 -20 -2 -10 16 12 17 10 17 -27 0 -30 -4 -42
-17 -45 -10 -3 0 -5 22 -5 22 0 32 2 23 5 -13 3 -18 17 -20 55 l-3 50 -20 -23z"/>
<path d="M5650 1376 c0 -47 3 -56 18 -56 20 0 42 18 42 35 0 5 -5 2 -11 -7
-20 -35 -39 -21 -39 27 0 38 3 45 19 45 11 0 22 -5 24 -10 3 -6 4 -5 3 2 -1 7
-15 14 -29 16 -26 3 -27 2 -27 -52z"/>
<path d="M5762 1411 c-8 -13 -9 -20 -3 -17 7 5 11 -5 11 -28 0 -19 -6 -37 -12
-39 -7 -3 3 -5 22 -5 19 0 27 2 18 5 -13 3 -18 17 -20 56 -3 49 -4 51 -16 28z"/>
<path d="M5412 1188 l-2 -58 33 1 c29 2 30 2 5 6 -25 4 -27 9 -31 56 l-3 52
-2 -57z"/>
<path d="M5490 1185 l0 -55 33 1 c30 2 30 2 5 6 -35 5 -39 40 -5 46 l22 4 -22
2 c-35 2 -31 39 5 44 25 4 25 4 -5 6 l-33 1 0 -55z"/>
<path d="M5580 1184 c0 -54 1 -55 27 -52 14 2 28 9 29 16 1 7 0 8 -3 2 -2 -5
-13 -10 -24 -10 -16 0 -19 7 -19 45 0 48 19 62 39 28 6 -10 11 -13 11 -7 0 16
-22 34 -42 34 -15 0 -18 -9 -18 -56z"/>
<path d="M5760 1185 c0 -46 3 -55 18 -55 42 0 58 63 24 93 -32 30 -42 21 -42
-38z m39 31 c18 -21 10 -70 -11 -74 -15 -3 -18 4 -18 42 0 47 9 57 29 32z"/>
<path d="M6031 1193 c0 -28 2 -54 7 -57 4 -2 6 14 4 37 -5 68 -10 76 -11 20z"/>
<path d="M5853 1168 c2 -28 6 -34 30 -36 25 -3 27 -1 25 35 -1 37 -1 37 -5 6
-6 -45 -39 -46 -47 -3 -6 30 -6 30 -3 -2z"/>
<path d="M5958 1193 c27 -5 29 -23 2 -23 -13 0 -20 -7 -20 -20 0 -15 7 -20 25
-20 22 0 25 4 25 35 0 32 -2 35 -27 34 -24 -2 -25 -2 -5 -6z m22 -43 c0 -5 -7
-10 -15 -10 -8 0 -15 5 -15 10 0 6 7 10 15 10 8 0 15 -4 15 -10z"/>
<path d="M5678 1123 c12 -2 32 -2 45 0 12 2 2 4 -23 4 -25 0 -35 -2 -22 -4z"/>
<path d="M5280 901 c19 -5 22 -9 11 -16 -11 -6 -10 -10 8 -17 32 -12 24 -43
-12 -43 -15 1 -27 -3 -27 -7 0 -4 14 -8 30 -8 36 0 49 23 31 52 -9 15 -9 23 0
34 10 12 5 14 -27 13 -33 -1 -35 -2 -14 -8z"/>
<path d="M6180 710 c-11 -8 -8 -9 11 -4 35 8 46 -12 22 -39 -49 -56 -49 -57
-7 -56 31 2 34 3 11 6 l-28 4 26 35 c22 28 24 38 15 49 -14 17 -29 19 -50 5z"/>
<path d="M1390 5606 c0 -11 -14 -16 -48 -18 -47 -3 -47 -3 -28 -22 16 -16 18
-16 13 -3 -5 14 0 17 28 17 24 0 35 -5 38 -17 3 -10 5 -1 6 20 0 20 -1 37 -4
37 -3 0 -5 -7 -5 -14z"/>
<path d="M480 5104 c0 -54 1 -55 27 -52 14 2 28 9 29 16 1 7 0 8 -3 2 -2 -5
-13 -10 -24 -10 -16 0 -19 7 -19 44 0 26 5 46 13 49 7 3 5 6 -5 6 -15 1 -18
-8 -18 -55z"/>
<path d="M583 5105 c0 -33 2 -48 4 -32 3 18 10 27 23 27 13 0 20 -9 23 -27 2
-16 4 -1 4 32 0 33 -2 48 -4 33 -6 -38 -40 -38 -46 0 -2 15 -4 0 -4 -33z"/>
<path d="M683 5153 c13 -3 17 -16 19 -56 l2 -52 3 50 c3 27 10 53 16 57 7 4
-4 7 -23 7 -19 -1 -27 -3 -17 -6z"/>
<path d="M760 5150 c-11 -8 -8 -9 12 -4 19 4 29 1 37 -13 6 -10 11 -13 11 -7
0 13 -21 34 -34 34 -6 0 -18 -5 -26 -10z"/>
<path d="M850 5150 c-11 -7 -7 -9 15 -7 43 3 45 -28 3 -64 l-33 -28 40 1 c30
1 33 2 12 5 l-28 4 26 20 c49 39 17 102 -35 69z"/>
<path d="M526 5137 c3 -10 9 -15 12 -12 3 3 0 11 -7 18 -10 9 -11 8 -5 -6z"/>
<path d="M775 5080 l-29 -30 40 1 c31 2 34 3 10 6 l-28 5 23 24 c12 13 20 24
18 24 -3 0 -18 -13 -34 -30z"/>
<path d="M1345 4629 c-16 -6 -17 -8 -3 -8 10 -1 18 -11 21 -28 l4 -28 2 27 c0
16 8 28 19 30 15 3 14 5 -3 9 -11 3 -29 2 -40 -2z"/>
<path d="M1320 4590 c8 -5 20 -10 25 -10 6 0 3 5 -5 10 -8 5 -19 10 -25 10 -5
0 -3 -5 5 -10z"/>
<path d="M11795 3539 c-15 -18 -15 -20 -2 -10 16 12 17 10 17 -27 0 -30 -4
-42 -17 -45 -10 -3 -2 -5 17 -6 19 0 30 3 23 7 -6 4 -13 29 -15 56 l-3 48 -20
-23z"/>
<path d="M12110 3480 c8 -5 20 -10 25 -10 6 0 3 5 -5 10 -8 5 -19 10 -25 10
-5 0 -3 -5 5 -10z"/>
<path d="M12200 3486 c0 -2 7 -7 16 -10 8 -3 12 -2 9 4 -6 10 -25 14 -25 6z"/>
<path d="M12070 3441 c0 -22 3 -42 8 -44 4 -3 7 15 7 39 0 24 -3 44 -7 44 -5
0 -8 -18 -8 -39z"/>
<path d="M12170 3469 c0 -5 5 -7 10 -4 6 3 10 8 10 11 0 2 -4 4 -10 4 -5 0
-10 -5 -10 -11z"/>
<path d="M12161 3434 c0 -11 3 -14 6 -6 3 7 2 16 -1 19 -3 4 -6 -2 -5 -13z"/>
<path d="M11997 3412 c1 -8 3 -19 3 -25 0 -7 4 -6 10 3 12 19 13 33 1 26 -5
-4 -11 -3 -14 1 -2 5 -2 2 0 -5z"/>
<path d="M12110 3390 c-8 -5 -10 -10 -5 -10 6 0 17 5 25 10 8 5 11 10 5 10 -5
0 -17 -5 -25 -10z"/>
<path d="M12210 3390 c-9 -6 -10 -10 -3 -10 6 0 15 5 18 10 8 12 4 12 -15 0z"/>
<path d="M3846 1051 c-4 -5 3 -7 14 -4 36 10 36 -25 -1 -63 l-33 -34 40 1 c35
1 36 2 11 8 l-29 6 26 24 c14 14 26 32 26 42 0 24 -42 39 -54 20z"/>
<path d="M3936 1051 c-3 -4 5 -6 18 -4 32 7 42 -14 19 -40 -49 -56 -49 -57 -7
-56 31 2 34 3 11 6 l-28 4 26 35 c22 28 24 38 15 49 -14 16 -46 20 -54 6z"/>
<path d="M4043 1053 c-7 -2 -13 -9 -13 -15 0 -6 7 -5 16 3 13 10 17 10 26 -2
8 -12 9 -12 6 0 -5 17 -17 22 -35 14z"/>
<path d="M4201 1036 c-7 -13 -11 -32 -8 -42 3 -14 5 -12 6 7 1 36 26 56 46 39
8 -7 16 -24 16 -39 2 -24 2 -25 6 -3 5 25 -21 62 -42 62 -6 0 -17 -11 -24 -24z"/>
<path d="M4303 1005 c0 -38 2 -46 4 -22 3 23 9 37 18 37 9 0 15 -14 18 -37 l4
-38 1 38 c2 31 -2 40 -17 44 -11 3 -22 12 -24 22 -3 9 -4 -11 -4 -44z"/>
<path d="M4392 987 l1 -42 4 38 c5 47 25 45 34 -4 l6 -34 2 38 c1 49 28 51 34
2 l4 -35 -1 37 c-1 37 -2 38 -43 40 l-43 3 2 -43z"/>
<path d="M4522 1018 c-14 -14 2 -38 25 -38 8 0 11 -5 7 -11 -3 -6 -15 -8 -27
-5 -14 3 -17 2 -9 -6 11 -11 52 -2 52 13 0 5 -12 14 -26 19 -14 6 -22 15 -19
21 4 6 14 8 22 5 8 -3 11 -1 8 4 -8 13 -18 13 -33 -2z"/>
<path d="M4021 1004 c0 -11 3 -14 6 -6 3 7 2 16 -1 19 -3 4 -6 -2 -5 -13z"/>
<path d="M4081 1004 c0 -11 3 -14 6 -6 3 7 2 16 -1 19 -3 4 -6 -2 -5 -13z"/>
<path d="M4030 972 c0 -12 29 -24 41 -16 5 3 9 11 9 17 0 8 -4 7 -9 -2 -8 -12
-12 -12 -25 -2 -9 8 -16 9 -16 3z"/>
<path d="M4209 957 c7 -7 18 -7 33 0 20 9 20 10 -10 10 -22 0 -29 -4 -23 -10z"/>
<path d="M5430 223 l-55 -58 58 55 c31 30 57 56 57 57 0 8 -10 -1 -60 -54z"/>
<path d="M5361 188 c-1 -38 -1 -38 37 -37 36 1 36 2 7 8 -23 5 -31 13 -36 36
-6 29 -7 29 -8 -7z"/>
<path d="M5526 150 c-47 -50 -63 -78 -25 -44 25 22 83 94 76 94 -2 0 -25 -22
-51 -50z"/>
<path d="M5461 108 c-1 -37 0 -38 32 -37 29 1 30 2 7 8 -17 5 -27 16 -31 36
-6 29 -7 28 -8 -7z"/>
</g>
</svg>
