<svg viewBox="0 0 1200 900" xmlns="http://www.w3.org/2000/svg"
     font-family="'KiCad Schematic', 'Courier New', monospace" font-size="11">
<defs>
  <style>
    /* KiCAD exact color palette */
    .wire       { stroke:#007700; stroke-width:1.5; fill:none; }
    .wire-pwr   { stroke:#840000; stroke-width:1.5; fill:none; }
    .comp-body  { fill:#fffff8; stroke:#840000; stroke-width:1.5; }
    .pin-line   { stroke:#840000; stroke-width:1.5; fill:none; }
    .ref        { font-size:10px; fill:#840000; font-style:italic; }
    .val        { font-size:10px; fill:#840000; }
    .pin-name   { font-size:8.5px; fill:#010101; }
    .pin-num    { font-size:7.5px; fill:#555555; }
    .net-label  { font-size:9px; fill:#007700; }
    .pwr-label  { font-size:10px; fill:#840000; font-weight:bold; }
    .note-text  { font-size:8.5px; fill:#555555; font-style:italic; }
    .junction   { fill:#007700; }
    .no-connect { stroke:#840000; stroke-width:1.5; fill:none; }
    .field      { font-size:9px; fill:#333; }
  </style>
  <!-- KiCAD-style arrowhead for net labels -->
  <marker id="netlabel" markerWidth="6" markerHeight="8" refX="0" refY="4" orient="auto">
    <polygon points="0,0 0,8 6,4" fill="#007700"/>
  </marker>
  <marker id="netlabel-left" markerWidth="6" markerHeight="8" refX="6" refY="4" orient="auto">
    <polygon points="6,0 6,8 0,4" fill="#007700"/>
  </marker>
</defs>

<!-- ═══════════════════════════════════════════════ -->
<!-- BACKGROUND + BORDER (KiCAD A3 sheet style)     -->
<!-- ═══════════════════════════════════════════════ -->
<rect width="1200" height="900" fill="#fffff8"/>
<rect x="3" y="3" width="1194" height="894" fill="none" stroke="#cccccc" stroke-width="1"/>
<rect x="15" y="15" width="1170" height="870" fill="none" stroke="#cccccc" stroke-width="0.5"/>

<!-- Title block bottom-right (KiCAD standard) -->
<rect x="600" y="828" width="595" height="57" fill="#fffff8" stroke="#888" stroke-width="0.8"/>
<line x1="600" y1="843" x2="1195" y2="843" stroke="#888" stroke-width="0.5"/>
<line x1="600" y1="857" x2="1195" y2="857" stroke="#888" stroke-width="0.5"/>
<line x1="600" y1="871" x2="1195" y2="871" stroke="#888" stroke-width="0.5"/>
<line x1="760" y1="828" x2="760" y2="885" stroke="#888" stroke-width="0.5"/>
<line x1="880" y1="828" x2="880" y2="885" stroke="#888" stroke-width="0.5"/>
<line x1="970" y1="828" x2="970" y2="885" stroke="#888" stroke-width="0.5"/>
<text x="680" y="839" text-anchor="middle" font-size="7" fill="#555">Title</text>
<text x="680" y="852" text-anchor="middle" font-size="8.5" font-weight="bold" fill="#111">Labyrinth Game — Full Schematic</text>
<text x="680" y="864" text-anchor="middle" font-size="7.5" fill="#333">STM32 Nucleo-U545RE-Q Controller</text>
<text x="680" y="877" text-anchor="middle" font-size="7.5" fill="#333">MPU6050 · 2×SG90 · MicroSD · IR Sensor</text>
<text x="820" y="839" text-anchor="middle" font-size="7" fill="#555">Date</text>
<text x="820" y="855" text-anchor="middle" font-size="8" fill="#111">2025-05</text>
<text x="820" y="870" text-anchor="middle" font-size="7" fill="#555">Rev</text>
<text x="820" y="882" text-anchor="middle" font-size="8" fill="#111">1.0</text>
<text x="925" y="839" text-anchor="middle" font-size="7" fill="#555">Comp</text>
<text x="925" y="855" text-anchor="middle" font-size="8" fill="#111">Bianca Petrea</text>
<text x="925" y="869" text-anchor="middle" font-size="7" fill="#555">Sheet</text>
<text x="925" y="882" text-anchor="middle" font-size="8" fill="#111">1/1</text>
<text x="1082" y="839" text-anchor="middle" font-size="7" fill="#555">KiCAD Schematic Editor 7.x</text>
<text x="1082" y="856" text-anchor="middle" font-size="8" fill="#111">ACS PM Rust Project 2025</text>

<!-- ═══════════════════════════════════════════════ -->
<!-- POWER SYMBOLS (KiCAD style)                    -->
<!-- ═══════════════════════════════════════════════ -->

<!-- +5V power symbol (template) -->
<g id="sym-5v">
  <line x1="0" y1="0" x2="0" y2="-14" stroke="#840000" stroke-width="1.5"/>
  <line x1="-8" y1="-14" x2="8" y2="-14" stroke="#840000" stroke-width="1.5"/>
  <text x="0" y="-18" text-anchor="middle" class="pwr-label">+5V</text>
</g>

<!-- GND symbol (template) -->
<g id="sym-gnd">
  <line x1="0" y1="0" x2="0" y2="12" stroke="#840000" stroke-width="1.5"/>
  <line x1="-9" y1="12" x2="9" y2="12" stroke="#840000" stroke-width="1.5"/>
  <line x1="-6" y1="17" x2="6" y2="17" stroke="#840000" stroke-width="1.5"/>
  <line x1="-3" y1="22" x2="3" y2="22" stroke="#840000" stroke-width="1.5"/>
  <text x="0" y="34" text-anchor="middle" class="pwr-label">GND</text>
</g>

<!-- +3V3 symbol (template) -->
<g id="sym-3v3">
  <line x1="0" y1="0" x2="0" y2="-14" stroke="#840000" stroke-width="1.5"/>
  <line x1="-8" y1="-14" x2="8" y2="-14" stroke="#840000" stroke-width="1.5"/>
  <text x="0" y="-18" text-anchor="middle" class="pwr-label">+3V3</text>
</g>

<!-- ═══════════════════════════════════════════════ -->
<!-- U1: STM32 NUCLEO-U545RE-Q (center)            -->
<!-- KiCAD: IC box, pins as stubs outside box       -->
<!-- ═══════════════════════════════════════════════ -->
<g id="U1">
  <!-- Component body -->
  <rect x="370" y="120" width="220" height="530" class="comp-body"/>
  <!-- Reference + Value -->
  <text x="370" y="113" class="ref">U1</text>
  <text x="370" y="662" class="val">STM32 Nucleo-U545RE-Q</text>

  <!-- ── LEFT SIDE PINS (power + GPIO) ── -->

  <!-- Pin: 3V3 output -->
  <line x1="320" y1="155" x2="370" y2="155" class="pin-line"/>
  <text x="375" y="152" class="pin-name">3V3</text>
  <text x="318" y="151" text-anchor="end" class="pin-num">CN7-16</text>

  <!-- Pin: 5V output -->
  <line x1="320" y1="185" x2="370" y2="185" class="pin-line"/>
  <text x="375" y="182" class="pin-name">5V</text>
  <text x="318" y="181" text-anchor="end" class="pin-num">CN7-18</text>

  <!-- Pin: GND (left) -->
  <line x1="320" y1="215" x2="370" y2="215" class="pin-line"/>
  <text x="375" y="212" class="pin-name">GND</text>
  <text x="318" y="211" text-anchor="end" class="pin-num">CN7-20</text>

  <!-- Pin: A2 / PA4 (IR sensor) -->
  <line x1="320" y1="265" x2="370" y2="265" class="pin-line"/>
  <text x="375" y="262" class="pin-name">A2 (PA4)</text>
  <text x="318" y="261" text-anchor="end" class="pin-num">CN8-3</text>

  <!-- Pin: A0 / PA0 (Servo X PWM) -->
  <line x1="320" y1="315" x2="370" y2="315" class="pin-line"/>
  <text x="375" y="312" class="pin-name">A0 (PA0)</text>
  <text x="318" y="311" text-anchor="end" class="pin-num">CN8-1</text>

  <!-- Pin: A1 / PA1 (Servo Y PWM) -->
  <line x1="320" y1="345" x2="370" y2="345" class="pin-line"/>
  <text x="375" y="342" class="pin-name">A1 (PA1)</text>
  <text x="318" y="341" text-anchor="end" class="pin-num">CN8-2</text>

  <!-- ── RIGHT SIDE PINS (I2C + SPI) ── -->

  <!-- Pin: D15 / PB8 / SCL -->
  <line x1="590" y1="155" x2="640" y2="155" class="pin-line"/>
  <text x="585" y="152" text-anchor="end" class="pin-name">D15 (PB8/SCL)</text>
  <text x="642" y="151" class="pin-num">CN5-1</text>

  <!-- Pin: D14 / PB9 / SDA -->
  <line x1="590" y1="185" x2="640" y2="185" class="pin-line"/>
  <text x="585" y="182" text-anchor="end" class="pin-name">D14 (PB9/SDA)</text>
  <text x="642" y="181" class="pin-num">CN5-2</text>

  <!-- Pin: D13 / PA5 / SCK -->
  <line x1="590" y1="235" x2="640" y2="235" class="pin-line"/>
  <text x="585" y="232" text-anchor="end" class="pin-name">D13 (PA5/SCK)</text>
  <text x="642" y="231" class="pin-num">CN5-6</text>

  <!-- Pin: D12 / PA6 / MISO -->
  <line x1="590" y1="265" x2="640" y2="265" class="pin-line"/>
  <text x="585" y="262" text-anchor="end" class="pin-name">D12 (PA6/MISO)</text>
  <text x="642" y="261" class="pin-num">CN5-5</text>

  <!-- Pin: D11 / PA7 / MOSI -->
  <line x1="590" y1="295" x2="640" y2="295" class="pin-line"/>
  <text x="585" y="292" text-anchor="end" class="pin-name">D11 (PA7/MOSI)</text>
  <text x="642" y="291" class="pin-num">CN5-4</text>

  <!-- Pin: D10 / CS -->
  <line x1="590" y1="325" x2="640" y2="325" class="pin-line"/>
  <text x="585" y="322" text-anchor="end" class="pin-name">D10 (CS)</text>
  <text x="642" y="321" class="pin-num">CN5-3</text>

  <!-- Interior label -->
  <text x="480" y="430" text-anchor="middle" font-size="11" fill="#c0c0c0">STM32U545</text>
  <text x="480" y="450" text-anchor="middle" font-size="9" fill="#c0c0c0">Nucleo-U545RE-Q</text>
  <text x="480" y="470" text-anchor="middle" font-size="9" fill="#c0c0c0">Embassy-RS (Rust)</text>

  <!-- dividers inside box -->
  <line x1="374" y1="240" x2="586" y2="240" stroke="#ddddcc" stroke-width="0.6" stroke-dasharray="4,3"/>
  <line x1="374" y1="330" x2="586" y2="330" stroke="#ddddcc" stroke-width="0.6" stroke-dasharray="4,3"/>

  <!-- group labels (KiCAD field style) -->
  <text x="377" y="172" font-size="7" fill="#aaaaaa">─ POWER ─</text>
  <text x="377" y="253" font-size="7" fill="#aaaaaa">─ GPIO/ADC ─</text>
  <text x="377" y="308" font-size="7" fill="#aaaaaa">─ PWM ─</text>
  <text x="507" y="172" text-anchor="end" font-size="7" fill="#aaaaaa">─ I2C ─</text>
  <text x="507" y="250" text-anchor="end" font-size="7" fill="#aaaaaa">─ SPI ─</text>
</g>

<!-- ═══════════════════════════════════════════════ -->
<!-- U2: MPU-6050 (top-left)                       -->
<!-- ═══════════════════════════════════════════════ -->
<g id="U2">
  <rect x="50" y="85" width="140" height="165" class="comp-body"/>
  <text x="50" y="78" class="ref">U2</text>
  <text x="50" y="262" class="val">MPU-6050</text>

  <!-- pins RIGHT side -->
  <line x1="190" y1="112" x2="230" y2="112" class="pin-line"/>
  <text x="186" y="109" text-anchor="end" class="pin-name">VCC</text>
  <text x="192" y="109" class="pin-num">1</text>

  <line x1="190" y1="136" x2="230" y2="136" class="pin-line"/>
  <text x="186" y="133" text-anchor="end" class="pin-name">GND</text>
  <text x="192" y="133" class="pin-num">2</text>

  <line x1="190" y1="160" x2="230" y2="160" class="pin-line"/>
  <text x="186" y="157" text-anchor="end" class="pin-name">SCL</text>
  <text x="192" y="157" class="pin-num">3</text>

  <line x1="190" y1="184" x2="230" y2="184" class="pin-line"/>
  <text x="186" y="181" text-anchor="end" class="pin-name">SDA</text>
  <text x="192" y="181" class="pin-num">4</text>

  <line x1="190" y1="208" x2="230" y2="208" class="pin-line"/>
  <text x="186" y="205" text-anchor="end" class="pin-name">AD0</text>
  <text x="192" y="205" class="pin-num">5</text>
  <!-- AD0 to GND locally -->
  <line x1="230" y1="208" x2="230" y2="225" stroke="#840000" stroke-width="1.5"/>
  <line x1="223" y1="225" x2="237" y2="225" stroke="#840000" stroke-width="1.5"/>
  <line x1="226" y1="229" x2="234" y2="229" stroke="#840000" stroke-width="1.5"/>
  <line x1="229" y1="233" x2="231" y2="233" stroke="#840000" stroke-width="1.5"/>
  <text x="239" y="220" font-size="7.5" fill="#840000">GND</text>

  <!-- INT: no connect -->
  <line x1="190" y1="230" x2="230" y2="230" class="pin-line"/>
  <text x="186" y="227" text-anchor="end" class="pin-name">INT</text>
  <text x="192" y="227" class="pin-num">6</text>
  <!-- X mark for no-connect -->
  <line x1="233" y1="227" x2="243" y2="237" class="no-connect"/>
  <line x1="243" y1="227" x2="233" y2="237" class="no-connect"/>

  <!-- inner text -->
  <text x="120" y="108" text-anchor="middle" font-size="8" fill="#c0c0c0">Accel+Gyro</text>
  <text x="120" y="120" text-anchor="middle" font-size="7.5" fill="#c0c0c0">I2C 0x68</text>

  <!-- NOTE: no pull-up -->
  <text x="50" y="275" class="note-text" fill="#007700">* Pull-up integrat pe modul</text>
  <text x="50" y="286" class="note-text" fill="#007700">  (nu necesită rezistențe externe)</text>
</g>

<!-- ═══════════════════════════════════════════════ -->
<!-- Power symbols for MPU6050                     -->
<!-- ═══════════════════════════════════════════════ -->
<!-- +3V3 → VCC MPU -->
<line x1="230" y1="112" x2="260" y2="112" class="wire-pwr"/>
<line x1="260" y1="112" x2="260" y2="98" stroke="#840000" stroke-width="1.5"/>
<line x1="252" y1="98" x2="268" y2="98" stroke="#840000" stroke-width="1.5"/>
<text x="260" y="92" text-anchor="middle" class="pwr-label">+3V3</text>

<!-- GND → GND MPU -->
<line x1="230" y1="136" x2="260" y2="136" class="wire-pwr"/>
<line x1="260" y1="136" x2="260" y2="150" stroke="#840000" stroke-width="1.5"/>
<line x1="251" y1="150" x2="269" y2="150" stroke="#840000" stroke-width="1.5"/>
<line x1="254" y1="155" x2="266" y2="155" stroke="#840000" stroke-width="1.5"/>
<line x1="257" y1="160" x2="263" y2="160" stroke="#840000" stroke-width="1.5"/>
<text x="260" y="172" text-anchor="middle" class="pwr-label">GND</text>

<!-- ═══════════════════════════════════════════════ -->
<!-- WIRES: MPU6050 SCL/SDA → Nucleo D15/D14       -->
<!-- ═══════════════════════════════════════════════ -->
<!-- SCL: MPU pin3 → Nucleo D15 -->
<line x1="230" y1="160" x2="280" y2="160" class="wire"/>
<line x1="280" y1="160" x2="280" y2="155" class="wire"/>
<line x1="280" y1="155" x2="320" y2="155" class="wire"/>
<!-- Net label SCL -->
<rect x="285" y="147" width="22" height="10" fill="#fffff8" stroke="#007700" stroke-width="0.8"/>
<text x="296" y="155" text-anchor="middle" class="net-label">SCL</text>

<!-- SDA: MPU pin4 → Nucleo D14 -->
<line x1="230" y1="184" x2="285" y2="184" class="wire"/>
<line x1="285" y1="184" x2="285" y2="185" class="wire"/>
<line x1="285" y1="185" x2="320" y2="185" class="wire"/>
<!-- Net label SDA -->
<rect x="290" y="177" width="22" height="10" fill="#fffff8" stroke="#007700" stroke-width="0.8"/>
<text x="301" y="185" text-anchor="middle" class="net-label">SDA</text>

<!-- Junction at bend points -->
<circle cx="280" cy="155" r="3" class="junction"/>
<circle cx="285" cy="185" r="3" class="junction"/>

<!-- ═══════════════════════════════════════════════ -->
<!-- J1: SG90 SERVO X  (left, middle)              -->
<!-- ═══════════════════════════════════════════════ -->
<g id="J1">
  <rect x="50" y="340" width="140" height="100" class="comp-body"/>
  <text x="50" y="333" class="ref">J1</text>
  <text x="50" y="453" class="val">SG90 Servo X (A0/PA0)</text>
  <text x="50" y="463" font-size="7.5" fill="#555">TIM2_CH1 · 50Hz PWM</text>

  <!-- pins RIGHT -->
  <line x1="190" y1="365" x2="230" y2="365" class="pin-line"/>
  <text x="186" y="362" text-anchor="end" class="pin-name">Signal</text>
  <text x="192" y="362" class="pin-num">1</text>

  <line x1="190" y1="390" x2="230" y2="390" class="pin-line"/>
  <text x="186" y="387" text-anchor="end" class="pin-name">VCC</text>
  <text x="192" y="387" class="pin-num">2</text>

  <line x1="190" y1="415" x2="230" y2="415" class="pin-line"/>
  <text x="186" y="412" text-anchor="end" class="pin-name">GND</text>
  <text x="192" y="412" class="pin-num">3</text>

  <!-- wire colors note -->
  <text x="60" y="370" font-size="7.5" fill="#555">(portocaliu)</text>
  <text x="60" y="395" font-size="7.5" fill="#cc0000">(roșu)</text>
  <text x="60" y="420" font-size="7.5" fill="#555">(maro)</text>
</g>

<!-- PWM X: J1 Signal → Nucleo A0 -->
<line x1="230" y1="365" x2="290" y2="365" class="wire"/>
<line x1="290" y1="365" x2="290" y2="315" class="wire"/>
<line x1="290" y1="315" x2="320" y2="315" class="wire"/>
<rect x="295" y="340" width="28" height="10" fill="#fffff8" stroke="#007700" stroke-width="0.8"/>
<text x="309" y="348" text-anchor="middle" class="net-label">PWM_X</text>
<circle cx="290" cy="315" r="3" class="junction"/>

<!-- VCC J1 → +5V -->
<line x1="230" y1="390" x2="255" y2="390" class="wire-pwr"/>
<line x1="255" y1="390" x2="255" y2="376" stroke="#840000" stroke-width="1.5"/>
<line x1="247" y1="376" x2="263" y2="376" stroke="#840000" stroke-width="1.5"/>
<text x="255" y="370" text-anchor="middle" class="pwr-label">+5V</text>

<!-- GND J1 -->
<line x1="230" y1="415" x2="255" y2="415" class="wire-pwr"/>
<line x1="255" y1="415" x2="255" y2="429" stroke="#840000" stroke-width="1.5"/>
<line x1="246" y1="429" x2="264" y2="429" stroke="#840000" stroke-width="1.5"/>
<line x1="249" y1="434" x2="261" y2="434" stroke="#840000" stroke-width="1.5"/>
<line x1="252" y1="439" x2="258" y2="439" stroke="#840000" stroke-width="1.5"/>
<text x="255" y="451" text-anchor="middle" class="pwr-label">GND</text>

<!-- ═══════════════════════════════════════════════ -->
<!-- J2: SG90 SERVO Y  (left, lower)               -->
<!-- ═══════════════════════════════════════════════ -->
<g id="J2">
  <rect x="50" y="500" width="140" height="100" class="comp-body"/>
  <text x="50" y="493" class="ref">J2</text>
  <text x="50" y="613" class="val">SG90 Servo Y (A1/PA1)</text>
  <text x="50" y="623" font-size="7.5" fill="#555">TIM2_CH2 · 50Hz PWM</text>

  <line x1="190" y1="525" x2="230" y2="525" class="pin-line"/>
  <text x="186" y="522" text-anchor="end" class="pin-name">Signal</text>
  <text x="192" y="522" class="pin-num">1</text>

  <line x1="190" y1="550" x2="230" y2="550" class="pin-line"/>
  <text x="186" y="547" text-anchor="end" class="pin-name">VCC</text>
  <text x="192" y="547" class="pin-num">2</text>

  <line x1="190" y1="575" x2="230" y2="575" class="pin-line"/>
  <text x="186" y="572" text-anchor="end" class="pin-name">GND</text>
  <text x="192" y="572" class="pin-num">3</text>

  <text x="60" y="530" font-size="7.5" fill="#555">(portocaliu)</text>
  <text x="60" y="555" font-size="7.5" fill="#cc0000">(roșu)</text>
  <text x="60" y="580" font-size="7.5" fill="#555">(maro)</text>
</g>

<!-- PWM Y: J2 Signal → Nucleo A1 -->
<line x1="230" y1="525" x2="295" y2="525" class="wire"/>
<line x1="295" y1="525" x2="295" y2="345" class="wire"/>
<line x1="295" y1="345" x2="320" y2="345" class="wire"/>
<rect x="297" y="430" width="28" height="10" fill="#fffff8" stroke="#007700" stroke-width="0.8"/>
<text x="311" y="438" text-anchor="middle" class="net-label">PWM_Y</text>
<circle cx="295" cy="345" r="3" class="junction"/>

<!-- VCC J2 → +5V -->
<line x1="230" y1="550" x2="260" y2="550" class="wire-pwr"/>
<line x1="260" y1="550" x2="260" y2="536" stroke="#840000" stroke-width="1.5"/>
<line x1="252" y1="536" x2="268" y2="536" stroke="#840000" stroke-width="1.5"/>
<text x="260" y="530" text-anchor="middle" class="pwr-label">+5V</text>

<!-- GND J2 -->
<line x1="230" y1="575" x2="260" y2="575" class="wire-pwr"/>
<line x1="260" y1="575" x2="260" y2="589" stroke="#840000" stroke-width="1.5"/>
<line x1="251" y1="589" x2="269" y2="589" stroke="#840000" stroke-width="1.5"/>
<line x1="254" y1="594" x2="266" y2="594" stroke="#840000" stroke-width="1.5"/>
<line x1="257" y1="599" x2="263" y2="599" stroke="#840000" stroke-width="1.5"/>
<text x="260" y="611" text-anchor="middle" class="pwr-label">GND</text>

<!-- ═══════════════════════════════════════════════ -->
<!-- POWER from NUCLEO: 5V and GND               -->
<!-- ═══════════════════════════════════════════════ -->
<!-- +5V from Nucleo pin -->
<line x1="320" y1="185" x2="300" y2="185" class="wire-pwr"/>
<line x1="300" y1="185" x2="300" y2="171" stroke="#840000" stroke-width="1.5"/>
<line x1="292" y1="171" x2="308" y2="171" stroke="#840000" stroke-width="1.5"/>
<text x="300" y="165" text-anchor="middle" class="pwr-label">+5V</text>

<!-- GND from Nucleo pin -->
<line x1="320" y1="215" x2="305" y2="215" class="wire-pwr"/>
<line x1="305" y1="215" x2="305" y2="229" stroke="#840000" stroke-width="1.5"/>
<line x1="296" y1="229" x2="314" y2="229" stroke="#840000" stroke-width="1.5"/>
<line x1="299" y1="234" x2="311" y2="234" stroke="#840000" stroke-width="1.5"/>
<line x1="302" y1="239" x2="308" y2="239" stroke="#840000" stroke-width="1.5"/>
<text x="305" y="251" text-anchor="middle" class="pwr-label">GND</text>

<!-- +3V3 from Nucleo pin -->
<line x1="320" y1="155" x2="303" y2="155" class="wire-pwr"/>
<line x1="303" y1="155" x2="303" y2="141" stroke="#840000" stroke-width="1.5"/>
<line x1="295" y1="141" x2="311" y2="141" stroke="#840000" stroke-width="1.5"/>
<text x="303" y="135" text-anchor="middle" class="pwr-label">+3V3</text>

<!-- ═══════════════════════════════════════════════ -->
<!-- U3: IR SENSOR (top-left, below MPU)           -->
<!-- ═══════════════════════════════════════════════ -->
<g id="U3">
  <rect x="50" y="680" width="140" height="100" class="comp-body"/>
  <text x="50" y="673" class="ref">U3</text>
  <text x="50" y="793" class="val">IR Obstacle Sensor</text>
  <text x="50" y="803" font-size="7.5" fill="#555">Detecție bilă (finish)</text>

  <line x1="190" y1="703" x2="230" y2="703" class="pin-line"/>
  <text x="186" y="700" text-anchor="end" class="pin-name">VCC</text>
  <text x="192" y="700" class="pin-num">1</text>

  <line x1="190" y1="727" x2="230" y2="727" class="pin-line"/>
  <text x="186" y="724" text-anchor="end" class="pin-name">GND</text>
  <text x="192" y="724" class="pin-num">2</text>

  <line x1="190" y1="751" x2="230" y2="751" class="pin-line"/>
  <text x="186" y="748" text-anchor="end" class="pin-name">OUT</text>
  <text x="192" y="748" class="pin-num">3</text>

  <text x="120" y="770" text-anchor="middle" font-size="7.5" fill="#aaa">Activ LOW</text>
</g>

<!-- IR VCC → +5V (funcționează la 5V) -->
<line x1="230" y1="703" x2="255" y2="703" class="wire-pwr"/>
<line x1="255" y1="703" x2="255" y2="689" stroke="#840000" stroke-width="1.5"/>
<line x1="247" y1="689" x2="263" y2="689" stroke="#840000" stroke-width="1.5"/>
<text x="255" y="683" text-anchor="middle" class="pwr-label">+5V</text>

<!-- IR GND -->
<line x1="230" y1="727" x2="255" y2="727" class="wire-pwr"/>
<line x1="255" y1="727" x2="255" y2="741" stroke="#840000" stroke-width="1.5"/>
<line x1="246" y1="741" x2="264" y2="741" stroke="#840000" stroke-width="1.5"/>
<line x1="249" y1="746" x2="261" y2="746" stroke="#840000" stroke-width="1.5"/>
<line x1="252" y1="751" x2="258" y2="751" stroke="#840000" stroke-width="1.5"/>
<text x="255" y="763" text-anchor="middle" class="pwr-label">GND</text>

<!-- IR OUT → Nucleo A2/PA4 -->
<line x1="230" y1="751" x2="310" y2="751" class="wire"/>
<line x1="310" y1="751" x2="310" y2="265" class="wire"/>
<line x1="310" y1="265" x2="320" y2="265" class="wire"/>
<!-- Net label -->
<rect x="318" y="495" width="28" height="10" fill="#fffff8" stroke="#007700" stroke-width="0.8"/>
<text x="332" y="503" text-anchor="middle" class="net-label">IR_OUT</text>
<circle cx="310" cy="265" r="3" class="junction"/>

<!-- ═══════════════════════════════════════════════ -->
<!-- U4: MicroSD SPI Module (right side)           -->
<!-- ═══════════════════════════════════════════════ -->
<g id="U4">
  <rect x="760" y="155" width="155" height="195" class="comp-body"/>
  <text x="760" y="148" class="ref">U4</text>
  <text x="760" y="363" class="val">MicroSD SPI Module</text>
  <text x="760" y="373" font-size="7.5" fill="#555">FAT32 · embedded-sdmmc</text>

  <!-- pins LEFT -->
  <line x1="720" y1="180" x2="760" y2="180" class="pin-line"/>
  <text x="764" y="177" class="pin-name">CLK</text>
  <text x="718" y="176" text-anchor="end" class="pin-num">1</text>

  <line x1="720" y1="205" x2="760" y2="205" class="pin-line"/>
  <text x="764" y="202" class="pin-name">DI (MOSI)</text>
  <text x="718" y="201" text-anchor="end" class="pin-num">2</text>

  <line x1="720" y1="230" x2="760" y2="230" class="pin-line"/>
  <text x="764" y="227" class="pin-name">DO (MISO)</text>
  <text x="718" y="226" text-anchor="end" class="pin-num">3</text>

  <line x1="720" y1="255" x2="760" y2="255" class="pin-line"/>
  <text x="764" y="252" class="pin-name">CS</text>
  <text x="718" y="251" text-anchor="end" class="pin-num">4</text>

  <line x1="720" y1="280" x2="760" y2="280" class="pin-line"/>
  <text x="764" y="277" class="pin-name">VCC</text>
  <text x="718" y="276" text-anchor="end" class="pin-num">5</text>

  <line x1="720" y1="305" x2="760" y2="305" class="pin-line"/>
  <text x="764" y="302" class="pin-name">GND</text>
  <text x="718" y="301" text-anchor="end" class="pin-num">6</text>

  <text x="838" y="330" text-anchor="middle" font-size="8" fill="#c0c0c0">SPI Mode</text>
  <text x="838" y="343" text-anchor="middle" font-size="7.5" fill="#c0c0c0">4GB FAT32</text>
</g>

<!-- SPI wires Nucleo → SD -->
<!-- SCK: D13 → CLK -->
<line x1="640" y1="235" x2="685" y2="235" class="wire"/>
<line x1="685" y1="235" x2="685" y2="180" class="wire"/>
<line x1="685" y1="180" x2="720" y2="180" class="wire"/>
<circle cx="685" cy="180" r="3" class="junction"/>
<!-- Net label -->
<rect x="648" y="203" width="22" height="10" fill="#fffff8" stroke="#007700" stroke-width="0.8"/>
<text x="659" y="211" text-anchor="middle" class="net-label">SCK</text>

<!-- MOSI: D11 → DI -->
<line x1="640" y1="295" x2="690" y2="295" class="wire"/>
<line x1="690" y1="295" x2="690" y2="205" class="wire"/>
<line x1="690" y1="205" x2="720" y2="205" class="wire"/>
<circle cx="690" cy="205" r="3" class="junction"/>
<rect x="648" y="248" width="28" height="10" fill="#fffff8" stroke="#007700" stroke-width="0.8"/>
<text x="662" y="256" text-anchor="middle" class="net-label">MOSI</text>

<!-- MISO: D12 → DO -->
<line x1="640" y1="265" x2="695" y2="265" class="wire"/>
<line x1="695" y1="265" x2="695" y2="230" class="wire"/>
<line x1="695" y1="230" x2="720" y2="230" class="wire"/>
<circle cx="695" cy="230" r="3" class="junction"/>
<rect x="648" y="245" width="28" height="10" fill="#fffff8" stroke="#007700" stroke-width="0.8"/>
<text x="662" y="246" text-anchor="middle" class="net-label">MISO</text>

<!-- CS: D10 → CS -->
<line x1="640" y1="325" x2="700" y2="325" class="wire"/>
<line x1="700" y1="325" x2="700" y2="255" class="wire"/>
<line x1="700" y1="255" x2="720" y2="255" class="wire"/>
<rect x="648" y="288" width="18" height="10" fill="#fffff8" stroke="#007700" stroke-width="0.8"/>
<text x="657" y="296" text-anchor="middle" class="net-label">CS</text>

<!-- SD VCC → +5V (has onboard regulator) -->
<line x1="720" y1="280" x2="706" y2="280" class="wire-pwr"/>
<line x1="706" y1="280" x2="706" y2="266" stroke="#840000" stroke-width="1.5"/>
<line x1="698" y1="266" x2="714" y2="266" stroke="#840000" stroke-width="1.5"/>
<text x="706" y="260" text-anchor="middle" class="pwr-label">+5V</text>
<text x="720" y="293" font-size="7" fill="#777">(onboard reg.→3V3)</text>

<!-- SD GND -->
<line x1="720" y1="305" x2="706" y2="305" class="wire-pwr"/>
<line x1="706" y1="305" x2="706" y2="319" stroke="#840000" stroke-width="1.5"/>
<line x1="697" y1="319" x2="715" y2="319" stroke="#840000" stroke-width="1.5"/>
<line x1="700" y1="324" x2="712" y2="324" stroke="#840000" stroke-width="1.5"/>
<line x1="703" y1="329" x2="709" y2="329" stroke="#840000" stroke-width="1.5"/>
<text x="706" y="341" text-anchor="middle" class="pwr-label">GND</text>

<!-- ═══════════════════════════════════════════════ -->
<!-- NOTĂ pull-up I2C                              -->
<!-- ═══════════════════════════════════════════════ -->
<rect x="640" y="130" width="260" height="30" fill="#f0fff0" stroke="#007700" stroke-width="0.8" stroke-dasharray="3,2" rx="2"/>
<text x="770" y="144" text-anchor="middle" font-size="8" fill="#007700">ℹ Pull-up rezistențe I2C integrate pe modulul MPU6050</text>
<text x="770" y="155" text-anchor="middle" font-size="8" fill="#007700">Nu sunt necesare rezistențe externe pe SCL/SDA</text>

<!-- ═══════════════════════════════════════════════ -->
<!-- LEGEND BOX                                    -->
<!-- ═══════════════════════════════════════════════ -->
<rect x="760" y="440" width="260" height="180" fill="#fffff8" stroke="#888" stroke-width="0.8" rx="2"/>
<text x="890" y="458" text-anchor="middle" font-size="10" font-weight="bold" fill="#333">LEGENDĂ FIRE</text>
<line x1="775" y1="472" x2="820" y2="472" class="wire"/>
<text x="828" y="476" font-size="9" fill="#333">Wire semnal (verde)</text>
<line x1="775" y1="490" x2="820" y2="490" class="wire-pwr"/>
<text x="828" y="494" font-size="9" fill="#333">Wire putere (roșu)</text>
<line x1="778" y1="508" x2="791" y2="521" stroke="#840000" stroke-width="1.5"/>
<line x1="791" y1="508" x2="778" y2="521" stroke="#840000" stroke-width="1.5"/>
<text x="828" y="518" font-size="9" fill="#333">No Connect (X)</text>
<circle cx="795" cy="538" r="4" class="junction"/>
<text x="828" y="542" font-size="9" fill="#333">Junction (joncțiune)</text>
<rect x="775" y="552" width="22" height="10" fill="#fffff8" stroke="#007700" stroke-width="0.8"/>
<text x="786" y="560" text-anchor="middle" class="net-label">NET</text>
<text x="828" y="561" font-size="9" fill="#333">Net label</text>
<line x1="775" y1="575" x2="783" y2="575" stroke="#840000" stroke-width="1.5"/>
<line x1="775" y1="585" x2="781" y2="585" stroke="#840000" stroke-width="1.5"/>
<line x1="775" y1="595" x2="779" y2="595" stroke="#840000" stroke-width="1.5"/>
<text x="828" y="582" font-size="9" fill="#333">Simbol GND (putere)</text>
<line x1="775" y1="610" x2="775" y2="600" stroke="#840000" stroke-width="1.5"/>
<line x1="767" y1="600" x2="783" y2="600" stroke="#840000" stroke-width="1.5"/>
<text x="828" y="607" font-size="9" fill="#333">Simbol +V (putere)</text>

<!-- ═══════════════════════════════════════════════ -->
<!-- CONNECTIONS SUMMARY TABLE                     -->
<!-- ═══════════════════════════════════════════════ -->
<rect x="760" y="645" width="380" height="175" fill="#fffff8" stroke="#888" stroke-width="0.8" rx="2"/>
<text x="950" y="662" text-anchor="middle" font-size="10" font-weight="bold" fill="#333">CONEXIUNI RAPIDE</text>
<line x1="765" y1="666" x2="1135" y2="666" stroke="#ccc" stroke-width="0.5"/>
<text x="775" y="680" font-size="8.5" fill="#840000" font-weight="bold">MPU6050 (I2C)</text>
<text x="775" y="693" font-size="8" fill="#333">VCC→+3V3  GND→GND  SCL→D15(PB8)  SDA→D14(PB9)</text>
<line x1="765" y1="698" x2="1135" y2="698" stroke="#eee" stroke-width="0.5"/>
<text x="775" y="711" font-size="8.5" fill="#840000" font-weight="bold">IR Sensor</text>
<text x="775" y="724" font-size="8" fill="#333">VCC→+5V  GND→GND  OUT→A2(PA4)</text>
<line x1="765" y1="729" x2="1135" y2="729" stroke="#eee" stroke-width="0.5"/>
<text x="775" y="742" font-size="8.5" fill="#840000" font-weight="bold">MicroSD SPI</text>
<text x="775" y="755" font-size="8" fill="#333">VCC→+5V  GND→GND  CLK→D13  MOSI→D11  MISO→D12  CS→D10</text>
<line x1="765" y1="760" x2="1135" y2="760" stroke="#eee" stroke-width="0.5"/>
<text x="775" y="773" font-size="8.5" fill="#840000" font-weight="bold">Servo X (J1)</text>
<text x="775" y="786" font-size="8" fill="#333">VCC→+5V  GND→GND  Signal(portocaliu)→A0(PA0) TIM2_CH1</text>
<line x1="765" y1="791" x2="1135" y2="791" stroke="#eee" stroke-width="0.5"/>
<text x="775" y="804" font-size="8.5" fill="#840000" font-weight="bold">Servo Y (J2)</text>
<text x="775" y="817" font-size="8" fill="#333">VCC→+5V  GND→GND  Signal(portocaliu)→A1(PA1) TIM2_CH2</text>

</svg>
