<?xml version="1.0" standalone="no"?>
<!DOCTYPE svg PUBLIC "-//W3C//DTD SVG 20010904//EN"
 "http://www.w3.org/TR/2001/REC-SVG-20010904/DTD/svg10.dtd">
<svg version="1.0" xmlns="http://www.w3.org/2000/svg"
 width="845.000000pt" height="807.000000pt" viewBox="0 0 845.000000 807.000000"
 preserveAspectRatio="xMidYMid meet">

<g transform="translate(0.000000,807.000000) scale(0.100000,-0.100000)"
fill="#000000" stroke="none">
<path d="M4088 7990 l4 -80 -316 0 -316 0 0 -255 c0 -237 -1 -255 -18 -255
-13 0 -17 8 -17 33 0 43 -29 45 -32 2 l-2 -30 8 30 c7 25 9 27 16 12 8 -19
-10 -47 -30 -47 -8 0 -11 8 -8 20 3 12 0 20 -7 20 -10 0 -10 3 0 15 11 13 8
15 -16 14 -25 0 -26 -1 -9 -9 11 -5 16 -9 11 -9 -5 -1 -3 -7 3 -15 13 -16 -2
-32 -19 -21 -5 3 -10 1 -10 -5 0 -6 -10 -8 -23 -6 -14 2 -24 -1 -24 -7 0 -9
27 -11 89 -9 l88 4 0 -57 0 -57 -88 4 c-55 2 -89 -1 -89 -7 0 -6 34 -9 89 -7
l88 4 0 -107 0 -106 -32 3 c-29 3 -34 7 -38 37 -4 31 -6 33 -19 18 -9 -11 -10
-17 -2 -17 6 0 11 -7 11 -15 0 -17 -35 -28 -71 -22 -15 3 -26 0 -26 -6 0 -9
27 -11 89 -9 l88 4 0 -55 0 -56 -47 -4 -48 -3 48 -2 47 -2 0 -50 c0 -49 0 -50
-31 -50 -22 0 -30 4 -26 13 3 8 1 20 -4 28 -7 11 -9 11 -9 0 0 -7 -6 -11 -15
-7 -8 3 -15 1 -15 -4 0 -6 7 -10 15 -10 18 0 20 -16 3 -23 -7 -3 8 -6 35 -6
l47 -1 0 -54 0 -55 -47 -4 -48 -3 48 -2 47 -2 0 -49 0 -50 -47 -4 -48 -3 48
-2 47 -2 0 -49 c0 -39 -4 -51 -17 -54 -17 -4 -17 -5 0 -6 14 -1 17 -11 17 -55
0 -44 -4 -55 -17 -59 -17 -4 -17 -5 0 -6 14 -1 17 -11 17 -52 l0 -51 -88 4
c-55 2 -89 -1 -89 -7 0 -6 34 -9 89 -7 l88 4 0 -51 c0 -28 -4 -51 -9 -51 -27
0 -41 15 -41 44 0 22 -3 27 -9 17 -5 -8 -7 -20 -4 -27 7 -19 -5 -34 -22 -27
-9 3 -15 18 -15 35 0 27 -2 29 -16 17 -10 -8 -12 -15 -5 -17 16 -5 14 -29 -4
-35 -8 -4 -23 -4 -33 -2 -10 2 -19 -2 -19 -8 0 -9 26 -11 89 -9 l88 4 0 -57 0
-57 -88 4 c-55 2 -89 -1 -89 -7 0 -6 34 -9 89 -7 l88 4 0 -51 c0 -45 -2 -51
-21 -51 -13 0 -19 5 -16 13 3 7 -2 24 -9 38 l-15 24 7 -24 c4 -16 3 -21 -5
-17 -6 4 -11 3 -11 -3 0 -5 6 -11 13 -14 20 -7 0 -19 -22 -12 -13 4 -21 16
-23 37 -3 30 -4 30 -18 13 -9 -11 -10 -16 -2 -11 8 5 12 1 12 -12 0 -20 -25
-36 -41 -26 -5 3 -9 16 -9 30 l0 24 -260 0 -260 0 0 -655 0 -655 -85 0 -85 0
0 -1285 0 -1285 30 0 c25 0 30 -4 30 -25 l0 -25 110 0 111 0 -1 -602 c-1 -706
-1 -633 6 -626 3 3 5 292 4 642 l-1 636 81 0 80 0 1 -32 2 -33 6 31 c6 28 9
30 58 33 l52 2 4 -33 4 -33 1 33 2 32 80 0 80 0 0 -310 0 -310 -32 0 -33 -1
35 -29 34 -30 29 28 29 27 -26 3 -26 3 0 315 0 314 -84 0 -85 0 -4 33 -4 32
-1 -33 -2 -33 -52 2 c-50 3 -53 5 -59 33 l-6 31 -2 -32 -1 -33 -80 0 -80 0 0
1045 0 1045 110 0 110 0 0 -650 0 -650 255 0 255 0 0 -400 0 -400 30 0 c25 0
30 -4 30 -25 l0 -25 120 0 120 0 0 25 c0 25 1 25 80 25 l80 0 1 -32 c2 -31 2
-31 6 -5 2 15 6 27 9 27 3 0 27 -11 54 -25 l50 -25 0 30 0 30 110 0 110 0 0
-279 0 -280 -31 -3 -30 -3 33 -33 34 -32 34 35 34 35 -32 0 -32 0 0 285 0 285
-115 0 -115 0 0 30 0 30 -50 -25 c-27 -14 -51 -25 -54 -25 -3 0 -7 12 -9 27
-4 26 -4 26 -6 -4 l-1 -33 -80 0 c-79 0 -80 0 -80 25 l0 25 -120 0 -120 0 0
-25 c0 -20 -5 -25 -25 -25 l-25 0 0 395 0 395 650 0 650 0 0 -1190 0 -1190
-857 0 c-994 0 -892 1 -873 -8 8 -4 403 -6 878 -4 l862 2 0 1195 0 1195 335 0
335 0 0 -56 0 -56 -58 4 c-38 2 -59 0 -59 -7 0 -7 21 -9 59 -7 l58 4 0 -50 c0
-40 -4 -52 -17 -55 -17 -4 -17 -5 0 -6 9 0 17 -8 17 -16 0 -31 78 -5 119 39
19 20 25 39 27 83 l3 58 -8 -58 c-5 -32 -17 -67 -27 -79 -18 -20 -72 -48 -94
-48 -6 0 -10 49 -10 134 0 132 0 135 23 139 19 4 18 4 -5 6 -16 0 -28 -4 -28
-10 0 -6 -8 -9 -17 -7 -12 2 -20 15 -23 37 -5 32 -6 33 -20 16 -9 -11 -10 -16
-2 -11 8 5 12 1 12 -12 0 -11 -7 -23 -16 -26 -9 -3 -148 -6 -310 -6 l-294 0 0
650 0 650 -655 0 -655 0 0 230 0 230 -255 0 -255 0 0 335 0 335 165 0 165 0 0
-200 0 -200 425 0 425 0 0 -30 c0 -30 -8 -35 -57 -33 -7 1 -13 -9 -12 -21 0
-11 3 -15 6 -8 2 6 9 10 14 6 5 -3 9 0 9 5 0 6 7 11 16 11 10 0 14 -6 10 -15
-3 -8 -1 -15 5 -15 7 0 9 -15 6 -38 -2 -24 0 -39 7 -39 7 0 10 29 8 89 l-4 88
431 0 431 0 0 200 0 200 220 0 220 0 0 -765 0 -764 323 -3 c177 -2 329 0 337
4 20 10 41 9 -332 8 l-318 -1 0 766 0 765 -225 0 -225 0 0 110 0 110 420 0
420 0 0 -824 0 -824 123 -4 c67 -2 129 0 137 4 20 10 12 11 -132 8 l-118 -2 0
826 0 826 -366 0 c-302 0 -365 2 -361 13 3 8 1 20 -4 28 -5 9 -9 10 -9 2 0 -6
-8 -14 -17 -16 -17 -4 -17 -5 0 -6 25 -2 21 -21 -6 -21 -19 0 -22 5 -21 35 2
30 -1 35 -20 34 -11 0 -15 -3 -8 -6 6 -2 10 -9 6 -14 -3 -5 0 -9 5 -9 6 0 11
-7 11 -16 0 -10 -6 -14 -15 -10 -8 3 -15 1 -15 -4 0 -6 -7 -10 -15 -10 -11 0
-15 12 -15 51 l0 51 88 -4 c55 -2 89 1 89 7 0 6 -34 9 -89 7 l-88 -4 0 57 0
57 88 -4 c63 -2 89 0 89 9 0 6 -9 10 -19 8 -32 -7 -48 6 -48 37 0 27 -2 29
-16 17 -10 -8 -12 -15 -5 -17 16 -5 13 -29 -4 -36 -14 -5 -19 10 -18 52 1 6
-9 12 -21 11 -11 0 -15 -3 -8 -6 6 -2 10 -9 6 -14 -3 -5 0 -9 5 -9 6 0 11 -7
11 -16 0 -10 -6 -14 -15 -10 -8 3 -15 1 -15 -4 0 -6 -7 -10 -15 -10 -12 0 -15
18 -15 106 l0 106 88 -4 c55 -2 89 1 89 7 0 6 -34 9 -89 7 l-88 -4 0 112 0
112 88 -4 c55 -2 89 1 89 7 0 6 -34 9 -89 7 l-88 -4 0 52 0 52 88 -4 c55 -2
89 1 89 7 0 6 -34 9 -89 7 l-88 -4 0 56 0 57 304 -2 c289 -1 305 -2 308 -20 3
-18 4 -18 36 3 18 11 31 23 28 26 -3 2 -129 4 -280 3 -271 -2 -274 -2 -269 18
3 14 -1 23 -12 27 -13 5 -14 9 -3 15 10 7 9 9 -4 9 -19 0 -35 -41 -23 -59 7
-13 -5 -14 -22 -3 -8 5 -9 13 -3 22 16 24 11 40 -10 40 -11 0 -20 -4 -20 -10
0 -5 7 -7 15 -4 19 8 19 -1 -1 -31 -27 -42 -44 -32 -44 26 l0 51 88 -4 c55 -2
89 1 89 7 0 6 -34 9 -89 7 l-88 -4 0 51 0 51 304 0 305 0 3 -25 3 -26 33 28
33 28 -35 34 -36 35 0 -32 0 -32 -305 0 -305 0 0 56 0 56 88 -4 c63 -2 89 0
89 9 0 6 -9 10 -19 8 -10 -2 -28 -1 -40 4 -19 7 -19 8 -3 25 21 20 8 41 -21
33 -16 -4 -15 -5 4 -6 l23 -1 -22 -29 c-24 -32 -56 -33 -39 -1 16 29 12 40
-12 39 -17 -1 -19 -2 -5 -6 21 -6 21 -8 1 -38 -27 -41 -44 -32 -44 25 l0 50
560 0 560 0 0 -25 c0 -21 5 -25 30 -25 25 0 30 -4 30 -25 l0 -25 120 0 c108 0
120 2 119 18 0 10 -3 12 -6 5 -3 -9 -36 -13 -114 -13 l-109 0 0 40 0 40 109 0
c78 0 111 -4 114 -12 3 -8 6 -6 6 5 1 15 -11 17 -119 17 -113 0 -120 -1 -120
-20 0 -15 -7 -20 -25 -20 -20 0 -25 5 -25 25 l0 25 -565 0 -565 0 0 485 0 485
-316 0 -316 0 4 80 c2 56 -1 80 -9 80 -6 0 -9 -9 -6 -20 4 -16 2 -19 -12 -14
-12 5 -23 1 -31 -11 -9 -13 -14 -14 -14 -5 0 7 -3 10 -6 7 -4 -4 -1 -13 6 -22
14 -17 50 -21 50 -5 0 6 -4 9 -9 8 -8 -3 -11 2 -11 18 0 4 7 1 15 -6 8 -7 15
-20 15 -29 0 -12 -9 -16 -35 -15 -30 2 -35 -1 -34 -20 0 -11 3 -15 6 -8 2 6 9
10 14 6 5 -3 9 0 9 5 0 6 7 11 16 11 10 0 14 -5 10 -16 -3 -8 -2 -12 4 -9 6 3
10 -3 10 -14 0 -20 -6 -21 -111 -21 l-111 0 4 80 c2 56 -1 80 -9 80 -6 0 -9
-9 -6 -21 5 -17 2 -19 -19 -14 -16 4 -29 1 -37 -8 -10 -12 -8 -18 11 -31 15
-11 17 -16 8 -16 -13 0 -13 -2 -1 -9 7 -5 10 -14 7 -20 -4 -6 -2 -11 3 -11 6
0 11 7 11 15 0 8 5 15 10 15 6 0 10 -13 10 -30 l0 -30 -106 0 -106 0 4 80 c2
49 -1 80 -7 80 -6 0 -9 -31 -7 -80z m207 31 c3 -5 1 -13 -5 -16 -15 -9 -43 3
-35 15 8 13 32 13 40 1z m15 -31 c0 -5 -4 -10 -10 -10 -5 0 -10 5 -10 10 0 6
5 10 10 10 6 0 10 -4 10 -10z m-195 -102 c22 -10 25 -17 25 -60 0 -36 4 -48
15 -48 9 0 15 -9 15 -25 0 -14 5 -25 11 -25 6 0 8 9 4 21 l-7 22 31 -22 31
-22 0 25 c0 16 6 26 15 26 11 0 15 12 15 48 0 43 3 50 25 60 19 9 150 12 451
12 l424 0 0 -1475 0 -1475 -850 0 -850 0 0 1475 0 1475 310 0 c213 0 317 -4
335 -12z m163 1 c-13 -7 -18 -23 -18 -54 0 -25 -4 -45 -10 -45 -5 0 -10 14
-10 32 l0 32 -30 -29 -30 -29 0 27 c0 15 -4 27 -10 27 -5 0 -7 -13 -3 -30 3
-19 1 -30 -6 -30 -6 0 -11 18 -11 45 0 31 -5 47 -17 54 -13 8 6 10 72 10 66 0
85 -2 73 -10z m-48 -99 l0 -40 -25 16 -26 17 22 23 c13 13 24 24 26 24 2 0 3
-18 3 -40z m1599 -1064 l22 -23 -26 -17 -25 -16 0 40 c0 22 1 40 3 40 2 0 13
-11 26 -24z m-535 -217 c-3 -5 -10 -7 -15 -3 -5 3 -7 10 -3 15 3 5 10 7 15 3
5 -3 7 -10 3 -15z m531 -39 c-3 -5 -10 -10 -16 -10 -5 0 -9 5 -9 10 0 6 7 10
16 10 8 0 12 -4 9 -10z m-2539 -532 c-6 -37 7 -71 17 -44 5 13 22 16 82 16
l75 0 0 -50 c0 -43 -3 -50 -19 -50 -14 0 -18 5 -14 20 4 13 -1 22 -13 27 -16
6 -16 7 2 14 17 7 17 8 -3 8 -17 1 -23 -5 -23 -19 0 -11 5 -19 11 -17 6 1 14
-4 17 -12 3 -10 0 -12 -12 -8 -9 4 -16 2 -16 -3 0 -5 -7 -7 -15 -4 -9 4 -15
19 -15 36 0 27 -2 29 -16 17 -10 -8 -12 -15 -5 -17 16 -5 13 -29 -5 -36 -9 -3
-112 -6 -230 -6 l-214 0 0 -230 0 -230 -25 0 -25 0 0 -340 0 -340 -25 0 -25 0
0 650 0 650 251 0 251 0 -6 -32z m174 -194 l0 -56 -88 4 c-55 2 -89 -1 -89 -7
0 -6 34 -9 89 -7 l88 4 0 -51 c0 -41 -3 -51 -17 -52 -17 -1 -17 -2 0 -6 13 -4
17 -15 17 -59 l0 -54 -47 -2 -48 -2 48 -3 47 -4 0 -50 0 -49 -165 0 -165 0 0
51 0 51 88 -2 c105 -3 117 -2 108 7 -4 4 -50 6 -102 5 l-94 -4 0 57 0 57 88
-2 c48 -1 107 -2 132 -1 39 1 43 3 28 14 -9 7 -18 26 -20 42 -3 27 -4 27 -18
10 -9 -11 -10 -16 -2 -11 8 5 12 0 12 -13 0 -12 -6 -22 -12 -22 -37 -5 -60 -6
-135 -7 l-83 -2 0 -60 0 -60 -30 0 c-30 0 -30 -1 -30 -55 l0 -55 -80 0 -80 0
0 225 0 225 280 0 280 0 0 -56z m-340 -344 c0 -47 -2 -50 -25 -50 -23 0 -25 3
-25 50 0 47 2 50 25 50 23 0 25 -3 25 -50z m-230 -625 l0 -565 -50 0 -50 0 0
225 0 225 30 0 30 0 0 340 c0 333 0 340 20 340 20 0 20 -7 20 -565z m170 225
l0 -340 30 0 30 0 0 -225 0 -225 -110 0 -110 0 0 565 0 565 80 0 80 0 0 -340z
m60 5 l0 -335 -25 0 -25 0 0 335 0 335 25 0 25 0 0 -335z m-340 -575 l0 -230
55 0 55 0 0 -1020 0 -1020 -110 0 -110 0 0 -25 c0 -20 -5 -25 -25 -25 l-25 0
0 1275 0 1275 80 0 80 0 0 -230z m850 5 l0 -225 -250 0 -250 0 0 225 0 225
250 0 250 0 0 -225z m0 -880 l0 -645 -250 0 -250 0 0 645 0 645 250 0 250 0 0
-645z m1310 0 l0 -645 -650 0 -650 0 0 645 0 645 650 0 650 0 0 -645z m-2050
-1450 l0 -45 -105 0 -105 0 0 45 0 45 105 0 105 0 0 -45z m1030 0 l0 -45 -110
0 -110 0 0 45 0 45 110 0 110 0 0 -45z m280 25 c0 -17 -7 -20 -42 -20 l-43 1
35 19 c45 24 50 24 50 0z m0 -50 c0 -24 -5 -24 -50 0 l-35 19 43 1 c35 0 42
-3 42 -20z m280 -553 c0 -2 -10 -13 -23 -25 l-23 -22 -24 25 -23 25 46 0 c26
0 47 -1 47 -3z m-1105 -77 c-17 -19 -19 -19 -39 -3 -12 10 -23 19 -25 20 -2 2
15 3 39 3 43 0 43 0 25 -20z"/>
<path d="M4061 7833 c-1 -27 24 -31 34 -5 7 16 8 15 15 -3 8 -19 9 -19 9 3 1
26 -24 30 -34 5 -7 -17 -8 -16 -15 2 -8 19 -9 19 -9 -2z"/>
<path d="M4285 7840 c-3 -5 -3 -14 0 -20 10 -15 35 -12 35 5 0 21 18 19 23 -2
4 -14 5 -12 6 5 1 25 -26 31 -35 7 -4 -8 -10 -12 -15 -9 -5 3 -7 10 -4 15 4 5
4 9 1 9 -3 0 -8 -4 -11 -10z"/>
<path d="M4511 7825 c0 -11 3 -14 6 -7 2 6 9 10 14 6 5 -3 9 0 9 5 0 6 7 11
16 11 10 0 14 -6 10 -15 -3 -8 -1 -15 4 -15 6 0 10 9 10 20 0 17 -6 20 -35 17
-28 -1 -35 -6 -34 -22z"/>
<path d="M4070 7784 c10 -11 10 -14 0 -14 -8 0 -11 -2 -9 -5 3 -2 17 -1 32 3
l28 7 -31 12 c-27 10 -30 10 -20 -3z"/>
<path d="M4310 7794 c40 -7 39 -32 -2 -37 l-33 -5 35 2 c28 1 35 5 35 21 0 15
-7 21 -32 23 -33 2 -33 2 -3 -4z"/>
<path d="M4530 7786 c14 -9 32 -15 40 -15 13 0 13 1 0 8 -8 5 -26 12 -40 15
l-25 7 25 -15z"/>
<path d="M4061 7733 c-1 -27 24 -31 34 -5 7 16 8 15 15 -3 8 -19 9 -19 9 3 1
26 -24 30 -34 5 -7 -17 -8 -16 -15 2 -8 19 -9 19 -9 -2z"/>
<path d="M4511 7720 c1 -17 3 -19 6 -7 2 9 8 15 13 12 5 -3 11 -1 15 5 11 19
27 10 22 -11 -4 -16 -3 -19 5 -11 19 19 1 41 -32 39 -25 -2 -30 -6 -29 -27z"/>
<path d="M4285 7732 c-16 -17 -2 -32 30 -32 28 0 35 4 35 19 0 15 -7 19 -30
19 -16 -1 -32 -3 -35 -6z m25 -12 c0 -5 -5 -10 -11 -10 -5 0 -7 5 -4 10 3 6 8
10 11 10 2 0 4 -4 4 -10z m30 0 c0 -5 -4 -10 -10 -10 -5 0 -10 5 -10 10 0 6 5
10 10 10 6 0 10 -4 10 -10z"/>
<path d="M4090 7680 c12 -8 12 -10 1 -10 -8 0 -12 -2 -9 -5 3 -3 13 -2 22 1
14 5 15 9 4 15 -7 5 -17 9 -23 9 -5 0 -3 -5 5 -10z"/>
<path d="M4299 7677 l24 -15 -22 -7 c-12 -4 -21 -9 -18 -11 2 -2 19 1 37 7 34
12 30 20 -20 33 l-25 7 24 -14z"/>
<path d="M4071 7608 c2 -31 2 -31 6 -5 2 15 9 27 15 27 6 0 8 -9 5 -20 -3 -11
-2 -18 3 -15 4 3 10 14 13 25 4 16 0 20 -19 20 -21 0 -24 -4 -23 -32z"/>
<path d="M4296 7621 c-1 -3 1 -19 5 -36 3 -16 7 -24 8 -17 0 6 8 12 16 12 13
0 19 18 13 37 -4 9 -38 12 -42 4z m34 -21 c0 -5 -4 -10 -10 -10 -5 0 -10 5
-10 10 0 6 5 10 10 10 6 0 10 -4 10 -10z"/>
<path d="M3521 7393 c1 -21 3 -30 6 -20 4 17 6 17 16 3 10 -14 12 -10 14 19 3
29 0 35 -17 35 -17 0 -20 -6 -19 -37z m29 17 c0 -5 -4 -10 -10 -10 -5 0 -10 5
-10 10 0 6 5 10 10 10 6 0 10 -4 10 -10z"/>
<path d="M3582 7397 c-2 -32 1 -38 16 -35 11 2 17 13 18 33 1 28 1 29 -3 3 -6
-38 -21 -35 -26 5 -4 31 -4 31 -5 -6z"/>
<path d="M3640 7398 c0 -21 2 -38 4 -38 9 0 12 50 5 62 -6 8 -9 -1 -9 -24z"/>
<path d="M3668 7406 c-3 -14 -1 -31 3 -38 6 -8 9 1 9 25 0 42 -6 48 -12 13z"/>
<path d="M3723 7412 c-19 -3 -21 -7 -13 -23 14 -26 47 -25 45 1 -2 25 -5 27
-32 22z m17 -22 c0 -5 -2 -10 -4 -10 -3 0 -8 5 -11 10 -3 6 -1 10 4 10 6 0 11
-4 11 -10z"/>
<path d="M3528 7303 c6 -2 10 -9 6 -14 -3 -5 0 -9 5 -9 18 0 12 -18 -6 -23
-14 -4 -12 -5 5 -6 19 -1 22 4 20 29 -2 23 -7 30 -23 29 -11 0 -14 -3 -7 -6z"/>
<path d="M3628 7303 c6 -2 10 -9 6 -14 -3 -5 0 -9 5 -9 19 0 12 -20 -6 -21
-10 0 -4 -5 12 -10 17 -5 50 -6 75 -3 25 4 37 9 28 11 -20 5 -24 23 -5 23 8 0
8 3 -2 9 -11 7 -10 10 5 14 16 4 16 5 -3 6 -19 1 -23 -4 -23 -29 0 -27 -3 -30
-30 -30 -29 0 -37 14 -31 53 0 4 -9 7 -21 6 -13 0 -17 -3 -10 -6z"/>
<path d="M3771 7280 c0 -33 1 -34 10 -11 6 16 6 28 -1 35 -7 7 -10 -1 -9 -24z"/>
<path d="M3796 7288 c-3 -13 -1 -27 4 -32 7 -7 10 1 10 22 0 37 -5 41 -14 10z"/>
<path d="M3853 7293 c15 -2 27 -9 27 -15 0 -5 -7 -8 -15 -4 -8 3 -15 1 -15 -4
0 -6 7 -10 15 -10 8 0 18 -1 22 -2 3 -2 7 7 8 20 1 19 -3 22 -34 21 -30 -2
-32 -3 -8 -6z"/>
<path d="M3580 7283 c0 -4 5 -15 10 -23 8 -13 10 -13 10 2 0 9 -4 20 -10 23
-5 3 -10 3 -10 -2z"/>
<path d="M3532 7081 c-19 -12 -11 -55 11 -59 10 -2 17 3 17 12 0 9 -5 16 -11
16 -5 0 -7 -4 -4 -10 3 -5 1 -10 -5 -10 -6 0 -10 10 -8 23 2 12 9 21 16 20 6
-2 12 2 12 7 0 12 -10 13 -28 1z"/>
<path d="M3581 7053 c1 -21 3 -30 6 -20 2 9 11 17 19 17 21 0 13 34 -9 38 -14
3 -17 -4 -16 -35z m24 17 c3 -5 1 -10 -4 -10 -6 0 -11 5 -11 10 0 6 2 10 4 10
3 0 8 -4 11 -10z"/>
<path d="M3633 7055 c0 -22 2 -30 4 -17 2 12 2 30 0 40 -3 9 -5 -1 -4 -23z"/>
<path d="M3664 7076 c-9 -24 0 -51 18 -54 21 -4 34 34 18 53 -16 19 -29 19
-36 1z m33 -30 c-4 -9 -11 -16 -17 -16 -11 0 -14 33 -3 43 11 11 26 -10 20
-27z"/>
<path d="M3724 7076 c-9 -23 0 -51 16 -51 10 0 15 10 15 29 0 32 -21 47 -31
22z m26 -26 c0 -11 -4 -20 -10 -20 -5 0 -10 9 -10 20 0 11 5 20 10 20 6 0 10
-9 10 -20z"/>
<path d="M3795 7069 c-16 -3 -24 -7 -17 -8 6 0 12 -8 12 -16 0 -8 7 -15 15
-15 8 0 18 -1 22 -2 8 -4 12 42 4 46 -3 1 -19 -1 -36 -5z m25 -19 c0 -5 -4
-10 -10 -10 -5 0 -10 5 -10 10 0 6 5 10 10 10 6 0 10 -4 10 -10z"/>
<path d="M3527 6963 c-4 -3 -7 -17 -7 -30 0 -16 6 -23 20 -23 11 0 20 7 20 15
0 8 -5 15 -11 15 -5 0 -7 -4 -4 -10 3 -5 1 -10 -4 -10 -18 0 -12 38 7 43 14 4
14 5 1 6 -9 0 -19 -2 -22 -6z"/>
<path d="M3580 6940 c0 -29 1 -29 20 -13 11 10 20 23 20 30 0 7 -9 13 -20 13
-16 0 -20 -7 -20 -30z m30 16 c0 -3 -4 -8 -10 -11 -5 -3 -10 -1 -10 4 0 6 5
11 10 11 6 0 10 -2 10 -4z"/>
<path d="M3632 6940 c0 -19 2 -27 5 -17 2 9 2 25 0 35 -3 9 -5 1 -5 -18z"/>
<path d="M3667 6963 c-4 -3 -7 -17 -7 -30 0 -18 5 -23 23 -22 16 1 18 2 5 6
-10 2 -18 13 -18 24 0 24 15 25 30 2 11 -17 11 -17 6 0 -3 10 -6 21 -6 23 0 7
-26 5 -33 -3z"/>
<path d="M3731 6970 c-2 -3 -4 -17 -5 -32 -1 -22 3 -28 19 -28 12 0 16 3 9 8
-7 4 -14 18 -17 32 -2 14 -5 23 -6 20z"/>
<path d="M4826 6955 c-8 -23 4 -45 25 -45 10 0 19 7 19 15 0 8 -5 15 -11 15
-5 0 -7 -5 -3 -11 4 -7 1 -10 -6 -7 -24 8 -23 28 2 37 22 9 22 10 2 10 -12 1
-24 -6 -28 -14z"/>
<path d="M4880 6938 c0 -18 4 -28 8 -22 4 6 15 14 25 17 24 9 17 31 -11 35
-19 3 -22 -1 -22 -30z m35 12 c-3 -5 -10 -10 -16 -10 -5 0 -9 5 -9 10 0 6 7
10 16 10 8 0 12 -4 9 -10z"/>
<path d="M4942 6940 c0 -19 2 -27 5 -17 2 9 2 25 0 35 -3 9 -5 1 -5 -18z"/>
<path d="M4966 6955 c-9 -25 -7 -32 5 -12 13 23 29 22 29 -2 0 -11 -8 -22 -17
-24 -13 -3 -12 -5 5 -6 20 -1 23 3 20 26 -3 31 -32 43 -42 18z"/>
<path d="M5030 6960 c-10 -6 -11 -10 -2 -10 6 0 12 -6 12 -14 0 -8 -6 -17 -12
-19 -7 -3 1 -6 17 -6 17 0 25 3 19 7 -7 4 -14 17 -15 29 -3 17 -7 20 -19 13z"/>
<path d="M5087 6963 c-4 -3 -7 -17 -7 -30 0 -16 6 -23 20 -23 26 0 28 40 3 41
-15 0 -15 2 2 9 15 6 16 9 4 9 -9 1 -19 -2 -22 -6z m23 -33 c0 -5 -4 -10 -10
-10 -5 0 -10 5 -10 10 0 6 5 10 10 10 6 0 10 -4 10 -10z"/>
<path d="M3770 6956 c0 -8 61 -12 66 -4 3 4 -11 8 -30 8 -20 0 -36 -2 -36 -4z"/>
<path d="M4740 6956 c0 -8 61 -12 66 -4 3 4 -11 8 -30 8 -20 0 -36 -2 -36 -4z"/>
<path d="M3790 6930 c0 -11 39 -20 45 -10 3 4 -6 10 -20 12 -14 3 -25 2 -25
-2z"/>
<path d="M4760 6930 c0 -11 39 -20 45 -10 3 4 -6 10 -20 12 -14 3 -25 2 -25
-2z"/>
<path d="M3527 6853 c-12 -12 -7 -51 7 -56 8 -3 17 -3 20 0 10 10 7 33 -4 33
-5 0 -6 -7 -3 -17 4 -11 3 -14 -5 -9 -18 11 -14 44 6 49 14 4 14 5 1 6 -9 0
-19 -2 -22 -6z"/>
<path d="M3581 6823 c1 -21 3 -30 6 -20 2 9 11 17 19 17 21 0 13 34 -9 38 -14
3 -17 -4 -16 -35z m29 17 c0 -5 -4 -10 -10 -10 -5 0 -10 5 -10 10 0 6 5 10 10
10 6 0 10 -4 10 -10z"/>
<path d="M3633 6825 c0 -22 2 -30 4 -17 2 12 2 30 0 40 -3 9 -5 -1 -4 -23z"/>
<path d="M3667 6853 c-11 -10 -8 -51 4 -59 18 -10 42 21 34 45 -6 21 -25 28
-38 14z m28 -26 c0 -26 -20 -25 -23 2 -3 16 1 22 10 19 7 -3 13 -12 13 -21z"/>
<path d="M3720 6850 c0 -5 7 -7 15 -4 20 8 19 -15 -2 -38 -15 -17 -15 -18 8
-18 17 0 20 3 10 9 -9 6 -10 11 -2 15 19 12 13 46 -9 46 -11 0 -20 -4 -20 -10z"/>
<path d="M4830 6851 c0 -5 9 -7 20 -4 11 3 20 7 20 9 0 2 -9 4 -20 4 -11 0
-20 -4 -20 -9z"/>
<path d="M4881 6823 c1 -21 3 -31 6 -22 2 10 13 19 25 22 25 7 19 31 -10 35
-19 3 -22 -1 -21 -35z m34 17 c3 -5 -1 -10 -9 -10 -9 0 -16 5 -16 10 0 6 4 10
9 10 6 0 13 -4 16 -10z"/>
<path d="M4943 6825 c0 -22 2 -30 4 -17 2 12 2 30 0 40 -3 9 -5 -1 -4 -23z"/>
<path d="M4965 6839 c-9 -27 19 -59 36 -42 15 15 7 57 -13 61 -10 2 -19 -6
-23 -19z m35 -8 c0 -23 -16 -36 -25 -21 -9 14 1 40 15 40 5 0 10 -9 10 -19z"/>
<path d="M5030 6845 c-9 -11 -10 -16 -2 -11 8 5 12 1 12 -13 0 -10 -6 -22 -12
-24 -7 -3 1 -6 17 -6 17 0 25 3 18 7 -6 4 -13 20 -15 36 -3 28 -4 28 -18 11z"/>
<path d="M5092 6853 c14 -3 15 -9 8 -29 -6 -14 -10 -28 -10 -32 1 -10 17 20
24 46 6 19 4 22 -16 21 -16 -1 -18 -3 -6 -6z"/>
<path d="M3798 6842 c-25 -3 -26 -4 -10 -23 9 -10 25 -19 36 -19 18 0 14 14
-5 16 -22 3 -22 6 1 13 31 8 15 18 -22 13z"/>
<path d="M4768 6842 c-25 -3 -26 -4 -10 -23 9 -10 25 -19 36 -19 18 0 14 14
-5 16 -22 3 -22 6 1 13 31 8 15 18 -22 13z"/>
<path d="M4830 6812 c6 -13 17 -21 23 -19 15 5 22 37 8 37 -6 0 -8 -7 -5 -15
8 -20 -6 -19 -23 3 -13 15 -13 15 -3 -6z"/>
<path d="M3532 6741 c-19 -12 -11 -55 11 -59 10 -2 17 3 17 12 0 9 -5 16 -11
16 -5 0 -7 -4 -4 -10 3 -5 1 -10 -5 -10 -6 0 -10 10 -8 23 2 12 9 21 16 20 6
-2 12 2 12 7 0 12 -10 13 -28 1z"/>
<path d="M3581 6713 c1 -21 3 -30 6 -20 2 9 11 17 19 17 21 0 13 34 -9 38 -14
3 -17 -4 -16 -35z m24 17 c3 -5 1 -10 -4 -10 -6 0 -11 5 -11 10 0 6 2 10 4 10
3 0 8 -4 11 -10z"/>
<path d="M3633 6715 c0 -22 2 -30 4 -17 2 12 2 30 0 40 -3 9 -5 -1 -4 -23z"/>
<path d="M3664 6736 c-9 -24 0 -51 18 -54 21 -4 34 34 18 53 -16 19 -29 19
-36 1z m33 -30 c-4 -9 -11 -16 -17 -16 -11 0 -14 33 -3 43 11 11 26 -10 20
-27z"/>
<path d="M3729 6741 c7 -5 10 -14 7 -20 -4 -6 -2 -11 3 -11 18 0 12 -18 -6
-23 -14 -4 -12 -5 4 -6 20 -1 23 3 20 34 -1 28 -6 35 -22 35 -15 0 -17 -2 -6
-9z"/>
<path d="M4830 6731 c-5 -11 -7 -27 -4 -35 8 -20 44 -21 44 -1 0 8 -5 15 -11
15 -5 0 -7 -4 -4 -10 3 -5 2 -10 -4 -10 -15 0 -22 16 -15 35 4 9 13 14 21 11
8 -3 11 -1 8 4 -10 16 -23 12 -35 -9z"/>
<path d="M4881 6713 c1 -21 3 -31 6 -22 2 10 13 19 24 22 24 7 15 37 -12 37
-15 0 -19 -7 -18 -37z m34 17 c3 -5 -1 -10 -9 -10 -9 0 -16 5 -16 10 0 6 4 10
9 10 6 0 13 -4 16 -10z"/>
<path d="M4943 6715 c0 -22 2 -30 4 -17 2 12 2 30 0 40 -3 9 -5 -1 -4 -23z"/>
<path d="M4971 6736 c-17 -20 -4 -58 17 -54 11 2 17 13 17 32 0 33 -16 44 -34
22z m29 -27 c0 -20 -15 -26 -25 -9 -9 15 3 43 15 35 5 -3 10 -15 10 -26z"/>
<path d="M5032 6734 c-7 -8 -8 -14 -2 -14 14 0 13 -27 -2 -33 -7 -3 1 -6 17
-6 17 0 25 3 18 7 -6 4 -13 19 -15 34 -2 22 -5 24 -16 12z"/>
<path d="M5087 6744 c-4 -4 -7 -20 -7 -36 0 -22 5 -28 21 -28 17 0 20 5 17 32
-3 31 -17 45 -31 32z m23 -14 c0 -5 -4 -10 -10 -10 -5 0 -10 5 -10 10 0 6 5
10 10 10 6 0 10 -4 10 -10z m0 -30 c0 -5 -4 -10 -10 -10 -5 0 -10 5 -10 10 0
6 5 10 10 10 6 0 10 -4 10 -10z"/>
<path d="M3795 6729 l-30 -7 28 -1 c15 0 27 -6 27 -12 0 -6 -7 -9 -15 -5 -8 3
-15 1 -15 -4 0 -6 7 -10 15 -10 8 0 18 -1 22 -2 8 -4 12 42 4 46 -3 1 -19 -1
-36 -5z"/>
<path d="M4765 6729 l-30 -7 28 -1 c15 0 27 -6 27 -12 0 -6 -7 -9 -15 -5 -8 3
-15 1 -15 -4 0 -6 7 -10 15 -10 8 0 18 -1 22 -2 8 -4 12 42 4 46 -3 1 -19 -1
-36 -5z"/>
<path d="M3527 6623 c-4 -3 -7 -17 -7 -30 0 -16 6 -23 20 -23 11 0 20 7 20 15
0 8 -5 15 -11 15 -5 0 -7 -4 -4 -10 3 -5 1 -10 -4 -10 -18 0 -12 38 7 43 14 4
14 5 1 6 -9 0 -19 -2 -22 -6z"/>
<path d="M3580 6600 c0 -29 1 -29 20 -13 11 10 20 23 20 30 0 7 -9 13 -20 13
-16 0 -20 -7 -20 -30z m30 10 c0 -5 -4 -10 -10 -10 -5 0 -10 5 -10 10 0 6 5
10 10 10 6 0 10 -4 10 -10z"/>
<path d="M3632 6600 c0 -19 2 -27 5 -17 2 9 2 25 0 35 -3 9 -5 1 -5 -18z"/>
<path d="M3667 6623 c-4 -3 -7 -17 -7 -30 0 -16 6 -23 19 -23 25 0 34 14 26
40 -6 20 -25 26 -38 13z m31 -26 c2 -10 -3 -17 -12 -17 -10 0 -16 9 -16 21 0
24 23 21 28 -4z"/>
<path d="M4826 6615 c-8 -23 4 -45 25 -45 10 0 19 7 19 15 0 8 -5 15 -11 15
-5 0 -7 -5 -3 -11 4 -7 1 -10 -6 -7 -24 8 -23 28 2 37 22 9 22 10 2 10 -12 1
-24 -6 -28 -14z"/>
<path d="M4880 6598 c0 -18 4 -28 8 -22 4 6 15 14 25 17 24 9 17 31 -11 35
-19 3 -22 -1 -22 -30z m35 12 c-3 -5 -10 -10 -16 -10 -5 0 -9 5 -9 10 0 6 7
10 16 10 8 0 12 -4 9 -10z"/>
<path d="M4942 6600 c0 -19 2 -27 5 -17 2 9 2 25 0 35 -3 9 -5 1 -5 -18z"/>
<path d="M4965 6611 c-8 -27 1 -41 26 -41 16 0 20 6 17 27 -4 34 -33 43 -43
14z m35 -11 c0 -11 -7 -20 -15 -20 -15 0 -21 21 -8 33 12 13 23 7 23 -13z"/>
<path d="M5030 6620 c-10 -6 -11 -10 -2 -10 6 0 12 -6 12 -14 0 -8 -6 -17 -12
-19 -7 -3 1 -6 17 -6 17 0 25 3 19 7 -7 4 -14 17 -15 29 -3 17 -7 20 -19 13z"/>
<path d="M5080 6610 c0 -12 7 -20 18 -21 15 0 14 -2 -3 -10 l-20 -9 20 3 c14
1 21 11 23 30 3 22 -1 27 -17 27 -14 0 -21 -6 -21 -20z m30 0 c0 -5 -4 -10
-10 -10 -5 0 -10 5 -10 10 0 6 5 10 10 10 6 0 10 -4 10 -10z"/>
<path d="M3770 6616 c0 -8 61 -12 66 -4 3 4 -11 8 -30 8 -20 0 -36 -2 -36 -4z"/>
<path d="M4740 6616 c0 -8 61 -12 66 -4 3 4 -11 8 -30 8 -20 0 -36 -2 -36 -4z"/>
<path d="M3750 6599 c0 -6 -7 -9 -15 -5 -8 3 -15 2 -15 -3 0 -5 9 -11 20 -14
15 -4 20 0 20 14 0 10 -2 19 -5 19 -3 0 -5 -5 -5 -11z"/>
<path d="M3790 6590 c0 -11 39 -20 45 -10 3 4 -6 10 -20 12 -14 3 -25 2 -25
-2z"/>
<path d="M4760 6590 c0 -11 39 -20 45 -10 3 4 -6 10 -20 12 -14 3 -25 2 -25
-2z"/>
<path d="M3524 6506 c-9 -24 0 -51 19 -54 12 -2 17 3 17 17 0 12 -4 21 -10 21
-5 0 -7 -7 -4 -15 4 -8 1 -15 -5 -15 -19 0 -13 48 7 53 16 4 16 5 -1 6 -10 0
-20 -5 -23 -13z"/>
<path d="M3581 6483 c1 -21 3 -30 6 -20 2 9 11 17 19 17 21 0 13 34 -9 38 -14
3 -17 -4 -16 -35z m29 17 c0 -5 -4 -10 -10 -10 -5 0 -10 5 -10 10 0 6 5 10 10
10 6 0 10 -4 10 -10z"/>
<path d="M3633 6485 c0 -22 2 -30 4 -17 2 12 2 30 0 40 -3 9 -5 -1 -4 -23z"/>
<path d="M3664 6506 c-9 -23 0 -51 17 -54 19 -4 32 23 24 49 -7 22 -33 25 -41
5z m31 -21 c0 -10 -6 -20 -12 -22 -8 -3 -13 5 -13 22 0 17 5 25 13 23 6 -3 12
-13 12 -23z"/>
<path d="M3720 6500 c0 -13 5 -18 15 -14 10 4 15 0 15 -11 0 -11 -5 -15 -15
-11 -8 3 -15 1 -15 -4 0 -6 9 -10 20 -10 25 0 28 38 3 47 -15 6 -15 7 3 14 17
7 17 8 -3 8 -16 1 -23 -5 -23 -19z"/>
<path d="M4827 6498 c-5 -20 -4 -21 6 -7 7 9 19 18 27 22 10 4 9 6 -6 6 -14 1
-24 -7 -27 -21z"/>
<path d="M4881 6483 c1 -21 3 -31 6 -22 2 10 13 19 25 22 25 7 19 31 -10 35
-19 3 -22 -1 -21 -35z m34 17 c3 -5 -1 -10 -9 -10 -9 0 -16 5 -16 10 0 6 4 10
9 10 6 0 13 -4 16 -10z"/>
<path d="M4943 6485 c0 -22 2 -30 4 -17 2 12 2 30 0 40 -3 9 -5 -1 -4 -23z"/>
<path d="M4966 6502 c-9 -27 3 -54 23 -50 22 5 22 62 -1 66 -9 2 -19 -5 -22
-16z m34 -17 c0 -26 -14 -33 -25 -15 -9 14 1 40 15 40 5 0 10 -11 10 -25z"/>
<path d="M5024 6508 c-4 -7 -3 -8 4 -4 25 16 33 -6 11 -30 l-22 -24 29 1 c18
1 22 3 11 6 -17 4 -17 6 -2 23 18 20 13 40 -10 40 -8 0 -17 -5 -21 -12z"/>
<path d="M5084 6506 c-9 -23 0 -51 16 -51 10 0 15 10 15 29 0 32 -21 47 -31
22z m26 -21 c0 -14 -4 -25 -10 -25 -5 0 -10 11 -10 25 0 14 5 25 10 25 6 0 10
-11 10 -25z"/>
<path d="M3798 6502 c-25 -3 -26 -4 -10 -23 22 -25 49 -25 47 1 -2 25 -4 26
-37 22z m22 -22 c0 -5 -2 -10 -4 -10 -3 0 -8 5 -11 10 -3 6 -1 10 4 10 6 0 11
-4 11 -10z"/>
<path d="M4768 6502 c-25 -3 -26 -4 -10 -23 22 -25 49 -25 47 1 -2 25 -4 26
-37 22z m22 -22 c0 -5 -4 -10 -10 -10 -5 0 -10 5 -10 10 0 6 5 10 10 10 6 0
10 -4 10 -10z"/>
<path d="M4857 6473 c5 -12 2 -15 -10 -10 -9 3 -17 2 -17 -3 0 -6 9 -10 20
-10 13 0 20 7 20 20 0 11 -4 20 -10 20 -5 0 -6 -8 -3 -17z"/>
<path d="M3522 6373 c3 -30 38 -47 38 -19 0 9 -5 16 -11 16 -5 0 -7 -4 -4 -10
3 -5 1 -10 -4 -10 -18 0 -12 38 7 43 12 3 11 5 -6 6 -20 1 -23 -3 -20 -26z"/>
<path d="M3580 6370 c0 -29 1 -29 20 -13 11 10 20 23 20 30 0 7 -9 13 -20 13
-16 0 -20 -7 -20 -30z m30 16 c0 -3 -4 -8 -10 -11 -5 -3 -10 -1 -10 4 0 6 5
11 10 11 6 0 10 -2 10 -4z"/>
<path d="M3632 6370 c0 -19 2 -27 5 -17 2 9 2 25 0 35 -3 9 -5 1 -5 -18z"/>
<path d="M3660 6375 c0 -29 27 -45 41 -24 14 22 6 44 -19 47 -18 3 -22 -1 -22
-23z m38 -2 c-5 -25 -28 -28 -28 -4 0 12 6 21 16 21 9 0 14 -7 12 -17z"/>
<path d="M3727 6393 c-4 -3 -7 -17 -7 -30 0 -16 6 -23 20 -23 26 0 28 40 3 41
-15 0 -15 2 2 9 15 6 16 9 4 9 -9 1 -19 -2 -22 -6z m23 -33 c0 -5 -4 -10 -10
-10 -5 0 -10 5 -10 10 0 6 5 10 10 10 6 0 10 -4 10 -10z"/>
<path d="M4826 6385 c-8 -23 4 -45 25 -45 10 0 19 7 19 15 0 8 -5 15 -11 15
-5 0 -7 -5 -3 -11 4 -7 1 -10 -6 -7 -24 8 -23 28 2 37 22 9 22 10 2 10 -12 1
-24 -6 -28 -14z"/>
<path d="M4881 6368 c0 -18 3 -27 6 -20 2 6 11 12 18 12 14 0 27 25 18 34 -4
3 -15 6 -25 6 -14 0 -18 -7 -17 -32z m34 12 c-3 -5 -10 -10 -16 -10 -5 0 -9 5
-9 10 0 6 7 10 16 10 8 0 12 -4 9 -10z"/>
<path d="M4942 6370 c0 -19 2 -27 5 -17 2 9 2 25 0 35 -3 9 -5 1 -5 -18z"/>
<path d="M4965 6390 c-3 -6 -3 -19 0 -31 10 -29 39 -20 43 14 3 21 -1 27 -17
27 -11 0 -23 -5 -26 -10z m35 -21 c0 -24 -23 -21 -28 4 -2 10 3 17 12 17 10 0
16 -9 16 -21z"/>
<path d="M5038 6393 l24 -5 -23 -24 -22 -24 29 1 c23 0 25 2 11 8 -17 6 -17 8
-3 20 20 17 11 31 -17 30 -21 -2 -21 -2 1 -6z"/>
<path d="M5091 6400 c-2 -3 -4 -17 -5 -32 -1 -22 3 -28 19 -28 12 0 16 3 9 8
-7 4 -14 18 -17 32 -2 14 -5 23 -6 20z"/>
<path d="M3793 6383 c15 -2 27 -9 27 -15 0 -5 -7 -8 -15 -4 -8 3 -15 1 -15 -4
0 -6 7 -10 15 -10 8 0 18 -1 22 -2 3 -2 7 7 8 20 1 19 -3 22 -34 21 -30 -2
-32 -3 -8 -6z"/>
<path d="M4763 6383 c15 -2 27 -9 27 -15 0 -5 -7 -8 -15 -4 -8 3 -15 1 -15 -4
0 -6 7 -10 15 -10 8 0 18 -1 22 -2 3 -2 7 7 8 20 1 19 -3 22 -34 21 -30 -2
-32 -3 -8 -6z"/>
<path d="M3527 6283 c-12 -12 -7 -51 7 -56 8 -3 17 -3 20 0 10 10 7 33 -4 33
-5 0 -6 -7 -3 -17 4 -11 3 -14 -5 -9 -18 11 -14 44 6 49 14 4 14 5 1 6 -9 0
-19 -2 -22 -6z"/>
<path d="M3581 6253 c0 -21 3 -31 6 -23 3 8 12 19 19 23 21 12 17 37 -6 37
-17 0 -20 -6 -19 -37z m29 17 c0 -5 -4 -10 -10 -10 -5 0 -10 5 -10 10 0 6 5
10 10 10 6 0 10 -4 10 -10z"/>
<path d="M3633 6255 c0 -22 2 -30 4 -17 2 12 2 30 0 40 -3 9 -5 -1 -4 -23z"/>
<path d="M3667 6283 c-11 -10 -8 -51 4 -59 18 -10 42 21 34 45 -6 21 -25 28
-38 14z m28 -26 c0 -26 -20 -25 -23 2 -3 16 1 22 10 19 7 -3 13 -12 13 -21z"/>
<path d="M3732 6283 c14 -3 15 -9 8 -29 -6 -14 -10 -28 -10 -32 1 -10 17 20
24 46 6 19 4 22 -16 21 -16 -1 -18 -3 -6 -6z"/>
<path d="M4826 6274 c-8 -20 12 -56 27 -51 15 5 22 37 8 37 -6 0 -8 -7 -5 -15
4 -8 2 -15 -4 -15 -8 0 -22 22 -22 36 0 3 10 9 23 14 22 9 22 9 1 9 -12 1 -25
-6 -28 -15z"/>
<path d="M4881 6253 c1 -21 3 -31 6 -22 2 10 13 19 25 22 25 7 19 31 -10 35
-19 3 -22 -1 -21 -35z m34 17 c-3 -5 -10 -10 -16 -10 -5 0 -9 5 -9 10 0 6 7
10 16 10 8 0 12 -4 9 -10z"/>
<path d="M4943 6255 c0 -22 2 -30 4 -17 2 12 2 30 0 40 -3 9 -5 -1 -4 -23z"/>
<path d="M4965 6269 c-9 -27 19 -59 36 -42 15 15 7 57 -13 61 -10 2 -19 -6
-23 -19z m35 -8 c0 -23 -16 -36 -25 -21 -9 14 1 40 15 40 5 0 10 -9 10 -19z"/>
<path d="M5040 6281 c17 -5 21 -9 12 -14 -6 -5 -17 -17 -22 -28 -9 -17 -7 -19
17 -18 23 0 24 2 9 8 -17 7 -17 8 -2 24 21 20 13 37 -17 36 -20 -1 -20 -2 3
-8z"/>
<path d="M5093 6283 c21 -6 21 -8 1 -38 -16 -24 -15 -25 7 -25 15 0 19 3 12 8
-8 5 -9 13 -3 22 16 25 11 40 -12 39 -17 -1 -19 -2 -5 -6z"/>
<path d="M3797 6272 c-22 -3 -25 -6 -15 -16 19 -18 47 -26 53 -16 4 6 -4 10
-17 11 -23 1 -23 1 2 8 31 9 15 18 -23 13z"/>
<path d="M4767 6272 c-22 -3 -25 -6 -15 -16 19 -18 47 -26 53 -16 4 6 -4 10
-17 11 -23 1 -23 1 2 8 31 9 15 18 -23 13z"/>
<path d="M3532 6171 c-19 -12 -11 -55 11 -59 10 -2 17 3 17 12 0 9 -5 16 -11
16 -5 0 -7 -4 -4 -10 3 -5 1 -10 -5 -10 -6 0 -10 10 -8 23 2 12 9 21 16 20 6
-2 12 2 12 7 0 12 -10 13 -28 1z"/>
<path d="M3581 6143 c1 -21 3 -30 6 -20 2 9 11 17 19 17 21 0 13 34 -9 38 -14
3 -17 -4 -16 -35z m24 17 c3 -5 1 -10 -4 -10 -6 0 -11 5 -11 10 0 6 2 10 4 10
3 0 8 -4 11 -10z"/>
<path d="M3633 6145 c0 -22 2 -30 4 -17 2 12 2 30 0 40 -3 9 -5 -1 -4 -23z"/>
<path d="M3664 6166 c-9 -24 0 -51 18 -54 21 -4 34 34 18 53 -16 19 -29 19
-36 1z m33 -30 c-4 -9 -11 -16 -17 -16 -11 0 -14 33 -3 43 11 11 26 -10 20
-27z"/>
<path d="M3727 6174 c-4 -4 -7 -20 -7 -36 0 -22 5 -28 21 -28 17 0 20 5 17 32
-3 31 -17 45 -31 32z m23 -14 c0 -5 -4 -10 -10 -10 -5 0 -10 5 -10 10 0 6 5
10 10 10 6 0 10 -4 10 -10z m0 -30 c0 -5 -4 -10 -10 -10 -5 0 -10 5 -10 10 0
6 5 10 10 10 6 0 10 -4 10 -10z"/>
<path d="M3798 6162 c-26 -3 -27 -4 -10 -22 26 -28 44 -28 47 -2 2 27 -1 29
-37 24z m22 -22 c0 -5 -4 -10 -10 -10 -5 0 -10 5 -10 10 0 6 5 10 10 10 6 0
10 -4 10 -10z"/>
<path d="M3520 6030 c0 -23 4 -30 20 -30 11 0 20 7 20 15 0 8 -5 15 -11 15 -5
0 -7 -4 -4 -10 3 -5 1 -10 -4 -10 -18 0 -12 38 7 43 13 4 11 5 -5 6 -19 1 -23
-4 -23 -29z"/>
<path d="M3580 6030 c0 -29 1 -29 20 -13 11 10 20 23 20 30 0 7 -9 13 -20 13
-16 0 -20 -7 -20 -30z m30 16 c0 -3 -4 -8 -10 -11 -5 -3 -10 -1 -10 4 0 6 5
11 10 11 6 0 10 -2 10 -4z"/>
<path d="M3632 6030 c0 -19 2 -27 5 -17 2 9 2 25 0 35 -3 9 -5 1 -5 -18z"/>
<path d="M3660 6030 c0 -25 4 -30 23 -29 16 1 18 2 5 6 -10 2 -18 13 -18 23 0
10 8 21 18 23 13 4 11 5 -5 6 -19 1 -23 -4 -23 -29z"/>
<path d="M3720 6040 c0 -12 7 -20 18 -21 15 0 14 -2 -3 -10 l-20 -9 20 3 c14
1 21 11 23 30 3 22 -1 27 -17 27 -14 0 -21 -6 -21 -20z m30 0 c0 -5 -4 -10
-10 -10 -5 0 -10 5 -10 10 0 6 5 10 10 10 6 0 10 -4 10 -10z"/>
<path d="M4733 6043 c3 -13 1 -23 -4 -23 -5 0 -9 -4 -9 -8 0 -4 9 -8 20 -8 24
0 24 3 4 36 -14 24 -15 24 -11 3z"/>
<path d="M4770 6030 c0 -23 5 -30 19 -30 21 0 33 22 25 45 -4 8 -15 15 -25 15
-14 0 -19 -7 -19 -30z m35 0 c0 -7 -6 -15 -12 -17 -8 -3 -13 4 -13 17 0 13 5
20 13 18 6 -3 12 -11 12 -18z"/>
<path d="M4830 6031 c0 -28 3 -30 45 -37 25 -3 49 -4 52 0 4 3 -5 6 -18 6 -43
0 -69 12 -69 30 0 10 8 21 18 23 13 4 11 5 -5 6 -19 1 -23 -4 -23 -28z"/>
<path d="M4981 6028 c0 -18 3 -27 6 -20 3 8 9 10 16 3 9 -6 13 -1 14 20 2 23
-2 29 -17 29 -16 0 -20 -7 -19 -32z m29 12 c0 -5 -4 -10 -10 -10 -5 0 -10 5
-10 10 0 6 5 10 10 10 6 0 10 -4 10 -10z"/>
<path d="M5040 6030 c0 -22 5 -30 18 -30 13 0 14 2 4 9 -14 9 -13 32 3 43 6 4
2 8 -7 8 -13 0 -18 -8 -18 -30z"/>
<path d="M5091 6028 c0 -18 3 -26 6 -18 3 8 11 18 17 22 7 5 6 8 -4 8 -13 0
-13 1 0 10 13 8 12 10 -2 10 -14 0 -18 -8 -17 -32z"/>
<path d="M3793 6043 c15 -2 27 -9 27 -15 0 -5 -7 -8 -15 -4 -8 3 -15 1 -15 -4
0 -6 7 -10 15 -10 8 0 18 -1 22 -2 3 -2 7 7 8 20 1 19 -3 22 -34 21 -30 -2
-32 -3 -8 -6z"/>
<path d="M4930 6035 c0 -5 4 -16 9 -23 6 -11 10 -10 15 4 3 9 4 19 1 22 -3 3
-5 -1 -5 -9 0 -11 -2 -11 -10 1 -5 8 -10 11 -10 5z"/>
<path d="M3527 5943 c-12 -12 -7 -51 7 -56 8 -3 17 -3 20 0 10 10 7 33 -4 33
-5 0 -6 -7 -3 -17 4 -11 3 -14 -5 -9 -18 11 -14 44 6 49 14 4 14 5 1 6 -9 0
-19 -2 -22 -6z"/>
<path d="M3581 5913 c0 -21 3 -31 6 -23 4 8 13 20 21 26 17 12 8 34 -14 34
-10 0 -14 -11 -13 -37z m29 17 c0 -5 -4 -10 -10 -10 -5 0 -10 5 -10 10 0 6 5
10 10 10 6 0 10 -4 10 -10z"/>
<path d="M3633 5915 c0 -22 2 -30 4 -17 2 12 2 30 0 40 -3 9 -5 -1 -4 -23z"/>
<path d="M3667 5943 c-11 -10 -8 -51 4 -59 18 -10 42 21 34 45 -6 21 -25 28
-38 14z m28 -26 c0 -26 -20 -25 -23 2 -3 16 1 22 10 19 7 -3 13 -12 13 -21z"/>
<path d="M3730 5948 c-1 -5 -3 -21 -4 -38 -1 -24 3 -30 19 -30 12 0 16 3 8 8
-6 4 -13 21 -16 37 -2 17 -5 27 -7 23z"/>
<path d="M3775 5930 c-7 -22 11 -53 26 -44 5 3 9 18 9 35 0 34 -25 40 -35 9z
m25 -17 c0 -20 -3 -24 -11 -16 -7 7 -9 19 -6 27 10 24 17 19 17 -11z"/>
<path d="M3858 5932 c-24 -3 -27 -6 -18 -23 6 -11 21 -19 36 -19 14 0 23 4 19
10 -4 6 -11 8 -16 5 -5 -4 -15 -3 -21 2 -9 5 -3 9 17 13 36 7 21 17 -17 12z"/>
<path d="M3532 5831 c-19 -12 -11 -55 11 -59 10 -2 17 3 17 12 0 9 -5 16 -11
16 -5 0 -7 -4 -4 -10 3 -5 1 -10 -5 -10 -6 0 -10 10 -8 23 2 12 9 21 16 20 6
-2 12 2 12 7 0 12 -10 13 -28 1z"/>
<path d="M3581 5803 c1 -21 3 -30 6 -20 2 9 11 17 19 17 21 0 13 34 -9 38 -14
3 -17 -4 -16 -35z m24 17 c3 -5 1 -10 -4 -10 -6 0 -11 5 -11 10 0 6 2 10 4 10
3 0 8 -4 11 -10z"/>
<path d="M3633 5805 c0 -22 2 -30 4 -17 2 12 2 30 0 40 -3 9 -5 -1 -4 -23z"/>
<path d="M3664 5826 c-9 -24 0 -51 18 -54 21 -4 34 34 18 53 -16 19 -29 19
-36 1z m33 -30 c-4 -9 -11 -16 -17 -16 -11 0 -14 33 -3 43 11 11 26 -10 20
-27z"/>
<path d="M3731 5835 c-2 -5 -4 -22 -5 -37 -1 -22 3 -28 19 -28 12 0 16 3 8 8
-6 4 -13 21 -16 37 -2 17 -5 26 -6 20z"/>
<path d="M3780 5825 c-9 -10 -9 -15 -1 -15 15 0 14 -27 -1 -33 -7 -3 -4 -6 7
-6 18 -1 20 4 17 34 -5 40 -5 40 -22 20z"/>
<path d="M4570 5821 c-5 -11 -7 -27 -4 -35 8 -20 44 -21 44 -1 0 8 -5 15 -11
15 -5 0 -7 -4 -4 -10 3 -5 2 -10 -4 -10 -15 0 -22 16 -15 35 4 9 13 14 21 11
8 -3 11 -1 8 4 -10 16 -23 12 -35 -9z"/>
<path d="M4621 5803 c1 -21 3 -31 6 -22 2 10 13 19 25 22 25 7 19 31 -10 35
-19 3 -22 -1 -21 -35z m34 17 c3 -5 -1 -10 -9 -10 -9 0 -16 5 -16 10 0 6 4 10
9 10 6 0 13 -4 16 -10z"/>
<path d="M4683 5805 c0 -22 2 -30 4 -17 2 12 2 30 0 40 -3 9 -5 -1 -4 -23z"/>
<path d="M4711 5826 c-17 -20 -4 -58 17 -54 11 2 17 13 17 32 0 33 -16 44 -34
22z m29 -27 c0 -20 -15 -26 -25 -9 -9 15 3 43 15 35 5 -3 10 -15 10 -26z"/>
<path d="M4764 5828 c-5 -7 -2 -9 8 -5 26 10 29 -5 6 -30 l-21 -23 29 1 c18 1
22 3 11 6 -17 4 -17 6 -2 23 18 20 13 40 -10 40 -8 0 -17 -5 -21 -12z"/>
<path d="M4826 5824 c-13 -35 -6 -51 25 -58 50 -10 69 -7 69 9 0 8 7 15 15 15
8 0 15 -5 15 -12 0 -6 2 -9 6 -6 3 3 -1 21 -9 39 l-14 34 -12 -37 c-10 -30
-18 -38 -37 -38 -17 0 -24 6 -24 20 0 12 -7 20 -17 20 -16 1 -16 2 1 15 16 12
17 15 4 15 -9 0 -19 -7 -22 -16z m24 -34 c0 -5 -4 -10 -10 -10 -5 0 -10 5 -10
10 0 6 5 10 10 10 6 0 10 -4 10 -10z"/>
<path d="M4970 5806 c0 -26 4 -36 15 -36 33 0 30 57 -3 68 -8 2 -12 -9 -12
-32z m30 -1 c0 -8 -4 -17 -10 -20 -6 -4 -10 5 -10 20 0 15 4 24 10 20 6 -3 10
-12 10 -20z"/>
<path d="M5030 5825 c-18 -22 -8 -50 20 -52 l25 -3 -23 10 c-28 12 -26 47 2
42 11 -2 15 1 11 7 -9 15 -20 14 -35 -4z"/>
<path d="M5087 5834 c-4 -4 -7 -20 -7 -36 0 -22 5 -28 21 -28 17 0 20 5 17 32
-3 31 -17 45 -31 32z m23 -34 c0 -11 -4 -20 -10 -20 -5 0 -10 9 -10 20 0 11 5
20 10 20 6 0 10 -9 10 -20z"/>
<path d="M3857 5821 c-24 -5 -26 -8 -15 -23 21 -27 51 -27 53 0 2 28 -2 30
-38 23z m23 -21 c0 -5 -4 -10 -9 -10 -6 0 -13 5 -16 10 -3 6 1 10 9 10 9 0 16
-4 16 -10z"/>
<path d="M4505 5819 c-16 -3 -24 -7 -17 -8 6 0 12 -8 12 -16 0 -8 7 -15 15
-15 8 0 18 -1 22 -2 8 -4 12 42 4 46 -3 1 -19 -1 -36 -5z m25 -19 c0 -5 -4
-10 -10 -10 -5 0 -10 5 -10 10 0 6 5 10 10 10 6 0 10 -4 10 -10z"/>
<path d="M3527 5713 c-4 -3 -7 -17 -7 -30 0 -16 6 -23 20 -23 11 0 20 7 20 15
0 8 -5 15 -11 15 -5 0 -7 -4 -4 -10 3 -5 1 -10 -4 -10 -18 0 -12 38 7 43 14 4
14 5 1 6 -9 0 -19 -2 -22 -6z"/>
<path d="M3580 5690 c0 -29 1 -29 20 -13 11 10 20 23 20 30 0 7 -9 13 -20 13
-16 0 -20 -7 -20 -30z m30 16 c0 -3 -4 -8 -10 -11 -5 -3 -10 -1 -10 4 0 6 5
11 10 11 6 0 10 -2 10 -4z"/>
<path d="M3632 5690 c0 -19 2 -27 5 -17 2 9 2 25 0 35 -3 9 -5 1 -5 -18z"/>
<path d="M3667 5713 c-4 -3 -7 -17 -7 -30 0 -16 6 -23 19 -23 25 0 34 14 26
40 -6 20 -25 26 -38 13z m31 -26 c2 -10 -3 -17 -12 -17 -10 0 -16 9 -16 21 0
24 23 21 28 -4z"/>
<path d="M3731 5720 c-2 -3 -4 -17 -5 -32 -1 -22 3 -28 19 -28 12 0 16 3 9 8
-7 4 -14 18 -17 32 -2 14 -5 23 -6 20z"/>
<path d="M3783 5713 c21 -6 21 -12 0 -35 -15 -17 -15 -18 8 -18 17 0 20 3 10
9 -9 6 -10 11 -2 15 20 13 12 36 -11 35 -17 -1 -19 -2 -5 -6z"/>
<path d="M4566 5705 c-8 -23 4 -45 25 -45 10 0 19 7 19 15 0 8 -5 15 -11 15
-5 0 -7 -5 -3 -11 4 -7 1 -10 -6 -7 -24 8 -23 28 2 37 22 9 22 10 2 10 -12 1
-24 -6 -28 -14z"/>
<path d="M4620 5688 c0 -18 4 -28 8 -22 4 6 15 14 25 17 24 9 17 31 -11 35
-19 3 -22 -1 -22 -30z m35 12 c-3 -5 -10 -10 -16 -10 -5 0 -9 5 -9 10 0 6 7
10 16 10 8 0 12 -4 9 -10z"/>
<path d="M4682 5690 c0 -19 2 -27 5 -17 2 9 2 25 0 35 -3 9 -5 1 -5 -18z"/>
<path d="M4705 5701 c-8 -27 1 -41 26 -41 16 0 20 6 17 27 -4 34 -33 43 -43
14z m35 -11 c0 -11 -7 -20 -15 -20 -15 0 -21 21 -8 33 12 13 23 7 23 -13z"/>
<path d="M4778 5713 l24 -5 -23 -24 -22 -24 29 1 c23 0 25 2 11 8 -17 6 -17 8
-3 20 20 17 11 31 -17 30 -21 -2 -21 -2 1 -6z"/>
<path d="M4828 5713 c6 -2 18 -2 25 0 6 3 1 5 -13 5 -14 0 -19 -2 -12 -5z"/>
<path d="M4922 5691 c-8 -21 -18 -31 -39 -34 -27 -4 -27 -4 5 -6 18 0 32 4 32
10 0 6 9 9 19 6 17 -4 18 -2 9 24 -5 16 -11 29 -13 29 -2 0 -8 -13 -13 -29z"/>
<path d="M4970 5690 c0 -25 4 -31 18 -28 11 2 17 12 17 28 0 16 -6 26 -17 28
-14 3 -18 -3 -18 -28z m30 -6 c0 -8 -4 -14 -10 -14 -5 0 -10 9 -10 21 0 11 5
17 10 14 6 -3 10 -13 10 -21z"/>
<path d="M5024 5705 c-10 -24 4 -45 28 -44 l23 2 -22 4 c-13 2 -23 11 -23 19
0 8 10 19 23 24 l22 9 -23 0 c-12 1 -25 -6 -28 -14z"/>
<path d="M5091 5720 c-2 -3 -4 -17 -5 -32 -1 -22 3 -28 19 -28 12 0 16 3 9 8
-7 4 -14 18 -17 32 -2 14 -5 23 -6 20z"/>
<path d="M3830 5706 c0 -8 61 -12 66 -4 3 4 -11 8 -30 8 -20 0 -36 -2 -36 -4z"/>
<path d="M4480 5706 c0 -8 61 -12 66 -4 3 4 -11 8 -30 8 -20 0 -36 -2 -36 -4z"/>
<path d="M3840 5679 c0 -10 50 -18 55 -9 3 4 -9 10 -25 12 -17 3 -30 1 -30 -3z"/>
<path d="M4500 5680 c0 -11 39 -20 45 -10 3 4 -6 10 -20 12 -14 3 -25 2 -25
-2z"/>
<path d="M3524 5596 c-9 -24 0 -51 19 -54 12 -2 17 3 17 17 0 12 -4 21 -10 21
-5 0 -7 -7 -4 -15 4 -8 1 -15 -5 -15 -19 0 -13 48 7 53 16 4 16 5 -1 6 -10 0
-20 -5 -23 -13z"/>
<path d="M3581 5573 c1 -21 3 -30 6 -20 2 9 11 17 19 17 21 0 13 34 -9 38 -14
3 -17 -4 -16 -35z m29 17 c0 -5 -4 -10 -10 -10 -5 0 -10 5 -10 10 0 6 5 10 10
10 6 0 10 -4 10 -10z"/>
<path d="M3633 5575 c0 -22 2 -30 4 -17 2 12 2 30 0 40 -3 9 -5 -1 -4 -23z"/>
<path d="M3664 5596 c-9 -23 0 -51 17 -54 19 -4 32 23 24 49 -7 22 -33 25 -41
5z m31 -21 c0 -10 -6 -20 -12 -22 -8 -3 -13 5 -13 22 0 17 5 25 13 23 6 -3 12
-13 12 -23z"/>
<path d="M3730 5608 c-1 -5 -3 -21 -4 -38 -1 -24 3 -30 19 -30 12 0 16 3 8 8
-6 4 -13 21 -16 37 -2 17 -5 27 -7 23z"/>
<path d="M3778 5603 c6 -2 18 -2 25 0 6 3 1 5 -13 5 -14 0 -19 -2 -12 -5z"/>
<path d="M4570 5601 c0 -5 9 -7 20 -4 11 3 20 7 20 9 0 2 -9 4 -20 4 -11 0
-20 -4 -20 -9z"/>
<path d="M4621 5573 c1 -21 3 -31 6 -22 2 10 13 19 25 22 25 7 19 31 -10 35
-19 3 -22 -1 -21 -35z m34 17 c3 -5 -1 -10 -9 -10 -9 0 -16 5 -16 10 0 6 4 10
9 10 6 0 13 -4 16 -10z"/>
<path d="M4683 5575 c0 -22 2 -30 4 -17 2 12 2 30 0 40 -3 9 -5 -1 -4 -23z"/>
<path d="M4706 5592 c-9 -27 3 -54 23 -50 22 5 22 62 -1 66 -9 2 -19 -5 -22
-16z m34 -17 c0 -26 -14 -33 -25 -15 -9 14 1 40 15 40 5 0 10 -11 10 -25z"/>
<path d="M4764 5598 c-4 -7 -3 -8 4 -4 25 16 33 -6 11 -30 l-22 -24 29 1 c18
1 22 3 11 6 -17 4 -17 6 -2 23 18 20 13 40 -10 40 -8 0 -17 -5 -21 -12z"/>
<path d="M4820 5575 l0 -35 50 0 c28 0 50 5 50 10 0 6 7 10 15 10 8 0 15 -5
15 -12 0 -6 2 -9 5 -6 3 2 0 20 -7 39 l-12 34 -13 -33 c-10 -24 -19 -32 -38
-32 -21 0 -25 5 -25 30 0 23 -4 30 -20 30 -16 0 -20 -7 -20 -35z m30 15 c0 -5
-4 -10 -10 -10 -5 0 -10 5 -10 10 0 6 5 10 10 10 6 0 10 -4 10 -10z m0 -30 c0
-5 -4 -10 -10 -10 -5 0 -10 5 -10 10 0 6 5 10 10 10 6 0 10 -4 10 -10z"/>
<path d="M4970 5575 c0 -41 26 -49 36 -11 7 29 -1 46 -22 46 -9 0 -14 -11 -14
-35z m30 0 c0 -8 -4 -17 -10 -20 -6 -4 -10 5 -10 20 0 15 4 24 10 20 6 -3 10
-12 10 -20z"/>
<path d="M5025 5599 c-11 -16 4 -59 20 -59 7 0 16 4 19 9 3 5 -2 8 -12 7 -11
-1 -17 6 -17 19 0 13 6 20 17 19 10 -1 15 2 12 7 -7 12 -31 11 -39 -2z"/>
<path d="M5080 5600 c0 -5 7 -7 15 -4 20 8 19 -15 -2 -38 -15 -17 -15 -18 8
-18 17 0 20 3 10 9 -9 6 -10 11 -2 15 19 12 13 46 -9 46 -11 0 -20 -4 -20 -10z"/>
<path d="M3858 5592 c-24 -3 -27 -6 -18 -23 15 -26 57 -26 55 1 -2 25 -4 26
-37 22z m22 -22 c0 -5 -4 -10 -9 -10 -6 0 -13 5 -16 10 -3 6 1 10 9 10 9 0 16
-4 16 -10z"/>
<path d="M4508 5592 c-25 -3 -26 -4 -10 -23 22 -25 49 -25 47 1 -2 25 -4 26
-37 22z m22 -22 c0 -5 -2 -10 -4 -10 -3 0 -8 5 -11 10 -3 6 -1 10 4 10 6 0 11
-4 11 -10z"/>
<path d="M3798 5568 c4 -17 2 -20 -11 -15 -10 4 -17 2 -17 -3 0 -6 9 -10 20
-10 21 0 29 33 11 44 -5 4 -7 -4 -3 -16z"/>
<path d="M4567 5563 c7 -29 43 -31 43 -3 0 11 -4 20 -10 20 -5 0 -7 -7 -4 -15
8 -21 -6 -19 -22 3 -12 15 -12 15 -7 -5z"/>
<path d="M3522 5463 c3 -30 38 -47 38 -19 0 9 -5 16 -11 16 -5 0 -7 -4 -4 -10
3 -5 1 -10 -4 -10 -18 0 -12 38 7 43 12 3 11 5 -6 6 -20 1 -23 -3 -20 -26z"/>
<path d="M3581 5458 c1 -18 3 -25 6 -15 2 9 11 17 19 17 8 0 14 7 14 15 0 8
-9 15 -20 15 -16 0 -20 -6 -19 -32z"/>
<path d="M3632 5460 c0 -19 2 -27 5 -17 2 9 2 25 0 35 -3 9 -5 1 -5 -18z"/>
<path d="M3660 5465 c0 -29 27 -45 41 -24 14 22 6 44 -19 47 -18 3 -22 -1 -22
-23z m38 -2 c-5 -25 -28 -28 -28 -4 0 12 6 21 16 21 9 0 14 -7 12 -17z"/>
<path d="M3731 5490 c-2 -3 -4 -17 -5 -32 -1 -22 3 -28 19 -28 12 0 16 3 9 8
-7 4 -14 18 -17 32 -2 14 -5 23 -6 20z"/>
<path d="M3855 5479 l-30 -7 28 -1 c15 0 27 -6 27 -12 0 -6 -9 -8 -22 -4 -16
5 -20 4 -13 -3 6 -6 19 -12 29 -14 14 -2 19 3 21 20 2 28 -2 30 -40 21z"/>
<path d="M3800 5473 c0 -7 -8 -13 -17 -14 -14 0 -15 -2 -3 -6 8 -3 18 -10 21
-15 3 -5 9 -3 12 5 3 7 1 20 -4 28 -6 10 -9 10 -9 2z"/>
<path d="M3527 5373 c-12 -12 -7 -51 7 -56 8 -3 17 -3 20 0 10 10 7 33 -4 33
-5 0 -6 -7 -3 -17 4 -11 3 -14 -5 -9 -18 11 -14 44 6 49 14 4 14 5 1 6 -9 0
-19 -2 -22 -6z"/>
<path d="M3581 5343 c0 -21 3 -31 6 -23 3 8 12 19 19 23 21 12 17 37 -6 37
-17 0 -20 -6 -19 -37z m29 17 c0 -5 -4 -10 -10 -10 -5 0 -10 5 -10 10 0 6 5
10 10 10 6 0 10 -4 10 -10z"/>
<path d="M3633 5345 c0 -22 2 -30 4 -17 2 12 2 30 0 40 -3 9 -5 -1 -4 -23z"/>
<path d="M3667 5373 c-11 -10 -8 -51 4 -59 18 -10 42 21 34 45 -6 21 -25 28
-38 14z m28 -26 c0 -26 -20 -25 -23 2 -3 16 1 22 10 19 7 -3 13 -12 13 -21z"/>
<path d="M3730 5378 c-1 -5 -3 -21 -4 -38 -1 -24 3 -30 19 -30 12 0 16 3 8 8
-6 4 -13 21 -16 37 -2 17 -5 27 -7 23z"/>
<path d="M3788 5373 c7 -3 16 -2 19 1 4 3 -2 6 -13 5 -11 0 -14 -3 -6 -6z"/>
<path d="M4923 5363 c3 -13 1 -23 -4 -23 -5 0 -9 -8 -9 -17 0 -15 2 -16 10 -3
9 13 11 13 20 0 17 -26 12 11 -6 40 -14 24 -15 24 -11 3z"/>
<path d="M4967 5373 c-12 -12 -7 -51 7 -56 8 -3 17 -3 20 0 10 10 7 33 -4 33
-5 0 -6 -7 -3 -17 4 -11 3 -14 -5 -9 -18 11 -14 44 6 49 14 4 14 5 1 6 -9 0
-19 -2 -22 -6z"/>
<path d="M5020 5348 c0 -21 2 -38 4 -38 9 0 12 50 5 62 -6 8 -9 -1 -9 -24z"/>
<path d="M5048 5356 c-3 -14 -1 -31 3 -38 6 -8 9 1 9 25 0 42 -6 48 -12 13z"/>
<path d="M5080 5346 c0 -37 5 -42 28 -27 19 12 11 55 -10 59 -15 3 -18 -4 -18
-32z m30 5 c0 -11 -4 -23 -10 -26 -6 -4 -10 5 -10 19 0 14 5 26 10 26 6 0 10
-9 10 -19z"/>
<path d="M3858 5361 c-17 -4 -25 -10 -20 -17 10 -15 51 -24 58 -13 3 5 -7 10
-23 10 l-28 1 30 7 c17 3 26 9 20 12 -5 3 -22 3 -37 0z"/>
<path d="M4856 5361 c-23 -5 -26 -8 -15 -17 23 -18 48 -24 54 -14 4 6 -6 11
-22 11 l-28 1 30 7 c38 8 20 19 -19 12z"/>
<path d="M3775 5350 c-3 -6 1 -7 9 -4 10 4 16 1 16 -10 0 -10 -6 -13 -17 -9
-14 5 -15 3 -6 -7 14 -16 33 -5 33 21 0 20 -24 26 -35 9z"/>
<path d="M4372 5128 l2 -163 3 157 4 158 387 3 387 2 -392 3 -393 2 2 -162z"/>
<path d="M4296 5231 c-1 -3 1 -19 5 -36 3 -16 7 -24 8 -17 0 6 8 12 16 12 13
0 19 18 13 37 -4 9 -38 12 -42 4z m34 -21 c0 -5 -4 -10 -10 -10 -5 0 -10 5
-10 10 0 6 5 10 10 10 6 0 10 -4 10 -10z"/>
<path d="M4292 5148 c-20 -20 -14 -28 24 -28 28 0 35 3 32 18 -4 21 -39 27
-56 10z m43 -8 c4 -6 -5 -10 -20 -10 -15 0 -24 4 -20 10 3 6 12 10 20 10 8 0
17 -4 20 -10z"/>
<path d="M4280 5096 c0 -9 50 -12 62 -5 8 6 -1 9 -24 9 -21 0 -38 -2 -38 -4z"/>
<path d="M4288 5069 c-8 -6 1 -9 25 -9 20 0 37 2 37 4 0 9 -50 12 -62 5z"/>
<path d="M4280 5033 c1 -20 20 -34 41 -31 27 3 40 38 15 38 -9 0 -16 -5 -16
-11 0 -5 5 -7 10 -4 6 3 10 1 10 -5 0 -6 -10 -10 -22 -8 -13 2 -22 9 -20 16 1
6 -2 12 -8 12 -5 0 -10 -3 -10 -7z"/>
<path d="M3335 5750 c-3 -5 -1 -10 4 -10 15 0 14 -27 -1 -33 -7 -3 1 -5 17 -5
17 0 24 2 18 5 -7 2 -13 16 -13 29 0 24 -14 32 -25 14z"/>
<path d="M3397 5753 c-4 -3 -7 -17 -7 -30 0 -16 6 -23 20 -23 13 0 20 7 20 20
0 12 -7 20 -17 20 -15 0 -16 2 -3 10 8 5 10 10 4 10 -6 0 -14 -3 -17 -7z m23
-33 c0 -5 -4 -10 -10 -10 -5 0 -10 5 -10 10 0 6 5 10 10 10 6 0 10 -4 10 -10z"/>
<path d="M3397 5643 c19 -4 21 -7 12 -31 -6 -16 -6 -23 -1 -17 5 6 13 20 17
33 6 19 3 22 -22 21 -23 -1 -24 -3 -6 -6z"/>
<path d="M3340 5525 c-8 -9 -8 -15 -2 -15 6 0 13 -8 15 -17 3 -10 5 -3 6 15 1
36 -1 38 -19 17z"/>
<path d="M3397 5534 c-14 -14 -7 -44 11 -45 15 0 14 -2 -3 -10 l-20 -9 20 3
c15 2 20 10 20 31 0 29 -14 43 -28 30z m23 -25 c0 -5 -4 -9 -10 -9 -5 0 -10 7
-10 16 0 8 5 12 10 9 6 -3 10 -10 10 -16z"/>
<path d="M3348 5413 l24 -5 -23 -24 -22 -24 29 1 c23 0 25 2 11 8 -17 6 -17 8
-3 20 20 17 11 31 -17 30 -21 -2 -21 -2 1 -6z"/>
<path d="M3390 5390 c0 -25 4 -31 18 -28 11 2 17 12 17 28 0 16 -6 26 -17 28
-14 3 -18 -3 -18 -28z m30 0 c0 -11 -4 -20 -10 -20 -5 0 -10 9 -10 20 0 11 5
20 10 20 6 0 10 -9 10 -20z"/>
<path d="M2741 2393 c1 -21 3 -30 6 -20 4 17 6 17 17 2 10 -14 12 -11 11 17 0
23 -5 34 -17 36 -15 3 -18 -3 -17 -35z m24 17 c3 -5 1 -10 -4 -10 -6 0 -11 5
-11 10 0 6 2 10 4 10 3 0 8 -4 11 -10z"/>
<path d="M2795 2420 c-3 -6 1 -7 9 -4 21 8 20 -14 -1 -38 -15 -17 -15 -18 8
-17 13 0 18 3 11 6 -10 4 -10 8 -1 19 12 15 6 44 -10 44 -5 0 -13 -4 -16 -10z"/>
<path d="M2761 2273 c1 -21 3 -30 6 -20 6 21 12 22 27 2 9 -12 11 -9 11 17 0
27 -4 34 -22 36 -21 3 -23 -1 -22 -35z m34 17 c-3 -5 -10 -10 -16 -10 -5 0 -9
5 -9 10 0 6 7 10 16 10 8 0 12 -4 9 -10z"/>
<path d="M4020 8030 c-13 -8 -13 -12 3 -27 18 -17 19 -17 32 0 10 14 14 15 18
5 4 -9 6 -8 6 3 1 25 -32 36 -59 19z m24 -21 c-3 -5 -10 -7 -15 -3 -5 3 -7 10
-3 15 3 5 10 7 15 3 5 -3 7 -10 3 -15z"/>
<path d="M4010 7955 c0 -15 2 -17 9 -6 5 7 14 10 20 7 6 -4 11 -2 11 3 0 18
18 12 23 -6 4 -14 5 -12 6 4 1 20 -3 23 -34 20 -28 -1 -35 -6 -35 -22z"/>
<path d="M3343 7353 c11 -3 16 -11 13 -19 -3 -8 -1 -14 4 -14 18 0 10 -19 -10
-23 -17 -4 -16 -4 2 -3 19 1 22 6 20 29 -2 23 1 27 22 27 23 0 25 -2 16 -26
-6 -14 -10 -28 -10 -32 1 -10 17 20 24 46 7 21 5 22 -46 21 -29 -1 -45 -3 -35
-6z"/>
<path d="M6430 7108 c0 -24 3 -29 9 -19 8 13 12 13 28 0 16 -13 17 -12 5 3
-10 12 -10 17 -1 20 18 6 1 28 -22 28 -15 0 -19 -7 -19 -32z m35 12 c-3 -5
-10 -10 -16 -10 -5 0 -9 5 -9 10 0 6 7 10 16 10 8 0 12 -4 9 -10z"/>
<path d="M6501 7140 c-2 -3 -4 -17 -5 -32 -1 -22 3 -28 19 -28 12 0 16 3 9 8
-7 4 -14 18 -17 32 -2 14 -5 23 -6 20z"/>
<path d="M6461 6993 c1 -21 3 -30 6 -20 4 17 6 17 16 3 10 -14 12 -10 14 19 3
29 0 35 -17 35 -17 0 -20 -6 -19 -37z m29 17 c0 -5 -4 -10 -10 -10 -5 0 -10 5
-10 10 0 6 5 10 10 10 6 0 10 -4 10 -10z"/>
<path d="M3373 7003 c19 -5 22 -18 7 -28 -16 -10 -12 -25 8 -25 13 0 14 2 3 9
-9 6 -10 11 -2 15 20 13 12 36 -11 35 -17 -1 -19 -2 -5 -6z"/>
<path d="M5223 7003 c21 -6 21 -12 0 -35 -15 -17 -15 -18 8 -18 17 0 20 3 10
9 -9 6 -10 11 -2 15 20 13 12 36 -11 35 -17 -1 -19 -2 -5 -6z"/>
<path d="M5265 7000 c-3 -5 -1 -10 4 -10 15 0 14 -27 -1 -33 -7 -3 1 -5 17 -5
17 0 24 2 18 5 -7 2 -13 16 -13 29 0 24 -14 32 -25 14z"/>
<path d="M2693 6943 l-593 -3 0 -1080 0 -1080 -387 -3 -388 -2 388 -3 387 -2
0 -80 0 -80 -387 -3 -388 -2 388 -3 387 -2 0 -50 0 -50 -387 -3 -388 -2 388
-3 387 -2 0 -55 0 -55 -387 -3 -388 -2 388 -3 387 -2 0 -50 0 -50 -387 -3
-388 -2 388 -3 387 -2 0 -50 0 -50 -387 -3 -388 -2 393 -3 392 -2 0 55 c0 52
1 55 25 55 24 0 25 3 25 55 0 54 0 55 30 55 l30 0 0 60 0 60 30 0 c30 0 30 1
30 55 0 52 1 55 25 55 25 0 25 1 25 85 l0 85 115 0 115 0 0 795 0 796 373 -1
c204 -1 392 0 417 1 l45 2 -45 6 c-25 3 -215 5 -422 3 l-378 -3 0 -794 0 -795
-110 0 -110 0 0 850 0 851 488 -1 c606 -1 577 -1 569 6 -7 7 27 7 -584 5
l-483 -1 0 -855 c0 -848 0 -855 -20 -855 -20 0 -20 7 -20 905 l0 906 513 -1
c597 -1 546 -2 527 8 -8 4 -248 6 -532 4 l-518 -3 0 -909 0 -910 -25 0 -25 0
0 960 0 961 543 -1 c631 -1 576 -2 557 8 -8 4 -261 6 -562 4 l-548 -2 0 -965
0 -965 -25 0 -25 0 0 1020 0 1021 573 -1 c666 -1 606 -2 587 8 -8 4 -275 6
-592 4 l-578 -2 0 -1025 c0 -1018 0 -1025 -20 -1025 -20 0 -20 7 -20 1075 l0
1076 598 -1 c711 -1 631 -2 612 10 -8 5 -19 9 -25 7 -5 -1 -277 -3 -602 -4z
m-543 -2253 c0 -73 -2 -80 -20 -80 -18 0 -20 7 -20 80 0 73 2 80 20 80 18 0
20 -7 20 -80z m60 0 c0 -79 0 -80 -25 -80 -25 0 -25 1 -25 80 0 79 0 80 25 80
25 0 25 -1 25 -80z m60 0 c0 -79 0 -80 -25 -80 -25 0 -25 1 -25 80 0 79 0 80
25 80 25 0 25 -1 25 -80z m50 0 c0 -73 -2 -80 -20 -80 -18 0 -20 7 -20 80 0
73 2 80 20 80 18 0 20 -7 20 -80z m-170 -140 c0 -43 -3 -50 -20 -50 -17 0 -20
7 -20 50 0 43 3 50 20 50 17 0 20 -7 20 -50z m60 0 c0 -47 -2 -50 -25 -50 -23
0 -25 3 -25 50 0 47 2 50 25 50 23 0 25 -3 25 -50z m60 0 c0 -47 -2 -50 -25
-50 -23 0 -25 3 -25 50 0 47 2 50 25 50 23 0 25 -3 25 -50z m-120 -115 c0 -48
-2 -55 -20 -55 -18 0 -20 7 -20 55 0 48 2 55 20 55 18 0 20 -7 20 -55z m60 0
c0 -52 -1 -55 -25 -55 -24 0 -25 3 -25 55 0 52 1 55 25 55 24 0 25 -3 25 -55z
m-60 -115 c0 -43 -3 -50 -20 -50 -17 0 -20 7 -20 50 0 43 3 50 20 50 17 0 20
-7 20 -50z"/>
<path d="M6625 6890 l-20 -9 20 -1 c11 -1 84 -1 163 0 l142 2 0 -996 0 -996
338 -1 c185 -1 372 -1 416 1 57 2 81 -1 87 -11 6 -10 9 -11 9 -1 0 6 12 13 28
13 27 2 27 2 2 6 -14 3 -28 10 -32 17 -6 8 -8 8 -8 -1 0 -8 -15 -13 -41 -13
-22 0 -38 4 -35 9 10 15 -12 61 -29 61 -10 0 -15 -10 -15 -34 l0 -34 -355 -1
-355 -2 0 996 0 995 -127 0 c-71 0 -137 2 -148 5 -11 2 -29 0 -40 -5z m1055
-1940 c0 -5 -4 -10 -10 -10 -5 0 -10 5 -10 10 0 6 5 10 10 10 6 0 10 -4 10
-10z m5 -30 c-3 -5 -10 -10 -16 -10 -5 0 -9 5 -9 10 0 6 7 10 16 10 8 0 12 -4
9 -10z"/>
<path d="M7934 6785 c-10 -24 4 -45 28 -44 l23 2 -22 4 c-13 2 -23 11 -23 19
0 8 10 19 23 24 l22 9 -23 0 c-12 1 -25 -6 -28 -14z"/>
<path d="M7997 6793 c-4 -3 -7 -17 -7 -30 0 -18 5 -23 23 -22 16 1 18 2 5 6
-10 2 -18 13 -18 23 0 10 8 21 18 23 14 4 14 5 1 6 -9 0 -19 -2 -22 -6z"/>
<path d="M3360 6770 c0 -13 5 -18 15 -14 10 4 15 0 15 -11 0 -11 -5 -15 -16
-11 -8 3 -12 2 -9 -4 3 -6 13 -10 21 -10 20 0 18 39 -3 47 -15 6 -15 7 3 14
17 7 17 8 -3 8 -16 1 -23 -5 -23 -19z"/>
<path d="M5215 6780 c-3 -6 1 -7 9 -4 21 8 20 -14 -1 -38 -15 -17 -15 -18 8
-17 13 0 18 3 11 6 -10 4 -10 8 -1 19 12 15 6 44 -10 44 -5 0 -13 -4 -16 -10z"/>
<path d="M7890 6773 c0 -4 5 -15 10 -23 8 -13 10 -13 10 2 0 9 -4 20 -10 23
-5 3 -10 3 -10 -2z"/>
<path d="M5290 6763 c0 -7 -8 -13 -17 -14 -14 0 -15 -2 -3 -6 8 -3 18 -10 21
-15 3 -5 9 -3 12 5 3 7 1 20 -4 28 -6 10 -9 10 -9 2z"/>
<path d="M5930 6735 c-6 -8 -10 -22 -8 -32 4 -23 48 -31 48 -9 0 9 -5 16 -11
16 -5 0 -7 -5 -3 -11 4 -7 1 -10 -7 -7 -17 6 -19 44 -1 41 6 -2 12 2 12 7 0
15 -16 12 -30 -5z"/>
<path d="M5980 6718 c0 -21 2 -38 4 -38 9 0 12 50 5 62 -6 8 -9 -1 -9 -24z"/>
<path d="M6008 6726 c-3 -14 -1 -31 3 -38 6 -8 9 1 9 25 0 42 -6 48 -12 13z"/>
<path d="M6040 6714 c0 -28 3 -35 18 -32 21 4 29 47 10 59 -23 15 -28 10 -28
-27z m30 -5 c0 -10 -4 -19 -10 -19 -5 0 -10 12 -10 26 0 14 4 23 10 19 6 -3
10 -15 10 -26z"/>
<path d="M3367 6663 c-4 -3 -7 -17 -7 -30 0 -16 6 -23 20 -23 26 0 28 40 3 41
-15 0 -15 2 2 9 15 6 16 9 4 9 -9 1 -19 -2 -22 -6z m23 -33 c0 -5 -4 -10 -10
-10 -5 0 -10 5 -10 10 0 6 5 10 10 10 6 0 10 -4 10 -10z"/>
<path d="M5223 6663 c21 -6 21 -12 0 -35 -15 -17 -15 -18 8 -18 17 0 20 3 10
9 -9 6 -10 11 -2 15 20 13 12 36 -11 35 -17 -1 -19 -2 -5 -6z"/>
<path d="M5278 6663 c7 -3 16 -2 19 1 4 3 -2 6 -13 5 -11 0 -14 -3 -6 -6z"/>
<path d="M7950 6655 c-6 -72 -3 -132 6 -132 6 0 9 21 7 56 l-4 56 21 -25 c15
-18 19 -19 11 -5 -15 31 -40 61 -41 50z"/>
<path d="M5278 6643 c27 -6 29 -20 2 -27 -17 -5 -17 -6 3 -3 31 3 28 32 -3 34
-22 1 -22 1 -2 -4z"/>
<path d="M3373 6553 c9 -2 23 -2 30 0 6 3 -1 5 -18 5 -16 0 -22 -2 -12 -5z"/>
<path d="M5926 6500 c3 -14 10 -32 15 -40 7 -13 8 -13 8 0 0 8 -6 26 -15 40
l-15 25 7 -25z"/>
<path d="M5974 6496 c-3 -14 -3 -30 1 -35 8 -13 32 -14 39 -2 3 5 -2 8 -12 7
-11 -1 -17 6 -17 19 0 13 6 20 17 19 10 -1 15 2 12 7 -10 18 -34 9 -40 -15z"/>
<path d="M6034 6506 c-9 -24 0 -51 19 -54 9 -2 17 1 17 7 0 6 -7 8 -15 5 -11
-5 -15 1 -15 21 0 20 4 26 15 21 8 -3 15 -1 15 4 0 16 -30 12 -36 -4z"/>
<path d="M7947 6463 c3 -20 0 -33 -6 -33 -6 0 -11 6 -11 13 0 8 -3 9 -8 1 -4
-6 -14 -14 -22 -17 -12 -4 -12 -6 2 -6 9 -1 19 -7 21 -13 4 -10 6 -10 6 0 1 6
6 12 11 12 6 0 10 -18 10 -39 0 -29 -5 -41 -17 -44 -10 -3 0 -5 22 -5 22 0 32
2 23 5 -13 3 -18 15 -18 44 0 38 13 52 23 27 4 -10 6 -10 6 0 1 6 7 12 15 12
8 0 17 -6 19 -12 3 -7 5 1 5 17 0 17 -2 24 -5 18 -2 -7 -18 -13 -35 -13 -28 0
-29 2 -25 33 3 23 0 34 -8 34 -8 0 -11 -11 -8 -34z"/>
<path d="M3363 6434 c-4 -10 0 -22 11 -29 11 -8 13 -15 6 -18 -6 -3 -5 -4 2
-3 17 3 17 58 1 63 -7 3 -16 -3 -20 -13z m23 -21 c-10 -10 -19 5 -10 18 6 11
8 11 12 0 2 -7 1 -15 -2 -18z"/>
<path d="M5215 6440 c-3 -6 1 -7 9 -4 21 8 20 -14 -1 -38 -15 -17 -15 -18 8
-17 13 0 18 3 11 6 -10 4 -10 8 -1 19 12 15 6 44 -10 44 -5 0 -13 -4 -16 -10z"/>
<path d="M5273 6443 c9 -2 23 -2 30 0 6 3 -1 5 -18 5 -16 0 -22 -2 -12 -5z"/>
<path d="M3340 6320 c-10 -6 -11 -10 -2 -10 6 0 12 -6 12 -14 0 -8 -6 -17 -12
-19 -7 -3 1 -6 17 -6 17 0 25 3 19 7 -7 4 -14 17 -15 29 -3 17 -7 20 -19 13z"/>
<path d="M3390 6300 c0 -25 4 -31 18 -28 11 2 17 12 17 28 0 16 -6 26 -17 28
-14 3 -18 -3 -18 -28z m30 0 c0 -11 -4 -20 -10 -20 -5 0 -10 9 -10 20 0 11 5
20 10 20 6 0 10 -9 10 -20z"/>
<path d="M5223 6323 c21 -6 21 -12 0 -35 -15 -17 -15 -18 8 -18 17 0 20 3 10
9 -9 6 -10 11 -2 15 20 13 12 36 -11 35 -17 -1 -19 -2 -5 -6z"/>
<path d="M5264 6318 c-4 -6 1 -17 10 -24 13 -9 14 -13 4 -17 -9 -4 -7 -6 4 -6
18 -1 33 32 23 49 -8 14 -32 13 -41 -2z m36 -8 c0 -5 -7 -10 -15 -10 -8 0 -15
5 -15 10 0 6 7 10 15 10 8 0 15 -4 15 -10z"/>
<path d="M7849 6291 c-22 -21 -39 -45 -39 -52 0 -8 9 1 20 19 11 18 34 41 52
52 18 11 27 20 19 20 -7 0 -31 -17 -52 -39z"/>
<path d="M8028 6310 c18 -11 41 -34 52 -52 11 -18 20 -27 20 -19 0 7 -17 31
-39 52 -21 22 -45 39 -52 39 -8 0 1 -9 19 -20z"/>
<path d="M7945 6288 c-4 -20 -5 -46 -2 -59 2 -14 5 -6 6 19 1 50 21 49 21 -2
0 -36 -15 -56 -43 -56 -23 0 -97 -71 -80 -77 7 -3 20 1 30 7 17 11 17 11 1 6
-26 -8 -22 10 8 33 34 26 59 27 81 1 10 -11 21 -20 26 -20 5 0 1 8 -9 18 -16
16 -16 17 -1 20 18 4 77 -34 77 -48 0 -6 -11 -5 -26 0 -14 6 -23 6 -19 1 3 -5
19 -12 36 -16 26 -6 28 -9 17 -23 -7 -8 -26 -23 -43 -34 -16 -10 -24 -18 -16
-18 18 0 91 74 91 91 0 11 -2 11 -8 1 -6 -9 -18 -3 -46 23 -21 19 -45 35 -54
35 -14 0 -17 10 -17 55 0 66 -20 95 -30 43z"/>
<path d="M8201 6200 c1 -19 3 -27 6 -16 4 15 7 16 14 5 7 -12 9 -12 10 1 0 10
3 8 9 -5 7 -16 9 -14 9 14 1 32 0 33 -13 16 -13 -18 -13 -18 -24 1 -10 16 -11
14 -11 -16z"/>
<path d="M8273 6223 c21 -6 21 -12 0 -35 -15 -17 -15 -18 8 -18 17 0 20 3 10
9 -9 6 -10 11 -2 15 20 13 12 36 -11 35 -17 -1 -19 -2 -5 -6z"/>
<path d="M7803 6185 c0 -22 2 -30 4 -17 2 12 2 30 0 40 -3 9 -5 -1 -4 -23z"/>
<path d="M8103 6185 c0 -22 2 -30 4 -17 2 12 2 30 0 40 -3 9 -5 -1 -4 -23z"/>
<path d="M7921 6149 c-13 -10 -19 -19 -15 -19 13 1 48 29 43 34 -2 2 -15 -4
-28 -15z"/>
<path d="M7810 6131 c0 -7 17 -31 39 -52 21 -22 45 -39 52 -39 8 0 -1 9 -19
20 -18 11 -41 34 -52 52 -11 18 -20 27 -20 19z"/>
<path d="M8201 6083 c0 -21 3 -31 6 -23 3 8 11 18 17 22 8 5 7 8 -1 8 -19 0
-16 18 5 23 13 4 11 5 -5 6 -20 1 -23 -4 -22 -36z"/>
<path d="M3335 6090 c-3 -5 -1 -10 4 -10 15 0 14 -27 -1 -33 -7 -3 12 -6 42
-6 34 0 50 3 41 8 -9 6 -10 11 -2 15 20 13 12 36 -11 35 -17 -1 -19 -2 -5 -6
9 -2 17 -7 17 -10 0 -9 -34 -32 -47 -33 -7 0 -13 11 -13 25 0 25 -14 33 -25
15z"/>
<path d="M5218 6093 c6 -2 10 -9 6 -14 -3 -5 0 -9 5 -9 18 0 12 -18 -6 -23
-14 -4 -12 -5 5 -6 19 -1 22 4 20 29 -2 23 -7 30 -23 29 -11 0 -14 -3 -7 -6z"/>
<path d="M5278 6093 c7 -3 16 -2 19 1 4 3 -2 6 -13 5 -11 0 -14 -3 -6 -6z"/>
<path d="M8246 6084 c-8 -20 1 -34 20 -34 8 0 14 10 14 25 0 28 -24 34 -34 9z"/>
<path d="M8301 6073 l1 -28 7 25 8 25 5 -25 c5 -25 5 -25 7 3 1 18 -4 27 -14
27 -10 0 -15 -9 -14 -27z"/>
<path d="M5278 6073 c27 -6 29 -20 2 -27 -17 -5 -17 -6 3 -3 31 3 28 32 -3 34
-22 1 -22 1 -2 -4z"/>
<path d="M7935 6039 c-17 -6 -17 -8 -2 -8 16 -1 17 -31 17 -482 0 -381 -3
-479 -12 -473 -10 6 -10 4 0 -7 20 -22 13 -62 -18 -96 -35 -39 -40 -40 -42
-10 0 12 -4 2 -7 -23 -6 -47 0 -162 7 -122 4 23 22 31 22 9 0 -7 12 -24 26
-36 20 -18 24 -28 19 -49 -9 -35 -14 -40 -25 -22 -7 10 -10 11 -10 3 0 -19
-18 -16 -23 5 -4 13 -5 11 -6 -5 -1 -20 4 -23 34 -23 35 0 35 0 35 -44 0 -40
-2 -45 -25 -48 l-26 -3 28 -33 28 -33 34 35 35 36 -32 0 -32 0 0 83 c-1 61 -6
91 -20 117 -11 19 -19 31 -20 26 0 -5 -9 -1 -20 9 -30 27 -24 61 20 114 l40
47 0 478 c0 312 3 475 10 471 6 -3 7 1 4 9 -8 21 14 20 38 -1 17 -15 18 -15
17 8 0 13 -3 18 -6 11 -4 -10 -8 -10 -19 -1 -7 6 -21 9 -29 5 -11 -4 -15 1
-15 19 0 14 7 25 18 27 15 3 14 5 -3 9 -11 3 -29 2 -40 -2z m65 -1442 c0 -2
-11 -13 -24 -26 l-23 -22 -17 26 -16 25 40 0 c22 0 40 -1 40 -3z"/>
<path d="M7922 5970 c0 -19 2 -27 5 -17 2 9 2 25 0 35 -3 9 -5 1 -5 -18z"/>
<path d="M5218 5753 c6 -2 10 -9 6 -14 -3 -5 0 -9 5 -9 18 0 12 -18 -6 -23
-14 -4 -12 -5 5 -6 19 -1 22 4 20 29 -2 23 -7 30 -23 29 -11 0 -14 -3 -7 -6z"/>
<path d="M5278 5753 l24 -5 -23 -24 -22 -24 29 1 c23 0 25 2 11 8 -17 6 -17 8
-3 20 20 17 11 31 -17 30 -21 -2 -21 -2 1 -6z"/>
<path d="M5218 5413 c6 -2 10 -9 6 -14 -3 -5 0 -9 5 -9 18 0 12 -18 -6 -23
-14 -4 -12 -5 5 -6 19 -1 22 4 20 29 -2 23 -7 30 -23 29 -11 0 -14 -3 -7 -6z"/>
<path d="M5273 5413 c9 -2 15 -9 12 -14 -4 -5 -1 -9 4 -9 20 0 11 -19 -11 -23
-20 -5 -20 -5 2 -4 20 2 25 7 25 30 1 23 -3 27 -25 26 -17 -1 -19 -3 -7 -6z"/>
<path d="M7882 5063 c3 -19 58 -32 58 -15 0 5 -12 7 -27 4 -21 -4 -25 -2 -20
12 4 9 2 16 -4 16 -6 0 -9 -8 -7 -17z"/>
<path d="M7893 5023 c9 -2 23 -2 30 0 6 3 -1 5 -18 5 -16 0 -22 -2 -12 -5z"/>
<path d="M7822 5003 c-7 -2 -17 -14 -23 -26 -11 -21 -10 -20 15 2 14 14 26 26
26 28 0 3 0 3 -18 -4z"/>
<path d="M7989 4986 c29 -31 35 -33 22 -7 -6 10 -18 22 -28 25 -13 5 -11 1 6
-18z"/>
<path d="M8103 4973 c9 -2 17 -13 17 -24 0 -23 -4 -24 -24 -3 -9 8 -16 12 -16
7 0 -14 14 -29 33 -36 14 -5 17 -1 17 28 0 30 -3 35 -22 34 -17 -1 -19 -2 -5
-6z"/>
<path d="M8145 4970 c-3 -5 -1 -10 4 -10 15 0 14 -27 -1 -33 -7 -3 -4 -6 8 -6
17 -1 20 4 16 29 -4 30 -16 39 -27 20z"/>
<path d="M8032 4895 c0 -16 2 -22 5 -12 2 9 2 23 0 30 -3 6 -5 -1 -5 -18z"/>
<path d="M280 4440 l0 -460 515 0 515 0 -1 23 c-1 16 -2 18 -6 5 -7 -28 -31
-21 -35 9 -2 17 -10 29 -20 31 -14 3 -18 -3 -18 -27 0 -17 -4 -31 -10 -31 -5
0 -10 14 -10 32 0 37 -9 33 -12 -5 -1 -15 -6 -27 -11 -27 -5 0 -7 9 -4 19 2
10 1 25 -4 32 -6 10 -9 3 -10 -21 -1 -19 -3 -27 -6 -17 -2 9 -9 17 -14 17 -6
0 -8 -4 -4 -9 3 -5 1 -12 -5 -16 -20 -12 -24 27 -4 42 19 14 19 15 -1 11 -14
-3 -20 -11 -20 -31 l1 -27 -413 0 -413 0 0 450 0 450 504 0 505 0 4 -47 3 -48
2 53 2 52 -515 0 -515 0 0 -460z m980 -419 c0 -11 -4 -23 -10 -26 -6 -4 -10 5
-10 19 0 14 5 26 10 26 6 0 10 -9 10 -19z"/>
<path d="M4432 4841 c-7 -19 -10 -37 -7 -39 3 -3 5 0 5 6 0 7 7 12 15 12 8 0
15 -4 15 -10 0 -5 15 -10 33 -10 17 0 27 4 20 8 -6 4 -13 20 -15 36 -3 28 -4
28 -18 11 -9 -11 -10 -16 -2 -11 8 5 12 0 12 -13 0 -32 -18 -25 -33 11 l-13
33 -12 -34z"/>
<path d="M8090 4838 c0 -21 2 -38 4 -38 9 0 12 50 5 62 -6 8 -9 -1 -9 -24z"/>
<path d="M8118 4846 c-3 -14 -1 -31 3 -38 6 -8 9 1 9 25 0 42 -6 48 -12 13z"/>
<path d="M8141 4833 c1 -21 3 -31 6 -22 2 10 13 19 25 22 25 7 19 31 -10 35
-19 3 -22 -1 -21 -35z m29 17 c0 -5 -4 -10 -10 -10 -5 0 -10 5 -10 10 0 6 5
10 10 10 6 0 10 -4 10 -10z"/>
<path d="M8200 4838 c0 -21 2 -38 4 -38 9 0 12 50 5 62 -6 8 -9 -1 -9 -24z"/>
<path d="M8228 4846 c-3 -14 -1 -31 3 -38 6 -8 9 1 9 25 0 42 -6 48 -12 13z"/>
<path d="M7796 4815 c4 -9 16 -21 28 -27 19 -10 19 -9 -3 16 -28 30 -33 32
-25 11z"/>
<path d="M7989 4804 c-22 -25 -22 -26 -3 -16 12 6 24 18 28 27 8 21 3 19 -25
-11z"/>
<path d="M1177 4803 c-4 -3 -7 -17 -7 -30 0 -18 5 -23 23 -22 16 1 18 2 5 6
-10 2 -18 13 -18 23 0 10 8 21 18 23 14 4 14 5 1 6 -9 0 -19 -2 -22 -6z"/>
<path d="M1226 4795 c-9 -24 4 -45 28 -44 21 0 21 0 -1 9 -13 5 -23 14 -23 20
0 6 10 15 23 20 22 9 22 9 1 9 -12 1 -24 -6 -28 -14z"/>
<path d="M1120 4785 c0 -5 4 -16 9 -23 6 -11 10 -10 15 4 3 9 4 19 1 22 -3 3
-5 -1 -5 -9 0 -11 -2 -11 -10 1 -5 8 -10 11 -10 5z"/>
<path d="M1300 4780 c0 -5 5 -10 11 -10 5 0 7 5 4 10 -3 6 -8 10 -11 10 -2 0
-4 -4 -4 -10z"/>
<path d="M7893 4763 c9 -2 23 -2 30 0 6 3 -1 5 -18 5 -16 0 -22 -2 -12 -5z"/>
<path d="M1303 4690 c0 -41 2 -58 4 -37 2 20 2 54 0 75 -2 20 -4 3 -4 -38z"/>
<path d="M4431 4723 c1 -21 3 -30 6 -20 4 17 6 17 17 2 10 -14 12 -11 11 17 0
23 -5 34 -17 36 -15 3 -18 -3 -17 -35z m29 17 c0 -5 -4 -10 -10 -10 -5 0 -10
5 -10 10 0 6 5 10 10 10 6 0 10 -4 10 -10z"/>
<path d="M4630 4725 c0 -28 4 -35 20 -35 12 0 20 7 20 18 0 10 -9 25 -20 35
-19 16 -20 16 -20 -18z m30 -10 c0 -8 -4 -15 -10 -15 -5 0 -10 7 -10 15 0 8 5
15 10 15 6 0 10 -7 10 -15z"/>
<path d="M4851 4723 c1 -21 3 -30 6 -20 2 9 11 17 19 17 21 0 13 34 -9 38 -14
3 -17 -4 -16 -35z m29 17 c0 -5 -4 -10 -10 -10 -5 0 -10 5 -10 10 0 6 5 10 10
10 6 0 10 -4 10 -10z"/>
<path d="M4909 4756 c-4 -4 -3 -21 0 -39 6 -26 12 -32 34 -33 24 -1 25 -1 3 3
-20 3 -25 11 -28 40 -2 19 -6 32 -9 29z"/>
<path d="M4981 4723 c1 -21 3 -30 6 -20 2 9 11 17 19 17 21 0 13 34 -9 38 -14
3 -17 -4 -16 -35z m24 17 c3 -5 1 -10 -4 -10 -6 0 -11 5 -11 10 0 6 2 10 4 10
3 0 8 -4 11 -10z"/>
<path d="M5030 4726 c0 -20 2 -36 4 -36 8 0 12 61 4 66 -4 3 -8 -11 -8 -30z"/>
<path d="M4487 4721 c-6 -22 0 -31 20 -31 9 0 13 8 11 22 -4 28 -24 34 -31 9z"/>
<path d="M4535 4730 c-3 -5 2 -13 11 -17 16 -6 16 -7 -2 -14 -17 -7 -17 -8 4
-8 18 -1 23 4 20 21 -3 24 -23 35 -33 18z"/>
<path d="M4581 4703 c0 -21 3 -32 6 -25 2 6 11 12 20 12 21 0 13 44 -9 48 -15
3 -18 -4 -17 -35z m29 6 c0 -5 -4 -9 -10 -9 -5 0 -10 7 -10 16 0 8 5 12 10 9
6 -3 10 -10 10 -16z"/>
<path d="M4684 4726 c-8 -20 3 -36 24 -35 14 0 13 2 -3 9 -18 8 -18 9 -2 9 10
1 17 6 15 13 -7 19 -27 21 -34 4z"/>
<path d="M4731 4711 c0 -16 3 -20 6 -11 3 8 10 20 14 26 5 7 3 11 -6 11 -10 0
-15 -10 -14 -26z"/>
<path d="M4771 4713 c0 -27 0 -28 10 -5 5 13 13 20 19 17 5 -3 10 -1 10 4 0 6
-9 11 -20 11 -15 0 -20 -6 -19 -27z"/>
<path d="M5067 4733 c-14 -14 -7 -43 11 -42 10 0 12 3 5 6 -7 2 -13 11 -13 19
0 9 5 12 10 9 6 -3 10 -1 10 4 0 12 -13 14 -23 4z"/>
<path d="M5116 4733 c-3 -4 -6 -15 -6 -25 0 -24 33 -21 38 3 3 17 -21 33 -32
22z m24 -24 c0 -5 -4 -9 -10 -9 -5 0 -10 7 -10 16 0 8 5 12 10 9 6 -3 10 -10
10 -16z"/>
<path d="M5217 4734 c-4 -4 -7 -17 -7 -28 0 -17 2 -18 10 -6 9 13 10 13 10 0
0 -13 1 -13 10 0 5 8 10 22 10 30 0 12 -2 13 -9 1 -6 -9 -10 -10 -12 -2 -3 7
-8 9 -12 5z"/>
<path d="M4813 4703 c-3 -10 -8 -21 -10 -25 -2 -5 0 -8 5 -8 5 0 12 11 14 25
6 29 0 33 -9 8z"/>
<path d="M5163 4683 c9 -2 23 -2 30 0 6 3 -1 5 -18 5 -16 0 -22 -2 -12 -5z"/>
<path d="M1174 4666 c-9 -23 0 -51 16 -52 10 -1 11 1 2 3 -17 6 -11 49 6 45 8
-1 11 2 7 8 -9 14 -25 12 -31 -4z"/>
<path d="M1224 4669 c-4 -7 3 -20 17 -29 22 -17 22 -18 3 -23 -18 -4 -18 -4 0
-3 27 1 31 23 6 31 -11 3 -18 11 -14 16 3 6 13 8 21 5 8 -3 11 -1 8 4 -8 13
-32 13 -41 -1z"/>
<path d="M6637 4633 c-4 -3 -7 -17 -7 -30 0 -16 6 -23 20 -23 11 0 20 7 20 15
0 8 -5 15 -11 15 -5 0 -7 -4 -4 -10 3 -5 1 -10 -4 -10 -18 0 -12 38 7 43 14 4
14 5 1 6 -9 0 -19 -2 -22 -6z"/>
<path d="M6691 4610 c0 -33 1 -34 10 -11 6 16 6 28 -1 35 -7 7 -10 -1 -9 -24z"/>
<path d="M6716 4618 c-3 -13 -1 -27 4 -32 7 -7 10 1 10 22 0 37 -5 41 -14 10z"/>
<path d="M6750 4610 c0 -25 4 -31 18 -28 11 2 17 12 17 28 0 16 -6 26 -17 28
-14 3 -18 -3 -18 -28z m30 -6 c0 -8 -4 -14 -10 -14 -5 0 -10 9 -10 21 0 11 5
17 10 14 6 -3 10 -13 10 -21z"/>
<path d="M1303 4550 c0 -25 2 -35 4 -22 2 12 2 32 0 45 -2 12 -4 2 -4 -23z"/>
<path d="M1117 4533 c-4 -3 -7 -16 -7 -29 0 -23 25 -40 35 -23 4 5 1 8 -7 7
-7 -2 -14 8 -16 21 -3 18 0 22 12 18 9 -4 16 -2 16 3 0 11 -23 13 -33 3z"/>
<path d="M1171 4508 c-1 -30 3 -38 17 -38 11 0 13 3 5 8 -6 4 -13 21 -16 37
-4 27 -4 27 -6 -7z"/>
<path d="M1212 4505 c0 -22 3 -30 5 -17 l4 22 20 -22 20 -23 -11 23 c-9 18 -8
27 2 39 12 15 11 15 -9 5 -16 -9 -23 -9 -26 1 -3 6 -5 -6 -5 -28z"/>
<path d="M1300 4489 c0 -5 5 -7 10 -4 6 3 10 8 10 11 0 2 -4 4 -10 4 -5 0 -10
-5 -10 -11z"/>
<path d="M6676 4468 l-26 -33 25 -3 c22 -3 25 -8 25 -45 0 -51 -10 -69 -30
-57 -24 16 -40 11 -40 -10 0 -11 4 -20 10 -20 5 0 7 7 4 15 -8 19 1 19 31 -1
14 -9 25 -23 25 -30 0 -11 -32 -14 -170 -14 l-170 0 0 -116 0 -116 -58 4 c-38
2 -59 0 -59 -7 0 -7 21 -9 59 -7 l58 4 0 -50 c0 -40 -4 -52 -17 -55 -17 -4
-17 -5 0 -6 14 -1 17 -10 17 -50 0 -39 -4 -51 -17 -54 -17 -4 -17 -5 0 -6 15
-1 17 -14 17 -116 l0 -115 170 0 c129 0 170 -3 170 -12 0 -23 -15 -36 -44 -40
-28 -3 -28 -4 -11 -18 11 -9 16 -10 11 -2 -5 8 -1 12 13 12 25 0 33 -25 31
-93 -3 -81 -2 -85 16 -62 25 33 39 64 15 35 l-21 -25 0 103 0 102 170 0 170 0
0 171 0 171 63 -4 c44 -2 64 0 64 8 0 7 -11 10 -28 7 -26 -4 -27 -2 -25 32 3
32 1 35 -23 34 -23 0 -24 -1 -6 -9 11 -5 16 -9 11 -9 -5 -1 -3 -7 3 -15 14
-17 -2 -32 -21 -20 -7 4 -8 3 -4 -4 5 -8 0 -12 -13 -12 -20 0 -21 5 -21 170
l0 170 -170 0 -170 0 0 79 0 80 31 3 30 3 -34 33 -34 33 -27 -33z m54 -3 l23
-25 -41 0 -42 0 16 25 c9 14 17 25 18 25 2 0 13 -11 26 -25z m310 -540 l0
-335 -335 0 -335 0 0 335 0 335 335 0 335 0 0 -335z"/>
<path d="M6713 4217 c24 -20 21 -27 -9 -27 -20 0 -25 4 -20 16 3 8 2 12 -4 9
-24 -15 -9 -35 25 -35 41 0 48 23 13 40 -21 10 -21 10 -5 -3z"/>
<path d="M6689 4163 l25 -5 -25 -19 -24 -19 40 2 c27 0 32 2 16 5 l-25 5 25
19 24 19 -40 -2 c-27 0 -32 -2 -16 -5z"/>
<path d="M6670 4090 c0 -11 4 -20 9 -20 5 0 7 9 4 20 -3 11 -7 20 -9 20 -2 0
-4 -9 -4 -20z"/>
<path d="M6700 4100 c0 -5 7 -7 15 -4 21 8 19 -6 -2 -22 -16 -12 -16 -12 5 -7
28 7 30 43 2 43 -11 0 -20 -4 -20 -10z"/>
<path d="M6412 4040 c0 -19 2 -27 5 -17 2 9 2 25 0 35 -3 9 -5 1 -5 -18z"/>
<path d="M6441 4040 c0 -33 1 -34 10 -11 6 16 6 28 -1 35 -7 7 -10 -1 -9 -24z"/>
<path d="M6466 4048 c-3 -13 -1 -27 4 -32 7 -7 10 1 10 22 0 37 -5 41 -14 10z"/>
<path d="M6499 4038 c5 -30 6 -31 9 -8 2 14 9 28 16 32 7 5 3 8 -10 8 -18 0
-20 -5 -15 -32z"/>
<path d="M6410 3945 c0 -9 7 -18 15 -21 8 -4 12 -10 9 -15 -3 -5 -10 -7 -15
-4 -5 4 -9 1 -9 -4 0 -15 27 -14 36 1 4 6 0 16 -9 23 -22 16 -21 22 1 28 13 4
11 5 -5 6 -15 1 -23 -5 -23 -14z"/>
<path d="M6467 3953 c-23 -22 7 -69 33 -52 12 8 11 9 -5 7 -14 -2 -20 3 -20
17 0 13 6 20 17 19 10 -1 15 2 12 7 -6 11 -28 12 -37 2z"/>
<path d="M6522 3928 c-2 -34 1 -38 21 -37 15 1 17 3 5 6 -10 2 -18 17 -21 36
-4 31 -4 31 -5 -5z"/>
<path d="M6670 3930 c-7 -17 -10 -33 -6 -37 3 -3 6 -1 6 5 0 7 7 12 15 12 16
0 19 18 6 38 -6 10 -12 5 -21 -18z"/>
<path d="M6710 3941 c0 -11 -3 -26 -6 -35 -4 -11 0 -16 15 -16 23 0 44 31 35
54 -9 23 -44 20 -44 -3z m34 0 c8 -12 -3 -41 -15 -41 -5 0 -9 11 -9 25 0 25
14 34 24 16z"/>
<path d="M6771 3923 c0 -28 2 -33 8 -19 7 18 8 18 14 2 10 -25 110 -19 115 7
2 10 -3 17 -12 17 -22 0 -20 17 2 23 13 4 11 5 -5 6 -26 1 -32 -26 -8 -35 29
-12 14 -21 -35 -23 l-50 -1 6 30 c6 26 4 30 -15 30 -18 0 -21 -6 -20 -37z m29
17 c0 -5 -4 -10 -10 -10 -5 0 -10 5 -10 10 0 6 5 10 10 10 6 0 10 -4 10 -10z"/>
<path d="M6930 3925 c0 -27 4 -35 18 -35 10 0 13 3 6 8 -6 4 -11 16 -11 27 0
11 5 23 11 27 7 5 4 8 -6 8 -14 0 -18 -8 -18 -35z"/>
<path d="M6981 3928 c-1 -30 3 -38 17 -38 11 0 13 3 5 8 -6 4 -13 21 -16 37
-4 27 -4 27 -6 -7z"/>
<path d="M6413 3834 c-4 -10 1 -20 13 -27 17 -10 17 -11 -1 -18 -19 -7 -18 -8
3 -8 25 -1 31 26 7 35 -8 4 -15 11 -15 16 0 6 7 7 16 4 8 -3 12 -2 9 4 -9 15
-25 12 -32 -6z"/>
<path d="M6460 3815 c0 -35 20 -49 36 -24 4 8 9 7 15 -2 6 -10 9 -11 9 -1 0 6
7 12 15 12 8 0 15 -5 15 -12 0 -6 2 -9 5 -6 3 2 0 20 -7 39 l-12 34 -11 -28
-11 -28 -12 26 c-17 38 -42 32 -42 -10z m36 -14 c-13 -20 -26 -11 -26 16 0 25
1 26 16 11 9 -9 13 -21 10 -27z"/>
<path d="M6677 3764 c-18 -19 -5 -34 29 -34 28 0 35 3 32 18 -3 17 -48 29 -61
16z m53 -14 c0 -5 -11 -10 -25 -10 -14 0 -25 5 -25 10 0 6 11 10 25 10 14 0
25 -4 25 -10z"/>
<path d="M6713 3706 c24 -18 21 -26 -9 -26 -19 0 -25 4 -20 15 3 8 1 15 -4 15
-6 0 -10 -11 -10 -24 0 -17 7 -27 22 -32 l21 -6 -24 -14 c-30 -17 -22 -18 22
-2 l34 12 -30 12 -30 13 28 1 c34 0 38 35 5 43 -21 5 -21 5 -5 -7z"/>
<path d="M1303 4435 c0 -22 2 -30 4 -17 2 12 2 30 0 40 -3 9 -5 -1 -4 -23z"/>
<path d="M7887 4463 c-12 -12 -7 -51 7 -56 8 -3 17 -3 20 0 10 10 7 33 -4 33
-5 0 -6 -7 -3 -17 4 -11 3 -14 -5 -9 -18 11 -14 44 6 49 14 4 14 5 1 6 -9 0
-19 -2 -22 -6z"/>
<path d="M7940 4438 c0 -21 2 -38 4 -38 9 0 12 50 5 62 -6 8 -9 -1 -9 -24z"/>
<path d="M7968 4446 c-3 -14 -1 -31 3 -38 6 -8 9 1 9 25 0 42 -6 48 -12 13z"/>
<path d="M8000 4434 c0 -23 4 -34 12 -32 33 11 36 68 3 68 -11 0 -15 -10 -15
-36z m30 1 c0 -8 -4 -17 -10 -20 -6 -4 -10 5 -10 20 0 15 4 24 10 20 6 -3 10
-12 10 -20z"/>
<path d="M333 4414 c-4 -10 1 -20 13 -27 17 -10 17 -11 -1 -18 -19 -7 -18 -8
3 -8 25 -1 31 26 7 35 -8 4 -15 11 -15 16 0 6 7 7 16 4 8 -3 12 -2 9 4 -9 15
-25 12 -32 -6z"/>
<path d="M387 4423 c-13 -12 -7 -33 8 -33 21 0 19 -18 -2 -23 -14 -4 -12 -5 5
-6 25 -1 31 26 7 35 -8 4 -12 10 -9 15 3 5 10 6 16 3 7 -4 8 -2 4 4 -8 13 -19
15 -29 5z"/>
<path d="M440 4396 c0 -26 4 -36 15 -36 33 0 30 57 -3 68 -8 2 -12 -9 -12 -32z
m30 -1 c0 -8 -4 -17 -10 -20 -6 -4 -10 5 -10 20 0 15 4 24 10 20 6 -3 10 -12
10 -20z"/>
<path d="M564 4416 c-10 -26 0 -51 21 -51 16 0 20 7 20 30 0 33 -30 49 -41 21z
m36 -27 c0 -10 -7 -19 -15 -19 -15 0 -21 31 -9 43 11 10 24 -3 24 -24z"/>
<path d="M622 4398 c-2 -34 1 -38 21 -37 15 1 17 3 5 6 -10 2 -18 17 -21 36
-4 31 -4 31 -5 -5z"/>
<path d="M670 4395 c0 -30 3 -35 23 -34 16 1 18 2 5 6 -21 5 -23 19 -5 26 10
4 10 6 0 6 -19 1 -16 19 5 24 13 4 11 5 -5 6 -20 1 -23 -4 -23 -34z"/>
<path d="M720 4394 c0 -28 3 -35 18 -32 21 4 29 47 10 59 -23 15 -28 10 -28
-27z m30 -5 c0 -10 -4 -19 -10 -19 -5 0 -10 12 -10 26 0 14 4 23 10 19 6 -3
10 -15 10 -26z"/>
<path d="M1120 4370 c0 -23 4 -30 20 -30 16 0 20 7 20 30 0 23 -4 30 -20 30
-16 0 -20 -7 -20 -30z m30 0 c0 -11 -4 -20 -10 -20 -5 0 -10 9 -10 20 0 11 5
20 10 20 6 0 10 -9 10 -20z"/>
<path d="M1182 4370 c0 -19 2 -27 5 -17 2 9 2 25 0 35 -3 9 -5 1 -5 -18z"/>
<path d="M1201 4370 c0 -33 1 -34 10 -11 6 16 6 28 -1 35 -7 7 -10 -1 -9 -24z"/>
<path d="M1226 4378 c-3 -13 -1 -27 4 -32 7 -7 10 1 10 22 0 37 -5 41 -14 10z"/>
<path d="M503 4383 c9 -2 25 -2 35 0 9 3 1 5 -18 5 -19 0 -27 -2 -17 -5z"/>
<path d="M1300 4380 c0 -5 5 -10 11 -10 5 0 7 5 4 10 -3 6 -8 10 -11 10 -2 0
-4 -4 -4 -10z"/>
<path d="M1303 4320 c0 -25 2 -35 4 -22 2 12 2 32 0 45 -2 12 -4 2 -4 -23z"/>
<path d="M1130 4254 c0 -23 4 -34 12 -32 33 11 36 68 3 68 -11 0 -15 -10 -15
-36z m30 1 c0 -8 -4 -17 -10 -20 -6 -4 -10 5 -10 20 0 15 4 24 10 20 6 -3 10
-12 10 -20z"/>
<path d="M1204 4263 c-30 -41 -39 -62 -15 -33 23 27 44 60 38 60 -2 0 -12 -12
-23 -27z"/>
<path d="M1247 4283 c-12 -11 -8 -40 7 -52 10 -8 16 -9 21 -1 4 6 1 9 -7 8 -7
-2 -13 6 -13 17 0 11 6 19 13 18 6 -2 12 2 12 7 0 11 -23 14 -33 3z"/>
<path d="M1303 4210 c0 -25 2 -35 4 -22 2 12 2 32 0 45 -2 12 -4 2 -4 -23z"/>
<path d="M7341 4173 c-1 -27 3 -33 19 -33 16 0 20 6 19 33 -2 30 -2 30 -6 5
-2 -16 -8 -28 -13 -28 -5 0 -11 12 -13 28 -4 25 -4 25 -6 -5z"/>
<path d="M7411 4200 c-2 -3 -4 -17 -5 -32 -1 -22 3 -28 19 -28 12 0 16 3 9 8
-7 4 -14 18 -17 32 -2 14 -5 23 -6 20z"/>
<path d="M1121 4128 c0 -18 3 -27 6 -20 3 8 9 10 16 3 9 -6 13 -1 14 20 2 23
-2 29 -17 29 -16 0 -20 -7 -19 -32z m29 12 c0 -5 -4 -10 -10 -10 -5 0 -10 5
-10 10 0 6 5 10 10 10 6 0 10 -4 10 -10z"/>
<path d="M1180 4130 c0 -22 5 -30 18 -30 14 0 15 2 2 10 -13 9 -13 11 0 20 13
9 13 10 0 10 -13 0 -13 1 0 10 13 8 12 10 -2 10 -13 0 -18 -8 -18 -30z"/>
<path d="M1230 4146 c0 -8 8 -17 18 -21 16 -7 15 -8 -3 -15 -19 -8 -19 -9 3
-9 26 -1 30 24 5 34 -17 7 -16 8 2 15 19 8 19 9 -2 9 -13 1 -23 -5 -23 -13z"/>
<path d="M1300 4149 c0 -5 5 -7 10 -4 6 3 10 8 10 11 0 2 -4 4 -10 4 -5 0 -10
-5 -10 -11z"/>
<path d="M1303 4095 c0 -22 2 -30 4 -17 2 12 2 30 0 40 -3 9 -5 -1 -4 -23z"/>
<path d="M6297 4103 c-4 -3 -7 -17 -7 -30 0 -16 6 -23 20 -23 26 0 28 40 3 41
-15 0 -15 2 2 9 15 6 16 9 4 9 -9 1 -19 -2 -22 -6z m23 -33 c0 -5 -4 -10 -10
-10 -5 0 -10 5 -10 10 0 6 5 10 10 10 6 0 10 -4 10 -10z"/>
<path d="M7150 4060 c-7 -17 -10 -33 -6 -37 3 -3 6 -1 6 5 0 7 7 12 15 12 16
0 19 18 6 38 -6 10 -12 5 -21 -18z"/>
<path d="M7190 4072 c0 -11 -3 -27 -6 -36 -3 -9 -1 -16 5 -16 6 0 11 6 11 14
0 7 9 16 21 19 26 7 20 31 -9 35 -16 3 -22 -2 -22 -16z m30 -2 c0 -5 -4 -10
-10 -10 -5 0 -10 5 -10 10 0 6 5 10 10 10 6 0 10 -4 10 -10z"/>
<path d="M7250 4055 c0 -29 3 -36 18 -33 11 2 17 13 17 33 0 20 -6 31 -17 33
-15 3 -18 -4 -18 -33z m30 6 c0 -11 -4 -23 -10 -26 -6 -4 -10 5 -10 19 0 14 5
26 10 26 6 0 10 -9 10 -19z"/>
<path d="M7310 4075 c0 -9 7 -18 15 -21 8 -4 12 -10 9 -15 -3 -5 -10 -7 -15
-4 -5 4 -9 1 -9 -4 0 -15 27 -14 36 1 4 6 0 16 -9 23 -22 16 -21 22 1 28 13 4
11 5 -5 6 -15 1 -23 -5 -23 -14z"/>
<path d="M7434 4075 c-4 -8 -1 -21 5 -29 6 -7 8 -16 4 -19 -3 -4 -2 -7 4 -7
13 0 23 23 23 51 0 23 -28 26 -36 4z m26 -11 c0 -8 -4 -12 -10 -9 -5 3 -10 10
-10 16 0 5 5 9 10 9 6 0 10 -7 10 -16z"/>
<path d="M7495 4080 c11 -5 16 -9 11 -9 -5 -1 -3 -7 3 -15 14 -17 -2 -31 -21
-20 -10 5 -10 4 -1 -6 19 -21 43 -4 40 30 -2 25 -6 30 -27 29 -23 0 -23 -1 -5
-9z"/>
<path d="M7544 4076 c-9 -23 0 -51 16 -51 10 0 15 10 15 29 0 32 -21 47 -31
22z m26 -16 c0 -11 -4 -20 -10 -20 -5 0 -10 9 -10 20 0 11 5 20 10 20 6 0 10
-9 10 -20z"/>
<path d="M7600 4075 c-9 -11 -10 -16 -2 -11 8 5 12 1 12 -13 0 -10 -6 -22 -12
-24 -7 -3 1 -6 17 -6 17 0 25 3 18 7 -6 4 -13 20 -15 36 -3 28 -4 28 -18 11z"/>
<path d="M1300 4040 c0 -5 5 -10 11 -10 5 0 7 5 4 10 -3 6 -8 10 -11 10 -2 0
-4 -4 -4 -10z"/>
<path d="M7373 4043 c9 -2 25 -2 35 0 9 3 1 5 -18 5 -19 0 -27 -2 -17 -5z"/>
<path d="M1628 4033 l302 -3 0 -105 0 -105 -32 0 -32 0 35 -36 34 -35 28 33
28 33 -26 3 -25 3 0 110 0 109 -307 -2 -308 -3 303 -2z m326 -248 c-9 -14 -17
-25 -18 -25 -2 0 -13 11 -26 25 l-23 25 41 0 42 0 -16 -25z"/>
<path d="M6320 3969 c0 -6 -7 -9 -15 -5 -8 3 -15 2 -15 -3 0 -5 9 -11 20 -14
15 -4 20 0 20 14 0 10 -2 19 -5 19 -3 0 -5 -5 -5 -11z"/>
<path d="M6290 3870 c0 -13 5 -17 14 -14 8 3 16 -2 19 -13 4 -17 5 -17 6 0 0
10 -7 21 -16 24 -15 6 -15 7 3 14 17 7 17 8 -3 8 -16 1 -23 -5 -23 -19z"/>
<path d="M1860 3665 c-6 -8 -10 -22 -8 -32 4 -23 48 -31 48 -9 0 9 -5 16 -11
16 -5 0 -7 -5 -3 -11 4 -7 1 -10 -7 -7 -17 6 -19 44 -1 41 6 -2 12 2 12 7 0
15 -16 12 -30 -5z"/>
<path d="M1910 3648 c0 -21 2 -38 4 -38 9 0 12 50 5 62 -6 8 -9 -1 -9 -24z"/>
<path d="M1938 3656 c-3 -14 -1 -31 3 -38 6 -8 9 1 9 25 0 42 -6 48 -12 13z"/>
<path d="M1970 3644 c0 -28 3 -35 18 -32 21 4 29 47 10 59 -23 15 -28 10 -28
-27z m30 -5 c0 -10 -4 -19 -10 -19 -5 0 -10 12 -10 26 0 14 4 23 10 19 6 -3
10 -15 10 -26z"/>
<path d="M6636 3260 c3 -14 10 -32 15 -40 7 -13 8 -13 8 0 0 8 -6 26 -15 40
l-15 25 7 -25z"/>
<path d="M6684 3256 c-3 -14 -3 -30 1 -35 8 -13 32 -14 39 -2 3 5 -2 8 -12 7
-11 -1 -17 6 -17 19 0 13 6 20 17 19 10 -1 15 2 12 7 -10 18 -34 9 -40 -15z"/>
<path d="M6744 3266 c-9 -24 0 -51 19 -54 9 -2 17 1 17 7 0 6 -7 8 -15 5 -11
-5 -15 1 -15 21 0 20 4 26 15 21 8 -3 15 -1 15 4 0 16 -30 12 -36 -4z"/>
<path d="M5719 2882 c20 -20 38 -36 40 -34 6 3 -61 72 -70 72 -4 0 9 -17 30
-38z"/>
<path d="M5556 2881 c-4 -5 -2 -12 3 -15 5 -4 12 -2 15 3 4 5 2 12 -3 15 -5 4
-12 2 -15 -3z"/>
<path d="M5810 2844 c0 -28 3 -35 18 -32 11 2 18 14 20 36 3 27 0 32 -17 32
-17 0 -21 -6 -21 -36z m30 16 c0 -5 -4 -10 -10 -10 -5 0 -10 5 -10 10 0 6 5
10 10 10 6 0 10 -4 10 -10z m0 -30 c0 -5 -4 -10 -10 -10 -5 0 -10 5 -10 10 0
6 5 10 10 10 6 0 10 -4 10 -10z"/>
<path d="M5873 2873 c21 -6 21 -8 1 -38 -16 -25 -16 -25 12 -24 17 1 22 3 12
6 -22 6 -22 8 -2 38 16 25 16 25 -12 24 -17 -1 -22 -3 -11 -6z"/>
<path d="M5920 2870 c0 -5 7 -7 15 -4 19 8 19 -1 -1 -31 -16 -24 -15 -25 7
-25 15 0 19 3 12 8 -8 5 -9 13 -3 22 16 24 11 40 -10 40 -11 0 -20 -4 -20 -10z"/>
<path d="M5810 2736 c0 -30 4 -36 21 -36 17 0 20 5 17 32 -2 22 -9 34 -20 36
-15 3 -18 -4 -18 -32z m30 14 c0 -5 -4 -10 -10 -10 -5 0 -10 5 -10 10 0 6 5
10 10 10 6 0 10 -4 10 -10z m0 -30 c0 -5 -4 -10 -10 -10 -5 0 -10 5 -10 10 0
6 5 10 10 10 6 0 10 -4 10 -10z"/>
<path d="M5563 2743 c19 -5 22 -18 7 -28 -5 -3 -10 -12 -10 -18 1 -16 30 23
30 40 0 7 -10 12 -22 12 -17 -1 -19 -2 -5 -6z"/>
<path d="M5871 2728 c-1 -19 4 -28 14 -28 10 0 15 9 14 28 -2 27 -2 27 -7 2
l-5 -25 -8 25 -7 25 -1 -27z"/>
<path d="M5917 2743 c9 -3 10 -10 3 -24 -9 -16 -7 -19 12 -18 13 0 17 3 11 6
-9 3 -10 10 -3 24 9 16 7 19 -12 18 -13 0 -17 -3 -11 -6z"/>
<path d="M5967 2743 c9 -3 10 -10 3 -24 -9 -16 -7 -19 12 -18 13 0 17 3 11 6
-9 3 -10 10 -3 24 9 16 7 19 -12 18 -13 0 -17 -3 -11 -6z"/>
<path d="M6017 2744 c-14 -14 -7 -44 11 -44 14 0 15 2 2 10 -13 8 -12 10 3 10
10 0 17 5 15 12 -5 14 -22 21 -31 12z"/>
<path d="M6061 2723 c0 -16 3 -22 6 -13 3 8 10 21 16 28 7 8 5 12 -7 12 -11 0
-16 -8 -15 -27z"/>
<path d="M5478 2683 l-28 -4 0 -145 0 -144 -31 0 c-34 0 -32 -10 10 -39 l28
-20 34 29 34 29 -32 1 -33 0 0 141 0 142 30 -6 c37 -8 68 2 48 14 -7 5 -17 8
-23 7 -5 0 -22 -3 -37 -5z m7 -317 c-11 -7 -24 -14 -30 -14 -5 0 -19 7 -30 14
-18 13 -15 14 30 14 45 0 48 -1 30 -14z"/>
<path d="M3010 2396 c0 -26 4 -36 15 -36 33 0 30 57 -3 68 -8 2 -12 -9 -12
-32z m30 -1 c0 -8 -4 -17 -10 -20 -6 -4 -10 5 -10 20 0 15 4 24 10 20 6 -3 10
-12 10 -20z"/>
<path d="M3070 2415 c-9 -10 -9 -15 -1 -15 15 0 14 -27 -1 -33 -7 -3 -4 -6 7
-6 18 -1 20 4 17 34 -5 40 -5 40 -22 20z"/>
<path d="M3761 2393 c1 -21 3 -30 6 -20 4 17 6 17 17 2 10 -14 12 -11 11 17 0
23 -5 34 -17 36 -15 3 -18 -3 -17 -35z m29 17 c0 -5 -4 -10 -10 -10 -5 0 -10
5 -10 10 0 6 5 10 10 10 6 0 10 -4 10 -10z"/>
<path d="M3823 2423 c11 -3 16 -11 13 -19 -3 -8 -1 -14 4 -14 18 0 10 -19 -10
-23 -17 -4 -16 -4 2 -3 19 1 23 7 23 34 0 28 -3 32 -25 31 -18 -1 -20 -3 -7
-6z"/>
<path d="M4030 2394 c0 -28 3 -35 18 -32 21 4 29 47 10 59 -23 15 -28 10 -28
-27z m30 -5 c0 -10 -4 -19 -10 -19 -5 0 -10 12 -10 26 0 14 4 23 10 19 6 -3
10 -15 10 -26z"/>
<path d="M4090 2420 c0 -5 3 -9 8 -9 22 4 23 -4 2 -26 l-23 -25 29 1 c23 0 25
2 11 8 -17 6 -17 8 -4 20 9 7 13 19 10 27 -6 16 -33 19 -33 4z"/>
<path d="M2941 2278 c-1 -30 3 -38 17 -38 11 0 13 3 5 8 -6 4 -13 21 -16 37
-4 27 -4 27 -6 -7z"/>
<path d="M2980 2275 c0 -30 3 -35 23 -34 16 1 18 2 5 6 -21 5 -23 19 -5 26 10
4 10 6 0 6 -19 1 -16 19 5 24 13 4 11 5 -5 6 -20 1 -23 -4 -23 -34z"/>
<path d="M3030 2275 c0 -39 22 -48 40 -16 13 26 3 51 -21 51 -15 0 -19 -7 -19
-35z m34 16 c8 -12 -3 -41 -15 -41 -5 0 -9 11 -9 25 0 25 14 34 24 16z"/>
<path d="M3133 2294 c-8 -20 9 -49 28 -49 8 0 15 8 17 18 2 9 -2 17 -8 17 -6
0 -9 -4 -5 -9 3 -5 1 -12 -5 -16 -19 -12 -24 27 -5 41 17 13 17 14 2 14 -10 0
-20 -7 -24 -16z"/>
<path d="M3791 2273 c1 -21 3 -30 6 -20 4 17 6 17 16 3 10 -14 12 -10 14 19 3
29 0 35 -17 35 -17 0 -20 -6 -19 -37z m29 17 c0 -5 -4 -10 -10 -10 -5 0 -10 5
-10 10 0 6 5 10 10 10 6 0 10 -4 10 -10z"/>
<path d="M3962 2278 c-2 -34 1 -38 21 -37 15 1 17 3 5 6 -10 2 -18 17 -21 36
-4 31 -4 31 -5 -5z"/>
<path d="M4010 2275 c0 -27 4 -35 18 -35 10 0 13 3 6 8 -6 4 -11 16 -11 27 0
11 5 23 11 27 7 5 4 8 -6 8 -14 0 -18 -8 -18 -35z"/>
<path d="M4060 2274 c0 -23 4 -34 12 -32 33 11 36 68 3 68 -11 0 -15 -10 -15
-36z m30 1 c0 -8 -4 -17 -10 -20 -6 -4 -10 5 -10 20 0 15 4 24 10 20 6 -3 10
-12 10 -20z"/>
<path d="M4161 2273 c1 -21 3 -30 6 -20 4 17 6 17 16 3 10 -13 12 -10 14 19 1
29 -2 35 -18 35 -16 0 -19 -7 -18 -37z m29 17 c0 -5 -4 -10 -10 -10 -5 0 -10
5 -10 10 0 6 5 10 10 10 6 0 10 -4 10 -10z"/>
<path d="M5382 2223 c3 -30 38 -47 38 -19 0 9 -5 16 -11 16 -5 0 -7 -4 -4 -10
3 -5 1 -10 -4 -10 -18 0 -12 38 7 43 12 3 11 5 -6 6 -20 1 -23 -3 -20 -26z"/>
<path d="M5441 2220 c0 -33 1 -34 10 -11 6 16 6 28 -1 35 -7 7 -10 -1 -9 -24z"/>
<path d="M5466 2228 c-3 -13 -1 -27 4 -32 7 -7 10 1 10 22 0 37 -5 41 -14 10z"/>
<path d="M5490 2220 c0 -23 5 -30 19 -30 21 0 33 22 25 45 -4 8 -15 15 -25 15
-14 0 -19 -7 -19 -30z m35 0 c0 -7 -6 -15 -12 -17 -8 -3 -13 4 -13 17 0 13 5
20 13 18 6 -3 12 -11 12 -18z"/>
<path d="M2962 2057 c-25 -26 -30 -46 -7 -27 13 10 15 9 15 -9 0 -16 6 -21 28
-20 25 0 25 1 6 9 -27 11 -38 38 -23 56 19 23 4 16 -19 -9z"/>
<path d="M3014 2048 l-29 -33 33 29 c30 28 37 36 29 36 -2 0 -16 -15 -33 -32z"/>
<path d="M3984 2048 l-29 -33 33 29 c30 28 37 36 29 36 -2 0 -16 -15 -33 -32z"/>
<path d="M4040 2055 c-13 -14 -21 -27 -18 -31 3 -3 16 9 28 25 26 37 22 40
-10 6z"/>
<path d="M2920 2023 c0 -17 6 -23 23 -23 16 0 18 3 8 9 -7 5 -17 15 -22 22 -6
10 -9 8 -9 -8z"/>
<path d="M3940 2023 c0 -17 6 -23 23 -23 16 0 18 3 8 9 -7 5 -17 15 -22 22 -6
10 -9 8 -9 -8z"/>
<path d="M4000 2023 c0 -17 6 -23 23 -23 16 0 18 3 8 9 -7 5 -17 15 -22 22 -6
10 -9 8 -9 -8z"/>
<path d="M4356 1384 c-8 -20 12 -56 27 -51 16 5 22 37 7 37 -6 0 -9 -4 -5 -9
3 -5 1 -12 -4 -15 -18 -11 -22 28 -5 41 15 11 16 13 2 13 -9 0 -19 -7 -22 -16z"/>
<path d="M4410 1368 c0 -21 2 -38 4 -38 9 0 12 50 5 62 -6 8 -9 -1 -9 -24z"/>
<path d="M4438 1376 c-3 -14 -1 -31 3 -38 6 -8 9 1 9 25 0 42 -6 48 -12 13z"/>
<path d="M4470 1365 c0 -29 3 -36 18 -33 11 2 17 13 17 33 0 20 -6 31 -17 33
-15 3 -18 -4 -18 -33z m30 6 c0 -11 -4 -23 -10 -26 -6 -4 -10 5 -10 19 0 14 5
26 10 26 6 0 10 -9 10 -19z"/>
<path d="M3274 1325 c-9 -23 3 -45 26 -45 11 0 20 7 20 15 0 8 -5 15 -11 15
-5 0 -7 -5 -3 -11 4 -7 1 -10 -7 -7 -21 7 -23 36 -2 41 17 4 17 5 0 6 -10 0
-20 -6 -23 -14z"/>
<path d="M3331 1310 c0 -33 1 -34 10 -11 6 16 6 28 -1 35 -7 7 -10 -1 -9 -24z"/>
<path d="M3356 1318 c-3 -13 -1 -27 4 -32 7 -7 10 1 10 22 0 37 -5 41 -14 10z"/>
<path d="M3390 1309 c0 -24 4 -30 18 -27 10 2 18 14 20 31 3 22 -1 27 -17 27
-17 0 -21 -6 -21 -31z m30 1 c0 -11 -4 -20 -10 -20 -5 0 -10 9 -10 20 0 11 5
20 10 20 6 0 10 -9 10 -20z"/>
<path d="M5592 608 c1 -337 3 -596 5 -575 l4 37 439 0 439 0 4 -37 4 -38 1 37
2 38 983 3 c828 2 758 2 -445 5 l-1428 2 0 80 0 80 1428 3 1427 2 -1427 3
-1428 2 0 130 0 130 1428 3 1427 2 -1427 3 -1428 2 0 345 0 345 1428 3 1427 2
-1432 3 -1433 2 2 -612z"/>
<path d="M2826 790 c7 -7 19 -7 35 -1 23 9 22 10 -10 10 -24 1 -32 -2 -25 -9z"/>
<path d="M2891 768 c-1 -16 -13 -18 -111 -18 l-110 0 0 -235 0 -235 110 0 c99
0 110 -2 110 -18 0 -14 -8 -17 -35 -17 -32 1 -35 -1 -34 -24 1 -17 3 -20 6 -8
2 9 8 15 13 12 5 -3 11 -1 15 5 11 18 27 11 22 -10 -3 -11 -1 -18 4 -14 5 3 9
-15 9 -40 0 -40 -2 -45 -25 -48 l-26 -3 28 -33 28 -33 34 35 35 36 -32 0 -32
0 0 80 0 80 115 0 115 0 0 114 c0 101 2 115 18 119 16 4 16 5 0 6 -16 1 -18
14 -18 116 l0 115 -114 0 c-101 0 -115 2 -119 18 -4 16 -5 16 -6 0z m229 -253
l0 -225 -220 0 -220 0 0 225 0 225 220 0 220 0 0 -225z m-180 -408 c0 -2 -11
-13 -24 -26 l-23 -22 -17 26 -16 25 40 0 c22 0 40 -1 40 -3z"/>
<path d="M2866 685 c-9 -25 -9 -25 30 -25 28 0 35 3 32 18 -4 23 -53 29 -62 7z
m54 -5 c0 -5 -12 -10 -26 -10 -14 0 -23 4 -19 10 3 6 15 10 26 10 10 0 19 -4
19 -10z"/>
<path d="M2866 625 c-9 -25 -9 -25 30 -25 28 0 35 3 32 18 -4 23 -53 29 -62 7z
m54 -5 c0 -5 -12 -10 -26 -10 -14 0 -23 4 -19 10 3 6 15 10 26 10 10 0 19 -4
19 -10z"/>
<path d="M2879 577 l24 -15 -22 -7 c-12 -4 -21 -9 -18 -11 2 -2 19 1 37 7 34
12 30 20 -20 33 l-25 7 24 -14z"/>
<path d="M2940 530 c0 -11 7 -20 15 -20 21 0 19 -18 -2 -23 -16 -4 -16 -5 -1
-6 24 -2 34 20 15 34 -22 16 -21 22 1 28 13 4 11 5 -5 6 -17 1 -23 -5 -23 -19z"/>
<path d="M2990 515 c0 -28 4 -35 19 -35 11 0 21 9 24 23 5 20 5 20 -7 5 -18
-25 -26 -22 -26 8 0 19 4 25 15 20 8 -3 15 -1 15 4 0 6 -9 10 -20 10 -16 0
-20 -7 -20 -35z"/>
<path d="M3051 520 c-6 -18 -9 -36 -6 -38 3 -3 5 0 5 6 0 16 27 15 33 0 4 -9
6 -8 6 2 0 8 -6 26 -13 39 l-13 24 -12 -33z"/>
<path d="M2878 479 c-31 -18 -22 -39 17 -39 28 0 35 4 35 20 0 11 -4 20 -10
20 -5 0 -7 -7 -4 -15 5 -11 -1 -15 -20 -15 -30 0 -33 8 -8 26 20 16 14 18 -10
3z"/>
<path d="M2860 426 c0 -9 50 -12 62 -5 8 6 -1 9 -24 9 -21 0 -38 -2 -38 -4z"/>
<path d="M2868 399 c-8 -6 1 -9 25 -9 20 0 37 2 37 4 0 9 -50 12 -62 5z"/>
<path d="M2864 359 c-10 -16 11 -31 37 -27 31 4 39 38 10 38 -12 0 -21 -4 -21
-10 0 -5 7 -7 15 -4 8 4 15 1 15 -6 0 -6 -10 -10 -22 -8 -13 2 -22 9 -20 16 3
15 -5 16 -14 1z"/>
<path d="M2503 578 c1 -25 7 -33 22 -33 15 0 20 7 21 30 1 28 1 28 -3 3 -6
-37 -30 -36 -37 2 -6 30 -6 30 -3 -2z"/>
<path d="M2565 600 c-3 -6 1 -7 9 -4 21 8 20 -14 -1 -38 -15 -17 -15 -18 8
-17 13 0 18 3 11 6 -10 4 -10 8 -1 19 12 15 6 44 -10 44 -5 0 -13 -4 -16 -10z"/>
<path d="M3160 580 c0 -5 7 -7 15 -4 17 7 21 -11 5 -21 -5 -3 -10 -12 -10 -18
1 -16 30 23 30 40 0 7 -9 13 -20 13 -11 0 -20 -4 -20 -10z"/>
<path d="M6046 475 c-9 -14 -23 -37 -32 -52 l-16 -28 20 24 c24 29 55 81 49
81 -3 0 -12 -11 -21 -25z"/>
<path d="M2292 465 c-7 -14 -12 -27 -12 -28 0 -1 11 -2 24 -2 21 0 22 3 14 28
-6 15 -11 27 -12 27 -2 0 -8 -11 -14 -25z"/>
<path d="M2341 461 c-1 -24 2 -32 9 -25 7 7 7 19 1 35 -9 23 -10 22 -10 -10z"/>
<path d="M2367 478 c-2 -7 -1 -22 4 -33 6 -16 8 -14 8 13 1 33 -4 41 -12 20z"/>
<path d="M2413 483 c21 -6 21 -12 0 -35 -15 -17 -15 -18 8 -18 17 0 20 3 10 9
-9 6 -10 11 -2 15 20 13 12 36 -11 35 -17 -1 -19 -2 -5 -6z"/>
<path d="M2458 483 c6 -2 18 -2 25 0 6 3 1 5 -13 5 -14 0 -19 -2 -12 -5z"/>
<path d="M2510 460 c0 -25 4 -31 18 -28 11 2 17 12 17 28 0 16 -6 26 -17 28
-14 3 -18 -3 -18 -28z m30 0 c0 -11 -4 -20 -10 -20 -5 0 -10 9 -10 20 0 11 5
20 10 20 6 0 10 -9 10 -20z"/>
<path d="M2573 483 c21 -6 21 -12 0 -35 -15 -17 -15 -18 8 -18 17 0 20 3 10 9
-9 6 -10 11 -2 15 20 13 12 36 -11 35 -17 -1 -19 -2 -5 -6z"/>
<path d="M5650 471 c0 -11 9 -21 21 -24 12 -3 18 -10 14 -17 -4 -6 -14 -9 -24
-5 -12 5 -13 4 -4 -6 10 -10 16 -9 29 2 15 12 14 15 -5 30 -27 22 -26 27 2 32
19 4 18 4 -5 6 -21 1 -28 -4 -28 -18z"/>
<path d="M5721 448 c1 -39 2 -41 9 -13 l7 30 5 -30 5 -30 2 28 c0 16 -6 35
-14 43 -13 14 -15 11 -14 -28z"/>
<path d="M5888 477 c-7 -19 6 -60 20 -63 7 -1 8 0 2 3 -12 6 -13 40 -1 45 5 2
3 8 -4 15 -10 9 -14 9 -17 0z"/>
<path d="M2476 456 c3 -8 -2 -16 -13 -19 -14 -4 -14 -5 5 -6 16 -1 22 5 22 19
0 11 -4 20 -10 20 -5 0 -7 -6 -4 -14z"/>
<path d="M5774 455 c-4 -8 -4 -22 0 -30 6 -17 36 -21 36 -4 0 5 -4 8 -9 4 -5
-3 -12 -1 -16 5 -3 5 1 10 9 10 9 0 16 7 16 15 0 8 -7 15 -15 15 -9 0 -18 -7
-21 -15z"/>
<path d="M5830 446 c0 -29 17 -43 33 -27 9 9 8 11 -5 6 -11 -4 -18 -2 -18 4 0
6 7 11 15 11 8 0 15 7 15 15 0 8 -9 15 -20 15 -15 0 -20 -7 -20 -24z"/>
<path d="M5651 328 c1 -24 4 -34 6 -23 3 11 10 23 17 27 8 6 7 8 -1 8 -19 0
-16 18 5 23 13 4 11 5 -5 6 -21 1 -23 -3 -22 -41z"/>
<path d="M5713 330 c0 -25 2 -35 4 -22 2 12 2 32 0 45 -2 12 -4 2 -4 -23z"/>
<path d="M5740 336 c0 -19 3 -37 8 -40 4 -2 6 13 4 35 -5 48 -12 51 -12 5z"/>
<path d="M6031 328 c2 -30 3 -35 6 -15 2 15 9 27 14 27 5 0 10 -12 10 -27 2
-26 2 -26 6 -5 3 16 -3 31 -16 43 l-21 20 1 -43z"/>
<path d="M6532 330 c0 -25 2 -39 5 -32 4 10 8 10 21 0 15 -12 15 -11 0 12 -8
14 -18 35 -21 45 -2 11 -5 0 -5 -25z"/>
<path d="M6588 330 c2 -22 6 -40 8 -40 2 0 4 18 4 40 0 22 -3 40 -8 40 -4 0
-6 -18 -4 -40z"/>
<path d="M6745 349 c-15 -15 -17 -24 -9 -36 20 -33 34 -26 34 16 0 23 -1 41
-2 40 -2 0 -12 -9 -23 -20z m15 -31 c0 -16 -3 -19 -11 -11 -6 6 -8 16 -5 22
11 17 16 13 16 -11z"/>
<path d="M6961 328 c2 -30 3 -35 6 -15 2 15 9 27 14 27 5 0 10 -12 10 -27 2
-26 2 -26 6 -5 3 16 -3 31 -16 43 l-21 20 1 -43z"/>
<path d="M5774 335 c-4 -8 -4 -22 0 -30 6 -17 36 -21 36 -4 0 5 -4 8 -9 4 -5
-3 -12 -1 -16 5 -3 5 1 10 9 10 9 0 16 7 16 15 0 8 -7 15 -15 15 -9 0 -18 -7
-21 -15z"/>
<path d="M5830 340 c0 -5 5 -10 11 -10 5 0 7 5 4 10 -3 6 -8 10 -11 10 -2 0
-4 -4 -4 -10z"/>
<path d="M5915 340 c-3 -6 1 -13 9 -16 9 -3 16 -11 16 -16 0 -6 -8 -7 -17 -3
-15 5 -16 4 -5 -6 10 -11 14 -11 25 0 10 10 8 15 -6 26 -18 13 -18 13 0 18 15
4 16 5 1 6 -9 0 -20 -4 -23 -9z"/>
<path d="M5970 326 c0 -29 17 -43 33 -27 9 9 8 11 -5 6 -14 -5 -18 -2 -18 13
0 11 8 23 18 25 13 4 11 5 -5 6 -18 1 -23 -4 -23 -23z"/>
<path d="M6090 326 c0 -29 17 -43 33 -27 9 9 8 11 -5 6 -11 -4 -18 -2 -18 4 0
6 7 11 15 11 8 0 15 7 15 15 0 8 -9 15 -20 15 -15 0 -20 -7 -20 -24z"/>
<path d="M6151 318 c2 -31 2 -31 6 -5 2 15 8 27 13 27 5 0 11 -12 13 -27 l4
-28 3 30 2 30 8 -30 8 -30 1 33 c1 29 -2 32 -29 32 -27 0 -30 -3 -29 -32z"/>
<path d="M6254 342 c19 -8 19 -9 -3 -15 -43 -11 -18 -32 40 -33 30 -1 40 1 22
3 -23 3 -33 10 -35 26 -2 13 -11 23 -23 24 -19 3 -19 3 -1 -5z m16 -32 c0 -5
-4 -10 -9 -10 -6 0 -13 5 -16 10 -3 6 1 10 9 10 9 0 16 -4 16 -10z"/>
<path d="M6350 310 l0 -41 21 20 c24 22 22 54 -4 59 -14 3 -17 -4 -17 -38z
m30 16 c0 -8 -4 -18 -10 -21 -5 -3 -10 3 -10 14 0 12 5 21 10 21 6 0 10 -6 10
-14z"/>
<path d="M6411 318 c2 -30 2 -31 6 -5 2 15 8 27 13 27 5 0 11 -12 13 -27 l4
-28 2 28 c1 34 18 36 24 2 4 -23 4 -23 3 2 -1 24 -6 28 -33 31 -32 3 -33 2
-32 -30z"/>
<path d="M6613 334 c-8 -21 23 -52 38 -37 8 8 6 11 -6 10 -27 -3 -30 22 -3 32
l23 10 -23 0 c-12 1 -25 -6 -29 -15z"/>
<path d="M6685 340 c18 -8 18 -9 2 -9 -24 -1 -19 -34 6 -39 13 -3 17 3 17 27
0 26 -4 31 -22 30 -22 0 -22 -1 -3 -9z m15 -30 c0 -5 -4 -10 -10 -10 -5 0 -10
5 -10 10 0 6 5 10 10 10 6 0 10 -4 10 -10z"/>
<path d="M6845 340 c-3 -6 1 -13 9 -16 28 -11 17 -21 -26 -22 -23 -1 -44 -4
-46 -7 -3 -3 16 -4 42 -4 52 2 68 15 42 35 -16 12 -16 13 1 17 15 4 16 5 1 6
-9 0 -20 -4 -23 -9z"/>
<path d="M6900 326 c0 -29 17 -43 33 -27 9 9 8 11 -5 6 -14 -5 -18 -2 -18 13
0 11 8 23 18 25 13 4 11 5 -5 6 -18 1 -23 -4 -23 -23z"/>
<path d="M5830 299 c0 -5 5 -7 10 -4 6 3 10 8 10 11 0 2 -4 4 -10 4 -5 0 -10
-5 -10 -11z"/>
<path d="M5668 213 c7 -3 12 -23 12 -51 0 -34 3 -43 10 -32 5 8 10 26 10 41 0
14 5 30 12 37 9 9 4 12 -22 11 -19 0 -29 -3 -22 -6z"/>
<path d="M5735 174 c-7 -49 0 -74 10 -30 3 14 7 37 10 51 3 14 1 25 -4 25 -5
0 -12 -21 -16 -46z"/>
<path d="M5785 202 c-15 -26 -7 -82 12 -82 12 0 13 3 4 14 -9 11 -10 20 -1 35
14 28 0 59 -15 33z"/>
<path d="M5836 204 c-9 -23 -7 -84 2 -84 4 0 9 23 10 50 2 52 -1 62 -12 34z"/>
<path d="M5870 155 c0 -31 3 -35 25 -35 14 0 25 5 25 11 0 6 -7 9 -15 5 -8 -3
-15 -2 -15 3 0 5 9 11 20 14 33 8 25 37 -10 37 -28 0 -30 -3 -30 -35z"/>
<path d="M5950 180 c0 -5 5 -10 10 -10 6 0 10 5 10 10 0 6 -4 10 -10 10 -5 0
-10 -4 -10 -10z"/>
<path d="M5650 20 c0 -11 4 -20 10 -20 5 0 7 6 4 14 -4 9 3 16 18 19 21 4 20
4 -4 6 -22 1 -28 -4 -28 -19z"/>
<path d="M5717 20 c3 -11 7 -20 9 -20 2 0 4 9 4 20 0 11 -4 20 -9 20 -5 0 -7
-9 -4 -20z"/>
<path d="M5956 24 c-8 -21 -8 -21 8 -21 8 0 11 8 8 19 -5 22 -8 23 -16 2z"/>
<path d="M6641 18 c1 -17 3 -18 6 -5 2 9 8 17 13 17 5 0 11 -8 14 -17 4 -14 4
-14 3 2 -3 30 -37 33 -36 3z"/>
<path d="M6756 25 c-6 -17 5 -26 21 -17 8 5 7 11 -2 19 -10 10 -14 9 -19 -2z"/>
<path d="M5740 16 c0 -9 40 -13 46 -5 3 5 -6 9 -20 9 -14 0 -26 -2 -26 -4z"/>
<path d="M5806 12 c-2 -4 4 -8 14 -8 10 0 16 4 14 8 -7 10 -21 10 -28 0z"/>
<path d="M6706 12 c-2 -4 4 -8 14 -8 10 0 16 4 14 8 -7 10 -21 10 -28 0z"/>
<path d="M6806 12 c-2 -4 4 -8 14 -8 10 0 16 4 14 8 -7 10 -21 10 -28 0z"/>
</g>
</svg>
