<?xml version="1.0" standalone="no"?>
<!DOCTYPE svg PUBLIC "-//W3C//DTD SVG 20010904//EN"
 "http://www.w3.org/TR/2001/REC-SVG-20010904/DTD/svg10.dtd">
<svg version="1.0" xmlns="http://www.w3.org/2000/svg"
 width="1002.000000pt" height="748.000000pt" viewBox="0 0 1002.000000 748.000000"
 preserveAspectRatio="xMidYMid meet">

<g transform="translate(0.000000,748.000000) scale(0.100000,-0.100000)"
fill="#000000" stroke="none">
<path d="M7115 6910 c0 -278 1 -391 2 -252 2 138 2 366 0 505 -1 138 -2 25 -2
-253z"/>
<path d="M6972 6888 c-1 -297 -6 -458 -12 -458 -5 0 -10 -9 -10 -20 0 -11 5
-20 10 -20 6 0 11 -124 12 -347 l3 -348 2 344 c2 234 7 349 14 358 8 9 8 17 0
26 -7 10 -12 153 -14 468 l-2 454 -3 -457z"/>
<path d="M3110 6775 c0 -307 -3 -431 -12 -450 l-12 -26 -17 33 -18 33 1 -55
c1 -48 2 -50 7 -20 7 33 7 34 15 11 l8 -24 14 24 c11 20 13 -44 14 -428 l0
-453 -710 0 -709 0 -4 68 -3 67 -2 -72 -2 -73 720 0 720 0 0 895 c0 492 -2
895 -5 895 -3 0 -5 -191 -5 -425z"/>
<path d="M5006 7085 c-8 -23 -8 -27 4 -20 6 3 10 -1 10 -10 0 -11 -5 -15 -14
-12 -8 3 -16 0 -19 -6 -3 -7 6 -12 23 -12 26 0 27 1 17 35 -11 43 -13 45 -21
25z"/>
<path d="M5062 7085 c-7 -8 -8 -15 -3 -15 5 0 12 -12 14 -27 3 -20 4 -15 6 15
1 47 1 47 -17 27z"/>
<path d="M4857 6953 c-14 -13 -7 -33 16 -43 21 -11 21 -10 3 4 -16 13 -17 18
-6 31 12 14 0 22 -13 8z"/>
<path d="M4997 6953 c-11 -10 -8 -71 3 -78 16 -10 40 14 40 39 0 32 -27 56
-43 39z m31 -44 c-1 -13 -7 -23 -13 -22 -13 3 -18 30 -11 50 10 24 29 1 24
-28z"/>
<path d="M5067 6953 c-4 -3 -7 -17 -7 -30 0 -18 5 -23 23 -22 16 1 18 2 5 6
-10 2 -18 14 -18 25 0 14 5 18 16 14 8 -3 12 -2 9 4 -7 12 -19 13 -28 3z"/>
<path d="M5203 6953 c-20 -7 -16 -70 4 -77 24 -9 35 7 31 44 -3 34 -13 43 -35
33z m27 -18 c0 -8 -4 -15 -9 -15 -13 0 -22 16 -14 24 11 11 23 6 23 -9z m0
-41 c0 -17 -22 -14 -28 4 -2 7 3 12 12 12 9 0 16 -7 16 -16z"/>
<path d="M4938 6943 c6 -2 18 -2 25 0 6 3 1 5 -13 5 -14 0 -19 -2 -12 -5z"/>
<path d="M5141 6950 c-1 -3 -3 -22 -4 -43 -2 -31 1 -37 18 -37 13 0 16 3 8 8
-6 4 -13 23 -16 42 -2 19 -5 33 -6 30z"/>
<path d="M4860 6876 c7 -7 13 -7 20 0 6 6 3 10 -10 10 -13 0 -16 -4 -10 -10z"/>
<path d="M4935 6880 c3 -5 12 -7 20 -3 21 7 19 13 -6 13 -11 0 -18 -4 -14 -10z"/>
<path d="M4413 6770 c0 -25 2 -35 4 -23 3 13 13 23 26 25 25 3 30 29 7 36 -13
5 -13 3 -1 -11 12 -15 11 -17 -7 -17 -11 0 -23 8 -25 18 -3 9 -5 -3 -4 -28z"/>
<path d="M4811 6770 c1 -42 1 -43 9 -16 6 17 5 36 0 45 -7 11 -9 3 -9 -29z"/>
<path d="M4856 6802 c-2 -4 -1 -23 4 -42 l8 -35 1 43 c1 41 -3 50 -13 34z"/>
<path d="M4892 6773 c2 -30 7 -38 23 -38 16 0 21 8 23 38 3 34 1 37 -23 37
-24 0 -26 -3 -23 -37z m36 2 c-2 -14 -7 -26 -13 -26 -5 0 -11 12 -13 26 -2 18
1 25 13 25 12 0 15 -7 13 -25z"/>
<path d="M4960 6770 c0 -28 4 -40 14 -40 21 0 48 30 42 47 -3 8 -6 19 -6 24 0
5 -11 9 -25 9 -22 0 -25 -4 -25 -40z m44 14 c6 -17 -9 -44 -25 -44 -5 0 -9 14
-9 30 0 33 23 42 34 14z"/>
<path d="M5044 6770 c1 -28 5 -35 21 -35 16 0 20 7 22 40 1 40 1 40 -5 6 -9
-46 -30 -51 -35 -9 l-4 33 1 -35z"/>
<path d="M5112 6773 c-2 -39 0 -43 21 -42 16 1 17 3 5 6 -11 3 -18 17 -21 41
l-4 37 -1 -42z"/>
<path d="M5170 6770 c0 -35 3 -40 23 -39 16 1 18 2 5 6 -20 5 -25 33 -5 33 9
0 8 3 -2 9 -7 5 -10 14 -7 20 4 6 2 11 -3 11 -6 0 -11 -18 -11 -40z"/>
<path d="M5290 6790 c0 -11 7 -20 15 -20 8 0 15 -7 15 -16 0 -10 -6 -14 -15
-10 -8 3 -15 1 -15 -4 0 -6 9 -10 20 -10 24 0 28 38 5 46 -20 8 -19 21 3 27
13 4 11 5 -5 6 -17 1 -23 -5 -23 -19z"/>
<path d="M5363 6803 c-7 -2 -13 -15 -13 -28 0 -29 29 -48 51 -34 12 8 12 10
-1 8 -31 -3 -40 2 -40 21 0 12 10 24 23 30 12 5 15 9 7 9 -8 -1 -21 -3 -27 -6z"/>
<path d="M5432 6773 c3 -41 23 -51 42 -20 13 21 -2 50 -28 55 -14 3 -17 -3
-14 -35z m33 -3 c0 -13 -6 -25 -12 -27 -9 -3 -13 6 -13 27 0 21 4 30 13 28 6
-3 12 -15 12 -28z"/>
<path d="M5497 6803 c-16 -16 -6 -43 16 -43 22 -1 22 -1 2 -16 l-20 -16 20 4
c15 2 21 12 23 41 2 20 -1 37 -6 37 -6 0 -8 -9 -5 -20 4 -14 0 -20 -12 -20
-12 0 -16 6 -12 20 5 21 4 24 -6 13z"/>
<path d="M5565 6800 c-3 -5 -1 -10 4 -10 15 0 14 -47 -1 -53 -7 -3 1 -5 17 -5
17 0 24 2 18 5 -7 2 -13 20 -13 39 0 33 -12 45 -25 24z"/>
<path d="M5630 6777 c0 -23 6 -37 17 -41 23 -9 35 6 31 40 -2 21 -9 30 -25 32
-20 3 -23 -1 -23 -31z m40 13 c0 -5 -7 -10 -15 -10 -8 0 -15 5 -15 10 0 6 7
10 15 10 8 0 15 -4 15 -10z m-2 -39 c3 -8 -1 -12 -9 -9 -7 2 -15 10 -17 17 -3
8 1 12 9 9 7 -2 15 -10 17 -17z"/>
<path d="M4525 6779 c-4 -6 -4 -13 -1 -16 3 -4 6 -1 6 5 0 6 8 13 18 15 15 4
15 5 0 6 -9 0 -20 -4 -23 -10z"/>
<path d="M4580 6774 c-11 -12 -11 -18 2 -31 20 -20 38 -9 38 23 0 27 -21 32
-40 8z m30 -14 c0 -11 -4 -20 -9 -20 -14 0 -23 18 -16 30 10 17 25 11 25 -10z"/>
<path d="M4770 6780 c0 -5 5 -10 11 -10 5 0 7 5 4 10 -3 6 -8 10 -11 10 -2 0
-4 -4 -4 -10z"/>
<path d="M250 6380 l0 -400 70 0 70 0 3 -572 2 -573 3 573 2 572 105 0 105 0
3 -357 2 -358 3 358 2 357 105 0 105 0 3 -212 2 -213 3 213 2 212 100 0 100 0
3 -212 2 -213 3 213 2 212 100 0 100 0 2 -102 2 -103 5 100 6 100 97 3 98 3 3
-213 2 -213 3 213 2 212 105 0 105 0 3 -212 2 -213 3 213 2 212 100 0 100 0 0
-215 0 -215 543 2 542 3 -537 2 -538 3 0 210 0 210 70 0 70 0 0 400 0 400
-895 0 -895 0 0 -400z m1780 0 l0 -390 -885 0 -885 0 0 390 0 390 885 0 885 0
0 -390z"/>
<path d="M798 6293 c12 -2 32 -2 45 0 12 2 2 4 -23 4 -25 0 -35 -2 -22 -4z"/>
<path d="M1004 6285 c-3 -8 -4 -20 -1 -27 3 -7 6 -3 6 9 1 17 8 23 34 26 l32
4 -33 1 c-21 1 -35 -3 -38 -13z"/>
<path d="M1066 6263 c-6 -14 -5 -15 5 -6 7 7 10 15 7 18 -3 3 -9 -2 -12 -12z"/>
<path d="M783 6254 c-3 -8 -1 -20 5 -26 13 -13 42 -3 41 14 0 10 -2 10 -6 1
-8 -22 -36 -15 -30 7 6 24 -1 27 -10 4z"/>
<path d="M845 6260 c3 -5 8 -10 11 -10 2 0 4 5 4 10 0 6 -5 10 -11 10 -5 0 -7
-4 -4 -10z"/>
<path d="M1436 6251 c-3 -4 6 -6 21 -3 18 3 30 -1 40 -13 7 -11 13 -14 13 -9
0 27 -60 48 -74 25z"/>
<path d="M1906 6251 c-4 -5 3 -7 14 -4 23 6 26 13 6 13 -8 0 -17 -4 -20 -9z"/>
<path d="M370 6230 c-9 -6 -10 -10 -3 -10 6 0 15 5 18 10 8 12 4 12 -15 0z"/>
<path d="M407 6220 c3 -11 7 -20 9 -20 2 0 4 9 4 20 0 11 -4 20 -9 20 -5 0 -7
-9 -4 -20z"/>
<path d="M595 6220 c-3 -5 1 -10 10 -10 9 0 13 5 10 10 -3 6 -8 10 -10 10 -2
0 -7 -4 -10 -10z"/>
<path d="M1004 6200 c1 -17 36 -27 36 -11 0 6 -6 8 -14 5 -8 -3 -16 0 -19 8
-3 9 -4 8 -3 -2z"/>
<path d="M1072 6200 c0 -14 2 -19 5 -12 2 6 2 18 0 25 -3 6 -5 1 -5 -13z"/>
<path d="M1224 6195 c1 -15 8 -20 31 -20 24 0 30 4 31 23 1 18 1 19 -3 2 -6
-26 -50 -28 -56 -2 -3 13 -4 12 -3 -3z"/>
<path d="M1866 6196 c10 -8 21 -12 24 -10 5 6 -21 24 -34 24 -6 0 -1 -6 10
-14z"/>
<path d="M1925 6185 c0 -13 3 -21 8 -18 4 2 7 10 7 18 0 8 -3 16 -7 18 -5 3
-8 -5 -8 -18z"/>
<path d="M793 6193 c-15 -5 -17 -29 -4 -37 5 -3 8 2 7 11 -1 12 9 20 29 24 26
6 27 7 5 7 -14 0 -31 -2 -37 -5z"/>
<path d="M408 6178 c34 -17 28 -38 -13 -38 -37 0 -43 8 -23 28 8 8 8 12 1 12
-11 0 -23 -22 -23 -41 0 -5 20 -9 45 -9 38 0 45 3 45 20 0 18 -27 41 -47 39
-4 0 2 -5 15 -11z"/>
<path d="M577 6183 c-16 -15 -6 -43 18 -49 35 -9 55 2 54 28 l0 23 -10 -23
c-12 -32 -54 -27 -53 6 1 24 0 25 -9 15z"/>
<path d="M1455 6180 c17 -4 25 -8 19 -9 -5 0 -19 -8 -30 -16 -18 -13 -16 -14
26 -13 41 0 42 1 15 8 -16 4 -25 8 -19 9 5 0 19 8 30 16 18 13 16 14 -26 13
-41 0 -42 -1 -15 -8z"/>
<path d="M1679 6168 c-7 -13 -17 -26 -23 -30 -8 -5 -7 -8 1 -8 7 0 19 12 27
28 11 20 16 23 19 12 14 -40 16 -43 14 -16 -3 37 -22 44 -38 14z"/>
<path d="M1851 6174 c0 -11 3 -14 6 -6 3 7 2 16 -1 19 -3 4 -6 -2 -5 -13z"/>
<path d="M825 6150 c-13 -6 -15 -9 -5 -9 8 0 22 4 30 9 18 12 2 12 -25 0z"/>
<path d="M1018 6153 c12 -2 32 -2 45 0 12 2 2 4 -23 4 -25 0 -35 -2 -22 -4z"/>
<path d="M1220 6124 c0 -21 4 -24 38 -22 36 1 36 1 5 5 -20 3 -33 10 -33 19 0
17 12 18 26 4 8 -8 14 -7 22 2 8 10 3 13 -24 15 -30 1 -34 -1 -34 -23z"/>
<path d="M1920 6140 c0 -5 5 -10 11 -10 5 0 7 5 4 10 -3 6 -8 10 -11 10 -2 0
-4 -4 -4 -10z"/>
<path d="M803 6104 c16 -9 31 -13 35 -10 3 3 -1 6 -9 7 -8 1 -3 5 11 9 21 7
17 8 -20 9 l-45 0 28 -15z"/>
<path d="M1018 6113 c12 -2 32 -2 45 0 12 2 2 4 -23 4 -25 0 -35 -2 -22 -4z"/>
<path d="M354 6099 c-8 -14 21 -43 35 -35 6 4 11 14 11 22 0 19 27 18 33 -1 4
-11 4 -10 3 2 -2 27 -36 29 -43 3 -6 -24 -29 -21 -27 4 2 19 -2 21 -12 5z"/>
<path d="M571 6093 c-2 -32 20 -40 37 -15 17 27 29 28 35 5 4 -14 5 -12 6 5 1
28 -24 29 -41 2 -17 -26 -26 -25 -31 3 -4 22 -4 22 -6 0z"/>
<path d="M1478 6103 c12 -2 22 -9 22 -14 0 -16 -32 -23 -51 -10 -11 6 -19 7
-19 1 0 -18 51 -24 67 -7 19 19 9 37 -20 36 -22 -2 -22 -2 1 -6z"/>
<path d="M1663 6103 c9 -2 17 -11 17 -18 0 -7 -8 -15 -17 -18 -10 -2 0 -4 22
-4 22 0 32 2 22 5 -10 2 -16 10 -13 17 5 13 -15 26 -37 24 -7 -1 -4 -3 6 -6z"/>
<path d="M1853 6080 c0 -16 1 -18 4 -7 3 11 11 16 19 13 8 -3 14 -1 14 4 0 6
10 10 21 10 17 0 20 -5 16 -21 -4 -16 -3 -19 5 -11 21 21 1 41 -39 39 -34 -1
-39 -4 -40 -27z"/>
<path d="M785 6070 c-3 -6 1 -7 9 -4 18 7 21 14 7 14 -6 0 -13 -4 -16 -10z"/>
<path d="M1006 6072 c-2 -4 14 -8 37 -10 47 -3 47 2 0 11 -18 4 -34 3 -37 -1z"/>
<path d="M828 6063 c6 -2 18 -2 25 0 6 3 1 5 -13 5 -14 0 -19 -2 -12 -5z"/>
<path d="M1238 6063 c12 -2 30 -2 40 0 9 3 -1 5 -23 4 -22 0 -30 -2 -17 -4z"/>
<path d="M4492 6755 c0 -16 2 -22 5 -12 2 9 2 23 0 30 -3 6 -5 -1 -5 -18z"/>
<path d="M4700 6768 c0 -7 5 -20 10 -28 9 -13 10 -13 10 0 0 12 2 12 9 2 6
-10 10 -8 14 9 4 13 4 25 2 28 -3 2 -5 -1 -5 -8 0 -9 -5 -9 -20 -1 -15 8 -20
8 -20 -2z"/>
<path d="M4837 6773 c-4 -3 -7 -11 -7 -17 0 -6 5 -5 12 2 6 6 9 14 7 17 -3 3
-9 2 -12 -2z"/>
<path d="M4520 6738 c0 -4 9 -8 20 -8 11 0 20 4 20 8 0 4 -9 8 -20 8 -11 0
-20 -4 -20 -8z"/>
<path d="M4770 6739 c0 -5 5 -7 10 -4 6 3 10 8 10 11 0 2 -4 4 -10 4 -5 0 -10
-5 -10 -11z"/>
<path d="M6550 6736 c0 -8 51 -13 56 -5 3 5 -9 9 -25 9 -17 0 -31 -2 -31 -4z"/>
<path d="M6660 6736 c0 -9 40 -13 46 -5 3 5 -6 9 -20 9 -14 0 -26 -2 -26 -4z"/>
<path d="M4648 6723 c12 -2 30 -2 40 0 9 3 -1 5 -23 4 -22 0 -30 -2 -17 -4z"/>
<path d="M5233 6723 c9 -2 25 -2 35 0 9 3 1 5 -18 5 -19 0 -27 -2 -17 -5z"/>
<path d="M6487 6707 c-3 -7 -1 -20 4 -28 6 -10 9 -10 9 -1 0 6 8 12 18 13 13
0 14 2 2 6 -8 3 -18 10 -21 15 -3 5 -9 3 -12 -5z"/>
<path d="M6576 6711 c-4 -6 0 -11 8 -11 28 0 17 -28 -11 -33 l-28 -4 28 -2
c17 0 30 5 34 15 7 19 -21 51 -31 35z"/>
<path d="M6676 6711 c-4 -6 0 -11 8 -11 25 0 19 -28 -6 -33 l-23 -4 23 -2 c12
0 25 6 29 15 7 19 -21 51 -31 35z"/>
<path d="M6756 6703 c-6 -15 -9 -15 -17 -3 -9 12 -10 12 -5 -3 3 -10 6 -24 6
-30 1 -7 8 1 16 16 9 16 14 31 11 33 -2 3 -8 -3 -11 -13z"/>
<path d="M4733 6663 c9 -2 17 -11 17 -20 0 -9 -6 -13 -15 -9 -8 3 -15 1 -15
-3 0 -16 31 -21 36 -6 9 23 -3 45 -23 44 -17 -1 -17 -2 0 -6z"/>
<path d="M4971 6632 c-1 -39 1 -43 21 -40 30 4 37 38 9 45 -11 3 -22 12 -24
22 -3 9 -5 -3 -6 -27z m37 -14 c-6 -18 -28 -21 -28 -4 0 9 7 16 16 16 9 0 14
-5 12 -12z"/>
<path d="M5313 6663 c9 -2 17 -11 17 -20 0 -9 -6 -13 -15 -9 -8 3 -15 1 -15
-4 0 -6 9 -10 20 -10 15 0 20 7 20 25 0 20 -5 25 -22 24 -17 -1 -19 -2 -5 -6z"/>
<path d="M5365 6660 c-3 -5 -1 -10 4 -10 6 0 11 5 11 10 0 6 -2 10 -4 10 -3 0
-8 -4 -11 -10z"/>
<path d="M4798 6630 c25 -11 30 -30 6 -30 -8 0 -12 5 -9 10 3 6 1 10 -4 10 -6
0 -11 -7 -11 -15 0 -9 9 -15 25 -15 20 0 25 5 25 25 0 21 -5 25 -27 24 -27 0
-27 -1 -5 -9z"/>
<path d="M4850 6630 c0 -6 8 -14 17 -17 15 -6 15 -7 -3 -14 -17 -7 -17 -8 4
-8 25 -1 30 17 6 26 -13 5 -13 7 -2 14 10 7 9 9 -4 9 -10 0 -18 -5 -18 -10z"/>
<path d="M4923 6633 c21 -5 23 -33 2 -33 -8 0 -15 -7 -15 -15 0 -12 3 -12 20
2 28 24 26 53 -2 52 -17 -1 -19 -2 -5 -6z"/>
<path d="M5030 6615 c0 -20 5 -25 23 -24 16 1 18 2 5 6 -10 2 -18 11 -18 19 0
11 6 13 20 9 11 -4 20 -2 20 4 0 6 -11 11 -25 11 -20 0 -25 -5 -25 -25z"/>
<path d="M5100 6629 c0 -5 5 -7 10 -4 6 3 10 8 10 11 0 2 -4 4 -10 4 -5 0 -10
-5 -10 -11z"/>
<path d="M5141 6613 c1 -22 2 -23 6 -8 3 11 10 23 17 27 7 5 5 8 -6 8 -13 0
-18 -7 -17 -27z"/>
<path d="M5190 6615 c8 -22 8 -30 -2 -37 -9 -5 -10 -8 -1 -8 15 0 19 7 26 45
4 17 4 24 1 17 -5 -10 -9 -10 -20 -1 -13 10 -13 8 -4 -16z"/>
<path d="M5372 6615 c0 -16 2 -22 5 -12 2 9 2 23 0 30 -3 6 -5 -1 -5 -18z"/>
<path d="M6603 6533 c-30 -43 -37 -62 -11 -28 l23 30 5 -65 6 -65 4 69 c6 82
-1 97 -27 59z"/>
<path d="M7408 6523 c7 -3 16 -2 19 1 4 3 -2 6 -13 5 -11 0 -14 -3 -6 -6z"/>
<path d="M6640 6511 c0 -5 5 -13 10 -16 6 -3 10 -2 10 4 0 5 -4 13 -10 16 -5
3 -10 2 -10 -4z"/>
<path d="M7331 6498 c0 -10 -6 -18 -11 -18 -6 0 -5 -6 2 -14 7 -8 15 -10 18
-6 3 4 12 10 20 13 12 4 12 6 -2 6 -9 1 -19 9 -21 19 -4 16 -5 16 -6 0z"/>
<path d="M2142 6453 l1 -48 4 43 c4 45 24 56 42 25 9 -16 10 -16 11 -2 0 17
-19 29 -46 29 -10 0 -14 -12 -12 -47z"/>
<path d="M2232 6484 c-7 -8 -8 -14 -2 -14 5 0 10 -13 10 -30 0 -16 4 -30 8
-30 4 0 6 17 4 38 -5 51 -5 52 -20 36z"/>
<path d="M3897 6493 c-4 -3 -7 -118 -7 -255 l0 -249 -136 2 c-75 0 -140 -3
-144 -7 -5 -5 55 -8 135 -6 l145 4 0 -66 0 -65 -47 -4 -48 -3 48 -2 47 -2 0
-141 0 -141 -143 4 c-91 2 -144 -1 -144 -7 0 -6 53 -9 144 -7 l143 4 0 -67 0
-66 -136 2 c-75 0 -140 -3 -144 -7 -5 -5 55 -8 135 -6 l145 4 0 -66 0 -65 -57
-4 -58 -3 58 -2 57 -2 0 -70 0 -69 -137 -4 -138 -3 138 -2 137 -2 0 -65 0 -65
-59 0 c-54 0 -59 2 -54 20 3 13 -1 22 -12 26 -13 6 -14 9 -3 16 10 8 10 9 -2
5 -8 -2 -16 -16 -17 -33 -1 -16 1 -21 3 -11 6 17 24 24 24 8 0 -30 -38 -31
-1381 -34 l-1354 -2 1428 -3 1427 -2 0 -65 0 -64 -137 -4 -138 -3 137 -2 137
-2 0 -140 0 -140 -44 0 c-45 0 -45 0 -45 36 0 28 -3 35 -17 32 -13 -3 -18 -13
-17 -35 1 -23 -2 -30 -12 -26 -8 3 -14 18 -14 34 0 29 -13 38 -25 19 -3 -5 -1
-10 4 -10 9 0 16 -35 9 -42 -2 -2 -352 -5 -778 -8 l-775 -5 858 -3 857 -2 0
-71 0 -71 -143 4 c-91 2 -144 -1 -144 -7 0 -6 53 -9 144 -7 l143 4 0 -66 0
-66 -817 -3 -818 -2 818 -3 817 -2 0 -64 0 -65 -47 -4 -48 -3 48 -2 47 -2 0
-70 0 -69 -137 -4 -138 -3 138 -2 137 -2 0 -66 0 -66 -143 4 c-91 2 -144 -1
-144 -7 0 -6 53 -9 144 -7 l143 4 0 -66 0 -65 -137 -4 -138 -3 138 -2 137 -2
0 -70 0 -69 -132 -4 -133 -3 133 -2 132 -2 0 -65 0 -65 -425 0 -425 0 0 -285
0 -285 -212 -3 -213 -2 213 -3 212 -2 0 -65 0 -64 -107 -4 -108 -3 107 -2 108
-2 3 -927 2 -928 3 928 2 927 274 0 c240 0 275 -2 280 -16 10 -27 7 -99 -6
-112 -9 -9 -9 -15 0 -24 15 -15 16 -92 2 -118 -7 -13 -7 -21 0 -25 13 -8 13
-95 0 -115 -5 -9 -5 -19 2 -27 6 -7 8 -35 4 -65 -7 -65 -7 -61 0 -126 4 -30 2
-58 -4 -65 -7 -8 -7 -18 -2 -27 6 -8 10 -88 10 -177 l0 -163 -35 0 c-19 0 -35
-4 -35 -8 0 -5 27 -6 60 -4 33 2 60 1 60 -4 0 -4 -10 -18 -22 -31 l-22 -23
-28 27 c-15 15 -28 22 -28 16 0 -7 12 -21 28 -31 l27 -20 38 34 c20 19 37 36
37 39 0 3 -16 5 -35 5 l-35 0 0 161 c0 126 3 164 14 175 11 11 44 14 135 14
l121 0 2 -182 3 -183 1148 -3 1147 -2 0 895 0 895 150 0 c83 0 150 3 150 8 0
4 -67 5 -150 4 l-149 -4 0 142 0 142 149 -4 c83 -1 150 0 150 5 0 4 -67 7
-150 7 l-150 0 0 65 0 65 285 0 285 0 3 -1282 2 -1283 3 1282 2 1282 33 4 32
4 -32 1 -33 2 0 210 0 210 318 3 317 2 -317 3 -318 2 0 65 0 65 248 3 247 2
-247 3 -248 2 0 70 0 70 175 0 175 0 0 430 0 430 675 0 675 0 0 -105 0 -105
-607 -3 -608 -2 608 -3 607 -2 0 -100 0 -100 -537 -3 -538 -2 538 -3 537 -2 0
-105 0 -105 -427 -3 -428 -2 428 -3 427 -2 0 -100 0 -100 -357 -3 -358 -2 358
-3 357 -2 0 -105 0 -104 -67 -4 -68 -3 68 -2 67 -2 0 -210 0 -210 400 0 400 0
0 930 0 930 -400 0 -400 0 0 -70 0 -69 -72 -4 -73 -3 73 -2 72 -2 0 -100 0
-100 -677 -2 -678 -3 -3 -427 -2 -428 -170 0 -170 0 0 628 c0 448 3 631 11
639 15 15 3 33 -22 33 -12 0 -19 -7 -19 -20 0 -11 5 -20 10 -20 7 0 10 -217
10 -630 l0 -630 -187 1 c-104 0 -196 4 -206 8 -17 6 -17 8 -3 20 23 20 20 41
-6 40 -17 -1 -19 -2 -5 -6 23 -6 22 -15 -6 -41 -24 -23 -53 -17 -37 8 16 25
11 40 -12 39 -17 -1 -19 -2 -5 -6 21 -6 21 -8 1 -38 -13 -20 -25 -25 -60 -25
l-43 0 -1 496 0 495 150 -3 c95 -2 150 1 150 7 0 6 -55 9 -150 7 l-150 -3 0
65 0 66 148 2 147 2 -145 6 -145 5 0 65 0 65 45 3 c25 2 48 6 52 10 4 4 -17 5
-47 4 l-55 -4 0 66 0 65 148 4 147 3 -147 2 -148 2 0 255 0 255 -1143 0 c-629
0 -1147 -3 -1150 -7z m2273 -2438 l0 -2420 -1130 -3 -1130 -2 0 2418 c0 1330
3 2422 7 2425 3 4 512 6 1130 5 l1123 -3 0 -2420z m3090 785 l0 -920 -390 0
-390 0 0 920 0 920 390 0 390 0 0 -920z m-5470 -242 c0 -16 -3 -19 -11 -11 -6
6 -8 16 -5 22 11 17 16 13 16 -11z m2970 -118 l0 -70 -285 0 -285 0 0 70 0 70
285 0 285 0 0 -70z m0 -145 l0 -65 -285 0 -285 0 0 65 0 65 285 0 285 0 0 -65z
m0 -285 l0 -210 -285 0 -285 0 0 65 0 65 148 2 147 2 -147 3 -147 4 0 139 0
140 284 0 285 0 0 -210z m-2870 -860 l0 -210 -125 0 c-77 0 -125 4 -125 10 0
13 -37 13 -46 -1 -3 -6 -1 -16 5 -22 12 -12 15 -85 5 -111 -5 -14 -40 -16
-280 -16 l-274 0 0 280 0 280 420 0 420 0 0 -210z m0 -285 l0 -65 -121 0 c-91
0 -124 3 -135 14 -18 18 -19 102 -1 109 6 3 67 6 135 6 l122 1 0 -65z m-282
-119 c2 -22 1 -50 -2 -63 l-6 -23 -275 0 -275 0 0 65 0 65 278 -2 277 -3 3
-39z m282 -21 l0 -65 -123 0 c-82 0 -127 4 -135 12 -16 16 -16 90 0 106 8 8
53 12 135 12 l123 0 0 -65z m0 -140 l0 -65 -119 0 c-66 0 -126 3 -135 6 -19 7
-22 94 -4 112 8 8 53 12 135 12 l123 0 0 -65z m0 -145 l0 -70 -121 0 c-138 0
-149 5 -149 70 0 65 8 69 148 70 l122 0 0 -70z m0 -145 l0 -65 -121 0 c-91 0
-124 3 -135 14 -18 18 -19 102 -1 109 6 3 67 6 135 6 l122 1 0 -65z m0 -140
l0 -65 -123 0 c-82 0 -127 4 -135 12 -16 16 -16 90 0 106 8 8 53 12 135 12
l123 0 0 -65z m0 -140 l0 -65 -119 0 c-66 0 -126 3 -135 6 -20 8 -22 88 -3
109 9 11 42 14 135 15 l122 0 0 -65z"/>
<path d="M3995 6004 c23 -23 19 -47 -6 -41 -16 4 -19 3 -11 -5 6 -6 18 -8 26
-5 22 9 16 63 -7 64 -15 2 -16 0 -2 -13z"/>
<path d="M4036 6000 c13 -49 21 -54 32 -21 6 17 18 31 27 31 9 0 13 -4 10 -10
-3 -5 -1 -10 4 -10 6 0 11 7 11 15 0 25 -47 19 -56 -7 l-6 -21 -15 24 -14 24
7 -25z"/>
<path d="M4187 6013 c-4 -3 -7 -17 -7 -29 0 -17 -7 -24 -27 -27 -16 -2 -5 -4
22 -4 28 -1 42 1 33 4 -21 5 -23 19 -5 26 10 4 10 6 0 6 -19 1 -16 19 5 24 14
4 14 5 1 6 -9 0 -19 -2 -22 -6z"/>
<path d="M4231 5985 c1 -27 3 -32 6 -16 l5 25 19 -25 19 -24 -1 35 c0 26 -2
30 -8 16 -7 -18 -8 -18 -24 5 l-17 23 1 -39z"/>
<path d="M5957 6013 c-4 -3 -7 -19 -7 -35 0 -21 5 -28 19 -28 27 0 33 13 21
44 -9 26 -21 32 -33 19z m23 -13 c0 -5 -4 -10 -10 -10 -5 0 -10 5 -10 10 0 6
5 10 10 10 6 0 10 -4 10 -10z m5 -30 c-3 -5 -10 -10 -16 -10 -5 0 -9 5 -9 10
0 6 7 10 16 10 8 0 12 -4 9 -10z"/>
<path d="M6088 6013 c7 -3 16 -2 19 1 4 3 -2 6 -13 5 -11 0 -14 -3 -6 -6z"/>
<path d="M6014 5980 c1 -24 36 -44 36 -21 0 6 -6 8 -14 5 -10 -4 -16 3 -19 18
-4 22 -4 21 -3 -2z"/>
<path d="M5907 5982 c1 -8 3 -18 3 -23 0 -6 5 -7 10 -4 6 3 10 13 10 21 0 8
-4 13 -9 10 -5 -4 -11 -3 -14 1 -2 5 -2 2 0 -5z"/>
<path d="M6070 5990 c0 -5 7 -10 15 -10 20 0 19 -17 0 -23 -12 -4 -11 -5 1 -3
26 2 28 23 5 36 -14 7 -21 7 -21 0z"/>
<path d="M4088 5953 c6 -2 18 -2 25 0 6 3 1 5 -13 5 -14 0 -19 -2 -12 -5z"/>
<path d="M3980 5840 l0 -31 21 20 c12 11 19 25 16 33 -4 9 -6 7 -6 -4 -1 -10
-6 -18 -12 -18 -6 0 -9 7 -5 15 3 8 1 15 -4 15 -6 0 -10 -14 -10 -30z"/>
<path d="M4041 5843 c-1 -27 3 -33 19 -33 16 0 20 6 19 33 -2 30 -2 30 -6 5
-2 -16 -8 -28 -13 -28 -5 0 -11 12 -13 28 -4 25 -4 25 -6 -5z"/>
<path d="M4102 5840 c0 -19 2 -27 5 -17 2 9 2 25 0 35 -3 9 -5 1 -5 -18z"/>
<path d="M5921 5840 c11 -31 29 -32 29 -2 0 15 -2 15 -10 2 -8 -13 -10 -13
-10 2 0 9 -4 19 -10 23 -5 3 -5 -7 1 -25z"/>
<path d="M5956 5858 c3 -5 10 -6 15 -3 13 9 11 12 -6 12 -8 0 -12 -4 -9 -9z"/>
<path d="M6033 5841 c8 -23 13 -28 15 -16 2 10 -3 25 -12 33 -14 15 -15 13 -3
-17z"/>
<path d="M6066 5856 c3 -8 13 -18 22 -21 15 -6 15 -8 -3 -16 -19 -8 -19 -9 -1
-6 28 3 29 20 1 40 -19 13 -23 14 -19 3z"/>
<path d="M4126 5825 c4 -8 8 -15 10 -15 2 0 4 7 4 15 0 8 -4 15 -10 15 -5 0
-7 -7 -4 -15z"/>
<path d="M5980 5820 c-23 -7 -23 -8 -3 -9 12 -1 25 4 28 9 3 6 5 10 3 9 -2 -1
-14 -5 -28 -9z"/>
<path d="M5763 5723 c9 -2 15 -9 12 -14 -4 -5 -2 -9 4 -9 5 0 12 -8 14 -17 3
-10 5 -3 4 15 -1 28 -5 32 -27 31 -17 -1 -19 -3 -7 -6z"/>
<path d="M5862 5723 c9 -2 21 -16 26 -31 10 -27 10 -27 9 5 -2 28 -6 33 -27
32 -16 -1 -19 -3 -8 -6z"/>
<path d="M5964 5716 c-3 -8 -4 -23 -1 -33 3 -12 5 -8 6 10 1 33 28 37 34 5 5
-20 5 -20 4 2 -2 28 -34 40 -43 16z"/>
<path d="M6020 5700 c0 -16 4 -30 8 -30 5 0 7 14 4 30 -2 17 -6 30 -8 30 -2 0
-4 -13 -4 -30z"/>
<path d="M6088 5700 c2 -16 5 -30 7 -30 2 0 5 14 7 30 3 19 0 30 -7 30 -7 0
-10 -11 -7 -30z"/>
<path d="M5840 5701 c0 -7 -4 -9 -10 -6 -5 3 -10 2 -10 -4 0 -5 4 -12 9 -15
10 -6 25 24 16 32 -3 3 -5 0 -5 -7z"/>
<path d="M3984 5576 c-9 -24 0 -51 19 -54 12 -2 17 3 17 17 0 12 -4 21 -10 21
-5 0 -7 -7 -4 -15 4 -8 1 -15 -5 -15 -19 0 -13 48 7 53 16 4 16 5 -1 6 -10 0
-20 -5 -23 -13z"/>
<path d="M4041 5553 c1 -21 3 -30 6 -20 2 9 11 17 19 17 8 0 14 9 14 20 0 13
-7 20 -20 20 -17 0 -20 -6 -19 -37z m29 17 c0 -5 -4 -10 -10 -10 -5 0 -10 5
-10 10 0 6 5 10 10 10 6 0 10 -4 10 -10z"/>
<path d="M4100 5555 c0 -35 12 -46 26 -23 4 7 3 8 -4 4 -8 -5 -12 2 -12 19 0
17 4 24 12 19 7 -4 8 -3 4 4 -14 23 -26 12 -26 -23z"/>
<path d="M5721 5583 c-1 -6 -4 -18 -7 -27 -4 -11 -1 -16 10 -16 9 0 16 -5 16
-12 0 -6 2 -9 6 -6 3 3 -2 21 -10 39 -8 19 -15 29 -15 22z"/>
<path d="M5760 5555 c0 -29 3 -36 18 -33 11 2 17 13 17 33 0 20 -6 31 -17 33
-15 3 -18 -4 -18 -33z m30 0 c0 -14 -4 -25 -10 -25 -5 0 -10 11 -10 25 0 14 5
25 10 25 6 0 10 -11 10 -25z"/>
<path d="M5824 5576 c-8 -22 -1 -49 14 -52 7 -1 8 0 2 3 -14 7 -13 50 3 56 9
4 9 6 -1 6 -7 1 -15 -5 -18 -13z"/>
<path d="M5971 5553 c1 -21 3 -30 6 -20 4 17 6 17 16 3 10 -14 12 -10 14 19 3
29 0 35 -17 35 -17 0 -20 -6 -19 -37z m29 17 c0 -5 -4 -10 -10 -10 -5 0 -10 5
-10 10 0 6 5 10 10 10 6 0 10 -4 10 -10z"/>
<path d="M6030 5555 c0 -27 4 -35 18 -35 10 0 13 3 6 8 -6 4 -11 16 -11 27 0
11 5 23 11 27 7 5 4 8 -6 8 -14 0 -18 -8 -18 -35z"/>
<path d="M6088 5583 c7 -3 16 -2 19 1 4 3 -2 6 -13 5 -11 0 -14 -3 -6 -6z"/>
<path d="M5927 5552 c1 -8 3 -19 3 -25 0 -7 4 -6 10 3 12 19 13 33 1 26 -5 -4
-11 -3 -14 1 -2 5 -2 2 0 -5z"/>
<path d="M5878 5513 c6 -2 18 -2 25 0 6 3 1 5 -13 5 -14 0 -19 -2 -12 -5z"/>
<path d="M4047 5444 c-4 -4 -6 -21 -6 -38 1 -17 3 -23 6 -13 2 9 11 17 19 17
9 0 14 7 12 17 -3 18 -20 27 -31 17z m23 -14 c0 -5 -4 -10 -10 -10 -5 0 -10 5
-10 10 0 6 5 10 10 10 6 0 10 -4 10 -10z"/>
<path d="M4104 5410 c1 -16 7 -30 13 -30 9 0 10 7 3 24 -5 13 -6 27 -3 30 4 3
2 6 -4 6 -6 0 -10 -13 -9 -30z"/>
<path d="M3984 5405 c1 -28 36 -33 36 -6 0 12 -4 21 -10 21 -5 0 -7 -7 -4 -15
4 -8 1 -15 -4 -15 -6 0 -12 8 -15 18 -3 13 -4 12 -3 -3z"/>
<path d="M3984 5285 c-4 -8 -4 -22 0 -30 8 -21 36 -19 35 3 0 10 -3 12 -6 5
-7 -20 -23 -15 -23 6 0 11 8 22 18 24 16 4 16 5 -1 6 -10 0 -20 -6 -23 -14z"/>
<path d="M4042 5270 c0 -19 2 -27 5 -17 2 9 2 25 0 35 -3 9 -5 1 -5 -18z"/>
<path d="M4066 5285 c4 -8 8 -15 10 -15 2 0 4 7 4 15 0 8 -4 15 -10 15 -5 0
-7 -7 -4 -15z"/>
<path d="M4108 5293 c7 -3 16 -2 19 1 4 3 -2 6 -13 5 -11 0 -14 -3 -6 -6z"/>
<path d="M4098 5243 c6 -2 18 -2 25 0 6 3 1 5 -13 5 -14 0 -19 -2 -12 -5z"/>
<path d="M3984 5145 c-3 -8 -4 -20 -1 -27 3 -7 6 -3 6 9 1 12 9 24 19 26 16 4
16 5 -1 6 -10 0 -20 -6 -23 -14z"/>
<path d="M4040 5130 c0 -29 1 -29 20 -13 11 10 20 23 20 30 0 7 -9 13 -20 13
-16 0 -20 -7 -20 -30z m30 10 c0 -5 -4 -10 -10 -10 -5 0 -10 5 -10 10 0 6 5
10 10 10 6 0 10 -4 10 -10z"/>
<path d="M4103 5153 c9 -2 15 -8 12 -13 -3 -5 -2 -11 3 -14 4 -2 9 4 9 15 1
14 -4 19 -20 18 -17 -1 -18 -2 -4 -6z"/>
<path d="M4011 5114 c0 -11 3 -14 6 -6 3 7 2 16 -1 19 -3 4 -6 -2 -5 -13z"/>
<path d="M3984 5006 c-3 -8 -4 -23 -2 -33 4 -23 38 -30 38 -9 0 9 -5 16 -11
16 -5 0 -7 -4 -4 -10 3 -5 1 -10 -4 -10 -19 0 -12 48 7 53 16 4 16 5 -1 6 -10
0 -20 -5 -23 -13z"/>
<path d="M4041 4983 c1 -21 3 -30 6 -20 2 9 11 17 19 17 8 0 14 9 14 20 0 13
-7 20 -20 20 -17 0 -20 -6 -19 -37z m29 17 c0 -5 -4 -10 -10 -10 -5 0 -10 5
-10 10 0 6 5 10 10 10 6 0 10 -4 10 -10z"/>
<path d="M4108 4973 c7 -3 16 -2 19 1 4 3 -2 6 -13 5 -11 0 -14 -3 -6 -6z"/>
<path d="M4041 4840 c1 -19 3 -27 6 -17 2 9 11 17 19 17 8 0 14 8 14 18 0 14
-2 15 -10 2 -9 -13 -11 -13 -20 0 -7 11 -9 6 -9 -20z"/>
<path d="M4100 4857 c0 -8 7 -14 15 -14 11 0 12 4 4 14 -6 7 -13 13 -15 13 -2
0 -4 -6 -4 -13z"/>
<path d="M3984 4835 c1 -24 36 -34 36 -11 0 9 -5 16 -11 16 -5 0 -7 -4 -4 -10
3 -5 2 -10 -4 -10 -5 0 -11 8 -14 18 -3 13 -4 12 -3 -3z"/>
<path d="M4108 4813 c7 -3 16 -2 19 1 4 3 -2 6 -13 5 -11 0 -14 -3 -6 -6z"/>
<path d="M3987 4723 c-10 -9 -9 -41 2 -47 4 -3 6 5 4 18 -4 17 0 25 14 29 13
3 14 5 2 6 -9 0 -19 -2 -22 -6z"/>
<path d="M4042 4700 c0 -19 2 -27 5 -17 2 9 2 25 0 35 -3 9 -5 1 -5 -18z"/>
<path d="M4066 4715 c4 -8 8 -15 10 -15 2 0 4 7 4 15 0 8 -4 15 -10 15 -5 0
-7 -7 -4 -15z"/>
<path d="M4107 4723 c-4 -3 -7 -18 -6 -32 0 -16 3 -20 6 -11 3 8 11 18 17 22
7 5 7 8 -2 8 -7 0 -10 5 -7 10 7 11 2 13 -8 3z"/>
<path d="M5907 4723 c-10 -9 -9 -41 2 -47 4 -3 6 5 4 18 -4 17 0 25 14 29 13
3 14 5 2 6 -9 0 -19 -2 -22 -6z"/>
<path d="M5961 4698 c2 -31 2 -31 6 -5 5 28 18 36 26 15 3 -8 6 -6 6 5 1 11
-6 17 -19 17 -16 0 -20 -6 -19 -32z"/>
<path d="M6029 4728 c-7 -14 -2 -58 6 -58 7 0 10 12 7 30 -4 26 -9 36 -13 28z"/>
<path d="M6070 4701 c0 -6 7 -8 15 -5 8 4 15 1 15 -4 0 -6 -7 -13 -15 -15 -11
-4 -10 -4 2 -3 23 2 23 30 1 34 -10 2 -18 -1 -18 -7z"/>
<path d="M3984 4575 c-3 -8 -4 -20 -1 -27 3 -7 6 -3 6 9 1 12 9 24 19 26 16 4
16 5 -1 6 -10 0 -20 -6 -23 -14z"/>
<path d="M4041 4553 c1 -21 3 -30 6 -20 2 9 11 17 19 17 8 0 14 9 14 20 0 13
-7 20 -20 20 -17 0 -20 -6 -19 -37z m29 17 c0 -5 -4 -10 -10 -10 -5 0 -10 5
-10 10 0 6 5 10 10 10 6 0 10 -4 10 -10z"/>
<path d="M4098 4583 c6 -2 18 -2 25 0 6 3 1 5 -13 5 -14 0 -19 -2 -12 -5z"/>
<path d="M5904 4575 c-3 -8 -4 -20 -1 -27 3 -7 6 -3 6 9 1 12 9 24 19 26 16 4
16 5 -1 6 -10 0 -20 -6 -23 -14z"/>
<path d="M5961 4553 c1 -21 3 -30 6 -20 2 9 11 17 19 17 8 0 14 9 14 20 0 13
-7 20 -20 20 -17 0 -20 -6 -19 -37z m29 17 c0 -5 -4 -10 -10 -10 -5 0 -10 5
-10 10 0 6 5 10 10 10 6 0 10 -4 10 -10z"/>
<path d="M6029 4583 c-4 -43 -3 -60 6 -60 6 0 9 14 7 34 -4 30 -11 44 -13 26z"/>
<path d="M6078 4583 c6 -2 18 -2 25 0 6 3 1 5 -13 5 -14 0 -19 -2 -12 -5z"/>
<path d="M5926 4533 c-6 -14 -5 -15 5 -6 7 7 10 15 7 18 -3 3 -9 -2 -12 -12z"/>
<path d="M3990 4435 c-6 -8 -10 -22 -8 -32 4 -23 38 -30 38 -9 0 9 -5 16 -11
16 -5 0 -7 -4 -4 -10 3 -5 1 -10 -5 -10 -6 0 -10 10 -8 23 2 12 9 21 16 19 8
-1 11 2 7 8 -8 13 -10 13 -25 -5z"/>
<path d="M4041 4413 c1 -21 3 -30 6 -20 2 9 11 17 19 17 21 0 13 34 -9 38 -14
3 -17 -4 -16 -35z m29 17 c0 -5 -4 -10 -10 -10 -5 0 -10 5 -10 10 0 6 5 10 10
10 6 0 10 -4 10 -10z"/>
<path d="M4107 4443 c-4 -3 -7 -19 -7 -35 0 -20 5 -28 18 -28 14 0 15 2 2 10
-13 9 -13 11 0 20 10 6 11 10 3 10 -7 0 -13 5 -13 11 0 5 5 7 12 3 7 -4 8 -3
4 4 -8 14 -10 14 -19 5z"/>
<path d="M5910 4435 c-6 -8 -10 -22 -8 -32 4 -23 38 -30 38 -9 0 9 -5 16 -11
16 -5 0 -7 -4 -4 -10 3 -5 1 -10 -5 -10 -6 0 -10 10 -8 23 2 12 9 21 16 19 8
-1 11 2 7 8 -8 13 -10 13 -25 -5z"/>
<path d="M5961 4413 c1 -21 3 -30 6 -20 2 9 11 17 19 17 21 0 13 34 -9 38 -14
3 -17 -4 -16 -35z m29 17 c0 -5 -4 -10 -10 -10 -5 0 -10 5 -10 10 0 6 5 10 10
10 6 0 10 -4 10 -10z"/>
<path d="M6029 4443 c-5 -45 -3 -63 6 -63 7 0 9 14 7 35 -4 32 -11 47 -13 28z"/>
<path d="M6074 4439 c-4 -7 1 -18 12 -26 16 -12 17 -15 4 -24 -13 -9 -13 -10
0 -6 9 2 15 15 15 32 0 30 -18 44 -31 24z m26 -9 c0 -5 -4 -10 -10 -10 -5 0
-10 5 -10 10 0 6 5 10 10 10 6 0 10 -4 10 -10z"/>
<path d="M3984 4285 c-9 -21 3 -45 21 -45 8 0 15 7 15 15 0 8 -5 15 -11 15 -5
0 -7 -4 -4 -10 3 -5 1 -10 -4 -10 -18 0 -12 38 7 43 16 4 16 5 -1 6 -10 0 -20
-6 -23 -14z"/>
<path d="M4041 4270 c1 -19 3 -27 6 -17 2 9 11 17 19 17 8 0 14 5 14 11 0 5
-5 7 -11 3 -6 -3 -15 0 -20 7 -6 9 -8 3 -8 -21z"/>
<path d="M4100 4280 c0 -12 7 -20 18 -20 14 0 15 2 2 10 -13 9 -13 11 0 20 13
8 12 10 -2 10 -11 0 -18 -8 -18 -20z"/>
<path d="M5904 4285 c-4 -8 -4 -22 0 -30 8 -21 36 -19 35 3 0 10 -3 12 -6 5
-7 -20 -23 -15 -23 6 0 11 8 22 18 24 16 4 16 5 -1 6 -10 0 -20 -6 -23 -14z"/>
<path d="M5961 4270 c1 -19 3 -27 6 -17 2 9 11 17 19 17 8 0 14 8 14 18 0 14
-2 15 -10 2 -9 -13 -11 -13 -20 0 -7 11 -9 6 -9 -20z"/>
<path d="M6029 4298 c-6 -20 -2 -58 6 -58 7 0 10 12 7 30 -4 25 -9 38 -13 28z"/>
<path d="M6071 4288 c0 -9 4 -20 9 -23 6 -4 8 -11 5 -16 -4 -5 -2 -9 3 -9 11
0 22 24 22 46 0 8 -4 14 -10 14 -5 0 -7 -7 -4 -15 4 -8 1 -15 -4 -15 -6 0 -13
8 -15 18 -4 15 -5 15 -6 0z"/>
<path d="M4108 4243 c7 -3 16 -2 19 1 4 3 -2 6 -13 5 -11 0 -14 -3 -6 -6z"/>
<path d="M3993 4153 c-15 -6 -17 -39 -3 -48 6 -3 7 1 4 10 -4 8 -1 22 6 30 13
16 13 16 -7 8z"/>
<path d="M4041 4128 c2 -30 2 -31 6 -5 4 27 17 36 26 17 3 -6 4 -5 3 2 -1 7
-10 14 -19 16 -13 3 -17 -4 -16 -30z"/>
<path d="M4109 4158 c-6 -11 -3 -58 3 -58 4 0 8 14 8 30 0 25 -6 38 -11 28z"/>
<path d="M4168 4148 c17 -17 15 -41 -3 -34 -8 3 -15 1 -15 -4 0 -13 27 -13 35
0 9 14 -4 50 -18 50 -8 0 -8 -3 1 -12z"/>
<path d="M5913 4153 c-15 -6 -17 -39 -3 -48 6 -3 7 1 4 10 -4 8 -1 22 6 30 13
16 13 16 -7 8z"/>
<path d="M5961 4128 c2 -30 2 -31 6 -5 4 27 17 36 26 17 3 -6 4 -5 3 2 -1 7
-10 14 -19 16 -13 3 -17 -4 -16 -30z"/>
<path d="M6020 4156 c0 -2 7 -6 15 -10 8 -3 15 -1 15 4 0 6 -7 10 -15 10 -8 0
-15 -2 -15 -4z"/>
<path d="M6085 4150 c3 -5 8 -10 11 -10 2 0 4 5 4 10 0 6 -5 10 -11 10 -5 0
-7 -4 -4 -10z"/>
<path d="M6100 4121 c0 -8 -7 -11 -17 -6 -15 5 -16 4 -5 -6 9 -10 15 -10 24
-1 6 6 9 15 5 19 -4 3 -7 1 -7 -6z"/>
<path d="M6018 4103 c7 -3 16 -2 19 1 4 3 -2 6 -13 5 -11 0 -14 -3 -6 -6z"/>
<path d="M3992 4011 c-8 -4 -12 -19 -10 -32 4 -29 38 -40 37 -12 0 10 -3 13
-6 6 -8 -22 -25 -14 -21 10 2 12 9 21 16 19 8 -1 11 2 7 8 -7 12 -7 12 -23 1z"/>
<path d="M4040 3985 l0 -36 21 20 c23 21 20 51 -6 51 -11 0 -15 -10 -15 -35z
m30 10 c0 -8 -4 -15 -10 -15 -5 0 -10 7 -10 15 0 8 5 15 10 15 6 0 10 -7 10
-15z"/>
<path d="M4109 4013 c-5 -44 -3 -60 7 -60 8 0 10 7 5 21 -5 12 -6 27 -4 34 3
6 2 12 -1 12 -3 0 -6 -3 -7 -7z"/>
<path d="M4156 4005 c-3 -8 -1 -15 4 -15 6 0 10 7 10 15 0 8 -2 15 -4 15 -2 0
-6 -7 -10 -15z"/>
<path d="M5912 4011 c-8 -4 -12 -19 -10 -32 4 -29 38 -40 37 -12 0 10 -3 13
-6 6 -8 -22 -25 -14 -21 10 2 12 9 21 16 19 8 -1 11 2 7 8 -7 12 -7 12 -23 1z"/>
<path d="M5960 3985 l0 -36 21 20 c23 21 20 51 -6 51 -11 0 -15 -10 -15 -35z
m30 10 c0 -8 -4 -15 -10 -15 -5 0 -10 7 -10 15 0 8 5 15 10 15 6 0 10 -7 10
-15z"/>
<path d="M6020 4012 c0 -5 7 -9 15 -9 8 0 15 4 15 9 0 4 -7 8 -15 8 -8 0 -15
-4 -15 -8z"/>
<path d="M6076 4005 c-3 -8 -1 -15 4 -15 6 0 10 7 10 15 0 8 -2 15 -4 15 -2 0
-6 -7 -10 -15z"/>
<path d="M4156 3963 c-6 -14 -5 -15 5 -6 7 7 10 15 7 18 -3 3 -9 -2 -12 -12z"/>
<path d="M6019 3963 c-13 -16 -12 -17 4 -4 16 13 21 21 13 21 -2 0 -10 -8 -17
-17z"/>
<path d="M3990 3865 c-6 -8 -10 -22 -8 -32 4 -23 38 -30 38 -9 0 9 -5 16 -11
16 -5 0 -7 -4 -4 -10 3 -5 1 -10 -5 -10 -6 0 -10 10 -8 23 2 12 9 21 16 19 8
-1 11 2 7 8 -8 13 -10 13 -25 -5z"/>
<path d="M4040 3845 l0 -36 21 20 c23 21 20 51 -6 51 -11 0 -15 -10 -15 -35z
m30 10 c0 -8 -4 -15 -10 -15 -5 0 -10 7 -10 15 0 8 5 15 10 15 6 0 10 -7 10
-15z"/>
<path d="M4154 3868 c-4 -6 -3 -8 4 -4 17 10 23 -10 7 -24 -22 -18 -18 -30 8
-29 19 0 20 1 4 8 -17 6 -17 8 -4 20 9 7 13 19 10 27 -6 17 -19 18 -29 2z"/>
<path d="M5910 3865 c-6 -8 -10 -22 -8 -32 4 -23 38 -30 38 -9 0 9 -5 16 -11
16 -5 0 -7 -4 -4 -10 3 -5 1 -10 -5 -10 -6 0 -10 10 -8 23 2 12 9 21 16 19 8
-1 11 2 7 8 -8 13 -10 13 -25 -5z"/>
<path d="M5960 3845 l0 -36 21 20 c23 21 20 51 -6 51 -11 0 -15 -10 -15 -35z
m30 10 c0 -8 -4 -15 -10 -15 -5 0 -10 7 -10 15 0 8 5 15 10 15 6 0 10 -7 10
-15z"/>
<path d="M6020 3872 c0 -5 7 -9 15 -9 8 0 12 4 9 9 -3 4 -9 8 -15 8 -5 0 -9
-4 -9 -8z"/>
<path d="M6074 3868 c-4 -6 -3 -8 4 -4 17 10 23 -10 7 -24 -22 -18 -18 -30 8
-29 19 0 20 1 4 8 -17 6 -17 8 -4 20 9 7 13 19 10 27 -6 17 -19 18 -29 2z"/>
<path d="M4109 3868 c-7 -22 -2 -58 8 -58 9 0 10 7 3 24 -5 13 -6 27 -3 30 4
3 3 6 0 6 -4 0 -7 -1 -8 -2z"/>
<path d="M6020 3825 c-10 -13 -9 -15 11 -14 13 0 18 3 11 6 -6 2 -10 9 -6 14
9 15 -2 10 -16 -6z"/>
<path d="M3987 3723 c-4 -3 -7 -17 -7 -30 0 -16 6 -23 20 -23 13 0 20 6 19 18
0 10 -3 12 -6 5 -7 -20 -23 -15 -23 6 0 11 8 22 18 24 14 4 14 5 1 6 -9 0 -19
-2 -22 -6z"/>
<path d="M4041 3702 l-1 -33 22 21 c12 11 18 23 15 27 -4 3 -7 1 -7 -5 0 -19
-18 -14 -23 6 -3 9 -5 2 -6 -16z"/>
<path d="M4109 3728 c-7 -22 -2 -58 8 -58 9 0 10 7 3 24 -5 13 -6 27 -3 30 4
3 3 6 0 6 -4 0 -7 -1 -8 -2z"/>
<path d="M5907 3723 c-4 -3 -7 -17 -7 -30 0 -16 6 -23 20 -23 13 0 20 6 19 18
0 10 -3 12 -6 5 -7 -20 -23 -15 -23 6 0 11 8 22 18 24 14 4 14 5 1 6 -9 0 -19
-2 -22 -6z"/>
<path d="M5961 3702 l-1 -33 22 21 c12 11 18 23 15 27 -4 3 -7 1 -7 -5 0 -19
-18 -14 -23 6 -3 9 -5 2 -6 -16z"/>
<path d="M4175 3698 c4 -11 0 -18 -12 -21 -15 -4 -16 -5 -1 -6 22 -1 33 18 19
32 -9 9 -11 8 -6 -5z"/>
<path d="M6070 3701 c0 -6 7 -8 15 -5 8 4 15 1 15 -4 0 -6 -7 -13 -15 -15 -11
-4 -10 -4 2 -3 23 2 23 30 1 34 -10 2 -18 -1 -18 -7z"/>
<path d="M6018 3673 c6 -2 18 -2 25 0 6 3 1 5 -13 5 -14 0 -19 -2 -12 -5z"/>
<path d="M3993 3583 c-14 -5 -18 -53 -5 -53 5 0 8 10 8 23 -1 13 4 21 12 19 8
-1 11 2 7 8 -3 5 -7 10 -8 9 -1 0 -8 -3 -14 -6z"/>
<path d="M4041 3558 c2 -30 2 -31 6 -5 4 27 17 36 26 17 3 -6 4 -5 3 2 -1 7
-10 14 -19 16 -13 3 -17 -4 -16 -30z"/>
<path d="M4109 3588 c-6 -11 -3 -58 3 -58 4 0 8 14 8 30 0 25 -6 38 -11 28z"/>
<path d="M5913 3583 c-14 -5 -18 -53 -5 -53 5 0 8 10 8 23 -1 13 4 21 12 19 8
-1 11 2 7 8 -3 5 -7 10 -8 9 -1 0 -8 -3 -14 -6z"/>
<path d="M5961 3558 c2 -30 2 -31 6 -5 4 27 17 36 26 17 3 -6 4 -5 3 2 -1 7
-10 14 -19 16 -13 3 -17 -4 -16 -30z"/>
<path d="M6020 3586 c0 -2 7 -6 15 -10 8 -3 15 -1 15 4 0 6 -7 10 -15 10 -8 0
-15 -2 -15 -4z"/>
<path d="M6078 3583 c6 -2 18 -2 25 0 6 3 1 5 -13 5 -14 0 -19 -2 -12 -5z"/>
<path d="M4170 3549 c0 -11 4 -18 10 -14 5 3 7 12 3 20 -7 21 -13 19 -13 -6z"/>
<path d="M6018 3533 c7 -3 16 -2 19 1 4 3 -2 6 -13 5 -11 0 -14 -3 -6 -6z"/>
<path d="M3992 3441 c-8 -4 -12 -19 -10 -32 4 -29 38 -40 37 -12 0 10 -3 13
-6 6 -8 -22 -25 -14 -21 10 2 12 9 21 16 19 8 -1 11 2 7 8 -7 12 -7 12 -23 1z"/>
<path d="M4041 3408 c0 -24 3 -36 6 -28 4 8 13 20 21 26 18 13 9 44 -13 44
-11 0 -15 -11 -14 -42z m29 17 c0 -8 -4 -15 -10 -15 -5 0 -10 7 -10 15 0 8 5
15 10 15 6 0 10 -7 10 -15z"/>
<path d="M4109 3443 c-4 -47 -2 -70 7 -70 8 0 9 9 4 26 -4 14 -5 32 -3 39 3 6
2 12 -1 12 -3 0 -6 -3 -7 -7z"/>
<path d="M5912 3441 c-8 -4 -12 -19 -10 -32 4 -29 38 -40 37 -12 0 10 -3 13
-6 6 -8 -22 -25 -14 -21 10 2 12 9 21 16 19 8 -1 11 2 7 8 -7 12 -7 12 -23 1z"/>
<path d="M5961 3408 c0 -24 3 -36 6 -28 4 8 13 20 21 26 18 13 9 44 -13 44
-11 0 -15 -11 -14 -42z m29 17 c0 -8 -4 -15 -10 -15 -5 0 -10 7 -10 15 0 8 5
15 10 15 6 0 10 -7 10 -15z"/>
<path d="M6020 3442 c0 -5 7 -9 15 -9 8 0 15 4 15 9 0 4 -7 8 -15 8 -8 0 -15
-4 -15 -8z"/>
<path d="M6077 3443 c-4 -3 -7 -14 -7 -24 0 -13 5 -16 17 -12 13 5 15 2 10
-11 -4 -9 -3 -15 2 -11 15 9 9 44 -6 38 -7 -3 -13 -1 -13 5 0 6 6 13 13 15 6
3 7 6 1 6 -6 1 -14 -2 -17 -6z"/>
<path d="M4163 3413 c20 -5 17 -30 -2 -25 -7 1 -9 -3 -6 -9 5 -8 12 -6 22 4
18 18 9 38 -15 36 -15 -1 -15 -2 1 -6z"/>
<path d="M6010 3379 c0 -5 5 -7 10 -4 6 3 10 8 10 11 0 2 -4 4 -10 4 -5 0 -10
-5 -10 -11z"/>
<path d="M3980 2986 c0 -25 25 -42 36 -25 3 6 3 13 0 16 -3 4 -6 1 -6 -6 0 -7
-4 -9 -10 -6 -16 10 -12 33 8 38 13 4 11 5 -5 6 -18 1 -23 -4 -23 -23z"/>
<path d="M4041 2980 c0 -33 1 -34 10 -11 6 16 6 28 -1 35 -7 7 -10 -1 -9 -24z"/>
<path d="M4066 2988 c-3 -13 -1 -27 4 -32 7 -7 10 1 10 22 0 37 -5 41 -14 10z"/>
<path d="M4100 2980 c0 -33 23 -42 34 -14 5 14 4 15 -9 4 -13 -10 -15 -9 -15
10 0 16 4 20 16 16 8 -3 12 -2 9 4 -14 22 -35 10 -35 -20z"/>
<path d="M3984 2855 c-4 -8 -4 -22 0 -30 8 -21 36 -19 35 3 0 10 -3 12 -6 5
-7 -20 -23 -15 -23 6 0 11 8 22 18 24 16 4 16 5 -1 6 -10 0 -20 -6 -23 -14z"/>
<path d="M4040 2838 c0 -21 2 -38 4 -38 9 0 12 50 5 62 -6 8 -9 -1 -9 -24z"/>
<path d="M4068 2845 c-3 -14 -1 -28 3 -31 5 -3 9 9 9 25 0 38 -6 40 -12 6z"/>
<path d="M4100 2835 c0 -39 10 -44 31 -17 13 15 12 16 -3 3 -16 -12 -18 -11
-18 14 0 20 4 26 16 21 8 -3 12 -2 9 4 -15 24 -35 9 -35 -25z"/>
<path d="M3987 2723 c-12 -12 -7 -51 7 -56 8 -3 17 -3 20 0 10 10 7 33 -4 33
-5 0 -6 -7 -3 -17 4 -11 3 -14 -5 -9 -18 11 -14 44 6 49 14 4 14 5 1 6 -9 0
-19 -2 -22 -6z"/>
<path d="M4040 2698 c0 -21 2 -38 4 -38 9 0 12 50 5 62 -6 8 -9 -1 -9 -24z"/>
<path d="M4068 2706 c-3 -14 -1 -31 3 -38 6 -8 9 1 9 25 0 42 -6 48 -12 13z"/>
<path d="M4100 2695 c0 -39 10 -44 31 -17 13 16 13 16 -5 2 -18 -14 -19 -13
-14 18 2 17 1 32 -4 32 -4 0 -8 -16 -8 -35z"/>
<path d="M4040 2551 c0 -17 2 -31 4 -31 8 0 13 51 5 56 -5 3 -9 -9 -9 -25z"/>
<path d="M4066 2558 c-3 -13 -1 -27 4 -32 7 -7 10 1 10 22 0 37 -5 41 -14 10z"/>
<path d="M4101 2553 c-1 -35 22 -47 33 -17 5 14 4 15 -8 5 -12 -10 -15 -7 -19
16 -4 27 -4 27 -6 -4z"/>
<path d="M3981 2554 c-1 -12 5 -24 13 -27 17 -7 26 1 25 22 0 12 -3 11 -9 -4
-8 -19 -8 -19 -18 5 -10 23 -11 23 -11 4z"/>
<path d="M3987 2433 c-12 -12 -7 -41 8 -46 15 -6 32 10 21 20 -3 4 -6 1 -6 -6
0 -7 -4 -9 -10 -6 -16 10 -12 33 8 38 14 4 14 5 1 6 -9 0 -19 -2 -22 -6z"/>
<path d="M4041 2410 c0 -33 1 -34 10 -11 6 16 6 28 -1 35 -7 7 -10 -1 -9 -24z"/>
<path d="M4066 2418 c-3 -13 -1 -27 4 -32 7 -7 10 1 10 22 0 37 -5 41 -14 10z"/>
<path d="M4100 2410 c0 -33 23 -42 34 -14 5 14 4 15 -9 4 -13 -10 -15 -9 -15
10 0 16 4 20 16 16 8 -3 12 -2 9 4 -14 22 -35 10 -35 -20z"/>
<path d="M3984 2285 c-3 -8 -4 -20 -1 -27 3 -7 6 -3 6 9 1 12 9 24 19 26 16 4
16 5 -1 6 -10 0 -20 -6 -23 -14z"/>
<path d="M4040 2268 c0 -21 2 -38 4 -38 9 0 12 50 5 62 -6 8 -9 -1 -9 -24z"/>
<path d="M4068 2275 c-3 -14 -1 -28 3 -31 5 -3 9 9 9 25 0 38 -6 40 -12 6z"/>
<path d="M4100 2265 c0 -19 4 -35 8 -35 5 0 6 14 4 32 -4 26 -2 30 12 25 10
-4 15 -3 11 3 -15 24 -35 9 -35 -25z"/>
<path d="M4004 2250 c0 -11 4 -20 8 -20 4 0 8 9 8 20 0 11 -4 20 -8 20 -4 0
-8 -9 -8 -20z"/>
<path d="M4034 2146 c-9 -24 0 -51 19 -54 12 -2 17 3 17 17 0 12 -4 21 -10 21
-5 0 -7 -7 -4 -15 4 -8 1 -15 -5 -15 -19 0 -13 48 7 53 16 4 16 5 -1 6 -10 0
-20 -5 -23 -13z"/>
<path d="M4093 2125 c0 -22 2 -30 4 -17 2 12 2 30 0 40 -3 9 -5 -1 -4 -23z"/>
<path d="M4163 2149 c21 -12 22 -23 1 -43 -13 -14 -13 -16 -1 -16 16 0 29 34
20 56 -3 8 -13 14 -22 14 -14 -1 -14 -2 2 -11z"/>
<path d="M3986 2135 c-8 -23 -8 -25 8 -25 8 0 17 -6 20 -12 3 -7 3 -2 0 12 -8
34 -20 45 -28 25z"/>
<path d="M3984 1995 c-9 -21 3 -45 21 -45 9 0 15 8 14 23 -1 16 -2 18 -6 5 -7
-28 -26 -21 -21 7 6 28 1 33 -8 10z"/>
<path d="M4040 1981 c0 -17 2 -31 4 -31 8 0 13 51 5 56 -5 3 -9 -9 -9 -25z"/>
<path d="M4066 1988 c-3 -13 -1 -27 4 -32 7 -7 10 1 10 22 0 37 -5 41 -14 10z"/>
<path d="M4101 1983 c-1 -25 3 -33 17 -33 11 0 13 3 6 8 -7 4 -14 18 -17 32
-4 21 -4 20 -6 -7z"/>
<path d="M8532 5628 c-2 -34 1 -38 21 -37 15 1 17 3 5 6 -10 2 -18 17 -21 36
-4 31 -4 31 -5 -5z"/>
<path d="M8620 5633 c0 -7 -8 -13 -17 -14 -14 0 -15 -2 -3 -6 8 -3 18 -10 21
-15 3 -5 9 -3 12 5 3 7 1 20 -4 28 -6 10 -9 10 -9 2z"/>
<path d="M8532 5413 c-2 -39 0 -43 21 -42 16 1 17 3 5 6 -11 3 -18 17 -21 41
l-4 37 -1 -42z"/>
<path d="M8617 5406 c3 -15 0 -26 -9 -29 -9 -3 -9 -4 2 -3 16 1 28 56 12 56
-5 0 -7 -11 -5 -24z"/>
<path d="M8603 5233 c21 -6 22 -26 2 -43 -22 -18 -18 -30 8 -29 19 0 20 1 4 8
-17 6 -17 8 -3 20 25 21 21 51 -6 50 -17 -1 -19 -2 -5 -6z"/>
<path d="M8532 5198 c-2 -34 1 -38 21 -37 15 1 17 3 5 6 -10 2 -18 17 -21 36
-4 31 -4 31 -5 -5z"/>
<path d="M8532 4988 c-2 -44 0 -48 21 -47 16 1 17 3 5 6 -12 3 -18 17 -21 46
l-4 42 -1 -47z"/>
<path d="M8601 5025 c-1 -5 -3 -27 -4 -48 -2 -31 1 -37 18 -37 13 0 16 3 8 8
-6 4 -13 25 -16 47 -2 22 -5 36 -6 30z"/>
<path d="M8534 4785 c-9 -35 2 -55 28 -54 l23 0 -23 10 c-28 11 -28 55 0 53
10 -1 15 2 12 7 -11 18 -34 8 -40 -16z"/>
<path d="M8601 4774 c-1 -14 6 -24 19 -27 24 -6 30 2 19 28 -6 17 -8 17 -8 3
-1 -10 -5 -18 -10 -18 -5 0 -12 8 -14 18 -4 13 -5 13 -6 -4z"/>
<path d="M8542 4588 c-13 -13 -16 -54 -4 -61 4 -3 7 9 7 26 0 24 4 32 17 31
10 -1 15 2 12 7 -7 12 -18 11 -32 -3z"/>
<path d="M8608 4593 c12 -2 20 -9 16 -14 -3 -6 0 -16 6 -24 6 -8 8 -20 4 -27
-5 -10 -4 -10 6 -1 11 10 11 15 0 28 -10 12 -10 18 0 30 11 13 8 15 -21 14
-24 -1 -27 -3 -11 -6z"/>
<path d="M8548 4373 c6 -2 18 -2 25 0 6 3 1 5 -13 5 -14 0 -19 -2 -12 -5z"/>
<path d="M8618 4373 c27 -5 28 -11 0 -40 -12 -13 -17 -23 -12 -23 14 1 46 49
39 60 -3 6 -16 9 -28 9 -22 -2 -22 -2 1 -6z"/>
<path d="M8530 4341 c0 -11 4 -22 9 -25 4 -3 6 6 3 19 -5 30 -12 33 -12 6z"/>
<path d="M8534 4145 c-3 -8 -4 -20 -1 -27 3 -7 6 -3 6 9 1 14 9 23 24 26 l22
4 -23 2 c-12 0 -25 -6 -28 -14z"/>
<path d="M8621 4133 c0 -17 -7 -34 -13 -36 -7 -3 1 -6 17 -6 17 0 25 3 18 7
-6 4 -13 21 -16 37 l-4 30 -2 -32z"/>
<path d="M8548 4093 c6 -2 18 -2 25 0 6 3 1 5 -13 5 -14 0 -19 -2 -12 -5z"/>
<path d="M6355 4477 c4 -19 2 -26 -5 -22 -15 9 -12 -4 4 -20 21 -21 26 3 9 40
l-14 30 6 -28z"/>
<path d="M6296 4483 c5 -5 12 -12 16 -18 4 -6 8 -2 8 8 0 9 -7 17 -17 17 -9 0
-12 -3 -7 -7z"/>
<path d="M6290 4435 c-10 -13 -9 -15 11 -14 13 0 18 3 11 6 -6 2 -10 9 -6 14
9 15 -2 10 -16 -6z"/>
<path d="M6300 4330 c12 -7 12 -12 2 -22 -17 -17 -15 -28 6 -28 13 0 14 2 3 9
-9 6 -10 11 -2 15 17 11 13 36 -6 36 -15 0 -16 -2 -3 -10z"/>
<path d="M6340 4323 c0 -11 3 -14 8 -7 4 6 14 14 22 17 10 4 8 6 -7 6 -16 1
-23 -5 -23 -16z"/>
<path d="M6367 4303 c5 -12 2 -15 -10 -10 -9 3 -17 2 -17 -4 0 -6 8 -9 17 -7
19 3 31 38 14 38 -6 0 -7 -8 -4 -17z"/>
<path d="M6293 4193 c19 -5 22 -18 7 -28 -18 -11 -10 -33 15 -39 44 -11 89 35
49 51 -13 5 -13 7 -2 14 10 7 8 9 -6 9 -15 0 -17 -6 -14 -35 4 -35 -5 -43 -29
-27 -8 5 -9 13 -3 22 16 25 11 40 -12 39 -17 -1 -19 -2 -5 -6z m77 -33 c0 -5
-4 -10 -10 -10 -5 0 -10 5 -10 10 0 6 5 10 10 10 6 0 10 -4 10 -10z"/>
<path d="M6228 4123 c12 -2 30 -2 40 0 9 3 -1 5 -23 4 -22 0 -30 -2 -17 -4z"/>
<path d="M6393 4123 c15 -2 39 -2 55 0 15 2 2 4 -28 4 -30 0 -43 -2 -27 -4z"/>
<path d="M6293 4053 c21 -6 21 -8 1 -38 -16 -24 -15 -25 7 -25 15 0 19 3 12 8
-8 5 -9 13 -3 22 16 25 11 40 -12 39 -17 -1 -19 -2 -5 -6z"/>
<path d="M6347 4052 c17 -5 20 -11 13 -22 -5 -8 -10 -22 -10 -30 1 -13 2 -13
9 0 5 8 12 25 15 38 7 19 4 22 -21 21 -25 -1 -26 -2 -6 -7z"/>
<path d="M6553 3973 c37 -2 97 -2 135 0 37 2 6 3 -68 3 -74 0 -105 -1 -67 -3z"/>
<path d="M6296 3913 c5 -5 12 -12 16 -18 4 -6 8 -2 8 8 0 9 -7 17 -17 17 -9 0
-12 -3 -7 -7z"/>
<path d="M6340 3901 c0 -11 5 -23 11 -27 8 -4 7 -9 -2 -15 -11 -7 -11 -9 2 -9
18 0 29 20 29 51 0 12 -7 19 -20 19 -13 0 -20 -7 -20 -19z m30 0 c0 -6 -4 -13
-10 -16 -5 -3 -10 1 -10 9 0 9 5 16 10 16 6 0 10 -4 10 -9z"/>
<path d="M6290 3865 c-10 -13 -9 -15 11 -14 13 0 18 3 11 6 -6 2 -10 9 -6 14
9 15 -2 10 -16 -6z"/>
<path d="M3755 3044 c17 -17 15 -41 -4 -36 -6 1 -11 -3 -11 -9 0 -6 8 -9 18
-7 25 5 25 68 -1 68 -17 0 -17 -1 -2 -16z"/>
<path d="M3747 2914 c-4 -4 -7 -20 -7 -36 0 -23 4 -29 18 -26 11 2 17 13 17
32 0 29 -14 43 -28 30z m23 -8 c0 -3 -4 -8 -10 -11 -5 -3 -10 -1 -10 4 0 6 5
11 10 11 6 0 10 -2 10 -4z m0 -36 c0 -5 -4 -10 -10 -10 -5 0 -10 5 -10 10 0 6
5 10 10 10 6 0 10 -4 10 -10z"/>
<path d="M3783 2753 c9 -19 8 -26 -4 -34 -12 -7 -11 -9 3 -9 13 0 17 8 16 33
-1 20 -6 34 -14 34 -9 0 -9 -6 -1 -24z"/>
<path d="M3715 2760 c-3 -5 -1 -10 4 -10 15 0 14 -27 -1 -33 -7 -3 -4 -6 8 -6
17 -1 20 4 16 29 -4 30 -16 39 -27 20z"/>
<path d="M3714 2619 c-3 -6 0 -15 7 -20 12 -8 12 -11 -1 -19 -12 -8 -11 -10 6
-10 17 0 20 5 16 30 -4 31 -16 38 -28 19z"/>
<path d="M3769 2628 c0 -2 -3 -15 -5 -30 -4 -23 -1 -28 16 -28 16 0 20 6 20
30 0 20 -5 30 -15 30 -8 0 -15 -1 -16 -2z m21 -38 c0 -5 -5 -10 -11 -10 -5 0
-7 5 -4 10 3 6 8 10 11 10 2 0 4 -4 4 -10z"/>
<path d="M3714 2479 c-3 -5 2 -6 10 -3 20 8 21 -10 1 -26 -22 -18 -18 -30 8
-29 12 0 16 3 10 6 -9 3 -9 11 3 29 15 22 43 36 29 14 -3 -5 -1 -10 4 -10 15
0 14 -27 -1 -33 -8 -3 -6 -6 4 -6 14 -1 17 6 15 33 -2 33 -4 35 -40 34 -20 0
-40 -4 -43 -9z"/>
<path d="M3714 2338 c-5 -8 -2 -9 9 -5 22 8 22 -11 0 -35 -15 -17 -15 -18 8
-17 13 0 18 3 11 6 -10 4 -10 8 -1 19 12 15 6 44 -10 44 -5 0 -13 -5 -17 -12z"/>
<path d="M3770 2325 c-11 -30 -6 -45 16 -45 9 0 14 10 14 29 0 40 -18 49 -30
16z m20 -25 c0 -5 -4 -10 -10 -10 -5 0 -10 5 -10 10 0 6 5 10 10 10 6 0 10 -4
10 -10z"/>
<path d="M3720 2200 c18 -12 30 -13 30 -2 0 4 -10 9 -22 9 -18 2 -20 0 -8 -7z"/>
<path d="M3774 2191 c1 -9 6 -19 11 -23 6 -5 4 -12 -5 -18 -13 -8 -13 -10 2
-10 13 0 17 8 16 33 -1 19 -6 34 -13 34 -7 0 -12 -7 -11 -16z"/>
<path d="M3736 2165 c4 -10 0 -15 -12 -16 -12 0 -14 -3 -6 -6 21 -8 42 5 36
22 -3 8 -10 15 -15 15 -4 0 -6 -7 -3 -15z"/>
<path d="M3720 2052 c8 -4 15 -14 15 -22 0 -8 -7 -18 -15 -22 -11 -5 -9 -7 7
-7 18 -1 22 4 21 29 -1 24 -5 30 -22 29 -16 0 -17 -2 -6 -7z"/>
<path d="M3764 2048 c-4 -6 1 -17 10 -24 16 -12 16 -13 -1 -17 -14 -4 -14 -5
5 -6 18 -1 22 4 22 29 0 31 -22 42 -36 18z"/>
<path d="M7408 6493 c7 -3 16 -2 19 1 4 3 -2 6 -13 5 -11 0 -14 -3 -6 -6z"/>
<path d="M7426 6465 c-3 -9 -10 -13 -16 -10 -5 3 -10 1 -10 -4 0 -17 27 -13
34 5 4 9 5 19 2 21 -2 2 -6 -3 -10 -12z"/>
<path d="M7477 6473 c-4 -3 -7 -11 -7 -17 0 -6 5 -5 12 2 6 6 9 14 7 17 -3 3
-9 2 -12 -2z"/>
<path d="M2141 6308 c1 -29 4 -43 6 -31 2 13 13 24 26 26 l22 4 -22 2 c-16 1
-23 7 -23 21 0 25 25 26 39 3 6 -10 11 -13 11 -7 0 16 -22 34 -42 34 -15 0
-18 -8 -17 -52z"/>
<path d="M2238 6353 c6 -2 18 -2 25 0 6 3 1 5 -13 5 -14 0 -19 -2 -12 -5z"/>
<path d="M2303 6310 c0 -30 2 -43 4 -27 2 15 2 39 0 55 -2 15 -4 2 -4 -28z"/>
<path d="M2340 6310 c0 -41 3 -50 18 -49 10 0 12 3 5 6 -14 5 -18 83 -5 83 4
0 14 -6 22 -12 12 -11 12 -10 1 5 -25 33 -41 21 -41 -33z"/>
<path d="M2531 6313 c1 -27 3 -40 6 -31 2 9 14 19 26 21 l22 4 -22 2 c-16 1
-23 7 -23 22 0 16 5 20 20 16 11 -3 18 -1 14 4 -3 5 -14 9 -25 9 -16 0 -19 -7
-18 -47z"/>
<path d="M2629 6343 c-13 -16 -12 -17 3 -5 9 8 23 10 29 6 8 -4 9 -3 5 4 -10
17 -21 15 -37 -5z"/>
<path d="M2700 6330 c0 -23 3 -28 16 -23 11 4 23 -1 32 -13 14 -18 14 -18 8
-1 -3 10 -6 21 -6 23 0 2 -9 4 -20 4 -27 0 -25 28 3 33 19 4 18 4 -5 6 -25 1
-28 -3 -28 -29z"/>
<path d="M2790 6349 c-12 -8 -10 -9 8 -4 17 5 22 2 22 -13 0 -10 -9 -27 -20
-37 -27 -25 -25 -35 8 -34 16 1 20 3 10 6 -22 6 -23 17 -3 33 17 14 17 51 0
57 -5 1 -17 -2 -25 -8z"/>
<path d="M2866 6351 c-4 -5 3 -7 14 -4 33 9 38 -26 7 -49 -36 -26 -34 -38 6
-37 23 1 26 3 10 6 -28 5 -29 14 -3 31 24 15 26 47 4 56 -22 8 -32 8 -38 -3z"/>
<path d="M3161 6346 c-7 -8 -11 -30 -9 -48 2 -28 7 -33 28 -33 21 0 26 5 28
33 3 31 -11 62 -28 62 -4 0 -13 -6 -19 -14z m37 -39 c3 -32 0 -37 -17 -37 -17
0 -21 6 -21 33 0 61 33 63 38 4z"/>
<path d="M3240 6315 c0 -49 18 -67 45 -45 21 17 19 53 -3 73 -31 28 -42 21
-42 -28z m40 21 c16 -20 9 -60 -12 -64 -15 -3 -18 4 -18 37 0 43 9 51 30 27z"/>
<path d="M3332 6313 c-2 -50 -1 -53 23 -53 14 0 25 4 25 9 0 5 -9 7 -19 4 -17
-4 -20 1 -24 43 l-3 49 -2 -52z"/>
<path d="M3414 6310 c1 -43 2 -45 31 -46 27 -2 28 -2 3 3 -23 4 -27 10 -31 46
l-4 42 1 -45z"/>
<path d="M3490 6310 c0 -46 2 -50 23 -49 16 1 18 2 5 6 -10 2 -18 11 -18 18 0
7 8 16 18 18 16 4 16 5 0 6 -27 2 -23 39 5 44 19 4 18 4 -5 6 -27 1 -28 -1
-28 -49z"/>
<path d="M7390 6320 c-7 -14 -8 -20 -2 -16 7 4 12 -14 15 -51 l3 -58 2 60 2
60 20 -30 c11 -16 20 -26 20 -22 0 4 -11 24 -24 44 -24 35 -24 35 -36 13z"/>
<path d="M2238 6303 c7 -3 16 -2 19 1 4 3 -2 6 -13 5 -11 0 -14 -3 -6 -6z"/>
<path d="M2448 6293 c12 -2 30 -2 40 0 9 3 -1 5 -23 4 -22 0 -30 -2 -17 -4z"/>
<path d="M2968 6293 c12 -2 30 -2 40 0 9 3 -1 5 -23 4 -22 0 -30 -2 -17 -4z"/>
<path d="M7365 6279 c-4 -6 -5 -12 -2 -15 2 -3 7 2 10 11 7 17 1 20 -8 4z"/>
<path d="M2628 6268 c6 -6 18 -8 28 -6 14 3 12 5 -9 10 -19 3 -25 2 -19 -4z"/>
<path d="M2708 6263 c6 -2 18 -2 25 0 6 3 1 5 -13 5 -14 0 -19 -2 -12 -5z"/>
<path d="M3718 6053 c6 -2 18 -2 25 0 6 3 1 5 -13 5 -14 0 -19 -2 -12 -5z"/>
<path d="M3778 6053 c6 -2 18 -2 25 0 6 3 1 5 -13 5 -14 0 -19 -2 -12 -5z"/>
<path d="M6340 6030 c0 -25 4 -31 18 -28 11 2 17 12 17 28 0 16 -6 26 -17 28
-14 3 -18 -3 -18 -28z m30 0 c0 -11 -4 -20 -10 -20 -5 0 -10 9 -10 20 0 11 5
20 10 20 6 0 10 -9 10 -20z"/>
<path d="M3736 6025 c4 -10 0 -15 -12 -16 -12 0 -14 -3 -6 -6 21 -8 42 5 36
22 -3 8 -10 15 -15 15 -4 0 -6 -7 -3 -15z"/>
<path d="M3780 6020 c-6 -11 -8 -20 -6 -20 3 0 10 9 16 20 6 11 8 20 6 20 -3
0 -10 -9 -16 -20z"/>
<path d="M6295 6029 c-16 -6 -16 -8 -3 -8 9 -1 18 -6 20 -13 3 -8 7 -6 11 5 8
21 -2 27 -28 16z"/>
<path d="M3723 5913 c9 -2 15 -9 12 -14 -4 -5 -2 -17 4 -26 8 -15 10 -12 9 15
-1 26 -5 32 -22 31 -17 -1 -18 -2 -3 -6z"/>
<path d="M3767 5913 c-11 -10 -8 -41 5 -49 7 -4 8 -3 4 5 -4 7 -4 20 0 29 6
14 9 11 14 -13 l8 -30 1 33 c1 30 -15 43 -32 25z"/>
<path d="M6285 5912 c6 -4 16 -18 22 -32 11 -25 11 -24 10 7 -2 26 -6 33 -22
33 -11 0 -15 -4 -10 -8z"/>
<path d="M6347 5914 c-13 -13 -7 -42 9 -48 24 -9 26 -8 22 21 -3 26 -18 39
-31 27z m23 -25 c0 -5 -4 -9 -10 -9 -5 0 -10 7 -10 16 0 8 5 12 10 9 6 -3 10
-10 10 -16z"/>
<path d="M3663 5853 c-29 -2 -53 -8 -53 -12 0 -11 92 -2 105 10 5 5 7 8 5 7
-3 -1 -29 -3 -57 -5z"/>
<path d="M3748 5843 c6 -2 18 -2 25 0 6 3 1 5 -13 5 -14 0 -19 -2 -12 -5z"/>
<path d="M6328 5843 c7 -3 16 -2 19 1 4 3 -2 6 -13 5 -11 0 -14 -3 -6 -6z"/>
<path d="M6388 5843 c18 -2 45 -2 60 0 15 2 0 4 -33 4 -33 0 -45 -2 -27 -4z"/>
<path d="M985 5789 c-17 -6 -17 -8 -2 -8 9 -1 17 -6 17 -12 0 -8 -12 -9 -32
-5 l-33 6 25 -15 c34 -20 50 -18 50 4 0 11 5 21 12 23 8 3 7 6 -3 10 -7 3 -23
2 -34 -3z"/>
<path d="M1591 5767 c1 -25 3 -27 6 -9 5 24 10 25 58 7 13 -5 17 -5 10 2 -5 6
-25 15 -42 21 -33 11 -33 11 -32 -21z"/>
<path d="M370 5780 c0 -5 -16 -10 -35 -10 -30 0 -34 -2 -23 -14 7 -8 15 -10
16 -5 5 13 40 11 45 -3 3 -7 6 -1 6 15 1 15 -1 27 -4 27 -3 0 -5 -4 -5 -10z"/>
<path d="M513 5774 c-3 -8 0 -21 7 -27 10 -9 11 -7 5 11 -9 30 20 30 52 0 l23
-21 -1 29 c0 23 -2 25 -8 11 -6 -17 -8 -17 -20 -3 -17 20 -50 21 -58 0z"/>
<path d="M731 5760 c1 -18 3 -20 6 -7 3 11 11 16 19 13 8 -3 14 -1 14 4 0 6
10 10 21 10 17 0 20 -5 16 -21 -4 -16 -3 -19 5 -11 22 22 0 43 -42 40 -36 -3
-40 -6 -39 -28z"/>
<path d="M1161 5774 c-1 -20 16 -34 39 -34 4 0 6 9 3 21 -5 17 -2 20 13 17 10
-2 18 -10 16 -17 -1 -7 2 -10 7 -6 6 3 8 12 4 20 -7 20 -53 20 -53 0 0 -21
-18 -19 -23 3 -4 13 -5 12 -6 -4z"/>
<path d="M1381 5773 c-1 -27 43 -43 62 -24 9 9 8 11 -5 6 -13 -5 -18 -2 -18
10 0 11 5 15 15 11 8 -3 15 -1 15 4 0 6 -9 10 -20 10 -11 0 -20 -7 -20 -15 0
-21 -18 -19 -23 3 -4 13 -5 12 -6 -5z"/>
<path d="M1812 5768 c4 -32 62 -33 66 0 3 19 -1 22 -33 22 -32 0 -36 -3 -33
-22z m58 -4 c0 -11 -5 -14 -16 -10 -9 3 -20 6 -25 6 -21 0 -7 16 16 18 17 1
25 -3 25 -14z"/>
<path d="M6289 5771 c7 -5 10 -14 7 -20 -4 -6 -2 -11 3 -11 18 0 12 -18 -6
-23 -14 -4 -13 -5 4 -6 19 -1 22 4 21 34 -1 28 -5 35 -22 35 -16 0 -18 -2 -7
-9z"/>
<path d="M6347 5773 c-4 -3 -7 -19 -7 -35 0 -21 5 -28 20 -28 13 0 20 7 20 20
0 12 -7 20 -16 20 -14 0 -14 3 -4 15 12 14 0 22 -13 8z m23 -43 c0 -5 -4 -10
-10 -10 -5 0 -10 5 -10 10 0 6 5 10 10 10 6 0 10 -4 10 -10z"/>
<path d="M1251 5653 c0 -56 3 -104 7 -107 4 -3 6 37 4 87 -5 131 -9 139 -11
20z"/>
<path d="M8384 5706 c-11 -28 0 -61 21 -61 16 0 20 7 20 35 0 25 -5 36 -18 38
-9 2 -20 -3 -23 -12z m31 -6 c3 -5 -1 -10 -9 -10 -9 0 -16 5 -16 10 0 6 4 10
9 10 6 0 13 -4 16 -10z m5 -35 c0 -8 -7 -15 -15 -15 -8 0 -15 7 -15 15 0 8 7
15 15 15 8 0 15 -7 15 -15z"/>
<path d="M6294 5620 c0 -11 4 -20 8 -20 15 0 8 -19 -9 -23 -14 -4 -13 -5 4 -6
19 -1 22 4 21 34 -1 36 -24 50 -24 15z"/>
<path d="M6340 5620 c0 -11 7 -20 15 -20 21 0 19 -18 -2 -23 -14 -4 -12 -5 5
-6 16 -1 22 5 22 19 0 11 -7 20 -15 20 -21 0 -19 18 3 23 13 4 11 5 -5 6 -17
1 -23 -5 -23 -19z"/>
<path d="M3745 5621 c-3 -5 -1 -12 5 -16 5 -3 10 1 10 9 0 18 -6 21 -15 7z"/>
<path d="M6975 5160 c0 -256 1 -360 2 -233 2 128 2 338 0 465 -1 128 -2 24 -2
-232z"/>
<path d="M3748 5573 c6 -2 18 -2 25 0 6 3 1 5 -13 5 -14 0 -19 -2 -12 -5z"/>
<path d="M8393 5493 c9 -2 23 -2 30 0 6 3 -1 5 -18 5 -16 0 -22 -2 -12 -5z"/>
<path d="M3753 5483 c21 -6 21 -12 0 -35 -15 -17 -15 -18 8 -17 13 0 18 3 11
6 -10 4 -10 8 -2 19 14 16 4 34 -18 33 -15 -1 -15 -2 1 -6z"/>
<path d="M8401 5453 c-10 -26 -10 -27 4 -9 8 11 15 23 15 28 0 15 -7 8 -19
-19z"/>
<path d="M3755 5331 c5 -16 4 -21 -4 -17 -6 4 -11 3 -11 -2 0 -14 28 -23 35
-12 4 6 -1 20 -10 32 l-17 23 7 -24z"/>
<path d="M8384 5276 c-11 -28 0 -61 21 -61 25 0 31 28 11 48 -12 12 -13 17 -3
20 7 3 5 6 -6 6 -10 1 -20 -5 -23 -13z m28 -48 c-6 -6 -15 -9 -18 -5 -4 3 -4
14 0 23 5 13 9 15 18 6 9 -9 9 -15 0 -24z"/>
<path d="M3653 5273 c20 -2 54 -2 75 0 20 2 3 4 -38 4 -41 0 -58 -2 -37 -4z"/>
<path d="M3740 5190 c0 -11 7 -20 15 -20 18 0 20 -17 3 -23 -8 -2 -7 -3 2 -3
20 2 26 36 6 36 -19 0 -21 16 -3 23 7 3 5 6 -5 6 -12 1 -18 -6 -18 -19z"/>
<path d="M830 5128 c0 -5 44 -7 98 -6 100 1 88 5 -31 10 -37 2 -67 0 -67 -4z"/>
<path d="M1158 5123 c57 -2 147 -2 200 0 53 1 7 3 -103 3 -110 0 -154 -2 -97
-3z"/>
<path d="M2018 5123 c292 -2 772 -2 1065 0 292 1 53 2 -533 2 -586 0 -825 -1
-532 -2z"/>
<path d="M8385 5070 c-8 -13 5 -13 25 0 13 8 13 10 -2 10 -9 0 -20 -4 -23 -10z"/>
<path d="M8398 5043 c27 -6 29 -30 2 -36 -17 -4 -16 -4 2 -3 34 2 32 40 -2 43
-22 1 -22 1 -2 -4z"/>
<path d="M3748 4903 c6 -2 18 -2 25 0 6 3 1 5 -13 5 -14 0 -19 -2 -12 -5z"/>
<path d="M9563 4874 c0 -21 2 -31 4 -21 3 9 7 17 10 17 4 0 16 -8 27 -17 21
-18 21 -18 3 4 -11 12 -16 27 -11 34 5 8 3 10 -6 4 -7 -4 -16 -2 -20 5 -5 8
-8 -3 -7 -26z"/>
<path d="M9634 4865 c1 -13 8 -20 24 -21 17 -1 18 -1 3 3 -11 2 -22 12 -24 21
-3 12 -4 11 -3 -3z"/>
<path d="M9752 4848 c1 -24 3 -36 5 -27 2 10 13 19 24 22 20 5 26 31 10 41 -5
4 -7 -3 -4 -14 4 -14 0 -20 -12 -20 -12 0 -16 6 -12 20 3 11 1 20 -3 20 -5 0
-8 -19 -8 -42z"/>
<path d="M9850 4870 c0 -11 -7 -20 -16 -20 -9 0 -12 5 -8 12 4 7 3 8 -5 4 -16
-10 -4 -26 20 -26 14 0 19 7 19 25 0 14 -2 25 -5 25 -3 0 -5 -9 -5 -20z"/>
<path d="M9882 4868 c2 -14 11 -24 23 -25 17 -2 17 -1 2 3 -13 4 -17 12 -14
25 3 10 1 19 -5 19 -5 0 -8 -10 -6 -22z"/>
<path d="M9711 4854 c0 -11 3 -14 6 -6 3 7 2 16 -1 19 -3 4 -6 -2 -5 -13z"/>
<path d="M1208 4843 c441 -2 1163 -2 1605 0 441 1 80 2 -803 2 -883 0 -1244
-1 -802 -2z"/>
<path d="M8410 4833 c0 -6 -8 -14 -17 -16 -16 -4 -16 -5 -1 -6 9 0 18 -9 20
-18 3 -15 5 -15 10 3 3 12 2 28 -3 35 -6 9 -9 10 -9 2z"/>
<path d="M3740 4750 c0 -11 5 -20 11 -20 8 0 8 -4 -1 -15 -7 -8 -34 -15 -68
-17 -31 -2 -1 -4 68 -4 69 1 101 2 72 4 l-53 3 7 35 c5 30 4 34 -15 34 -14 0
-21 -6 -21 -20z m30 0 c0 -5 -4 -10 -10 -10 -5 0 -10 5 -10 10 0 6 5 10 10 10
6 0 10 -4 10 -10z"/>
<path d="M6293 4763 c21 -6 21 -12 -1 -40 -10 -13 -31 -23 -52 -25 -19 -2 25
-4 98 -4 72 -1 132 2 132 6 0 3 -13 5 -30 2 -54 -8 -80 5 -80 39 0 17 -4 28
-10 24 -5 -3 -7 -12 -3 -20 9 -25 -4 -44 -26 -38 -16 4 -19 9 -11 23 16 29 12
40 -12 39 -17 -1 -19 -2 -5 -6z"/>
<path d="M392 4093 l-2 -613 96 0 c69 0 99 -4 110 -14 17 -18 18 -36 2 -36 -9
0 -9 -3 1 -9 11 -7 4 -11 -25 -14 -24 -2 -11 -4 34 -5 64 -2 72 -4 72 -21 0
-11 -5 -23 -10 -26 -7 -4 -7 -12 0 -25 5 -10 10 -28 10 -39 0 -18 -7 -20 -77
-24 l-78 -3 78 -2 77 -2 0 -65 0 -64 -72 -3 -73 -3 -1 -75 -1 -75 4 73 4 72
69 0 70 0 0 -30 0 -30 330 0 330 0 0 151 0 151 35 42 c39 48 44 84 17 109 -27
24 -52 20 -92 -13 l-34 -30 -213 0 c-130 0 -214 4 -218 10 -3 6 -49 10 -104
10 -62 0 -101 4 -109 12 -9 9 -15 9 -24 0 -8 -8 -46 -12 -105 -12 l-93 0 -3
608 -2 607 -3 -612z m990 -590 c10 -9 18 -24 18 -35 0 -28 -168 -222 -173
-200 -4 13 -5 12 -6 -4 0 -12 -13 -33 -27 -48 -15 -14 -21 -26 -15 -26 7 0 27
17 44 37 18 20 47 53 64 72 l33 36 -3 -130 -2 -130 -308 -3 -308 -2 3 192 3
193 58 3 c52 3 58 1 67 -20 l9 -23 0 23 1 22 200 0 c110 0 200 -3 200 -7 0 -5
-18 -21 -40 -37 -22 -17 -40 -34 -40 -38 0 -5 41 25 92 67 51 41 96 75 102 75
5 0 18 -7 28 -17z m-624 -30 l-78 -4 0 -29 c0 -27 -3 -30 -32 -30 -25 0 -29 3
-18 10 10 6 11 10 3 10 -7 0 -13 6 -13 13 0 30 24 37 120 35 l95 -2 -77 -3z"/>
<path d="M1350 3486 c0 -9 -7 -16 -15 -16 -8 0 -15 -7 -15 -15 0 -8 -7 -15
-16 -15 -17 0 -14 -22 4 -28 7 -2 12 3 12 12 0 9 7 16 15 16 8 0 15 7 15 15 0
8 7 15 16 15 9 0 14 5 12 12 -6 18 -28 21 -28 4z"/>
<path d="M710 3413 c0 -21 4 -33 8 -27 4 6 15 13 25 17 9 3 17 16 17 27 0 15
-7 20 -25 20 -22 0 -25 -4 -25 -37z m40 12 c0 -8 -7 -15 -15 -15 -8 0 -15 7
-15 15 0 8 7 15 15 15 8 0 15 -7 15 -15z"/>
<path d="M913 3415 c0 -22 2 -30 4 -17 2 12 2 30 0 40 -3 9 -5 -1 -4 -23z"/>
<path d="M811 3415 c-1 -17 -3 -17 -11 -5 -5 8 -10 11 -10 5 0 -13 20 -43 20
-30 0 6 5 3 10 -5 9 -13 10 -13 9 0 0 8 -4 24 -9 35 l-9 20 0 -20z"/>
<path d="M1063 3340 c-33 -41 -31 -108 3 -149 27 -33 50 -42 40 -16 -3 8 -1
15 5 15 6 0 1 11 -12 24 -27 28 -41 26 -15 -3 11 -12 13 -21 7 -25 -14 -9 -41
47 -41 87 0 36 21 72 41 72 7 0 14 6 17 13 7 23 -23 11 -45 -18z"/>
<path d="M1107 3339 c-20 -17 -37 -36 -37 -42 0 -7 7 -4 14 5 7 10 28 24 47
32 19 9 28 15 21 16 -7 0 -10 5 -7 10 10 16 2 12 -38 -21z"/>
<path d="M1191 3316 c13 -14 26 -23 28 -20 6 6 -30 44 -42 44 -5 0 1 -11 14
-24z"/>
<path d="M740 3283 c0 -6 -8 -14 -17 -16 -16 -4 -16 -5 -1 -6 9 0 19 -9 21
-18 4 -17 5 -17 6 0 0 9 9 17 19 18 13 0 14 2 2 6 -8 3 -18 11 -22 17 -6 8 -8
8 -8 -1z"/>
<path d="M1061 3264 c0 -11 3 -14 6 -6 3 7 2 16 -1 19 -3 4 -6 -2 -5 -13z"/>
<path d="M1130 3265 c0 -8 7 -15 15 -15 8 0 15 7 15 15 0 8 -7 15 -15 15 -8 0
-15 -7 -15 -15z"/>
<path d="M1138 3183 c7 -3 16 -2 19 1 4 3 -2 6 -13 5 -11 0 -14 -3 -6 -6z"/>
<path d="M733 3123 c9 -2 25 -2 35 0 9 3 1 5 -18 5 -19 0 -27 -2 -17 -5z"/>
<path d="M8395 4640 c27 -12 35 -12 35 0 0 6 -12 10 -27 9 -25 0 -26 -1 -8 -9z"/>
<path d="M8396 4621 c-4 -6 0 -11 8 -11 25 0 19 -28 -6 -33 l-23 -4 23 -2 c12
0 25 6 29 15 7 19 -21 51 -31 35z"/>
<path d="M3718 4473 c6 -2 12 -13 12 -23 0 -10 -6 -21 -12 -23 -7 -3 -4 -6 8
-6 17 -1 20 4 16 29 -3 20 -10 30 -21 29 -10 0 -11 -2 -3 -6z"/>
<path d="M3775 4450 c0 -16 5 -30 11 -30 6 0 9 13 6 30 -2 17 -7 30 -11 30 -3
0 -6 -13 -6 -30z"/>
<path d="M8385 4430 c-3 -5 0 -7 8 -4 25 9 30 -16 8 -40 -28 -29 -27 -36 7
-35 16 1 20 3 10 6 -22 6 -22 12 -2 35 14 14 14 20 4 33 -14 17 -26 19 -35 5z"/>
<path d="M3715 4330 c-3 -5 -1 -10 4 -10 15 0 14 -27 -1 -33 -7 -3 -4 -6 8 -6
17 -1 20 4 16 29 -4 30 -16 39 -27 20z"/>
<path d="M3779 4331 c8 -5 10 -14 6 -21 -5 -9 -4 -11 3 -6 18 11 14 36 -5 36
-14 0 -15 -2 -4 -9z"/>
<path d="M7902 3913 l-2 -433 855 0 855 0 0 -1640 0 -1640 -3640 0 -3640 0 0
65 0 65 3613 3 3612 2 -3612 3 -3613 2 0 30 0 30 3575 0 3575 0 -2 1473 -3
1472 -2 -1468 -3 -1467 -3570 0 -3570 0 0 570 0 570 70 0 70 0 0 1070 0 1070
570 3 570 2 -572 0 -573 0 -3 -1067 -2 -1068 -65 0 -65 0 -3 1283 -2 1282 -3
-1282 -2 -1283 -780 0 c-687 0 -780 2 -780 15 0 22 -48 19 -87 -5 -41 -25 -91
-93 -99 -136 -8 -43 19 -122 53 -154 28 -26 23 -10 -7 25 -26 30 -43 91 -35
128 15 70 89 147 142 147 l23 0 0 -170 c0 -185 3 -178 -59 -160 -25 7 -32 7
-24 -1 6 -6 29 -13 52 -16 33 -5 41 -3 41 10 0 13 14 17 68 20 l67 3 -67 2
-68 2 0 140 0 140 780 0 780 0 0 -570 0 -569 -73 -4 -72 -3 73 -2 72 -2 0 -29
c0 -26 -4 -30 -32 -34 l-33 -4 33 -1 32 -2 0 -70 0 -70 3650 0 3650 0 0 1650
0 1650 -855 0 -855 0 -3 428 -2 427 -3 -432z"/>
<path d="M3778 4283 c7 -3 16 -2 19 1 4 3 -2 6 -13 5 -11 0 -14 -3 -6 -6z"/>
<path d="M8390 4205 c-9 -11 -10 -16 -2 -11 8 5 12 -1 12 -23 0 -16 -6 -31
-12 -34 -7 -3 -4 -5 7 -5 11 0 31 -3 45 -7 l25 -7 -25 14 c-18 10 -26 24 -30
52 -5 37 -6 38 -20 21z"/>
<path d="M3771 4194 c0 -11 3 -14 6 -6 3 7 2 16 -1 19 -3 4 -6 -2 -5 -13z"/>
<path d="M3716 4191 c-4 -5 0 -11 6 -14 27 -10 -8 -42 -53 -49 -43 -6 -43 -6
6 -2 28 2 55 4 60 5 6 1 9 17 7 36 -4 32 -15 42 -26 24z"/>
<path d="M3790 4173 c0 -7 -7 -10 -15 -7 -22 9 -18 -3 4 -16 23 -12 34 -1 20
20 -5 10 -9 11 -9 3z"/>
<path d="M3768 4123 c7 -3 16 -2 19 1 4 3 -2 6 -13 5 -11 0 -14 -3 -6 -6z"/>
<path d="M8348 4123 c7 -3 16 -2 19 1 4 3 -2 6 -13 5 -11 0 -14 -3 -6 -6z"/>
<path d="M7475 3480 l0 -645 173 -3 172 -2 0 -35 c0 -19 2 -35 4 -35 2 0 34
13 70 30 l66 29 0 -24 c0 -13 5 -27 10 -30 6 -4 10 8 10 29 l0 36 245 0 245 0
0 -30 0 -31 148 3 147 3 3 28 3 27 100 0 99 0 0 -30 c0 -38 9 -38 48 3 l33 34
-40 44 -40 44 -1 -42 0 -43 -100 0 -100 0 0 30 0 30 -150 0 -150 0 0 -30 0
-30 -245 0 -245 0 0 40 c0 22 -4 40 -10 40 -5 0 -10 -13 -10 -30 0 -16 -2 -30
-5 -30 -3 0 -32 14 -65 30 -33 17 -62 30 -65 30 -3 0 -5 -18 -5 -40 l0 -40
-170 0 -170 0 -3 643 -2 642 0 -645z m415 -610 c22 -11 40 -23 40 -25 0 -3
-20 -5 -45 -5 -41 0 -45 2 -45 25 0 30 1 30 50 5z m858 -35 l3 -46 -133 3
-133 3 -3 33 c-6 57 -5 57 134 55 l129 -2 3 -46z m270 -22 c-32 -34 -38 -29
-38 29 l0 52 30 -29 30 -29 -22 -23z m-1123 -3 c-52 -24 -55 -24 -55 0 0 17 6
20 48 19 l47 0 -40 -19z"/>
<path d="M8044 3835 c0 -159 2 -223 3 -142 2 82 2 212 0 290 -1 78 -3 12 -3
-148z"/>
<path d="M3720 4050 c-10 -6 -11 -10 -2 -10 6 0 12 -9 12 -19 0 -11 -6 -22
-12 -24 -7 -3 -4 -6 7 -6 18 -1 20 4 17 34 -2 19 -5 35 -6 35 0 0 -8 -5 -16
-10z"/>
<path d="M3769 4058 c-7 -25 -5 -36 7 -31 8 3 14 -1 14 -10 0 -8 -6 -18 -12
-20 -8 -3 -6 -6 5 -6 12 -1 17 7 17 24 0 17 -6 25 -17 26 -15 0 -15 2 2 9 17
7 17 9 3 9 -10 1 -18 0 -19 -1z"/>
<path d="M2718 3973 c167 -2 437 -2 600 0 163 1 27 2 -303 2 -330 0 -464 -1
-297 -2z"/>
<path d="M6788 3973 c7 -3 16 -2 19 1 4 3 -2 6 -13 5 -11 0 -14 -3 -6 -6z"/>
<path d="M6893 3973 c26 -2 68 -2 95 0 26 2 4 3 -48 3 -52 0 -74 -1 -47 -3z"/>
<path d="M3770 3905 c-16 -19 -9 -49 13 -53 12 -3 17 3 17 22 0 14 -6 26 -12
26 -9 0 -8 4 2 10 8 5 10 10 4 10 -6 0 -17 -7 -24 -15z m20 -31 c0 -8 -5 -12
-10 -9 -6 4 -8 11 -5 16 9 14 15 11 15 -7z"/>
<path d="M3715 3900 c-3 -5 -1 -10 4 -10 15 0 14 -27 -1 -33 -7 -3 -4 -6 8 -6
17 -1 20 4 16 29 -4 30 -16 39 -27 20z"/>
<path d="M3715 3760 c-3 -5 -1 -10 4 -10 15 0 14 -27 -1 -33 -7 -3 -4 -6 8 -6
17 -1 20 4 16 29 -4 30 -16 39 -27 20z"/>
<path d="M3778 3763 c6 -2 18 -2 25 0 6 3 1 5 -13 5 -14 0 -19 -2 -12 -5z"/>
<path d="M6298 3758 c17 -17 15 -36 -5 -41 -14 -4 -12 -5 5 -6 18 -1 22 4 22
29 0 22 -5 30 -17 30 -13 0 -14 -3 -5 -12z"/>
<path d="M6351 3770 c-2 -3 -4 -17 -5 -32 -1 -22 3 -28 19 -28 12 0 16 3 9 8
-7 4 -14 18 -17 32 -2 14 -5 23 -6 20z"/>
<path d="M3780 3730 c-6 -11 -8 -20 -6 -20 3 0 10 9 16 20 6 11 8 20 6 20 -3
0 -10 -9 -16 -20z"/>
<path d="M3717 3623 c-11 -10 -8 -25 3 -18 14 9 12 -19 -2 -33 -9 -9 -8 -12 8
-12 17 0 19 5 16 35 -4 34 -11 42 -25 28z"/>
<path d="M3760 3616 c0 -7 7 -19 15 -26 8 -7 12 -17 8 -23 -3 -6 -1 -7 5 -3 7
4 12 20 12 37 0 22 -5 29 -20 29 -11 0 -20 -6 -20 -14z m30 -6 c0 -5 -4 -10
-10 -10 -5 0 -10 5 -10 10 0 6 5 10 10 10 6 0 10 -4 10 -10z"/>
<path d="M6288 3623 c6 -2 10 -9 6 -14 -3 -5 0 -9 5 -9 6 0 11 -7 11 -15 0 -9
-6 -12 -17 -8 -11 4 -14 3 -9 -5 4 -7 14 -12 22 -12 11 0 14 10 12 35 -2 28
-6 35 -23 34 -11 0 -14 -3 -7 -6z"/>
<path d="M6353 3623 c21 -6 22 -17 2 -33 -22 -18 -18 -30 8 -29 19 0 20 1 4 8
-17 6 -17 8 -3 20 23 20 20 41 -6 40 -17 -1 -19 -2 -5 -6z"/>
<path d="M6460 3550 c0 -5 7 -10 15 -10 8 0 15 5 15 10 0 6 -7 10 -15 10 -8 0
-15 -4 -15 -10z"/>
<path d="M6268 3543 c34 -2 90 -2 125 0 34 2 6 3 -63 3 -69 0 -97 -1 -62 -3z"/>
<path d="M3715 3480 c-3 -6 1 -7 9 -4 20 8 21 -10 1 -26 -22 -18 -18 -30 8
-29 12 0 16 3 9 6 -10 4 -10 8 -1 19 12 15 6 44 -10 44 -5 0 -13 -4 -16 -10z"/>
<path d="M3769 3474 c-9 -11 -10 -20 -3 -32 20 -30 34 -25 34 12 0 39 -10 45
-31 20z m21 -21 c0 -20 -3 -24 -11 -16 -7 7 -9 19 -6 27 10 24 17 19 17 -11z"/>
<path d="M6288 3483 c6 -2 10 -9 6 -14 -3 -5 0 -9 5 -9 6 0 11 -7 11 -16 0
-10 -6 -14 -15 -10 -8 3 -15 1 -15 -4 0 -6 9 -10 20 -10 17 0 20 6 17 35 -1
28 -6 35 -22 34 -11 0 -14 -3 -7 -6z"/>
<path d="M6356 3471 c4 -16 3 -21 -5 -17 -16 10 -14 -3 3 -19 21 -21 28 5 10
36 l-15 24 7 -24z"/>
<path d="M7760 3408 c0 -5 404 -7 898 -6 493 2 753 4 577 5 -838 7 -1475 7
-1475 1z"/>
<path d="M1491 3363 c1 -21 3 -30 6 -20 2 9 8 15 13 12 5 -3 12 0 16 6 4 8 3
9 -4 5 -7 -4 -12 -1 -12 8 0 8 -4 18 -10 21 -6 4 -10 -9 -9 -32z"/>
<path d="M1537 3393 c-2 -5 0 -21 4 -38 7 -29 7 -29 8 8 1 35 -3 46 -12 30z"/>
<path d="M1589 3393 c-1 -5 0 -16 1 -27 1 -10 -4 -23 -12 -27 -9 -6 -8 -9 7
-9 18 0 20 5 17 35 -4 32 -10 46 -13 28z"/>
<path d="M590 3349 c0 -5 5 -7 10 -4 6 3 15 3 21 -1 7 -4 0 -17 -17 -35 l-28
-29 35 1 c25 1 28 3 11 6 l-24 5 22 23 c12 13 19 28 15 34 -8 14 -45 14 -45 0z"/>
<path d="M7820 3271 c0 -5 9 -7 20 -4 26 7 27 -15 1 -25 -18 -6 -17 -8 8 -27
20 -15 23 -15 12 -2 -11 13 -11 20 -1 32 6 8 9 19 5 25 -8 12 -45 13 -45 1z"/>
<path d="M1491 3225 c1 -40 1 -40 11 -12 7 21 7 32 -1 40 -8 8 -11 0 -10 -28z"/>
<path d="M1536 3252 c-2 -4 -1 -23 4 -42 l8 -35 1 43 c1 41 -3 50 -13 34z"/>
<path d="M1848 3253 c6 -2 18 -2 25 0 6 3 1 5 -13 5 -14 0 -19 -2 -12 -5z"/>
<path d="M7892 3251 c-22 -14 -10 -46 18 -48 21 -2 22 -1 5 5 -23 8 -27 33 -6
40 8 3 11 0 7 -7 -4 -6 -2 -11 4 -11 13 0 8 22 -6 27 -5 1 -15 -1 -22 -6z"/>
<path d="M7957 3253 c-4 -3 -7 -17 -7 -30 0 -16 6 -23 18 -22 10 0 12 3 5 6
-7 2 -13 13 -13 23 0 10 6 21 13 23 6 3 7 6 1 6 -6 1 -14 -2 -17 -6z"/>
<path d="M1577 3233 c-11 -10 -8 -41 4 -49 6 -3 18 1 27 9 13 13 13 19 2 31
-14 17 -23 20 -33 9z m28 -23 c0 -7 -6 -15 -12 -17 -8 -3 -13 4 -13 17 0 13 5
20 13 18 6 -3 12 -11 12 -18z"/>
<path d="M1638 3233 c7 -3 16 -2 19 1 4 3 -2 6 -13 5 -11 0 -14 -3 -6 -6z"/>
<path d="M1677 3234 c-4 -4 -7 -14 -7 -23 1 -14 2 -13 11 2 5 9 14 17 19 17
13 0 13 -37 0 -43 -6 -3 -5 -4 2 -3 19 4 16 50 -2 54 -9 1 -19 0 -23 -4z"/>
<path d="M1741 3206 c1 -21 3 -25 6 -11 3 11 9 25 14 31 5 7 3 11 -6 11 -10 0
-15 -10 -14 -31z"/>
<path d="M1907 3234 c-4 -4 -7 -17 -6 -28 0 -20 1 -20 9 2 5 12 14 22 20 22 6
0 8 -4 5 -10 -3 -5 -1 -10 5 -10 16 0 6 24 -11 28 -8 1 -18 0 -22 -4z"/>
<path d="M1971 3211 c0 -16 3 -20 6 -11 3 8 10 20 14 26 5 7 3 11 -6 11 -10 0
-15 -10 -14 -26z"/>
<path d="M2070 3225 c-11 -13 -11 -19 3 -33 20 -19 41 -5 35 24 -4 24 -22 28
-38 9z m30 -15 c0 -21 -15 -27 -25 -10 -7 12 2 30 16 30 5 0 9 -9 9 -20z"/>
<path d="M8583 3229 c21 -12 23 -33 2 -25 -8 3 -15 1 -15 -4 0 -13 27 -13 35
0 8 13 -12 40 -29 40 -6 0 -3 -5 7 -11z"/>
<path d="M8636 3231 c-4 -5 3 -7 14 -4 27 7 26 -14 -2 -44 -12 -13 -17 -23
-12 -23 15 1 46 50 40 66 -6 16 -32 19 -40 5z"/>
<path d="M1517 3223 c-4 -3 -7 -11 -7 -17 0 -6 5 -5 12 2 6 6 9 14 7 17 -3 3
-9 2 -12 -2z"/>
<path d="M598 3213 c12 -2 20 -9 16 -14 -3 -6 -1 -16 6 -24 12 -15 -3 -31 -20
-20 -5 3 -10 1 -10 -5 0 -6 10 -10 23 -8 18 2 22 9 22 40 0 36 -2 38 -30 37
-24 -1 -25 -3 -7 -6z"/>
<path d="M1870 3206 c0 -8 -8 -17 -17 -19 -14 -4 -12 -5 5 -6 16 -1 22 5 22
19 0 11 -2 20 -5 20 -3 0 -5 -6 -5 -14z"/>
<path d="M2020 3200 c0 -5 5 -10 10 -10 6 0 10 5 10 10 0 6 -4 10 -10 10 -5 0
-10 -4 -10 -10z"/>
<path d="M1640 3190 c0 -5 5 -10 11 -10 5 0 7 5 4 10 -3 6 -8 10 -11 10 -2 0
-4 -4 -4 -10z"/>
<path d="M7880 3070 c0 -35 3 -40 23 -39 16 1 18 2 5 6 -21 5 -24 29 -5 36 10
4 10 6 0 6 -19 1 -16 19 5 24 13 4 11 5 -5 6 -20 1 -23 -4 -23 -39z"/>
<path d="M7940 3070 c0 -32 4 -40 18 -39 10 0 12 3 5 6 -7 2 -13 17 -13 33 0
16 6 31 13 33 7 3 5 6 -5 6 -14 1 -18 -7 -18 -39z"/>
<path d="M8395 3091 c-3 -7 0 -8 9 -5 21 8 22 -29 1 -46 -22 -18 -18 -30 8
-29 18 1 18 2 4 6 -17 4 -17 6 -2 23 18 20 17 51 -2 57 -6 2 -14 -1 -18 -6z"/>
<path d="M8454 3088 c-5 -8 -2 -9 11 -5 9 4 25 2 34 -5 14 -12 14 -11 2 5 -16
20 -37 22 -47 5z"/>
<path d="M8530 3081 c-13 -26 -13 -34 5 -57 14 -18 15 -17 4 7 -8 20 -8 32 0
48 7 11 9 21 7 21 -3 0 -10 -9 -16 -19z"/>
<path d="M8713 3060 c0 -25 2 -35 4 -23 2 12 12 24 21 26 16 4 16 5 0 6 -9 0
-19 9 -21 19 -3 9 -5 -3 -4 -28z"/>
<path d="M8643 3054 c-7 -19 20 -49 36 -40 6 4 11 18 11 32 0 17 -5 24 -20 24
-11 0 -23 -7 -27 -16z m37 -14 c0 -21 -15 -27 -25 -10 -7 12 2 30 16 30 5 0 9
-9 9 -20z"/>
<path d="M8786 3063 c7 -4 14 -17 17 -28 4 -18 5 -18 6 3 1 30 29 28 34 -3 4
-23 4 -23 3 2 -1 24 -5 28 -36 31 -19 1 -30 -1 -24 -5z"/>
<path d="M8470 3035 l-23 -25 34 1 c25 1 28 3 11 6 -23 4 -23 5 -6 24 26 28
11 23 -16 -6z"/>
<path d="M7828 3033 c6 -2 18 -2 25 0 6 3 1 5 -13 5 -14 0 -19 -2 -12 -5z"/>
<path d="M8056 2968 c3 -5 -11 -27 -32 -49 -21 -21 -33 -39 -27 -39 6 0 27 18
46 39 33 37 36 38 40 18 3 -16 5 -14 6 8 1 24 -3 31 -19 32 -12 1 -18 -3 -14
-9z"/>
<path d="M8110 2970 c0 -5 7 -7 15 -4 25 10 17 -8 -22 -51 l-38 -40 40 38 c46
42 52 44 58 20 3 -12 5 -9 6 8 1 20 -5 28 -21 33 -32 8 -38 7 -38 -4z"/>
<path d="M9158 2873 c7 -3 16 -2 19 1 4 3 -2 6 -13 5 -11 0 -14 -3 -6 -6z"/>
<path d="M9211 2843 c1 -24 3 -30 6 -15 2 12 9 19 15 16 6 -4 6 2 -1 15 -17
30 -21 26 -20 -16z"/>
<path d="M9248 2850 c-3 -16 -1 -35 4 -42 4 -8 8 4 8 30 0 49 -6 55 -12 12z"/>
<path d="M9290 2841 c0 -23 4 -41 8 -41 4 0 6 16 4 35 -4 33 10 48 21 25 3 -6
4 -5 3 2 -1 7 -10 14 -19 16 -14 3 -17 -5 -17 -37z"/>
<path d="M9143 2820 c4 -18 37 -27 37 -10 0 6 -5 8 -11 4 -6 -3 -16 0 -21 7
-8 12 -9 11 -5 -1z"/>
<path d="M7779 2513 c-12 -16 -12 -17 2 -6 9 7 20 9 24 5 5 -4 5 -1 1 6 -9 16
-11 15 -27 -5z"/>
<path d="M7831 2473 c0 -16 3 -22 6 -13 3 8 10 21 16 28 7 8 5 12 -7 12 -11 0
-16 -8 -15 -27z"/>
<path d="M7880 2470 c0 -25 4 -30 23 -29 16 1 18 2 5 6 -22 5 -24 23 -3 23 8
0 15 7 15 15 0 8 -9 15 -20 15 -16 0 -20 -7 -20 -30z"/>
<path d="M7940 2470 c0 -22 5 -30 18 -29 10 0 12 3 5 6 -18 7 -16 21 5 26 14
4 14 5 -3 7 l-20 1 20 9 c19 8 19 9 -2 9 -19 1 -23 -4 -23 -29z"/>
<path d="M8016 2492 c7 -4 14 -16 17 -27 4 -15 5 -14 6 8 1 20 -4 27 -16 27
-12 0 -14 -3 -7 -8z"/>
<path d="M7761 2484 c-2 -19 26 -47 40 -41 11 4 11 6 -2 6 -9 1 -21 11 -27 24
-6 12 -11 17 -11 11z"/>
<path d="M8583 2444 c19 -6 17 -31 -2 -26 -17 3 -13 -12 7 -24 15 -10 17 -7
17 20 0 23 -5 31 -20 33 -17 1 -17 1 -2 -3z"/>
<path d="M8647 2443 c-2 -5 0 -21 4 -38 7 -29 7 -29 8 8 1 35 -3 46 -12 30z"/>
<path d="M7867 2353 c-4 -3 -7 -24 -7 -45 0 -35 2 -38 28 -37 23 2 24 2 5 6
-27 5 -31 30 -5 36 16 4 16 5 0 6 -26 2 -22 29 5 34 20 4 20 4 1 6 -11 0 -24
-2 -27 -6z"/>
<path d="M7930 2315 c0 -46 13 -58 38 -33 14 14 16 44 4 52 -4 2 -8 -7 -7 -21
0 -14 -6 -28 -14 -31 -10 -3 -12 5 -9 37 2 22 0 41 -4 41 -5 0 -8 -20 -8 -45z"/>
<path d="M8402 2303 c9 -2 19 -12 21 -21 3 -12 5 -10 6 6 1 17 -4 22 -21 21
-16 -1 -18 -3 -6 -6z"/>
<path d="M8456 2301 c-4 -5 2 -7 13 -4 27 7 34 -11 11 -32 -11 -10 -20 -22
-20 -27 0 -5 12 4 26 21 14 17 23 35 19 41 -8 12 -42 13 -49 1z"/>
<path d="M8530 2300 c0 -5 7 -7 15 -4 8 4 15 8 15 10 0 2 -7 4 -15 4 -8 0 -15
-4 -15 -10z"/>
<path d="M8712 2270 c0 -35 2 -40 7 -20 4 14 13 24 19 23 7 -2 12 2 12 8 0 6
-6 9 -14 6 -9 -4 -17 1 -19 11 -3 9 -5 -3 -5 -28z"/>
<path d="M8650 2274 c-10 -11 -11 -20 -3 -32 17 -27 38 -20 38 12 0 34 -16 44
-35 20z m30 -19 c0 -26 -14 -33 -25 -15 -9 14 1 40 15 40 5 0 10 -11 10 -25z"/>
<path d="M8780 2278 c0 -5 5 -6 10 -3 6 4 10 -6 11 -22 1 -26 1 -26 7 -5 4 13
12 23 17 23 6 0 13 -10 17 -23 5 -20 6 -20 7 -3 0 11 -3 25 -7 30 -9 13 -62
16 -62 3z"/>
<path d="M7818 2273 c6 -2 18 -2 25 0 6 3 1 5 -13 5 -14 0 -19 -2 -12 -5z"/>
<path d="M8521 2269 c-1 -8 6 -24 15 -35 15 -19 15 -19 6 1 -5 11 -12 27 -15
35 -5 13 -6 13 -6 -1z"/>
<path d="M8399 2243 c-13 -16 -12 -17 4 -4 16 13 21 21 13 21 -2 0 -10 -8 -17
-17z"/>
<path d="M8055 2181 c11 -4 23 -19 26 -32 6 -21 7 -20 8 9 1 29 -2 32 -26 31
-24 0 -25 -2 -8 -8z"/>
<path d="M8123 2184 c24 -7 22 -13 -20 -59 l-38 -40 40 38 c46 42 52 44 59 20
2 -10 4 -4 3 12 -2 26 -6 30 -32 32 -16 1 -22 -1 -12 -3z"/>
<path d="M8025 2130 c-22 -22 -35 -40 -29 -40 13 0 79 68 73 75 -3 2 -23 -13
-44 -35z"/>
<path d="M7820 2090 l0 -39 -67 -4 -68 -3 68 -2 c66 -2 67 -2 67 -30 0 -16 3
-31 6 -35 4 -3 33 7 65 23 32 17 61 30 64 30 3 0 5 -11 5 -25 0 -14 5 -25 10
-25 6 0 10 13 10 30 0 29 0 29 68 33 l67 3 -67 2 -68 2 0 40 c0 22 -4 40 -10
40 -5 0 -10 -13 -10 -30 0 -16 -3 -30 -7 -30 -5 0 -30 14 -58 30 -67 39 -75
38 -75 -10z m70 -10 c22 -11 40 -23 40 -25 0 -3 -20 -5 -45 -5 -41 0 -45 2
-45 25 0 30 1 30 50 5z m1 -60 c-53 -24 -51 -24 -51 0 0 17 7 20 48 20 l47 0
-44 -20z"/>
<path d="M8970 2093 c0 -41 -1 -42 -37 -46 l-38 -4 38 -1 c34 -2 37 -4 37 -32
0 -39 9 -38 49 4 l34 35 -42 43 -41 43 0 -42z m56 -35 c5 -18 -23 -58 -41 -58
-3 0 -5 25 -5 57 0 55 0 56 20 38 11 -10 22 -26 26 -37z"/>
<path d="M8468 2083 c-2 -22 -10 -29 -33 -34 l-30 -7 33 -1 c29 -1 32 -4 32
-31 l0 -31 148 3 147 3 3 27 c3 22 9 28 35 31 l32 4 -32 1 c-30 2 -33 5 -33
32 l0 30 -149 0 -150 0 -3 -27z m282 -33 l0 -51 -132 3 -133 3 -3 33 c-6 62
-5 62 138 62 l130 0 0 -50z"/>
<path d="M9146 2081 c-4 -5 3 -7 14 -4 23 6 26 13 6 13 -8 0 -17 -4 -20 -9z"/>
<path d="M9211 2053 c1 -24 3 -30 6 -15 2 12 9 19 15 16 6 -4 6 2 -1 15 -17
30 -21 26 -20 -16z"/>
<path d="M9248 2060 c-3 -17 -1 -33 4 -36 4 -3 8 11 8 30 0 44 -6 47 -12 6z"/>
<path d="M9292 2053 l1 -38 4 33 c3 25 8 32 19 28 9 -3 12 -1 9 4 -3 6 -13 10
-21 10 -10 0 -14 -11 -12 -37z"/>
<path d="M622 1838 l1 -43 4 37 c3 24 10 38 21 41 12 3 11 5 -5 6 -21 1 -23
-3 -21 -41z"/>
<path d="M703 1873 c9 -2 23 -2 30 0 6 3 -1 5 -18 5 -16 0 -22 -2 -12 -5z"/>
<path d="M769 1863 c-8 -10 -9 -14 -2 -10 8 5 13 -3 16 -25 3 -29 4 -28 5 10
2 47 0 49 -19 25z"/>
<path d="M650 1810 c-9 -6 -10 -10 -3 -10 6 0 15 5 18 10 8 12 4 12 -15 0z"/>
<path d="M550 1701 c0 -44 15 -61 35 -40 20 21 8 79 -16 79 -15 0 -19 -7 -19
-39z m30 14 c0 -8 -4 -15 -10 -15 -5 0 -10 7 -10 15 0 8 5 15 10 15 6 0 10 -7
10 -15z m8 -37 c-6 -18 -28 -21 -28 -4 0 9 7 16 16 16 9 0 14 -5 12 -12z"/>
<path d="M624 1681 c1 -24 26 -44 26 -21 0 6 -4 9 -9 5 -5 -3 -12 5 -14 17 -4
21 -4 21 -3 -1z"/>
<path d="M651 1694 c0 -11 3 -14 6 -6 3 7 2 16 -1 19 -3 4 -6 -2 -5 -13z"/>
<path d="M688 1703 c6 -2 18 -2 25 0 6 3 1 5 -13 5 -14 0 -19 -2 -12 -5z"/>
<path d="M743 1703 c9 -2 15 -9 12 -14 -10 -15 1 -10 15 6 11 13 8 15 -16 14
-17 -1 -22 -3 -11 -6z"/>
<path d="M800 1686 c0 -14 4 -27 9 -30 4 -3 6 5 4 18 -4 17 0 25 14 29 15 4
14 5 -4 6 -18 1 -23 -4 -23 -23z"/>
<path d="M868 1703 c7 -3 16 -2 19 1 4 3 -2 6 -13 5 -11 0 -14 -3 -6 -6z"/>
<path d="M680 1659 c0 -5 9 -9 20 -9 11 0 20 2 20 4 0 2 -9 6 -20 9 -11 3 -20
1 -20 -4z"/>
<path d="M748 1658 c5 -5 16 -8 23 -6 8 3 3 7 -10 11 -17 4 -21 3 -13 -5z"/>
<path d="M823 1633 c22 -6 22 -12 -5 -40 l-21 -23 29 1 c22 0 25 2 11 8 -17 6
-17 8 2 25 24 22 19 36 -12 35 -17 -1 -18 -2 -4 -6z"/>
<path d="M7760 1555 l0 -74 -72 -4 -73 -3 73 -2 72 -2 0 -100 0 -99 -72 -4
-73 -3 73 -2 72 -2 0 -100 0 -100 -25 0 c-25 0 -29 9 -28 73 0 12 -8 17 -26
16 -18 -1 -21 -3 -8 -6 11 -3 16 -11 13 -19 -3 -8 -1 -14 4 -14 6 0 10 -10 10
-21 0 -17 -5 -20 -21 -16 -12 3 -18 3 -14 -1 3 -4 25 -12 48 -17 l42 -11 3
-97 3 -97 -73 -2 -73 -2 70 -5 70 -6 3 -72 3 -73 609 0 610 0 0 470 0 470
-610 0 -610 0 0 -75z m1210 -395 l0 -460 -600 0 -600 0 0 460 0 460 600 0 600
0 0 -460z"/>
<path d="M7820 1511 c0 -5 9 -7 20 -4 11 3 20 7 20 9 0 2 -9 4 -20 4 -11 0
-20 -4 -20 -9z"/>
<path d="M7891 1483 c1 -24 3 -30 6 -15 2 12 9 19 15 16 6 -4 6 2 -1 15 -17
30 -21 26 -20 -16z"/>
<path d="M7928 1490 c-3 -17 -1 -33 4 -36 4 -3 8 11 8 30 0 44 -6 47 -12 6z"/>
<path d="M7978 1513 c7 -3 16 -2 19 1 4 3 -2 6 -13 5 -11 0 -14 -3 -6 -6z"/>
<path d="M7971 1484 c0 -11 3 -14 6 -6 3 7 2 16 -1 19 -3 4 -6 -2 -5 -13z"/>
<path d="M7851 1464 c0 -11 3 -14 6 -6 3 7 2 16 -1 19 -3 4 -6 -2 -5 -13z"/>
<path d="M7886 1294 c-9 -8 -16 -20 -16 -26 0 -6 1 -9 3 -7 1 2 11 14 21 27
22 25 16 30 -8 6z"/>
<path d="M7952 1270 c0 -19 2 -27 5 -17 2 9 2 25 0 35 -3 9 -5 1 -5 -18z"/>
<path d="M7828 1083 c6 -2 18 -2 25 0 6 3 1 5 -13 5 -14 0 -19 -2 -12 -5z"/>
<path d="M7880 1055 c0 -28 4 -35 19 -35 11 0 22 4 25 9 4 5 -3 7 -14 4 -16
-4 -20 0 -20 21 0 30 16 34 37 9 13 -16 13 -16 3 5 -6 12 -20 22 -30 22 -16 0
-20 -7 -20 -35z"/>
<path d="M7957 1053 c-4 -3 -7 -13 -7 -22 1 -13 3 -13 11 2 11 19 8 33 -4 20z"/>
<path d="M7850 1041 c0 -5 -8 -12 -17 -14 -14 -4 -12 -5 5 -6 13 -1 22 5 22
14 0 8 -2 15 -5 15 -3 0 -5 -4 -5 -9z"/>
<path d="M7820 871 c0 -5 9 -7 20 -4 11 3 20 7 20 9 0 2 -9 4 -20 4 -11 0 -20
-4 -20 -9z"/>
<path d="M7890 865 c-18 -21 -4 -65 20 -65 10 0 21 4 24 8 3 5 -5 8 -17 8 -28
-1 -36 33 -11 51 10 7 13 13 7 13 -6 0 -16 -7 -23 -15z"/>
<path d="M7962 843 c-2 -35 1 -43 16 -43 11 0 13 3 5 8 -6 4 -13 23 -16 42 -4
33 -4 33 -5 -7z"/>
<path d="M7833 839 c9 -5 17 -14 17 -19 0 -5 -8 -11 -17 -13 -17 -4 -17 -5 0
-6 22 -1 34 28 16 40 -8 5 -18 9 -24 9 -5 -1 -2 -5 8 -11z"/>
<path d="M7672 1564 c-7 -8 -8 -14 -2 -14 14 0 13 -47 -2 -53 -7 -3 1 -6 17
-6 17 0 25 3 18 7 -6 4 -13 24 -15 44 -2 30 -5 34 -16 22z"/>
<path d="M7335 1090 c0 -217 1 -306 2 -197 2 108 2 286 0 395 -1 108 -2 19 -2
-198z"/>
<path d="M3524 1436 c-3 -8 -4 -25 -1 -38 3 -18 5 -16 6 9 1 21 7 33 19 36 16
4 16 5 -1 6 -10 0 -20 -5 -23 -13z"/>
<path d="M3591 1408 c2 -31 3 -35 6 -15 3 15 9 25 15 21 6 -4 6 2 -1 15 -17
31 -21 26 -20 -21z"/>
<path d="M3628 1420 c-3 -16 -1 -35 4 -42 4 -8 8 4 8 30 0 49 -6 55 -12 12z"/>
<path d="M3670 1410 c0 -22 4 -40 9 -40 13 0 41 29 41 42 0 6 -9 0 -21 -13
l-20 -24 3 38 c2 20 0 37 -4 37 -4 0 -8 -18 -8 -40z"/>
<path d="M815 1343 c-16 -13 -17 -15 -2 -10 12 5 17 1 17 -13 0 -10 -8 -24
-17 -29 -16 -9 -14 -10 9 -11 15 0 30 5 33 10 3 6 2 10 -4 10 -5 0 -11 13 -13
29 -3 28 -4 29 -23 14z"/>
<path d="M7666 1351 c-4 -5 3 -7 14 -4 27 7 26 -14 -2 -44 l-21 -23 29 1 c23
0 25 2 11 8 -17 6 -17 8 -3 20 23 19 21 51 -3 51 -11 0 -22 -4 -25 -9z"/>
<path d="M7638 1053 c7 -3 16 -2 19 1 4 3 -2 6 -13 5 -11 0 -14 -3 -6 -6z"/>
<path d="M7667 897 c-5 -13 -1 -20 16 -26 29 -11 36 -6 29 22 -5 18 -7 19 -10
5 -2 -10 -7 -18 -12 -18 -5 0 -10 8 -12 18 -3 16 -4 16 -11 -1z"/>
<path d="M8077 555 c-18 -13 -23 -50 -8 -59 5 -4 7 3 4 14 -7 25 13 51 33 43
8 -3 14 -3 14 0 0 12 -27 14 -43 2z"/>
<path d="M8142 528 l1 -43 4 38 c3 29 8 37 19 33 9 -3 12 -1 9 4 -3 6 -13 10
-21 10 -10 0 -14 -11 -12 -42z"/>
<path d="M8262 528 l1 -43 4 38 c4 40 11 44 33 25 12 -11 12 -10 1 5 -24 31
-41 21 -39 -25z"/>
<path d="M8493 530 c0 -25 2 -35 4 -22 2 12 2 32 0 45 -2 12 -4 2 -4 -23z"/>
<path d="M8703 530 c0 -25 2 -35 4 -22 2 12 2 32 0 45 -2 12 -4 2 -4 -23z"/>
<path d="M8746 562 c-2 -4 4 -8 14 -8 10 0 16 4 14 8 -3 4 -9 8 -14 8 -5 0
-11 -4 -14 -8z"/>
<path d="M8812 558 c-7 -7 -11 -23 -11 -37 1 -24 2 -24 8 4 4 20 12 30 24 29
9 -1 14 2 11 7 -7 12 -18 11 -32 -3z"/>
<path d="M8342 515 c0 -16 2 -22 5 -12 2 9 2 23 0 30 -3 6 -5 -1 -5 -18z"/>
<path d="M8370 529 c0 -6 7 -17 15 -25 8 -9 15 -11 15 -5 0 5 -5 13 -11 17 -8
4 -7 9 2 15 11 7 10 9 -3 9 -10 0 -18 -5 -18 -11z"/>
<path d="M8420 505 c0 -20 4 -34 9 -31 4 3 6 17 3 31 -5 31 24 36 31 5 4 -17
4 -16 3 2 -1 16 -8 24 -23 26 -20 3 -23 -1 -23 -33z"/>
<path d="M8538 533 c7 -3 16 -2 19 1 4 3 -2 6 -13 5 -11 0 -14 -3 -6 -6z"/>
<path d="M8306 515 c-9 -26 -7 -32 5 -12 6 10 9 21 6 23 -2 3 -7 -2 -11 -11z"/>
<path d="M8751 510 c-13 -11 -19 -20 -14 -20 6 0 18 9 28 20 23 25 17 25 -14
0z"/>
<path d="M8530 503 c0 -10 4 -14 8 -8 4 6 11 13 16 18 5 4 2 7 -7 7 -10 0 -17
-8 -17 -17z"/>
<path d="M8600 499 c0 -5 5 -7 10 -4 6 3 10 8 10 11 0 2 -4 4 -10 4 -5 0 -10
-5 -10 -11z"/>
</g>
</svg>
