<?xml version="1.0" standalone="no"?>
<!DOCTYPE svg PUBLIC "-//W3C//DTD SVG 20010904//EN"
 "http://www.w3.org/TR/2001/REC-SVG-20010904/DTD/svg10.dtd">
<svg version="1.0" xmlns="http://www.w3.org/2000/svg"
 width="1011.000000pt" height="707.000000pt" viewBox="0 0 1011.000000 707.000000"
 preserveAspectRatio="xMidYMid meet">
<metadata>
Created by potrace 1.16, written by Peter Selinger 2001-2019
</metadata>
<g transform="translate(0.000000,707.000000) scale(0.100000,-0.100000)"
fill="#000000" stroke="none">
<path d="M2134 7018 c3 -13 6 -214 6 -448 l0 -425 683 0 682 0 0 197 c0 128 3
198 10 199 5 1 184 3 398 4 l387 4 0 -305 0 -304 -572 -2 -573 -3 -3 -202 -2
-203 240 0 240 0 0 -105 0 -105 -517 2 -518 3 0 372 c0 366 0 373 -20 374 -11
0 -146 0 -300 0 l-281 0 1 224 0 225 -532 0 -533 0 0 -458 0 -457 532 0 532 0
0 220 c0 121 3 222 7 225 4 3 135 5 291 5 l283 0 2 -335 c1 -184 2 -353 3
-375 l0 -40 525 0 525 1 0 -138 0 -138 -217 0 c-120 -1 -488 -2 -818 -3 l-600
-2 0 223 0 222 -80 0 c-92 1 -792 1 -908 0 l-77 0 2 -457 3 -457 520 -1 c286
0 525 1 530 2 7 2 10 84 10 226 l-1 224 561 2 c308 2 675 3 815 4 l255 2 3
-156 2 -155 -32 2 c-18 1 -255 6 -525 9 l-493 7 0 -89 c-1 -48 -1 -217 -1
-375 l0 -287 -292 2 -292 2 0 223 0 222 -533 0 -532 0 2 -457 3 -458 530 0
529 0 0 225 1 226 297 -1 c190 0 299 4 301 10 2 6 3 173 2 373 0 240 3 362 10
363 16 2 548 -2 760 -6 105 -2 207 -4 228 -4 l37 -1 0 -585 0 -585 -245 0
-245 0 0 -825 0 -825 -565 0 c-437 0 -565 3 -566 13 -1 7 -3 102 -4 212 -1
110 -3 206 -4 213 -1 9 -114 12 -531 12 l-530 0 0 -458 0 -457 528 1 c290 1
529 2 532 3 3 0 5 98 5 216 l-1 215 581 2 580 3 3 823 2 822 230 0 230 0 0
-90 0 -90 -150 0 -150 0 0 -1295 0 -1295 -689 0 c-542 0 -690 3 -693 12 -2 7
-4 109 -3 226 l0 212 -440 1 c-489 0 -618 -1 -623 -6 -5 -5 -3 -895 2 -903 2
-4 242 -7 533 -7 l528 1 0 214 0 215 708 3 707 2 0 1295 0 1295 134 0 133 0 1
-100 1 -100 -79 0 -80 0 0 -1305 0 -1305 395 0 394 0 -2 -203 -2 -202 530 1
c292 1 532 2 535 3 3 0 5 206 5 456 l0 455 -532 0 -533 0 0 -37 c-1 -21 -1
-129 0 -240 l0 -203 -380 0 -380 0 0 1275 0 1275 65 0 65 0 0 -373 0 -372 757
0 758 0 0 155 0 155 228 3 227 2 0 -475 0 -475 -348 0 -347 0 0 225 0 225
-533 -2 -534 -3 1 -425 c0 -234 0 -439 1 -455 l0 -30 524 0 c288 0 528 4 533
8 4 5 8 102 8 215 l0 207 363 3 362 2 0 505 0 505 -243 0 -242 0 1 48 c1 26 2
50 3 55 0 4 138 7 306 7 l305 0 0 -740 0 -740 500 0 500 0 0 -175 0 -175 550
0 550 0 0 400 0 400 -550 0 -550 0 0 -210 0 -210 -485 0 -485 0 -2 737 -3 738
-320 5 -320 5 0 215 0 215 560 -1 c531 -1 2897 -14 3185 -17 l135 -2 3 -162 2
-163 -27 -1 c-16 0 -184 -1 -375 -1 l-348 -1 0 -61 c-1 -64 -1 -767 0 -824 l0
-32 682 2 683 3 0 455 0 455 -300 1 -300 1 0 171 0 172 -60 1 c-222 3 -1182 9
-2390 14 -775 4 -1419 8 -1430 9 -19 3 -20 11 -20 247 l0 244 892 -3 893 -2 0
-185 c0 -102 3 -186 8 -186 4 -1 412 -2 907 -3 l900 -1 0 383 0 382 -907 0
-908 0 -2 -187 -3 -186 -881 0 c-485 0 -885 3 -890 6 -7 4 -12 490 -5 517 0 3
65 4 144 3 78 -1 961 -5 1962 -8 1001 -4 1927 -8 2058 -9 l237 -1 0 -30 0 -30
-257 0 -258 0 -3 -458 -2 -457 532 2 533 3 0 455 0 455 -263 0 -262 0 0 38 0
37 -57 1 c-102 1 -1388 6 -2431 10 -557 2 -1018 6 -1024 10 -6 4 -10 32 -9 64
1 57 1 57 -21 43 -12 -8 -24 -21 -27 -29 -3 -12 -2 -12 11 -1 14 11 16 7 20
-28 4 -42 -5 -57 -32 -54 -8 1 -21 2 -28 3 -8 1 -12 15 -11 44 3 79 3 80 -26
61 -14 -9 -22 -20 -19 -26 4 -5 11 -5 18 1 9 8 12 -1 12 -37 l1 -47 -67 -1
-67 0 15 26 c30 53 -12 111 -71 97 -13 -4 -28 -17 -34 -29 -12 -26 -7 -71 7
-76 19 -7 10 -17 -15 -17 -24 0 -25 3 -25 63 0 81 -18 81 -22 0 l-3 -62 -37 1
c-59 1 -60 2 -56 26 2 12 9 21 17 19 24 -5 49 8 55 30 8 32 -11 48 -55 48
l-39 0 0 -59 c0 -43 -4 -60 -15 -65 -12 -4 -14 2 -12 27 2 28 -1 32 -25 35
-17 2 -28 -2 -28 -8 0 -7 7 -10 15 -7 22 9 30 -14 10 -30 -25 -17 -31 -17 -55
7 -25 25 -25 45 0 70 24 24 34 25 55 4 20 -20 33 -11 15 11 -13 16 -57 20 -76
7 -27 -18 -36 -52 -20 -82 14 -29 14 -30 -12 -31 -106 -2 -245 1 -250 6 -4 4
-7 83 -7 176 l0 169 255 1 c140 0 967 1 1837 2 l1583 2 0 83 0 82 259 0 c238
0 259 1 263 18 2 9 4 215 3 457 l0 440 -532 1 -533 0 0 -288 c-1 -158 -1 -342
-1 -408 0 -66 0 -142 1 -170 l0 -50 263 0 262 0 -2 -67 c-1 -38 -2 -71 -2 -75
-1 -5 -823 -8 -1829 -8 l-1827 0 1 243 c1 133 2 245 3 248 0 3 299 5 664 5
l662 -1 2 -219 c1 -120 5 -221 8 -225 8 -7 1054 -8 1056 -1 1 3 2 209 3 457
l1 453 -532 2 -533 3 0 -40 c-1 -22 -2 -123 -3 -225 l-2 -185 -665 -2 -665 -2
0 144 c0 123 2 145 15 147 8 1 22 2 30 4 8 1 35 2 60 3 l45 1 0 365 c0 238 3
366 10 368 5 2 271 3 590 3 l580 -1 2 -180 c1 -99 2 -200 3 -225 l0 -45 532 0
533 0 0 458 0 457 -70 1 c-294 2 -989 -1 -992 -5 -2 -2 -4 -103 -4 -225 l-1
-221 -599 0 c-472 0 -599 -3 -599 -12 0 -7 -2 -173 -3 -368 l-2 -355 -66 -2
-66 -2 2 70 2 69 -759 0 -758 0 0 -30 0 -30 -225 0 -225 0 0 175 0 175 575 0
575 0 -2 328 -3 327 -410 -3 -410 -2 0 219 c0 121 3 223 8 227 4 4 7 13 7 21
0 11 -123 13 -696 13 l-696 0 6 -22z m1356 -433 l0 -425 -667 2 -668 3 0 423
-1 422 668 0 668 0 0 -425z m4038 -373 l2 -442 -517 2 -518 3 0 435 c-1 239 2
437 6 440 4 3 236 5 516 5 l508 0 3 -443z m-5548 -149 l0 -443 -518 0 -517 0
1 443 c1 243 2 442 3 442 0 1 233 1 516 0 l515 0 0 -442z m7348 -795 l-3 -442
-508 0 c-329 -1 -511 3 -515 9 -4 6 -7 205 -7 442 l0 433 518 0 517 0 -2 -442z
m-4198 -1306 l0 -1642 -743 2 -742 3 -1 1635 c0 899 1 1637 2 1640 1 3 335 5
743 5 l741 0 0 -1643z m2400 1200 l0 -442 -517 2 -518 3 0 440 0 440 518 0
517 0 0 -443z m-5552 -149 l2 -442 -517 0 -518 0 1 437 c1 240 2 439 3 443 0
3 232 5 514 5 l512 -1 3 -442z m0 -1051 l2 -442 -517 2 -518 3 -1 435 c0 239
1 437 2 440 1 3 233 5 516 5 l513 0 3 -443z m3650 409 c-2 -9 -15 -17 -31 -19
-23 -3 -27 0 -27 21 0 21 4 23 31 19 21 -3 29 -9 27 -21z m176 10 c37 -31 -1
-104 -42 -82 -29 15 -37 48 -18 76 17 25 35 27 60 6z m4275 -641 l0 -440 -22
-1 c-104 -4 -1001 -3 -1006 1 -4 3 -7 202 -7 443 l0 437 518 0 517 0 0 -440z
m-1349 -2 l-1 -368 -892 1 -892 0 1 367 c1 202 2 367 3 367 0 0 402 1 891 0
l890 0 0 -367z m900 -1318 l0 -440 -30 -1 c-16 0 -317 -1 -668 -2 l-637 -2 1
430 c1 237 2 436 3 443 1 9 141 12 666 12 l665 0 0 -440z m-7640 -558 l0 -442
-517 2 -518 3 -1 435 c0 239 3 437 7 440 4 3 237 5 518 5 l511 0 0 -443z
m2900 -199 l0 -443 -515 0 c-283 0 -516 3 -516 8 -6 32 -3 868 2 872 4 3 237
5 518 5 l511 0 0 -442z m2940 -333 l0 -370 -520 0 -520 0 0 370 0 370 520 0
520 0 0 -370z m-5902 -617 l2 -442 -517 0 -518 0 1 437 c1 240 2 439 3 442 0
3 232 6 514 5 l512 0 3 -442z m3375 248 c4 0 7 -199 7 -441 l0 -440 -517 2
-518 3 0 440 -1 440 511 -1 c280 -1 513 -2 518 -3z"/>
<path d="M2558 6763 c7 -3 12 -25 12 -58 0 -33 -5 -55 -12 -59 -7 -3 9 -4 36
-3 34 1 51 7 54 17 4 12 2 13 -9 3 -7 -7 -21 -13 -31 -13 -10 0 -18 6 -19 13
0 6 -2 26 -3 42 -2 17 1 38 6 48 7 14 4 17 -19 16 -15 0 -22 -3 -15 -6z"/>
<path d="M2692 6754 c-28 -19 -30 -74 -4 -97 20 -18 67 -23 76 -8 3 4 -5 6
-18 4 -46 -9 -75 56 -40 91 24 25 55 18 67 -14 3 -9 6 -6 6 10 1 21 -4 25 -32
27 -18 2 -43 -4 -55 -13z"/>
<path d="M2798 6763 c7 -3 12 -25 12 -58 0 -33 -5 -55 -12 -58 -7 -3 10 -6 38
-6 37 -1 55 4 66 17 26 29 28 60 6 87 -16 21 -27 25 -71 24 -29 0 -46 -3 -39
-6z m86 -19 c33 -32 10 -94 -35 -94 -16 0 -19 7 -19 55 0 48 3 55 19 55 11 0
27 -7 35 -16z"/>
<path d="M2587 6544 c-3 -3 -3 -16 1 -28 9 -25 8 -69 -2 -85 -5 -7 2 -11 21
-10 15 0 22 3 16 6 -9 3 -13 26 -13 64 0 54 -7 69 -23 53z"/>
<path d="M2684 6525 c-18 -19 -24 -34 -22 -57 6 -60 69 -64 76 -5 3 22 -2 27
-30 35 l-33 9 35 21 c23 15 29 22 17 22 -10 0 -29 -11 -43 -25z m34 -52 c12
-22 5 -43 -13 -43 -17 0 -34 30 -28 48 7 18 31 15 41 -5z"/>
<path d="M2772 6530 c-16 -26 -15 -71 1 -94 35 -47 87 22 62 82 -16 37 -44 42
-63 12z m47 -13 c10 -26 4 -74 -11 -83 -17 -11 -31 14 -30 51 2 58 25 75 41
32z"/>
<path d="M2867 6537 c-4 -10 2 -13 18 -9 29 5 39 -11 24 -39 -8 -16 -8 -20 1
-14 18 11 29 49 18 63 -14 16 -55 15 -61 -1z"/>
<path d="M2870 6440 c-10 -18 -8 -20 30 -20 27 0 40 4 40 13 0 9 -10 12 -32
10 -25 -3 -30 -2 -18 6 10 7 11 11 3 11 -7 0 -17 -9 -23 -20z"/>
<path d="M6613 6325 c0 -36 4 -65 8 -65 9 0 13 15 10 38 -2 10 21 17 32 10 1
-1 12 4 25 11 17 9 22 19 20 39 -3 24 -7 27 -49 30 l-46 3 0 -66z m77 24 c0
-14 -7 -19 -30 -19 -23 0 -30 5 -30 19 0 11 6 21 13 24 22 7 47 -5 47 -24z"/>
<path d="M6730 6310 c0 -61 18 -67 22 -7 2 27 7 41 16 40 6 -2 12 2 12 7 0 6
-11 10 -25 10 -23 0 -25 -3 -25 -50z"/>
<path d="M6802 6348 c-17 -17 -15 -63 3 -78 16 -13 65 -6 65 10 0 13 -13 13
-27 -1 -7 -7 -16 -5 -29 8 -17 17 -17 18 19 21 28 2 37 8 37 22 0 28 -46 40
-68 18z m48 -16 c0 -4 -9 -8 -20 -9 -22 -2 -27 13 -7 20 14 5 27 -1 27 -11z"/>
<path d="M6897 6353 c-16 -16 -5 -40 26 -51 25 -10 29 -14 18 -22 -9 -5 -22
-5 -34 2 -15 8 -18 7 -15 -4 8 -23 55 -22 68 2 10 18 7 22 -26 36 -28 12 -34
18 -24 24 9 5 20 4 27 -2 15 -13 28 -4 18 11 -7 12 -48 15 -58 4z"/>
<path d="M6992 6348 c-7 -7 -12 -24 -12 -38 0 -46 43 -67 70 -35 14 17 0 21
-17 4 -7 -7 -16 -5 -29 8 -17 17 -16 18 24 23 42 5 42 5 27 28 -18 24 -44 29
-63 10z m48 -17 c0 -4 -9 -7 -20 -7 -20 0 -25 7 -14 19 7 7 34 -2 34 -12z"/>
<path d="M7080 6308 c0 -26 5 -48 10 -48 6 0 10 18 10 39 0 22 4 42 8 45 18
11 35 -14 34 -48 -1 -20 3 -36 8 -36 12 0 13 70 2 87 -4 6 -22 11 -40 11 -32
-1 -32 -2 -32 -50z"/>
<path d="M7193 6353 c-16 -6 -17 -65 -1 -81 17 -17 43 -15 58 3 18 22 4 31
-16 11 -19 -19 -32 -11 -39 22 -5 26 15 44 35 32 23 -15 34 -12 20 5 -12 15
-34 18 -57 8z"/>
<path d="M7282 6348 c-7 -7 -12 -24 -12 -38 0 -14 5 -31 12 -38 15 -15 55 -16
63 -1 11 16 -3 23 -19 10 -11 -9 -18 -8 -32 6 -17 17 -16 18 19 21 38 3 47 18
25 40 -7 7 -19 12 -28 12 -9 0 -21 -5 -28 -12z m48 -17 c0 -4 -9 -7 -20 -8
-19 -2 -26 8 -14 20 7 7 34 -2 34 -12z"/>
<path d="M7292 6154 c-12 -8 -22 -20 -22 -26 0 -7 6 -6 15 2 16 13 18 4 17
-62 0 -16 4 -28 9 -28 5 0 8 29 8 65 -1 36 -2 65 -3 65 -1 0 -12 -7 -24 -16z"/>
<path d="M6673 6124 c-7 -18 20 -44 45 -44 12 0 12 -3 2 -15 -9 -11 -17 -12
-30 -5 -27 14 -34 12 -20 -5 18 -22 57 -19 70 5 10 18 7 22 -26 36 -28 12 -34
18 -24 24 9 5 20 4 27 -2 8 -6 17 -8 20 -4 9 9 -17 26 -40 26 -10 0 -20 -7
-24 -16z"/>
<path d="M6766 6119 c-21 -30 -1 -79 33 -79 22 0 47 17 38 26 -3 4 -13 2 -21
-5 -11 -9 -18 -8 -32 6 -17 17 -16 18 19 21 28 2 37 8 37 22 0 34 -51 41 -74
9z m51 -5 c2 -5 -6 -10 -17 -11 -20 -2 -26 8 -13 21 9 8 26 3 30 -10z"/>
<path d="M6860 6088 c0 -26 5 -48 10 -48 6 0 10 18 10 40 0 33 3 40 20 40 17
0 20 -7 20 -40 0 -22 5 -40 10 -40 12 0 13 69 2 87 -4 6 -22 11 -40 11 -32 -1
-32 -2 -32 -50z"/>
<path d="M6963 6124 c-7 -18 20 -44 44 -44 7 0 13 -4 13 -9 0 -14 -27 -20 -39
-8 -13 13 -26 3 -16 -12 10 -18 53 -12 64 7 12 22 -3 42 -30 42 -10 0 -20 4
-23 9 -9 14 20 21 33 8 13 -13 26 -3 16 12 -10 17 -55 13 -62 -5z"/>
<path d="M7057 6119 c-17 -24 -10 -57 15 -73 36 -22 75 24 55 65 -16 32 -51
36 -70 8z m54 -8 c0 -3 2 -14 4 -24 5 -25 -32 -43 -43 -20 -10 21 -10 33 1 50
7 12 36 7 38 -6z"/>
<path d="M7150 6090 c0 -27 5 -50 10 -50 6 0 10 16 10 36 0 23 6 42 18 50 15
12 14 13 -10 14 -27 0 -28 -2 -28 -50z"/>
<path d="M1247 6332 c-21 -23 -22 -39 -2 -22 13 11 15 8 16 -21 1 -19 1 -42 0
-51 -1 -10 2 -18 8 -18 7 0 10 25 9 65 -1 36 -5 65 -8 65 -4 0 -14 -8 -23 -18z"/>
<path d="M1570 6340 c0 -5 5 -10 10 -10 6 0 10 5 10 10 0 6 -4 10 -10 10 -5 0
-10 -4 -10 -10z"/>
<path d="M1392 6308 c-7 -7 -12 -18 -12 -25 0 -8 -13 -13 -36 -13 -23 0 -33
-4 -28 -11 3 -6 18 -9 33 -6 20 4 30 0 39 -14 15 -24 48 -25 61 -2 9 17 10 17
28 0 24 -21 47 -22 63 -2 18 22 19 48 2 68 -27 30 -72 15 -72 -25 0 -10 -5
-18 -11 -18 -6 0 -18 -7 -27 -16 -14 -15 -17 -15 -29 2 -17 23 -16 29 3 49 12
11 20 13 27 6 17 -17 31 -13 17 4 -15 18 -42 19 -58 3z m139 -17 c0 -3 2 -14
4 -24 2 -9 -5 -22 -15 -27 -26 -14 -46 20 -30 50 9 17 39 19 41 1z"/>
<path d="M1570 6270 c0 -27 5 -50 10 -50 6 0 10 23 10 50 0 28 -4 50 -10 50
-5 0 -10 -22 -10 -50z"/>
<path d="M1610 6268 c0 -26 5 -48 10 -48 6 0 10 18 10 39 0 24 5 41 14 44 20
8 26 -2 26 -45 0 -21 5 -38 10 -38 12 0 13 69 2 87 -4 6 -22 11 -40 11 -32 -1
-32 -2 -32 -50z"/>
<path d="M1099 6085 c-5 -58 -2 -124 6 -122 6 2 10 13 9 24 -1 15 4 19 22 15
19 -3 26 2 34 24 17 43 -1 75 -40 72 -16 -1 -30 -7 -31 -13z m61 -35 c0 -32
-23 -46 -41 -24 -9 11 -9 21 -1 39 15 32 42 23 42 -15z"/>
<path d="M1198 6093 c-3 -7 -2 -48 1 -81 0 -7 5 -11 10 -7 5 3 8 16 5 30 -3
16 3 32 16 45 l20 20 -24 0 c-14 0 -26 -3 -28 -7z"/>
<path d="M1268 6089 c-21 -12 -24 -59 -6 -77 17 -17 53 -15 69 5 12 15 12 16
-6 9 -11 -4 -22 -8 -25 -8 -20 -2 -30 4 -30 17 0 10 11 15 35 15 38 0 40 2 25
31 -12 21 -35 24 -62 8z m45 -13 c4 -9 -2 -13 -19 -13 -25 0 -32 12 -11 20 20
9 25 8 30 -7z"/>
<path d="M1359 6084 c-11 -14 -10 -18 6 -30 10 -8 25 -14 32 -14 7 0 13 -4 13
-9 0 -13 -28 -22 -35 -11 -4 6 -11 10 -17 10 -7 0 -6 -6 2 -15 16 -19 44 -19
60 0 15 18 6 33 -28 46 -21 8 -23 12 -12 19 9 6 19 5 24 0 16 -16 30 -11 16 5
-16 20 -44 19 -61 -1z"/>
<path d="M1450 6080 c-26 -49 30 -104 68 -66 18 17 6 22 -18 6 -9 -5 -19 -5
-27 2 -22 18 -14 28 22 28 38 0 40 2 25 31 -14 25 -56 25 -70 -1z m55 -10 c-6
-10 -45 -9 -45 1 0 10 23 17 37 11 7 -2 11 -8 8 -12z"/>
<path d="M1549 6090 c-5 -42 -2 -89 6 -87 6 2 10 17 10 33 0 16 4 35 9 42 11
19 37 -5 35 -32 -2 -33 0 -46 9 -46 11 0 9 70 -1 88 -8 12 -66 14 -68 2z"/>
<path d="M1663 6092 c-21 -13 -26 -58 -8 -76 9 -9 20 -16 25 -16 21 0 40 13
40 28 0 13 -2 13 -18 -1 -21 -19 -42 -6 -42 24 0 25 24 41 38 27 13 -13 27 -4
17 11 -7 13 -35 14 -52 3z"/>
<path d="M1738 6075 c-24 -53 36 -103 72 -60 8 9 9 15 2 15 -6 0 -13 -4 -16
-9 -9 -13 -46 -1 -46 15 0 9 12 14 35 14 38 0 40 2 25 31 -16 28 -58 25 -72
-6z m62 -5 c0 -4 -11 -7 -25 -7 -26 0 -34 12 -12 20 15 5 37 -2 37 -13z"/>
<path d="M1201 5876 c-9 -11 -8 -18 4 -30 9 -9 23 -16 32 -16 8 0 13 -6 10
-12 -5 -14 -11 -14 -39 -3 -11 4 -18 3 -18 -4 0 -19 50 -25 67 -8 18 18 10 35
-24 48 -13 5 -21 13 -18 19 4 7 12 7 25 0 27 -14 34 -12 20 5 -16 19 -44 19
-59 1z"/>
<path d="M1296 5874 c-19 -18 -20 -38 -6 -65 13 -23 52 -25 70 -4 8 9 9 15 2
15 -6 0 -14 -5 -17 -10 -4 -7 -13 -7 -26 0 -30 16 -23 30 16 30 38 0 40 2 25
31 -13 23 -43 25 -64 3z m49 -14 c-3 -5 -13 -7 -23 -5 -9 2 -19 4 -22 4 -3 1
1 5 9 10 16 10 44 3 36 -9z"/>
<path d="M1389 5873 c-3 -50 -1 -73 7 -73 5 0 9 12 9 28 0 15 4 33 8 40 14 21
36 -5 34 -38 -1 -16 3 -29 8 -27 10 2 10 48 1 74 -7 17 -66 14 -67 -4z"/>
<path d="M1492 5878 c-19 -19 -15 -28 18 -39 17 -6 30 -15 30 -19 0 -16 -21
-23 -33 -11 -16 16 -27 14 -21 -4 7 -17 41 -20 63 -6 19 12 7 39 -24 51 -15 6
-23 14 -20 20 4 7 13 6 27 -1 16 -9 19 -8 16 3 -6 18 -40 22 -56 6z"/>
<path d="M1582 5878 c-16 -16 -15 -50 2 -73 12 -16 19 -18 43 -10 31 12 41 42
23 74 -12 23 -49 28 -68 9z m58 -32 c0 -27 -18 -46 -36 -39 -17 6 -18 60 -1
66 21 7 37 -4 37 -27z"/>
<path d="M1679 5880 c-1 -5 -1 -19 -1 -30 0 -45 2 -60 10 -60 5 0 8 15 7 33
-3 38 4 59 15 52 5 -3 11 -1 15 5 4 6 -5 10 -19 10 -14 0 -26 -4 -27 -10z"/>
<path d="M8585 5389 c0 -35 5 -64 11 -66 6 -2 9 8 6 26 -4 27 -2 30 18 26 21
-4 49 -31 50 -47 0 -5 7 -8 16 -8 13 0 12 5 -5 28 -19 27 -19 30 -3 46 26 26
4 50 -49 54 l-45 3 1 -62z m82 37 c14 -13 -9 -36 -35 -36 -24 0 -29 4 -27 23
1 12 3 23 4 25 2 4 53 -6 58 -12z"/>
<path d="M9003 5431 c-6 -10 -9 -22 -6 -25 4 -4 7 -23 8 -44 0 -28 5 -38 20
-40 16 -3 18 -1 8 9 -16 17 -17 61 -1 77 8 8 9 12 1 12 -6 0 -13 7 -15 15 -2
13 -5 12 -15 -4z"/>
<path d="M8723 5408 c-28 -36 -12 -88 25 -88 23 0 48 17 39 26 -3 4 -13 2 -21
-5 -11 -9 -18 -8 -32 6 -17 17 -16 18 19 21 28 2 37 8 37 22 0 28 -49 41 -67
18z m47 -18 c0 -5 -9 -8 -20 -7 -20 1 -25 8 -14 20 8 7 34 -3 34 -13z"/>
<path d="M8814 5405 c-8 -19 3 -34 34 -46 21 -8 23 -12 12 -19 -8 -5 -22 -4
-33 2 -15 8 -18 7 -15 -4 3 -7 18 -13 34 -13 22 0 30 5 32 22 3 17 -3 24 -22
29 -14 3 -26 12 -26 20 0 17 12 18 28 2 13 -13 27 -5 17 11 -9 16 -55 13 -61
-4z"/>
<path d="M8910 5405 c-28 -34 -10 -85 30 -85 21 0 46 17 37 26 -3 4 -13 2 -21
-5 -11 -9 -18 -8 -32 6 -17 17 -16 18 19 21 28 2 37 8 37 22 0 30 -49 41 -70
15z m48 -8 c9 -10 6 -13 -13 -13 -27 0 -33 11 -12 19 6 3 13 6 13 6 1 1 6 -5
12 -12z"/>
<path d="M8567 5173 c1 -32 2 -60 2 -63 2 -11 54 -10 67 1 17 14 18 61 2 77
-7 7 -22 12 -35 12 -13 0 -22 5 -20 11 1 6 -2 13 -8 15 -6 3 -9 -19 -8 -53z
m63 -18 c0 -32 -24 -50 -40 -30 -10 12 -10 21 -2 40 14 30 42 23 42 -10z"/>
<path d="M8769 5216 c-2 -11 -2 -41 -1 -67 3 -41 7 -49 24 -49 17 0 18 2 5 15
-11 11 -13 24 -7 49 5 24 4 41 -5 53 -12 16 -13 16 -16 -1z"/>
<path d="M8818 5212 c-2 -9 -1 -37 2 -62 4 -34 10 -46 24 -48 18 -4 18 -3 4
12 -12 12 -14 24 -8 51 5 21 4 35 -2 35 -5 0 -7 4 -3 9 3 5 1 12 -4 15 -5 3
-10 -2 -13 -12z"/>
<path d="M8668 5183 c-2 -10 -1 -31 2 -48 4 -26 10 -30 38 -31 17 -1 32 4 33
10 3 35 1 78 -5 83 -5 6 -10 -21 -7 -40 1 -4 -3 -16 -9 -27 -15 -28 -38 -14
-36 21 3 35 -9 59 -16 32z"/>
<path d="M8868 5176 c-8 -20 -8 -32 0 -52 17 -36 63 -30 76 9 13 36 -2 61 -37
65 -21 3 -30 -3 -39 -22z m62 -20 c0 -27 -18 -46 -36 -39 -17 6 -18 60 -1 66
21 7 37 -4 37 -27z"/>
<path d="M8969 5193 c0 -2 -1 -19 -1 -38 0 -51 1 -55 11 -55 5 0 8 16 7 35 -3
36 12 59 31 47 6 -4 11 -18 11 -32 0 -42 2 -51 10 -46 10 6 8 68 -2 85 -6 9
-64 13 -67 4z"/>
<path d="M3980 4075 c0 -37 4 -65 10 -65 6 0 10 13 10 29 0 37 23 35 55 -5 13
-16 26 -26 29 -23 4 3 -2 17 -13 31 -19 24 -19 24 0 36 12 8 16 18 12 29 -9
26 -23 33 -65 33 l-38 0 0 -65z m80 40 c17 -11 -8 -35 -36 -35 -19 0 -24 5
-24 24 0 19 5 23 24 21 14 -2 30 -6 36 -10z"/>
<path d="M4399 4140 c-1 -6 -1 -78 0 -105 2 -33 58 -33 73 0 15 32 -3 75 -31
75 -11 0 -25 8 -30 18 -6 9 -11 15 -12 12z m61 -80 c0 -38 -27 -47 -42 -15 -8
18 -8 28 1 39 18 22 41 8 41 -24z"/>
<path d="M4117 4103 c-14 -14 -6 -23 11 -14 13 7 23 6 31 -2 9 -9 4 -14 -21
-23 -22 -7 -33 -17 -33 -30 0 -15 8 -19 41 -20 l42 -2 -4 40 c-2 22 -7 44 -10
49 -6 10 -48 12 -57 2z m41 -69 c-9 -9 -21 -13 -27 -10 -20 13 -11 26 16 26
25 0 26 -1 11 -16z"/>
<path d="M4215 4102 c-20 -14 -15 -33 12 -44 38 -16 39 -18 23 -28 -9 -5 -19
-5 -27 2 -8 6 -17 8 -20 4 -9 -9 16 -26 38 -26 21 0 43 26 34 40 -4 6 -18 16
-33 21 -19 7 -22 13 -14 21 9 9 15 9 24 0 17 -17 33 -15 18 3 -13 16 -39 19
-55 7z"/>
<path d="M4297 4056 c1 -28 2 -59 2 -69 1 -10 6 -15 12 -12 6 4 8 13 5 21 -4
10 2 14 20 14 31 0 51 43 35 77 -8 17 -18 22 -43 21 l-33 -1 2 -51z m63 11 c0
-35 -16 -53 -33 -39 -18 15 -17 50 3 62 19 12 30 3 30 -23z"/>
<path d="M4506 4094 c-9 -8 -16 -24 -16 -34 0 -41 55 -65 80 -35 14 17 3 20
-20 5 -9 -5 -19 -5 -27 2 -22 18 -14 28 22 28 36 0 46 15 23 38 -17 17 -44 15
-62 -4z m54 -13 c0 -4 -12 -8 -26 -9 -22 -2 -24 0 -14 12 11 14 40 12 40 -3z"/>
<path d="M4598 4088 c-4 -31 3 -78 12 -78 4 0 6 15 5 33 -3 38 4 59 15 52 5
-3 11 -1 15 5 4 6 -4 10 -19 10 -18 0 -25 -6 -28 -22z"/>
<path d="M4659 4100 c-5 -39 1 -90 10 -90 5 0 7 14 6 32 -4 41 1 53 23 55 12
1 21 -11 30 -38 16 -51 15 -59 -5 -75 -17 -12 -17 -13 -1 -14 10 0 22 8 27 19
18 33 43 113 37 118 -6 6 -26 -40 -26 -58 0 -21 -18 2 -23 31 -6 27 -11 30
-42 30 -19 0 -36 -4 -36 -10z"/>
<path d="M4034 3865 c-1 -36 3 -65 8 -65 4 0 8 11 8 25 0 19 5 25 23 25 35 0
59 22 55 51 -3 21 -9 24 -48 27 l-46 3 0 -66z m79 19 c-3 -8 -18 -14 -34 -14
-22 0 -29 5 -29 19 0 13 8 21 23 23 28 5 48 -9 40 -28z"/>
<path d="M4159 3928 c-5 -16 -3 -112 3 -121 9 -14 10 -9 12 66 1 31 -2 57 -6
57 -5 0 -8 -1 -9 -2z"/>
<path d="M4257 3923 c-8 -15 -5 -123 4 -123 5 0 9 11 9 25 0 22 9 30 33 26 23
-4 48 22 45 47 -3 24 -8 27 -45 30 -22 2 -43 -1 -46 -5z m73 -25 c0 -5 0 -12
0 -18 0 -5 -13 -10 -30 -10 -26 0 -29 3 -26 23 3 12 5 23 5 24 3 5 51 -13 51
-19z"/>
<path d="M4370 3920 c0 -5 5 -10 10 -10 6 0 10 5 10 10 0 6 -4 10 -10 10 -5 0
-10 -4 -10 -10z"/>
<path d="M4660 3915 c-18 -22 -5 -31 15 -11 9 9 21 14 26 11 17 -11 9 -42 -13
-58 -13 -8 -20 -18 -15 -23 10 -10 57 35 57 56 0 37 -47 53 -70 25z"/>
<path d="M4370 3850 c0 -27 5 -50 10 -50 6 0 10 23 10 50 0 28 -4 50 -10 50
-5 0 -10 -22 -10 -50z"/>
<path d="M4423 3888 c-19 -25 -21 -46 -7 -67 18 -25 46 -27 64 -6 18 22 4 31
-16 10 -17 -16 -18 -16 -31 1 -17 23 -16 29 3 49 12 11 20 13 27 6 17 -17 31
-13 17 4 -15 18 -44 20 -57 3z"/>
<path d="M4512 3888 c-17 -17 -15 -63 3 -78 8 -7 25 -10 40 -6 24 6 31 25 25
66 -4 29 -46 40 -68 18z m58 -38 c0 -3 -6 -14 -13 -24 -13 -17 -14 -17 -30 -1
-9 9 -17 20 -17 25 0 5 8 16 17 25 16 16 17 16 30 -1 7 -10 13 -21 13 -24z"/>
<path d="M4650 3816 c0 -12 10 -16 40 -16 22 0 40 4 40 10 0 5 -10 9 -22 9
-13 -1 -31 2 -40 6 -13 5 -18 3 -18 -9z"/>
<path d="M6617 5333 c-8 -16 -5 -123 4 -123 5 0 9 11 9 25 0 16 6 25 15 25 45
0 67 17 63 48 -3 24 -8 27 -45 30 -22 2 -43 -1 -46 -5z m76 -20 c12 -11 -14
-33 -39 -33 -17 0 -24 6 -24 20 0 15 7 20 28 20 16 0 32 -3 35 -7z"/>
<path d="M6730 5259 c0 -60 18 -65 22 -6 2 27 7 41 16 40 6 -2 12 1 12 6 0 5
-11 9 -25 9 -23 0 -25 -4 -25 -49z"/>
<path d="M6803 5298 c-28 -36 -12 -88 25 -88 23 0 48 17 39 26 -3 4 -13 2 -21
-5 -11 -9 -18 -8 -32 6 -17 17 -17 18 12 21 53 5 59 10 39 32 -21 23 -48 26
-62 8z m47 -18 c0 -5 -9 -8 -20 -7 -22 1 -27 13 -7 20 14 5 27 -1 27 -13z"/>
<path d="M6903 5303 c-25 -9 -13 -39 20 -51 25 -10 29 -14 18 -22 -9 -5 -22
-5 -34 2 -15 8 -18 7 -15 -4 3 -7 18 -13 34 -13 22 0 30 5 32 22 3 17 -3 24
-22 29 -26 6 -32 15 -19 27 3 4 12 2 20 -5 7 -6 17 -8 20 -4 15 15 -28 30 -54
19z"/>
<path d="M6993 5298 c-20 -26 -21 -48 -4 -69 14 -17 24 -20 44 -15 15 3 27 11
27 16 0 13 -17 13 -25 0 -8 -13 -35 -1 -35 16 0 9 11 14 30 14 31 0 39 17 18
38 -16 16 -43 15 -55 0z m47 -16 c0 -4 -9 -8 -20 -9 -22 -2 -27 13 -7 20 14 5
27 -1 27 -11z"/>
<path d="M7082 5259 c-1 -27 3 -49 9 -49 5 0 9 18 9 39 0 24 5 41 14 44 20 8
26 -2 26 -45 0 -21 5 -38 10 -38 12 0 13 69 2 87 -4 6 -22 11 -39 11 -30 -1
-31 -2 -31 -49z"/>
<path d="M7192 5298 c-7 -7 -12 -24 -12 -38 0 -46 43 -67 70 -35 18 22 5 31
-15 11 -21 -21 -24 -20 -34 7 -13 32 4 60 29 47 27 -14 34 -12 20 5 -15 18
-42 19 -58 3z"/>
<path d="M7283 5303 c-18 -7 -16 -68 2 -83 16 -13 65 -6 65 10 0 13 -17 13
-25 0 -4 -7 -13 -7 -26 0 -26 15 -15 30 22 30 30 0 38 17 17 38 -12 12 -33 14
-55 5z m47 -21 c0 -4 -9 -8 -20 -9 -22 -2 -27 13 -7 20 14 5 27 -1 27 -11z"/>
<path d="M7270 5115 c-7 -9 -10 -19 -6 -23 4 -4 12 1 17 10 11 20 39 13 39 -9
0 -9 -13 -29 -30 -45 -40 -38 -38 -48 10 -48 22 0 40 4 40 9 0 5 -13 8 -29 7
l-30 -2 30 33 c32 37 37 68 13 77 -25 10 -41 7 -54 -9z"/>
<path d="M6677 5094 c-16 -17 -5 -40 26 -52 25 -10 29 -14 18 -22 -9 -5 -22
-5 -34 2 -15 8 -18 7 -15 -4 3 -7 18 -13 34 -13 22 0 30 5 32 23 2 13 -3 24
-12 27 -52 16 -51 16 -36 25 8 5 22 4 33 -2 15 -8 18 -7 15 4 -5 14 -49 23
-61 12z"/>
<path d="M6773 5088 c-20 -26 -21 -57 -3 -73 21 -19 61 -17 68 3 3 11 0 12
-16 3 -16 -9 -24 -7 -38 7 -17 16 -16 17 19 20 38 3 47 18 25 40 -16 16 -43
15 -55 0z m44 -14 c2 -5 -6 -10 -17 -11 -20 -2 -26 8 -13 21 9 8 26 3 30 -10z"/>
<path d="M6862 5048 c1 -57 18 -66 18 -9 0 24 5 41 14 44 20 8 26 -2 26 -45 0
-21 5 -38 10 -38 12 0 13 69 2 87 -4 6 -22 11 -40 11 -31 -1 -32 -2 -30 -50z"/>
<path d="M6967 5093 c-16 -16 -5 -40 26 -51 25 -10 29 -14 18 -22 -9 -5 -22
-5 -34 2 -15 8 -18 7 -15 -4 3 -7 18 -13 34 -13 22 0 30 5 32 23 2 13 -3 24
-12 27 -55 17 -53 15 -32 27 14 8 21 7 27 -3 4 -7 11 -10 14 -7 4 4 4 11 0 17
-7 12 -48 15 -58 4z"/>
<path d="M7059 5083 c-29 -33 6 -95 44 -80 27 10 37 40 24 68 -15 30 -48 36
-68 12z m51 -13 c13 -25 -4 -62 -25 -54 -24 10 -30 46 -9 61 23 16 21 17 34
-7z"/>
<path d="M7150 5050 c0 -61 18 -67 22 -7 2 27 7 41 16 40 6 -2 12 2 12 7 0 6
-11 10 -25 10 -23 0 -25 -3 -25 -50z"/>
<path d="M1227 5258 c-6 -40 -4 -42 21 -29 24 13 42 -2 35 -29 -7 -26 -31 -33
-42 -12 -5 9 -13 14 -17 10 -10 -11 15 -38 35 -38 25 0 41 20 41 51 0 29 -29
47 -51 33 -7 -4 -10 -1 -7 7 3 8 13 16 24 17 37 7 39 22 2 22 -33 0 -36 -3
-41 -32z"/>
<path d="M1570 5280 c0 -5 5 -10 10 -10 6 0 10 5 10 10 0 6 -4 10 -10 10 -5 0
-10 -4 -10 -10z"/>
<path d="M1392 5248 c-7 -7 -12 -24 -12 -38 0 -46 43 -67 70 -35 18 22 4 31
-16 10 -17 -16 -18 -16 -31 1 -17 23 -16 29 3 49 12 11 20 13 27 6 17 -17 31
-13 17 4 -15 18 -42 19 -58 3z"/>
<path d="M1476 5239 c-14 -21 -12 -42 7 -66 25 -33 80 7 69 50 -10 42 -52 50
-76 16z m64 -30 c0 -4 -7 -15 -16 -24 -20 -19 -42 -5 -40 25 2 30 28 44 44 23
6 -9 12 -20 12 -24z"/>
<path d="M1570 5210 c0 -27 5 -50 10 -50 6 0 10 23 10 50 0 28 -4 50 -10 50
-5 0 -10 -22 -10 -50z"/>
<path d="M1610 5208 c0 -26 5 -48 10 -48 6 0 10 18 10 39 0 24 5 41 14 44 20
8 26 -2 26 -45 0 -21 5 -38 10 -38 12 0 13 69 2 87 -4 6 -22 11 -40 11 -32 -1
-32 -2 -32 -50z"/>
<path d="M1310 5200 c0 -5 14 -10 30 -10 17 0 30 5 30 10 0 6 -13 10 -30 10
-16 0 -30 -4 -30 -10z"/>
<path d="M1099 5036 c-5 -73 -2 -125 6 -123 6 2 10 13 9 23 -1 15 5 19 25 19
31 0 52 45 35 73 -12 19 -74 25 -75 8z m64 -25 c2 -10 -2 -26 -9 -36 -13 -17
-16 -18 -30 -4 -11 12 -13 22 -5 42 11 29 36 28 44 -2z"/>
<path d="M1197 5006 c2 -58 2 -58 13 -51 6 3 8 19 5 35 -4 22 0 32 16 44 21
15 21 15 -7 14 -28 -1 -29 -3 -27 -42z"/>
<path d="M1258 5025 c-25 -54 37 -103 73 -58 12 15 12 16 -6 9 -11 -4 -22 -8
-25 -8 -20 -2 -30 4 -30 17 0 10 11 15 35 15 36 0 46 15 23 38 -21 21 -57 14
-70 -13z m57 -6 c-8 -12 -45 -12 -45 0 0 10 30 20 43 14 4 -3 5 -9 2 -14z"/>
<path d="M1360 5034 c-12 -14 -12 -18 5 -30 10 -8 25 -14 33 -14 7 0 12 -6 9
-12 -5 -14 -10 -14 -42 -2 -18 7 -18 6 -6 -9 16 -20 42 -22 59 -5 20 20 14 35
-19 47 -17 6 -28 15 -24 21 4 7 13 7 27 -1 16 -9 19 -8 16 3 -7 20 -43 21 -58
2z"/>
<path d="M1456 5034 c-20 -20 -20 -48 0 -68 20 -20 48 -20 64 -1 14 17 3 20
-20 5 -9 -5 -19 -5 -27 2 -22 18 -14 28 22 28 38 0 40 2 25 31 -13 23 -43 25
-64 3z m54 -14 c0 -4 -11 -7 -25 -6 -27 1 -33 11 -12 19 15 5 37 -2 37 -13z"/>
<path d="M1549 5033 c-1 -7 -1 -22 -1 -33 0 -39 2 -50 10 -50 5 0 8 16 7 35
-3 40 16 63 34 41 7 -8 11 -20 10 -28 -3 -26 1 -48 9 -48 10 0 8 71 -2 88 -10
16 -66 11 -67 -5z"/>
<path d="M1648 5025 c-24 -54 27 -98 67 -58 16 16 18 16 27 0 11 -21 51 -22
68 -2 14 17 3 20 -19 6 -18 -12 -41 -3 -41 15 0 9 12 14 35 14 23 0 35 5 35
14 0 42 -75 45 -86 3 -3 -12 -17 -30 -31 -41 -21 -15 -27 -16 -34 -5 -23 36 3
83 30 56 13 -13 26 -3 16 12 -12 21 -55 12 -67 -14z m152 -5 c0 -4 -8 -7 -17
-5 -10 2 -22 4 -28 5 -5 1 -1 5 10 9 21 9 35 5 35 -9z"/>
<path d="M1197 4809 c-5 -17 1 -24 24 -32 16 -6 27 -16 25 -22 -4 -11 -10 -11
-41 1 -18 7 -18 6 -6 -9 16 -20 42 -22 59 -5 18 18 15 26 -19 44 -24 12 -29
18 -18 25 8 5 18 4 23 -1 16 -16 30 -11 16 5 -19 23 -57 19 -63 -6z"/>
<path d="M1296 4814 c-19 -18 -20 -38 -6 -65 13 -23 52 -25 70 -4 14 17 3 20
-20 5 -9 -5 -19 -5 -27 2 -22 18 -14 28 22 28 38 0 40 2 25 31 -13 23 -43 25
-64 3z m49 -14 c-6 -10 -45 -9 -45 1 0 10 23 17 37 11 7 -2 11 -8 8 -12z"/>
<path d="M1389 4813 c-5 -46 0 -85 10 -79 5 3 7 19 6 36 -3 32 14 53 32 42 6
-4 10 -22 10 -41 -1 -19 3 -36 9 -38 12 -4 12 66 0 85 -9 15 -66 12 -67 -5z"/>
<path d="M1490 4814 c-12 -14 -12 -18 5 -30 10 -8 25 -14 32 -14 7 0 13 -4 13
-9 0 -16 -21 -24 -33 -12 -16 16 -27 14 -21 -4 8 -19 48 -19 64 0 15 18 6 33
-27 46 -13 5 -21 13 -18 19 4 7 13 6 27 -1 16 -9 19 -8 16 3 -7 20 -43 21 -58
2z"/>
<path d="M1578 4805 c-16 -35 3 -75 35 -75 30 0 47 18 47 50 0 52 -61 71 -82
25z m62 -25 c0 -30 -21 -45 -39 -27 -15 15 -14 54 2 60 23 8 37 -5 37 -33z"/>
<path d="M1678 4808 c-4 -31 3 -78 11 -78 4 0 7 15 6 33 -2 38 4 59 15 52 5
-3 11 -1 15 5 4 6 -4 10 -19 10 -18 0 -25 -6 -28 -22z"/>
<path d="M1198 4231 c-22 -22 -23 -32 -3 -25 12 5 15 -3 15 -40 0 -71 15 -55
18 19 2 68 -2 75 -30 46z"/>
<path d="M1281 4236 c-18 -21 -10 -97 12 -110 28 -18 52 4 55 53 3 46 -10 71
-38 71 -10 0 -23 -6 -29 -14z m50 -20 c6 -53 -10 -94 -32 -80 -12 7 -17 57 -8
81 9 23 38 23 40 -1z"/>
<path d="M1620 4240 c0 -5 5 -10 10 -10 6 0 10 5 10 10 0 6 -4 10 -10 10 -5 0
-10 -4 -10 -10z"/>
<path d="M1442 4208 c-7 -7 -12 -24 -12 -38 0 -46 43 -67 70 -35 18 22 4 31
-16 11 -30 -30 -54 14 -29 54 4 7 12 7 25 0 27 -14 34 -12 20 5 -15 18 -42 19
-58 3z"/>
<path d="M1532 4208 c-6 -6 -12 -24 -12 -39 0 -49 49 -65 76 -24 27 41 -30 97
-64 63z m55 -39 c-2 -31 -34 -44 -47 -19 -16 30 4 64 30 50 10 -5 18 -19 17
-31z"/>
<path d="M1622 4170 c0 -27 4 -50 9 -50 5 0 9 23 9 50 0 28 -4 50 -9 50 -6 0
-10 -22 -9 -50z"/>
<path d="M1660 4168 c0 -26 5 -48 10 -48 6 0 10 18 10 41 0 36 2 40 22 37 20
-3 23 -8 20 -40 -2 -23 1 -38 7 -38 12 0 15 69 3 87 -4 6 -22 11 -40 11 -32
-1 -32 -2 -32 -50z"/>
<path d="M1365 4160 c-4 -6 7 -10 25 -10 18 0 29 4 25 10 -3 6 -15 10 -25 10
-10 0 -22 -4 -25 -10z"/>
<path d="M1099 3975 c-2 -20 -1 -79 0 -102 1 -7 5 -13 10 -13 5 0 8 10 7 23
-2 20 1 23 20 19 32 -6 52 36 36 73 -15 33 -71 33 -73 0z m61 -25 c0 -32 -23
-46 -41 -24 -9 11 -9 21 -1 39 15 32 42 23 42 -15z"/>
<path d="M1199 3993 c0 -2 -1 -19 -1 -38 0 -53 1 -57 11 -50 5 3 8 16 5 30 -3
16 3 32 16 45 l20 20 -25 -2 c-14 -1 -25 -4 -26 -5z"/>
<path d="M1258 3975 c-24 -53 36 -103 72 -60 14 17 3 20 -20 5 -9 -5 -19 -5
-27 2 -22 18 -14 28 22 28 38 0 40 2 25 31 -16 28 -58 25 -72 -6z m57 -5 c-6
-10 -45 -9 -45 1 0 10 23 17 37 11 7 -2 11 -8 8 -12z"/>
<path d="M1361 3986 c-9 -11 -8 -18 4 -30 9 -9 23 -16 32 -16 8 0 13 -6 10
-12 -5 -14 -10 -14 -42 -2 -18 7 -18 6 -6 -9 17 -21 44 -22 61 -2 15 18 6 33
-27 46 -13 5 -21 13 -18 19 4 7 12 7 25 0 27 -14 34 -12 20 5 -16 19 -44 19
-59 1z"/>
<path d="M1456 3984 c-19 -18 -20 -38 -6 -65 13 -23 52 -25 70 -4 14 17 3 20
-20 5 -9 -5 -19 -5 -27 2 -22 18 -14 28 22 28 38 0 40 2 25 31 -13 23 -43 25
-64 3z m49 -14 c-6 -10 -45 -9 -45 1 0 10 23 17 37 11 7 -2 11 -8 8 -12z"/>
<path d="M1549 3988 c-1 -4 -1 -17 -1 -28 0 -47 3 -61 11 -56 5 3 7 19 6 36
-3 36 17 57 34 36 6 -8 11 -18 10 -22 -4 -23 2 -54 11 -54 9 0 6 73 -5 90 -7
12 -64 10 -66 -2z"/>
<path d="M1650 3981 c-12 -23 -9 -56 7 -72 17 -17 57 -6 62 16 3 19 2 19 -15
4 -26 -22 -44 -13 -44 21 0 30 21 45 39 27 13 -13 26 -3 16 12 -11 18 -54 12
-65 -8z"/>
<path d="M1746 3984 c-19 -18 -20 -38 -6 -65 13 -24 53 -25 71 -2 12 15 12 16
-6 9 -11 -4 -22 -8 -25 -8 -20 -2 -30 4 -30 17 0 10 11 15 35 15 38 0 40 2 25
31 -13 23 -43 25 -64 3z m49 -14 c-3 -5 -14 -8 -25 -7 -14 1 -16 5 -9 13 11
14 42 7 34 -6z"/>
<path d="M1200 3769 c-10 -18 -8 -22 19 -32 17 -6 31 -14 31 -18 0 -12 -29
-19 -35 -9 -4 6 -11 10 -17 10 -7 0 -6 -6 2 -15 16 -19 44 -19 60 0 15 18 6
33 -27 46 -13 5 -21 13 -18 19 4 7 12 7 25 0 27 -14 34 -12 20 5 -18 21 -47
19 -60 -6z"/>
<path d="M1296 3774 c-19 -18 -20 -38 -6 -65 13 -23 52 -25 70 -4 14 17 3 20
-20 5 -9 -5 -19 -5 -27 2 -22 18 -14 28 22 28 38 0 40 2 25 31 -13 23 -43 25
-64 3z m47 -8 c4 -9 -2 -12 -16 -11 -32 4 -33 4 -17 15 20 13 27 12 33 -4z"/>
<path d="M1389 3773 c-5 -46 0 -85 10 -79 5 3 7 19 6 36 -3 34 18 59 31 38 10
-15 11 -20 13 -53 0 -14 5 -25 10 -25 9 0 5 75 -4 90 -9 14 -65 8 -66 -7z"/>
<path d="M1489 3774 c-11 -14 -10 -18 6 -30 10 -8 25 -14 32 -14 7 0 13 -4 13
-9 0 -17 -21 -23 -36 -10 -8 6 -18 9 -21 5 -9 -9 16 -26 37 -26 48 0 50 43 4
61 -20 7 -24 13 -16 21 8 8 15 8 27 -2 12 -10 15 -10 15 4 0 21 -43 21 -61 0z"/>
<path d="M1578 3765 c-16 -35 3 -75 35 -75 30 0 47 18 47 50 0 52 -61 71 -82
25z m62 -25 c0 -16 -6 -30 -12 -33 -24 -8 -38 5 -38 33 0 16 6 30 13 33 23 8
37 -5 37 -33z"/>
<path d="M1678 3768 c-5 -33 3 -79 12 -73 5 3 7 19 5 35 -3 22 2 34 18 45 l21
15 -26 0 c-20 0 -27 -6 -30 -22z"/>
<path d="M9246 3894 c-9 -8 -16 -18 -17 -22 0 -4 -2 -16 -4 -28 -6 -27 29 -64
60 -64 32 0 65 33 65 65 0 52 -69 85 -104 49z m76 -18 c4 -6 8 -20 8 -31 0
-44 -46 -67 -73 -37 -31 34 -3 98 37 86 12 -4 24 -12 28 -18z"/>
<path d="M9370 3845 c0 -36 4 -65 9 -65 4 0 8 12 9 28 0 67 1 68 35 19 17 -26
35 -47 40 -47 4 0 7 29 7 65 0 39 -4 65 -11 65 -5 0 -9 -8 -8 -17 1 -10 1 -31
0 -48 -1 -30 -1 -30 -32 18 -17 26 -35 47 -40 47 -5 0 -9 -29 -9 -65z"/>
<path d="M9506 3857 c-9 -33 -15 -64 -13 -70 2 -7 12 14 21 46 9 33 15 64 13
70 -2 7 -12 -14 -21 -46z"/>
<path d="M9561 3891 c-24 -24 -20 -77 6 -97 46 -35 110 3 99 60 -11 55 -67 75
-105 37z m85 -26 c13 -51 -25 -88 -62 -60 -31 22 -28 81 4 87 30 7 52 -4 58
-27z"/>
<path d="M9690 3845 c0 -37 4 -65 10 -65 6 0 10 11 10 25 0 23 8 29 37 26 6
-1 14 3 18 9 4 6 -6 10 -24 10 -24 0 -31 4 -31 20 0 20 9 24 42 21 9 -1 19 3
23 9 4 6 -10 10 -39 10 l-46 0 0 -65z"/>
<path d="M9800 3845 c0 -41 4 -65 11 -65 7 0 9 10 7 25 -5 24 4 30 39 26 6 -1
14 3 18 9 4 6 -6 10 -25 10 -27 0 -31 3 -28 23 2 16 10 22 30 22 14 0 30 3 34
8 4 4 -14 7 -39 7 l-47 0 0 -65z"/>
<path d="M9310 3635 l0 -65 34 0 c31 0 66 20 66 38 -1 18 -20 35 -49 41 -40 8
-45 25 -8 29 19 2 27 -1 27 -12 0 -9 5 -16 10 -16 16 0 11 37 -6 44 -9 3 -29
6 -45 6 l-29 0 0 -65z m77 -18 c9 -14 -24 -36 -46 -30 -12 3 -17 11 -14 27 4
18 10 22 29 18 13 -2 27 -9 31 -15z"/>
<path d="M9584 3685 c-7 -18 -30 -20 -37 -2 -11 26 -22 -12 -19 -62 3 -45 7
-51 25 -51 13 0 17 3 10 8 -18 12 -23 70 -6 76 23 9 23 9 23 -33 0 -22 5 -43
11 -46 14 -9 27 4 13 13 -11 8 -11 52 0 70 4 7 3 12 -3 12 -6 0 -8 7 -5 15 4
8 3 15 0 15 -4 0 -9 -7 -12 -15z"/>
<path d="M9427 3633 c1 -21 5 -43 7 -50 6 -14 65 -15 67 -1 3 34 1 79 -4 85
-7 7 -8 3 -11 -39 -1 -28 -21 -56 -32 -45 -5 5 -9 27 -13 80 -1 4 -5 7 -9 7
-5 0 -7 -17 -5 -37z"/>
<path d="M9632 3658 c-27 -27 -5 -88 31 -88 30 0 47 18 47 50 0 31 -17 50 -45
50 -12 0 -26 -5 -33 -12z m58 -38 c0 -16 -6 -30 -12 -33 -24 -8 -38 5 -38 33
0 16 6 30 13 33 23 8 37 -5 37 -33z"/>
<path d="M9729 3660 c-6 -33 -1 -84 7 -87 7 -2 10 9 8 32 -2 26 2 38 17 45 13
7 19 7 20 0 1 -5 3 -14 4 -20 1 -5 3 -21 4 -35 0 -14 5 -25 10 -25 9 0 5 75
-5 91 -6 10 -63 9 -65 -1z"/>
<path d="M7195 3800 c4 -6 14 -9 23 -8 14 2 17 -6 18 -47 2 -66 3 -67 12 -61
4 2 7 27 6 55 0 42 2 51 17 51 10 0 21 5 24 10 4 6 -15 10 -50 10 -36 0 -54
-4 -50 -10z"/>
<path d="M7332 3794 c-44 -31 -19 -114 36 -114 21 0 52 24 52 41 0 14 -8 11
-30 -11 -16 -16 -25 -18 -40 -10 -27 15 -28 75 -1 90 25 13 27 13 46 -6 20
-20 33 -11 15 11 -16 19 -50 19 -78 -1z"/>
<path d="M7451 3796 c-16 -20 -3 -45 28 -52 32 -8 53 -23 45 -35 -8 -14 -62
-11 -67 4 -2 6 -8 9 -12 5 -13 -13 16 -38 44 -38 62 1 71 54 12 74 -19 6 -36
17 -39 24 -5 16 40 16 56 0 6 -6 14 -9 17 -6 11 10 -26 38 -49 38 -13 0 -29
-6 -35 -14z"/>
<path d="M7573 3803 c-13 -5 -18 -33 -7 -33 4 0 12 7 19 17 7 9 17 13 23 9 21
-13 13 -45 -18 -68 -42 -31 -39 -48 10 -48 22 0 40 4 40 10 0 5 -13 8 -30 6
l-30 -3 30 34 c32 35 34 42 24 67 -6 15 -36 20 -61 9z"/>
<path d="M7670 3795 c-7 -9 -10 -18 -6 -22 3 -4 12 1 19 10 9 12 16 14 27 7
13 -9 13 -12 -2 -24 -18 -13 -25 -32 -9 -22 5 3 14 0 20 -7 8 -10 7 -19 -4
-33 -15 -19 -15 -19 -30 0 -8 11 -18 17 -21 13 -10 -10 16 -37 36 -37 10 0 23
6 29 13 11 14 8 87 -4 107 -9 15 -41 12 -55 -5z"/>
<path d="M7770 3795 c-6 -8 -12 -30 -12 -50 0 -87 81 -89 84 -2 2 58 -41 89
-72 52z m51 -16 c1 -5 2 -20 2 -34 0 -14 -1 -29 -2 -35 -2 -15 -41 -12 -42 3
0 6 -2 19 -3 27 -6 27 12 60 29 54 8 -3 16 -10 16 -15z"/>
<path d="M7921 3796 c-17 -21 -3 -45 33 -54 42 -11 48 -42 8 -42 -17 0 -32 6
-35 13 -2 6 -8 9 -12 5 -14 -13 16 -38 45 -38 59 0 67 58 10 73 -44 11 -46 13
-30 32 12 14 15 14 37 -1 30 -19 40 -13 18 10 -20 20 -59 21 -74 2z"/>
<path d="M8042 3768 c-17 -17 -15 -63 3 -78 16 -13 65 -6 65 10 0 13 -17 13
-25 0 -4 -7 -13 -7 -26 0 -26 15 -15 30 22 30 22 0 29 5 29 19 0 29 -45 42
-68 19z m48 -16 c0 -4 -9 -8 -20 -9 -22 -2 -27 13 -7 20 14 5 27 -1 27 -11z"/>
<path d="M8130 3728 c0 -26 5 -48 10 -48 6 0 10 18 10 39 0 24 5 41 14 44 20
8 26 -2 26 -45 0 -21 5 -38 10 -38 12 0 13 69 2 87 -4 6 -22 11 -40 11 -32 -1
-32 -2 -32 -50z"/>
<path d="M8237 3773 c-16 -16 -5 -40 26 -51 25 -10 29 -14 18 -22 -9 -5 -22
-5 -34 2 -15 8 -18 7 -15 -4 3 -7 18 -13 34 -13 22 0 30 5 32 21 2 17 -5 24
-30 33 -26 9 -30 14 -18 21 9 5 19 5 27 -2 15 -13 28 -4 18 11 -7 12 -48 15
-58 4z"/>
<path d="M8333 3768 c-20 -26 -21 -48 -4 -69 39 -48 100 10 64 61 -16 23 -46
26 -60 8z m51 -24 c3 -8 1 -24 -4 -35 -9 -15 -15 -17 -30 -9 -17 9 -20 26 -11
58 3 10 40 -1 45 -14z"/>
<path d="M8421 3730 c2 -61 17 -66 21 -7 2 27 7 41 16 40 6 -2 12 2 12 7 0 6
-11 10 -25 10 -23 0 -25 -3 -24 -50z"/>
<path d="M8680 2490 c0 -5 5 -10 10 -10 6 0 10 5 10 10 0 6 -4 10 -10 10 -5 0
-10 -4 -10 -10z"/>
<path d="M8816 2492 c-2 -4 -1 -13 3 -20 6 -11 5 -91 -2 -98 -1 -1 -18 1 -37
5 l-35 7 29 8 c15 4 26 10 22 13 -3 3 -1 12 5 19 7 9 2 14 -22 19 -37 8 -48
-3 -44 -49 2 -17 -1 -39 -6 -48 -8 -14 -4 -19 16 -24 14 -4 29 -4 32 0 4 3 -3
6 -15 6 -13 0 -22 6 -22 15 0 11 12 15 53 15 l52 0 -2 42 c-1 24 -2 55 -2 71
-1 26 -14 36 -25 19z m-38 -75 c2 -10 -3 -17 -12 -17 -10 0 -16 9 -16 21 0 24
23 21 28 -4z"/>
<path d="M9010 2490 c-8 -6 -10 -10 -4 -10 8 0 11 -18 9 -50 -3 -53 10 -74 42
-68 24 4 44 47 32 69 -5 10 -19 19 -31 21 -11 2 -22 11 -24 21 -3 25 -7 28
-24 17z m61 -59 c6 -28 5 -51 -2 -52 -30 -6 -34 -2 -35 32 -1 30 2 35 18 31
10 -2 19 -7 19 -11z"/>
<path d="M9209 2493 c-1 -5 0 -12 1 -18 5 -22 2 -93 -4 -104 -5 -7 2 -11 21
-10 15 0 22 3 16 6 -9 3 -13 27 -13 69 0 36 -4 64 -10 64 -5 0 -11 -3 -11 -7z"/>
<path d="M9261 2491 c-7 -5 -9 -11 -4 -14 5 -3 9 -29 8 -57 -1 -45 2 -51 21
-56 28 -7 43 1 54 30 12 31 -7 59 -36 53 -21 -4 -23 -1 -20 19 5 27 -4 36 -23
25z m57 -64 c15 -18 8 -51 -11 -55 -10 -2 -17 0 -18 5 0 4 -2 17 -4 27 -7 35
13 48 33 23z"/>
<path d="M8558 2483 c7 -3 12 -25 12 -58 0 -33 -5 -55 -12 -59 -7 -3 9 -4 36
-3 34 1 51 7 54 17 4 12 2 13 -9 3 -7 -7 -21 -13 -31 -13 -10 0 -18 6 -19 13
-4 48 -3 65 3 85 7 19 4 22 -20 21 -15 0 -21 -3 -14 -6z"/>
<path d="M8915 2464 c-4 -10 -7 -23 -5 -29 1 -5 2 -22 2 -37 -1 -32 15 -46 31
-28 9 10 9 11 0 6 -9 -5 -13 3 -13 28 0 22 5 36 13 36 8 0 9 3 1 8 -6 4 -13
14 -16 21 -3 12 -6 10 -13 -5z"/>
<path d="M8676 2442 c-2 -4 -1 -14 4 -22 4 -7 4 -24 -1 -37 -8 -21 -6 -23 19
-22 15 0 21 3 15 6 -8 2 -13 22 -13 44 0 36 -12 51 -24 31z"/>
<path d="M8865 2405 c0 -34 4 -45 16 -45 12 0 14 8 10 42 -8 57 -26 59 -26 3z"/>
<path d="M9112 2408 c3 -34 8 -44 23 -46 16 -3 18 -1 8 9 -7 7 -13 28 -13 46
0 18 -5 33 -10 33 -6 0 -9 -18 -8 -42z"/>
<path d="M9156 2438 c4 -6 7 -27 6 -45 -1 -20 3 -33 9 -31 6 2 10 7 10 11 -1
4 -1 23 -1 42 0 25 -4 35 -16 35 -9 0 -12 -5 -8 -12z"/>
<path d="M1545 2061 c-3 -5 -1 -12 4 -15 9 -6 5 -91 -5 -108 -3 -4 7 -8 23 -7
15 0 22 3 16 6 -9 3 -13 27 -13 69 0 58 -9 79 -25 55z"/>
<path d="M1789 2063 c-1 -5 0 -12 1 -18 7 -28 5 -82 -2 -97 -7 -14 -4 -18 10
-18 15 0 18 6 15 28 l-4 27 18 -27 c21 -33 51 -41 31 -8 -7 11 -17 20 -21 20
-5 0 -7 7 -4 14 4 10 1 13 -9 9 -11 -4 -14 4 -14 36 0 23 -4 41 -10 41 -5 0
-11 -3 -11 -7z"/>
<path d="M1078 2053 c7 -3 12 -25 12 -58 0 -33 -5 -55 -12 -58 -7 -3 8 -6 33
-6 57 -1 92 23 92 62 0 46 -29 67 -87 66 -28 0 -45 -3 -38 -6z m86 -19 c31
-31 7 -94 -36 -94 -15 0 -18 8 -18 55 0 48 3 55 19 55 11 0 27 -7 35 -16z"/>
<path d="M1232 2008 c-15 -15 -15 -51 0 -66 18 -18 45 -14 62 9 30 43 -25 94
-62 57z m45 -9 c16 -16 4 -61 -16 -57 -17 3 -26 31 -17 54 6 17 18 18 33 3z"/>
<path d="M1332 2008 c-7 -7 -12 -25 -12 -40 0 -21 6 -29 25 -34 31 -8 55 10
55 40 0 26 -18 46 -40 46 -9 0 -21 -5 -28 -12z m49 -32 c5 -19 4 -29 -6 -32
-21 -8 -35 4 -35 30 0 45 29 47 41 2z"/>
<path d="M1415 2010 c-3 -5 -2 -10 4 -10 10 0 8 -40 -3 -58 -5 -8 2 -12 21
-12 17 0 23 3 16 8 -7 5 -11 23 -9 45 3 26 0 37 -9 37 -8 0 -17 -4 -20 -10z"/>
<path d="M1460 2010 c0 -5 5 -10 10 -10 6 0 10 5 10 10 0 6 -4 10 -10 10 -5 0
-10 -4 -10 -10z"/>
<path d="M1612 2008 c-29 -29 -3 -84 35 -76 26 5 44 46 30 69 -13 22 -47 25
-65 7z m47 -17 c7 -13 6 -23 -3 -36 -16 -22 -36 -12 -36 19 0 39 22 49 39 17z"/>
<path d="M1712 2008 c-16 -16 -15 -53 3 -68 17 -14 47 -10 52 7 3 7 -3 10 -15
7 -23 -7 -45 18 -36 40 7 19 30 21 37 4 2 -7 8 -10 12 -6 11 10 -4 28 -24 28
-9 0 -22 -5 -29 -12z"/>
<path d="M1848 2013 c7 -3 16 -2 19 1 4 3 -2 6 -13 5 -11 0 -14 -3 -6 -6z"/>
<path d="M1086 1793 c-13 -14 -5 -34 19 -45 29 -13 32 -25 8 -31 -15 -4 -15
-5 -2 -6 9 0 22 6 29 14 10 12 7 18 -19 32 -37 22 -41 38 -6 29 14 -4 25 -3
25 2 0 9 -45 14 -54 5z"/>
<path d="M1173 1794 c-16 -7 -17 -56 -1 -72 16 -16 43 -15 57 2 9 11 7 12 -12
9 -14 -3 -29 2 -36 11 -12 14 -9 16 19 16 25 0 31 4 28 18 -3 17 -32 25 -55
16z m37 -14 c0 -5 -9 -10 -21 -10 -11 0 -17 5 -14 10 3 6 13 10 21 10 8 0 14
-4 14 -10z"/>
<path d="M1250 1790 c-8 -5 -9 -10 -2 -14 7 -4 7 -17 2 -36 -7 -25 -6 -30 9
-30 13 0 16 7 13 34 -2 18 1 37 7 40 20 13 29 -3 21 -39 -7 -29 -5 -35 9 -35
15 0 16 7 12 43 -5 37 -9 42 -33 43 -15 1 -32 -2 -38 -6z"/>
<path d="M1346 1783 c-7 -17 16 -43 38 -43 6 0 5 -5 -2 -12 -8 -8 -15 -8 -27
2 -9 7 -15 8 -15 2 0 -19 41 -25 58 -9 13 14 12 18 -18 35 -29 18 -30 21 -13
31 15 9 16 10 2 11 -9 0 -20 -8 -23 -17z"/>
<path d="M1391 1784 c0 -11 3 -14 6 -6 3 7 2 16 -1 19 -3 4 -6 -2 -5 -13z"/>
<path d="M1432 1788 c-16 -16 -15 -53 3 -68 19 -16 45 -10 61 15 26 39 -31 86
-64 53z m46 -37 c3 -27 0 -32 -15 -29 -19 3 -28 30 -19 54 10 26 31 10 34 -25z"/>
<path d="M1520 1790 c-10 -6 -11 -10 -2 -10 15 0 16 -42 0 -58 -9 -9 -6 -12
15 -12 23 0 26 3 18 18 -5 9 -8 29 -6 45 3 29 -1 32 -25 17z"/>
<path d="M1560 1790 c0 -5 5 -10 10 -10 6 0 10 5 10 10 0 6 -4 10 -10 10 -5 0
-10 -4 -10 -10z"/>
<path d="M1081 1724 c0 -11 3 -14 6 -6 3 7 2 16 -1 19 -3 4 -6 -2 -5 -13z"/>
<path d="M4205 2020 c-3 -5 -3 -10 2 -10 7 0 9 -50 4 -97 -3 -29 -20 -10 -23
25 -3 32 -6 37 -28 38 -40 1 -51 -6 -41 -25 6 -10 6 -23 0 -32 -13 -21 -11
-29 9 -29 13 0 17 8 17 37 0 22 5 38 14 41 10 3 12 -5 9 -37 l-4 -41 37 0 c33
0 37 2 32 23 l-5 22 20 -22 c12 -14 32 -23 49 -23 26 0 28 3 28 37 0 22 5 38
14 41 10 3 12 -5 9 -37 -3 -32 0 -41 12 -41 13 0 15 8 11 43 -6 38 -9 42 -36
43 -41 2 -45 -2 -35 -36 11 -38 -5 -49 -33 -22 -20 21 -20 22 -2 42 10 11 15
20 11 20 -4 0 -16 -10 -27 -22 l-18 -23 -1 48 c0 44 -11 60 -25 37z"/>
<path d="M3898 2013 c7 -3 12 -25 12 -58 0 -33 -5 -55 -12 -59 -7 -3 11 -4 41
-3 40 1 57 7 65 20 9 14 7 21 -7 32 -12 9 -14 14 -6 17 8 3 10 14 5 31 -6 25
-10 27 -59 26 -28 0 -46 -3 -39 -6z m77 -28 c0 -13 -8 -21 -22 -23 -19 -3 -23
1 -23 23 0 22 4 26 23 23 14 -2 22 -10 22 -23z m3 -47 c15 -15 -3 -38 -29 -38
-14 0 -19 7 -19 25 0 27 26 35 48 13z"/>
<path d="M4495 1994 c-4 -10 -7 -23 -5 -29 1 -5 2 -22 2 -37 -1 -32 15 -46 31
-28 9 10 9 11 0 6 -9 -5 -13 3 -13 28 0 22 5 36 13 36 8 0 9 3 1 8 -6 4 -13
14 -16 21 -3 12 -6 10 -13 -5z"/>
<path d="M4035 1969 c-4 -6 -4 -13 0 -17 3 -3 10 0 15 8 7 12 12 12 21 3 10
-10 6 -14 -14 -22 -17 -7 -27 -18 -27 -31 0 -17 6 -20 35 -17 31 2 35 5 35 29
0 14 -3 33 -6 42 -7 18 -49 22 -59 5z m37 -61 c-6 -6 -16 -7 -23 -3 -9 6 -7
12 7 22 21 15 34 -1 16 -19z"/>
<path d="M4400 1966 c-28 -35 11 -93 48 -70 35 22 22 84 -18 84 -10 0 -23 -7
-30 -14z m48 -35 c3 -27 0 -32 -15 -29 -19 3 -28 30 -19 54 10 26 31 10 34
-25z"/>
<path d="M4552 1968 c-15 -15 -16 -50 0 -66 16 -16 43 -15 57 2 9 11 7 12 -12
9 -14 -3 -29 2 -36 11 -12 14 -9 16 19 16 25 0 31 4 28 18 -4 21 -39 27 -56
10z m38 -8 c0 -5 -9 -10 -21 -10 -11 0 -17 5 -14 10 3 6 13 10 21 10 8 0 14
-4 14 -10z"/>
<path d="M4405 1800 c-3 -5 -2 -10 2 -10 5 0 9 -19 8 -42 -1 -24 3 -51 8 -61
12 -25 49 -18 64 12 15 31 2 58 -29 63 -15 2 -24 11 -26 26 -4 23 -16 29 -27
12z m70 -70 c7 -23 -4 -50 -21 -50 -15 0 -15 0 -18 46 -1 25 2 30 16 26 9 -2
20 -12 23 -22z"/>
<path d="M4687 1804 c-3 -3 -2 -16 2 -28 9 -25 7 -78 -3 -95 -5 -7 0 -11 12
-11 16 0 19 5 15 23 l-5 22 20 -22 c28 -32 48 -29 23 3 -11 15 -18 31 -14 38
4 6 -1 5 -10 -3 -16 -12 -17 -9 -17 33 0 42 -7 55 -23 40z"/>
<path d="M4143 1771 c-7 -11 -9 -23 -4 -26 5 -3 7 -18 5 -34 -5 -32 11 -50 29
-32 8 8 8 11 -1 11 -7 0 -12 13 -12 30 0 17 5 30 13 30 8 0 9 3 1 8 -6 4 -13
13 -15 20 -3 8 -8 6 -16 -7z"/>
<path d="M3903 1753 c-9 -3 -10 -10 -4 -21 12 -22 12 -34 -1 -49 -8 -10 -6
-13 8 -13 15 0 19 7 19 37 0 22 5 38 14 41 10 3 12 -5 9 -37 -3 -32 0 -41 12
-41 13 0 15 8 11 43 -5 36 -9 42 -31 43 -14 0 -31 -1 -37 -3z"/>
<path d="M3989 1746 c7 -9 11 -29 9 -46 -4 -24 -1 -30 14 -30 13 0 17 4 11 13
-4 6 -8 25 -8 42 0 21 -5 31 -20 34 -17 3 -18 1 -6 -13z"/>
<path d="M4052 1748 c-16 -16 -15 -53 3 -68 19 -16 45 -10 61 15 26 39 -31 86
-64 53z m46 -36 c3 -28 0 -33 -15 -30 -12 2 -19 14 -21 36 -3 28 0 33 15 30
12 -2 19 -14 21 -36z"/>
<path d="M4202 1748 c-16 -16 -15 -53 3 -68 19 -16 45 -10 61 15 26 39 -31 86
-64 53z m43 -33 c0 -43 -29 -40 -33 3 -3 28 0 33 15 30 13 -2 18 -12 18 -33z"/>
<path d="M4287 1754 c-3 -3 -1 -15 6 -25 9 -15 9 -24 -1 -39 -11 -18 -10 -20
15 -20 16 0 23 4 18 8 -6 4 -11 22 -11 41 0 33 -13 49 -27 35z"/>
<path d="M4330 1750 c0 -5 5 -10 10 -10 6 0 10 5 10 10 0 6 -4 10 -10 10 -5 0
-10 -4 -10 -10z"/>
<path d="M4516 1745 c-3 -8 -1 -15 4 -15 6 0 10 5 10 10 0 6 7 10 15 10 23 0
18 -16 -11 -29 -30 -13 -29 -44 1 -49 15 -2 17 -1 6 6 -8 6 -11 17 -8 27 9 21
27 10 27 -16 0 -12 5 -19 13 -16 12 4 12 17 2 65 -6 26 -49 31 -59 7z"/>
<path d="M4612 1748 c-16 -16 -15 -53 3 -68 17 -14 47 -10 52 7 3 7 -3 10 -15
7 -10 -3 -24 2 -32 11 -11 14 -11 19 4 33 14 15 18 15 26 2 5 -8 12 -11 15 -8
11 10 -4 28 -24 28 -9 0 -22 -5 -29 -12z"/>
<path d="M4748 1753 c7 -3 16 -2 19 1 4 3 -2 6 -13 5 -11 0 -14 -3 -6 -6z"/>
<path d="M4609 1583 c-1 -5 0 -18 1 -30 1 -17 -3 -21 -14 -17 -23 9 -46 -14
-46 -47 0 -30 19 -42 59 -34 24 5 42 15 25 15 -5 0 -9 27 -8 60 1 33 -2 60 -7
60 -5 0 -9 -3 -10 -7z m-4 -88 c0 -35 -20 -43 -35 -15 -9 16 -8 25 1 36 18 21
34 11 34 -21z"/>
<path d="M3912 1528 c-7 -7 -12 -21 -12 -33 0 -40 45 -60 69 -31 10 12 8 13
-8 9 -27 -7 -50 13 -44 37 6 22 29 27 36 8 2 -7 8 -10 12 -6 11 10 -4 28 -24
28 -9 0 -22 -5 -29 -12z"/>
<path d="M4000 1526 c-28 -35 11 -93 48 -70 35 22 22 84 -18 84 -10 0 -23 -7
-30 -14z m45 -32 c0 -19 -5 -29 -15 -29 -16 0 -25 28 -16 51 10 25 31 10 31
-22z"/>
<path d="M4088 1529 c-9 -6 -9 -9 -1 -9 11 0 9 -42 -3 -62 -3 -4 3 -8 13 -8
16 0 18 6 15 34 -2 19 1 37 8 41 18 11 29 -14 20 -46 -7 -24 -6 -29 9 -29 15
0 16 7 12 43 -5 37 -9 42 -33 43 -15 1 -33 -3 -40 -7z"/>
<path d="M4178 1532 c9 -6 12 -22 9 -46 -5 -36 -4 -36 32 -36 35 0 36 1 36 37
0 20 5 38 11 40 15 5 24 -53 10 -67 -7 -7 -4 -10 10 -10 18 0 20 5 15 43 -5
37 -9 42 -33 43 -15 1 -33 -3 -40 -7 -8 -5 -8 -9 -2 -9 6 0 10 -12 8 -26 -5
-51 -26 -45 -28 8 -1 24 -7 34 -21 36 -15 2 -17 1 -7 -6z"/>
<path d="M4319 1532 c9 -6 12 -22 9 -46 -3 -30 -1 -36 15 -36 11 0 15 4 11 11
-4 7 -8 26 -8 43 -1 22 -7 32 -21 34 -15 2 -17 1 -6 -6z"/>
<path d="M4375 1529 c-4 -6 -4 -13 0 -17 3 -3 10 0 14 7 5 8 14 10 21 6 9 -6
5 -12 -14 -22 -38 -20 -31 -48 12 -50 33 -1 33 -1 28 40 -3 23 -5 43 -5 45 -2
7 -51 0 -56 -9z m45 -43 c0 -16 -18 -31 -27 -22 -8 8 5 36 17 36 5 0 10 -6 10
-14z"/>
<path d="M4463 1532 c-7 -5 -9 -13 -3 -21 4 -8 4 -25 -1 -38 -7 -19 -5 -23 9
-23 13 0 17 8 16 40 -1 46 -5 52 -21 42z"/>
<path d="M4505 1495 c0 -34 4 -45 16 -45 12 0 14 8 10 42 -8 57 -26 59 -26 3z"/>
<path d="M7175 1661 c-3 -5 -1 -12 4 -15 9 -6 6 -90 -4 -107 -4 -5 3 -9 14 -9
16 0 19 5 16 28 -2 15 -4 46 -4 70 -1 39 -12 54 -26 33z"/>
<path d="M7048 1653 c7 -3 12 -25 12 -58 0 -33 -5 -55 -12 -58 -7 -3 13 -6 45
-6 31 -1 57 3 57 7 0 4 -16 6 -35 4 -32 -4 -35 -2 -35 23 0 25 3 27 30 22 22
-5 28 -3 24 7 -3 8 -15 11 -30 8 -20 -4 -24 -1 -24 22 0 20 5 26 23 26 13 0
28 -5 33 -10 7 -7 11 -6 11 5 0 12 -12 15 -56 14 -31 0 -50 -3 -43 -6z"/>
<path d="M7416 1635 c-5 -11 -8 -24 -6 -30 1 -5 3 -23 4 -39 0 -16 6 -31 11
-33 7 -2 9 12 7 37 -4 41 2 47 28 30 12 -7 13 -15 3 -40 -11 -28 -10 -30 14
-30 20 0 23 3 15 13 -6 7 -9 28 -7 46 3 26 1 32 -13 30 -32 -3 -41 1 -44 19
-3 15 -5 15 -12 -3z"/>
<path d="M7242 1608 c-16 -16 -15 -53 3 -68 17 -14 47 -10 53 9 3 8 0 11 -7 7
-14 -9 -51 2 -51 15 0 5 14 9 31 9 24 0 30 4 27 18 -4 21 -39 27 -56 10z m43
-8 c4 -6 -5 -10 -20 -10 -15 0 -24 4 -20 10 3 6 12 10 20 10 8 0 17 -4 20 -10z"/>
<path d="M7326 1598 c-13 -19 -14 -25 -2 -43 14 -22 57 -27 63 -8 3 7 -3 10
-15 7 -10 -3 -24 2 -32 11 -11 14 -11 19 4 33 14 15 18 15 26 2 5 -8 12 -11
15 -8 11 11 -5 28 -25 28 -10 0 -26 -10 -34 -22z"/>
<path d="M7500 1610 c0 -5 5 -10 10 -10 6 0 10 5 10 10 0 6 -4 10 -10 10 -5 0
-10 -4 -10 -10z"/>
<path d="M7540 1606 c-28 -35 11 -93 48 -70 21 14 28 64 10 75 -20 13 -44 11
-58 -5z m49 -15 c7 -13 6 -23 -3 -36 -17 -24 -36 -11 -36 26 0 33 23 40 39 10z"/>
<path d="M7510 1440 c0 -5 5 -10 10 -10 6 0 10 5 10 10 0 6 -4 10 -10 10 -5 0
-10 -4 -10 -10z"/>
<path d="M7453 1411 c-7 -11 -9 -22 -4 -25 4 -3 6 -18 3 -34 -4 -33 13 -51 31
-32 9 10 9 11 0 6 -9 -5 -13 3 -13 28 0 22 5 36 13 36 8 0 9 3 1 8 -6 4 -13
13 -15 20 -3 8 -8 6 -16 -7z"/>
<path d="M6953 1392 c-7 -5 -9 -13 -3 -21 4 -8 4 -25 -1 -38 -7 -19 -5 -23 9
-23 15 0 17 7 14 38 -5 51 -5 52 -19 44z"/>
<path d="M6989 1392 c9 -6 12 -22 9 -46 -3 -29 -1 -36 13 -36 14 0 16 6 10 33
-4 17 -8 37 -9 42 0 6 -9 11 -19 13 -14 2 -15 1 -4 -6z"/>
<path d="M7039 1392 c9 -6 12 -22 9 -46 -3 -31 -1 -36 17 -36 11 0 16 4 10 8
-5 4 -10 23 -10 42 0 27 -4 35 -20 38 -15 2 -17 1 -6 -6z"/>
<path d="M7096 1385 c-3 -8 -1 -15 3 -15 5 0 11 6 14 13 4 9 7 9 17 0 11 -10
8 -14 -14 -23 -42 -15 -31 -44 18 -47 30 -2 36 0 27 11 -6 7 -8 16 -5 19 4 3
4 18 0 32 -5 18 -13 25 -30 25 -13 0 -26 -7 -30 -15z m41 -50 c-4 -8 -11 -15
-17 -15 -14 0 -13 27 3 33 16 6 21 1 14 -18z"/>
<path d="M7191 1385 c-4 -5 -7 -23 -6 -40 1 -16 -3 -38 -7 -47 -7 -14 -3 -19
17 -24 14 -4 29 -4 32 0 4 3 -3 6 -15 6 -13 0 -22 6 -22 16 0 11 9 15 33 14
69 -4 72 -3 72 37 0 20 5 38 12 40 15 5 22 -26 11 -54 -6 -18 -4 -23 10 -23
16 0 18 6 13 42 l-6 43 -68 0 c-38 0 -72 -4 -76 -10z m34 -15 c0 -7 -6 -15
-12 -17 -8 -3 -13 4 -13 17 0 13 5 20 13 18 6 -3 12 -11 12 -18z m49 -16 c-3
-34 -2 -33 -49 -24 -22 4 -30 8 -19 9 23 1 48 24 37 34 -3 4 3 7 14 7 16 0 20
-6 17 -26z"/>
<path d="M7372 1388 c-16 -16 -15 -53 3 -68 17 -14 47 -10 53 9 3 8 0 11 -7 7
-14 -9 -51 2 -51 15 0 5 16 9 35 9 33 0 35 2 25 20 -12 22 -40 26 -58 8z m38
-8 c0 -5 -9 -10 -21 -10 -11 0 -17 5 -14 10 3 6 13 10 21 10 8 0 14 -4 14 -10z"/>
<path d="M7505 1391 c-3 -5 -1 -12 4 -16 10 -5 7 -36 -4 -55 -4 -6 6 -10 22
-9 15 0 22 3 16 6 -8 2 -13 22 -13 44 0 37 -12 51 -25 30z"/>
<path d="M7572 1388 c-16 -16 -15 -53 3 -68 17 -14 47 -10 53 8 2 8 -2 10 -14
5 -20 -7 -45 22 -37 43 6 17 30 18 36 2 2 -7 8 -10 12 -6 11 10 -4 28 -24 28
-9 0 -22 -5 -29 -12z"/>
<path d="M7112 1223 c-6 -3 -9 -9 -6 -15 10 -15 10 -69 2 -95 -6 -18 -4 -23
10 -23 16 0 18 8 14 63 -4 76 -4 75 -20 70z"/>
<path d="M7353 1223 c-8 -3 -10 -11 -5 -21 10 -20 8 -84 -2 -100 -5 -8 0 -12
12 -12 16 0 19 5 15 23 l-5 22 20 -22 c11 -13 26 -23 33 -23 7 0 2 11 -12 26
l-24 26 24 19 c14 11 18 19 10 19 -8 0 -21 -10 -29 -22 -15 -22 -15 -22 -20
23 -3 31 -9 44 -17 42z"/>
<path d="M7172 1168 c-17 -17 -15 -53 3 -68 20 -17 61 -5 68 19 11 42 -42 78
-71 49z m46 -14 c13 -24 3 -56 -17 -52 -17 3 -26 31 -17 54 7 19 23 18 34 -2z"/>
<path d="M7272 1168 c-7 -7 -12 -21 -12 -33 0 -40 45 -60 69 -31 10 12 8 13
-10 9 -25 -7 -51 20 -42 43 6 17 30 18 36 2 2 -7 8 -10 12 -6 11 10 -4 28 -24
28 -9 0 -22 -5 -29 -12z"/>
<path d="M1108 763 c7 -3 12 -25 12 -58 0 -33 -5 -55 -12 -59 -7 -3 11 -4 41
-3 40 1 57 7 65 20 9 15 7 21 -8 33 -11 8 -14 14 -8 14 16 0 15 33 0 48 -7 7
-32 12 -57 11 -26 0 -40 -3 -33 -6z m77 -28 c0 -13 -8 -21 -22 -23 -19 -3 -23
1 -23 23 0 22 4 26 23 23 14 -2 22 -10 22 -23z m-2 -41 c23 -9 9 -44 -18 -44
-24 0 -35 16 -27 38 4 13 21 15 45 6z"/>
<path d="M1239 711 c6 -10 8 -21 5 -24 -11 -11 8 -47 24 -46 11 0 12 3 5 6 -8
2 -13 22 -13 44 0 28 -4 39 -15 39 -12 0 -13 -4 -6 -19z"/>
<path d="M1288 687 l4 -44 54 -2 c30 -1 54 2 54 7 0 5 -14 6 -32 4 l-32 -5 33
42 33 41 -36 0 c-20 0 -36 -4 -36 -9 0 -4 12 -6 28 -3 l27 5 -25 -32 c-33 -44
-44 -43 -48 2 -2 20 -9 37 -15 37 -8 0 -11 -14 -9 -43z"/>
<path d="M1410 721 c0 -4 12 -6 27 -3 l28 5 -28 -36 c-15 -19 -27 -38 -27 -41
0 -3 16 -6 35 -6 19 0 35 4 35 8 0 5 -14 6 -32 4 l-32 -5 33 42 33 41 -36 0
c-20 0 -36 -4 -36 -9z"/>
<path d="M1502 718 c-15 -15 -16 -50 0 -66 16 -16 43 -15 57 2 9 11 7 12 -12
9 -14 -3 -29 2 -36 11 -12 14 -9 16 19 16 25 0 31 4 28 18 -4 21 -39 27 -56
10z m38 -8 c0 -5 -9 -10 -21 -10 -11 0 -17 5 -14 10 3 6 13 10 21 10 8 0 14
-4 14 -10z"/>
<path d="M1583 723 c-10 -3 -10 -9 0 -24 9 -15 9 -23 -1 -39 -11 -18 -10 -20
14 -20 20 0 24 3 16 13 -6 7 -9 27 -6 45 5 31 1 35 -23 25z"/>
<path d="M1625 720 c3 -5 8 -10 11 -10 2 0 4 5 4 10 0 6 -5 10 -11 10 -5 0 -7
-4 -4 -10z"/>
<path d="M4820 550 c-10 -6 -11 -10 -2 -10 6 0 12 -9 12 -20 0 -13 -5 -18 -15
-14 -23 9 -45 -15 -45 -47 0 -16 3 -30 8 -30 33 -7 73 -6 78 2 3 5 1 9 -3 9
-5 0 -8 27 -8 60 1 63 0 66 -25 50z m8 -79 c5 -31 -12 -48 -32 -32 -15 13 -16
28 -2 49 11 19 30 9 34 -17z"/>
<path d="M4568 538 c16 -16 15 -91 0 -107 -11 -10 -3 -12 36 -9 30 2 51 8 54
16 3 11 0 11 -16 1 -33 -20 -48 -6 -47 43 1 25 5 50 9 56 5 8 -2 12 -20 12
-22 0 -25 -3 -16 -12z"/>
<path d="M4693 503 c-14 -5 -17 -41 -7 -67 8 -20 47 -21 63 -2 9 11 7 12 -12
9 -14 -3 -29 2 -36 11 -12 14 -9 16 23 16 34 0 36 2 26 20 -10 19 -31 24 -57
13z m37 -13 c0 -5 -9 -10 -21 -10 -11 0 -17 5 -14 10 3 6 13 10 21 10 8 0 14
-4 14 -10z"/>
<path d="M4876 503 c-13 -14 -5 -34 19 -45 34 -15 32 -32 -2 -24 -27 5 -27 5
-5 -6 18 -9 26 -8 39 5 15 14 13 17 -16 35 -20 12 -28 22 -21 27 6 4 17 2 24
-4 9 -8 13 -7 13 2 0 13 -39 21 -51 10z"/>
<path d="M3582 6738 c-20 -20 -14 -35 23 -58 19 -12 35 -26 35 -31 0 -18 -31
-21 -48 -6 -16 15 -18 15 -19 -1 -1 -12 7 -18 30 -19 63 -5 76 37 22 69 -37
21 -41 40 -12 46 10 2 21 -6 26 -20 l10 -23 0 25 c1 21 -4 26 -27 28 -15 1
-33 -3 -40 -10z"/>
<path d="M3678 6743 c7 -3 12 -25 12 -58 0 -33 -5 -55 -12 -58 -7 -3 6 -6 30
-6 51 -1 80 12 91 42 11 30 -6 74 -32 81 -27 7 -107 7 -89 -1z m86 -19 c31
-31 7 -94 -36 -94 -15 0 -18 8 -18 55 0 48 3 55 19 55 11 0 27 -7 35 -16z"/>
<path d="M3870 6740 c0 -6 7 -24 15 -40 15 -29 15 -30 -10 -30 -23 0 -25 2
-15 21 7 11 9 23 6 26 -5 5 -26 -39 -26 -53 0 -2 14 -4 30 -4 27 0 35 -8 31
-32 0 -5 11 -8 25 -8 23 0 24 2 10 15 -8 8 -18 25 -21 38 -13 45 -28 77 -36
77 -5 0 -9 -5 -9 -10z"/>
<path d="M4038 6744 c-4 -3 -3 -18 0 -32 9 -35 8 -64 -1 -80 -6 -8 0 -12 20
-11 15 0 22 3 16 6 -9 3 -13 26 -13 64 0 54 -7 69 -22 53z"/>
<path d="M4134 6725 c-18 -19 -24 -34 -22 -57 6 -60 69 -64 76 -5 3 21 -2 28
-22 33 -33 8 -33 20 2 38 20 11 22 15 9 16 -10 0 -29 -11 -43 -25z m38 -71
c-5 -25 -8 -28 -27 -21 -9 4 -15 19 -15 38 0 30 1 31 23 16 13 -9 21 -23 19
-33z"/>
<path d="M3820 6635 c-10 -13 -9 -15 8 -15 15 0 20 5 16 15 -4 8 -7 15 -9 15
-1 0 -8 -7 -15 -15z"/>
<path d="M4210 6635 c0 -3 7 -14 16 -23 15 -14 16 -14 13 3 -4 17 -29 35 -29
20z"/>
<path d="M3581 6516 c-16 -19 -6 -39 29 -60 34 -19 38 -34 13 -43 -10 -4 -23
2 -35 16 l-18 23 2 -23 c2 -19 8 -24 32 -26 62 -5 74 37 21 69 -37 21 -41 40
-12 46 10 2 21 -6 26 -20 l10 -23 0 25 c1 21 -4 26 -28 28 -16 1 -34 -4 -40
-12z"/>
<path d="M3703 6515 c-48 -34 -22 -115 37 -115 16 0 31 4 34 9 3 4 -5 6 -18 4
-27 -6 -56 20 -56 48 0 55 46 78 74 37 l16 -22 0 24 c0 21 -5 25 -33 27 -18 2
-42 -4 -54 -12z"/>
<path d="M3808 6523 c16 -6 16 -95 0 -111 -9 -9 0 -12 40 -12 43 0 52 3 51 18
0 10 -3 12 -6 5 -5 -14 -52 -18 -54 -5 -6 47 -2 87 9 98 11 12 8 14 -20 13
-18 0 -27 -3 -20 -6z"/>
<path d="M3995 6521 c-3 -5 -2 -12 3 -15 10 -6 8 -78 -2 -95 -5 -7 3 -11 21
-10 15 0 22 3 16 6 -9 3 -13 26 -13 64 0 54 -10 74 -25 50z"/>
<path d="M4077 6523 c-14 -14 -6 -19 23 -15 34 5 36 0 15 -58 -8 -24 -14 -45
-12 -47 4 -3 29 59 42 105 6 20 3 22 -28 22 -18 0 -37 -3 -40 -7z"/>
<path d="M5491 6489 c-37 -40 -8 -108 46 -109 38 0 53 11 53 41 0 25 -4 29
-27 29 l-28 0 25 -20 25 -19 -25 -9 c-52 -21 -90 38 -51 77 25 25 35 26 56 5
20 -20 33 -11 15 11 -18 22 -66 19 -89 -6z"/>
<path d="M5619 6498 c-1 -14 -1 -85 0 -105 1 -7 5 -13 10 -13 5 0 8 11 7 24
-3 21 2 25 34 30 41 6 56 27 40 57 -12 22 -89 28 -91 7z m81 -24 c0 -15 -47
-31 -58 -19 -12 12 -8 30 8 36 21 9 50 -1 50 -17z"/>
<path d="M5740 6445 c0 -36 4 -65 10 -65 6 0 9 27 8 65 -1 36 -6 65 -10 65 -4
0 -8 -29 -8 -65z"/>
<path d="M5809 6500 c-40 -23 -29 -105 15 -116 37 -9 63 4 75 37 21 62 -35
111 -90 79z m61 -18 c43 -35 -3 -108 -48 -76 -26 18 -28 50 -5 76 20 22 25 22
53 0z"/>
<path d="M6003 6493 c-28 -19 -30 -33 -4 -26 16 4 18 0 16 -30 -2 -18 1 -40 6
-48 6 -9 9 10 9 54 0 37 -1 67 -2 66 -2 0 -13 -7 -25 -16z"/>
<path d="M6085 6500 c-3 -5 -4 -10 -1 -10 3 0 1 -12 -4 -26 -9 -23 -8 -25 7
-19 30 11 34 11 46 -7 9 -14 8 -21 -4 -34 -15 -14 -18 -14 -33 1 -20 21 -34
12 -16 -10 16 -19 44 -19 64 1 26 25 10 74 -25 74 -10 0 -19 5 -19 10 0 10 14
14 38 11 6 -1 12 3 12 9 0 13 -57 13 -65 0z"/>
<path d="M2735 5470 c-24 -27 -22 -70 5 -92 29 -24 79 -24 86 0 3 9 10 25 15
35 8 14 5 17 -17 17 -20 0 -24 -3 -17 -12 27 -37 -13 -64 -48 -32 -21 19 -24
45 -9 75 13 24 56 25 69 2 9 -16 10 -16 11 -2 0 33 -67 40 -95 9z"/>
<path d="M2858 5483 c7 -3 12 -25 12 -58 0 -33 -5 -55 -12 -58 -7 -3 3 -5 22
-5 19 0 29 2 23 5 -25 10 -14 40 17 47 25 5 30 10 30 35 0 33 -14 41 -68 40
-20 0 -31 -3 -24 -6z m67 -33 c0 -16 -6 -26 -17 -28 -14 -3 -18 3 -18 28 0 25
4 31 18 28 11 -2 17 -12 17 -28z"/>
<path d="M2975 5425 c0 -51 3 -65 15 -65 12 0 15 14 15 65 0 51 -3 65 -15 65
-12 0 -15 -14 -15 -65z"/>
<path d="M3047 5472 c-22 -25 -21 -75 1 -95 40 -37 105 -7 105 48 0 56 -70 87
-106 47z m73 -11 c23 -43 6 -91 -32 -91 -33 0 -52 72 -26 98 18 18 46 14 58
-7z"/>
<path d="M3240 5480 c-13 -9 -13 -10 1 -10 12 0 15 -9 12 -42 -2 -24 -5 -49
-8 -55 -3 -9 5 -13 23 -12 15 0 21 3 15 6 -9 3 -13 26 -13 64 0 60 -4 66 -30
49z"/>
<path d="M3332 5478 c-22 -22 -14 -57 13 -64 32 -8 32 -20 -2 -38 -21 -11 -23
-15 -10 -16 10 0 29 11 42 25 39 38 30 105 -15 105 -9 0 -21 -5 -28 -12z m45
-10 c5 -7 7 -24 4 -38 l-7 -24 -22 22 c-12 12 -19 28 -16 37 7 18 28 20 41 3z"/>
<path d="M5417 5322 c-17 -19 -22 -68 -9 -88 11 -17 49 -26 82 -19 23 5 30 12
30 31 0 27 -18 39 -47 31 -16 -4 -15 -6 5 -12 26 -9 29 -32 5 -37 -46 -10 -79
24 -64 65 13 32 39 41 67 22 32 -21 41 -19 19 5 -23 25 -67 26 -88 2z"/>
<path d="M5540 5275 c0 -37 4 -65 10 -65 6 0 10 11 10 25 0 14 6 25 13 26 54
3 72 18 63 53 -6 23 -11 26 -51 26 l-45 0 0 -65z m78 26 c-2 -9 -15 -17 -31
-19 -21 -3 -27 1 -27 17 0 20 24 31 48 23 7 -3 12 -12 10 -21z"/>
<path d="M5669 5333 c-6 -30 -3 -123 3 -123 9 0 9 -1 11 73 1 31 -1 57 -5 57
-5 0 -9 -3 -9 -7z"/>
<path d="M5727 5322 c-22 -25 -21 -75 1 -95 42 -38 102 -7 102 54 0 52 -69 79
-103 41z m83 -47 c0 -39 -23 -57 -56 -45 -25 10 -36 53 -20 74 31 38 76 21 76
-29z"/>
<path d="M5927 5322 c-21 -23 -22 -39 -2 -22 13 11 15 6 15 -39 0 -30 4 -50 9
-46 10 6 10 110 0 119 -3 4 -13 -2 -22 -12z"/>
<path d="M6017 5299 c-16 -23 -26 -43 -24 -46 5 -4 30 -10 50 -12 5 -1 6 -5 2
-10 -3 -5 -2 -12 3 -14 4 -3 12 6 19 19 7 14 7 24 1 24 -5 0 -8 8 -7 18 3 32
-1 62 -8 62 -5 -1 -21 -19 -36 -41z m31 -14 c0 -18 -6 -25 -19 -25 -18 0 -19
1 -3 25 9 14 17 25 19 25 1 0 3 -11 3 -25z"/>
<path d="M2742 5194 c-15 -10 -22 -25 -22 -49 0 -39 29 -65 72 -65 27 0 55 30
40 44 -3 4 0 11 8 16 11 7 8 10 -13 10 -25 0 -27 -2 -17 -20 21 -39 -22 -57
-53 -22 -19 21 -21 45 -7 73 13 24 56 25 69 2 9 -16 10 -16 11 -2 0 31 -52 39
-88 13z"/>
<path d="M2858 5203 c7 -3 12 -25 12 -58 0 -33 -5 -55 -12 -58 -7 -3 3 -5 22
-5 19 0 29 2 23 5 -25 10 -14 40 17 47 23 4 30 11 30 29 0 34 -19 47 -64 46
-23 0 -35 -3 -28 -6z m67 -33 c0 -16 -6 -26 -17 -28 -14 -3 -18 3 -18 28 0 25
4 31 18 28 11 -2 17 -12 17 -28z"/>
<path d="M2968 5203 c7 -3 12 -25 12 -58 0 -33 -5 -55 -12 -58 -7 -3 -2 -6 12
-6 24 -1 25 1 25 64 0 63 -1 65 -25 64 -14 0 -19 -3 -12 -6z"/>
<path d="M3052 5194 c-28 -19 -30 -74 -4 -97 57 -52 139 26 91 86 -23 30 -54
34 -87 11z m68 -13 c23 -43 6 -91 -32 -91 -33 0 -52 72 -26 98 18 18 46 14 58
-7z"/>
<path d="M3230 5195 c-11 -13 -10 -14 4 -9 9 3 23 4 31 0 18 -7 9 -34 -22 -70
-13 -15 -23 -29 -23 -32 0 -10 73 1 77 12 2 7 -6 10 -22 7 -28 -6 -33 8 -9 28
23 19 34 52 22 67 -14 17 -43 15 -58 -3z"/>
<path d="M3335 5194 c-21 -22 -17 -93 8 -108 26 -17 51 4 55 47 6 64 -27 96
-63 61z m44 -17 c16 -41 -7 -103 -29 -81 -23 23 -15 104 10 104 6 0 14 -10 19
-23z"/>
<path d="M2740 4870 c-27 -27 -26 -75 2 -94 31 -22 77 -21 84 2 3 9 10 25 15
35 8 14 5 17 -17 17 -20 0 -24 -3 -17 -12 15 -20 10 -42 -10 -46 -25 -5 -57
26 -57 54 0 46 58 73 79 37 9 -16 10 -16 11 -2 0 33 -60 39 -90 9z"/>
<path d="M2858 4881 c8 -5 14 -27 14 -56 0 -29 -6 -51 -14 -56 -8 -6 -1 -8 22
-8 19 0 29 3 23 6 -25 10 -14 40 17 47 23 4 30 11 30 29 0 33 -19 47 -64 47
-26 0 -36 -3 -28 -9z m67 -31 c0 -16 -6 -26 -17 -28 -14 -3 -18 3 -18 28 0 25
4 31 18 28 11 -2 17 -12 17 -28z"/>
<path d="M2979 4834 c2 -40 -1 -59 -10 -65 -10 -6 -7 -9 11 -9 24 0 25 2 21
56 -2 40 1 59 10 65 10 6 7 9 -11 9 -24 0 -25 -2 -21 -56z"/>
<path d="M3047 4872 c-22 -25 -21 -75 1 -95 40 -37 105 -7 105 48 0 56 -70 87
-106 47z m73 -11 c23 -43 6 -91 -32 -91 -33 0 -52 72 -26 98 18 18 46 14 58
-7z"/>
<path d="M3230 4876 c-10 -13 -7 -15 16 -13 40 3 39 -26 -2 -69 l-35 -35 42 3
c23 2 44 8 46 14 2 7 -6 10 -23 6 l-27 -5 26 38 c20 29 24 42 16 57 -12 22
-42 24 -59 4z"/>
<path d="M3345 4880 c-3 -5 -2 -10 2 -10 10 0 9 -82 -1 -99 -5 -7 2 -11 21
-10 15 0 22 3 16 6 -9 3 -13 26 -13 64 0 54 -10 74 -25 49z"/>
<path d="M5422 4835 c-30 -22 -31 -78 0 -99 40 -29 99 -18 90 16 -3 11 1 24 9
29 10 6 6 9 -15 9 -21 0 -26 -3 -19 -12 27 -37 -13 -64 -48 -32 -21 19 -24 45
-9 75 13 24 56 25 69 2 10 -16 10 -16 11 2 0 17 -7 21 -33 23 -17 1 -42 -5
-55 -13z"/>
<path d="M5540 4840 c17 -11 15 -101 -3 -112 -7 -4 4 -7 23 -7 19 0 29 3 23 6
-25 10 -14 40 17 47 23 4 30 11 30 29 0 33 -19 47 -64 47 -29 0 -37 -3 -26
-10z m65 -30 c0 -16 -6 -26 -17 -28 -14 -3 -18 3 -18 28 0 25 4 31 18 28 11
-2 17 -12 17 -28z"/>
<path d="M5649 4841 c9 -6 12 -25 10 -65 -3 -45 -1 -56 11 -56 12 0 15 14 15
65 0 63 -1 65 -25 65 -18 0 -21 -3 -11 -9z"/>
<path d="M5727 4832 c-22 -25 -21 -75 1 -95 40 -37 105 -7 105 48 0 56 -70 87
-106 47z m71 -4 c17 -17 15 -73 -3 -88 -22 -18 -48 -8 -59 22 -19 53 27 101
62 66z"/>
<path d="M5925 4840 c-3 -5 -2 -10 2 -10 9 0 8 -73 -1 -97 -4 -9 3 -13 22 -12
15 0 21 3 15 6 -9 3 -13 26 -13 64 0 54 -10 74 -25 49z"/>
<path d="M6015 4840 c-3 -6 1 -7 9 -4 24 9 32 -24 10 -41 -16 -12 -17 -14 -3
-15 19 0 33 -26 23 -42 -3 -5 -17 -7 -30 -4 -14 4 -24 2 -24 -4 0 -15 46 -12
59 4 12 14 10 84 -3 105 -9 14 -33 15 -41 1z"/>
<path d="M2737 4512 c-21 -23 -22 -61 -1 -90 19 -28 82 -31 90 -4 3 9 10 25
15 35 8 14 5 17 -16 17 -23 0 -24 -2 -15 -20 13 -25 5 -40 -20 -40 -38 0 -65
71 -38 98 18 18 55 15 67 -5 9 -16 10 -16 11 -2 0 32 -67 40 -93 11z"/>
<path d="M2859 4521 c18 -11 16 -101 -2 -113 -7 -4 2 -7 23 -7 19 0 29 3 23 6
-25 10 -14 40 17 47 23 4 30 11 30 29 0 33 -19 47 -64 47 -28 0 -37 -3 -27 -9z
m66 -31 c0 -16 -6 -26 -17 -28 -14 -3 -18 3 -18 28 0 25 4 31 18 28 11 -2 17
-12 17 -28z"/>
<path d="M2969 4521 c9 -6 12 -25 10 -65 -3 -45 -1 -56 11 -56 12 0 15 14 15
65 0 63 -1 65 -25 65 -18 0 -21 -3 -11 -9z"/>
<path d="M3052 4514 c-28 -19 -30 -74 -4 -97 59 -53 140 35 87 93 -22 24 -53
26 -83 4z m68 -13 c23 -43 6 -91 -32 -91 -33 0 -52 72 -26 98 18 18 46 14 58
-7z"/>
<path d="M3233 4523 c-23 -9 -14 -24 11 -17 33 8 40 -9 20 -48 -9 -18 -12 -28
-6 -23 6 6 18 23 26 39 22 43 -5 68 -51 49z"/>
<path d="M3326 4515 c-4 -12 0 -14 18 -9 30 7 41 -9 25 -37 -8 -16 -8 -20 1
-14 18 11 29 49 18 63 -14 17 -55 15 -62 -3z"/>
<path d="M3338 4426 c-10 -7 -18 -16 -18 -20 0 -12 73 -2 77 10 2 7 -6 10 -23
6 -19 -3 -25 -1 -20 7 9 14 5 14 -16 -3z"/>
<path d="M3220 4412 c-10 -11 -4 -13 31 -10 23 2 44 8 46 13 5 15 -62 12 -77
-3z"/>
<path d="M2730 3641 l0 -721 -367 2 -368 3 0 222 c0 142 -4 223 -10 223 -15 1
-932 1 -998 0 l-57 0 2 -457 3 -458 515 0 c283 -1 522 1 530 3 13 3 15 34 15
217 -1 118 1 219 4 223 3 5 172 8 376 8 l370 -1 0 715 c-1 393 3 718 7 721 5
3 202 4 438 1 253 -2 430 0 430 6 0 5 -188 10 -445 11 l-445 2 0 -720z m-753
-728 l2 -443 -517 3 -517 2 -1 430 c0 237 1 435 3 440 2 7 170 11 516 10 l512
0 2 -442z"/>
<path d="M1177 3158 c-6 -40 -4 -42 21 -29 28 15 48 -9 32 -38 -13 -25 -14
-25 -35 -5 -9 9 -19 14 -22 10 -10 -9 18 -36 38 -36 23 0 52 42 43 63 -7 18
-39 31 -54 22 -14 -8 -13 8 1 22 6 6 17 9 24 7 7 -3 16 -1 20 5 4 7 -6 11 -28
11 -31 0 -35 -3 -40 -32z"/>
<path d="M1281 3176 c-18 -21 -10 -97 12 -110 28 -18 52 4 55 53 3 46 -10 71
-38 71 -10 0 -23 -6 -29 -14z m53 -43 c7 -36 -19 -72 -37 -54 -15 15 -13 81 4
91 18 12 27 2 33 -37z"/>
<path d="M1620 3180 c0 -5 5 -10 10 -10 6 0 10 5 10 10 0 6 -4 10 -10 10 -5 0
-10 -4 -10 -10z"/>
<path d="M1442 3148 c-28 -28 -8 -88 29 -88 19 0 45 27 35 37 -3 4 -12 -2 -19
-11 -13 -17 -14 -17 -30 -1 -21 20 -21 29 -1 49 14 14 17 14 40 0 13 -9 24
-24 24 -34 0 -45 75 -52 82 -7 9 54 -41 90 -72 52 -12 -14 -15 -14 -30 0 -20
18 -42 19 -58 3z m140 -23 c9 -21 9 -29 -3 -40 -26 -27 -61 22 -36 53 15 18
26 15 39 -13z"/>
<path d="M1621 3110 c-1 -28 3 -50 9 -50 5 0 10 23 10 50 0 28 -4 50 -8 50 -5
0 -10 -22 -11 -50z"/>
<path d="M1661 3109 c0 -27 4 -49 9 -49 6 0 10 18 10 40 0 33 3 40 20 40 20 0
25 -17 21 -62 -1 -10 3 -18 8 -18 12 0 15 69 3 87 -4 6 -21 11 -38 11 -31 -1
-31 -2 -33 -49z"/>
<path d="M1365 3100 c3 -5 17 -10 31 -10 13 0 24 5 24 10 0 6 -14 10 -31 10
-17 0 -28 -4 -24 -10z"/>
<path d="M1097 2891 c2 -81 2 -81 12 -81 4 0 7 11 6 23 -2 20 1 23 21 19 32
-6 53 36 36 73 -9 19 -18 24 -44 23 l-33 -1 2 -56z m63 15 c0 -11 -4 -27 -9
-35 -8 -12 -12 -12 -25 -2 -19 16 -21 42 -5 58 16 16 39 4 39 -21z"/>
<path d="M1197 2906 c1 -23 2 -44 2 -48 1 -5 5 -8 9 -8 5 0 8 16 7 35 -2 26 4
40 18 50 19 13 18 14 -9 13 -28 -1 -30 -3 -27 -42z"/>
<path d="M1266 2934 c-9 -8 -16 -24 -16 -34 0 -41 55 -65 80 -35 14 17 3 20
-20 5 -9 -5 -19 -5 -27 2 -22 18 -14 28 22 28 36 0 46 15 23 38 -17 17 -44 15
-62 -4z m54 -15 c0 -5 -10 -7 -22 -5 -13 3 -25 5 -28 5 -3 1 1 5 9 10 16 10
41 4 41 -10z"/>
<path d="M1361 2937 c-9 -12 -8 -18 4 -31 9 -9 23 -16 32 -16 8 0 13 -6 10
-12 -5 -14 -10 -14 -42 -2 -18 7 -18 6 -6 -9 17 -21 44 -22 61 -2 15 18 6 33
-27 46 -13 5 -21 13 -18 19 4 7 13 6 27 -1 16 -9 19 -8 16 3 -6 19 -42 22 -57
5z"/>
<path d="M1448 2925 c-24 -53 36 -103 72 -60 8 9 9 15 2 15 -6 0 -14 -5 -17
-10 -4 -7 -13 -7 -26 0 -30 16 -23 30 16 30 38 0 40 2 25 31 -16 28 -58 25
-72 -6z m62 -4 c0 -4 -11 -7 -25 -7 -26 0 -34 11 -12 19 14 5 37 -2 37 -12z"/>
<path d="M1546 2940 c-2 -4 0 -60 3 -82 1 -5 5 -8 9 -8 5 0 8 16 7 35 -2 36
13 59 31 47 5 -4 10 -22 10 -41 0 -19 4 -36 10 -38 12 -4 12 66 0 85 -7 12
-65 13 -70 2z"/>
<path d="M1649 2927 c-12 -28 3 -77 25 -77 26 0 46 12 46 28 0 14 -2 14 -17 0
-25 -21 -43 -12 -43 22 0 30 21 45 39 27 13 -13 26 -3 16 12 -12 20 -55 12
-66 -12z"/>
<path d="M1746 2934 c-20 -20 -20 -48 0 -68 20 -20 48 -20 64 -1 14 17 3 20
-20 5 -9 -5 -19 -5 -27 2 -22 18 -14 28 22 28 19 0 35 4 35 9 0 14 -30 41 -45
41 -7 0 -21 -7 -29 -16z m49 -14 c-3 -5 -13 -7 -23 -5 -9 2 -19 4 -22 4 -3 1
1 5 9 10 16 10 44 3 36 -9z"/>
<path d="M1199 2714 c-11 -14 -10 -18 6 -30 10 -8 25 -14 32 -14 7 0 13 -4 13
-9 0 -13 -28 -22 -35 -11 -4 6 -11 10 -17 10 -7 0 -6 -6 2 -15 16 -19 44 -19
60 0 15 18 6 33 -27 46 -13 5 -21 13 -18 19 4 7 12 7 25 0 27 -14 34 -12 20 5
-16 20 -44 19 -61 -1z"/>
<path d="M1296 2714 c-19 -18 -20 -38 -6 -65 13 -23 52 -25 70 -4 14 17 3 20
-20 5 -9 -5 -19 -5 -27 2 -22 18 -14 28 22 28 36 0 46 15 23 38 -17 17 -44 15
-62 -4z m45 -17 c-5 -5 -18 -7 -28 -3 -14 6 -15 9 -4 16 19 11 46 1 32 -13z"/>
<path d="M1389 2720 c-5 -50 -4 -82 3 -86 9 -6 9 -3 12 36 0 14 5 31 9 38 14
21 36 -5 34 -40 -1 -17 3 -33 9 -35 11 -4 11 67 0 86 -7 11 -65 12 -67 1z"/>
<path d="M1490 2710 c-10 -18 -8 -22 19 -31 17 -6 31 -15 31 -19 0 -12 -29
-20 -35 -10 -8 13 -25 13 -25 0 0 -16 49 -23 65 -10 23 19 18 37 -16 49 -17 6
-28 15 -24 21 4 7 13 7 27 -1 16 -9 19 -8 16 3 -8 22 -45 21 -58 -2z"/>
<path d="M1586 2714 c-29 -29 -11 -84 27 -84 30 0 47 18 47 50 0 47 -42 66
-74 34z m57 -24 c3 -11 0 -26 -7 -35 -16 -22 -46 -9 -46 19 0 44 42 56 53 16z"/>
<path d="M1677 2686 c2 -58 2 -58 13 -51 6 3 8 19 5 35 -4 22 0 32 16 44 21
15 21 15 -7 14 -28 -1 -29 -3 -27 -42z"/>
<path d="M5343 3940 c-40 -37 -11 -109 44 -110 38 0 53 11 53 41 0 24 -4 29
-25 29 -31 0 -33 -15 -2 -24 21 -6 21 -7 4 -20 -26 -20 -59 -6 -72 29 -8 23
-6 30 14 46 28 23 35 23 56 3 20 -20 33 -11 15 11 -17 21 -62 19 -87 -5z"/>
<path d="M5469 3953 c-1 -13 -1 -87 0 -105 0 -10 6 -18 12 -18 5 0 9 8 8 18
-3 30 1 43 11 37 16 -10 58 6 63 24 8 33 -11 51 -53 51 -22 0 -40 -3 -41 -7z
m76 -33 c0 -9 -11 -16 -26 -18 -20 -2 -28 2 -32 18 -5 19 -2 21 26 18 20 -2
32 -8 32 -18z"/>
<path d="M5590 3895 c0 -37 4 -65 10 -65 6 0 10 28 10 65 0 37 -4 65 -10 65
-6 0 -10 -28 -10 -65z"/>
<path d="M5656 3947 c-27 -20 -31 -72 -7 -96 34 -34 77 -27 99 15 31 59 -38
121 -92 81z m82 -45 c4 -28 -31 -62 -57 -55 -37 10 -40 87 -3 96 24 6 56 -16
60 -41z"/>
<path d="M5843 3952 c-16 -10 -26 -57 -19 -86 11 -45 70 -45 79 0 6 33 -14 59
-42 51 -24 -6 -28 5 -8 22 10 8 17 7 25 -1 13 -13 27 -4 17 11 -7 13 -35 14
-52 3z m45 -74 c-2 -15 -10 -23 -23 -23 -13 0 -21 8 -23 23 -3 18 1 22 23 22
22 0 26 -4 23 -22z"/>
<path d="M5970 3951 c0 -5 14 -8 30 -7 17 1 30 1 30 1 0 -1 -6 -15 -14 -31
-22 -44 -30 -84 -17 -84 6 0 11 8 11 19 0 10 11 39 25 65 l24 46 -44 0 c-25 0
-45 -4 -45 -9z"/>
<path d="M6134 3946 c-3 -8 -4 -20 -3 -27 1 -8 -2 -22 -6 -33 -11 -24 6 -50
35 -54 26 -4 39 6 45 37 3 18 -3 25 -31 37 -29 12 -34 18 -24 29 14 17 30 11
30 -11 0 -8 5 -14 10 -14 11 0 13 11 4 34 -8 20 -53 21 -60 2z m56 -81 c0 -8
-6 -15 -12 -18 -21 -7 -38 4 -38 23 0 10 6 20 13 23 15 5 37 -11 37 -28z"/>
<path d="M6282 3948 c-28 -28 -1 -75 38 -65 23 6 25 -2 7 -27 -12 -17 -15 -17
-29 -2 -23 22 -31 20 -18 -4 23 -43 72 -15 75 43 3 52 -42 86 -73 55z m49 -42
c-16 -19 -41 -10 -41 14 0 24 21 31 39 14 11 -10 12 -16 2 -28z"/>
<path d="M6453 3943 c-27 -19 -31 -38 -5 -24 16 9 18 5 17 -40 -1 -27 3 -49 7
-49 4 0 8 29 8 65 0 36 -1 65 -2 64 -2 0 -13 -7 -25 -16z"/>
<path d="M6530 3941 c-23 -43 -5 -111 29 -111 24 0 38 18 45 55 10 57 -49 102
-74 56z m57 -38 c2 -56 -41 -82 -47 -28 -6 52 0 66 23 63 17 -2 22 -10 24 -35z"/>
<path d="M5933 3825 c0 -13 3 -22 8 -19 5 3 9 14 9 25 0 10 -4 19 -9 19 -5 0
-8 -11 -8 -25z"/>
<path d="M6084 3826 c0 -13 4 -22 9 -19 10 6 9 43 -2 43 -5 0 -8 -11 -7 -24z"/>
<path d="M6233 3824 c0 -18 2 -22 8 -13 11 18 11 39 0 39 -5 0 -8 -12 -8 -26z"/>
<path d="M6383 3824 c0 -18 2 -22 8 -13 11 18 11 39 0 39 -5 0 -8 -12 -8 -26z"/>
<path d="M2880 3690 c-45 -45 -9 -116 57 -108 21 2 29 9 32 28 1 14 8 28 15
32 6 4 -2 8 -18 8 -21 0 -26 -3 -19 -12 28 -39 -19 -65 -52 -29 -14 17 -16 27
-9 53 11 38 42 48 68 23 15 -15 16 -15 16 2 0 27 -64 29 -90 3z"/>
<path d="M2998 3703 c7 -3 12 -25 12 -58 0 -33 -5 -55 -12 -58 -7 -3 3 -5 22
-5 19 0 29 2 23 5 -25 10 -14 40 17 47 23 4 30 11 30 29 0 34 -19 47 -64 46
-23 0 -35 -3 -28 -6z m67 -33 c0 -16 -6 -26 -17 -28 -14 -3 -18 3 -18 28 0 25
4 31 18 28 11 -2 17 -12 17 -28z"/>
<path d="M3108 3703 c7 -3 12 -25 12 -58 0 -33 -5 -55 -12 -58 -7 -3 3 -6 22
-6 23 0 30 2 21 8 -9 6 -12 25 -10 65 4 54 3 56 -21 55 -14 0 -19 -3 -12 -6z"/>
<path d="M3187 3692 c-39 -43 -8 -112 49 -112 31 0 63 43 56 75 -9 50 -74 72
-105 37z m73 -11 c14 -28 12 -67 -5 -81 -37 -31 -80 24 -57 75 14 30 47 33 62
6z"/>
<path d="M3369 3694 c-11 -13 -9 -14 13 -9 35 9 44 -9 22 -43 -17 -26 -17 -26
0 -12 25 20 36 52 24 68 -14 17 -43 15 -59 -4z"/>
<path d="M3484 3685 c-18 -19 -24 -34 -22 -57 6 -60 69 -64 76 -5 3 21 -2 28
-22 33 -33 8 -33 20 2 38 20 11 22 15 9 16 -10 0 -29 -11 -43 -25z m36 -54
c11 -22 -3 -46 -24 -38 -10 4 -16 18 -16 36 0 23 4 29 15 25 9 -4 20 -14 25
-23z"/>
<path d="M3365 3593 c-4 -11 4 -13 32 -11 20 2 38 8 40 13 5 16 -65 13 -72 -2z"/>
<path d="M5704 3502 c-17 -11 -33 -46 -30 -66 9 -66 116 -80 116 -15 0 24 -4
29 -25 29 -31 0 -33 -17 -3 -22 20 -3 21 -4 5 -19 -15 -15 -66 -16 -68 0 0 3
-2 16 -5 29 -2 13 4 30 16 42 24 24 34 25 55 4 20 -20 33 -11 15 11 -13 16
-57 20 -76 7z"/>
<path d="M5819 3500 c-1 -5 -1 -26 -1 -45 0 -64 2 -75 13 -75 6 0 9 9 6 20 -6
22 9 36 34 32 8 -1 23 6 33 17 28 31 6 61 -44 61 -22 0 -40 -4 -41 -10z m76
-31 c0 -16 -43 -25 -56 -12 -6 6 -7 17 -4 25 8 20 60 9 60 -13z"/>
<path d="M5940 3446 c0 -36 4 -66 8 -66 13 0 15 117 2 125 -6 4 -10 -16 -10
-59z"/>
<path d="M6001 3491 c-24 -24 -20 -79 6 -98 44 -33 104 4 97 59 -6 54 -66 76
-103 39z m69 -11 c26 -26 25 -52 -1 -76 -12 -10 -22 -19 -24 -19 -2 0 -12 9
-24 19 -25 23 -27 53 -4 78 21 23 28 23 53 -2z"/>
<path d="M6182 3478 c-11 -39 -8 -45 13 -28 12 10 18 10 30 0 19 -16 19 -34 1
-49 -11 -9 -18 -8 -30 5 -20 20 -34 11 -16 -11 17 -21 43 -19 65 5 15 17 16
24 7 45 -7 15 -20 25 -32 25 -11 0 -20 5 -20 10 0 6 11 10 25 10 14 0 25 5 25
10 0 6 -13 10 -30 10 -25 0 -31 -5 -38 -32z"/>
<path d="M5164 2922 c9 -8 73 -10 423 -13 l292 -3 0 -293 c0 -162 2 -297 5
-301 2 -4 204 -7 448 -7 l443 0 5 -225 5 -225 523 0 c339 0 526 4 530 10 4 6
6 211 7 458 l0 447 -70 0 c-73 1 -947 0 -977 0 -17 0 -18 -17 -18 -225 l0
-225 -439 0 c-342 0 -440 3 -443 13 -3 6 -4 137 -4 290 1 153 -2 283 -5 289
-4 6 -137 11 -369 13 -199 2 -359 1 -356 -3z m2661 -607 l0 -440 -515 -2 -515
-2 -1 442 0 442 516 0 515 0 0 -440z"/>
<path d="M6940 2425 l0 -65 33 0 c17 0 37 4 43 8 16 11 24 41 13 48 -6 3 -8
18 -4 32 7 30 -7 42 -52 42 l-33 0 0 -65z m70 29 c0 -8 -10 -14 -25 -14 -26 0
-35 25 -12 33 18 6 37 -3 37 -19z m4 -50 c7 -19 -34 -36 -51 -22 -19 15 2 47
26 41 11 -3 22 -11 25 -19z"/>
<path d="M7256 2433 c3 -74 2 -73 13 -73 6 0 8 9 6 20 -6 30 10 33 25 5 7 -14
17 -25 22 -25 12 0 10 13 -8 38 -15 21 -15 25 2 43 9 10 12 19 7 19 -6 0 -16
-7 -23 -15 -18 -22 -27 -18 -26 12 0 14 -4 28 -9 30 -7 2 -10 -19 -9 -54z"/>
<path d="M7554 2477 c-5 -9 -7 -38 -4 -64 4 -38 9 -48 25 -51 15 -2 17 -1 6 6
-20 14 -22 70 -2 82 9 5 11 10 4 10 -6 0 -13 8 -15 18 -4 16 -4 16 -14 -1z"/>
<path d="M7067 2453 c-14 -14 -6 -23 12 -14 14 8 22 7 31 -4 10 -11 6 -16 -22
-23 -23 -6 -33 -14 -33 -28 0 -15 8 -19 42 -20 l41 -2 -3 39 c-2 21 -6 43 -10
49 -7 11 -48 14 -58 3z m41 -69 c-9 -9 -21 -13 -27 -10 -20 13 -11 26 16 26
25 0 26 -1 11 -16z"/>
<path d="M7159 2450 c-2 -7 -2 -62 0 -78 0 -7 5 -11 10 -7 6 3 8 15 6 26 -6
29 12 60 29 53 10 -4 13 -18 12 -45 -2 -26 1 -38 8 -36 11 4 12 56 2 83 -5 13
-65 17 -67 4z"/>
<path d="M7348 2430 c-4 -33 1 -70 11 -70 4 0 7 16 6 35 -3 43 19 66 35 36 6
-12 10 -27 9 -34 -3 -24 1 -38 10 -33 9 6 6 69 -4 86 -4 6 -19 9 -35 8 -22 -2
-29 -8 -32 -28z"/>
<path d="M7460 2450 c-33 -21 -15 -90 23 -90 30 0 47 18 47 50 0 43 -34 63
-70 40z m50 -40 c0 -30 -21 -45 -39 -27 -23 23 -4 71 25 60 8 -3 14 -18 14
-33z"/>
<path d="M7606 2444 c-19 -18 -20 -38 -6 -65 13 -24 53 -25 71 -2 12 15 12 16
-6 9 -11 -4 -22 -8 -25 -8 -20 -2 -30 4 -30 17 0 10 11 15 35 15 38 0 40 2 25
31 -13 23 -43 25 -64 3z m54 -13 c0 -4 -11 -7 -25 -7 -26 0 -34 11 -12 19 14
5 37 -2 37 -12z"/>
<path d="M7343 2255 c-12 -21 -1 -108 15 -113 9 -3 10 2 3 20 -11 29 -11 39 0
60 6 10 5 19 -1 23 -6 4 -8 11 -5 16 4 5 4 9 1 9 -3 0 -9 -7 -13 -15z"/>
<path d="M7088 2199 c-2 -22 0 -45 4 -52 9 -14 9 -13 12 28 5 66 36 70 36 4 0
-21 5 -39 10 -39 6 0 10 18 10 39 0 42 16 63 31 40 5 -8 9 -29 9 -46 0 -18 4
-33 9 -33 9 0 8 71 -2 87 -3 5 -31 10 -60 11 l-55 1 -4 -40z"/>
<path d="M7238 2215 c-16 -36 3 -75 37 -75 17 0 29 8 37 25 16 36 -3 75 -37
75 -17 0 -29 -8 -37 -25z m62 -25 c0 -16 -6 -30 -12 -33 -24 -8 -38 5 -38 33
0 16 6 30 13 33 23 8 37 -5 37 -33z"/>
<path d="M7393 2228 c-13 -18 -14 -60 -1 -75 13 -16 50 -17 66 -1 7 7 12 24
12 38 0 14 -5 31 -12 38 -16 16 -53 15 -65 0z m57 -38 c0 -16 -6 -30 -12 -33
-24 -8 -38 5 -38 33 0 16 6 30 13 33 23 8 37 -5 37 -33z"/>
<path d="M7489 2235 c0 -3 -1 -21 -1 -40 0 -53 1 -59 9 -51 4 4 8 21 9 39 3
46 2 45 22 50 10 3 6 5 -10 6 -16 0 -28 -1 -29 -4z"/>
<path d="M6072 2474 c-33 -23 -27 -83 10 -103 38 -22 82 -5 86 32 3 24 0 27
-28 27 -20 0 -29 -4 -25 -11 4 -6 13 -8 21 -5 20 8 17 -22 -3 -32 -10 -6 -28
-6 -40 -1 -18 6 -23 16 -23 44 0 29 5 37 26 46 21 7 31 6 45 -7 17 -15 19 -15
19 -2 0 30 -53 37 -88 12z"/>
<path d="M6190 2425 c0 -64 16 -91 22 -38 2 21 9 27 29 28 34 2 49 12 49 34 0
27 -21 41 -62 41 l-38 0 0 -65z m83 38 c12 -11 -14 -33 -39 -33 -17 0 -24 6
-24 20 0 15 7 20 28 20 16 0 32 -3 35 -7z"/>
<path d="M6319 2488 c-6 -13 -3 -128 2 -128 10 0 16 121 7 127 -5 2 -9 3 -9 1z"/>
<path d="M6375 2470 c-37 -41 -9 -110 46 -110 33 0 59 32 59 71 0 53 -69 79
-105 39z m66 0 c25 -14 27 -75 2 -88 -24 -13 -63 3 -64 25 -2 33 2 48 19 61
19 15 19 15 43 2z"/>
<path d="M6571 2451 c-37 -47 -39 -59 -6 -56 17 2 26 -3 30 -16 9 -26 24 -24
17 3 -3 14 -2 19 6 14 7 -4 12 -2 12 3 0 6 -5 11 -11 11 -7 0 -10 15 -7 40 2
22 0 40 -3 40 -4 0 -21 -18 -38 -39z m27 -16 c0 -18 -6 -25 -19 -25 -18 0 -19
1 -3 25 9 14 17 25 19 25 1 0 3 -11 3 -25z"/>
<path d="M4970 1820 c-27 -27 -26 -75 2 -94 31 -22 77 -21 84 2 3 9 10 25 15
35 8 14 5 17 -17 17 -18 0 -23 -4 -17 -12 14 -23 11 -37 -9 -44 -24 -7 -58 21
-58 48 0 52 56 80 79 41 9 -16 10 -16 11 -2 0 33 -60 39 -90 9z"/>
<path d="M5090 1830 c18 -11 17 -99 -2 -111 -8 -6 0 -8 22 -8 19 0 29 3 23 6
-25 10 -14 40 17 47 23 4 30 11 30 29 0 33 -19 47 -64 47 -29 0 -37 -3 -26
-10z m65 -30 c0 -16 -6 -26 -17 -28 -14 -3 -18 3 -18 28 0 25 4 31 18 28 11
-2 17 -12 17 -28z"/>
<path d="M5198 1833 c7 -3 12 -25 12 -58 0 -33 -5 -55 -12 -58 -7 -3 -2 -6 12
-6 24 -1 25 1 25 64 0 63 -1 65 -25 64 -14 0 -19 -3 -12 -6z"/>
<path d="M5282 1824 c-48 -33 -17 -114 44 -114 28 0 57 33 57 65 0 55 -55 81
-101 49z m68 -14 c14 -26 8 -71 -12 -83 -37 -24 -71 31 -49 79 13 29 46 32 61
4z"/>
<path d="M5460 1825 c-7 -9 -10 -18 -6 -22 3 -3 6 -1 6 5 0 12 32 17 43 6 3
-3 1 -18 -4 -33 l-9 -26 20 23 c15 18 17 28 10 43 -13 23 -43 25 -60 4z"/>
<path d="M5462 1738 c-7 -7 -12 -16 -12 -21 0 -12 73 -4 77 9 2 7 -9 9 -29 7
-25 -3 -29 -2 -18 6 8 6 10 11 5 11 -6 0 -16 -5 -23 -12z"/>
<path d="M5982 1485 c-30 -22 -31 -78 0 -99 32 -23 75 -20 88 4 6 11 8 20 4
20 -3 0 -1 7 6 15 11 13 8 15 -15 15 -20 0 -25 -3 -18 -12 27 -37 -13 -64 -48
-32 -21 19 -24 45 -9 75 13 24 56 25 69 2 10 -16 10 -16 11 2 0 17 -7 21 -33
23 -17 1 -42 -5 -55 -13z"/>
<path d="M6098 1493 c7 -3 12 -25 12 -58 0 -33 -5 -55 -12 -58 -7 -3 3 -5 22
-5 19 0 29 2 23 5 -20 8 -16 43 5 43 24 0 42 19 42 46 0 26 -18 34 -68 33 -20
0 -31 -3 -24 -6z m67 -33 c0 -16 -6 -26 -17 -28 -14 -3 -18 3 -18 28 0 25 4
31 18 28 11 -2 17 -12 17 -28z"/>
<path d="M6215 1435 c0 -51 3 -65 15 -65 12 0 14 11 11 56 -2 40 1 59 10 65
10 6 7 9 -11 9 -24 0 -25 -2 -25 -65z"/>
<path d="M6292 1484 c-28 -19 -30 -74 -4 -97 40 -37 105 -7 105 48 0 55 -55
81 -101 49z m68 -13 c23 -43 6 -91 -32 -91 -32 0 -48 61 -25 98 12 18 45 14
57 -7z"/>
<path d="M6476 1491 c-4 -5 3 -7 14 -4 15 4 20 0 20 -16 0 -12 -6 -24 -14 -27
-12 -4 -11 -9 5 -25 24 -24 15 -43 -17 -35 -14 4 -24 2 -24 -4 0 -14 43 -13
58 2 15 15 16 58 1 58 -8 0 -8 4 0 14 6 7 9 21 5 30 -7 17 -39 22 -48 7z"/>
<path d="M2170 870 c-45 -45 -9 -116 57 -108 21 2 29 9 32 28 1 14 8 28 15 32
6 4 -2 8 -18 8 -21 0 -26 -3 -19 -12 27 -37 -13 -64 -48 -32 -21 19 -24 45 -9
75 13 23 43 25 64 3 14 -13 16 -13 16 -1 0 14 -28 27 -57 27 -7 0 -22 -9 -33
-20z"/>
<path d="M2289 881 c9 -6 14 -27 14 -56 0 -29 -5 -50 -14 -56 -10 -6 -3 -8 21
-8 19 0 29 3 23 6 -25 10 -14 40 17 47 23 4 30 11 30 29 0 33 -19 47 -64 47
-28 0 -36 -3 -27 -9z m66 -31 c0 -16 -6 -26 -17 -28 -14 -3 -18 3 -18 28 0 25
4 31 18 28 11 -2 17 -12 17 -28z"/>
<path d="M2398 883 c7 -3 12 -25 12 -58 0 -33 -5 -55 -12 -58 -7 -3 -2 -6 12
-6 24 -1 25 1 25 64 0 63 -1 65 -25 64 -14 0 -19 -3 -12 -6z"/>
<path d="M2482 874 c-47 -33 -18 -114 41 -114 33 0 67 42 60 73 -13 53 -57 72
-101 41z m66 -6 c17 -17 15 -73 -3 -88 -22 -18 -48 -8 -59 22 -19 53 27 101
62 66z"/>
<path d="M2660 875 c-7 -9 -10 -18 -6 -22 3 -3 6 -1 6 6 0 18 45 9 46 -9 0 -8
-5 -21 -10 -29 -8 -11 -8 -13 2 -7 20 12 31 49 20 64 -14 17 -43 15 -58 -3z"/>
<path d="M2757 877 c-4 -10 3 -12 24 -9 33 5 34 0 14 -58 -8 -24 -13 -45 -11
-47 2 -2 12 20 21 49 10 29 20 59 23 66 3 8 -7 12 -31 12 -20 0 -37 -6 -40
-13z"/>
<path d="M2654 781 c-2 -2 -4 -8 -4 -13 0 -12 73 -6 77 7 3 9 -64 15 -73 6z"/>
<path d="M3532 654 c-15 -10 -22 -25 -22 -49 0 -39 29 -65 72 -65 27 0 55 30
40 44 -3 4 0 11 8 16 11 7 8 10 -14 10 -21 0 -26 -3 -19 -12 15 -20 10 -42
-10 -46 -25 -5 -57 26 -57 54 0 46 58 73 79 37 9 -16 10 -16 11 -2 0 31 -52
39 -88 13z"/>
<path d="M3653 656 c17 -18 14 -95 -5 -107 -8 -6 -1 -8 22 -8 19 0 29 3 23 6
-25 10 -14 40 17 47 25 5 30 10 30 35 0 32 -14 41 -67 41 -29 0 -32 -2 -20
-14z m62 -26 c0 -16 -6 -26 -17 -28 -14 -3 -18 3 -18 28 0 25 4 31 18 28 11
-2 17 -12 17 -28z"/>
<path d="M3765 605 c0 -51 3 -65 15 -65 12 0 15 14 15 65 0 51 -3 65 -15 65
-12 0 -15 -14 -15 -65z"/>
<path d="M3840 652 c-45 -36 -15 -112 45 -112 47 0 75 65 43 105 -23 29 -57
32 -88 7z m70 -11 c14 -28 12 -67 -5 -81 -37 -31 -80 24 -57 75 14 30 47 33
62 6z"/>
<path d="M4020 656 c-10 -13 -7 -15 16 -13 31 2 39 -16 20 -43 -6 -9 -1 -5 12
8 17 18 20 27 12 43 -13 22 -43 25 -60 5z"/>
<path d="M4121 657 c-8 -10 -7 -19 3 -33 13 -16 12 -21 -1 -36 -13 -15 -14
-20 -3 -33 16 -20 49 -16 64 7 8 13 6 21 -6 35 -14 16 -14 20 -2 31 12 11 12
17 3 28 -15 18 -43 18 -58 1z m49 -11 c0 -8 -5 -18 -11 -22 -14 -8 -33 11 -25
25 10 16 36 13 36 -3z m0 -77 c0 -20 -24 -26 -35 -9 -4 6 -4 17 -1 25 7 20 36
7 36 -16z"/>
<path d="M4011 552 c-13 -10 -9 -12 28 -10 25 2 46 8 48 13 4 14 -57 12 -76
-3z"/>
</g>
</svg>
