<?xml version="1.0" standalone="no"?>
<!DOCTYPE svg PUBLIC "-//W3C//DTD SVG 20010904//EN"
 "http://www.w3.org/TR/2001/REC-SVG-20010904/DTD/svg10.dtd">
<svg version="1.0" xmlns="http://www.w3.org/2000/svg"
 width="583.000000pt" height="750.000000pt" viewBox="0 0 583.000000 750.000000"
 preserveAspectRatio="xMidYMid meet">

<g transform="translate(0.000000,750.000000) scale(0.100000,-0.100000)"
fill="#000000" stroke="none">
<path d="M0 7116 l0 -383 143 -7 c78 -4 156 -8 172 -11 31 -4 321 -34 341 -35
7 0 22 -21 33 -46 21 -44 22 -52 11 -172 -39 -471 -40 -479 -88 -467 -15 4
-34 13 -43 21 -8 8 -21 14 -27 14 -7 0 -12 5 -12 10 0 6 -10 10 -22 10 -45 0
-136 32 -141 50 -5 18 -110 50 -165 50 -16 0 -40 8 -53 19 -13 10 -40 21 -59
24 -19 3 -47 9 -63 12 l-27 7 0 -271 c0 -149 1 -271 3 -271 1 0 36 7 77 15
256 52 320 46 484 -48 21 -12 50 -32 64 -44 56 -51 58 -40 67 310 3 125 10
260 15 300 5 40 11 182 15 316 5 227 7 248 28 290 20 41 26 46 56 46 25 0 39
-7 54 -27 20 -27 20 -32 8 -265 -7 -131 -18 -362 -26 -513 -8 -151 -17 -355
-20 -453 -4 -99 -8 -187 -10 -196 -2 -10 6 -42 16 -72 88 -246 101 -305 101
-479 1 -237 -28 -386 -120 -615 -22 -55 -42 -107 -45 -116 -3 -9 -8 -135 -12
-280 -4 -145 -8 -289 -10 -319 -1 -30 -6 -158 -9 -285 -4 -126 -9 -267 -12
-312 l-6 -83 -52 0 c-93 0 -90 -9 -82 271 4 134 11 291 16 349 6 58 11 132 13
165 2 33 7 108 12 168 4 59 5 107 1 107 -8 0 -66 -38 -76 -50 -15 -17 -89 -70
-98 -70 -6 0 -26 -9 -45 -20 -37 -22 -59 -29 -117 -37 -19 -3 -39 -12 -43 -19
-4 -8 -18 -14 -30 -14 -12 1 -37 -2 -55 -6 -26 -5 -31 -3 -27 8 5 11 -1 14
-25 10 -16 -2 -30 -8 -30 -13 0 -5 -13 -9 -28 -9 -15 0 -33 -5 -40 -12 -9 -9
-12 -432 -12 -1840 l0 -1828 1645 0 1645 0 -5 53 c-3 28 -16 263 -30 522 -13
259 -29 549 -35 645 -6 96 -15 258 -20 360 -6 102 -15 246 -20 320 -5 74 -14
227 -20 340 -12 244 -26 408 -46 548 -18 125 -10 160 45 190 33 18 58 20 266
23 310 4 311 4 340 -15 44 -29 55 -75 55 -225 0 -178 -11 -244 -60 -373 -35
-95 -41 -119 -41 -195 -1 -93 6 -121 44 -166 22 -27 31 -29 113 -34 52 -3 103
-12 124 -21 32 -16 35 -21 38 -65 3 -42 7 -51 33 -65 20 -12 29 -25 29 -43 0
-45 76 -85 197 -104 35 -5 48 -14 73 -48 42 -57 60 -128 85 -337 9 -74 21
-145 26 -158 5 -13 9 -31 9 -40 0 -9 6 -35 13 -57 10 -35 13 -1 17 251 5 290
5 291 30 327 28 41 48 53 64 37 19 -19 63 -12 71 13 4 13 8 17 12 10 2 -7 16
-13 29 -13 13 0 24 -4 24 -8 0 -11 59 -15 185 -13 55 2 118 3 140 3 22 0 52
-3 67 -7 38 -10 115 27 128 61 6 14 10 57 10 95 0 63 2 70 23 78 26 10 47 4
47 -14 0 -7 7 -15 15 -19 10 -4 13 -14 9 -34 -6 -29 15 -62 39 -62 33 0 83 23
123 56 28 22 59 38 84 41 34 5 42 1 78 -34 26 -26 42 -52 46 -74 9 -64 15
-308 7 -313 -5 -3 -11 -27 -15 -52 -5 -40 -2 -52 17 -78 38 -51 49 -90 62
-224 11 -111 13 -12 14 786 1 842 0 913 -16 919 -18 7 -93 83 -93 95 0 4 -8 6
-17 6 -10 0 -26 3 -36 7 -17 7 -18 1 -14 -108 4 -83 2 -119 -7 -126 -25 -21
-105 -35 -192 -35 -77 1 -97 4 -128 23 -20 13 -36 28 -36 34 0 21 -44 54 -77
59 -28 4 -35 0 -60 -35 -63 -90 -74 -97 -153 -97 -82 0 -102 8 -150 63 -33 36
-38 38 -73 32 -21 -4 -53 -20 -70 -36 -49 -45 -85 -57 -190 -62 -92 -5 -101
-7 -138 -36 -54 -44 -108 -61 -168 -54 -73 8 -97 -1 -111 -42 -16 -49 -35 -65
-78 -65 -47 0 -78 21 -91 63 -5 17 -15 128 -21 245 -14 238 -10 261 44 289 26
14 96 19 436 30 223 7 414 14 425 15 11 2 -27 9 -85 16 -154 18 -346 42 -419
53 -107 15 -414 76 -506 101 -22 6 -53 12 -70 15 -62 8 -172 23 -240 32 -173
25 -227 31 -329 36 -116 5 -154 -5 -119 -30 11 -8 18 -31 21 -74 3 -43 8 -61
18 -61 16 0 18 -29 3 -50 -8 -11 -12 -12 -16 -2 -2 6 -13 12 -24 12 -12 0 -19
7 -19 20 0 13 -7 20 -19 20 -11 0 -23 9 -26 20 -5 15 -15 20 -40 20 -21 0 -35
6 -39 16 -5 12 -15 15 -39 11 -17 -3 -41 -2 -52 3 -15 6 -6 9 35 11 30 1 67 1
81 0 36 -3 57 36 37 70 -7 13 -17 27 -22 30 -5 4 -5 12 -1 18 17 28 618 -30
820 -79 44 -11 103 -22 130 -25 28 -4 82 -13 120 -21 39 -8 99 -16 134 -18 35
-3 67 -9 70 -13 8 -11 61 -13 61 -2 0 5 -9 9 -20 9 -30 0 -32 1 -74 22 -21 11
-58 21 -83 23 -24 1 -50 8 -56 14 -6 6 -25 11 -42 11 -17 0 -40 7 -51 15 -10
8 -29 15 -41 15 -12 0 -25 4 -28 10 -9 15 42 23 73 12 15 -6 50 -14 77 -17 28
-3 77 -10 110 -15 180 -29 258 -40 335 -50 47 -5 103 -12 125 -15 79 -9 394
-27 559 -31 149 -4 168 -3 163 11 -7 16 10 20 73 15 38 -2 63 -17 54 -31 -3
-5 10 -9 28 -10 58 -2 120 -5 236 -14 l112 -8 0 56 c0 52 -2 57 -22 57 -13 0
-66 10 -118 21 -52 11 -138 25 -190 31 -92 10 -212 40 -237 60 -7 6 -22 8 -33
5 -11 -3 -20 -1 -20 3 0 9 -61 39 -117 57 -18 6 -33 8 -33 3 0 -5 -14 -3 -30
3 -18 7 -28 17 -26 24 3 8 -2 13 -12 13 -10 0 -22 4 -27 9 -6 5 -48 23 -95 40
-158 60 -215 83 -224 91 -12 12 45 35 119 50 33 7 69 15 80 19 22 9 45 2 173
-51 51 -21 97 -38 101 -38 5 0 56 -22 113 -49 115 -53 162 -70 210 -76 60 -8
195 -35 273 -55 124 -32 115 -39 115 99 0 138 -1 139 -96 259 -64 80 -65 84
-48 103 27 30 63 24 106 -18 l38 -37 0 77 c0 84 -3 87 -57 66 -58 -23 -70 -27
-133 -42 -36 -9 -99 -25 -140 -35 -41 -11 -93 -23 -115 -26 -40 -7 -92 -22
-130 -37 -11 -4 -51 -13 -90 -20 -38 -6 -74 -15 -80 -19 -12 -8 -61 -20 -200
-50 -55 -12 -109 -26 -120 -31 -11 -6 -53 -11 -92 -12 -39 -1 -69 -5 -67 -9 5
-8 -11 -13 -104 -33 -84 -17 -138 -19 -147 -5 -7 12 78 33 365 90 25 5 63 14
85 21 35 10 202 52 263 66 13 3 22 1 22 -6 0 -16 27 -14 33 3 3 8 39 21 84 31
138 31 286 71 331 90 18 8 51 17 75 21 23 3 56 12 72 20 17 7 56 18 88 24 l57
11 0 42 c0 36 -5 46 -35 70 -19 15 -48 30 -65 33 -16 4 -30 13 -30 21 0 20 39
31 80 22 19 -5 38 -9 43 -9 4 0 7 198 7 440 0 242 -4 440 -8 440 -4 0 -12 -4
-17 -9 -9 -9 -255 -92 -350 -119 -291 -82 -432 -114 -590 -137 -22 -3 -67 -10
-100 -15 -223 -34 -577 -57 -1010 -65 -622 -11 -613 -11 -673 -55 -21 -16 -40
-20 -73 -18 -37 2 -46 8 -57 31 -7 15 -14 40 -15 55 -2 26 0 27 58 33 33 4
204 7 380 8 294 1 322 3 348 20 24 16 26 19 11 25 -9 4 -14 9 -11 12 3 3 19
-2 36 -10 35 -18 221 -23 221 -6 0 6 -7 10 -15 10 -8 0 -15 5 -15 10 0 6 9 10
20 10 13 0 20 7 20 20 0 11 7 20 15 20 8 0 15 9 15 20 0 13 7 20 20 20 11 0
20 5 20 10 0 6 9 10 20 10 11 0 20 -4 20 -10 0 -5 23 -10 50 -10 43 0 50 3 50
20 0 13 -7 20 -19 20 -21 0 -24 13 -34 132 -5 48 3 59 34 51 16 -5 23 -63 7
-63 -4 0 -8 -9 -8 -20 0 -11 6 -20 14 -20 9 0 17 -15 21 -40 5 -30 11 -40 26
-40 11 0 19 -7 19 -16 0 -24 26 -44 57 -44 19 0 42 -12 66 -34 36 -32 80 -44
145 -37 17 2 15 26 -4 42 -12 9 -14 22 -9 48 3 20 7 51 9 69 2 18 6 35 9 38
19 19 235 -153 236 -188 1 -10 2 -18 4 -18 2 0 50 7 108 15 94 14 158 27 344
70 33 8 73 15 88 15 51 0 114 38 203 124 103 99 114 89 -111 106 -82 6 -170
18 -195 26 -25 7 -72 18 -105 23 -156 26 -310 66 -354 94 -19 11 -29 23 -23
25 29 9 10 31 -33 38 -45 6 -105 -9 -105 -27 0 -5 -8 -8 -17 -7 -34 5 -287
-14 -302 -22 -22 -11 -84 -27 -160 -40 -35 -6 -76 -16 -90 -22 -14 -6 -39 -10
-54 -9 -21 2 -27 -1 -25 -14 2 -13 -8 -16 -62 -19 -44 -2 -84 -12 -123 -30
-32 -14 -64 -26 -71 -26 -7 0 -19 -7 -26 -16 -7 -8 -23 -14 -34 -13 -21 2 -47
-5 -76 -20 -9 -5 -36 -12 -60 -16 -25 -4 -54 -14 -65 -21 -11 -8 -44 -14 -77
-14 -39 0 -75 -8 -111 -24 -50 -22 -111 -32 -240 -40 -44 -3 -49 -1 -58 21 -5
13 -9 37 -9 53 0 35 9 38 205 75 132 25 404 88 670 156 66 17 145 37 175 43
30 7 77 20 103 29 26 9 68 24 93 33 37 13 45 20 42 38 -3 18 -9 21 -50 19 -48
-3 -242 -50 -403 -98 -222 -66 -514 -116 -752 -127 -62 -3 -63 -2 -63 86 0 82
11 91 115 100 71 6 192 28 295 54 37 9 19 12 -225 27 -49 3 -108 9 -130 13
l-40 7 -6 60 c-10 104 -23 99 250 91 313 -9 482 -22 561 -41 120 -30 139 -29
218 1 39 16 72 31 72 34 0 7 -66 32 -155 60 -38 12 -96 30 -129 41 -32 10 -63
16 -68 13 -5 -3 -17 0 -26 8 -9 8 -46 20 -82 27 -36 7 -80 22 -98 33 -18 11
-39 18 -46 15 -8 -3 -53 1 -101 9 -49 9 -96 13 -106 11 -10 -3 -48 6 -86 18
-37 13 -84 26 -103 29 l-36 6 1 103 c0 94 2 103 18 99 9 -2 17 -8 17 -13 0 -5
9 -9 20 -9 13 0 20 -7 20 -20 0 -13 7 -20 20 -20 11 0 20 -4 20 -10 0 -20 52
-59 88 -66 20 -4 45 -11 54 -15 11 -6 18 -5 21 4 3 9 11 9 39 0 19 -7 49 -13
66 -13 25 0 32 4 32 20 0 13 7 20 20 20 11 0 20 5 20 10 0 6 9 10 20 10 12 0
20 7 20 16 0 20 24 44 44 44 9 0 16 -8 16 -20 0 -13 7 -20 19 -20 11 0 22 -6
24 -12 4 -10 6 -10 6 0 2 21 31 13 31 -8 0 -13 7 -20 20 -20 11 0 20 -4 20
-10 0 -5 18 -10 40 -10 22 0 40 -4 40 -10 0 -6 27 -10 60 -10 53 0 60 -2 60
-20 0 -13 7 -20 20 -20 11 0 20 5 20 10 0 6 9 10 20 10 11 0 20 -4 20 -10 0
-5 -7 -10 -15 -10 -8 0 -15 -9 -15 -20 0 -13 7 -20 20 -20 11 0 20 -4 20 -10
0 -5 7 -10 15 -10 8 0 15 -5 15 -11 0 -7 -30 -10 -90 -8 -94 3 -110 -1 -91
-25 9 -11 8 -15 -4 -20 -30 -11 -5 -25 56 -32 48 -5 63 -12 76 -30 8 -13 21
-24 28 -24 7 0 32 -9 56 -20 63 -28 144 -26 221 5 34 14 68 25 75 25 21 0 196
70 213 85 8 8 38 20 65 27 28 7 55 18 62 24 6 6 59 14 118 17 76 5 111 11 122
22 11 11 25 14 47 10 23 -5 27 -4 16 4 -13 9 -12 11 5 12 11 1 24 1 29 0 5 -1
32 3 60 9 47 9 114 15 311 27 39 3 75 9 82 14 10 9 278 2 294 -7 3 -2 18 2 33
9 l26 12 0 741 0 742 -22 6 c-13 3 -1325 6 -2915 6 l-2893 0 0 -384z m950 294
c0 -5 -9 -10 -20 -10 -11 0 -20 5 -20 10 0 6 9 10 20 10 11 0 20 -4 20 -10z
m3590 -470 l0 -40 40 0 c38 0 40 -2 40 -30 0 -23 4 -30 20 -30 13 0 20 -7 20
-20 0 -11 7 -20 15 -20 9 0 15 -10 15 -26 0 -26 20 -54 39 -54 7 0 11 -27 11
-70 0 -63 2 -70 20 -70 17 0 20 -7 20 -40 l0 -40 40 0 40 0 0 -60 0 -60 40 0
40 0 0 -60 c0 -53 2 -60 20 -60 18 0 20 -7 20 -80 l0 -80 -60 0 c-33 0 -60 -4
-60 -10 0 -5 -9 -10 -20 -10 -11 0 -20 5 -20 10 0 6 -9 10 -20 10 -18 0 -20 7
-20 80 0 73 -2 80 -20 80 -18 0 -20 7 -20 80 0 73 -2 80 -20 80 -17 0 -20 7
-20 39 0 38 -1 39 -40 46 -38 6 -40 9 -40 41 0 19 -4 34 -10 34 -5 0 -10 18
-10 40 0 22 -4 40 -10 40 -5 0 -10 18 -10 40 l0 40 -40 0 -40 0 0 60 c0 53 -2
60 -20 60 -18 0 -20 7 -20 60 l0 60 40 0 40 0 0 -40z m880 -110 c0 -5 -4 -10
-10 -10 -5 0 -10 5 -10 10 0 6 5 10 10 10 6 0 10 -4 10 -10z m-4380 -199 c0
-4 57 -10 128 -13 124 -5 165 -14 243 -58 9 -5 34 -12 55 -16 22 -4 75 -24
119 -44 44 -21 90 -41 103 -45 66 -20 274 -235 288 -298 5 -25 2 -34 -16 -49
-21 -17 -45 -18 -301 -18 -154 1 -284 -2 -289 -5 -6 -3 -10 -27 -10 -53 0 -26
-3 -57 -6 -69 -7 -25 -24 -31 -24 -9 0 8 -13 29 -28 46 -16 17 -39 56 -51 88
-13 31 -65 145 -117 252 -85 178 -127 300 -103 300 5 0 9 -4 9 -9z m-25 -228
c13 -116 11 -158 -10 -196 -21 -40 -42 -48 -51 -19 -3 9 -14 35 -24 57 -22 47
-31 102 -21 129 6 16 9 17 22 4 8 -9 24 -12 39 -8 22 5 25 12 25 48 0 61 12
51 20 -15z m1965 -198 c0 -11 -9 -15 -29 -13 -17 1 -38 -5 -49 -15 -19 -18
-53 -21 -87 -8 -17 7 -16 9 10 16 17 4 46 9 65 11 19 2 36 8 38 14 6 16 52 12
52 -5z m-1620 -342 c0 -26 -16 -47 -29 -39 -6 4 -11 18 -11 32 0 17 5 24 20
24 12 0 20 -7 20 -17z m585 -479 c14 -15 14 -60 -1 -85 -6 -11 -98 -18 -134
-11 -33 7 -35 10 -35 47 0 32 5 42 25 52 37 19 125 17 145 -3z m2155 -234 c0
-6 -8 -10 -17 -8 -12 2 -19 -4 -21 -19 -3 -18 -10 -23 -33 -23 -36 0 -36 6 -1
36 27 24 72 33 72 14z m880 -75 c14 -8 35 -14 47 -15 13 0 47 -10 77 -22 54
-22 76 -50 53 -65 -22 -14 -111 -43 -132 -43 -28 0 -49 40 -42 78 5 24 1 36
-20 56 -28 29 -22 33 17 11z m-1442 -73 c2 -14 10 -22 23 -22 12 0 19 -7 19
-20 0 -15 7 -20 25 -20 14 0 24 -3 24 -7 -4 -24 5 -34 37 -48 52 -21 34 -38
-35 -33 -35 3 -79 16 -116 34 -55 27 -83 54 -55 54 6 0 8 -4 5 -10 -3 -5 -1
-10 4 -10 14 0 14 13 -1 28 -9 9 -6 12 15 12 20 0 27 5 27 19 0 11 -5 23 -10
26 -15 9 -1 27 18 23 10 -2 18 -13 20 -26z m1889 -229 c6 -17 -43 -61 -94 -84
-23 -10 -45 -19 -48 -19 -3 0 -41 -23 -85 -50 -72 -47 -105 -80 -79 -80 11 0
48 -40 49 -52 0 -9 -52 -10 -74 -2 -9 3 -16 17 -16 30 0 29 -1 29 -48 1 -20
-12 -66 -36 -102 -52 -36 -16 -82 -40 -103 -53 -21 -12 -42 -20 -46 -17 -5 3
-51 -11 -103 -31 -99 -38 -361 -127 -437 -149 -96 -27 -201 -69 -191 -75 7 -4
11 -10 11 -14 -4 -30 0 -33 47 -29 35 3 19 -4 -63 -27 -101 -28 -248 -53 -185
-31 21 8 22 9 5 11 -15 1 -10 6 18 18 23 10 37 24 37 35 0 14 -5 17 -21 12
-12 -4 -56 -11 -98 -16 -42 -4 -137 -15 -211 -23 -74 -9 -218 -20 -320 -25
-101 -6 -224 -14 -272 -17 l-88 -7 0 87 c0 106 -10 101 207 115 201 14 344 28
408 40 28 5 97 15 155 21 192 20 457 80 685 155 140 46 155 56 155 100 0 26 4
35 18 36 11 1 8 4 -8 8 l-25 7 32 11 c24 9 33 9 37 0 3 -8 7 -9 13 -2 12 15
28 18 123 25 58 4 112 16 170 37 47 17 121 39 165 48 44 9 132 29 195 45 118
30 180 34 187 13z m93 -38 c0 -8 -7 -15 -15 -15 -16 0 -20 12 -8 23 11 12 23
8 23 -8z m-75 -5 c-3 -5 1 -10 9 -10 27 0 18 -17 -11 -23 -16 -3 -29 -4 -31
-2 -5 5 22 45 31 45 4 0 5 -4 2 -10z m-49 -35 c-3 -23 -12 -26 -13 -5 -1 11 2
20 7 20 4 0 7 -7 6 -15z m-1517 -111 c2 -2 -2 -5 -10 -7 -8 -2 -38 -11 -66
-21 -39 -12 -58 -14 -72 -6 -11 5 -33 10 -50 10 -17 0 -31 4 -31 9 0 4 -37 13
-82 19 -70 8 -52 9 112 5 107 -3 197 -7 199 -9z m1497 -29 c-11 -8 -22 -12
-25 -9 -6 6 19 24 34 24 6 -1 1 -7 -9 -15z m284 5 c0 -5 -5 -10 -11 -10 -5 0
-7 5 -4 10 3 6 8 10 11 10 2 0 4 -4 4 -10z m-360 -55 c0 -8 -3 -16 -7 -16 -5
-1 -17 -3 -28 -4 -11 -2 -28 -6 -37 -10 -33 -13 -18 4 20 24 45 24 52 25 52 6z
m-2210 -40 l75 -13 -57 -1 c-31 -1 -58 -5 -60 -10 -5 -15 -58 0 -69 20 -12 23
1 24 111 4z m2105 -5 c-3 -5 -11 -10 -16 -10 -6 0 -7 5 -4 10 3 6 11 10 16 10
6 0 7 -4 4 -10z m-1952 -30 c-9 -9 -73 -1 -73 9 0 4 18 5 41 3 22 -3 37 -8 32
-12z m1917 10 c0 -5 -10 -10 -22 -10 -19 0 -20 2 -8 10 19 13 30 13 30 0z
m-2027 -7 c-7 -2 -19 -2 -25 0 -7 3 -2 5 12 5 14 0 19 -2 13 -5z m154 -9 c-3
-3 -12 -4 -19 -1 -8 3 -5 6 6 6 11 1 17 -2 13 -5z m1830 -10 c-3 -3 -12 -4
-19 -1 -8 3 -5 6 6 6 11 1 17 -2 13 -5z m-58 -28 c-2 -2 -17 -6 -34 -10 -22
-5 -26 -4 -15 4 14 9 59 15 49 6z m-154 -66 c-3 -5 -15 -10 -26 -10 -11 0 -17
5 -14 10 3 6 15 10 26 10 11 0 17 -4 14 -10z m785 -29 c-30 -10 -82 -21 -115
-24 -49 -5 -54 -4 -30 5 36 12 152 36 180 36 11 1 -5 -7 -35 -17z m-895 -11
c-3 -5 -13 -10 -21 -10 -8 0 -12 5 -9 10 3 6 13 10 21 10 8 0 12 -4 9 -10z
m-105 -39 c0 -10 -69 -25 -78 -17 -3 3 4 6 16 6 11 0 24 5 27 10 8 12 35 13
35 1z m-400 -90 c0 -16 -39 -19 -57 -5 -16 12 -14 13 20 14 20 0 37 -4 37 -9z
m147 3 c-3 -3 -12 -4 -19 -1 -8 3 -5 6 6 6 11 1 17 -2 13 -5z m-87 -24 c0 -5
-7 -10 -16 -10 -8 0 -12 5 -9 10 3 6 10 10 16 10 5 0 9 -4 9 -10z m1256 -7
l39 -18 -47 -3 c-53 -3 -100 14 -77 29 21 13 42 11 85 -8z m-1384 -5 c-17 -8
-26 -8 -34 0 -9 9 -4 12 23 11 32 0 33 -1 11 -11z m76 -5 c-10 -2 -26 -2 -35
0 -10 3 -2 5 17 5 19 0 27 -2 18 -5z m565 0 c-13 -2 -33 -2 -45 0 -13 2 -3 4
22 4 25 0 35 -2 23 -4z m-76 -9 c-3 -3 -12 -4 -19 -1 -8 3 -5 6 6 6 11 1 17
-2 13 -5z m-647 -34 c12 -8 9 -10 -13 -10 -16 0 -26 4 -22 10 8 12 16 12 35 0z
m560 0 c0 -5 -12 -10 -27 -9 -25 0 -26 1 -8 9 27 12 35 12 35 0z m-932 -46
c41 21 63 21 55 0 -5 -15 0 -16 43 -11 27 3 60 8 74 12 18 5 21 4 10 -3 -18
-12 -119 -38 -180 -46 -43 -6 -44 -5 -20 9 25 14 25 14 -16 15 -23 0 -47 6
-53 13 -17 22 -1 28 29 11 24 -15 29 -15 58 0z m789 0 c-3 -3 -12 -4 -19 -1
-8 3 -5 6 6 6 11 1 17 -2 13 -5z m-881 -69 c-11 -8 -39 -15 -62 -15 -24 0 -45
-4 -49 -9 -3 -5 -36 -12 -73 -16 -37 -4 -89 -13 -117 -20 -27 -8 -79 -16 -115
-20 -36 -3 -125 -13 -197 -22 -73 -9 -136 -14 -139 -10 -11 11 33 48 62 52
120 15 231 24 298 24 43 0 84 5 91 11 7 6 20 8 28 4 9 -3 31 -1 50 5 41 14
138 28 197 29 42 1 44 0 26 -13z m574 -42 c0 -8 13 -13 30 -13 16 0 44 -6 62
-14 53 -23 163 -56 186 -56 11 0 28 -10 37 -22 18 -26 26 -23 -149 -59 -95
-19 -103 -20 -170 -4 -232 54 -363 78 -377 69 -6 -4 -6 -10 1 -19 15 -18 -60
-27 -78 -8 -16 15 -32 17 -32 3 0 -5 -27 -8 -60 -7 -72 2 -65 13 16 28 32 6
95 22 139 35 254 74 395 98 395 67z m-195 -213 c8 -13 -20 -19 -138 -30 -128
-11 -151 -9 -155 13 -4 19 15 21 175 24 62 1 115 -2 118 -7z m273 -62 c2 -11
-20 -18 -97 -32 -55 -9 -115 -18 -133 -18 -18 0 -39 -5 -47 -11 -7 -6 -38 -15
-70 -19 -31 -4 -67 -10 -81 -13 -94 -16 -547 -87 -580 -90 -19 -2 -84 -8 -145
-14 -60 -5 -120 -8 -132 -5 -14 4 -23 2 -23 -5 0 -15 -97 -14 -106 1 -14 22
25 35 114 35 55 1 108 8 138 18 28 10 110 21 189 27 77 5 163 16 190 24 43 12
203 31 325 38 19 1 44 7 55 14 18 10 58 16 273 42 39 5 80 14 90 19 21 13 36
9 40 -11z m-1230 -35 c96 -7 90 -19 -15 -29 -40 -3 -73 -10 -73 -14 0 -4 -11
-10 -25 -12 -18 -4 -25 -1 -26 11 0 9 -2 24 -4 34 -4 20 11 21 143 10z m262
-3 c11 -7 5 -8 -20 -4 -43 8 -51 14 -19 14 13 0 31 -5 39 -10z m1260 -31 l55
-29 -40 4 c-91 11 -167 24 -173 31 -12 11 22 25 63 24 25 0 61 -11 95 -30z
m-2732 -14 c14 -5 16 -49 2 -74 -11 -22 -88 -34 -140 -23 -32 7 -35 11 -35 42
0 30 5 38 35 53 32 16 90 17 138 2z m-128 -145 c0 -5 -4 -10 -10 -10 -5 0 -10
5 -10 10 0 6 5 10 10 10 6 0 10 -4 10 -10z m3410 -30 c13 -8 12 -10 -2 -10
-10 0 -21 0 -25 -1 -4 0 -9 4 -11 10 -5 14 18 14 38 1z m50 -30 c0 -4 10 -11
23 -15 l22 -8 -23 -4 c-13 -3 -30 1 -38 7 -19 16 -18 41 1 34 8 -4 15 -10 15
-14z m-4082 -87 c5 -18 -28 -29 -38 -12 -5 7 -6 17 -3 22 7 12 35 5 41 -10z
m1282 -24 c107 -7 220 -13 250 -14 93 -2 110 -5 110 -15 0 -5 -7 -10 -15 -10
-8 0 -15 -4 -15 -10 0 -5 9 -10 20 -10 13 0 20 -7 20 -20 0 -15 -7 -20 -25
-20 -18 0 -25 -5 -25 -18 0 -17 -11 -19 -117 -20 -65 -1 -147 -3 -183 -5 l-65
-2 0 -185 c0 -177 -1 -188 -27 -255 -57 -150 -137 -265 -221 -321 -38 -25
-128 -54 -169 -54 -11 0 -34 15 -52 34 -41 44 -67 57 -110 54 -20 -2 -36 -4
-36 -5 0 -1 19 -26 43 -55 61 -76 122 -201 137 -280 16 -89 6 -190 -31 -302
-58 -175 -192 -321 -349 -380 -41 -16 -106 -41 -145 -57 -107 -43 -230 -86
-330 -114 -114 -33 -143 -44 -180 -65 -16 -10 -52 -21 -80 -25 -27 -4 -102
-24 -165 -46 -63 -21 -122 -39 -131 -39 -9 0 -30 -7 -45 -15 -64 -33 -134 -26
-120 12 8 20 -14 113 -26 113 -6 0 -9 3 -6 6 4 3 9 5 13 4 4 -1 13 7 20 17 19
26 161 26 189 1 24 -22 40 -23 56 -3 7 8 19 15 26 15 9 0 14 11 14 29 0 25 6
32 40 47 22 10 40 21 40 26 0 4 11 8 25 8 30 0 75 27 75 45 0 21 28 37 65 37
79 0 139 114 85 161 -11 9 -20 28 -20 42 0 14 -4 25 -10 25 -5 0 -10 24 -10
53 1 42 6 59 30 91 17 22 30 44 30 48 0 5 7 16 15 24 8 9 15 29 15 45 0 22 5
29 20 29 15 0 22 9 27 30 3 20 12 30 23 30 20 0 70 47 70 66 0 8 5 14 10 14 6
0 10 7 10 16 0 9 9 18 20 21 20 5 28 25 29 73 0 15 16 40 46 67 25 24 45 52
45 63 0 44 107 117 191 131 97 17 112 26 105 67 -4 25 2 47 19 81 14 25 25 54
25 63 0 10 4 18 9 18 5 0 14 12 20 28 5 15 16 38 24 52 22 38 39 90 47 145 5
28 14 84 20 125 16 96 6 261 -15 275 -50 33 231 39 645 14z m-1277 -47 c-5
-16 -5 -16 8 0 13 16 15 16 38 -1 30 -23 19 -43 -20 -39 -19 2 -33 -4 -43 -17
-14 -19 -15 -19 -26 9 -7 20 -8 32 0 40 5 5 10 18 10 28 0 15 3 17 20 8 12 -7
17 -16 13 -28z m-253 -13 c0 -6 -4 -7 -10 -4 -5 3 -10 11 -10 16 0 6 5 7 10 4
6 -3 10 -11 10 -16z m378 -6 c5 -17 -26 -29 -40 -15 -6 6 -7 15 -3 22 9 14 37
9 43 -7z m84 -70 c-2 -35 -8 -63 -14 -63 -7 0 -8 14 -4 38 3 20 6 53 6 72 0
18 4 30 8 25 4 -6 6 -38 4 -72z m-454 -77 c-4 -94 -23 -153 -61 -190 -16 -15
-21 -16 -28 -5 -15 24 -10 42 9 37 26 -7 45 19 50 72 5 53 -3 63 -45 54 -20
-4 -33 -15 -40 -32 -9 -26 -10 -25 -18 20 -11 69 10 157 32 134 4 -5 2 -11 -5
-13 -10 -4 -10 -8 -2 -18 14 -17 40 -9 40 12 0 9 9 4 25 -13 l25 -27 0 49 c1
40 3 46 11 30 7 -11 10 -54 7 -110z m536 99 c-4 -8 -8 -15 -10 -15 -2 0 -4 7
-4 15 0 8 4 15 10 15 5 0 7 -7 4 -15z m-304 -39 c0 -3 -4 -8 -10 -11 -5 -3
-10 -1 -10 4 0 6 5 11 10 11 6 0 10 -2 10 -4z m55 -66 c3 -5 1 -10 -4 -10 -6
0 -11 5 -11 10 0 6 2 10 4 10 3 0 8 -4 11 -10z m128 -52 c2 -7 1 -25 -3 -39
-4 -14 -6 -38 -3 -53 5 -24 3 -26 -30 -26 -41 0 -45 7 -39 78 4 51 4 52 37 52
18 0 35 -6 38 -12z m-113 -73 c0 -48 -2 -55 -20 -55 -17 0 -20 7 -20 43 0 40
13 67 32 67 4 0 8 -25 8 -55z m-393 -172 c48 -25 99 -51 112 -57 35 -16 158
-79 221 -113 30 -16 67 -33 82 -36 44 -11 193 -102 196 -120 3 -14 -4 -13 -46
8 -28 14 -53 25 -56 25 -7 0 -129 58 -478 229 -93 45 -168 86 -168 90 0 34 39
27 137 -26z m4976 -47 c8 -19 -19 -72 -40 -80 -16 -6 -53 19 -53 36 0 5 11 20
25 33 27 28 60 33 68 11z m-4180 -141 c-7 -21 -13 -19 -13 6 0 11 4 18 10 14
5 -3 7 -12 3 -20z m-1423 -1450 c0 -11 -12 -15 -45 -15 -39 0 -44 2 -33 15 18
20 78 20 78 0z m50 -121 c0 -9 5 -12 12 -8 7 4 8 3 4 -4 -4 -7 -17 -11 -29
-10 -12 0 -26 -1 -32 -3 -5 -2 -25 0 -43 4 -28 6 -31 9 -20 21 19 22 108 22
108 0z"/>
<path d="M972 6246 c2 -16 9 -31 16 -34 17 -5 15 20 -3 44 -15 18 -15 18 -13
-10z"/>
<path d="M4668 4608 c17 -8 26 -8 34 0 9 9 4 12 -22 11 -33 0 -34 -1 -12 -11z"/>
<path d="M3208 3893 c6 -2 18 -2 25 0 6 3 1 5 -13 5 -14 0 -19 -2 -12 -5z"/>
<path d="M3158 5923 c7 -3 16 -2 19 1 4 3 -2 6 -13 5 -11 0 -14 -3 -6 -6z"/>
<path d="M5750 5742 c-19 -10 -54 -24 -77 -32 -23 -7 -51 -21 -62 -32 -11 -10
-22 -18 -25 -18 -3 0 -28 -14 -57 -30 -28 -17 -54 -29 -57 -26 -2 3 -23 -5
-46 -18 -36 -21 -82 -38 -109 -40 -5 -1 -14 -10 -20 -21 -12 -20 -16 -22 -60
-29 -12 -1 -20 -7 -19 -11 2 -4 -2 -12 -10 -16 -10 -7 -9 -9 5 -9 10 0 25 -6
33 -14 12 -13 11 -15 -8 -19 -20 -4 -20 -4 4 -6 14 0 28 5 31 12 3 8 11 4 22
-11 13 -18 23 -22 41 -18 16 4 24 2 24 -6 0 -15 114 -48 175 -52 22 -2 45 -4
50 -6 6 -1 14 -2 18 -1 5 1 27 -14 50 -33 48 -39 69 -37 108 12 75 94 69 69
69 265 l0 177 -23 0 c-12 0 -38 -8 -57 -18z"/>
<path d="M4948 5680 c-75 -15 -163 -36 -195 -45 -220 -67 -224 -69 -198 -94
13 -13 19 -13 36 -3 11 7 24 10 30 6 5 -3 16 0 24 6 8 7 61 18 117 26 143 20
336 82 358 114 3 4 14 10 25 13 11 2 2 5 -20 5 -22 0 -102 -12 -177 -28z"/>
<path d="M5110 5435 c0 -8 7 -15 15 -15 8 0 15 7 15 15 0 8 -7 15 -15 15 -8 0
-15 -7 -15 -15z"/>
<path d="M4343 3174 c0 -7 9 -14 19 -14 10 0 18 2 18 5 0 2 -8 9 -18 14 -14 8
-19 6 -19 -5z"/>
<path d="M5068 3083 c7 -3 16 -2 19 1 4 3 -2 6 -13 5 -11 0 -14 -3 -6 -6z"/>
<path d="M5585 3000 c3 -5 12 -7 20 -3 21 7 19 13 -6 13 -11 0 -18 -4 -14 -10z"/>
<path d="M5699 2990 c50 -6 83 -15 102 -29 l29 -22 0 31 0 30 -102 -1 -103 -2
74 -7z"/>
<path d="M5637 2974 c-11 -11 3 -24 18 -18 8 4 12 10 9 15 -6 11 -18 12 -27 3z"/>
<path d="M5661 2924 c0 -11 3 -14 6 -6 3 7 2 16 -1 19 -3 4 -6 -2 -5 -13z"/>
<path d="M3472 2683 c-31 -27 -36 -72 -12 -110 16 -27 26 -33 53 -33 46 0 81
38 80 87 -2 63 -74 96 -121 56z"/>
</g>
</svg>
