<?xml version="1.0" standalone="no"?>
<!DOCTYPE svg PUBLIC "-//W3C//DTD SVG 20010904//EN"
 "http://www.w3.org/TR/2001/REC-SVG-20010904/DTD/svg10.dtd">
<svg version="1.0" xmlns="http://www.w3.org/2000/svg"
 width="763.000000pt" height="634.000000pt" viewBox="0 0 763.000000 634.000000"
 preserveAspectRatio="xMidYMid meet">
<metadata>
Created by potrace 1.16, written by Peter Selinger 2001-2019
</metadata>
<g transform="translate(0.000000,634.000000) scale(0.100000,-0.100000)"
fill="#000000" stroke="none">
<path d="M3675 6289 c-160 -22 -295 -73 -421 -160 -94 -65 -148 -125 -188
-209 -29 -60 -31 -73 -31 -170 0 -92 3 -112 26 -160 50 -107 190 -231 332
-294 72 -32 171 -61 256 -76 69 -12 282 -15 358 -5 197 27 420 131 530 247 87
92 133 224 119 342 -26 201 -239 387 -531 462 -114 29 -328 40 -450 23z m455
-38 c115 -30 271 -108 350 -174 66 -55 120 -131 147 -209 22 -63 19 -181 -6
-248 -81 -214 -376 -379 -711 -396 -207 -11 -366 19 -539 103 -100 48 -125 65
-196 137 -105 104 -129 159 -130 291 0 81 3 97 32 157 53 112 142 194 289 267
163 80 269 101 499 97 146 -3 196 -7 265 -25z"/>
<path d="M3157 5902 c-23 -25 -22 -65 2 -86 26 -24 62 -17 81 17 13 24 13 30
0 55 -19 33 -59 41 -83 14z m61 -4 c17 -17 15 -63 -3 -78 -8 -6 -23 -9 -35 -5
-15 5 -20 15 -20 45 0 46 30 66 58 38z"/>
<path d="M3272 5863 l-2 -63 38 2 c36 1 36 1 5 5 -31 4 -32 5 -36 61 l-3 57
-2 -62z"/>
<path d="M3360 5860 l0 -60 43 2 42 1 -37 4 c-32 4 -38 8 -38 28 0 20 6 24 38
28 l37 4 -37 1 c-30 2 -38 6 -38 21 0 15 8 21 38 24 l37 4 -42 1 -43 2 0 -60z"/>
<path d="M3470 5860 c0 -60 0 -60 29 -60 37 0 61 23 61 60 0 37 -24 60 -61 60
-29 0 -29 0 -29 -60z m70 25 c14 -37 -3 -75 -35 -75 -23 0 -25 3 -25 50 0 47
2 50 25 50 18 0 28 -7 35 -25z"/>
<path d="M3631 5858 c1 -35 4 -51 6 -36 3 22 10 28 36 31 l32 4 -32 1 c-28 2
-33 6 -33 26 0 21 5 25 38 29 l37 4 -42 1 -43 2 1 -62z"/>
<path d="M3950 5860 c0 -33 4 -60 10 -60 6 0 10 18 10 40 0 29 4 40 15 40 11
0 15 -11 15 -40 0 -22 5 -40 11 -40 6 0 9 17 7 43 -2 35 -7 43 -25 45 -13 2
-23 10 -23 18 0 8 -4 14 -10 14 -6 0 -10 -27 -10 -60z"/>
<path d="M4180 5914 c1 -25 27 -105 35 -107 5 -1 13 15 18 36 11 47 23 47 34
0 13 -55 28 -50 42 12 16 70 7 84 -11 18 l-14 -48 -12 48 c-7 26 -17 47 -22
47 -5 0 -15 -21 -22 -47 l-12 -48 -13 44 c-12 42 -23 64 -23 45z"/>
<path d="M3908 5900 c-2 -6 -2 -31 0 -55 3 -34 8 -45 21 -44 10 0 11 2 4 6
-15 5 -18 70 -4 75 5 2 3 8 -4 15 -8 8 -15 8 -17 3z"/>
<path d="M3728 5864 c-21 -45 31 -87 62 -49 7 9 8 15 2 15 -6 0 -12 -5 -14
-12 -5 -14 -38 -4 -38 12 0 5 14 10 30 10 31 0 39 17 18 38 -20 20 -48 14 -60
-14z m50 -2 c2 -7 -6 -12 -17 -12 -21 0 -27 11 -14 24 9 9 26 2 31 -12z"/>
<path d="M3825 5879 c-4 -6 -4 -13 -1 -16 3 -4 6 -1 6 5 0 7 9 12 20 12 30 0
24 -17 -11 -29 -44 -15 -36 -45 13 -47 36 -2 37 -1 32 30 -3 17 -7 37 -10 44
-4 15 -40 16 -49 1z m43 -46 c-4 -22 -38 -30 -38 -10 0 14 13 24 33 26 5 1 7
-7 5 -16z"/>
<path d="M4052 5878 c-7 -7 -12 -25 -12 -40 0 -21 6 -29 24 -34 27 -6 46 1 46
18 0 7 -5 6 -15 -2 -16 -13 -45 -7 -45 10 0 5 14 10 30 10 23 0 30 5 30 19 0
28 -37 40 -58 19z m46 -15 c2 -8 -6 -13 -22 -13 -19 0 -24 4 -19 15 6 18 34
16 41 -2z"/>
<path d="M4130 5845 c0 -25 5 -45 10 -45 6 0 10 18 10 39 0 22 5 42 13 44 6 3
2 6 -10 6 -21 1 -23 -4 -23 -44z"/>
<path d="M4343 5845 c0 -27 2 -38 4 -22 2 15 2 37 0 50 -2 12 -4 0 -4 -28z"/>
<path d="M4381 5841 l2 -46 6 40 c4 26 11 40 21 40 10 0 17 -14 21 -40 l7 -40
-2 45 c-1 42 -3 45 -28 46 -27 1 -28 -1 -27 -45z"/>
<path d="M4472 5878 c-28 -28 -1 -88 34 -74 10 4 14 2 11 -6 -2 -7 -17 -12
-32 -11 -20 2 -25 -1 -18 -8 6 -6 21 -9 34 -7 22 3 24 9 27 61 3 54 2 57 -21
57 -12 0 -28 -5 -35 -12z m43 -17 c7 -23 -3 -51 -20 -51 -7 0 -16 7 -19 16 -9
23 2 54 19 54 8 0 16 -8 20 -19z"/>
<path d="M3604 5698 c-18 -20 -18 -21 -1 -15 16 6 18 3 12 -23 -3 -16 -2 -37
4 -47 8 -14 10 -4 11 45 0 34 -2 62 -3 62 -2 0 -12 -10 -23 -22z"/>
<path d="M3677 5713 c-4 -3 -7 -11 -7 -17 0 -6 5 -5 12 2 16 16 35 15 42 -3 3
-9 -7 -29 -24 -49 -17 -18 -30 -36 -30 -40 0 -3 17 -5 38 -5 30 2 32 3 9 6
l-28 4 26 30 c14 17 25 36 25 43 0 27 -45 48 -63 29z"/>
<path d="M3770 5705 c-10 -12 -10 -18 0 -30 9 -11 9 -15 1 -15 -8 0 -11 -11
-9 -27 3 -24 8 -28 33 -28 25 0 30 4 33 28 2 16 -1 27 -9 27 -8 0 -8 4 1 15
10 12 10 18 0 30 -7 8 -18 15 -25 15 -7 0 -18 -7 -25 -15z m40 -15 c0 -11 -7
-20 -15 -20 -8 0 -15 9 -15 20 0 11 7 20 15 20 8 0 15 -9 15 -20z m8 -53 c4
-20 -25 -34 -40 -19 -15 15 -1 44 19 40 10 -2 19 -11 21 -21z"/>
<path d="M3936 5705 c-3 -8 -1 -15 4 -15 6 0 10 5 10 10 0 6 7 10 15 10 18 0
20 -26 4 -36 -8 -5 -6 -10 5 -16 9 -5 16 -16 16 -24 0 -20 -27 -29 -45 -14
-10 8 -15 9 -15 2 0 -17 19 -24 46 -18 22 6 24 11 21 49 -1 23 -6 48 -10 55
-11 17 -44 15 -51 -3z"/>
<path d="M4027 5713 c-4 -3 -7 -11 -7 -17 0 -6 5 -5 12 2 16 16 35 15 42 -3 3
-9 -7 -29 -24 -49 -17 -18 -30 -36 -30 -40 0 -3 17 -5 38 -5 30 2 32 3 9 6
l-28 4 26 30 c14 17 25 36 25 43 0 27 -45 48 -63 29z"/>
<path d="M3850 5684 c0 -5 5 -16 10 -24 6 -10 4 -22 -6 -37 -8 -13 -10 -23 -5
-23 6 0 15 8 21 18 10 16 10 16 20 0 6 -10 15 -18 21 -18 5 0 2 11 -7 25 -16
24 -16 27 1 45 19 21 7 28 -13 8 -8 -8 -15 -8 -27 2 -8 7 -15 9 -15 4z"/>
<path d="M3730 4948 c-58 -72 -106 -135 -108 -140 -2 -4 30 -8 72 -8 l76 0 0
-200 0 -200 76 0 76 0 -3 203 -4 202 72 5 72 5 -95 115 c-52 63 -102 123 -112
132 -16 16 -23 10 -122 -114z m204 -3 c53 -63 96 -117 96 -120 0 -3 -29 -5
-65 -5 l-65 0 0 -200 0 -200 -60 0 -60 0 0 200 0 199 -65 3 -65 3 93 117 c50
64 93 117 93 118 1 0 45 -52 98 -115z"/>
<path d="M3775 4273 c-161 -8 -336 -57 -460 -129 -102 -60 -212 -169 -250
-248 -37 -75 -46 -194 -21 -279 23 -78 90 -172 166 -234 346 -280 979 -266
1295 29 125 117 172 242 146 389 -27 148 -140 274 -336 372 -147 73 -341 109
-540 100z m290 -33 c172 -32 338 -112 441 -215 112 -111 154 -224 132 -360
-27 -172 -203 -337 -443 -414 -136 -44 -221 -54 -402 -48 -183 5 -270 24 -400
86 -168 81 -260 162 -317 281 -28 59 -31 74 -30 160 0 76 5 105 23 145 83 184
304 324 586 370 100 16 309 14 410 -5z"/>
<path d="M3241 3738 c1 -35 4 -51 6 -35 5 35 35 36 53 2 7 -14 17 -25 22 -25
13 0 9 16 -7 30 -14 11 -14 15 2 32 24 27 6 52 -41 56 l-36 3 1 -63z m64 27
c0 -14 -8 -21 -27 -23 -24 -3 -28 0 -28 23 0 23 4 26 28 23 19 -2 27 -9 27
-23z"/>
<path d="M3610 3740 c0 -60 0 -60 30 -60 38 0 57 31 41 66 -6 14 -19 24 -31
24 -11 0 -20 7 -20 15 0 8 -4 15 -10 15 -6 0 -10 -27 -10 -60z m55 -16 c0 -19
-5 -29 -15 -29 -16 0 -25 28 -16 51 10 25 31 10 31 -22z"/>
<path d="M4031 3738 c1 -35 4 -51 6 -35 4 22 9 27 33 27 34 0 53 26 39 52 -6
12 -21 18 -44 18 l-35 0 1 -62z m64 27 c0 -14 -8 -21 -27 -23 -24 -3 -28 0
-28 23 0 23 4 26 28 23 19 -2 27 -9 27 -23z"/>
<path d="M4220 3785 c-8 -10 -9 -15 -1 -15 6 0 11 5 11 10 0 16 30 12 36 -5 4
-9 -7 -30 -25 -50 -17 -20 -31 -38 -31 -40 0 -3 19 -4 43 -3 38 1 39 2 8 5
l-33 4 27 29 c32 33 31 73 -1 78 -11 2 -27 -4 -34 -13z"/>
<path d="M4300 3793 c0 -22 32 -113 40 -113 4 0 11 18 15 40 9 56 21 57 34 5
6 -25 15 -45 19 -45 4 0 14 27 23 60 9 33 12 60 9 60 -4 0 -13 -21 -20 -47
l-13 -48 -11 44 c-6 25 -17 46 -23 48 -6 2 -16 -18 -23 -44 l-13 -48 -11 42
c-10 40 -26 67 -26 46z"/>
<path d="M3357 3764 c-4 -4 -7 -12 -7 -18 0 -6 5 -5 12 2 14 14 38 16 38 2 0
-5 -11 -13 -26 -16 -18 -5 -24 -12 -22 -28 2 -16 10 -21 36 -22 33 -1 33 0 30
40 -3 35 -6 41 -28 44 -14 2 -29 0 -33 -4z m35 -66 c-11 -11 -32 -3 -32 12 0
12 34 18 39 7 2 -5 -1 -13 -7 -19z"/>
<path d="M3447 3763 c-14 -14 -6 -34 18 -43 33 -13 33 -34 -1 -27 -16 3 -22 1
-16 -5 15 -15 46 -5 50 15 2 10 -6 21 -22 28 -34 16 -34 33 0 25 17 -5 23 -3
19 4 -7 11 -38 14 -48 3z"/>
<path d="M3520 3710 c0 -33 4 -60 10 -60 6 0 10 7 10 15 0 8 9 15 20 15 12 0
25 10 31 24 16 35 -3 66 -41 66 -30 0 -30 0 -30 -60z m55 14 c0 -19 -5 -29
-15 -29 -16 0 -25 28 -16 51 10 25 31 10 31 -22z"/>
<path d="M3712 3758 c-16 -16 -15 -53 3 -68 18 -15 47 -10 53 10 4 13 3 13
-11 2 -9 -8 -21 -11 -27 -7 -20 12 -10 25 20 25 33 0 35 3 20 31 -12 21 -40
25 -58 7z m46 -16 c2 -7 -6 -12 -17 -12 -21 0 -27 11 -14 24 9 9 26 2 31 -12z"/>
<path d="M3799 3763 c-5 -32 -3 -83 4 -83 4 0 7 16 7 35 0 22 6 38 18 44 15 9
15 10 -5 11 -13 0 -24 -3 -24 -7z"/>
<path d="M3852 3723 c1 -40 2 -42 5 -13 2 19 11 41 20 48 15 11 14 12 -5 12
-20 0 -22 -5 -20 -47z"/>
<path d="M3905 3750 c3 -14 8 -38 12 -54 4 -19 1 -31 -8 -37 -8 -5 -9 -9 -3
-9 6 0 16 6 21 13 15 19 43 107 34 107 -5 0 -13 -15 -18 -32 l-10 -33 -16 35
c-12 25 -16 28 -12 10z"/>
<path d="M4134 3756 c-3 -7 -1 -29 4 -47 l10 -34 1 48 c1 47 -5 60 -15 33z"/>
<path d="M775 4254 c-261 -52 -487 -208 -557 -384 -17 -42 -22 -77 -22 -146 0
-86 2 -96 37 -167 76 -153 267 -286 492 -343 259 -65 576 -32 784 82 139 77
228 162 278 270 25 53 28 70 28 164 0 139 -23 191 -133 299 -120 119 -262 189
-453 226 -101 19 -355 18 -454 -1z m497 -23 c305 -69 522 -261 536 -475 11
-171 -77 -311 -264 -422 -161 -95 -313 -134 -529 -134 -301 -1 -533 84 -693
254 -89 94 -127 208 -111 333 28 215 279 405 604 458 119 19 338 12 457 -14z"/>
<path d="M760 3740 l0 -61 37 3 c31 2 39 8 47 31 6 17 6 37 0 55 -8 22 -16 28
-47 30 l-37 3 0 -61z m72 25 c16 -36 -3 -75 -37 -75 -23 0 -25 3 -25 50 0 47
2 50 25 50 17 0 29 -8 37 -25z"/>
<path d="M870 3740 c0 -33 4 -60 10 -60 6 0 10 14 10 30 0 27 3 30 29 30 26 0
30 -4 34 -32 2 -18 4 -4 4 32 0 36 -2 53 -4 38 -4 -23 -9 -28 -34 -28 -24 0
-29 4 -29 25 0 14 -4 25 -10 25 -6 0 -10 -27 -10 -60z"/>
<path d="M998 3793 c20 -4 22 -10 22 -59 0 -30 5 -54 10 -54 6 0 10 24 10 54
0 44 4 55 18 59 9 3 -5 5 -33 4 -27 0 -40 -2 -27 -4z"/>
<path d="M1097 3793 c-4 -3 -7 -11 -7 -17 0 -6 5 -5 12 2 19 19 38 14 38 -10
0 -12 -14 -37 -32 -55 l-32 -33 45 1 c30 2 35 3 16 6 l-28 4 26 30 c14 17 25
36 25 43 0 27 -45 48 -63 29z"/>
<path d="M1187 3793 c-4 -3 -7 -11 -7 -17 0 -6 5 -5 12 2 19 19 38 14 38 -10
0 -12 -14 -37 -32 -55 l-32 -33 45 1 c30 2 35 3 16 6 l-28 4 26 30 c14 17 25
36 25 43 0 27 -45 48 -63 29z"/>
<path d="M6435 4251 c-107 -23 -148 -37 -240 -84 -151 -76 -262 -183 -307
-297 -16 -41 -22 -77 -22 -146 -1 -85 1 -95 37 -166 75 -153 264 -285 492
-345 89 -23 119 -26 270 -26 188 0 267 12 408 64 179 66 320 179 380 306 30
63 32 75 32 173 0 92 -3 112 -26 160 -71 151 -267 292 -489 350 -123 32 -406
38 -535 11z m431 -6 c454 -73 715 -381 576 -678 -48 -104 -118 -170 -262 -252
-225 -127 -596 -153 -866 -61 -186 63 -333 176 -397 306 -30 60 -32 72 -32
170 0 92 3 112 26 160 83 177 332 324 604 359 110 14 252 12 351 -4z"/>
<path d="M6370 3741 l0 -61 34 0 c46 0 57 17 48 71 -7 42 -9 44 -45 47 l-37 3
0 -60z m65 29 c0 -8 -10 -16 -22 -18 -18 -3 -23 2 -23 18 0 16 5 21 23 18 12
-2 22 -10 22 -18z m5 -55 c0 -20 -5 -25 -25 -25 -20 0 -25 5 -25 25 0 20 5 25
25 25 20 0 25 -5 25 -25z"/>
<path d="M6480 3741 c0 -68 19 -85 21 -18 l1 42 10 -35 c15 -54 24 -56 41 -8
l15 43 1 -42 c1 -67 21 -50 21 17 0 33 -4 60 -9 60 -5 0 -17 -21 -27 -46 l-17
-46 -16 43 c-25 66 -41 62 -41 -10z"/>
<path d="M6621 3738 c1 -35 4 -51 6 -36 3 22 10 27 36 30 28 3 32 7 32 33 0
27 -3 30 -37 33 l-38 3 1 -63z m64 27 c0 -14 -8 -21 -27 -23 -24 -3 -28 0 -28
23 0 23 4 26 28 23 19 -2 27 -9 27 -23z"/>
<path d="M6727 3793 c-4 -3 -7 -11 -7 -17 0 -6 5 -5 12 2 16 16 35 15 42 -3 3
-9 -7 -29 -24 -49 -17 -18 -30 -36 -30 -40 0 -3 17 -5 38 -5 30 2 32 3 9 6
l-28 4 26 30 c14 17 25 36 25 43 0 27 -45 48 -63 29z"/>
<path d="M6820 3785 c-10 -12 -10 -18 0 -30 9 -10 9 -15 1 -15 -6 0 -11 -11
-11 -25 0 -18 7 -26 24 -31 14 -3 30 -3 35 1 15 8 14 55 0 55 -8 0 -8 5 1 15
10 12 10 18 0 30 -7 8 -18 15 -25 15 -7 0 -18 -7 -25 -15z m40 -15 c0 -11 -7
-20 -15 -20 -8 0 -15 9 -15 20 0 11 7 20 15 20 8 0 15 -9 15 -20z m8 -53 c4
-20 -25 -34 -40 -19 -15 15 -1 44 19 40 10 -2 19 -11 21 -21z"/>
<path d="M6912 3788 c-7 -7 -12 -29 -12 -49 0 -73 62 -78 68 -5 5 54 -26 84
-56 54z m44 -23 c8 -34 -3 -75 -21 -75 -8 0 -17 11 -21 25 -8 34 3 75 21 75 8
0 17 -11 21 -25z"/>
<path d="M2085 3846 c-71 -58 -129 -109 -127 -113 1 -4 60 -54 130 -111 l127
-102 3 70 3 70 204 0 204 0 3 -71 3 -71 133 108 c108 87 131 109 120 120 -7 7
-67 56 -133 109 l-120 96 -3 -70 -3 -71 -204 0 -204 0 -3 70 -3 70 -130 -104z
m125 12 l0 -63 215 0 215 0 0 63 c0 34 3 62 6 62 14 0 233 -185 226 -191 -4
-4 -56 -48 -117 -97 l-110 -91 -3 65 c-3 57 -5 64 -25 69 -13 4 -108 5 -212 3
l-190 -3 -3 -68 -3 -67 -119 97 c-66 53 -117 99 -114 102 20 21 220 180 227
180 4 1 7 -27 7 -61z"/>
<path d="M4917 3844 c-70 -58 -125 -109 -122 -114 7 -11 252 -210 259 -210 3
0 6 32 6 70 l0 70 200 0 200 0 0 -70 c0 -38 3 -70 8 -70 12 1 256 204 256 215
0 10 -244 215 -256 215 -5 0 -8 -31 -8 -70 l0 -70 -200 0 -200 0 0 70 c0 39
-3 70 -7 70 -5 -1 -65 -48 -136 -106z m134 -44 c5 -4 102 -6 217 -6 l207 1 5
64 5 64 113 -92 c61 -51 112 -94 112 -96 0 -5 -217 -185 -224 -185 -3 0 -6 28
-8 63 l-3 62 -215 0 -215 0 -3 -62 c-2 -35 -5 -63 -8 -63 -6 0 -224 180 -224
185 0 3 51 45 113 95 l112 90 3 -57 c2 -32 7 -60 13 -63z"/>
<path d="M3706 3059 l-136 -78 -32 56 c-18 31 -38 56 -43 55 -12 0 -129 -301
-121 -309 7 -7 329 -62 335 -57 2 2 -11 28 -28 58 -17 31 -31 60 -31 65 0 10
179 114 195 114 8 0 183 -98 193 -108 2 -2 -13 -33 -33 -70 l-37 -66 33 6 c19
3 96 16 172 29 75 13 139 25 142 28 6 6 -116 318 -125 318 -3 0 -21 -27 -40
-59 l-33 -60 -41 24 c-23 13 -84 48 -137 78 l-97 54 -136 -78z m273 -14 c71
-41 135 -75 140 -75 5 0 23 24 40 52 20 36 32 48 36 38 3 -8 27 -71 54 -140
32 -80 45 -126 38 -128 -7 -1 -74 -13 -150 -26 l-137 -23 30 53 c16 30 30 56
30 58 0 5 -209 126 -217 126 -13 0 -205 -115 -209 -125 -3 -6 7 -31 20 -56 14
-24 26 -47 26 -50 0 -6 -281 39 -288 45 -1 2 21 66 51 142 l54 139 32 -57 32
-56 137 79 c75 43 140 79 144 79 3 0 65 -34 137 -75z"/>
<path d="M2429 2910 c-282 -51 -518 -207 -591 -390 -17 -42 -22 -76 -22 -146
0 -86 2 -96 37 -167 154 -313 691 -465 1132 -322 194 63 346 181 421 325 27
51 29 63 29 165 0 104 -2 114 -33 176 -55 113 -200 234 -352 295 -133 54 -203
67 -395 70 -99 1 -201 -1 -226 -6z m437 -24 c261 -56 457 -189 537 -363 17
-38 21 -67 22 -143 0 -86 -3 -101 -32 -162 -53 -112 -140 -191 -298 -271 -152
-77 -287 -102 -512 -94 -167 5 -249 21 -373 71 -152 61 -288 174 -342 284 -31
62 -33 73 -33 172 0 96 3 110 29 165 82 166 314 308 574 350 106 18 327 13
428 -9z"/>
<path d="M2410 2443 c0 -5 9 -19 20 -33 11 -14 20 -37 20 -52 0 -16 5 -28 10
-28 6 0 10 14 10 31 0 17 9 44 21 60 11 16 16 29 11 29 -5 0 -18 -12 -27 -27
l-17 -26 -17 26 c-15 26 -31 36 -31 20z"/>
<path d="M2532 2393 l-2 -63 38 2 c36 1 36 1 5 5 -31 4 -32 5 -36 61 l-3 57
-2 -62z"/>
<path d="M2677 2444 c-14 -14 -7 -26 8 -14 21 17 46 -3 27 -22 -9 -9 -8 -14 4
-22 9 -7 12 -18 8 -29 -7 -20 -25 -22 -43 -4 -11 10 -13 9 -9 -3 6 -20 35 -25
53 -10 16 13 21 50 7 50 -4 0 -8 12 -7 28 0 20 -5 28 -20 30 -12 2 -24 0 -28
-4z"/>
<path d="M2766 2434 c-4 -9 -1 -23 5 -30 9 -11 9 -14 0 -14 -8 0 -11 -11 -9
-27 4 -33 37 -43 58 -18 11 13 11 21 3 35 -8 12 -9 20 -1 28 8 8 8 15 -2 27
-16 20 -46 19 -54 -1z m39 -14 c0 -7 -6 -15 -12 -17 -8 -3 -13 4 -13 17 0 13
5 20 13 18 6 -3 12 -11 12 -18z m9 -46 c7 -19 -1 -34 -19 -34 -18 0 -28 17
-21 35 7 20 32 19 40 -1z"/>
<path d="M2618 2363 c6 -2 18 -2 25 0 6 3 1 5 -13 5 -14 0 -19 -2 -12 -5z"/>
<path d="M4880 2914 c-243 -46 -439 -147 -545 -281 -66 -85 -89 -149 -89 -259
-1 -85 1 -95 37 -166 53 -109 152 -199 290 -267 455 -221 1075 -92 1260 264
30 57 32 66 32 170 0 145 -22 195 -133 304 -110 108 -214 165 -390 213 -62 17
-112 21 -257 24 -99 1 -191 0 -205 -2z m420 -28 c213 -47 403 -158 489 -286
133 -200 77 -431 -139 -580 -124 -84 -254 -136 -402 -160 -116 -19 -371 -8
-473 20 -231 63 -414 190 -483 337 -24 52 -27 70 -27 163 0 92 3 112 26 160
84 178 333 325 610 359 96 13 316 5 399 -13z"/>
<path d="M4849 2416 c12 -18 21 -45 21 -60 0 -14 5 -26 10 -26 6 0 10 14 10
31 0 17 9 44 21 60 11 16 16 29 11 29 -5 0 -18 -12 -27 -27 l-17 -26 -17 26
c-8 15 -19 27 -24 27 -5 0 1 -15 12 -34z"/>
<path d="M4957 2443 c-18 -17 -5 -44 28 -57 19 -8 35 -20 35 -26 0 -17 -31
-24 -51 -12 -26 16 -34 15 -19 -3 24 -29 80 -15 80 21 0 18 -7 25 -32 32 -38
9 -44 35 -10 40 12 2 22 -1 22 -7 0 -6 5 -11 11 -11 8 0 8 5 -1 15 -13 15 -51
20 -63 8z"/>
<path d="M5110 2435 c-8 -10 -9 -15 -1 -15 6 0 11 5 11 10 0 16 30 12 36 -5 4
-9 -7 -30 -25 -50 -17 -20 -31 -38 -31 -40 0 -3 19 -4 43 -3 38 1 39 2 8 5
l-33 4 27 29 c32 33 31 73 -1 78 -11 2 -27 -4 -34 -13z"/>
<path d="M5217 2443 c31 -4 32 -5 19 -26 -20 -31 -30 -87 -17 -87 6 0 11 10
11 23 0 12 9 39 20 60 l20 37 -42 -2 c-37 -1 -38 -2 -11 -5z"/>
<path d="M5058 2363 c6 -2 18 -2 25 0 6 3 1 5 -13 5 -14 0 -19 -2 -12 -5z"/>
<path d="M5173 1698 l-51 -20 24 -70 c13 -39 22 -74 19 -78 -2 -3 -31 -15 -65
-25 -33 -10 -60 -21 -60 -24 1 -12 283 -182 290 -174 12 13 121 305 116 310
-3 3 -30 -4 -61 -16 -31 -12 -60 -21 -65 -21 -5 0 -19 32 -31 70 -26 80 -29
81 -116 48z m107 -63 c13 -41 24 -75 25 -75 1 0 28 9 60 20 32 11 59 19 61 18
1 -2 -21 -65 -49 -141 -40 -106 -55 -136 -67 -132 -35 14 -239 150 -232 156 4
4 31 14 60 24 28 9 52 18 52 20 0 3 -9 28 -19 57 -32 87 -32 89 24 109 28 9
53 18 56 18 3 1 16 -33 29 -74z"/>
<path d="M5160 1159 c-267 -34 -518 -186 -607 -366 -35 -71 -37 -81 -37 -167
0 -110 22 -174 88 -257 86 -109 254 -210 436 -260 77 -22 104 -24 295 -23 199
0 215 2 298 27 175 54 293 123 395 231 75 79 105 149 110 257 3 65 0 100 -13
140 -95 290 -523 475 -965 418z m390 -25 c286 -54 509 -215 566 -409 94 -327
-287 -635 -786 -635 -339 0 -662 154 -766 365 -27 55 -29 69 -29 170 0 100 3
115 27 160 71 136 214 248 393 310 159 55 422 72 595 39z"/>
<path d="M4840 731 c0 -34 4 -61 10 -61 6 0 10 11 10 25 0 19 5 25 23 25 33 0
49 15 45 41 -2 20 -9 24 -45 27 l-43 3 0 -60z m73 37 c7 -23 -4 -38 -29 -38
-19 0 -24 5 -24 25 0 20 5 25 24 25 13 0 26 -6 29 -12z"/>
<path d="M5279 758 c0 -18 -2 -43 -3 -56 -2 -13 1 -25 6 -28 4 -3 8 22 8 55 0
63 -9 87 -11 29z"/>
<path d="M5313 730 c0 -36 2 -50 4 -32 2 17 2 47 0 65 -2 17 -4 3 -4 -33z"/>
<path d="M5730 730 c0 -33 4 -60 10 -60 6 0 10 18 10 40 0 29 4 40 15 40 11 0
15 -11 15 -40 0 -22 5 -40 11 -40 6 0 9 17 7 43 -2 35 -7 43 -25 45 -13 2 -23
10 -23 18 0 8 -4 14 -10 14 -6 0 -10 -27 -10 -60z"/>
<path d="M5688 770 c-2 -6 -2 -31 0 -55 3 -34 8 -45 21 -44 10 0 11 2 4 6 -15
5 -18 70 -4 75 5 2 3 8 -4 15 -8 8 -15 8 -17 3z"/>
<path d="M4951 713 l1 -48 8 39 c4 21 13 42 21 47 11 6 8 9 -8 9 -21 0 -23 -5
-22 -47z"/>
<path d="M5012 748 c-7 -7 -12 -21 -12 -33 0 -46 53 -62 71 -21 21 45 -26 87
-59 54z m46 -27 c5 -34 -16 -51 -33 -27 -10 14 -11 24 -4 38 13 24 33 18 37
-11z"/>
<path d="M5090 700 c0 -33 4 -60 10 -60 6 0 10 7 10 15 0 8 9 15 20 15 12 0
25 10 31 24 16 35 -3 66 -41 66 -30 0 -30 0 -30 -60z m55 14 c0 -19 -5 -29
-15 -29 -16 0 -25 28 -16 51 10 25 31 10 31 -22z"/>
<path d="M5192 748 c-16 -16 -15 -53 3 -68 18 -15 47 -10 53 10 4 13 3 13 -11
2 -9 -8 -21 -11 -27 -7 -20 12 -10 25 20 25 33 0 35 3 20 31 -12 21 -40 25
-58 7z m46 -16 c2 -7 -6 -12 -17 -12 -21 0 -27 11 -14 24 9 9 26 2 31 -12z"/>
<path d="M5348 734 c-21 -45 31 -87 62 -49 7 9 8 15 2 15 -6 0 -12 -5 -14 -12
-5 -14 -38 -4 -38 12 0 5 14 10 30 10 31 0 39 17 18 38 -20 20 -48 14 -60 -14z
m50 -2 c2 -7 -6 -12 -17 -12 -21 0 -27 11 -14 24 9 9 26 2 31 -12z"/>
<path d="M5442 713 c1 -40 2 -42 5 -13 2 19 11 41 20 48 15 11 14 12 -5 12
-20 0 -22 -5 -20 -47z"/>
<path d="M5530 749 c0 -9 5 -30 11 -47 12 -34 29 -34 29 -1 0 27 18 24 22 -3
2 -13 8 -21 13 -19 13 4 36 81 25 81 -5 0 -12 -15 -16 -32 l-7 -33 -12 35 -12
35 -16 -35 c-11 -25 -16 -29 -16 -15 -1 11 -6 27 -11 35 -8 13 -10 13 -10 -1z"/>
<path d="M5650 715 c0 -25 5 -45 10 -45 6 0 10 20 10 45 0 25 -4 45 -10 45 -5
0 -10 -20 -10 -45z"/>
<path d="M5020 531 c0 -68 19 -85 21 -18 l1 42 12 -37 c15 -50 24 -56 36 -22
21 58 24 59 30 14 7 -44 7 -44 8 18 1 34 -2 62 -7 62 -5 0 -17 -21 -27 -46
l-17 -46 -16 43 c-25 66 -41 62 -41 -10z"/>
<path d="M5518 570 c-2 -6 -2 -31 0 -55 3 -34 8 -45 21 -44 10 0 11 2 4 6 -15
5 -18 70 -4 75 5 2 3 8 -4 15 -8 8 -15 8 -17 3z"/>
<path d="M5167 553 c-4 -3 -7 -11 -7 -17 0 -6 4 -5 9 3 6 9 16 11 27 6 16 -6
14 -9 -14 -22 -46 -19 -40 -47 10 -49 36 -2 37 -1 32 30 -3 17 -7 37 -10 44
-4 13 -36 17 -47 5z m41 -50 c-4 -22 -38 -30 -38 -10 0 14 13 24 33 26 5 1 7
-7 5 -16z"/>
<path d="M5252 548 c-28 -28 -1 -88 34 -74 10 4 14 2 11 -6 -2 -7 -17 -12 -32
-11 -20 2 -25 -1 -18 -8 6 -6 21 -9 34 -7 22 3 24 9 27 61 3 54 2 57 -21 57
-12 0 -28 -5 -35 -12z m43 -33 c0 -20 -6 -31 -17 -33 -15 -3 -18 4 -18 33 0
29 3 36 18 33 11 -2 17 -13 17 -33z"/>
<path d="M5341 511 l2 -46 6 40 c4 26 11 40 21 40 10 0 17 -14 21 -40 l7 -40
-2 45 c-1 42 -3 45 -28 46 -27 1 -28 -1 -27 -45z"/>
<path d="M5428 534 c-21 -45 31 -87 62 -49 7 9 8 15 2 15 -6 0 -12 -5 -14 -12
-5 -14 -38 -4 -38 12 0 5 14 10 30 10 31 0 39 17 18 38 -20 20 -48 14 -60 -14z
m50 -2 c2 -7 -6 -12 -17 -12 -21 0 -27 11 -14 24 9 9 26 2 31 -12z"/>
<path d="M5567 553 c-14 -14 -6 -34 18 -43 33 -13 33 -34 -1 -27 -16 3 -22 1
-16 -5 15 -15 46 -5 50 15 2 10 -6 21 -22 28 -34 16 -34 33 0 25 17 -5 23 -3
19 4 -7 11 -38 14 -48 3z"/>
</g>
</svg>
