<?xml version="1.0" standalone="no"?>
<!DOCTYPE svg PUBLIC "-//W3C//DTD SVG 20010904//EN"
 "http://www.w3.org/TR/2001/REC-SVG-20010904/DTD/svg10.dtd">
<svg version="1.0" xmlns="http://www.w3.org/2000/svg"
 width="996.000000pt" height="685.000000pt" viewBox="0 0 996.000000 685.000000"
 preserveAspectRatio="xMidYMid meet">
<metadata>
Created by potrace 1.16, written by Peter Selinger 2001-2019
</metadata>
<g transform="translate(0.000000,685.000000) scale(0.100000,-0.100000)"
fill="#000000" stroke="none">
<path d="M20 3425 l0 -3405 4959 0 c3958 0 4960 -3 4964 -12 3 -7 6 1525 6
3405 l1 3417 -4965 0 -4965 0 0 -3405z m915 3370 c-2 -20 2 -25 19 -24 11 0
15 3 9 6 -7 2 -13 13 -13 24 0 18 13 19 430 19 l430 0 0 -30 0 -30 -860 0
-860 0 0 -860 0 -860 -30 0 -30 0 0 890 0 890 454 0 454 0 -3 -25z m1793 19
c22 -6 22 -8 6 -25 -16 -18 -16 -19 7 -18 13 0 19 3 12 6 -10 3 -10 9 0 24 11
18 28 19 429 19 l418 0 0 -30 0 -30 -890 0 -890 0 0 30 0 30 443 0 c243 0 452
-3 465 -6z m1796 -13 c17 -18 17 -19 -1 -24 -14 -4 -13 -5 5 -6 19 -1 23 3 20
22 l-3 22 423 3 422 2 0 -30 0 -30 -890 0 -890 0 0 30 0 30 448 0 c429 0 450
-1 466 -19z m2666 -11 l0 -30 -895 0 -895 0 0 30 0 30 895 0 895 0 0 -30z
m906 15 c-3 -8 -2 -15 3 -15 5 0 14 7 21 15 11 13 72 15 436 15 l424 0 0 -30
0 -30 -890 0 -890 0 0 30 0 30 451 0 c397 0 450 -2 445 -15z m1794 -10 c0 -16
6 -25 15 -25 8 0 15 8 15 18 0 14 -2 15 -10 2 -5 -8 -10 -10 -10 -4 0 12 20
34 32 34 4 0 8 -400 8 -890 l0 -890 -30 0 -30 0 0 860 0 860 -445 0 -445 0 0
30 0 30 450 0 450 0 0 -25z m-20 -2795 l0 -2750 -1935 0 -1935 0 0 -575 0
-575 -2950 0 -2950 0 0 3325 0 3325 4885 0 4885 0 0 -2750z m-9780 140 l0
-890 -30 0 -30 0 0 890 0 890 30 0 30 0 0 -890z m9850 0 l0 -890 -30 0 -30 0
0 890 0 890 30 0 30 0 0 -890z m-9850 -1790 l0 -890 -30 0 -30 0 0 890 0 890
30 0 30 0 0 -890z m9850 0 l0 -890 -30 0 -30 0 0 890 0 890 30 0 30 0 0 -890z
m-9850 -1580 l0 -680 424 0 423 0 -1 -27 -1 -28 -452 -3 -453 -2 0 710 0 710
30 0 30 0 0 -680z m9850 -30 c0 -467 -3 -710 -10 -710 -5 0 -10 9 -10 20 0 11
-6 20 -12 20 -9 0 -8 4 2 10 13 8 12 10 -2 10 -13 0 -18 -8 -18 -30 l0 -30
-450 0 -450 0 0 30 0 30 445 0 445 0 0 680 0 680 30 0 30 0 0 -710z m-70 225
l0 -275 -1930 0 -1930 0 0 275 0 275 1930 0 1930 0 0 -275z m0 -385 l0 -100
-1930 0 -1930 0 0 100 0 100 1930 0 1930 0 0 -100z m0 -180 l0 -70 -1930 0
-1930 0 0 70 0 70 1930 0 1930 0 0 -70z m-3150 -130 l0 -50 -355 0 -355 0 0
50 0 50 355 0 355 0 0 -50z m2290 0 l0 -50 -1140 0 -1140 0 0 50 0 50 1140 0
1140 0 0 -50z m860 0 l0 -50 -425 0 -425 0 0 50 0 50 425 0 425 0 0 -50z
m-860 -115 l0 -55 -1500 0 -1500 0 0 55 0 55 1500 0 1500 0 0 -55z m300 15
c-11 -22 -18 -40 -15 -40 2 0 14 18 25 40 l20 40 265 0 265 0 0 -55 0 -55
-425 0 -425 0 0 55 0 55 155 0 155 0 -20 -40z m-7500 -110 l0 -30 -414 0
c-228 0 -421 3 -430 6 -9 3 -16 17 -16 30 l0 24 430 0 430 0 0 -30z m910 19
c0 -5 5 -7 10 -4 13 8 13 -1 0 -26 -10 -18 -26 -19 -460 -19 l-450 0 0 30 0
30 450 0 c310 0 450 -3 450 -11z m880 -19 l0 -30 -417 0 c-233 0 -424 4 -432
9 -12 7 -12 13 -3 24 7 7 9 17 5 20 -3 4 186 7 420 7 l427 0 0 -30z m914 24
c9 -3 14 -9 12 -13 -2 -3 3 -12 11 -20 13 -11 14 -10 11 10 l-3 24 423 3 422
2 0 -30 0 -30 -421 0 c-271 0 -427 4 -440 10 -13 7 -19 7 -19 0 0 -7 -146 -10
-450 -10 l-450 0 0 30 0 30 444 0 c244 0 451 -3 460 -6z m1791 -14 c-4 -11 -2
-20 4 -20 6 0 11 -4 11 -10 0 -7 -160 -10 -460 -10 l-460 0 0 30 0 30 456 0
c451 0 455 0 449 -20z m885 -10 l0 -30 -430 0 c-405 0 -431 1 -428 18 2 9 -2
16 -9 15 -7 -2 -10 4 -7 12 5 13 65 15 440 15 l434 0 0 -30z m1790 0 l0 -30
-425 0 c-418 0 -425 0 -425 20 0 14 -6 20 -22 19 -17 -1 -19 -2 -5 -6 9 -2 17
-9 17 -15 0 -5 -7 -7 -16 -4 -8 3 -12 2 -9 -4 4 -7 -150 -10 -444 -10 l-451 0
0 30 0 30 890 0 890 0 0 -30z"/>
<path d="M53 5937 c-9 -19 -8 -23 8 -23 11 0 19 4 19 8 0 4 -4 8 -10 8 -5 0
-7 7 -4 15 10 24 -2 17 -13 -8z"/>
<path d="M6320 6802 c0 -7 -4 -10 -10 -7 -5 3 -10 2 -10 -3 0 -13 28 -23 34
-14 3 5 1 14 -5 22 -6 11 -9 12 -9 2z"/>
<path d="M8120 6791 c0 -5 -8 -12 -17 -14 -14 -4 -12 -5 5 -6 13 -1 22 5 22
14 0 8 -2 15 -5 15 -3 0 -5 -4 -5 -9z"/>
<path d="M9903 5937 c-9 -19 -8 -23 8 -23 11 0 19 4 19 8 0 4 -4 8 -10 8 -5 0
-7 7 -4 15 10 24 -2 17 -13 -8z"/>
<path d="M4440 6035 l0 -205 -795 0 -795 0 0 -140 0 -140 -525 0 -525 0 0
-315 0 -315 -430 0 -430 0 0 -575 0 -575 345 0 345 0 0 250 0 250 40 0 c28 0
40 -4 40 -14 0 -9 -7 -12 -20 -9 -12 3 -20 0 -20 -6 0 -7 -5 -9 -11 -5 -7 4
-10 1 -7 -7 3 -8 16 -14 29 -14 15 0 26 -7 31 -20 4 -12 6 -2 7 28 l1 47 135
0 135 0 0 45 0 45 225 0 225 0 0 -200 0 -200 -140 0 -140 0 -2 -267 -3 -268
-22 -3 c-24 -3 -30 -16 -14 -26 5 -4 12 0 14 6 4 10 8 9 16 -2 18 -25 13 -30
-34 -30 l-45 0 0 -280 0 -280 45 0 c25 0 45 -4 45 -10 0 -9 -21 -15 -42 -11
-5 0 -8 -9 -8 -21 0 -21 0 -21 14 -2 8 10 18 15 23 11 4 -5 9 -141 11 -303 l3
-294 274 0 275 0 0 -185 0 -185 160 0 160 0 0 -180 0 -180 158 -2 c86 -1 178
-1 205 0 l47 2 0 -90 0 -90 185 0 185 0 0 90 0 90 115 0 115 0 0 180 0 180
1615 0 1615 0 0 185 0 185 435 0 435 0 0 635 0 635 39 0 40 0 4 -47 3 -48 2
48 c1 26 7 47 12 47 6 0 10 -7 10 -15 0 -9 10 -15 26 -15 19 0 25 4 20 15 -3
8 -1 15 4 15 5 0 11 -21 13 -47 l3 -48 2 48 2 47 135 0 135 0 0 1280 0 1280
-135 0 -135 0 0 115 0 115 -1940 0 -1940 0 0 -205z m3868 83 c-1 -62 -3 -94
-5 -70 -4 37 -7 42 -29 42 -20 0 -24 -5 -23 -22 3 -38 0 -58 -11 -58 -5 0 -11
21 -12 48 l-2 47 -3 -47 -4 -48 -40 0 -39 0 -2 48 -2 47 -3 -47 -4 -48 -140 0
-139 0 0 -45 c0 -48 0 -48 -24 -39 -13 5 -14 9 -5 21 17 20 -5 43 -23 24 -11
-11 -10 -13 5 -8 9 4 17 3 17 -2 0 -10 -30 -37 -50 -44 -8 -3 6 -6 33 -6 l47
-1 0 -40 c0 -22 -4 -40 -10 -40 -9 0 -15 29 -11 53 0 4 -9 7 -22 6 -12 0 -16
-3 -9 -6 6 -2 10 -9 6 -14 -3 -5 0 -9 5 -9 23 0 9 -18 -21 -28 -33 -10 -33
-10 15 -11 l47 -1 0 -40 c0 -22 -4 -40 -10 -40 -5 0 -10 10 -10 23 0 16 -3 18
-9 8 -5 -7 -14 -10 -20 -7 -6 4 -11 2 -11 -3 0 -6 8 -12 18 -12 9 -1 1 -5 -18
-9 -34 -7 -34 -7 13 -9 l47 -1 0 -40 c0 -22 -4 -40 -10 -40 -9 0 -15 21 -11
43 2 14 -27 7 -33 -9 -4 -12 -2 -15 9 -10 8 3 15 2 15 -3 0 -4 -15 -13 -32
-19 -33 -10 -33 -10 15 -11 l47 -1 0 -60 c0 -47 -3 -60 -15 -60 -22 0 -20 -50
3 -52 9 0 -5 -4 -33 -8 l-50 -7 48 -1 c46 -2 47 -2 46 -34 -1 -31 -1 -32 -9
-8 -9 27 -10 26 -14 -7 -2 -15 3 -24 13 -25 9 0 -6 -4 -34 -8 l-50 -7 48 -1
c26 -1 47 -6 47 -12 0 -5 -8 -10 -17 -10 -15 0 -15 -2 -4 -9 12 -8 12 -12 2
-25 -20 -24 -41 -19 -41 10 0 14 -4 23 -10 19 -5 -3 -7 -12 -3 -20 3 -9 0 -22
-7 -30 -11 -13 -6 -15 34 -15 l46 0 0 -55 c0 -50 -2 -55 -22 -56 -22 -1 -22
-1 2 -9 14 -4 20 -8 13 -9 -7 -1 -10 -7 -7 -15 4 -9 -3 -13 -20 -13 -21 0 -26
4 -26 26 0 20 -3 22 -9 11 -6 -8 -7 -18 -4 -22 2 -5 -1 -15 -7 -23 -11 -13 -6
-15 34 -15 39 0 46 -3 46 -19 0 -11 -4 -23 -10 -26 -6 -3 -7 1 -4 12 5 16 4
16 -6 -1 -10 -14 -10 -20 1 -27 19 -11 4 -22 -20 -14 -14 4 -21 15 -21 33 0
20 -3 23 -9 12 -6 -8 -7 -18 -4 -22 2 -5 -1 -15 -7 -23 -11 -13 -6 -15 34 -15
25 0 46 -4 46 -10 0 -5 -7 -10 -15 -10 -8 0 -15 -9 -15 -21 0 -11 5 -17 10
-14 6 3 10 2 10 -4 0 -5 -6 -11 -12 -14 -23 -8 -38 5 -38 32 0 20 -3 22 -9 11
-6 -8 -7 -18 -4 -22 2 -5 -1 -15 -7 -23 -11 -13 -6 -15 34 -15 34 0 46 -4 46
-15 0 -8 -7 -15 -15 -15 -9 0 -15 -9 -15 -25 0 -18 -4 -23 -15 -19 -8 4 -15
15 -15 26 0 10 -5 16 -10 13 -6 -4 -8 -11 -4 -16 3 -5 0 -16 -6 -24 -11 -13
-6 -15 34 -15 34 0 46 -4 46 -15 0 -8 -10 -16 -22 -16 l-23 -2 23 -4 c14 -3
22 -12 22 -24 0 -14 -6 -18 -22 -15 -13 3 -26 5 -30 5 -5 1 -8 10 -8 22 0 11
-5 17 -10 14 -6 -4 -8 -11 -4 -16 3 -5 0 -16 -6 -24 -11 -13 -6 -15 34 -15
l46 0 0 -60 c0 -47 -3 -60 -15 -60 -22 0 -19 -47 3 -53 9 -3 -155 -5 -365 -6
l-383 -1 0 640 0 640 -1320 0 -1320 0 0 200 0 200 1930 0 1930 0 -2 -112z
m-20 -63 c0 -16 -5 -22 -12 -18 -6 4 -5 -1 3 -10 12 -15 11 -17 -3 -17 -19 0
-20 10 -4 45 14 31 16 31 16 0z m292 -1325 l0 -1270 -360 0 -360 0 0 1270 0
1270 360 0 360 0 0 -1270z m-4140 980 l0 -110 -590 0 -590 0 0 -25 0 -25 -200
0 -200 0 0 135 0 135 790 0 790 0 0 -110z m2640 -530 l0 -640 385 0 c250 0
385 -4 385 -10 0 -5 -7 -10 -15 -10 -9 0 -15 -10 -15 -26 0 -19 4 -25 15 -20
8 3 15 1 15 -4 0 -7 -385 -10 -1065 -10 l-1065 0 0 570 0 570 -635 0 -635 0 0
110 0 110 1315 0 1315 0 0 -640z m-2640 390 c0 -20 -7 -20 -585 -20 -578 0
-585 0 -585 20 0 20 7 20 585 20 578 0 585 0 585 -20z m1270 -550 l0 -570
1070 0 c707 0 1070 -3 1070 -10 0 -5 -7 -10 -16 -10 -12 0 -15 -7 -12 -30 5
-32 1 -35 -21 -21 -9 6 -10 11 -2 15 20 13 12 36 -11 35 -17 -1 -19 -2 -5 -6
22 -6 22 -12 -5 -40 l-21 -23 46 0 47 0 -1 -37 c-1 -38 -1 -38 -9 -8 -7 29
-11 28 -14 -7 0 -10 -4 -18 -8 -18 -29 0 -30 0 -18 15 6 8 9 19 5 25 -8 13
-35 13 -35 0 0 -5 7 -7 15 -4 21 9 19 -6 -7 -33 l-21 -23 46 0 c26 0 47 -4 47
-10 0 -5 -7 -10 -15 -10 -8 0 -15 -5 -15 -11 0 -5 5 -7 10 -4 6 3 10 4 10 1 0
-2 3 -11 6 -20 3 -9 1 -16 -6 -16 -6 0 -8 6 -4 13 6 10 4 10 -7 0 -7 -7 -19
-13 -27 -13 -12 0 -12 3 -2 15 6 8 9 19 5 25 -8 13 -35 13 -35 0 0 -5 7 -7 15
-4 21 9 19 -6 -7 -33 l-21 -23 46 0 c26 0 47 -4 47 -10 0 -9 -28 -14 -57 -11
-6 1 -14 -3 -18 -9 -4 -6 -3 -10 2 -9 23 4 24 -3 3 -26 l-23 -25 46 0 c40 0
47 -3 47 -19 0 -11 -4 -23 -10 -26 -6 -3 -7 1 -4 12 5 16 4 16 -6 -1 -10 -14
-10 -20 1 -27 19 -12 4 -22 -21 -14 -17 5 -19 9 -9 21 17 21 -5 44 -23 25 -7
-7 -8 -12 -3 -11 25 5 27 -2 5 -25 l-23 -25 46 0 c35 0 47 -4 47 -15 0 -8 -7
-15 -15 -15 -8 0 -15 -7 -15 -16 0 -8 5 -12 10 -9 6 3 10 2 10 -3 0 -14 -25
-22 -39 -12 -9 5 -10 10 -2 14 19 12 12 26 -11 25 -19 -1 -20 -2 -5 -6 18 -4
17 -6 -4 -29 l-22 -24 46 0 47 0 0 -60 c0 -47 -3 -60 -15 -60 -22 0 -20 -50 3
-52 9 0 -5 -4 -33 -8 l-50 -7 48 -1 c58 -2 63 -22 5 -23 -24 -1 -35 -3 -25 -6
9 -2 17 -7 17 -10 0 -3 -8 -12 -17 -19 -17 -12 -16 -13 4 -14 13 0 22 3 22 8
-4 22 3 32 21 32 15 0 20 -7 20 -25 0 -23 -4 -25 -47 -27 l-48 -2 48 -3 47 -4
0 -90 0 -89 140 0 140 0 0 -630 0 -630 -430 0 -430 0 0 770 0 770 -280 0 -280
0 0 -130 0 -130 -25 0 c-16 0 -25 -6 -25 -16 0 -14 3 -14 16 -3 13 10 17 10
25 -2 16 -25 10 -29 -51 -29 l-60 0 0 155 0 155 -70 0 -70 0 0 300 0 300 -570
0 -570 0 0 360 0 360 -427 2 -428 3 0 40 0 40 453 3 452 2 0 205 0 205 -455 0
c-448 0 -455 0 -455 20 0 20 7 20 630 20 l630 0 0 -570z m-2860 -270 l0 -790
-110 0 -110 0 0 250 0 250 -320 0 -320 0 0 40 0 40 48 2 47 2 -47 3 -48 4 0
40 0 39 48 2 47 2 -47 3 -48 4 0 50 0 49 -135 0 -135 0 -1 48 c-1 36 -3 41 -8
22 -5 -17 -16 -27 -36 -31 -30 -7 -27 -10 9 -13 11 0 21 -7 23 -13 3 -9 -8
-13 -36 -13 l-41 0 0 47 c0 25 -3 44 -6 41 -3 -3 -5 -24 -6 -47 l0 -41 -44 0
-44 0 0 -235 0 -235 45 0 c30 0 45 -4 45 -13 0 -7 -12 -13 -27 -12 -18 0 -28
-5 -28 -15 0 -10 10 -15 28 -15 l27 1 0 -218 0 -218 -335 0 -335 0 0 565 0
565 430 0 430 0 0 315 0 315 520 0 520 0 0 -790z m410 595 l0 -195 -115 0
-115 0 0 -595 0 -595 -85 0 -85 0 0 790 0 790 200 0 200 0 0 -195z m1178 3
l-3 -193 -582 -3 -583 -2 0 195 0 195 585 0 585 0 -2 -192z m912 -3 l0 -195
-447 2 -448 3 -3 193 -2 192 450 0 450 0 0 -195z m2487 143 c-3 -8 -6 -5 -6 6
-1 11 2 17 5 13 3 -3 4 -12 1 -19z m13 -188 c0 -5 -5 -10 -11 -10 -5 0 -7 5
-4 10 3 6 8 10 11 10 2 0 4 -4 4 -10z m-4590 -250 l0 -90 -45 0 -45 0 0 -500
0 -500 -65 0 -65 0 0 590 0 590 110 0 110 0 0 -90z m1178 -87 c3 -168 2 -173
-18 -173 -11 0 -20 -6 -20 -12 0 -9 -4 -8 -11 2 -9 13 -10 13 -6 0 2 -8 17
-18 33 -21 28 -6 28 -7 4 -9 -14 -1 -28 -2 -32 -1 -5 0 -8 -9 -7 -22 0 -12 3
-16 6 -9 2 6 9 10 14 6 5 -3 9 0 9 5 0 6 5 11 11 11 6 0 9 -7 5 -15 -3 -8 -1
-15 4 -15 6 0 10 -4 10 -10 0 -6 -35 -10 -85 -10 l-85 0 0 72 c0 72 -9 92 -12
24 -1 -28 -5 -36 -19 -36 -12 0 -16 -5 -13 -15 5 -11 1 -14 -12 -9 -16 5 -16
4 -4 -5 21 -15 30 -14 30 4 0 8 5 15 10 15 6 0 10 -11 10 -25 0 -25 -1 -25
-85 -25 l-85 0 0 135 0 135 -410 0 -410 0 0 90 0 90 583 -2 582 -3 3 -172z
m862 -283 l0 -360 570 0 570 0 0 -295 0 -295 -455 0 -455 0 -2 -767 -3 -768
-625 0 -625 0 -3 58 -3 57 341 0 340 0 0 160 0 160 73 2 72 2 -72 3 -73 4 0
84 0 85 73 2 72 2 -72 3 -73 4 0 44 0 45 73 1 c46 1 63 4 47 8 -18 5 -24 13
-22 29 2 16 -2 22 -15 22 -15 0 -16 -2 -3 -10 13 -9 13 -11 0 -19 -15 -10 -33
6 -24 21 3 4 -5 8 -18 8 -22 -1 -22 -1 -4 -15 22 -17 21 -20 -11 -29 -21 -7
-23 -4 -23 33 l0 41 73 1 c45 1 63 4 47 8 -15 4 -26 15 -28 29 -2 12 -7 20
-12 17 -5 -3 -7 -12 -4 -19 3 -8 1 -17 -5 -21 -7 -4 -11 4 -11 19 0 20 -5 26
-22 26 -22 -1 -22 -1 -4 -15 22 -17 21 -20 -11 -29 -23 -7 -23 -6 -23 78 l0
86 73 1 c39 1 62 4 50 6 -15 3 -23 12 -23 24 0 10 -6 19 -12 19 -9 0 -8 4 2
10 13 8 12 10 -2 10 -14 0 -18 -8 -18 -32 0 -37 -9 -33 -12 5 -2 20 -8 27 -23
26 -11 0 -14 -3 -7 -6 6 -2 10 -9 6 -14 -3 -5 0 -9 5 -9 6 0 11 -5 11 -11 0
-6 -7 -9 -15 -5 -8 3 -15 1 -15 -4 0 -6 -4 -10 -10 -10 -6 0 -10 35 -10 85 l0
85 73 1 c39 1 60 4 46 6 -22 3 -25 8 -21 33 3 23 0 30 -13 30 -11 0 -16 -7
-13 -22 2 -23 -2 -28 -24 -28 -9 0 -9 3 0 12 7 7 12 18 12 25 0 15 -26 18 -35
3 -3 -6 1 -7 9 -4 21 8 20 -5 -1 -28 -25 -27 -33 -22 -33 22 l0 40 72 0 c78 0
88 6 20 13 -23 2 -44 6 -46 8 -9 9 21 37 44 42 14 2 3 4 -25 4 -27 1 -42 -1
-32 -4 21 -6 21 -12 0 -35 -25 -27 -33 -22 -33 22 l0 40 73 2 72 2 -72 3 -73
4 0 39 0 40 73 2 72 2 -72 3 -73 4 0 39 0 40 73 2 72 2 -72 3 -73 4 0 44 0 45
73 1 c46 1 63 4 47 8 -18 5 -24 13 -22 29 2 16 -2 22 -15 22 -15 0 -16 -2 -3
-10 13 -9 13 -11 0 -20 -8 -5 -22 -7 -32 -4 -9 2 -19 0 -23 -6 -13 -22 -25 -8
-25 30 l0 40 73 1 c45 1 63 4 47 8 -14 4 -27 17 -31 31 -6 23 -9 22 -13 -5 -1
-11 -9 -15 -28 -15 -9 0 -9 3 0 12 18 18 14 28 -10 27 -19 -1 -19 -2 -5 -6 18
-5 18 -6 1 -24 -9 -10 -21 -19 -26 -19 -4 0 -8 173 -8 385 l0 385 -250 0 -250
0 0 168 c0 93 3 172 7 175 3 4 195 7 425 7 l418 0 0 -360z m-2040 -290 l0
-560 -110 0 -110 0 0 60 0 60 70 0 70 0 0 500 0 500 40 0 40 0 0 -560z m820
430 l0 -130 -250 0 -250 0 0 -204 0 -205 -38 1 c-36 0 -38 2 -36 29 2 24 -2
29 -19 28 -12 0 -16 -3 -9 -6 6 -2 10 -9 6 -14 -3 -5 0 -9 6 -9 6 0 8 -5 5
-10 -4 -6 -11 -7 -17 -4 -6 4 -8 2 -4 -4 3 -6 -3 -12 -16 -15 -13 -2 10 -5 50
-6 l72 -1 0 -40 c0 -40 0 -40 -38 -38 -32 1 -38 5 -38 22 1 14 10 23 26 27 18
5 13 7 -20 7 -25 0 -39 -2 -32 -5 6 -2 10 -9 6 -14 -3 -5 0 -9 5 -9 6 0 11 -5
11 -11 0 -6 -7 -9 -15 -5 -8 3 -15 1 -15 -4 0 -5 -8 -11 -17 -13 -10 -3 15 -5
55 -6 l72 -1 0 -86 0 -85 -27 3 c-22 2 -29 9 -31 31 -3 24 -6 26 -18 16 -12
-10 -12 -14 -2 -20 17 -11 6 -20 -34 -29 -26 -6 -18 -8 40 -9 l72 -1 0 -40 c0
-35 -3 -40 -22 -40 -30 0 -54 15 -39 24 19 12 12 26 -11 25 -20 0 -21 -1 -5
-8 18 -6 18 -7 0 -23 -10 -9 -29 -18 -43 -21 -14 -2 8 -5 48 -6 l72 -1 0 -40
c0 -36 -2 -40 -25 -40 -19 0 -25 5 -25 23 0 16 -3 18 -9 8 -5 -7 -14 -10 -20
-7 -6 4 -11 3 -11 -3 0 -5 8 -12 18 -14 9 -3 -40 -5 -110 -6 l-128 -1 0 560 0
560 405 0 405 0 0 -130z m-2100 -315 l0 -225 -220 0 -220 0 0 225 0 225 220 0
220 0 0 -225z m2960 -1005 l0 -1180 -327 0 c-254 0 -324 3 -315 12 8 8 12 53
12 135 l0 123 313 3 312 2 -317 3 -318 2 0 -126 c0 -109 -2 -129 -17 -140 -14
-11 -91 -13 -355 -14 l-338 0 0 1180 0 1180 675 0 675 0 0 -1180z m-2320 705
l0 -245 -85 0 -85 0 0 205 0 205 -199 0 -198 0 -7 33 c-6 29 -8 30 -18 13 -8
-15 -8 -21 0 -24 22 -7 12 -22 -13 -22 -22 0 -25 4 -25 40 l0 40 315 0 315 0
0 -245z m5217 193 c-3 -8 -6 -5 -6 6 -1 11 2 17 5 13 3 -3 4 -12 1 -19z
m-6137 -168 c0 -5 -4 -10 -10 -10 -5 0 -10 5 -10 10 0 6 5 10 10 10 6 0 10 -4
10 -10z m6142 -87 c-6 -2 -9 -9 -6 -15 8 -13 -15 -28 -32 -21 -20 7 6 43 31
42 11 0 14 -3 7 -6z m-5402 -258 l0 -65 90 0 90 0 0 -50 0 -50 115 0 115 0 0
-180 0 -180 90 0 90 0 0 -130 0 -130 -257 0 c-251 0 -309 7 -273 30 12 7 12
12 2 22 -9 9 -15 9 -24 -1 -10 -11 -10 -13 0 -7 15 9 15 1 2 -25 -23 -42 -30
-16 -30 116 l0 135 -140 0 -140 0 0 290 0 290 135 0 135 0 0 -65z m180 5 l0
-60 -85 0 -85 0 0 60 0 60 85 0 85 0 0 -60z m230 0 l0 -60 -110 0 -110 0 0 60
0 60 110 0 110 0 0 -60z m180 0 l0 -60 -85 0 -85 0 0 60 0 60 85 0 85 0 0 -60z
m-180 -115 l0 -45 -110 0 -110 0 0 45 0 45 110 0 110 0 0 -45z m180 0 l0 -45
-85 0 -85 0 0 45 0 45 85 0 85 0 0 -45z m230 0 l0 -45 -110 0 -110 0 0 45 0
45 110 0 110 0 0 -45z m320 0 l0 -45 -155 0 -155 0 0 45 0 45 155 0 155 0 0
-45z m4263 -10 c-3 -9 -8 -14 -10 -11 -3 3 -2 9 2 15 9 16 15 13 8 -4z m-4813
-220 l0 -175 -85 0 -85 0 0 175 0 175 85 0 85 0 0 -175z m230 40 l0 -135 160
0 160 0 0 -40 0 -40 -37 3 c-32 2 -39 6 -43 29 -4 22 -8 25 -20 18 -10 -6 -11
-10 -2 -10 18 0 15 -27 -4 -34 -9 -3 -110 -6 -225 -6 l-209 0 0 175 0 175 110
0 110 0 0 -135z m320 95 l0 -40 -72 -2 -73 -2 73 -3 72 -4 0 -39 0 -40 -72 -2
-73 -2 73 -3 72 -4 0 -39 c0 -37 -2 -40 -28 -40 -26 0 -28 3 -24 30 3 22 0 30
-11 30 -22 0 -31 -18 -18 -34 6 -7 8 -16 4 -19 -3 -4 -57 -7 -120 -7 l-113 0
0 130 0 130 155 0 155 0 0 -40z m2858 -87 l-3 -128 -30 -6 c-30 -7 -27 -11 9
-13 11 -1 21 -7 23 -13 4 -10 -13 -13 -61 -13 l-66 0 0 -505 0 -505 365 0 365
0 0 505 0 505 -90 0 -90 0 -1 48 c-1 26 -4 37 -6 24 -3 -13 -10 -21 -17 -19
-6 3 -20 -1 -29 -8 -17 -12 -17 -13 0 -19 10 -4 19 -2 21 3 6 19 22 12 22 -9
0 -18 -7 -20 -65 -20 l-65 0 0 150 0 150 270 0 270 0 0 -765 0 -765 -857 2
-858 3 -3 763 -2 762 450 0 451 0 -3 -127z m140 0 l-3 -128 -27 3 c-21 2 -28
-2 -28 -15 0 -14 2 -15 9 -4 7 10 13 11 30 2 37 -21 23 -31 -44 -31 l-65 0 0
150 0 150 65 0 66 0 -3 -127z m-3058 -93 c0 -5 -2 -10 -4 -10 -3 0 -8 5 -11
10 -3 6 -1 10 4 10 6 0 11 -4 11 -10z m3510 -585 l0 -495 -355 0 -355 0 0 495
0 495 355 0 355 0 0 -495z m-4590 175 l0 -270 -180 0 -180 0 0 270 0 270 180
0 180 0 0 -270z m1140 229 c0 -33 -3 -40 -17 -37 -10 2 -21 16 -24 33 -7 29
-11 27 -13 -7 -2 -29 -20 -25 -26 6 -5 28 -6 28 -20 11 -9 -11 -10 -16 -2 -11
7 4 12 2 12 -8 0 -8 -12 -19 -27 -24 -24 -9 -16 -11 45 -11 l72 -1 0 -40 c0
-40 -5 -45 -34 -34 -13 5 -14 10 -5 20 11 14 5 34 -12 34 -5 0 -9 -5 -9 -11 0
-5 5 -7 10 -4 14 9 13 -8 -2 -23 -18 -18 -26 -14 -30 15 -3 25 -4 25 -18 8 -9
-11 -10 -16 -2 -11 7 4 12 2 12 -8 0 -8 -12 -19 -27 -24 -24 -9 -16 -11 45
-11 l72 -1 0 -40 c0 -50 -24 -55 -34 -7 -6 29 -8 30 -18 13 -8 -14 -7 -20 3
-27 17 -10 5 -23 -16 -16 -8 4 -15 18 -15 33 0 23 -2 25 -15 14 -13 -11 -13
-15 -3 -22 32 -20 -27 -28 -229 -28 l-213 0 0 130 0 130 270 0 270 0 0 -41z
m-550 -409 l0 -180 -160 0 -160 0 0 -270 0 -270 -270 0 -270 0 0 310 0 310
140 0 140 0 0 140 0 140 290 0 290 0 0 -180z m550 140 c0 -29 -4 -40 -15 -40
-9 0 -15 9 -15 25 0 16 -6 25 -15 25 -8 0 -15 -7 -15 -16 0 -8 5 -12 10 -9 6
3 10 2 10 -3 0 -12 -26 -23 -34 -15 -3 4 -6 15 -6 25 0 19 -15 24 -24 9 -4 -5
0 -12 6 -14 10 -4 9 -8 -2 -16 -9 -6 -69 -11 -142 -11 l-128 0 0 -140 0 -140
-85 0 -85 0 0 180 0 180 270 0 270 0 0 -40z m0 -90 c0 -29 -4 -40 -15 -40 -8
0 -15 8 -15 18 0 14 -2 15 -10 2 -5 -8 -10 -10 -10 -4 0 5 5 15 12 22 9 9 8
12 -5 12 -12 0 -17 -8 -17 -26 0 -14 -4 -23 -10 -19 -5 3 -10 15 -10 26 0 20
-15 26 -25 9 -3 -5 -1 -10 4 -10 21 0 10 -19 -16 -28 -24 -9 -16 -11 45 -11
l72 -1 0 -45 0 -45 -72 -2 -73 -2 73 -3 72 -4 0 -39 0 -40 -180 0 -180 0 0
135 0 135 180 0 180 0 0 -40z m-550 -505 l0 -265 -155 0 -155 0 0 265 0 265
155 0 155 0 0 -265z m180 0 l0 -265 -85 0 -85 0 0 265 0 265 85 0 85 0 0 -265z
m370 225 l0 -40 -72 -2 -73 -2 73 -3 72 -4 0 -159 0 -160 340 0 340 0 0 -23
c0 -20 -5 -23 -30 -21 -24 2 -30 -2 -30 -17 0 -17 -8 -19 -85 -19 -78 0 -85
-2 -85 -20 0 -20 -7 -20 -405 -20 l-405 0 0 265 0 265 180 0 180 0 0 -40z
m668 -433 c8 -10 5 -13 -14 -15 -13 -1 -24 3 -24 9 0 5 5 7 10 4 6 -3 10 -1
10 4 0 14 5 14 18 -2z m10 -39 c-3 -9 -37 -14 -111 -16 -91 -2 -107 0 -107 13
0 13 18 15 111 15 84 0 110 -3 107 -12z m-1228 -208 l0 -180 -155 0 -155 0 0
180 0 180 155 0 155 0 0 -180z m180 155 l0 -25 205 0 205 0 0 -155 0 -155
-290 0 -290 0 0 180 0 180 85 0 c84 0 85 0 85 -25z m820 -155 l0 -180 -200 0
-200 0 0 160 0 160 -205 0 c-198 0 -205 1 -205 20 0 20 7 20 405 20 l405 0 0
-180z m228 158 c3 -14 -3 -18 -25 -18 l-28 -1 29 -25 28 -25 25 23 c25 23 25
23 3 26 -14 2 -20 9 -18 20 3 16 110 17 1496 19 l1492 3 0 -180 0 -180 -1610
0 -1610 0 0 180 0 181 107 -3 c93 -3 108 -5 111 -20z m22 -43 c-10 -12 -16
-13 -26 -4 -20 16 -18 19 12 19 22 0 25 -2 14 -15z m-660 -354 c0 -65 -8 -85
-27 -70 -20 17 -43 -5 -24 -23 11 -11 13 -10 8 5 -4 9 -3 17 0 17 10 0 43 -32
43 -42 0 -4 -40 -8 -90 -8 l-90 0 0 -90 c0 -49 -2 -90 -4 -90 -20 0 -36 17
-36 38 0 14 -3 22 -7 18 -5 -4 -8 -18 -8 -29 0 -22 -3 -22 -172 -25 l-173 -4
0 176 0 176 290 0 290 0 0 -49z m410 -126 l0 -175 -79 0 -78 0 -7 33 c-6 29
-8 30 -18 13 -8 -15 -8 -21 0 -24 22 -7 12 -22 -13 -22 -25 0 -25 1 -25 90 l0
90 -90 0 -90 0 0 85 0 85 200 0 200 0 0 -175z m-230 -180 l0 -175 -175 0 -175
0 0 175 0 175 175 0 175 0 0 -175z"/>
<path d="M8081 6061 c-18 -11 -5 -31 20 -31 12 0 19 7 19 20 0 21 -16 26 -39
11z"/>
<path d="M8160 6050 c0 -21 16 -26 39 -11 18 11 5 31 -20 31 -12 0 -19 -7 -19
-20z"/>
<path d="M7780 5520 c-1 -3 -3 -15 -4 -27 -2 -17 2 -23 18 -23 13 0 16 3 10 8
-7 4 -14 16 -17 27 -2 11 -6 18 -7 15z"/>
<path d="M7780 5430 c-1 -3 -3 -15 -4 -27 -2 -17 2 -23 18 -23 13 0 16 3 10 8
-7 4 -14 16 -17 27 -2 11 -6 18 -7 15z"/>
<path d="M7780 4610 c-1 -3 -3 -15 -4 -27 -2 -17 2 -23 18 -23 13 0 16 3 10 8
-7 4 -14 16 -17 27 -2 11 -6 18 -7 15z"/>
<path d="M8100 5956 c0 -13 3 -17 8 -10 4 7 18 14 32 16 23 3 22 4 -7 9 -28 5
-33 3 -33 -15z"/>
<path d="M8190 5956 c0 -11 10 -16 31 -16 38 0 35 24 -4 28 -19 2 -27 -1 -27
-12z m43 -3 c-7 -2 -19 -2 -25 0 -7 3 -2 5 12 5 14 0 19 -2 13 -5z"/>
<path d="M8280 5955 c0 -10 10 -15 30 -15 20 0 30 5 30 15 0 8 -5 15 -11 15
-5 0 -7 -4 -4 -10 3 -5 -3 -10 -15 -10 -12 0 -18 5 -15 10 3 6 1 10 -4 10 -6
0 -11 -7 -11 -15z"/>
<path d="M7890 5915 c0 -22 4 -25 38 -25 33 0 38 3 40 25 2 23 -2 25 -38 25
-36 0 -40 -3 -40 -25z m70 6 c0 -10 -24 -21 -46 -21 -8 0 -14 7 -14 15 0 10
10 15 30 15 17 0 30 -4 30 -9z"/>
<path d="M7981 5914 c0 -16 3 -23 6 -16 4 10 8 10 19 1 11 -9 14 -6 13 17 0
16 -3 23 -6 16 -4 -10 -8 -10 -19 -1 -11 9 -14 6 -13 -17z"/>
<path d="M8116 5931 c-18 -7 -18 -8 -2 -14 10 -4 24 -1 32 8 17 17 4 19 -30 6z"/>
<path d="M8197 5923 c-4 -3 -7 -14 -7 -23 0 -13 7 -16 31 -12 21 3 29 9 25 19
-3 8 -6 17 -6 19 0 7 -36 5 -43 -3z m38 -13 c3 -5 -3 -10 -15 -10 -12 0 -18 5
-15 10 3 6 10 10 15 10 5 0 12 -4 15 -10z"/>
<path d="M8282 5906 c2 -20 6 -22 28 -16 24 6 42 40 21 40 -6 0 -8 -7 -5 -15
4 -11 0 -15 -16 -15 -16 0 -20 4 -16 15 3 8 1 15 -4 15 -5 0 -9 -11 -8 -24z"/>
<path d="M8128 5903 c-21 -3 -28 -10 -28 -27 0 -19 4 -22 30 -18 24 3 29 9 28
28 -1 13 -3 23 -3 23 0 -1 -12 -4 -27 -6z m22 -23 c0 -5 -4 -10 -10 -10 -5 0
-10 5 -10 10 0 6 5 10 10 10 6 0 10 -4 10 -10z"/>
<path d="M8215 5870 c3 -5 14 -10 23 -10 15 0 15 2 2 10 -20 13 -33 13 -25 0z"/>
<path d="M8305 5870 c3 -5 14 -10 23 -10 15 0 15 2 2 10 -20 13 -33 13 -25 0z"/>
<path d="M7890 5825 c0 -22 4 -25 38 -25 33 0 38 3 40 25 2 23 -2 25 -38 25
-36 0 -40 -3 -40 -25z m70 6 c0 -10 -24 -21 -46 -21 -8 0 -14 7 -14 15 0 10
10 15 30 15 17 0 30 -4 30 -9z"/>
<path d="M7980 5825 c0 -24 1 -24 19 -8 21 18 19 33 -5 33 -8 0 -14 -10 -14
-25z"/>
<path d="M8125 5840 c3 -5 14 -10 23 -10 15 0 15 2 2 10 -20 13 -33 13 -25 0z"/>
<path d="M7890 5735 c0 -22 4 -25 39 -25 35 0 38 2 34 23 -4 19 -12 24 -39 25
-30 1 -34 -2 -34 -23z m44 9 c25 -9 19 -24 -9 -24 -16 0 -25 6 -25 15 0 16 9
19 34 9z"/>
<path d="M7980 5735 c0 -24 1 -24 19 -8 21 18 19 33 -5 33 -8 0 -14 -10 -14
-25z"/>
<path d="M7896 5663 c-3 -4 -6 -15 -6 -25 0 -14 8 -18 39 -18 34 0 38 2 34 23
-3 16 -12 23 -33 24 -15 1 -30 -1 -34 -4z m38 -9 c25 -9 19 -24 -9 -24 -16 0
-25 6 -25 15 0 16 9 19 34 9z"/>
<path d="M7981 5644 c0 -16 3 -23 6 -16 4 10 8 10 19 1 11 -9 14 -6 13 17 0
16 -3 23 -6 16 -4 -10 -8 -10 -19 -1 -11 9 -14 6 -13 -17z"/>
<path d="M7890 5461 c0 -28 2 -30 34 -28 41 3 56 14 36 28 -13 8 -13 10 0 19
13 8 13 10 -1 10 -26 0 -30 -12 -12 -33 14 -16 15 -19 3 -15 -8 2 -19 14 -25
26 -14 32 -35 27 -35 -7z"/>
<path d="M7982 5465 c2 -14 8 -26 13 -26 6 0 11 12 13 26 2 18 -1 25 -13 25
-12 0 -15 -7 -13 -25z m15 -17 c-3 -7 -5 -2 -5 12 0 14 2 19 5 13 2 -7 2 -19
0 -25z"/>
<path d="M7890 5371 c0 -27 3 -29 40 -29 27 -1 40 4 40 13 0 7 -6 16 -12 18
-10 4 -9 8 2 16 13 9 13 11 -2 11 -26 0 -32 -20 -12 -35 17 -13 18 -14 2 -15
-11 0 -20 10 -24 25 -9 35 -34 32 -34 -4z"/>
<path d="M7989 5398 c-7 -14 -2 -58 6 -58 7 0 10 12 7 30 -4 26 -9 36 -13 28z"/>
<path d="M7890 5281 c0 -28 0 -28 63 -29 34 0 56 2 49 5 -10 4 -10 8 -2 19 12
14 6 34 -11 34 -5 0 -9 -5 -9 -11 0 -5 5 -7 10 -4 14 8 13 -8 -1 -22 -9 -9
-15 -8 -25 2 -17 17 -18 29 -1 19 10 -6 10 -4 0 7 -11 10 -15 11 -25 0 -11
-10 -9 -15 6 -27 17 -12 17 -14 3 -14 -9 0 -19 11 -23 25 -9 35 -34 32 -34 -4z"/>
<path d="M7903 5133 c15 -2 37 -2 50 0 12 2 0 4 -28 4 -27 0 -38 -2 -22 -4z"/>
<path d="M7892 5098 c2 -19 10 -24 41 -26 28 -2 37 0 37 12 0 9 -6 16 -12 16
-9 0 -8 4 2 10 11 7 3 10 -28 10 -39 0 -43 -2 -40 -22z m52 -3 c19 -14 18 -15
-12 -15 -22 0 -32 5 -32 15 0 19 19 19 44 0z"/>
<path d="M7907 5043 c18 -2 50 -2 70 0 21 2 7 4 -32 4 -38 0 -55 -2 -38 -4z"/>
<path d="M7891 5003 c0 -15 3 -22 6 -15 3 9 9 10 17 3 10 -8 12 -5 11 12 -1
12 -9 23 -18 25 -13 3 -17 -4 -16 -25z"/>
<path d="M7940 5004 c0 -21 5 -24 35 -24 24 0 35 5 35 15 0 8 -6 15 -12 15 -9
0 -9 3 1 9 10 6 2 9 -23 9 -31 0 -36 -3 -36 -24z m44 1 c19 -14 19 -15 -5 -15
-16 0 -26 6 -26 15 0 19 7 18 31 0z"/>
<path d="M7988 4953 c6 -2 18 -2 25 0 6 3 1 5 -13 5 -14 0 -19 -2 -12 -5z"/>
<path d="M7890 4915 c0 -26 24 -35 32 -12 7 18 -2 37 -18 37 -8 0 -14 -10 -14
-25z m25 6 c3 -5 1 -12 -5 -16 -5 -3 -10 1 -10 9 0 18 6 21 15 7z"/>
<path d="M7948 4905 l-20 -30 25 28 c23 28 24 28 30 8 3 -12 13 -21 24 -20 16
1 16 2 1 6 -10 2 -18 11 -18 18 0 7 8 16 18 18 9 3 4 4 -11 4 -20 -1 -35 -11
-49 -32z"/>
<path d="M7960 4833 c-24 -31 -35 -32 -35 -6 0 10 -8 19 -18 21 -13 3 -17 -3
-17 -25 0 -18 3 -24 9 -15 6 10 11 10 21 -4 13 -15 16 -14 37 12 l22 28 9 -23
c10 -27 24 -29 33 -4 13 32 9 43 -15 43 -15 0 -33 -11 -46 -27z m60 9 c0 -5
-7 -9 -15 -9 -8 0 -15 4 -15 9 0 4 7 8 15 8 8 0 15 -4 15 -8z"/>
<path d="M7952 4743 c-24 -35 -38 -65 -18 -38 50 66 45 63 46 30 0 -21 3 -26
9 -16 6 9 11 10 15 2 4 -6 18 -11 32 -11 21 0 24 4 22 30 -2 28 -5 30 -44 30
-35 0 -46 -5 -62 -27z m65 -3 c1 -16 -1 -17 -12 -7 -11 10 -8 19 10 27 1 0 1
-9 2 -20z m33 -5 c0 -8 -4 -15 -10 -15 -5 0 -10 7 -10 15 0 8 5 15 10 15 6 0
10 -7 10 -15z"/>
<path d="M7890 4735 c0 -17 5 -25 18 -25 14 0 15 2 2 10 -13 9 -13 10 0 10 12
0 13 2 1 9 -11 7 -11 9 0 14 10 4 9 6 -3 6 -13 1 -18 -7 -18 -24z"/>
<path d="M7890 4565 c0 -8 5 -15 10 -15 6 0 10 -5 10 -11 0 -5 -4 -7 -10 -4
-5 3 -10 1 -10 -4 0 -6 7 -11 15 -11 17 0 20 26 4 36 -8 4 -7 9 2 15 11 7 10
9 -3 9 -10 0 -18 -7 -18 -15z"/>
<path d="M7937 4573 c-4 -3 -7 -14 -7 -24 0 -19 26 -33 35 -18 4 5 1 8 -7 7
-7 -2 -13 4 -13 12 0 8 6 14 13 13 6 -2 12 2 12 7 0 11 -23 14 -33 3z"/>
<path d="M7981 4553 c-1 -25 3 -33 17 -33 11 0 13 3 6 8 -7 4 -14 18 -17 32
-4 21 -4 20 -6 -7z"/>
<path d="M7890 4476 c0 -8 6 -17 13 -19 9 -4 8 -8 -3 -16 -13 -9 -13 -11 3
-11 19 0 23 25 6 36 -8 4 -7 9 2 15 11 7 10 9 -3 9 -10 0 -18 -6 -18 -14z"/>
<path d="M7930 4461 c0 -26 4 -30 24 -29 20 2 22 6 16 28 -3 14 -14 26 -23 28
-13 3 -17 -4 -17 -27z m30 -1 c0 -11 -4 -20 -10 -20 -5 0 -10 9 -10 20 0 11 5
20 10 20 6 0 10 -9 10 -20z"/>
<path d="M7987 4476 c-4 -10 -1 -24 8 -32 17 -17 19 -4 6 30 -7 18 -8 18 -14
2z"/>
<path d="M7890 4370 c0 -34 25 -42 35 -11 3 11 12 22 20 25 20 7 19 -3 -2 -26
-15 -17 -15 -18 8 -17 13 0 18 3 11 6 -10 4 -10 8 -1 19 17 21 -4 42 -25 25
-10 -8 -16 -9 -21 -1 -12 20 -25 10 -25 -20z m22 -12 c-9 -9 -12 -7 -12 12 0
19 3 21 12 12 9 -9 9 -15 0 -24z"/>
<path d="M7890 4280 c0 -19 5 -30 14 -30 19 0 29 30 15 46 -18 22 -29 16 -29
-16z m23 5 c4 -8 2 -17 -3 -20 -6 -4 -10 3 -10 14 0 25 6 27 13 6z"/>
<path d="M7938 4303 c6 -2 10 -9 6 -14 -3 -5 0 -9 5 -9 18 0 12 -18 -6 -23
-14 -4 -12 -5 5 -6 19 -1 22 4 20 29 -2 23 -7 30 -23 29 -11 0 -14 -3 -7 -6z"/>
<path d="M7890 4185 c0 -16 6 -25 15 -25 8 0 15 4 15 10 0 6 9 6 25 0 22 -8
25 -7 25 13 0 17 -2 19 -10 7 -8 -12 -11 -12 -28 3 -26 24 -42 21 -42 -8z m25
6 c3 -5 1 -12 -5 -16 -5 -3 -10 1 -10 9 0 18 6 21 15 7z"/>
<path d="M7890 4095 c0 -16 6 -25 15 -25 8 0 15 4 15 9 0 5 9 11 20 14 11 3
20 1 20 -3 0 -5 -8 -11 -17 -13 -14 -4 -13 -5 4 -6 18 -1 22 4 21 24 -2 26
-22 34 -32 13 -5 -10 -7 -10 -12 0 -10 22 -34 13 -34 -13z m25 6 c3 -5 1 -12
-5 -16 -5 -3 -10 1 -10 9 0 18 6 21 15 7z"/>
<path d="M7890 4005 c0 -16 6 -25 15 -25 8 0 15 5 15 12 0 9 3 9 12 0 20 -20
38 -14 36 13 -2 26 -22 34 -32 13 -5 -10 -7 -10 -12 0 -10 22 -34 13 -34 -13z
m25 6 c3 -5 1 -12 -5 -16 -5 -3 -10 1 -10 9 0 18 6 21 15 7z m45 -11 c0 -5 -5
-10 -11 -10 -5 0 -7 5 -4 10 3 6 8 10 11 10 2 0 4 -4 4 -10z"/>
<path d="M7890 3915 c0 -26 24 -35 32 -12 7 18 -2 37 -18 37 -8 0 -14 -10 -14
-25z m25 6 c3 -5 1 -12 -5 -16 -5 -3 -10 1 -10 9 0 18 6 21 15 7z"/>
<path d="M7938 3933 c6 -2 18 -2 25 0 6 3 1 5 -13 5 -14 0 -19 -2 -12 -5z"/>
<path d="M7892 3730 c0 -19 2 -27 5 -17 2 9 2 25 0 35 -3 9 -5 1 -5 -18z"/>
<path d="M7911 3728 c1 -19 3 -25 6 -15 4 17 6 17 16 3 10 -14 12 -12 14 14 2
24 -2 30 -17 30 -16 0 -20 -6 -19 -32z"/>
<path d="M7960 3730 c0 -22 5 -30 18 -30 13 0 14 2 4 9 -14 9 -13 32 3 43 6 4
2 8 -7 8 -13 0 -18 -8 -18 -30z"/>
<path d="M8000 3728 c0 -34 6 -35 12 -3 1 11 8 23 13 27 6 4 2 8 -7 8 -14 0
-18 -8 -18 -32z"/>
<path d="M7933 3653 c-10 -26 5 -41 39 -39 28 1 33 6 36 28 3 24 0 26 -34 25
-20 -1 -38 -7 -41 -14z m35 -11 c2 -7 -3 -12 -12 -12 -9 0 -16 7 -16 16 0 17
22 14 28 -4z m32 -3 c0 -11 -4 -17 -10 -14 -5 3 -10 13 -10 21 0 8 5 14 10 14
6 0 10 -9 10 -21z"/>
<path d="M8021 3639 c0 -27 2 -30 8 -14 8 19 8 19 19 0 10 -18 11 -16 11 15 0
19 -3 29 -6 22 -4 -10 -8 -10 -19 -1 -12 9 -14 6 -13 -22z"/>
<path d="M8071 3640 c1 -19 3 -27 6 -17 7 28 23 19 23 -13 0 -27 3 -30 31 -30
24 0 30 3 25 16 -3 9 -6 18 -6 20 0 2 -9 4 -20 4 -15 0 -20 7 -20 28 0 21 -2
24 -10 12 -9 -13 -11 -13 -20 0 -7 11 -9 6 -9 -20z m74 -40 c3 -5 -3 -10 -15
-10 -12 0 -18 5 -15 10 3 6 10 10 15 10 5 0 12 -4 15 -10z"/>
<path d="M7890 3643 c0 -4 5 -15 10 -23 8 -13 10 -13 10 2 0 9 -4 20 -10 23
-5 3 -10 3 -10 -2z"/>
<path d="M8280 3628 c0 -20 25 -24 36 -7 4 8 9 7 15 -2 7 -11 9 -10 9 4 0 19
-25 23 -36 6 -4 -8 -9 -7 -15 2 -7 11 -9 10 -9 -3z"/>
<path d="M8191 3593 c-1 -14 5 -23 14 -23 8 0 15 5 15 10 0 6 5 10 11 10 5 0
7 -6 3 -12 -6 -10 -4 -10 7 0 10 10 11 14 0 25 -10 10 -14 8 -23 -8 -11 -19
-11 -19 -19 0 -7 19 -8 18 -8 -2z"/>
<path d="M8280 3588 c0 -26 20 -32 35 -12 13 18 14 17 15 -8 0 -22 -5 -27 -27
-31 -26 -4 -26 -4 5 -6 30 -1 32 1 32 34 0 35 -22 50 -33 23 -4 -10 -8 -9 -16
2 -9 13 -11 13 -11 -2z"/>
<path d="M8109 3561 c11 -7 11 -9 0 -14 -8 -3 2 -6 21 -6 23 0 30 2 21 8 -11
7 -11 9 0 14 8 3 -2 6 -21 6 -23 0 -30 -2 -21 -8z"/>
<path d="M8191 3548 c-1 -12 7 -16 29 -16 30 1 39 11 20 23 -6 4 -17 2 -24 -5
-11 -8 -15 -8 -19 2 -4 9 -6 7 -6 -4z"/>
<path d="M8133 3516 c7 -18 -18 -23 -26 -6 -3 6 -4 5 -3 -2 4 -18 51 -17 51 1
0 8 -6 16 -14 19 -10 3 -12 0 -8 -12z"/>
<path d="M8215 3500 c-8 -13 5 -13 25 0 13 8 13 10 -2 10 -9 0 -20 -4 -23 -10z"/>
<path d="M8305 3500 c-8 -13 5 -13 25 0 13 8 13 10 -2 10 -9 0 -20 -4 -23 -10z"/>
<path d="M7780 4520 c-1 -3 -3 -15 -4 -27 -2 -17 2 -23 18 -23 13 0 16 3 10 8
-7 4 -14 16 -17 27 -2 11 -6 18 -7 15z"/>
<path d="M7783 3783 c9 -2 17 -7 17 -10 0 -3 -8 -12 -17 -19 -17 -13 -17 -13
2 -14 15 0 21 7 23 25 1 20 -3 25 -21 24 -17 -1 -18 -2 -4 -6z"/>
<path d="M8093 3423 c-24 -5 -30 -18 -14 -27 5 -4 12 0 14 6 4 10 8 9 16 -2 9
-12 11 -11 11 8 0 12 -1 21 -2 21 -2 -1 -13 -4 -25 -6z"/>
<path d="M1562 4780 c0 -14 2 -19 5 -12 2 6 2 18 0 25 -3 6 -5 1 -5 -13z"/>
<path d="M2030 4690 c13 -8 12 -11 -5 -24 -20 -15 -20 -15 0 -16 15 0 21 7 23
25 1 18 -3 25 -16 25 -14 0 -15 -2 -2 -10z"/>
<path d="M2020 4595 c0 -8 6 -15 13 -15 8 0 7 -4 -3 -10 -13 -8 -12 -10 3 -10
9 0 17 7 17 15 0 8 -6 15 -12 15 -9 0 -8 4 2 10 13 8 12 10 -2 10 -10 0 -18
-7 -18 -15z"/>
<path d="M1403 4556 c1 -16 8 -31 15 -34 8 -2 12 7 11 30 l-2 33 -5 -30 -5
-30 -8 30 -8 30 2 -29z"/>
<path d="M1450 4570 c-10 -6 -11 -10 -2 -10 6 0 12 -6 12 -14 0 -8 -6 -17 -12
-19 -7 -3 -4 -6 8 -6 17 -1 20 4 16 29 -2 17 -5 30 -6 30 0 0 -8 -5 -16 -10z"/>
<path d="M2018 4513 c6 -2 18 -2 25 0 6 3 1 5 -13 5 -14 0 -19 -2 -12 -5z"/>
<path d="M2035 4491 c3 -5 -3 -12 -12 -14 -14 -4 -13 -5 5 -6 13 -1 22 5 22
14 0 8 -5 15 -11 15 -5 0 -8 -4 -4 -9z"/>
<path d="M1220 4460 c0 -20 5 -30 15 -30 10 0 15 10 15 30 0 20 -5 30 -15 30
-10 0 -15 -10 -15 -30z"/>
<path d="M1261 4459 c0 -27 2 -30 8 -14 8 19 8 19 19 0 10 -18 11 -16 11 15 0
19 -3 29 -6 22 -4 -10 -8 -10 -19 -1 -12 9 -14 6 -13 -22z"/>
<path d="M1310 4460 c0 -29 1 -29 20 -13 11 10 20 23 20 30 0 7 -9 13 -20 13
-16 0 -20 -7 -20 -30z m30 10 c0 -5 -4 -10 -10 -10 -5 0 -10 5 -10 10 0 6 5
10 10 10 6 0 10 -4 10 -10z"/>
<path d="M1360 4479 c0 -5 5 -7 10 -4 16 10 12 -7 -7 -27 -15 -17 -15 -18 8
-18 17 0 20 3 10 9 -9 6 -10 11 -2 15 16 10 13 36 -4 36 -8 0 -15 -5 -15 -11z"/>
<path d="M1400 4461 c0 -31 21 -43 36 -20 5 8 9 8 14 -1 10 -17 30 -3 30 20 0
28 -19 35 -36 14 -9 -13 -13 -14 -12 -5 2 8 -5 17 -14 19 -14 3 -18 -3 -18
-27z m70 -3 c0 -16 -3 -19 -11 -11 -6 6 -8 16 -5 22 11 17 16 13 16 -11z"/>
<path d="M4200 4775 c0 -10 9 -15 28 -14 27 2 27 2 2 7 l-25 5 25 8 25 7 -27
1 c-19 1 -28 -4 -28 -14z"/>
<path d="M4980 3873 c8 -3 18 -11 22 -17 5 -7 8 -4 8 7 0 11 -7 17 -22 16 -16
0 -18 -2 -8 -6z"/>
<path d="M4983 3783 c9 -2 17 -7 17 -10 0 -3 -8 -12 -17 -19 -17 -13 -17 -13
2 -14 15 0 21 7 23 25 1 20 -3 25 -21 24 -17 -1 -18 -2 -4 -6z"/>
<path d="M5026 3773 c-4 -9 -1 -20 6 -24 19 -12 29 0 18 22 -13 23 -16 24 -24
2z"/>
<path d="M4983 3693 c9 -2 17 -7 17 -10 0 -3 -8 -12 -17 -19 -17 -13 -17 -13
2 -14 15 0 21 7 23 25 1 20 -3 25 -21 24 -17 -1 -18 -2 -4 -6z"/>
<path d="M5020 3685 c0 -8 6 -15 13 -15 8 0 7 -4 -3 -10 -13 -8 -12 -10 3 -10
9 0 17 7 17 15 0 8 -6 15 -12 15 -9 0 -8 4 2 10 13 8 12 10 -2 10 -10 0 -18
-7 -18 -15z"/>
<path d="M4983 3603 c9 -2 17 -7 17 -10 0 -3 -8 -12 -17 -19 -17 -13 -17 -13
2 -14 15 0 21 7 23 25 1 20 -3 25 -21 24 -17 -1 -18 -2 -4 -6z"/>
<path d="M5020 3585 c0 -16 6 -25 15 -25 8 0 15 7 15 15 0 8 -6 15 -12 15 -9
0 -8 4 2 10 13 8 12 10 -2 10 -13 0 -18 -8 -18 -25z"/>
<path d="M4983 2866 c9 -7 17 -16 17 -19 0 -3 -8 -8 -17 -10 -14 -4 -13 -5 4
-6 18 -1 22 4 21 24 -2 18 -8 25 -23 25 -19 -1 -19 -1 -2 -14z"/>
<path d="M5026 2863 c-4 -9 -1 -20 6 -24 19 -12 29 0 18 22 -13 23 -16 24 -24
2z"/>
<path d="M4978 2693 c6 -2 10 -9 6 -14 -3 -5 1 -9 8 -10 7 0 4 -4 -7 -9 -15
-7 -10 -9 23 -9 31 -1 42 3 42 14 0 8 -5 15 -11 15 -5 0 -7 -4 -4 -10 3 -5 0
-10 -8 -10 -8 0 -17 6 -20 14 -4 10 3 16 21 19 16 2 8 4 -18 5 -25 0 -39 -2
-32 -5z"/>
<path d="M4357 2246 c-4 -10 -1 -24 8 -32 17 -17 19 -4 6 30 -7 18 -8 18 -14
2z"/>
<path d="M4399 2258 c-6 -20 -2 -58 6 -58 7 0 10 12 7 30 -4 25 -9 38 -13 28z"/>
<path d="M4020 4775 c0 -8 8 -15 18 -15 14 0 15 2 2 10 -8 5 -10 10 -4 10 5 0
15 -5 22 -12 9 -9 12 -8 12 5 0 11 -8 17 -25 17 -16 0 -25 -6 -25 -15z"/>
<path d="M4021 4725 c0 -11 3 -14 6 -7 2 6 9 10 14 6 5 -3 9 1 10 8 0 7 4 4 9
-7 8 -19 9 -19 9 2 1 18 -4 22 -24 21 -18 -2 -25 -8 -24 -23z"/>
<path d="M3521 4313 l1 -28 7 25 8 25 5 -25 c5 -25 5 -25 7 3 1 18 -4 27 -14
27 -10 0 -15 -9 -14 -27z"/>
<path d="M1596 4685 c-9 -25 -9 -25 25 -25 24 0 30 4 27 18 -4 23 -44 28 -52
7z m44 -5 c0 -5 -9 -10 -21 -10 -11 0 -17 5 -14 10 3 6 13 10 21 10 8 0 14 -4
14 -10z"/>
<path d="M1686 4685 c-9 -25 -9 -25 25 -25 24 0 30 4 27 18 -4 23 -44 28 -52
7z m44 -5 c0 -5 -9 -10 -21 -10 -11 0 -17 5 -14 10 3 6 13 10 21 10 8 0 14 -4
14 -10z"/>
<path d="M1837 4663 c-11 -10 -8 -41 4 -49 6 -3 16 -1 22 6 9 9 9 11 -2 8 -22
-5 -25 29 -4 35 14 4 14 5 2 6 -9 0 -19 -2 -22 -6z"/>
<path d="M1880 4655 c0 -8 5 -15 10 -15 6 0 10 -5 10 -11 0 -5 -4 -7 -10 -4
-5 3 -10 1 -10 -4 0 -6 4 -11 9 -11 17 0 23 20 11 34 -8 11 -8 15 2 19 8 4 7
6 -4 6 -10 1 -18 -6 -18 -14z"/>
<path d="M1920 4640 c0 -19 5 -30 14 -30 20 0 26 12 19 38 -8 33 -33 27 -33
-8z"/>
<path d="M1599 4641 c11 -7 11 -9 0 -14 -8 -3 2 -6 21 -6 23 0 30 2 21 8 -11
7 -11 9 0 14 8 3 -2 6 -21 6 -23 0 -30 -2 -21 -8z"/>
<path d="M1689 4641 c11 -7 11 -9 0 -14 -8 -3 2 -6 21 -6 23 0 30 2 21 8 -11
7 -11 9 0 14 8 3 -2 6 -21 6 -23 0 -30 -2 -21 -8z"/>
<path d="M1620 4599 c0 -5 5 -7 10 -4 6 3 10 1 10 -4 0 -6 -7 -11 -15 -11 -8
0 -15 5 -15 10 0 6 -5 10 -11 10 -6 0 -9 -6 -6 -12 6 -20 51 -16 55 5 2 10 -3
17 -12 17 -9 0 -16 -5 -16 -11z"/>
<path d="M1710 4599 c0 -5 5 -7 10 -4 6 3 10 1 10 -4 0 -6 -7 -11 -15 -11 -8
0 -15 5 -15 10 0 6 -5 10 -11 10 -6 0 -9 -6 -6 -12 6 -20 51 -16 55 5 2 10 -3
17 -12 17 -9 0 -16 -5 -16 -11z"/>
<path d="M1832 4550 c1 -30 11 -39 23 -20 4 6 2 17 -5 24 -8 11 -8 15 2 19 9
4 7 6 -4 6 -12 1 -16 -7 -16 -29z"/>
<path d="M1870 4551 c0 -32 6 -37 28 -22 19 11 11 45 -11 49 -13 3 -17 -3 -17
-27z m22 -13 c-9 -9 -12 -7 -12 12 0 19 3 21 12 12 9 -9 9 -15 0 -24z"/>
<path d="M1922 4553 c3 -30 23 -41 31 -18 9 21 -2 45 -20 45 -10 0 -13 -9 -11
-27z m20 -15 c-9 -9 -12 -7 -12 12 0 19 3 21 12 12 9 -9 9 -15 0 -24z"/>
<path d="M1685 4491 c-10 -17 4 -31 31 -31 19 0 25 5 22 18 -4 19 -43 29 -53
13z m45 -11 c0 -5 -9 -10 -21 -10 -11 0 -17 5 -14 10 3 6 13 10 21 10 8 0 14
-4 14 -10z"/>
<path d="M1854 4479 c-4 -7 1 -16 12 -22 17 -10 17 -11 -1 -18 -19 -7 -18 -8
3 -8 23 -1 31 24 10 32 -10 4 -9 8 2 16 13 9 13 11 -2 11 -9 0 -20 -5 -24 -11z"/>
<path d="M1900 4460 c0 -20 5 -30 15 -30 8 0 15 5 15 11 0 5 -4 7 -10 4 -5 -3
-10 3 -10 15 0 12 5 18 10 15 6 -3 10 -1 10 4 0 6 -7 11 -15 11 -10 0 -15 -10
-15 -30z"/>
<path d="M1936 4474 c-3 -9 -2 -23 4 -32 7 -14 9 -10 10 16 0 35 -5 41 -14 16z"/>
<path d="M1693 4443 c9 -2 25 -2 35 0 9 3 1 5 -18 5 -19 0 -27 -2 -17 -5z"/>
<path d="M1596 4415 c-9 -25 -9 -25 25 -25 24 0 30 4 27 18 -4 23 -44 28 -52
7z m44 -5 c0 -5 -9 -10 -21 -10 -11 0 -17 5 -14 10 3 6 13 10 21 10 8 0 14 -4
14 -10z"/>
<path d="M1686 4415 c-9 -25 -9 -25 25 -25 24 0 30 4 27 18 -4 23 -44 28 -52
7z m44 -5 c0 -5 -9 -10 -21 -10 -11 0 -17 5 -14 10 3 6 13 10 21 10 8 0 14 -4
14 -10z"/>
<path d="M1835 4390 c-4 -6 -2 -17 5 -24 8 -11 8 -15 -2 -19 -9 -4 -8 -6 3 -6
8 -1 20 4 27 11 9 9 12 9 12 0 0 -7 7 -12 15 -12 8 0 15 5 15 10 0 6 -6 9 -12
8 -7 -2 -13 4 -13 12 0 8 6 14 13 12 8 -1 11 2 7 8 -5 8 -11 8 -20 0 -9 -8
-15 -8 -20 0 -8 13 -22 13 -30 0z m33 -18 c2 -7 -2 -10 -12 -6 -9 3 -16 11
-16 16 0 13 23 5 28 -10z"/>
<path d="M1921 4370 c0 -19 3 -29 6 -22 4 10 8 10 21 0 13 -11 14 -11 4 7 -28
49 -32 51 -31 15z"/>
<path d="M1597 4373 c-15 -14 -6 -23 23 -23 20 0 30 5 30 15 0 15 -40 21 -53
8z m36 -10 c-7 -2 -19 -2 -25 0 -7 3 -2 5 12 5 14 0 19 -2 13 -5z"/>
<path d="M1687 4373 c-15 -14 -6 -23 23 -23 20 0 30 5 30 15 0 15 -40 21 -53
8z m36 -10 c-7 -2 -19 -2 -25 0 -7 3 -2 5 12 5 14 0 19 -2 13 -5z"/>
<path d="M1615 4320 c-8 -13 5 -13 25 0 13 8 13 10 -2 10 -9 0 -20 -4 -23 -10z"/>
<path d="M1705 4320 c-8 -13 5 -13 25 0 13 8 13 10 -2 10 -9 0 -20 -4 -23 -10z"/>
<path d="M4121 4633 c0 -24 4 -43 9 -43 6 0 10 -11 10 -25 0 -14 5 -25 11 -25
6 0 8 9 3 23 l-6 22 26 -24 26 -24 0 26 c0 15 4 27 9 27 5 0 11 18 13 40 2 22
0 40 -4 40 -5 0 -9 -17 -9 -37 -1 -25 -3 -30 -6 -15 -4 22 -6 23 -29 7 -21
-14 -24 -14 -24 0 0 8 -4 15 -9 15 -5 0 -12 8 -14 18 -3 9 -5 -2 -6 -25z m16
-25 c-3 -8 -6 -5 -6 6 -1 11 2 17 5 13 3 -3 4 -12 1 -19z m53 -20 c0 -30 0
-31 -20 -13 -19 17 -19 19 -2 31 23 18 22 18 22 -18z"/>
<path d="M4053 4615 c2 -39 3 -41 32 -36 17 2 23 6 15 8 -42 12 -42 12 -26 28
18 18 30 20 20 3 -6 -10 -4 -10 7 0 10 10 11 14 0 25 -10 10 -15 8 -26 -6 -13
-18 -13 -18 -18 0 -3 10 -4 0 -4 -22z"/>
<path d="M4234 4639 c-3 -6 -1 -16 5 -22 9 -9 14 -8 21 3 9 13 11 13 20 0 8
-13 10 -13 10 1 0 26 -12 30 -33 12 -19 -17 -20 -17 -14 0 7 19 2 23 -9 6z"/>
<path d="M4411 4620 c0 -23 1 -23 9 -5 5 11 9 16 9 11 1 -5 7 -3 15 3 11 10
15 9 19 -4 4 -12 5 -11 3 2 -1 12 -10 18 -29 18 -23 1 -27 -3 -26 -25z"/>
<path d="M4255 4590 c29 -7 29 -8 -15 -24 -8 -3 -2 -4 15 -3 19 1 31 8 33 20
3 13 -3 17 -30 16 l-33 -1 30 -8z"/>
<path d="M4435 4590 c3 -5 14 -10 23 -10 15 0 15 2 2 10 -20 13 -33 13 -25 0z"/>
<path d="M4051 4548 c-1 -10 6 -18 14 -18 8 0 15 5 15 10 0 6 5 10 11 10 5 0
7 -4 4 -10 -3 -5 -1 -10 4 -10 6 0 11 4 11 9 0 17 -20 23 -34 11 -11 -8 -15
-8 -19 2 -4 8 -6 7 -6 -4z"/>
<path d="M4412 4540 c0 -14 2 -19 5 -12 2 6 2 18 0 25 -3 6 -5 1 -5 -13z"/>
<path d="M4430 4550 c0 -5 6 -7 14 -4 8 3 16 -2 19 -13 4 -14 5 -14 6 5 1 16
-5 22 -19 22 -11 0 -20 -4 -20 -10z"/>
<path d="M4237 4543 c-15 -14 -6 -23 23 -23 20 0 30 5 30 15 0 15 -40 21 -53
8z"/>
<path d="M4075 4500 c-8 -13 5 -13 25 0 13 8 13 10 -2 10 -9 0 -20 -4 -23 -10z"/>
<path d="M4255 4490 c-8 -13 5 -13 25 0 13 8 13 10 -2 10 -9 0 -20 -4 -23 -10z"/>
<path d="M4059 4452 c4 -26 6 -30 9 -14 2 12 7 22 12 22 5 0 6 -7 3 -17 -4
-11 -3 -14 5 -9 7 4 12 16 12 27 0 12 -5 17 -10 14 -6 -4 -16 -2 -23 4 -10 8
-12 2 -8 -27z"/>
<path d="M4246 4463 c-2 -2 -1 -15 2 -28 3 -20 7 -23 18 -14 19 15 18 46 -1
46 -8 0 -17 -2 -19 -4z"/>
<path d="M3621 4278 c0 -18 3 -27 6 -20 3 9 9 10 17 3 9 -7 12 -3 11 17 0 17
-6 28 -17 30 -14 3 -18 -3 -17 -30z m24 12 c3 -5 1 -10 -4 -10 -6 0 -11 5 -11
10 0 6 2 10 4 10 3 0 8 -4 11 -10z"/>
<path d="M3671 4283 c-1 -23 3 -33 14 -33 10 0 15 10 14 33 l-1 32 -8 -30 -7
-30 -5 30 -5 30 -2 -32z"/>
<path d="M3721 4280 c0 -19 3 -29 6 -21 5 11 7 11 14 0 6 -9 8 -2 8 21 0 19
-3 29 -6 21 -5 -11 -7 -11 -14 0 -6 9 -8 2 -8 -21z"/>
<path d="M3781 4291 c-19 -5 -21 -8 -10 -18 23 -19 41 -19 44 -1 4 22 -4 26
-34 19z"/>
<path d="M3634 4191 c16 -17 16 -20 2 -24 -13 -4 -12 -5 1 -3 10 1 17 9 17 19
-1 9 2 14 7 11 5 -3 9 0 9 5 0 6 -12 11 -27 11 -25 0 -25 -1 -9 -19z"/>
<path d="M3708 4198 c26 -13 29 -28 5 -29 -10 0 -4 -5 12 -10 34 -10 95 -2 75
11 -10 6 -9 9 1 13 11 4 11 6 -1 6 -13 1 -13 2 0 11 13 8 12 10 -2 10 -13 0
-18 -8 -18 -25 0 -18 -5 -25 -20 -25 -18 0 -25 16 -21 43 0 4 -11 7 -26 6 -28
0 -28 -1 -5 -11z"/>
<path d="M3821 4184 c0 -16 3 -23 6 -16 4 10 8 10 19 1 11 -9 14 -6 13 17 0
16 -3 23 -6 16 -4 -10 -8 -10 -19 -1 -11 9 -14 6 -13 -17z"/>
<path d="M3893 4201 c-13 -4 -19 -10 -15 -17 11 -16 41 -24 47 -14 4 6 -4 10
-17 11 -23 1 -23 1 2 8 14 4 20 9 15 12 -6 3 -20 3 -32 0z"/>
<path d="M3675 4179 c-4 -6 -5 -12 -2 -15 2 -3 7 2 10 11 7 17 1 20 -8 4z"/>
<path d="M3620 4005 c0 -18 5 -25 20 -25 11 0 20 7 20 15 0 8 -5 15 -11 15 -5
0 -7 -4 -4 -10 3 -5 1 -10 -4 -10 -18 0 -12 28 7 33 13 4 11 5 -5 6 -18 1 -23
-4 -23 -24z"/>
<path d="M3670 4004 c0 -23 2 -24 15 -10 8 8 15 19 15 25 0 6 -7 11 -15 11 -9
0 -15 -10 -15 -26z"/>
<path d="M3712 4005 c0 -16 2 -22 5 -12 2 9 2 23 0 30 -3 6 -5 -1 -5 -18z"/>
<path d="M3730 4005 c0 -18 5 -25 20 -25 15 0 20 7 20 25 0 18 -5 25 -20 25
-15 0 -20 -7 -20 -25z m30 0 c0 -8 -4 -15 -10 -15 -5 0 -10 7 -10 15 0 8 5 15
10 15 6 0 10 -7 10 -15z"/>
<path d="M3780 4005 c0 -20 4 -26 18 -23 9 2 17 12 17 23 0 11 -8 21 -17 23
-14 3 -18 -3 -18 -23z m25 6 c3 -5 1 -12 -5 -16 -5 -3 -10 1 -10 9 0 18 6 21
15 7z"/>
<path d="M3836 4005 c4 -8 10 -15 15 -15 5 0 12 0 16 0 4 0 8 6 9 15 1 10 -6
15 -22 15 -17 0 -22 -4 -18 -15z"/>
<path d="M3620 3915 c0 -18 5 -25 20 -25 11 0 20 7 20 15 0 8 -5 15 -11 15 -5
0 -7 -4 -4 -10 3 -5 1 -10 -4 -10 -18 0 -12 28 7 33 13 4 11 5 -5 6 -18 1 -23
-4 -23 -24z"/>
<path d="M3670 3914 c0 -23 2 -24 15 -10 8 8 15 19 15 25 0 6 -7 11 -15 11 -9
0 -15 -10 -15 -26z"/>
<path d="M3712 3915 c0 -16 2 -22 5 -12 2 9 2 23 0 30 -3 6 -5 -1 -5 -18z"/>
<path d="M3730 3915 c0 -18 5 -25 20 -25 15 0 20 7 20 25 0 18 -5 25 -20 25
-15 0 -20 -7 -20 -25z m30 0 c0 -8 -4 -15 -10 -15 -5 0 -10 7 -10 15 0 8 5 15
10 15 6 0 10 -7 10 -15z"/>
<path d="M3790 3940 c-1 -3 -3 -15 -4 -27 -2 -17 2 -23 18 -23 13 0 16 3 10 8
-7 4 -14 16 -17 27 -2 11 -6 18 -7 15z"/>
<path d="M4670 3915 c0 -16 6 -25 15 -25 8 0 15 7 15 15 0 8 -6 15 -12 15 -9
0 -8 4 2 10 13 8 12 10 -2 10 -13 0 -18 -8 -18 -25z"/>
<path d="M4711 3913 c0 -16 3 -22 6 -15 2 6 11 12 19 12 8 0 14 7 14 15 0 8
-9 15 -20 15 -15 0 -20 -6 -19 -27z"/>
<path d="M4762 3915 c0 -16 2 -22 5 -12 2 9 2 23 0 30 -3 6 -5 -1 -5 -18z"/>
<path d="M4780 3915 c0 -18 5 -25 20 -25 15 0 20 7 20 25 0 18 -5 25 -20 25
-15 0 -20 -7 -20 -25z m30 0 c0 -8 -4 -15 -10 -15 -5 0 -10 7 -10 15 0 8 5 15
10 15 6 0 10 -7 10 -15z"/>
<path d="M4834 3915 c0 -14 6 -25 12 -25 7 0 9 10 6 25 -6 32 -20 32 -18 0z"/>
<path d="M4877 3933 c-15 -15 -7 -43 13 -43 11 0 20 7 20 15 0 8 -8 15 -17 15
-15 0 -16 2 -3 10 8 5 10 10 4 10 -6 0 -14 -3 -17 -7z"/>
<path d="M3836 3915 c4 -8 10 -15 15 -15 5 0 12 0 16 0 4 0 8 6 9 15 1 10 -6
15 -22 15 -17 0 -22 -4 -18 -15z"/>
<path d="M4606 3915 c4 -8 12 -15 20 -15 8 0 17 0 21 0 4 0 8 6 9 15 2 10 -6
15 -27 15 -21 0 -27 -4 -23 -15z"/>
<path d="M3627 3843 c-15 -15 -7 -43 13 -43 11 0 20 5 20 11 0 6 -7 9 -15 5
-9 -3 -15 0 -15 9 0 7 8 16 18 18 14 4 14 5 1 6 -9 0 -19 -2 -22 -6z"/>
<path d="M3670 3824 c0 -23 2 -24 15 -10 8 8 15 19 15 25 0 6 -7 11 -15 11 -9
0 -15 -10 -15 -26z"/>
<path d="M3712 3825 c0 -16 2 -22 5 -12 2 9 2 23 0 30 -3 6 -5 -1 -5 -18z"/>
<path d="M3737 3843 c-15 -15 -7 -43 13 -43 15 0 20 7 20 25 0 24 -18 34 -33
18z m23 -18 c0 -8 -4 -15 -10 -15 -5 0 -10 7 -10 15 0 8 5 15 10 15 6 0 10 -7
10 -15z"/>
<path d="M3793 3843 c18 -5 18 -6 1 -24 -16 -18 -16 -19 7 -19 17 0 20 3 10 9
-9 6 -10 11 -2 15 15 10 4 26 -17 25 -15 -1 -14 -2 1 -6z"/>
<path d="M4670 3825 c0 -16 6 -25 15 -25 18 0 20 16 3 23 -10 4 -9 8 2 16 13
9 13 11 -2 11 -13 0 -18 -8 -18 -25z"/>
<path d="M4711 3823 c0 -16 3 -22 6 -15 2 6 11 12 19 12 8 0 14 7 14 15 0 8
-9 15 -20 15 -15 0 -20 -6 -19 -27z"/>
<path d="M4762 3825 c0 -16 2 -22 5 -12 2 9 2 23 0 30 -3 6 -5 -1 -5 -18z"/>
<path d="M4780 3826 c0 -20 5 -26 21 -26 15 0 20 5 17 22 -5 34 -38 37 -38 4z
m30 -1 c0 -8 -4 -15 -10 -15 -5 0 -10 7 -10 15 0 8 5 15 10 15 6 0 10 -7 10
-15z"/>
<path d="M4839 3848 c-6 -20 -3 -48 6 -48 8 0 10 10 7 25 -4 21 -10 32 -13 23z"/>
<path d="M4878 3843 c6 -2 18 -2 25 0 6 3 1 5 -13 5 -14 0 -19 -2 -12 -5z"/>
<path d="M3837 3820 c3 -11 13 -20 22 -20 10 0 17 8 17 20 0 14 -7 20 -22 20
-17 0 -21 -4 -17 -20z"/>
<path d="M4610 3820 c6 -11 19 -20 28 -20 11 0 18 8 18 20 0 15 -7 20 -28 20
-26 0 -28 -2 -18 -20z m30 0 c0 -5 -2 -10 -4 -10 -3 0 -8 5 -11 10 -3 6 -1 10
4 10 6 0 11 -4 11 -10z"/>
<path d="M3627 3753 c-12 -11 -7 -41 7 -46 15 -6 26 1 26 16 0 5 -7 7 -15 3
-9 -3 -15 0 -15 9 0 7 8 16 18 18 14 4 14 5 1 6 -9 0 -19 -2 -22 -6z"/>
<path d="M3671 3728 c1 -18 3 -25 6 -15 2 9 9 17 14 17 5 0 9 7 9 15 0 8 -7
15 -15 15 -10 0 -15 -10 -14 -32z"/>
<path d="M3712 3730 c0 -19 2 -27 5 -17 2 9 2 25 0 35 -3 9 -5 1 -5 -18z"/>
<path d="M3734 3745 c-8 -21 3 -48 19 -43 19 7 22 58 2 58 -8 0 -18 -7 -21
-15z m26 -16 c0 -11 -4 -17 -10 -14 -5 3 -10 13 -10 21 0 8 5 14 10 14 6 0 10
-9 10 -21z"/>
<path d="M3788 3753 c6 -2 10 -9 6 -14 -3 -5 0 -9 6 -9 6 0 8 -5 5 -10 -4 -6
-11 -8 -16 -5 -5 4 -9 1 -9 -5 0 -6 8 -10 18 -8 11 2 17 13 17 31 1 21 -4 27
-20 26 -11 0 -14 -3 -7 -6z"/>
<path d="M4670 3736 c0 -28 15 -42 26 -25 3 6 0 15 -7 20 -12 8 -12 11 1 19
13 8 12 10 -2 10 -12 0 -18 -8 -18 -24z"/>
<path d="M4711 3728 c1 -18 3 -25 6 -15 2 9 11 17 19 17 8 0 14 7 14 15 0 8
-9 15 -20 15 -16 0 -20 -6 -19 -32z"/>
<path d="M4762 3730 c0 -19 2 -27 5 -17 2 9 2 25 0 35 -3 9 -5 1 -5 -18z"/>
<path d="M4782 3733 c4 -36 33 -39 33 -3 0 16 -6 26 -18 28 -15 3 -18 -2 -15
-25z m28 3 c0 -8 -4 -18 -10 -21 -5 -3 -10 3 -10 14 0 12 5 21 10 21 6 0 10
-6 10 -14z"/>
<path d="M4839 3758 c-6 -20 -2 -58 6 -58 7 0 10 12 7 30 -4 25 -9 38 -13 28z"/>
<path d="M4872 3733 c4 -36 33 -39 33 -3 0 16 -7 26 -18 28 -15 3 -18 -2 -15
-25z m28 -7 c0 -3 -4 -8 -10 -11 -5 -3 -10 -1 -10 4 0 6 5 11 10 11 6 0 10 -2
10 -4z"/>
<path d="M3843 3743 c9 -2 17 -9 17 -14 0 -6 -4 -7 -10 -4 -5 3 -10 1 -10 -4
0 -6 8 -11 18 -11 11 0 18 7 18 20 0 15 -7 20 -26 19 -17 -1 -19 -3 -7 -6z"/>
<path d="M4618 3743 c12 -2 22 -8 22 -13 0 -5 -7 -6 -17 -3 -11 4 -14 3 -9 -5
12 -20 42 -14 42 8 0 16 -6 20 -31 19 -23 -1 -25 -3 -7 -6z"/>
<path d="M3627 3663 c-12 -11 -7 -41 7 -46 15 -6 26 1 26 16 0 5 -7 7 -15 3
-9 -3 -15 0 -15 9 0 7 8 16 18 18 14 4 14 5 1 6 -9 0 -19 -2 -22 -6z"/>
<path d="M3670 3639 c0 -27 2 -29 15 -15 8 8 15 22 15 30 0 9 -7 16 -15 16
-10 0 -15 -10 -15 -31z"/>
<path d="M3712 3640 c0 -19 2 -27 5 -17 2 9 2 25 0 35 -3 9 -5 1 -5 -18z"/>
<path d="M3734 3655 c-8 -21 3 -48 19 -43 19 7 22 58 2 58 -8 0 -18 -7 -21
-15z m26 -16 c0 -11 -4 -17 -10 -14 -5 3 -10 13 -10 21 0 8 5 14 10 14 6 0 10
-9 10 -21z"/>
<path d="M3786 3655 c-3 -9 0 -23 8 -30 19 -20 29 4 11 28 -11 16 -13 16 -19
2z"/>
<path d="M4670 3646 c0 -28 15 -42 26 -25 3 6 0 15 -7 20 -12 8 -12 11 1 19
13 8 12 10 -2 10 -12 0 -18 -8 -18 -24z"/>
<path d="M4710 3640 l0 -31 21 20 c22 20 19 41 -7 41 -9 0 -14 -11 -14 -30z
m30 16 c0 -3 -4 -8 -10 -11 -5 -3 -10 -1 -10 4 0 6 5 11 10 11 6 0 10 -2 10
-4z"/>
<path d="M4762 3640 c0 -19 2 -27 5 -17 2 9 2 25 0 35 -3 9 -5 1 -5 -18z"/>
<path d="M4782 3643 c4 -36 33 -39 33 -3 0 16 -6 26 -18 28 -15 3 -18 -2 -15
-25z m28 3 c0 -8 -4 -18 -10 -21 -5 -3 -10 3 -10 14 0 12 5 21 10 21 6 0 10
-6 10 -14z"/>
<path d="M4839 3668 c-6 -20 -2 -58 6 -58 7 0 10 12 7 30 -4 25 -9 38 -13 28z"/>
<path d="M4870 3650 c0 -11 6 -20 13 -20 8 0 7 -4 -3 -10 -8 -5 -10 -10 -4
-10 18 0 37 28 30 45 -8 22 -36 18 -36 -5z m25 0 c3 -5 1 -10 -4 -10 -6 0 -11
5 -11 10 0 6 2 10 4 10 3 0 8 -4 11 -10z"/>
<path d="M3843 3653 c9 -2 17 -9 17 -14 0 -6 -4 -7 -10 -4 -5 3 -10 1 -10 -4
0 -6 8 -11 18 -11 11 0 18 7 18 20 0 15 -7 20 -26 19 -17 -1 -19 -3 -7 -6z"/>
<path d="M4618 3653 c12 -2 22 -8 22 -13 0 -5 -7 -6 -17 -3 -11 4 -14 3 -9 -5
12 -20 42 -14 42 8 0 16 -6 20 -31 19 -23 -1 -25 -3 -7 -6z"/>
<path d="M3624 3565 c-9 -21 3 -45 21 -45 8 0 15 7 15 15 0 8 -5 15 -11 15 -5
0 -7 -4 -4 -10 3 -5 1 -10 -4 -10 -18 0 -12 38 7 43 16 4 16 5 -1 6 -10 0 -20
-6 -23 -14z"/>
<path d="M3670 3549 c0 -27 2 -29 15 -15 8 8 15 22 15 30 0 9 -7 16 -15 16
-10 0 -15 -10 -15 -31z"/>
<path d="M3712 3550 c0 -19 2 -27 5 -17 2 9 2 25 0 35 -3 9 -5 1 -5 -18z"/>
<path d="M3734 3565 c-9 -21 3 -45 21 -45 10 0 15 10 15 30 0 32 -26 43 -36
15z m26 -15 c0 -11 -4 -20 -10 -20 -5 0 -10 9 -10 20 0 11 5 20 10 20 6 0 10
-9 10 -20z"/>
<path d="M3780 3565 c0 -8 7 -15 16 -15 8 0 12 -5 9 -10 -4 -6 -11 -8 -16 -5
-5 4 -9 1 -9 -4 0 -15 27 -14 36 1 4 6 -1 17 -10 24 -13 9 -14 13 -4 17 8 4 7
6 -4 6 -10 1 -18 -6 -18 -14z"/>
<path d="M4670 3550 c0 -20 5 -30 15 -30 18 0 20 26 3 33 -10 4 -9 8 2 16 13
9 13 11 -2 11 -13 0 -18 -8 -18 -30z"/>
<path d="M4710 3550 l0 -31 21 20 c22 20 19 41 -7 41 -9 0 -14 -11 -14 -30z
m30 16 c0 -3 -4 -8 -10 -11 -5 -3 -10 -1 -10 4 0 6 5 11 10 11 6 0 10 -2 10
-4z"/>
<path d="M4762 3550 c0 -19 2 -27 5 -17 2 9 2 25 0 35 -3 9 -5 1 -5 -18z"/>
<path d="M4780 3552 c0 -28 2 -30 42 -30 26 -1 37 2 29 7 -9 6 -10 11 -2 15
16 10 13 36 -4 36 -8 0 -15 -5 -15 -11 0 -5 5 -7 10 -4 15 10 12 -11 -4 -24
-12 -10 -15 -8 -18 11 -2 12 -11 24 -20 26 -14 3 -18 -3 -18 -26z m30 -2 c0
-11 -4 -20 -10 -20 -5 0 -10 9 -10 20 0 11 5 20 10 20 6 0 10 -9 10 -20z"/>
<path d="M4874 3565 c-7 -18 2 -45 15 -45 13 0 22 27 15 45 -4 8 -10 15 -15
15 -5 0 -12 -7 -15 -15z m18 -27 c-9 -9 -12 -7 -12 12 0 19 3 21 12 12 9 -9 9
-15 0 -24z"/>
<path d="M3848 3563 c-22 -5 -12 -33 12 -33 10 0 17 6 16 15 -3 19 -8 22 -28
18z"/>
<path d="M4622 3562 c-19 -3 -21 -6 -11 -18 15 -19 48 -18 45 1 -3 19 -7 21
-34 17z"/>
<path d="M3632 3481 c-8 -5 -12 -17 -10 -27 4 -23 38 -32 38 -10 0 9 -5 16
-11 16 -5 0 -7 -4 -4 -10 3 -5 1 -10 -5 -10 -6 0 -10 8 -8 18 2 9 10 16 17 14
7 -1 10 2 6 8 -7 12 -7 12 -23 1z"/>
<path d="M3670 3459 c0 -27 2 -29 15 -15 8 8 15 22 15 30 0 9 -7 16 -15 16
-10 0 -15 -10 -15 -31z"/>
<path d="M3712 3460 c0 -19 2 -27 5 -17 2 9 2 25 0 35 -3 9 -5 1 -5 -18z"/>
<path d="M3734 3476 c-9 -22 2 -46 21 -46 12 0 15 8 13 27 -3 30 -25 42 -34
19z m22 -33 c-11 -11 -19 6 -11 24 8 17 8 17 12 0 3 -10 2 -21 -1 -24z"/>
<path d="M3787 3483 c-13 -12 -7 -53 7 -53 21 0 30 18 17 34 -6 7 -8 16 -4 19
3 4 2 7 -4 7 -5 0 -13 -3 -16 -7z"/>
<path d="M4677 3483 c-13 -13 -7 -53 8 -53 8 0 15 7 15 15 0 8 -4 15 -10 15
-5 0 -10 5 -10 11 0 5 5 7 10 4 6 -3 10 -1 10 4 0 12 -13 14 -23 4z"/>
<path d="M4710 3460 l0 -31 21 20 c22 20 19 41 -7 41 -9 0 -14 -11 -14 -30z
m25 10 c3 -5 1 -10 -4 -10 -6 0 -11 5 -11 10 0 6 2 10 4 10 3 0 8 -4 11 -10z"/>
<path d="M4762 3460 c0 -19 2 -27 5 -17 2 9 2 25 0 35 -3 9 -5 1 -5 -18z"/>
<path d="M4787 3484 c-4 -4 -7 -17 -7 -29 0 -20 5 -23 43 -23 23 0 36 2 29 5
-10 4 -10 8 -2 19 12 14 6 34 -11 34 -5 0 -9 -5 -9 -11 0 -5 5 -7 10 -4 15 10
12 -11 -4 -24 -12 -10 -15 -8 -18 10 -3 23 -19 35 -31 23z m23 -30 c0 -8 -4
-14 -10 -14 -5 0 -10 9 -10 21 0 11 5 17 10 14 6 -3 10 -13 10 -21z"/>
<path d="M4880 3490 c-1 -3 -3 -17 -4 -32 -2 -22 2 -28 19 -28 12 0 16 3 9 8
-7 4 -14 18 -17 32 -2 14 -5 23 -7 20z"/>
<path d="M3848 3471 c-10 -3 -14 -11 -10 -18 12 -19 34 -19 37 -1 4 22 -5 28
-27 19z"/>
<path d="M4623 3471 c-25 -7 -19 -27 11 -33 12 -2 20 3 21 14 4 22 -4 27 -32
19z"/>
<path d="M3632 3391 c-8 -5 -12 -17 -10 -27 4 -23 38 -32 38 -10 0 9 -5 16
-11 16 -5 0 -7 -4 -4 -10 3 -5 1 -10 -5 -10 -6 0 -10 8 -8 18 2 9 10 16 17 14
7 -1 10 2 6 8 -7 12 -7 12 -23 1z"/>
<path d="M3670 3369 c0 -27 2 -29 15 -15 8 8 15 22 15 30 0 9 -7 16 -15 16
-10 0 -15 -10 -15 -31z"/>
<path d="M3712 3370 c0 -19 2 -27 5 -17 2 9 2 25 0 35 -3 9 -5 1 -5 -18z"/>
<path d="M3734 3386 c-9 -22 2 -46 21 -46 12 0 15 8 13 27 -3 30 -25 42 -34
19z m22 -33 c-11 -11 -19 6 -11 24 8 17 8 17 12 0 3 -10 2 -21 -1 -24z"/>
<path d="M3788 3393 c6 -2 18 -2 25 0 6 3 1 5 -13 5 -14 0 -19 -2 -12 -5z"/>
<path d="M4677 3393 c-13 -13 -7 -53 8 -53 8 0 15 7 15 15 0 8 -4 15 -10 15
-5 0 -10 5 -10 11 0 5 5 7 10 4 6 -3 10 -1 10 4 0 12 -13 14 -23 4z"/>
<path d="M4710 3370 l0 -31 21 20 c22 20 19 41 -7 41 -9 0 -14 -11 -14 -30z
m25 10 c3 -5 1 -10 -4 -10 -6 0 -11 5 -11 10 0 6 2 10 4 10 3 0 8 -4 11 -10z"/>
<path d="M4762 3370 c0 -19 2 -27 5 -17 2 9 2 25 0 35 -3 9 -5 1 -5 -18z"/>
<path d="M4787 3394 c-4 -4 -7 -17 -7 -29 0 -20 5 -23 43 -23 23 0 36 2 29 5
-10 4 -10 8 -2 19 12 14 6 34 -11 34 -5 0 -9 -5 -9 -11 0 -5 5 -7 10 -4 15 10
12 -11 -4 -24 -12 -10 -15 -8 -18 10 -3 23 -19 35 -31 23z m23 -30 c0 -8 -4
-14 -10 -14 -5 0 -10 9 -10 21 0 11 5 17 10 14 6 -3 10 -13 10 -21z"/>
<path d="M4874 3388 c-4 -7 -3 -8 4 -4 15 9 15 1 2 -25 -9 -16 -7 -19 12 -19
19 0 20 2 8 10 -13 8 -13 11 -1 19 7 5 10 14 7 20 -9 14 -23 14 -32 -1z"/>
<path d="M3848 3381 c-10 -3 -14 -11 -10 -18 12 -19 34 -19 37 -1 4 22 -5 28
-27 19z"/>
<path d="M4623 3381 c-25 -7 -19 -27 11 -33 12 -2 20 3 21 14 4 22 -4 27 -32
19z"/>
<path d="M3622 3278 c3 -26 38 -38 38 -14 0 9 -5 16 -11 16 -5 0 -7 -4 -4 -10
3 -5 1 -10 -4 -10 -18 0 -12 28 7 33 12 3 11 5 -6 6 -19 1 -23 -3 -20 -21z"/>
<path d="M3670 3274 c0 -23 2 -24 15 -10 8 8 15 19 15 25 0 6 -7 11 -15 11 -9
0 -15 -10 -15 -26z"/>
<path d="M3712 3275 c0 -16 2 -22 5 -12 2 9 2 23 0 30 -3 6 -5 -1 -5 -18z"/>
<path d="M3732 3278 c5 -34 38 -37 38 -4 0 20 -5 26 -21 26 -15 0 -20 -5 -17
-22z m28 -3 c0 -8 -4 -15 -10 -15 -5 0 -10 7 -10 15 0 8 5 15 10 15 6 0 10 -7
10 -15z"/>
<path d="M3780 3274 c0 -33 33 -30 38 4 3 17 -2 22 -17 22 -16 0 -21 -6 -21
-26z m25 -4 c3 -5 1 -10 -4 -10 -6 0 -11 5 -11 10 0 6 2 10 4 10 3 0 8 -4 11
-10z"/>
<path d="M3846 3291 c-17 -7 -17 -8 -1 -24 9 -10 22 -14 28 -10 8 5 5 9 -8 12
-20 4 -20 4 -1 11 11 3 15 9 10 12 -5 3 -17 2 -28 -1z"/>
<path d="M3620 3185 c0 -18 5 -25 20 -25 11 0 20 7 20 15 0 8 -5 15 -11 15 -5
0 -7 -4 -4 -10 3 -5 1 -10 -4 -10 -18 0 -12 28 7 33 13 4 11 5 -5 6 -18 1 -23
-4 -23 -24z"/>
<path d="M3670 3184 c0 -23 2 -24 15 -10 8 8 15 19 15 25 0 6 -7 11 -15 11 -9
0 -15 -10 -15 -26z"/>
<path d="M3712 3185 c0 -16 2 -22 5 -12 2 9 2 23 0 30 -3 6 -5 -1 -5 -18z"/>
<path d="M3730 3185 c0 -18 5 -25 20 -25 15 0 20 7 20 25 0 18 -5 25 -20 25
-15 0 -20 -7 -20 -25z m30 0 c0 -8 -4 -15 -10 -15 -5 0 -10 7 -10 15 0 8 5 15
10 15 6 0 10 -7 10 -15z"/>
<path d="M3780 3195 c0 -8 6 -15 13 -15 8 0 7 -4 -3 -10 -13 -8 -13 -10 1 -10
18 0 33 26 23 41 -9 15 -34 10 -34 -6z"/>
<path d="M3848 3201 c-10 -3 -14 -11 -10 -18 12 -19 34 -19 37 -1 4 22 -5 28
-27 19z"/>
<path d="M4594 3198 c3 -10 1 -18 -4 -18 -6 0 -10 -3 -10 -7 0 -5 18 -9 40
-11 37 -2 40 0 40 23 0 18 -5 25 -20 25 -14 0 -20 -7 -20 -22 -1 -23 -1 -23
-16 2 -8 14 -13 17 -10 8z m56 -13 c0 -8 -4 -15 -10 -15 -5 0 -10 7 -10 15 0
8 5 15 10 15 6 0 10 -7 10 -15z"/>
<path d="M4670 3185 c0 -20 6 -25 35 -31 20 -3 38 -4 41 -1 3 2 -11 8 -31 11
-37 7 -48 31 -17 39 13 4 11 5 -5 6 -18 1 -23 -4 -23 -24z"/>
<path d="M4790 3184 c0 -23 2 -24 15 -10 8 8 15 19 15 25 0 6 -7 11 -15 11 -9
0 -15 -10 -15 -26z"/>
<path d="M4830 3185 c0 -20 5 -25 23 -24 19 1 19 2 3 6 -15 4 -16 7 -5 14 12
7 12 9 -1 10 -10 0 -8 3 5 9 19 8 19 9 -2 9 -18 1 -23 -5 -23 -24z"/>
<path d="M4881 3183 c0 -16 3 -22 6 -16 2 7 4 15 3 19 -1 4 4 11 12 15 10 7 9
9 -4 9 -13 0 -18 -8 -17 -27z"/>
<path d="M4756 3177 c3 -10 9 -15 12 -12 3 3 0 11 -7 18 -10 9 -11 8 -5 -6z"/>
<path d="M3620 3095 c0 -18 5 -25 20 -25 11 0 20 7 20 15 0 8 -5 15 -11 15 -5
0 -7 -4 -4 -10 3 -5 1 -10 -4 -10 -18 0 -12 28 7 33 13 4 11 5 -5 6 -18 1 -23
-4 -23 -24z"/>
<path d="M3670 3094 c0 -23 2 -24 15 -10 8 8 15 19 15 25 0 6 -7 11 -15 11 -9
0 -15 -10 -15 -26z"/>
<path d="M3712 3095 c0 -16 2 -22 5 -12 2 9 2 23 0 30 -3 6 -5 -1 -5 -18z"/>
<path d="M3730 3095 c0 -18 5 -25 20 -25 15 0 20 7 20 25 0 18 -5 25 -20 25
-15 0 -20 -7 -20 -25z m30 0 c0 -8 -4 -15 -10 -15 -5 0 -10 7 -10 15 0 8 5 15
10 15 6 0 10 -7 10 -15z"/>
<path d="M3791 3120 c-2 -3 -4 -15 -5 -27 -2 -19 2 -22 36 -21 33 0 38 3 38
24 0 30 -30 33 -37 4 -7 -27 -21 -25 -26 3 -2 12 -5 20 -6 17z m59 -26 c0 -8
-5 -12 -10 -9 -6 4 -8 11 -5 16 9 14 15 11 15 -7z"/>
<path d="M3876 3096 c3 -8 14 -16 25 -19 14 -4 19 0 19 14 0 14 -7 19 -25 19
-17 0 -23 -4 -19 -14z"/>
<path d="M3620 3005 c0 -18 5 -25 20 -25 11 0 20 7 20 15 0 8 -5 15 -11 15 -5
0 -7 -4 -4 -10 3 -5 1 -10 -4 -10 -18 0 -12 28 7 33 13 4 11 5 -5 6 -18 1 -23
-4 -23 -24z"/>
<path d="M3670 3004 c0 -23 2 -24 15 -10 8 8 15 19 15 25 0 6 -7 11 -15 11 -9
0 -15 -10 -15 -26z"/>
<path d="M3712 3005 c0 -16 2 -22 5 -12 2 9 2 23 0 30 -3 6 -5 -1 -5 -18z"/>
<path d="M3730 3005 c0 -18 5 -25 20 -25 15 0 20 7 20 25 0 18 -5 25 -20 25
-15 0 -20 -7 -20 -25z m30 0 c0 -8 -4 -15 -10 -15 -5 0 -10 7 -10 15 0 8 5 15
10 15 6 0 10 -7 10 -15z"/>
<path d="M3791 3030 c-2 -3 -4 -15 -5 -27 -2 -20 2 -23 34 -23 34 0 37 2 32
25 -5 26 -16 32 -27 15 -3 -5 -1 -10 4 -10 6 0 11 -4 11 -10 0 -21 -39 -10
-43 13 -2 12 -5 20 -6 17z"/>
<path d="M4460 3005 c0 -18 5 -25 20 -25 11 0 20 7 20 15 0 8 -5 15 -11 15 -5
0 -7 -4 -4 -10 3 -5 1 -10 -4 -10 -15 0 -14 27 2 33 7 3 5 6 -5 6 -13 1 -18
-7 -18 -24z"/>
<path d="M4510 3004 c0 -23 2 -24 15 -10 8 8 15 19 15 25 0 6 -7 11 -15 11 -9
0 -15 -10 -15 -26z"/>
<path d="M4552 3005 c0 -16 2 -22 5 -12 2 9 2 23 0 30 -3 6 -5 -1 -5 -18z"/>
<path d="M4570 3005 c0 -18 5 -25 20 -25 15 0 20 7 20 25 0 18 -5 25 -20 25
-15 0 -20 -7 -20 -25z m30 0 c0 -8 -4 -15 -10 -15 -5 0 -10 7 -10 15 0 8 5 15
10 15 6 0 10 -7 10 -15z"/>
<path d="M4629 3021 c12 -8 12 -12 2 -25 -11 -13 -11 -16 1 -16 7 0 15 11 16
25 1 18 -3 25 -16 25 -14 0 -14 -2 -3 -9z"/>
<path d="M4667 3023 c-4 -3 -7 -14 -7 -24 0 -20 69 -37 80 -19 4 7 18 8 35 4
18 -4 30 -2 37 7 7 11 11 11 15 2 2 -7 12 -13 21 -13 13 0 13 2 -3 14 -18 13
-18 13 1 24 16 10 16 11 2 12 -9 0 -19 -6 -22 -12 -5 -10 -7 -10 -12 0 -10 21
-34 13 -34 -10 l-1 -23 -12 23 -13 23 -12 -25 c-13 -28 -42 -35 -42 -11 0 8
-8 15 -17 15 -15 0 -16 2 -3 10 8 5 10 10 4 10 -6 0 -14 -3 -17 -7z m138 -12
c3 -5 1 -12 -5 -16 -5 -3 -10 1 -10 9 0 18 6 21 15 7z"/>
<path d="M4870 3005 c0 -15 6 -25 14 -25 19 0 28 14 20 34 -10 25 -34 19 -34
-9z m30 -6 c0 -5 -4 -9 -10 -9 -5 0 -10 7 -10 16 0 8 5 12 10 9 6 -3 10 -10
10 -16z"/>
<path d="M3876 3006 c3 -8 14 -16 25 -19 14 -4 19 0 19 14 0 14 -7 19 -25 19
-17 0 -23 -4 -19 -14z"/>
<path d="M4396 3005 c4 -8 12 -15 20 -15 8 0 17 0 21 0 4 0 8 6 9 15 2 10 -6
15 -27 15 -21 0 -27 -4 -23 -15z"/>
<path d="M3627 2933 c-15 -15 -7 -43 13 -43 11 0 20 5 20 11 0 6 -7 9 -15 5
-9 -3 -15 0 -15 9 0 7 8 16 18 18 14 4 14 5 1 6 -9 0 -19 -2 -22 -6z"/>
<path d="M3670 2914 c0 -23 2 -24 15 -10 8 8 15 19 15 25 0 6 -7 11 -15 11 -9
0 -15 -10 -15 -26z"/>
<path d="M3712 2915 c0 -16 2 -22 5 -12 2 9 2 23 0 30 -3 6 -5 -1 -5 -18z"/>
<path d="M3737 2933 c-15 -15 -7 -43 13 -43 15 0 20 7 20 25 0 24 -18 34 -33
18z m23 -18 c0 -8 -4 -15 -10 -15 -5 0 -10 7 -10 15 0 8 5 15 10 15 6 0 10 -7
10 -15z"/>
<path d="M3791 2940 c-2 -3 -4 -15 -5 -27 -2 -20 2 -23 33 -23 32 0 37 3 39
25 1 20 -3 25 -21 24 -17 -1 -18 -2 -4 -6 21 -6 22 -19 1 -27 -26 -10 -32 -7
-37 17 -2 12 -5 20 -6 17z"/>
<path d="M4467 2933 c-15 -15 -7 -43 13 -43 11 0 20 5 20 11 0 6 -7 9 -15 5
-9 -3 -15 0 -15 8 0 8 6 17 13 19 6 3 7 6 1 6 -6 1 -14 -2 -17 -6z"/>
<path d="M4510 2914 c0 -23 2 -24 15 -10 8 8 15 19 15 25 0 6 -7 11 -15 11 -9
0 -15 -10 -15 -26z"/>
<path d="M4552 2915 c0 -16 2 -22 5 -12 2 9 2 23 0 30 -3 6 -5 -1 -5 -18z"/>
<path d="M4577 2934 c-16 -16 -7 -44 14 -44 15 0 20 5 17 22 -3 22 -19 33 -31
22z m23 -19 c0 -8 -4 -15 -10 -15 -5 0 -10 7 -10 15 0 8 5 15 10 15 6 0 10 -7
10 -15z"/>
<path d="M4629 2931 c12 -8 12 -12 2 -25 -11 -13 -11 -16 1 -16 7 0 15 11 16
25 1 18 -3 25 -16 25 -14 0 -14 -2 -3 -9z"/>
<path d="M4668 2933 c6 -2 18 -2 25 0 6 3 1 5 -13 5 -14 0 -19 -2 -12 -5z"/>
<path d="M4745 2921 c-4 -12 -16 -26 -28 -31 l-22 -9 23 0 c12 -1 22 3 22 8 0
5 28 7 62 5 53 -3 59 -2 43 10 -18 13 -18 14 1 24 17 10 17 11 2 12 -10 0 -18
-3 -18 -8 0 -4 -9 -13 -20 -20 -17 -10 -20 -10 -20 4 0 8 5 12 10 9 6 -3 10
-1 10 4 0 6 -7 11 -15 11 -9 0 -15 -9 -15 -22 l-1 -23 -13 24 -14 24 -7 -22z"/>
<path d="M4880 2940 c-1 -3 -3 -15 -4 -27 -2 -17 2 -23 18 -23 13 0 16 3 10 8
-7 4 -14 16 -17 27 -2 11 -6 18 -7 15z"/>
<path d="M3880 2910 c6 -11 17 -20 25 -20 8 0 15 9 15 20 0 15 -7 20 -25 20
-23 0 -24 -2 -15 -20z m30 0 c0 -5 -2 -10 -4 -10 -3 0 -8 5 -11 10 -3 6 -1 10
4 10 6 0 11 -4 11 -10z"/>
<path d="M4400 2910 c6 -11 19 -20 28 -20 11 0 18 8 18 20 0 15 -7 20 -28 20
-26 0 -28 -2 -18 -20z m30 0 c0 -5 -2 -10 -4 -10 -3 0 -8 5 -11 10 -3 6 -1 10
4 10 6 0 11 -4 11 -10z"/>
<path d="M3627 2843 c-12 -11 -7 -41 7 -46 15 -6 26 1 26 16 0 5 -7 7 -15 3
-9 -3 -15 0 -15 9 0 7 8 16 18 18 14 4 14 5 1 6 -9 0 -19 -2 -22 -6z"/>
<path d="M3671 2818 c1 -18 3 -25 6 -15 2 9 9 17 14 17 5 0 9 7 9 15 0 8 -7
15 -15 15 -10 0 -15 -10 -14 -32z"/>
<path d="M3712 2820 c0 -19 2 -27 5 -17 2 9 2 25 0 35 -3 9 -5 1 -5 -18z"/>
<path d="M3734 2835 c-8 -21 3 -48 19 -43 19 7 22 58 2 58 -8 0 -18 -7 -21
-15z m26 -16 c0 -11 -4 -17 -10 -14 -5 3 -10 13 -10 21 0 8 5 14 10 14 6 0 10
-9 10 -21z"/>
<path d="M3791 2850 c-2 -3 -4 -17 -5 -33 -2 -25 1 -27 34 -24 31 2 35 6 36
30 1 21 -3 27 -20 26 -12 0 -15 -3 -8 -6 6 -2 10 -9 6 -14 -3 -5 0 -9 5 -9 6
0 11 -4 11 -9 0 -5 -11 -8 -24 -8 -19 0 -26 6 -29 26 -2 14 -5 24 -6 21z"/>
<path d="M4464 2835 c-8 -20 3 -48 18 -43 6 2 14 10 16 18 3 9 -1 11 -12 7
-10 -4 -16 -1 -16 7 0 8 6 17 13 19 9 4 9 6 -1 6 -7 1 -15 -6 -18 -14z"/>
<path d="M4511 2818 c1 -18 3 -25 6 -15 2 9 9 17 14 17 5 0 9 7 9 15 0 8 -7
15 -15 15 -10 0 -15 -10 -14 -32z"/>
<path d="M4552 2820 c0 -19 2 -27 5 -17 2 9 2 25 0 35 -3 9 -5 1 -5 -18z"/>
<path d="M4574 2836 c-8 -22 3 -49 19 -43 6 2 12 14 12 27 0 27 -22 39 -31 16z
m26 -11 c0 -8 -4 -15 -10 -15 -5 0 -10 7 -10 15 0 8 5 15 10 15 6 0 10 -7 10
-15z"/>
<path d="M4629 2841 c10 -7 11 -13 2 -30 -9 -16 -9 -21 1 -21 7 0 14 13 15 30
2 23 -2 30 -15 30 -13 0 -14 -2 -3 -9z"/>
<path d="M4662 2824 c3 -26 7 -29 43 -30 22 -1 30 0 18 3 -13 2 -24 9 -24 14
-1 5 -2 15 -3 21 0 7 -9 14 -19 16 -15 3 -18 -2 -15 -24z"/>
<path d="M4746 2835 c-9 -23 -8 -25 9 -25 17 0 19 9 6 28 -7 11 -10 10 -15 -3z"/>
<path d="M4778 2820 c-5 -31 9 -39 30 -18 8 8 15 8 26 -1 11 -9 16 -9 22 0 4
7 3 9 -4 5 -19 -12 -26 17 -7 31 16 11 16 13 3 13 -9 0 -19 -6 -22 -12 -5 -10
-7 -10 -12 0 -11 23 -32 12 -36 -18z m24 -12 c-9 -9 -12 -7 -12 12 0 19 3 21
12 12 9 -9 9 -15 0 -24z"/>
<path d="M4882 2843 c16 -4 16 -6 2 -29 -16 -23 -15 -24 7 -24 18 0 21 2 10 9
-12 7 -12 13 -3 24 14 16 6 28 -17 26 -13 -1 -13 -2 1 -6z"/>
<path d="M3888 2833 c12 -2 22 -8 22 -13 0 -5 -7 -6 -17 -3 -11 4 -14 3 -9 -5
12 -19 36 -14 36 8 0 15 -6 20 -27 19 -24 -2 -25 -2 -5 -6z"/>
<path d="M4408 2833 c12 -2 22 -8 22 -13 0 -5 -7 -6 -17 -3 -11 4 -14 3 -9 -5
12 -20 42 -14 42 8 0 16 -6 20 -31 19 -23 -1 -25 -3 -7 -6z"/>
<path d="M3627 2753 c-12 -11 -7 -41 7 -46 15 -6 26 1 26 16 0 5 -7 7 -15 3
-9 -3 -15 0 -15 9 0 7 8 16 18 18 14 4 14 5 1 6 -9 0 -19 -2 -22 -6z"/>
<path d="M3670 2729 c0 -27 2 -29 15 -15 8 8 15 22 15 30 0 9 -7 16 -15 16
-10 0 -15 -10 -15 -31z"/>
<path d="M3712 2730 c0 -19 2 -27 5 -17 2 9 2 25 0 35 -3 9 -5 1 -5 -18z"/>
<path d="M3734 2745 c-8 -21 3 -48 19 -43 19 7 22 58 2 58 -8 0 -18 -7 -21
-15z m26 -16 c0 -11 -4 -17 -10 -14 -5 3 -10 13 -10 21 0 8 5 14 10 14 6 0 10
-9 10 -21z"/>
<path d="M3791 2760 c-2 -3 -4 -17 -5 -32 -1 -22 3 -28 19 -28 12 0 16 3 9 8
-7 4 -14 18 -17 32 -2 14 -5 23 -6 20z"/>
<path d="M3826 2744 c-8 -22 -8 -24 8 -24 8 0 17 -6 19 -12 3 -7 6 -3 6 9 1
16 -3 21 -14 17 -11 -5 -13 -2 -9 10 3 9 4 16 1 16 -3 0 -8 -7 -11 -16z"/>
<path d="M3888 2743 c12 -2 22 -9 22 -15 0 -5 -7 -7 -16 -4 -8 3 -12 2 -9 -4
11 -18 35 -11 35 10 0 15 -6 20 -27 19 -24 -2 -25 -2 -5 -6z"/>
<path d="M3624 2655 c-9 -21 3 -45 21 -45 8 0 15 7 15 15 0 8 -5 15 -11 15 -5
0 -7 -4 -4 -10 3 -5 1 -10 -4 -10 -18 0 -12 38 7 43 16 4 16 5 -1 6 -10 0 -20
-6 -23 -14z"/>
<path d="M3670 2639 c0 -27 2 -29 15 -15 8 8 15 22 15 30 0 9 -7 16 -15 16
-10 0 -15 -10 -15 -31z"/>
<path d="M3712 2640 c0 -19 2 -27 5 -17 2 9 2 25 0 35 -3 9 -5 1 -5 -18z"/>
<path d="M3734 2655 c-9 -21 3 -45 21 -45 10 0 15 10 15 30 0 32 -26 43 -36
15z m26 -15 c0 -11 -4 -20 -10 -20 -5 0 -10 9 -10 20 0 11 5 20 10 20 6 0 10
-9 10 -20z"/>
<path d="M3790 2670 c-1 -3 -3 -17 -4 -32 -2 -25 1 -27 36 -26 30 0 38 4 38
19 0 13 -7 19 -22 18 -17 -1 -19 -2 -5 -6 25 -7 21 -20 -7 -20 -19 0 -26 6
-29 26 -2 14 -5 24 -7 21z"/>
<path d="M3838 2663 c7 -3 16 -2 19 1 4 3 -2 6 -13 5 -11 0 -14 -3 -6 -6z"/>
<path d="M4742 2650 c-10 -17 -10 -20 3 -20 8 0 15 -6 15 -12 0 -7 6 -4 12 7
6 11 18 26 26 33 14 11 14 12 0 12 -9 0 -19 -8 -23 -17 -7 -17 -7 -17 -14 -1
-6 17 -7 16 -19 -2z"/>
<path d="M4821 2640 c0 -33 1 -34 10 -11 6 16 6 28 -1 35 -7 7 -10 -1 -9 -24z"/>
<path d="M4846 2648 c-3 -13 -1 -27 4 -32 7 -7 10 1 10 22 0 37 -5 41 -14 10z"/>
<path d="M4870 2640 c0 -19 5 -30 14 -30 17 0 28 24 20 45 -11 27 -34 17 -34
-15z m22 -12 c-9 -9 -12 -7 -12 12 0 19 3 21 12 12 9 -9 9 -15 0 -24z"/>
<path d="M3893 2653 c-27 -5 -20 -33 8 -33 12 0 19 7 19 20 0 11 -1 19 -2 19
-2 -1 -13 -4 -25 -6z"/>
<path d="M4693 2651 c-28 -8 -17 -26 20 -33 23 -5 25 -3 15 10 -7 8 -11 17
-10 19 7 8 -3 10 -25 4z"/>
<path d="M4787 2633 c-12 -11 -8 -23 8 -23 8 0 15 7 15 15 0 16 -12 20 -23 8z"/>
<path d="M4246 2553 c-2 -2 -1 -14 1 -28 6 -30 33 -22 33 9 0 19 -21 31 -34
19z"/>
<path d="M4237 2484 c-17 -17 -5 -34 24 -34 24 0 30 4 27 18 -3 17 -38 29 -51
16z m43 -14 c0 -5 -9 -10 -21 -10 -11 0 -17 5 -14 10 3 6 13 10 21 10 8 0 14
-4 14 -10z"/>
<path d="M4239 2431 c11 -7 11 -9 0 -14 -8 -3 2 -6 21 -6 23 0 30 2 21 8 -11
7 -11 9 0 14 8 3 -2 6 -21 6 -23 0 -30 -2 -21 -8z"/>
<path d="M4234 2389 c-9 -15 10 -32 32 -27 23 4 32 38 10 38 -9 0 -16 -5 -16
-11 0 -5 5 -7 10 -4 6 3 10 1 10 -5 0 -6 -8 -10 -17 -8 -10 2 -17 10 -15 16 3
15 -5 16 -14 1z"/>
<path d="M3496 3774 c-4 -12 -2 -15 9 -10 8 3 15 1 15 -4 0 -5 -8 -11 -17 -13
-14 -4 -13 -5 4 -6 18 -1 22 4 21 24 -3 28 -23 34 -32 9z"/>
<path d="M3521 3403 l1 -28 7 25 8 25 5 -25 c5 -25 5 -25 7 3 1 18 -4 27 -14
27 -10 0 -15 -9 -14 -27z"/>
<path d="M3496 3684 c-10 -26 -7 -34 14 -34 11 0 20 7 20 15 0 8 -6 15 -12 15
-9 0 -8 4 2 10 13 8 13 10 -1 10 -9 0 -20 -7 -23 -16z"/>
<path d="M3498 3603 c6 -2 18 -2 25 0 6 3 1 5 -13 5 -14 0 -19 -2 -12 -5z"/>
<path d="M6073 2960 l12 -31 7 28 c4 15 5 29 3 32 -3 2 -5 -1 -5 -9 0 -10 -3
-10 -14 0 -13 10 -13 7 -3 -20z"/>
<path d="M6111 2963 c-1 -25 3 -33 17 -33 11 0 13 3 6 8 -7 4 -14 18 -17 32
-4 21 -4 20 -6 -7z"/>
<path d="M6210 2980 c8 -5 11 -10 6 -10 -5 0 -3 -6 3 -14 10 -11 8 -15 -6 -18
-10 -2 1 -5 25 -5 41 0 43 1 40 26 -3 22 -8 26 -43 28 -29 2 -36 0 -25 -7z
m35 -10 c3 -5 1 -10 -4 -10 -6 0 -11 5 -11 10 0 6 2 10 4 10 3 0 8 -4 11 -10z
m25 -20 c0 -5 -5 -10 -11 -10 -5 0 -7 5 -4 10 3 6 8 10 11 10 2 0 4 -4 4 -10z"/>
<path d="M6158 2953 c6 -2 18 -2 25 0 6 3 1 5 -13 5 -14 0 -19 -2 -12 -5z"/>
<path d="M6424 3360 c2 -21 40 -19 42 3 1 12 1 13 -3 2 -5 -18 -30 -20 -36 -2
-2 7 -3 6 -3 -3z"/>
<path d="M6557 3374 c-17 -17 -5 -34 24 -34 24 0 30 4 27 18 -3 17 -38 29 -51
16z m43 -14 c0 -5 -9 -10 -21 -10 -11 0 -17 5 -14 10 3 6 13 10 21 10 8 0 14
-4 14 -10z"/>
<path d="M6695 3370 c-4 -7 -3 -16 3 -22 14 -14 47 -6 47 12 0 18 -40 26 -50
10z m35 -10 c0 -5 -7 -10 -15 -10 -8 0 -15 5 -15 10 0 6 7 10 15 10 8 0 15 -4
15 -10z"/>
<path d="M6830 3360 c0 -14 7 -20 23 -20 22 -1 22 -1 -3 -16 -14 -8 -17 -13
-7 -10 9 3 17 1 17 -4 0 -6 3 -10 8 -10 4 0 8 18 10 40 2 37 0 40 -23 40 -18
0 -25 -5 -25 -20z m40 0 c0 -5 -7 -10 -15 -10 -8 0 -15 5 -15 10 0 6 7 10 15
10 8 0 15 -4 15 -10z"/>
<path d="M6421 3318 c-1 -13 7 -18 24 -18 17 0 25 5 24 18 0 10 -3 12 -6 5 -2
-7 -11 -13 -18 -13 -7 0 -16 6 -18 13 -3 7 -6 5 -6 -5z"/>
<path d="M6559 3321 c11 -7 11 -9 0 -14 -8 -3 2 -6 21 -6 23 0 30 2 21 8 -11
7 -11 9 0 14 8 3 -2 6 -21 6 -23 0 -30 -2 -21 -8z"/>
<path d="M6697 3324 c-15 -15 -6 -24 24 -24 20 0 29 4 27 13 -5 14 -40 21 -51
11z m30 -10 c-3 -3 -12 -4 -19 -1 -8 3 -5 6 6 6 11 1 17 -2 13 -5z"/>
<path d="M6554 3279 c-9 -15 10 -32 32 -27 23 4 32 38 10 38 -9 0 -16 -5 -16
-11 0 -5 5 -7 10 -4 6 3 10 1 10 -5 0 -6 -8 -10 -17 -8 -10 2 -17 10 -15 16 3
15 -5 16 -14 1z"/>
<path d="M6445 3270 c-3 -6 1 -7 9 -4 18 7 21 14 7 14 -6 0 -13 -4 -16 -10z"/>
<path d="M2157 3334 c-4 -4 -2 -13 4 -20 7 -8 7 -14 -1 -19 -15 -9 -2 -25 21
-25 12 0 19 7 18 18 0 10 -3 12 -6 5 -2 -7 -12 -13 -21 -13 -14 1 -13 4 6 19
12 11 22 25 22 33 0 7 -5 5 -12 -7 -10 -18 -12 -18 -17 -2 -4 10 -10 15 -14
11z"/>
<path d="M2165 3250 c3 -5 14 -10 23 -10 15 0 15 2 2 10 -20 13 -33 13 -25 0z"/>
<path d="M2301 3115 c2 -32 18 -50 47 -51 28 -1 32 1 31 25 l-1 26 -8 -25 c-7
-22 -8 -23 -9 -4 -1 16 -7 21 -23 20 -13 -1 -26 3 -30 9 -5 6 -7 6 -7 0z m39
-31 c0 -8 -5 -12 -10 -9 -6 4 -8 11 -5 16 9 14 15 11 15 -7z"/>
<path d="M2398 3085 c2 -14 6 -25 7 -25 1 0 5 11 7 25 3 16 1 25 -7 25 -8 0
-10 -9 -7 -25z"/>
<path d="M2286 3087 c3 -10 9 -15 12 -12 3 3 0 11 -7 18 -10 9 -11 8 -5 -6z"/>
<path d="M2147 2974 c-15 -15 -6 -24 24 -24 20 0 29 4 27 13 -5 14 -40 21 -51
11z m30 -10 c-3 -3 -12 -4 -19 -1 -8 3 -5 6 6 6 11 1 17 -2 13 -5z"/>
<path d="M2149 2921 c11 -7 11 -9 0 -14 -8 -3 2 -6 21 -6 23 0 30 2 21 8 -11
7 -11 9 0 14 8 3 -2 6 -21 6 -23 0 -30 -2 -21 -8z"/>
<path d="M2140 2877 c0 -10 7 -20 15 -23 18 -7 47 14 39 27 -9 15 -26 10 -20
-6 8 -21 -11 -19 -23 3 -10 16 -10 16 -11 -1z"/>
<path d="M3476 2871 c-4 -5 0 -12 6 -14 10 -4 9 -8 -2 -16 -13 -9 -12 -11 6
-11 17 0 20 5 16 25 -4 25 -16 32 -26 16z"/>
<path d="M3518 2873 c6 -2 18 -2 25 0 6 3 1 5 -13 5 -14 0 -19 -2 -12 -5z"/>
<path d="M3476 2781 c-4 -5 0 -12 6 -14 10 -4 9 -8 -2 -16 -13 -9 -12 -11 6
-11 17 0 20 5 16 25 -4 25 -16 32 -26 16z"/>
<path d="M3520 2765 c0 -16 6 -25 15 -25 9 0 15 9 15 25 0 16 -6 25 -15 25 -9
0 -15 -9 -15 -25z"/>
<path d="M3483 2693 c9 -2 17 -7 17 -10 0 -3 -8 -12 -17 -19 -17 -13 -17 -13
2 -14 15 0 21 7 23 25 1 20 -3 25 -21 24 -17 -1 -18 -2 -4 -6z"/>
<path d="M3520 2675 c0 -16 6 -25 15 -25 9 0 15 9 15 25 0 16 -6 25 -15 25 -9
0 -15 -9 -15 -25z m17 -7 c-3 -8 -6 -5 -6 6 -1 11 2 17 5 13 3 -3 4 -12 1 -19z"/>
<path d="M4350 2138 c0 -23 3 -29 9 -19 6 9 11 10 15 2 4 -6 16 -11 27 -11 29
0 23 33 -8 48 -39 18 -43 16 -43 -20z"/>
<path d="M4510 2141 c0 -27 3 -29 35 -28 21 1 30 4 22 9 -9 6 -9 8 1 8 6 0 12
5 12 10 0 15 -21 12 -42 -7 -10 -9 -18 -11 -18 -5 0 6 4 12 9 14 5 2 3 9 -5
16 -12 11 -14 8 -14 -17z"/>
<path d="M4690 2138 c0 -32 0 -32 16 -10 15 22 12 42 -7 42 -5 0 -9 -15 -9
-32z"/>
<path d="M4731 2143 c-1 -31 1 -33 32 -33 33 0 64 30 52 50 -11 18 -25 10 -25
-15 0 -20 -5 -25 -24 -25 -19 0 -26 6 -29 28 -4 25 -4 25 -6 -5z"/>
<path d="M4832 2140 c0 -19 2 -27 5 -17 2 9 2 25 0 35 -3 9 -5 1 -5 -18z"/>
<path d="M4430 2140 c0 -5 6 -10 13 -10 8 0 7 -4 -3 -10 -13 -8 -12 -10 3 -10
10 0 17 8 17 20 0 11 -7 20 -15 20 -8 0 -15 -4 -15 -10z"/>
<path d="M4470 2125 c0 -18 4 -23 15 -19 8 4 15 15 15 25 0 10 -7 19 -15 19
-9 0 -15 -9 -15 -25z"/>
<path d="M4591 2128 c1 -17 3 -18 6 -5 2 9 8 17 13 17 5 0 11 -8 13 -17 4 -16
5 -16 6 0 0 10 7 17 14 14 6 -2 11 -13 10 -23 -1 -18 -1 -18 13 0 21 29 18 32
-31 35 -41 2 -45 0 -44 -21z"/>
<path d="M4852 2133 c2 -9 10 -18 18 -20 13 -4 13 -3 0 6 -13 10 -13 12 0 21
13 8 12 10 -3 10 -12 0 -17 -6 -15 -17z"/>
<path d="M4892 2133 c2 -13 14 -18 43 -19 24 -1 29 0 13 3 -16 2 -28 11 -28
19 0 8 -7 14 -16 14 -9 0 -14 -7 -12 -17z"/>
<path d="M4970 2143 c0 -5 4 -15 10 -23 11 -18 25 -7 17 15 -6 15 -27 21 -27
8z"/>
<path d="M4207 2023 c-4 -3 -7 -15 -7 -25 0 -13 7 -18 25 -18 14 0 25 5 25 11
0 8 5 8 15 -1 13 -11 15 -8 14 16 0 16 -3 23 -6 16 -4 -10 -8 -10 -19 -1 -11
9 -14 8 -14 -4 0 -8 -7 -17 -15 -21 -9 -3 -15 0 -15 8 0 8 6 17 13 19 6 3 7 6
1 6 -6 1 -14 -2 -17 -6z"/>
<path d="M4290 2005 c0 -20 4 -26 18 -23 9 2 17 12 17 23 0 11 -8 21 -17 23
-14 3 -18 -3 -18 -23z m30 -6 c0 -5 -4 -9 -10 -9 -5 0 -10 7 -10 16 0 8 5 12
10 9 6 -3 10 -10 10 -16z"/>
<path d="M3630 1600 c0 -5 -8 -7 -17 -3 -15 5 -14 3 2 -10 26 -21 31 -21 31 3
0 11 -4 20 -8 20 -4 0 -8 -4 -8 -10z"/>
<path d="M3600 1555 c0 -8 9 -10 25 -7 14 2 25 6 25 7 0 1 -11 5 -25 7 -16 3
-25 1 -25 -7z"/>
<path d="M3620 1524 c-14 -8 -17 -13 -7 -10 9 3 17 1 17 -4 0 -6 4 -10 8 -10
4 0 8 9 8 20 0 11 0 20 -1 20 0 -1 -11 -8 -25 -16z"/>
<path d="M3600 1481 c0 -5 -9 -7 -20 -4 -16 4 -20 0 -20 -21 0 -29 27 -37 36
-11 4 8 17 15 30 15 15 0 24 -6 24 -15 0 -8 7 -15 15 -15 8 0 15 7 15 15 0 8
-6 15 -12 15 -10 0 -10 2 0 9 10 6 4 10 -18 15 -43 8 -50 8 -50 -3z m37 -7
c-3 -3 -12 -4 -19 -1 -8 3 -5 6 6 6 11 1 17 -2 13 -5z m-47 -13 c0 -6 -4 -13
-10 -16 -5 -3 -10 1 -10 9 0 9 5 16 10 16 6 0 10 -4 10 -9z"/>
<path d="M3520 1454 c0 -31 23 -28 28 4 2 15 -2 22 -12 22 -11 0 -16 -9 -16
-26z m17 -6 c-3 -8 -6 -5 -6 6 -1 11 2 17 5 13 3 -3 4 -12 1 -19z"/>
<path d="M3691 1454 c0 -16 3 -23 6 -16 4 10 8 10 19 1 11 -9 14 -6 13 17 0
16 -3 23 -6 16 -4 -10 -8 -10 -19 -1 -11 9 -14 6 -13 -17z"/>
<path d="M3740 1455 c0 -28 24 -34 34 -9 8 20 -1 34 -20 34 -8 0 -14 -10 -14
-25z m25 6 c3 -5 1 -12 -5 -16 -5 -3 -10 1 -10 9 0 18 6 21 15 7z"/>
<path d="M3486 1447 c3 -10 9 -15 12 -12 3 3 0 11 -7 18 -10 9 -11 8 -5 -6z"/>
<path d="M8640 4780 c0 -32 23 -42 34 -15 3 9 12 12 22 8 16 -6 16 -7 -2 -14
-17 -7 -17 -8 4 -8 13 -1 22 5 22 14 0 8 -4 15 -10 15 -5 0 -10 5 -10 11 0 5
6 7 13 3 9 -5 9 -4 0 6 -10 10 -15 11 -27 1 -10 -8 -16 -9 -21 -1 -12 20 -25
10 -25 -20z m22 -12 c-9 -9 -12 -7 -12 12 0 19 3 21 12 12 9 -9 9 -15 0 -24z"/>
<path d="M8739 4808 c-7 -14 -2 -58 6 -58 7 0 10 12 7 30 -4 26 -9 36 -13 28z"/>
<path d="M8647 4714 c-4 -4 -7 -18 -7 -31 0 -18 5 -24 18 -21 10 2 17 12 17
27 0 24 -15 37 -28 25z m23 -30 c0 -8 -4 -14 -10 -14 -5 0 -10 9 -10 21 0 11
5 17 10 14 6 -3 10 -13 10 -21z"/>
<path d="M8691 4693 c-1 -32 0 -33 37 -32 20 1 28 4 18 6 -15 4 -16 7 -5 14
10 6 10 9 2 9 -19 0 -16 18 5 23 13 4 11 5 -5 6 -18 1 -23 -4 -23 -24 0 -34
-18 -32 -23 3 -4 25 -4 25 -6 -5z"/>
<path d="M8770 4690 c0 -21 4 -30 13 -27 6 2 12 14 12 27 0 13 -6 25 -12 28
-9 2 -13 -7 -13 -28z m17 -12 c-3 -8 -6 -5 -6 6 -1 11 2 17 5 13 3 -3 4 -12 1
-19z"/>
<path d="M8850 4688 c0 -24 3 -29 9 -18 6 8 7 18 4 23 -3 5 1 13 8 18 11 7 10
9 -3 9 -14 0 -18 -8 -18 -32z"/>
<path d="M8968 4709 c-7 -22 3 -49 18 -49 8 0 14 8 15 18 0 14 2 14 9 -3 8
-18 9 -18 9 -2 1 10 -6 25 -14 33 -12 12 -15 12 -15 2 0 -10 -2 -10 -9 1 -7
11 -9 11 -13 0z"/>
<path d="M9104 4707 c3 -10 6 -25 6 -33 0 -8 5 -14 10 -14 15 0 12 22 -7 45
-14 18 -15 18 -9 2z"/>
<path d="M9152 4690 c0 -19 2 -27 5 -17 2 9 2 25 0 35 -3 9 -5 1 -5 -18z"/>
<path d="M9299 4713 c0 -5 -2 -18 -3 -30 -2 -13 3 -23 9 -23 7 0 10 11 7 30
-4 28 -11 40 -13 23z"/>
<path d="M9333 4706 c-3 -6 -3 -8 2 -4 9 9 35 -9 35 -23 0 -5 -5 -9 -11 -9 -5
0 -7 6 -3 13 5 8 2 8 -9 -2 -24 -19 -22 -20 24 -19 37 0 40 2 37 26 -2 22 -8
27 -36 28 -18 1 -35 -3 -39 -10z m67 -26 c0 -5 -5 -10 -11 -10 -5 0 -7 5 -4
10 3 6 8 10 11 10 2 0 4 -4 4 -10z"/>
<path d="M9458 4713 c6 -2 18 -2 25 0 6 3 1 5 -13 5 -14 0 -19 -2 -12 -5z"/>
<path d="M9500 4709 c0 -5 5 -7 10 -4 13 8 13 -1 0 -26 -8 -14 -7 -19 2 -19 7
0 14 13 15 30 2 21 -2 30 -12 30 -8 0 -15 -5 -15 -11z"/>
<path d="M8885 4690 c-7 -11 2 -30 13 -30 4 0 8 9 9 20 2 21 -11 27 -22 10z"/>
<path d="M8931 4683 c10 -11 10 -14 2 -9 -7 4 -13 2 -13 -3 0 -6 7 -11 15 -11
8 0 15 9 15 20 0 12 -7 20 -16 20 -14 0 -15 -2 -3 -17z"/>
<path d="M9030 4680 c0 -13 6 -20 18 -19 10 0 12 3 5 6 -7 2 -13 9 -13 14 0 6
5 7 10 4 6 -3 10 -1 10 4 0 6 -7 11 -15 11 -8 0 -15 -9 -15 -20z"/>
<path d="M9070 4680 c0 -11 2 -20 4 -20 2 0 6 9 9 20 3 11 1 20 -4 20 -5 0 -9
-9 -9 -20z"/>
<path d="M9171 4678 c0 -22 1 -22 8 -3 l8 20 5 -20 c5 -18 6 -18 7 3 1 13 -5
22 -14 22 -9 0 -15 -9 -14 -22z"/>
<path d="M9212 4673 c4 -39 28 -42 28 -4 0 21 -5 31 -16 31 -11 0 -14 -8 -12
-27z"/>
<path d="M9424 4680 c0 -11 10 -17 33 -18 27 -2 33 1 33 18 0 11 -4 20 -10 20
-5 0 -7 -7 -4 -15 4 -11 0 -15 -16 -15 -14 0 -20 5 -17 13 3 8 0 14 -7 14 -6
0 -12 -8 -12 -17z"/>
<path d="M8162 3413 c2 -9 13 -18 26 -19 16 -3 22 1 22 16 0 15 -7 20 -26 20
-18 0 -25 -5 -22 -17z"/>
<path d="M8251 3387 c1 -17 2 -18 6 -4 2 9 7 17 10 17 3 0 12 -8 19 -17 13
-17 13 -17 14 2 0 15 -7 21 -25 23 -20 1 -25 -3 -24 -21z"/>
<path d="M1746 3255 c-8 -21 16 -45 43 -45 14 0 21 6 21 20 0 11 -4 20 -10 20
-5 0 -7 -7 -3 -16 9 -25 -20 -12 -33 15 -10 19 -12 20 -18 6z"/>
<path d="M1778 3263 c6 -2 18 -2 25 0 6 3 1 5 -13 5 -14 0 -19 -2 -12 -5z"/>
<path d="M1829 3268 c-6 -20 -2 -58 6 -58 7 0 10 12 7 30 -4 25 -9 38 -13 28z"/>
<path d="M1866 3255 c-3 -9 1 -23 9 -31 8 -9 15 -11 15 -5 0 15 37 14 43 -1 3
-7 6 -3 6 10 1 15 -3 21 -11 16 -8 -5 -9 -1 -5 12 7 18 6 18 -9 -1 -14 -19
-16 -19 -28 -2 -12 16 -14 16 -20 2z"/>
<path d="M1991 3243 c-1 -27 3 -33 19 -33 11 0 20 7 20 15 0 21 18 19 23 -2 3
-10 5 -2 6 17 0 26 -2 31 -9 20 -9 -13 -11 -13 -20 0 -8 12 -10 9 -10 -12 0
-16 -4 -28 -9 -28 -5 0 -12 12 -14 28 -4 25 -4 25 -6 -5z"/>
<path d="M1954 3230 c0 -9 5 -17 11 -17 6 0 11 8 11 17 0 9 -5 17 -11 17 -6 0
-11 -8 -11 -17z"/>
<path d="M1943 3145 c1 -19 8 -31 20 -33 13 -3 17 3 16 30 l-1 33 -8 -30 c-7
-29 -8 -29 -24 15 -3 8 -4 2 -3 -15z"/>
<path d="M1998 3163 c6 -2 10 -9 6 -14 -3 -5 0 -9 6 -9 6 0 8 -5 5 -10 -4 -6
-11 -8 -16 -5 -5 4 -9 1 -9 -5 0 -6 8 -10 18 -8 11 2 17 13 17 31 1 21 -4 27
-20 26 -11 0 -14 -3 -7 -6z"/>
<path d="M3591 1188 c-1 -19 4 -28 14 -28 10 0 15 9 14 28 -2 27 -2 27 -7 2
l-5 -25 -8 25 -7 25 -1 -27z"/>
<path d="M3643 1203 c9 -2 17 -7 17 -10 0 -3 -8 -12 -17 -19 -17 -13 -17 -13
2 -14 15 0 21 7 23 25 1 20 -3 25 -21 24 -17 -1 -18 -2 -4 -6z"/>
<path d="M3520 1096 c0 -20 5 -26 21 -26 15 0 20 5 17 22 -5 34 -38 37 -38 4z
m30 -1 c0 -8 -4 -15 -10 -15 -5 0 -10 7 -10 15 0 8 5 15 10 15 6 0 10 -7 10
-15z"/>
<path d="M3570 1095 c0 -23 3 -27 10 -15 9 13 11 13 20 0 8 -12 10 -10 11 10
l1 25 8 -25 c8 -24 8 -24 9 -2 1 17 7 22 28 22 25 0 26 0 8 -20 -18 -20 -17
-20 21 -20 35 0 40 3 42 24 2 23 -1 24 -60 25 -39 0 -65 -4 -70 -12 -6 -9 -10
-8 -18 3 -7 12 -10 8 -10 -15z m150 6 c0 -9 -24 -21 -42 -21 -6 0 -6 6 2 15
14 16 40 20 40 6z"/>
<path d="M40 4145 c0 -18 5 -25 20 -25 15 0 20 7 20 25 0 18 -5 25 -20 25 -15
0 -20 -7 -20 -25z"/>
<path d="M9900 4145 c0 -16 6 -25 15 -25 9 0 15 9 15 25 0 16 -6 25 -15 25 -9
0 -15 -9 -15 -25z"/>
<path d="M43 2364 c-8 -21 21 -51 32 -33 5 7 4 10 -3 5 -19 -12 -26 17 -7 31
17 12 17 13 2 13 -10 0 -20 -7 -24 -16z"/>
<path d="M9896 2363 c-9 -21 18 -51 29 -32 5 7 4 10 -2 6 -6 -4 -13 0 -17 8
-3 8 3 19 12 24 15 9 15 10 1 11 -9 0 -20 -8 -23 -17z"/>
<path d="M40 560 c0 -25 4 -31 18 -28 23 4 23 52 0 56 -14 3 -18 -3 -18 -28z
m30 6 c0 -8 -5 -18 -10 -21 -6 -3 -10 3 -10 14 0 12 5 21 10 21 6 0 10 -6 10
-14z"/>
<path d="M9900 560 c0 -21 4 -30 13 -27 6 2 12 14 12 27 0 13 -6 25 -12 28 -9
2 -13 -7 -13 -28z m17 -2 c-3 -8 -6 -5 -6 6 -1 11 2 17 5 13 3 -3 4 -12 1 -19z"/>
<path d="M6054 658 c-4 -6 0 -16 9 -23 22 -16 21 -22 0 -28 -14 -4 -12 -5 5
-6 25 -1 31 26 7 35 -8 4 -12 10 -9 15 3 5 10 7 15 4 5 -4 9 -1 9 4 0 15 -27
14 -36 -1z"/>
<path d="M6111 635 c1 -35 2 -37 9 -15 l8 25 2 -25 c2 -17 4 -20 7 -8 2 10 -3
28 -11 40 -16 22 -16 22 -15 -17z"/>
<path d="M6248 659 c-6 -17 2 -59 11 -59 8 0 6 58 -2 66 -3 3 -7 0 -9 -7z"/>
<path d="M6360 630 c-11 -22 -18 -40 -15 -40 2 0 14 18 25 40 11 22 18 40 15
40 -2 0 -14 -18 -25 -40z"/>
<path d="M6154 636 c-8 -20 3 -36 24 -35 14 0 13 2 -3 9 -18 8 -18 9 -2 9 10
1 17 6 15 13 -7 19 -27 21 -34 4z"/>
<path d="M6207 643 c-14 -13 -7 -43 11 -43 14 0 15 2 2 10 -10 6 -11 10 -2 10
6 0 12 7 12 15 0 16 -12 20 -23 8z"/>
<path d="M6061 533 c0 -30 2 -34 8 -18 5 11 6 24 3 29 -2 4 2 12 9 17 11 7 10
9 -3 9 -14 0 -18 -8 -17 -37z"/>
<path d="M6103 535 c0 -22 2 -30 4 -17 2 12 2 30 0 40 -3 9 -5 -1 -4 -23z"/>
<path d="M6133 535 c0 -22 2 -30 4 -17 2 12 2 30 0 40 -3 9 -5 -1 -4 -23z"/>
<path d="M6270 555 c0 -9 7 -18 15 -21 8 -4 12 -10 9 -15 -3 -5 -10 -7 -15 -4
-5 4 -9 1 -9 -4 0 -17 27 -13 34 4 3 9 -1 18 -9 21 -20 8 -19 22 3 27 13 4 11
5 -5 6 -15 1 -23 -5 -23 -14z"/>
<path d="M6472 541 c2 -20 9 -37 18 -39 13 -5 13 -3 0 12 -12 16 -12 19 3 27
9 6 17 15 17 22 0 7 -4 6 -10 -3 -9 -13 -11 -13 -20 0 -8 11 -10 7 -8 -19z"/>
<path d="M6659 559 c-2 -22 2 -43 10 -52 4 -4 6 7 5 24 -2 32 -13 52 -15 28z"/>
<path d="M6691 533 c1 -29 3 -32 7 -13 l5 25 8 -25 c7 -25 7 -25 8 -2 1 13 -6
30 -14 38 -13 14 -15 11 -14 -23z"/>
<path d="M6820 555 c0 -9 7 -18 15 -21 8 -4 12 -10 9 -15 -3 -5 -10 -7 -15 -4
-5 4 -9 1 -9 -4 0 -17 27 -13 34 4 3 9 -1 18 -9 21 -20 8 -19 22 3 27 13 4 11
5 -5 6 -15 1 -23 -5 -23 -14z"/>
<path d="M6869 559 c-2 -22 2 -43 10 -52 4 -4 6 7 5 24 -2 32 -13 52 -15 28z"/>
<path d="M6949 559 c-2 -22 2 -43 10 -52 4 -4 6 7 5 24 -2 32 -13 52 -15 28z"/>
<path d="M6983 535 c0 -22 2 -30 4 -17 2 12 2 30 0 40 -3 9 -5 -1 -4 -23z"/>
<path d="M7131 539 c-1 -22 4 -36 12 -36 6 0 12 10 12 23 0 12 -3 20 -7 18 -3
-2 -9 4 -11 13 -3 10 -5 2 -6 -18z"/>
<path d="M7173 535 c0 -22 2 -30 4 -17 2 12 2 30 0 40 -3 9 -5 -1 -4 -23z"/>
<path d="M7302 554 c-16 -17 -12 -46 6 -52 8 -2 12 8 12 32 0 41 0 41 -18 20z
m5 -36 c-3 -8 -6 -5 -6 6 -1 11 2 17 5 13 3 -3 4 -12 1 -19z"/>
<path d="M7471 533 c1 -29 3 -32 7 -13 l5 25 8 -25 c7 -25 7 -25 8 -2 1 13 -6
30 -14 38 -13 14 -15 11 -14 -23z"/>
<path d="M6153 534 c-8 -22 13 -42 30 -25 8 8 8 11 1 9 -7 -2 -11 2 -10 7 0 6
4 9 9 8 4 -2 7 2 7 7 0 16 -30 11 -37 -6z"/>
<path d="M6321 523 l1 -28 7 25 8 25 5 -25 c5 -23 5 -23 7 -2 0 12 5 22 10 22
5 0 12 -10 14 -22 5 -20 5 -20 4 2 -2 19 -8 26 -29 28 -25 3 -28 0 -27 -25z"/>
<path d="M6398 538 c7 -7 12 -17 12 -22 0 -6 -5 -4 -11 4 -9 12 -10 12 -7 1 7
-26 28 -24 28 3 0 18 -5 26 -17 26 -13 0 -14 -3 -5 -12z"/>
<path d="M6440 525 c0 -14 2 -25 4 -25 2 0 6 11 8 25 3 14 1 25 -3 25 -5 0 -9
-11 -9 -25z"/>
<path d="M6516 543 c-3 -3 -6 -16 -6 -27 0 -16 2 -18 9 -7 7 11 9 11 14 0 3
-8 6 -5 6 8 1 23 -12 37 -23 26z"/>
<path d="M6560 531 c0 -25 18 -37 33 -22 9 9 8 11 -5 6 -13 -5 -18 -2 -18 10
0 11 5 15 15 11 8 -3 15 -1 15 4 0 6 -9 10 -20 10 -13 0 -20 -7 -20 -19z"/>
<path d="M6618 538 c7 -7 12 -17 12 -22 0 -6 -5 -4 -11 4 -9 12 -10 12 -7 1 7
-26 28 -24 28 3 0 18 -5 26 -17 26 -13 0 -14 -3 -5 -12z"/>
<path d="M6740 525 c0 -26 14 -33 26 -13 4 7 3 8 -4 4 -7 -4 -12 -1 -12 9 0 9
5 13 10 10 6 -3 10 -1 10 4 0 6 -7 11 -15 11 -9 0 -15 -9 -15 -25z"/>
<path d="M6781 523 c1 -22 2 -23 6 -8 3 11 10 23 17 27 7 5 5 8 -6 8 -13 0
-18 -7 -17 -27z"/>
<path d="M6908 538 c7 -7 12 -17 12 -22 0 -6 -5 -4 -11 4 -9 12 -10 12 -7 1 7
-26 28 -24 28 3 0 18 -5 26 -17 26 -13 0 -14 -3 -5 -12z"/>
<path d="M7006 541 c-9 -14 5 -42 18 -38 18 6 20 47 2 47 -8 0 -17 -4 -20 -9z
m24 -17 c0 -8 -4 -12 -10 -9 -5 3 -10 10 -10 16 0 5 5 9 10 9 6 0 10 -7 10
-16z"/>
<path d="M7051 523 c1 -23 2 -24 6 -5 2 12 8 22 13 22 5 0 11 -10 13 -22 5
-20 5 -20 4 2 -1 15 -9 26 -19 28 -14 3 -18 -3 -17 -25z"/>
<path d="M7196 541 c-7 -11 3 -41 14 -41 5 0 12 5 15 10 4 6 1 9 -6 8 -19 -5
-22 20 -2 25 16 4 16 5 1 6 -9 0 -19 -3 -22 -8z"/>
<path d="M7244 528 c1 -13 8 -24 19 -26 14 -3 18 1 15 20 -4 31 -36 37 -34 6z
m26 -8 c0 -5 -4 -10 -10 -10 -5 0 -10 5 -10 10 0 6 5 10 10 10 6 0 10 -4 10
-10z"/>
<path d="M7382 533 c2 -12 -6 -19 -27 -24 -29 -7 -29 -7 7 -8 38 -1 60 15 38
29 -10 6 -9 9 1 13 10 4 8 6 -4 6 -12 1 -17 -5 -15 -16z"/>
<path d="M7420 531 c0 -25 18 -37 33 -21 9 9 9 11 -2 8 -21 -5 -25 20 -4 25
14 4 13 5 -4 6 -17 1 -23 -5 -23 -18z"/>
<path d="M6067 442 c6 -4 13 -23 16 -42 l4 -35 1 37 c2 25 7 38 20 41 9 3 1 5
-18 6 -19 0 -30 -3 -23 -7z"/>
<path d="M6132 430 c0 -14 2 -19 5 -12 2 6 2 18 0 25 -3 6 -5 1 -5 -13z"/>
<path d="M6158 438 c-6 -17 3 -68 12 -68 5 0 6 9 3 21 -3 12 -1 24 4 28 7 4 6
10 -2 18 -10 9 -15 9 -17 1z"/>
<path d="M6200 410 c0 -22 3 -40 8 -40 4 0 6 18 4 40 -2 22 -6 40 -8 40 -2 0
-4 -18 -4 -40z"/>
<path d="M6243 423 c-7 -2 -13 -16 -13 -29 0 -18 5 -24 23 -23 16 0 18 2 7 7
-19 9 -20 34 -1 40 8 3 11 0 7 -7 -4 -6 -2 -11 4 -11 13 0 8 23 -6 26 -5 1
-15 0 -21 -3z"/>
<path d="M6290 380 c0 -5 5 -10 11 -10 5 0 7 5 4 10 -3 6 -8 10 -11 10 -2 0
-4 -4 -4 -10z"/>
<path d="M6055 290 c-3 -6 1 -13 9 -16 21 -8 20 -21 -1 -27 -14 -4 -12 -5 5
-6 26 -1 31 26 5 36 -15 6 -15 7 3 14 16 6 16 8 2 8 -9 1 -20 -4 -23 -9z"/>
<path d="M6108 270 c2 -16 6 -30 8 -30 2 0 4 14 4 30 0 17 -4 30 -8 30 -5 0
-7 -13 -4 -30z"/>
<path d="M6296 285 c-9 -23 -8 -25 9 -25 17 0 19 9 6 28 -7 11 -10 10 -15 -3z"/>
<path d="M6137 283 c9 -3 10 -10 3 -23 -9 -17 -6 -19 32 -18 32 1 38 3 23 9
-18 7 -18 8 -2 8 20 1 19 22 -2 29 -7 2 -15 -5 -18 -17 -3 -12 -9 -21 -15 -21
-5 0 -4 9 2 20 9 17 8 20 -12 19 -13 0 -17 -3 -11 -6z"/>
<path d="M6360 281 c0 -7 -6 -11 -15 -7 -8 3 -15 1 -15 -4 0 -6 6 -10 14 -10
8 0 16 -5 18 -12 3 -8 6 -7 10 3 3 9 2 22 -3 30 -7 11 -9 11 -9 0z"/>
<path d="M6840 269 c0 -24 4 -30 18 -27 10 2 18 14 20 31 3 22 -1 27 -17 27
-17 0 -21 -6 -21 -31z m30 1 c0 -11 -4 -20 -10 -20 -5 0 -10 9 -10 20 0 11 5
20 10 20 6 0 10 -9 10 -20z"/>
<path d="M6948 294 c-3 -2 -3 -15 -1 -28 4 -18 11 -23 36 -23 26 -1 28 1 12 7
-18 8 -18 9 -2 9 10 1 17 6 15 13 -8 22 -28 20 -38 -4 -10 -23 -10 -23 -6 -1
4 22 -6 38 -16 27z"/>
<path d="M6900 266 c0 -17 5 -26 16 -26 10 0 14 7 12 22 -5 32 -28 35 -28 4z"/>
<path d="M9101 268 c1 -18 3 -25 6 -15 6 21 12 22 27 1 10 -13 12 -11 11 13
-1 21 -7 29 -23 31 -19 3 -22 -1 -21 -30z m36 16 c-3 -3 -12 -4 -19 -1 -8 3
-5 6 6 6 11 1 17 -2 13 -5z"/>
<path d="M9160 265 c0 -17 5 -25 18 -25 13 0 14 2 3 9 -11 7 -11 9 0 13 7 2 9
10 5 16 -12 20 -26 13 -26 -13z"/>
<path d="M9204 277 c3 -10 6 -24 7 -30 0 -7 5 -1 10 12 5 13 7 26 4 29 -3 3
-5 -1 -5 -9 0 -12 -2 -11 -11 1 -9 12 -10 12 -5 -3z"/>
<path d="M9245 250 c-3 -5 -1 -10 4 -10 6 0 11 5 11 10 0 6 -2 10 -4 10 -3 0
-8 -4 -11 -10z"/>
<path d="M6062 170 c0 -19 2 -29 5 -22 4 10 8 10 21 0 15 -12 16 -11 3 5 -11
14 -11 20 0 35 13 15 12 16 -3 4 -13 -10 -17 -10 -21 0 -3 7 -5 -3 -5 -22z"/>
<path d="M6112 170 c0 -19 2 -27 5 -17 2 9 2 25 0 35 -3 9 -5 1 -5 -18z"/>
<path d="M6134 185 c-10 -24 4 -45 28 -44 l23 0 -22 9 c-13 5 -23 16 -23 24 0
8 10 17 23 19 l22 4 -23 2 c-12 0 -25 -6 -28 -14z"/>
<path d="M6246 185 c-21 -16 -15 -45 9 -45 10 0 15 10 15 30 0 34 1 34 -24 15z
m10 -32 c-10 -10 -19 5 -10 18 6 11 8 11 12 0 2 -7 1 -15 -2 -18z"/>
<path d="M6330 170 c0 -22 5 -30 18 -30 13 0 14 2 4 9 -14 9 -13 32 3 43 6 4
2 8 -7 8 -13 0 -18 -8 -18 -30z"/>
<path d="M6400 169 c0 -24 4 -30 18 -27 10 2 18 14 20 31 3 22 -1 27 -17 27
-17 0 -21 -6 -21 -31z m30 1 c0 -11 -4 -20 -10 -20 -5 0 -10 9 -10 20 0 11 5
20 10 20 6 0 10 -9 10 -20z"/>
<path d="M6486 178 c-5 -15 -15 -28 -24 -30 -10 -2 6 -4 33 -4 28 0 43 2 34 3
-8 2 -20 16 -26 31 l-10 27 -7 -27z"/>
<path d="M6590 185 c0 -9 7 -18 16 -22 13 -5 13 -8 2 -15 -10 -8 -10 -9 2 -5
8 2 16 16 18 30 3 22 -1 27 -17 27 -12 0 -21 -7 -21 -15z m30 -5 c0 -5 -4 -10
-10 -10 -5 0 -10 5 -10 10 0 6 5 10 10 10 6 0 10 -4 10 -10z"/>
<path d="M6670 170 c0 -25 4 -31 18 -28 11 2 17 12 17 28 0 16 -6 26 -17 28
-14 3 -18 -3 -18 -28z m30 0 c0 -11 -4 -20 -10 -20 -5 0 -10 9 -10 20 0 11 5
20 10 20 6 0 10 -9 10 -20z"/>
<path d="M6745 190 c-3 -5 -1 -10 4 -10 15 0 14 -27 -1 -33 -7 -3 -4 -6 8 -6
17 -1 20 4 16 29 -4 30 -16 39 -27 20z"/>
<path d="M6190 166 c0 -17 5 -26 16 -26 10 0 14 7 12 22 -5 32 -28 35 -28 4z"/>
<path d="M9102 170 c0 -19 2 -27 5 -17 2 9 2 25 0 35 -3 9 -5 1 -5 -18z"/>
<path d="M9135 186 c-21 -15 -14 -46 10 -46 10 0 15 10 15 30 0 34 0 34 -25
16z m11 -33 c-10 -10 -19 5 -10 18 6 11 8 11 12 0 2 -7 1 -15 -2 -18z"/>
<path d="M9251 200 c-2 -3 -4 -17 -5 -32 -1 -22 3 -28 19 -28 12 0 16 3 9 8
-7 4 -14 18 -17 32 -2 14 -5 23 -6 20z"/>
<path d="M9361 200 c-2 -3 -4 -17 -5 -32 -1 -22 3 -28 19 -28 12 0 16 3 9 8
-7 4 -14 18 -17 32 -2 14 -5 23 -6 20z"/>
</g>
</svg>
