<?xml version="1.0" standalone="no"?>
<!DOCTYPE svg PUBLIC "-//W3C//DTD SVG 20010904//EN"
 "http://www.w3.org/TR/2001/REC-SVG-20010904/DTD/svg10.dtd">
<svg version="1.0" xmlns="http://www.w3.org/2000/svg"
 width="1050.000000pt" height="747.000000pt" viewBox="0 0 1050.000000 747.000000"
 preserveAspectRatio="xMidYMid meet">

<g transform="translate(0.000000,747.000000) scale(0.100000,-0.100000)"
fill="#000000" stroke="none">
<path d="M330 3695 l0 -3405 4965 0 4965 0 0 3405 0 3405 -4965 0 -4965 0 0
-3405z m914 3379 c3 -9 4 -20 0 -25 -3 -5 1 -9 9 -9 10 0 13 8 9 25 l-4 25
431 0 431 0 0 -30 0 -30 -860 0 -860 0 0 -860 0 -860 -30 0 -30 0 0 890 0 890
449 0 c401 0 450 -2 455 -16z m1795 7 c12 -8 12 -12 2 -25 -11 -13 -11 -16 3
-16 9 0 15 3 15 8 -7 44 -27 42 426 42 l425 0 0 -30 0 -30 -890 0 -890 0 0 30
0 30 448 0 c250 0 453 -4 461 -9z m1795 -10 c16 -17 16 -20 2 -24 -13 -4 -12
-5 1 -3 11 1 18 9 18 21 0 20 9 20 423 23 l422 2 0 -30 0 -30 -890 0 -890 0 0
30 0 30 448 0 c429 0 450 -1 466 -19z m1781 0 c-3 -11 0 -21 9 -24 20 -8 27 3
15 24 -9 18 3 19 421 19 l430 0 0 -30 0 -30 -890 0 -890 0 0 30 0 30 456 0
c441 0 455 -1 449 -19z m1785 3 c0 -8 4 -13 9 -9 5 3 12 1 15 -4 4 -5 -2 -12
-11 -14 -13 -3 -12 -5 5 -6 19 -1 23 3 20 22 l-3 22 423 3 422 2 0 -30 0 -30
-890 0 -890 0 0 30 0 30 450 0 c401 0 450 -2 450 -16z m1792 -9 c-3 -21 0 -25
18 -25 19 0 21 4 16 25 -5 18 -2 25 9 25 13 0 15 -101 15 -890 l0 -890 -30 0
-30 0 0 860 0 860 -450 0 -450 0 0 30 0 30 454 0 453 0 -5 -25z m-12 -2800 l0
-2755 -1935 0 -1935 0 0 -570 0 -570 -2950 0 -2950 0 0 3325 0 3325 4885 0
4885 0 0 -2755z m-9780 145 l0 -890 -30 0 -30 0 0 890 0 890 30 0 30 0 0 -890z
m9850 0 l0 -890 -30 0 -30 0 0 890 0 890 30 0 30 0 0 -890z m-9850 -1790 l0
-890 -30 0 -30 0 0 890 0 890 30 0 30 0 0 -890z m9850 0 l0 -890 -30 0 -30 0
0 890 0 890 30 0 30 0 0 -890z m-9850 -1580 l0 -680 423 0 423 0 -1 -28 0 -27
-452 -3 -453 -2 0 710 0 710 30 0 30 0 0 -680z m9850 -29 l0 -710 -480 -1
-480 0 0 30 0 30 450 0 450 0 0 680 0 680 30 0 30 0 0 -709z m-70 219 l0 -270
-1930 0 -1930 0 0 270 0 270 1930 0 1930 0 0 -270z m0 -385 l0 -105 -1930 0
-1930 0 0 105 0 105 1930 0 1930 0 0 -105z m0 -180 l0 -65 -1930 0 -1930 0 0
65 0 65 1930 0 1930 0 0 -65z m-3150 -125 l0 -50 -355 0 -355 0 0 50 0 50 355
0 355 0 0 -50z m2290 0 l0 -50 -1140 0 -1140 0 0 50 0 50 1140 0 1140 0 0 -50z
m860 0 l0 -50 -425 0 -425 0 0 50 0 50 425 0 425 0 0 -50z m-860 -115 l0 -55
-1500 0 -1500 0 0 55 0 55 1500 0 1500 0 0 -55z m860 0 l0 -55 -425 0 -425 0
0 55 0 55 425 0 425 0 0 -55z m-8060 -95 l0 -30 -427 2 -428 3 -3 28 -3 27
430 0 431 0 0 -30z m910 19 c0 -5 5 -7 10 -4 13 8 13 -1 0 -26 -10 -18 -26
-19 -460 -19 l-450 0 0 30 0 30 450 0 c310 0 450 -3 450 -11z m880 -19 l0 -30
-424 0 c-234 0 -427 4 -430 8 -3 5 -2 18 1 30 l5 22 424 0 424 0 0 -30z m914
24 c9 -3 13 -10 10 -15 -3 -5 0 -9 6 -9 6 0 8 -5 5 -10 -4 -6 -11 -8 -16 -5
-5 4 -9 1 -9 -4 0 -8 -140 -11 -450 -11 l-450 0 0 30 0 30 444 0 c244 0 451
-3 460 -6z m876 -24 l0 -30 -423 0 -423 0 2 28 c1 15 2 28 3 30 0 1 190 2 421
2 l420 0 0 -30z m915 10 c-4 -11 -2 -20 4 -20 6 0 11 -4 11 -10 0 -7 -160 -10
-460 -10 l-460 0 0 30 0 30 456 0 c451 0 455 0 449 -20z m875 -10 l0 -30 -426
0 c-371 0 -425 2 -421 15 4 8 2 17 -3 20 -35 22 23 25 420 25 l430 0 0 -30z
m910 15 c0 -8 6 -15 14 -15 8 0 17 -6 19 -12 3 -8 6 -6 6 5 1 10 -6 17 -16 18
-15 0 -15 2 2 9 11 5 208 9 438 9 l417 1 0 -30 0 -30 -421 0 c-271 0 -427 4
-440 10 -13 7 -19 7 -19 0 0 -7 -146 -10 -450 -10 l-450 0 0 30 0 30 450 0
c393 0 450 -2 450 -15z"/>
<path d="M363 6218 c4 -10 2 -18 -3 -18 -6 0 -10 -4 -10 -8 0 -4 9 -8 19 -8
16 0 18 4 9 21 -14 27 -23 34 -15 13z"/>
<path d="M10213 6207 c-9 -19 -8 -23 8 -23 11 0 19 4 19 8 0 4 -4 8 -10 8 -5
0 -7 7 -4 15 10 24 -2 17 -13 -8z"/>
<path d="M700 5005 l0 -1545 -45 0 -45 0 0 -45 c0 -41 -2 -45 -25 -45 l-25 0
0 -850 0 -850 185 0 185 0 0 -110 0 -110 1935 0 1935 0 0 65 0 65 1775 0 1775
0 0 140 0 140 185 0 185 0 0 1460 0 1460 -351 0 c-320 0 -351 1 -345 16 6 17
-9 44 -25 44 -5 0 -10 -15 -10 -32 l-2 -33 -7 35 c-7 32 -14 21 -13 -17 1 -7
-4 -13 -9 -13 -6 0 -7 11 -4 24 3 14 2 28 -4 31 -6 4 -10 -8 -11 -27 -1 -18
-3 -25 -6 -15 -2 9 -9 17 -14 17 -6 0 -7 -5 -3 -12 4 -7 3 -8 -4 -4 -6 4 -9
13 -6 21 4 8 10 12 15 9 5 -3 9 0 9 5 0 6 -4 11 -9 11 -16 0 -31 -27 -25 -44
5 -12 0 -16 -20 -16 -23 0 -26 4 -26 34 0 26 5 35 23 40 12 3 196 6 410 6
l387 0 0 230 0 230 -1750 0 -1750 0 0 95 0 95 -705 0 -705 0 0 385 0 384 -112
3 -113 3 -2 45 c-2 34 0 40 7 25 7 -16 9 -17 9 -3 1 9 -3 20 -9 23 -5 3 -10
44 -10 91 l0 84 -1415 0 -1415 0 0 -1545z m2820 1455 c0 -47 -4 -80 -10 -80
-5 0 -10 -10 -9 -22 0 -22 1 -22 9 -3 7 15 9 9 7 -24 -2 -44 -27 -73 -27 -32
0 27 -26 27 -33 1 -3 -12 -13 -20 -24 -19 -17 1 -17 2 0 6 14 4 16 11 11 40
-5 25 -3 38 7 44 11 7 10 9 -3 9 -12 0 -18 -8 -18 -24 0 -14 -4 -36 -10 -50
l-10 -26 -150 0 -150 0 0 -139 0 -139 128 -3 c161 -5 311 3 265 13 -18 4 -33
13 -33 19 0 8 5 7 17 -2 14 -12 16 -12 12 0 -8 25 -28 24 -38 -1 -10 -23 -10
-23 -10 5 -1 35 -31 38 -31 2 0 -22 -4 -25 -35 -25 -33 0 -35 2 -35 34 0 42
11 46 153 46 l107 0 0 -290 0 -290 -275 0 -275 0 0 -205 0 -205 -60 0 -60 0 0
430 0 430 -940 0 -940 0 0 -845 0 -845 185 0 185 0 0 -40 c0 -39 -1 -40 -34
-40 -26 0 -36 5 -41 20 -8 26 -25 26 -32 1 -4 -15 -16 -21 -47 -24 -22 -2 3
-4 57 -5 l97 -2 0 -45 0 -45 -97 -2 -98 -2 98 -3 97 -4 0 -39 0 -40 -97 -2
-98 -2 98 -3 97 -4 0 -39 c0 -39 -1 -40 -34 -40 -31 0 -33 2 -28 26 4 20 1 25
-9 22 -8 -3 -14 -14 -13 -26 0 -12 -3 -19 -8 -16 -4 3 -8 14 -8 25 0 10 -4 19
-10 19 -5 0 -9 -10 -7 -22 2 -20 -4 -24 -38 -29 -27 -4 -7 -7 58 -8 l97 -1 0
-41 c0 -39 -1 -40 -32 -37 -25 2 -34 8 -36 26 -2 12 -7 20 -12 17 -5 -3 -7
-12 -3 -20 3 -8 0 -15 -6 -15 -6 0 -11 10 -11 22 0 12 -3 18 -7 14 -4 -4 -8
-15 -8 -24 0 -12 -12 -19 -40 -23 -27 -4 -7 -7 58 -8 l97 -1 0 -41 c0 -39 -1
-40 -32 -37 -28 2 -32 7 -30 26 2 15 -2 22 -12 22 -9 0 -16 -5 -16 -11 0 -5 5
-7 11 -3 7 4 10 1 7 -6 -8 -24 -28 -23 -28 1 0 12 -3 19 -7 15 -4 -4 -8 -15
-8 -24 0 -12 -12 -19 -40 -23 -27 -4 -7 -7 58 -8 l97 -1 0 -40 c0 -38 -2 -40
-30 -40 -23 0 -30 5 -30 19 0 26 -16 35 -24 14 -4 -9 -1 -20 6 -25 10 -7 10
-9 -2 -6 -8 3 -17 15 -21 29 -7 23 -10 21 -13 -11 -1 -9 -16 -17 -41 -21 -27
-4 -7 -7 58 -8 l97 -1 0 -40 c0 -38 -2 -40 -30 -40 -20 0 -30 5 -30 15 0 8 -6
15 -12 15 -9 0 -8 4 2 10 13 8 12 10 -2 10 -20 0 -24 -26 -5 -33 7 -3 5 -6 -5
-6 -12 -1 -18 6 -18 21 0 12 -3 18 -7 14 -4 -4 -8 -15 -8 -24 0 -12 -12 -19
-40 -23 -27 -4 -7 -7 58 -8 l97 -1 0 -40 c0 -38 -2 -40 -30 -40 -28 0 -36 11
-31 43 3 17 -20 5 -29 -15 l-9 -23 0 24 c-1 27 -16 20 -16 -7 0 -15 -27 -17
-302 -20 l-303 -2 0 1540 0 1540 1405 0 1405 0 0 -80z m-180 -320 l0 -130
-110 0 -110 0 0 130 0 130 110 0 110 0 0 -130z m176 85 c1 -32 1 -34 -3 -7 -4
27 -7 30 -18 19 -7 -7 -15 -22 -18 -33 -4 -16 -5 -16 -6 4 -1 12 -7 22 -16 22
-9 0 -15 -10 -16 -22 -1 -17 -2 -19 -6 -5 -2 9 -9 17 -14 17 -5 0 -9 5 -9 11
0 5 5 7 10 4 6 -3 10 -1 10 5 0 23 -25 3 -28 -23 -3 -21 -9 -27 -28 -27 -21 0
-24 5 -24 34 0 41 9 45 100 43 l65 -2 1 -40z m234 -335 l0 -380 -65 0 -65 0 0
295 0 295 -80 0 c-47 0 -80 4 -80 10 0 6 6 10 13 10 8 0 8 3 -2 9 -8 5 -21 6
-30 3 -10 -4 -11 -7 -3 -10 29 -9 8 -22 -38 -22 l-50 0 0 34 c0 40 13 46 113
46 l67 0 0 38 c0 21 3 42 7 45 3 4 53 7 110 7 l103 0 0 -380z m-293 308 c-3
-8 -6 -5 -6 6 -1 11 2 17 5 13 3 -3 4 -12 1 -19z m-20 -170 c-3 -8 -6 -5 -6 6
-1 11 2 17 5 13 3 -3 4 -12 1 -19z m-507 -508 l0 -430 65 0 66 0 -3 -132 -3
-133 -42 -1 c-24 -1 -43 2 -43 8 0 5 5 6 10 3 6 -3 10 2 11 12 0 16 1 16 9 -2
8 -19 9 -19 9 3 1 13 -5 22 -14 22 -8 0 -15 -5 -15 -11 0 -8 -6 -7 -17 2 -11
10 -14 10 -9 2 4 -8 2 -13 -6 -14 -10 0 -10 -2 0 -6 24 -10 11 -23 -23 -23
l-35 0 0 160 0 160 -730 0 -730 0 0 -160 0 -160 -35 0 c-21 0 -35 5 -36 13 0
10 -2 10 -6 0 -7 -20 -19 -15 -19 8 0 14 5 19 18 16 10 -3 18 -1 18 4 0 5 -13
9 -30 9 -19 0 -28 -4 -25 -12 8 -22 -9 -36 -45 -41 -19 -2 9 -5 63 -5 l97 -2
0 -40 c0 -38 -2 -40 -30 -40 -25 0 -30 4 -30 23 0 20 -5 24 -29 25 -19 0 -28
-4 -26 -11 8 -21 -9 -35 -45 -40 -19 -2 9 -5 63 -5 l97 -2 0 -85 0 -85 -29 0
c-43 0 -61 10 -61 33 0 11 -3 17 -7 13 -4 -4 -8 -15 -8 -24 0 -13 -12 -19 -45
-23 -32 -4 -18 -6 53 -7 l97 -2 0 -40 c0 -38 -1 -40 -32 -40 -18 0 -40 4 -48
10 -8 5 -19 5 -25 0 -6 -5 -28 -10 -50 -13 -22 -2 4 -4 58 -5 l97 -2 0 -40 0
-40 -41 0 c-22 0 -38 3 -35 8 2 4 -2 15 -9 25 -12 16 -13 16 -19 1 -4 -10 -1
-21 6 -25 7 -4 -11 -9 -42 -12 -35 -2 -20 -4 43 -5 l97 -2 0 -40 c0 -39 -1
-40 -34 -40 -26 0 -36 5 -41 20 -7 22 -20 26 -30 10 -3 -5 2 -10 12 -11 16 0
16 -1 -2 -9 -11 -5 -75 -9 -142 -9 l-123 -1 0 835 0 835 930 0 930 0 0 -430z
m680 -220 l0 -200 -270 0 -270 0 0 200 0 200 270 0 270 0 0 -200z m140 0 l0
-200 -65 0 -65 0 0 200 0 200 65 0 65 0 0 -200z m1410 110 l0 -90 -595 0 -595
0 0 -110 0 -110 -105 0 -105 0 0 200 0 200 700 0 700 0 0 -90z m0 -230 l0
-130 -40 0 -40 0 0 45 0 45 -280 0 c-273 0 -280 0 -280 -20 0 -20 -7 -20 -270
-20 l-270 0 0 105 0 105 590 0 590 0 0 -130z m3500 -90 l0 -220 -318 0 c-251
0 -322 3 -337 13 -18 14 -13 43 6 32 15 -10 10 1 -7 15 -8 8 -14 9 -13 4 4
-23 -2 -26 -21 -9 -18 17 -19 16 -26 -9 -3 -15 -4 -30 0 -33 3 -4 6 1 6 10 0
9 7 17 15 17 8 0 15 -2 15 -4 0 -2 2 -10 5 -18 4 -9 -5 -14 -30 -15 -24 -1
-35 3 -35 12 0 8 -5 17 -11 21 -8 4 -9 0 -4 -15 l6 -21 -260 0 -261 0 0 -460
0 -460 228 -2 c125 0 266 0 315 2 l87 2 0 -906 0 -906 -1085 0 -1085 0 0 315
0 315 90 0 90 0 0 90 0 90 48 1 c38 0 43 2 25 9 -16 7 -23 18 -23 36 0 23 -2
25 -15 14 -13 -11 -13 -15 -3 -22 10 -6 10 -10 -2 -18 -27 -18 -30 -11 -30 80
l0 90 -90 0 -90 0 0 250 0 250 -135 0 -135 0 0 635 0 635 -250 0 -250 0 0 65
0 65 45 0 45 0 0 135 0 135 1745 0 1745 0 0 -220z m-5780 -1455 l0 -1495 -720
0 -720 0 0 1495 0 1495 720 0 720 0 0 -1495z m2190 1045 l0 -450 -270 0 -270
0 0 450 0 450 270 0 270 0 0 -450z m-1460 320 l0 -90 -90 0 -90 0 0 -135 0
-135 -40 0 -40 0 0 90 0 89 -137 3 -138 3 -3 133 -3 132 271 0 270 0 0 -90z
m140 0 l0 -90 -65 0 -65 0 0 90 0 90 65 0 65 0 0 -90z m220 0 l0 -90 -105 0
-105 0 0 90 0 90 105 0 105 0 0 -90z m550 45 l0 -45 -47 -2 -48 -2 48 -3 47
-4 0 -40 0 -39 -270 0 -270 0 0 90 0 90 270 0 270 0 0 -45z m-912 -272 l-3
-128 -82 -3 -83 -3 0 131 0 130 85 0 86 0 -3 -127z m142 -3 l0 -131 -62 3 -63
3 -3 128 -3 127 66 0 65 0 0 -130z m220 0 l0 -130 -105 0 -105 0 0 130 0 130
105 0 105 0 0 -130z m550 90 l0 -40 -47 -2 -48 -2 48 -3 47 -4 0 -40 0 -39
-47 -2 -48 -2 48 -3 47 -4 0 -40 0 -39 -47 -2 -48 -2 48 -3 47 -4 0 -40 0 -39
-47 -2 -48 -2 48 -3 47 -4 0 -40 0 -39 -47 -2 -48 -2 48 -3 47 -4 0 -40 0 -39
-47 -2 -48 -2 48 -3 47 -4 0 -40 0 -39 -47 -2 -48 -2 48 -3 c42 -4 47 -7 47
-29 l0 -24 135 0 135 0 0 -290 0 -290 -515 0 -515 0 0 495 0 495 110 0 110 0
0 135 0 135 270 0 270 0 0 -40z m1050 -590 l0 -630 -385 0 -385 0 0 290 0 290
140 0 140 0 0 25 c0 24 3 25 68 27 l67 2 -67 3 -68 4 0 39 0 40 48 2 47 2 -47
3 -48 4 0 40 0 39 48 2 47 2 -47 3 -48 4 0 40 0 39 48 2 47 2 -47 3 -48 4 0
40 0 39 48 2 47 2 -47 3 -48 4 0 40 0 39 48 2 47 2 -47 3 -48 4 0 40 0 39 48
2 47 2 -47 3 -48 4 0 40 0 39 245 0 245 0 0 -630z m2270 140 l0 -450 -220 0
-220 0 0 450 0 450 220 0 220 0 0 -450z m173 405 c4 -8 2 -17 -3 -20 -6 -4
-10 3 -10 14 0 25 6 27 13 6z m-4673 -90 l0 -85 -165 0 c-140 0 -165 2 -165
15 0 8 -6 15 -12 15 -9 0 -8 4 2 10 8 5 10 10 5 10 -6 0 -17 -6 -24 -12 -11
-10 -13 -10 -7 0 5 8 0 12 -16 12 -13 0 -18 -4 -13 -8 13 -9 18 -35 5 -27 -5
3 -10 1 -10 -4 0 -6 -11 -11 -25 -11 -22 0 -25 4 -25 40 l0 40 93 1 c76 1 84
3 47 9 -25 4 -49 5 -54 2 -5 -3 -6 0 -2 7 5 7 14 10 22 7 9 -3 14 2 14 14 0
16 -7 20 -37 20 -29 0 -34 -3 -25 -12 15 -15 16 -32 2 -23 -5 3 -10 1 -10 -4
0 -6 -11 -11 -25 -11 -22 0 -25 4 -25 39 l0 40 225 0 225 1 0 -85z m5370
-1405 l0 -1450 -180 0 -180 0 0 40 0 40 90 0 90 0 0 1095 0 1095 -90 0 -90 0
0 90 0 90 -164 0 -164 0 -21 33 -21 32 0 -27 c0 -16 -4 -28 -9 -28 -5 0 -12
12 -14 28 -4 25 -4 25 -6 -5 0 -18 -6 -33 -12 -33 -5 0 -7 5 -4 10 4 6 1 9 -6
8 -19 -4 -23 29 -4 35 12 4 11 5 -2 3 -13 -1 -18 -10 -18 -29 1 -29 1 -30 -32
-21 -18 5 -23 14 -23 40 l0 34 93 2 c65 1 74 3 32 5 -116 6 -125 9 -125 48 l0
35 93 2 c65 1 74 3 32 5 -115 6 -125 10 -125 47 0 40 13 45 115 46 66 1 68 2
40 14 -21 9 -32 10 -38 2 -6 -7 -7 -5 -4 5 3 9 1 22 -4 30 -7 12 -9 12 -9 0 0
-11 -3 -11 -15 -1 -13 11 -15 8 -15 -14 0 -23 -4 -26 -35 -26 -33 0 -35 2 -35
34 0 40 13 46 111 46 71 0 66 -4 60 53 -1 4 -8 7 -16 7 -9 0 -15 -10 -16 -27
l-1 -28 -8 30 c-4 17 -8 24 -9 16 -1 -11 -4 -11 -16 -1 -13 11 -15 8 -16 -16
-1 -17 -3 -22 -6 -11 -2 9 -9 17 -14 17 -6 0 -7 -5 -3 -12 5 -7 3 -8 -6 -3
-10 6 -9 11 5 22 17 12 17 13 2 13 -16 0 -21 -11 -18 -37 1 -8 -9 -13 -24 -13
-22 0 -25 4 -25 34 0 24 5 36 18 39 9 3 203 5 430 6 l412 1 0 -1450z m-7365
1412 c-3 -3 -11 0 -18 7 -9 10 -8 11 6 5 10 -3 15 -9 12 -12z m6670 -11 c3 -5
1 -12 -5 -16 -5 -3 -10 1 -10 9 0 18 6 21 15 7z m-50 -21 c3 -5 1 -10 -4 -10
-6 0 -11 5 -11 10 0 6 2 10 4 10 3 0 8 -4 11 -10z m-4625 -385 l0 -315 -225 0
-225 0 0 270 0 270 93 2 c50 0 77 3 60 5 -20 3 -33 10 -33 19 0 8 -6 14 -12
14 -9 0 -8 4 2 10 11 7 4 10 -25 9 -22 0 -34 -3 -27 -6 6 -2 10 -9 6 -14 -5
-9 9 -13 36 -9 8 1 12 -1 8 -5 -3 -3 -29 -8 -57 -11 l-51 -5 0 41 0 40 225 0
225 0 0 -315z m90 0 l0 -315 -40 0 -40 0 0 315 0 315 40 0 40 0 0 -315z m320
-181 l0 -494 -200 0 -200 0 0 175 0 175 45 0 45 0 0 320 0 319 155 0 155 -1 0
-494z m4195 476 c3 -5 1 -10 -4 -10 -6 0 -11 5 -11 10 0 6 2 10 4 10 3 0 8 -4
11 -10z m60 -280 c3 -5 1 -10 -4 -10 -6 0 -11 5 -11 10 0 6 2 10 4 10 3 0 8
-4 11 -10z m335 -105 l0 -85 -110 0 -110 0 0 45 0 45 -49 0 c-47 0 -50 1 -56
32 -7 28 -8 29 -18 13 -7 -14 -7 -20 1 -23 19 -6 14 -21 -6 -19 -12 0 -17 9
-17 25 0 14 -6 27 -12 29 -9 3 -13 -6 -13 -26 0 -17 -4 -31 -10 -31 -5 0 -7 7
-4 15 4 9 -1 18 -12 22 -16 6 -16 7 2 14 17 7 17 8 -3 8 -24 1 -32 -24 -10
-32 24 -9 -9 -28 -37 -21 -22 5 -26 12 -26 40 l0 34 245 0 245 0 0 -85z m-373
33 c-3 -8 -6 -5 -6 6 -1 11 2 17 5 13 3 -3 4 -12 1 -19z m143 -78 l0 -40 -55
0 c-41 0 -55 4 -55 14 0 8 -6 17 -12 19 -10 4 -10 8 0 15 10 6 1 9 -27 9 -38
0 -41 -2 -41 -28 0 -26 -3 -29 -35 -29 -34 0 -35 1 -35 40 l0 40 130 0 130 0
0 -40z m-160 6 c0 -3 -4 -8 -10 -11 -5 -3 -10 -1 -10 4 0 6 5 11 10 11 6 0 10
-2 10 -4z m38 -31 c-13 -10 -58 -13 -58 -5 0 6 4 9 9 6 5 -3 12 1 15 10 5 13
9 14 21 4 9 -7 14 -14 13 -15z m122 -65 l0 -40 -51 0 c-51 0 -51 0 -47 30 3
19 0 30 -7 30 -7 0 -10 -11 -7 -30 3 -18 0 -30 -7 -30 -10 0 -15 20 -12 48 1
6 -3 12 -8 12 -17 0 -23 -20 -11 -35 12 -15 11 -16 -17 -15 -5 0 -8 10 -8 23
0 13 -7 23 -17 25 -14 3 -18 -3 -18 -27 0 -26 -4 -31 -25 -31 -22 0 -25 4 -25
40 l0 40 130 0 130 0 0 -40z m230 -1045 l0 -1085 -60 0 -60 0 0 1045 0 1045
-50 0 -50 0 0 40 0 40 110 0 110 0 0 -1085z m180 0 l0 -1085 -85 0 -85 0 0
1085 0 1085 85 0 85 0 0 -1085z m-590 1045 c0 -5 -4 -10 -10 -10 -5 0 -10 5
-10 10 0 6 5 10 10 10 6 0 10 -4 10 -10z m-5 -30 c3 -5 1 -10 -4 -10 -6 0 -11
5 -11 10 0 6 2 10 4 10 3 0 8 -4 11 -10z m185 -1040 l0 -1020 -1130 0 -1130 0
0 65 0 65 1090 0 1090 0 0 915 c0 807 -2 915 -15 915 -8 0 -15 7 -15 15 0 8
-4 15 -10 15 -5 0 -10 5 -10 11 0 5 5 7 12 3 6 -4 8 -3 5 3 -4 6 -21 10 -39 9
-27 -1 -33 -6 -35 -26 l-3 -25 10 23 c10 23 10 23 34 5 l24 -18 -37 -7 c-20
-4 -51 -7 -68 -7 -31 -1 -33 1 -33 33 0 43 3 43 148 45 l112 1 0 -1020z m100
-20 l0 -1040 -1180 0 c-1042 0 -1180 2 -1180 15 0 13 133 15 1135 15 l1135 0
0 1025 0 1025 45 0 45 0 0 -1040z m-4870 810 l0 -180 205 0 205 0 0 -130 0
-130 -371 0 c-362 0 -371 0 -376 20 -4 14 -14 20 -35 20 -18 0 -27 -4 -23 -11
4 -6 13 -8 21 -5 7 3 16 2 18 -3 3 -4 0 -8 -7 -9 -7 0 -29 -4 -49 -8 l-38 -7
0 42 0 41 93 2 c50 0 78 3 60 5 -23 3 -33 10 -35 25 -2 14 -11 22 -30 24 -15
1 -30 -2 -33 -7 -6 -8 8 -13 28 -10 4 0 7 -4 7 -10 0 -6 -7 -9 -15 -6 -8 4
-17 2 -20 -3 -4 -6 -17 -10 -31 -10 -21 0 -24 4 -24 40 l0 40 93 2 c50 0 76 3
57 5 -19 3 -38 10 -42 16 -6 9 -8 9 -8 -1 0 -9 -5 -10 -19 -2 -13 7 -22 7 -26
0 -3 -5 -17 -10 -31 -10 -21 0 -24 4 -24 40 l0 40 93 2 c50 0 77 3 60 5 -20 3
-33 10 -33 19 0 8 -6 14 -12 14 -10 0 -9 3 1 9 9 6 4 8 -17 7 -17 -1 -34 -5
-39 -10 -4 -5 -3 -6 5 -2 6 4 12 2 12 -4 0 -6 5 -8 10 -5 6 3 10 1 10 -5 0 -7
-7 -10 -15 -7 -8 4 -17 2 -20 -3 -4 -6 -17 -10 -31 -10 -21 0 -24 4 -24 40 l0
40 93 2 c50 0 77 3 60 5 -20 3 -33 10 -33 19 0 8 -6 14 -12 14 -9 0 -8 3 2 10
10 6 5 9 -18 8 -18 -1 -35 -6 -39 -11 -3 -6 -1 -7 5 -3 7 4 12 2 12 -4 0 -6 5
-8 10 -5 6 3 10 1 10 -5 0 -7 -7 -10 -15 -7 -8 4 -17 2 -20 -3 -4 -6 -17 -10
-31 -10 -21 0 -24 4 -24 40 l0 40 93 2 c50 0 77 3 60 5 -24 3 -33 9 -33 23 0
10 -5 22 -12 26 -7 4 -8 3 -4 -4 4 -7 3 -12 -3 -12 -5 0 -13 5 -16 10 -3 6
-14 9 -23 9 -15 -1 -14 -2 1 -6 18 -5 18 -6 1 -24 -9 -10 -28 -19 -41 -19 -20
0 -23 5 -23 40 l0 40 93 1 c58 1 79 4 57 8 -29 5 -34 10 -32 28 3 18 -2 21
-35 20 -21 0 -30 -2 -20 -5 18 -4 18 -5 1 -23 -9 -10 -28 -19 -41 -19 -20 0
-23 5 -23 40 l0 40 225 0 225 0 0 -180z m-342 128 c-3 -7 -13 -15 -24 -17 -16
-3 -17 -1 -5 13 16 19 34 21 29 4z m2 -110 c0 -6 -7 -7 -16 -4 -9 3 -18 6 -20
6 -3 0 -3 4 1 10 7 11 35 2 35 -12z m1790 -943 l0 -745 -950 0 -950 0 0 515 0
515 93 2 92 2 -92 3 -93 4 0 44 0 45 93 1 c59 1 79 4 57 8 -26 5 -34 11 -32
24 2 13 -4 17 -33 17 -22 0 -34 -4 -30 -10 3 -6 18 -7 33 -4 15 4 23 3 19 -2
-8 -8 -10 -9 -69 -20 l-38 -7 0 42 0 41 435 0 435 0 0 135 0 135 515 0 515 0
0 -745z m780 405 l0 -340 45 0 45 0 0 -90 0 -90 90 0 c91 0 102 -5 81 -39 -6
-9 -11 -10 -15 -2 -10 16 -36 13 -36 -4 0 -8 5 -15 11 -15 5 0 7 5 4 10 -10
16 7 12 27 -7 17 -15 18 -37 18 -295 l0 -278 -520 0 -520 0 0 745 0 745 385 0
385 0 0 -340z m270 119 c0 -177 -3 -220 -13 -216 -7 3 -21 -1 -30 -8 -17 -12
-17 -13 0 -19 10 -4 19 -2 21 3 6 19 22 12 22 -9 0 -19 -7 -20 -90 -20 l-90 0
0 -90 c0 -73 -3 -90 -15 -90 -8 0 -15 9 -15 20 0 11 -5 20 -11 20 -5 0 -7 -5
-3 -11 6 -10 -12 -29 -28 -29 -5 0 -8 151 -8 335 l0 335 130 0 130 0 0 -221z
m-5140 1 l0 -40 -40 0 -40 0 0 40 0 40 40 0 40 0 0 -40z m730 0 c0 -39 -1 -40
-36 -40 -31 0 -35 3 -29 20 5 15 2 20 -12 20 -12 0 -14 -3 -6 -8 8 -5 9 -12 2
-22 -7 -12 -10 -11 -15 8 -7 26 -26 30 -22 5 3 -17 -18 -18 -299 -21 l-303 -2
0 40 0 40 360 0 360 0 0 -40z m-820 -665 l0 -615 90 0 90 0 0 -90 0 -90 70 0
70 0 0 -135 0 -135 -180 0 -180 0 0 840 c0 833 0 840 20 840 20 0 20 -7 20
-615z m90 65 l0 -550 45 0 45 0 0 -60 0 -60 -85 0 -85 0 0 610 0 610 40 0 40
0 0 -550z m730 510 c0 -38 -2 -40 -30 -40 -23 0 -30 4 -30 20 0 12 -7 20 -16
20 -11 0 -15 -6 -11 -20 3 -11 1 -18 -4 -14 -5 3 -9 12 -9 20 0 8 -5 14 -10
14 -6 0 -10 -8 -8 -17 3 -16 -9 -18 -124 -21 l-128 -3 0 -49 0 -50 -115 0
-115 0 0 -270 c0 -263 0 -270 -20 -270 -19 0 -20 -7 -20 -185 l0 -185 -40 0
-40 0 0 545 0 545 360 0 360 0 0 -40z m0 -95 l0 -45 -180 0 -180 0 0 45 0 45
180 0 180 0 0 -45z m-370 -185 l0 -130 -65 0 -65 0 0 -135 0 -135 -45 0 -45 0
0 265 0 265 110 0 110 0 0 -130z m370 0 l0 -130 -39 0 c-35 0 -38 2 -36 25 3
20 -1 25 -18 25 -16 0 -18 -3 -9 -12 15 -15 16 -32 2 -23 -5 3 -10 1 -10 -4 0
-7 -44 -11 -125 -11 l-125 0 0 130 0 130 180 0 180 0 0 -130z m4590 -25 c0
-108 -1 -115 -20 -115 -11 0 -20 6 -21 13 0 10 -2 10 -6 0 -2 -7 -13 -13 -23
-13 -24 0 -70 -21 -70 -32 0 -4 7 -8 16 -8 8 0 12 -5 9 -10 -4 -6 -11 -8 -16
-4 -7 4 -8 -7 -4 -30 l7 -36 -111 0 -111 0 0 175 0 175 175 0 175 0 0 -115z
m-4960 -245 l0 -130 -60 0 -60 0 0 130 0 130 60 0 60 0 0 -130z m370 90 c0
-40 0 -40 -38 -40 -34 0 -38 3 -38 23 1 13 -5 22 -14 22 -8 0 -15 -9 -15 -20
0 -16 -9 -21 -45 -26 -32 -4 -17 -6 53 -7 l97 -2 0 -40 c0 -38 -2 -40 -30 -40
-20 0 -30 5 -30 15 0 8 -5 15 -11 15 -5 0 -7 -4 -4 -10 3 -5 -1 -10 -9 -10
-10 0 -16 9 -16 22 0 12 -3 18 -7 14 -4 -4 -8 -15 -8 -24 0 -12 -12 -19 -40
-23 -27 -4 -7 -7 58 -8 l97 -1 0 -40 c0 -38 -2 -40 -30 -40 -25 0 -30 4 -30
25 0 31 -18 33 -30 3 l-9 -23 0 24 c-1 27 -16 20 -16 -7 0 -15 -16 -17 -122
-20 l-123 -3 0 131 0 130 180 0 180 0 0 -40z m4518 5 c15 -33 16 -32 -10 -38
-32 -9 -42 2 -21 26 10 11 12 17 6 13 -14 -7 -18 6 -6 17 12 12 20 7 31 -18z
m22 3 c0 -19 -2 -20 -10 -8 -13 19 -13 30 0 30 6 0 10 -10 10 -22z m25 0 c-5
-21 -5 -21 9 2 l15 25 1 -32 c0 -35 -23 -46 -34 -17 -9 24 -7 44 5 44 6 0 8
-9 4 -22z m25 -68 c0 -16 -7 -20 -30 -20 -28 0 -29 2 -18 20 7 11 21 20 30 20
11 0 18 -8 18 -20z m-5190 -350 c0 -153 -2 -180 -15 -180 -13 0 -15 27 -15
180 0 153 2 180 15 180 13 0 15 -27 15 -180z m100 0 l0 -180 -45 0 -45 0 0
180 0 180 45 0 45 0 0 -180z m130 0 l0 -180 -60 0 -60 0 0 180 0 180 60 0 60
0 0 -180z m370 140 c0 -38 -2 -40 -30 -40 -20 0 -30 5 -30 15 0 8 -5 15 -11
15 -5 0 -7 -5 -3 -11 4 -6 -1 -10 -12 -8 -11 1 -26 -1 -34 -4 -8 -3 -28 -8
-45 -10 -16 -2 14 -5 68 -6 l97 -1 0 -40 c0 -38 -2 -40 -30 -40 -23 0 -30 4
-30 20 0 16 -7 20 -32 20 -30 0 -31 -1 -12 -15 10 -8 15 -15 9 -14 -5 1 -17
-1 -25 -4 -8 -3 -28 -8 -45 -10 -16 -2 14 -5 68 -6 l97 -1 0 -40 c0 -38 -2
-40 -30 -40 -23 0 -30 4 -30 20 0 16 -7 20 -31 20 -26 0 -30 -2 -19 -15 12
-15 6 -18 -60 -28 -14 -3 19 -5 73 -6 l97 -1 0 -45 0 -44 -180 0 -180 0 0 180
0 179 180 0 180 0 0 -40z m-75 -200 c3 -5 1 -10 -4 -10 -6 0 -11 5 -11 10 0 6
2 10 4 10 3 0 8 -4 11 -10z m-525 -190 c0 -47 -3 -60 -15 -60 -12 0 -15 13
-15 60 0 47 3 60 15 60 12 0 15 -13 15 -60z m100 0 l0 -60 -45 0 -45 0 0 60 0
60 45 0 45 0 0 -60z m130 0 l0 -60 -60 0 -60 0 0 60 0 60 60 0 60 0 0 -60z
m178 -2 l3 -58 -86 0 -85 0 0 60 0 61 83 -3 82 -3 3 -57z m192 2 l0 -60 -90 0
-90 0 0 53 c0 30 3 57 7 60 3 4 44 7 90 7 l83 0 0 -60z m-600 -140 l0 -70 50
0 c38 0 50 -4 50 -15 0 -12 -14 -15 -65 -15 l-65 0 0 85 c0 69 3 85 15 85 12
0 15 -14 15 -70z m100 5 l0 -65 -45 0 -45 0 0 65 0 65 45 0 45 0 0 -65z m130
0 l0 -65 -60 0 -60 0 0 65 0 65 60 0 60 0 0 -65z m180 0 l0 -65 -85 0 -85 0 0
65 0 65 85 0 85 0 0 -65z m190 20 l0 -45 730 0 730 0 0 45 0 45 950 0 950 0 0
-65 0 -65 -1770 0 -1770 0 0 65 0 65 90 0 90 0 0 -45z m1450 5 l0 -40 -720 0
-720 0 0 40 0 40 720 0 720 0 0 -40z m2960 -25 l0 -65 -520 0 -520 0 0 65 0
65 520 0 520 0 0 -65z m-4780 -90 c0 -12 -13 -15 -60 -15 -47 0 -60 3 -60 15
0 12 13 15 60 15 47 0 60 -3 60 -15z m180 0 c0 -12 -16 -15 -85 -15 -69 0 -85
3 -85 15 0 12 16 15 85 15 69 0 85 -3 85 -15z m3550 0 c0 -13 -203 -15 -1770
-15 -1567 0 -1770 2 -1770 15 0 13 203 15 1770 15 1567 0 1770 -2 1770 -15z
m1050 0 c0 -13 -64 -15 -520 -15 -456 0 -520 2 -520 15 0 13 64 15 520 15 456
0 520 -2 520 -15z m-4780 -160 l0 -135 -60 0 -60 0 0 135 0 135 60 0 60 0 0
-135z m179 88 c-1 -27 -2 -78 -1 -115 l2 -68 1775 0 c1768 0 1775 0 1775 -20
0 -20 -7 -20 -1860 -20 l-1860 0 0 135 0 135 86 0 86 0 -3 -47z m3551 7 l0
-40 -1767 2 -1768 3 -3 38 -3 37 1770 0 1771 0 0 -40z m1050 0 l0 -40 -520 0
-520 0 0 40 0 40 520 0 520 0 0 -40z m2370 0 l0 -40 -1180 0 -1180 0 0 40 0
40 1180 0 1180 0 0 -40z m130 0 l0 -40 -60 0 -60 0 0 40 0 40 60 0 60 0 0 -40z
m-3550 -115 l0 -65 -1770 0 -1770 0 0 58 c0 32 3 62 7 65 3 4 800 7 1770 7
l1763 0 0 -65z m1050 0 l0 -65 -520 0 -520 0 0 65 0 65 520 0 520 0 0 -65z
m2370 -25 l0 -90 -1705 0 c-1698 0 -1705 0 -1705 20 0 20 7 20 525 20 l525 0
0 70 0 70 1180 0 1180 0 0 -90z m130 -45 l0 -135 -1770 0 -1770 0 0 40 0 40
1710 0 1710 0 0 95 0 95 60 0 60 0 0 -135z m-7280 -100 l0 -45 1865 0 1865 0
0 -60 0 -60 -1925 0 -1925 0 0 105 0 105 60 0 60 0 0 -45z m3730 5 l0 -40
-1860 0 -1860 0 0 40 0 40 1860 0 1860 0 0 -40z"/>
<path d="M3338 6460 c-3 -16 -1 -30 4 -30 4 0 8 14 8 30 0 17 -2 30 -4 30 -2
0 -6 -13 -8 -30z"/>
<path d="M3371 6476 c-9 -11 -9 -15 1 -19 10 -4 10 -8 -2 -16 -13 -9 -12 -11
6 -11 17 0 20 5 16 30 -5 34 -6 35 -21 16z"/>
<path d="M2990 6380 c0 -6 8 -14 17 -17 15 -6 15 -7 -3 -14 -17 -7 -17 -8 4
-8 13 -1 22 5 22 14 0 8 -6 15 -12 15 -9 0 -8 4 2 10 12 8 11 10 -7 10 -13 0
-23 -5 -23 -10z"/>
<path d="M3173 6383 c-18 -7 -16 -43 2 -43 9 0 15 9 15 25 0 14 -1 25 -2 24
-2 0 -9 -3 -15 -6z"/>
<path d="M3040 6360 c0 -11 7 -20 15 -20 8 0 15 9 15 20 0 11 -7 20 -15 20 -8
0 -15 -9 -15 -20z"/>
<path d="M3081 6363 c-1 -14 5 -23 14 -23 9 0 15 9 14 23 0 21 -1 21 -8 2 l-8
-20 -5 20 c-5 18 -6 18 -7 -2z"/>
<path d="M3121 6358 c0 -22 1 -22 8 -3 l8 20 5 -20 c5 -18 6 -18 7 3 1 13 -5
22 -14 22 -9 0 -15 -9 -14 -22z"/>
<path d="M3240 6362 c0 -14 8 -19 30 -19 16 0 27 4 24 9 -3 4 0 8 7 8 10 0 10
3 1 12 -9 9 -15 9 -24 0 -15 -15 -32 -16 -23 -2 3 6 1 10 -4 10 -6 0 -11 -8
-11 -18z"/>
<path d="M3320 6360 c0 -11 5 -20 10 -20 6 0 10 9 10 20 0 11 -4 20 -10 20 -5
0 -10 -9 -10 -20z"/>
<path d="M3359 6378 c-7 -24 -5 -38 6 -38 8 0 13 9 12 20 -1 16 -14 29 -18 18z"/>
<path d="M3390 6360 c0 -11 7 -20 15 -20 8 0 15 9 15 20 0 11 -7 20 -15 20 -8
0 -15 -9 -15 -20z"/>
<path d="M1329 4131 c7 -5 10 -14 7 -20 -4 -6 -5 -11 -2 -11 3 0 10 9 16 20 9
17 8 20 -12 20 -17 0 -19 -3 -9 -9z"/>
<path d="M1326 4042 c-2 -4 -1 -14 4 -22 7 -11 12 -12 21 -3 6 6 8 16 5 22 -8
13 -23 14 -30 3z"/>
<path d="M2127 5509 c-10 -37 -8 -42 9 -25 10 11 12 21 6 32 -8 14 -10 13 -15
-7z"/>
<path d="M2168 5525 c-4 -4 -4 -14 -1 -22 3 -8 0 -19 -8 -24 -10 -6 -5 -9 16
-9 17 0 25 4 19 8 -7 4 -14 18 -15 30 -2 13 -7 21 -11 17z"/>
<path d="M2034 5428 c-4 -6 -2 -14 4 -16 7 -2 12 -8 12 -13 0 -6 -6 -7 -12 -3
-10 6 -10 4 0 -7 9 -10 15 -10 24 -1 8 8 15 8 24 1 8 -7 14 -7 19 1 4 6 1 9
-7 8 -7 -2 -13 4 -13 12 0 8 6 14 13 13 6 -2 12 2 12 7 0 16 -27 12 -34 -5 -3
-9 -12 -12 -22 -8 -16 6 -16 7 2 14 16 6 16 8 2 8 -9 1 -20 -4 -24 -11z"/>
<path d="M2127 5433 c-11 -10 -8 -41 4 -49 7 -4 16 1 21 10 5 9 14 14 19 11 5
-4 6 -11 3 -17 -4 -6 -1 -9 7 -6 19 6 25 58 7 58 -8 0 -19 -5 -26 -12 -9 -9
-12 -9 -12 0 0 13 -13 16 -23 5z m23 -24 c0 -5 -4 -9 -10 -9 -5 0 -10 7 -10
16 0 8 5 12 10 9 6 -3 10 -10 10 -16z"/>
<path d="M2219 5438 c-6 -20 -2 -58 6 -58 7 0 10 12 7 30 -4 25 -9 38 -13 28z"/>
<path d="M2252 5413 c4 -36 33 -39 33 -3 0 16 -7 26 -18 28 -15 3 -18 -2 -15
-25z m28 -7 c0 -3 -4 -8 -10 -11 -5 -3 -10 -1 -10 4 0 6 5 11 10 11 6 0 10 -2
10 -4z"/>
<path d="M1651 5318 c0 -18 3 -27 6 -20 2 6 10 9 16 5 7 -4 22 -9 35 -11 16
-2 22 2 22 18 0 11 -7 20 -15 20 -18 0 -20 -16 -2 -23 6 -3 2 -4 -10 -4 -16 1
-21 7 -20 21 1 12 -5 22 -15 24 -14 3 -18 -3 -17 -30z"/>
<path d="M1821 5324 c-1 -28 2 -31 29 -31 20 0 26 3 18 9 -10 6 -8 8 5 8 9 0
17 5 17 10 0 6 -13 10 -29 10 -16 0 -32 6 -34 13 -3 6 -6 -2 -6 -19z"/>
<path d="M2020 5318 l0 -31 24 26 25 27 4 -28 c4 -26 4 -26 6 4 1 28 -2 31
-29 32 -27 1 -30 -2 -30 -30z m30 18 c0 -3 -4 -8 -10 -11 -5 -3 -10 -1 -10 4
0 6 5 11 10 11 6 0 10 -2 10 -4z"/>
<path d="M2111 5319 c0 -27 2 -30 8 -14 8 19 8 19 19 0 10 -18 11 -16 11 15 0
19 -3 29 -6 22 -4 -10 -8 -10 -19 -1 -12 9 -14 6 -13 -22z"/>
<path d="M2164 5336 c-8 -22 3 -49 19 -43 6 2 12 14 12 27 0 27 -22 39 -31 16z
m26 -16 c0 -11 -4 -20 -10 -20 -5 0 -10 9 -10 20 0 11 5 20 10 20 6 0 10 -9
10 -20z"/>
<path d="M2210 5320 c0 -19 5 -30 14 -30 17 0 28 24 20 45 -11 27 -34 17 -34
-15z m22 -12 c-9 -9 -12 -7 -12 12 0 19 3 21 12 12 9 -9 9 -15 0 -24z"/>
<path d="M2261 5323 c-1 -23 3 -33 14 -33 10 0 15 10 14 33 l-1 32 -8 -30 -7
-30 -5 30 -5 30 -2 -32z"/>
<path d="M2301 5323 c-1 -25 3 -33 17 -33 11 0 13 3 6 8 -7 4 -14 18 -17 32
-4 21 -4 20 -6 -7z"/>
<path d="M2340 5320 c0 -30 1 -30 55 -30 41 0 55 4 55 14 0 8 -6 17 -12 19
-10 4 -9 8 2 16 13 9 13 11 -1 11 -25 0 -30 -12 -12 -32 15 -17 14 -18 -30
-18 -26 0 -47 5 -47 10 0 6 6 10 13 10 9 0 8 3 -2 9 -11 7 -11 9 0 14 10 4 9
6 -3 6 -13 1 -18 -7 -18 -29z"/>
<path d="M2463 5334 c-10 -27 5 -42 39 -40 28 1 33 5 33 26 0 21 -5 25 -33 26
-21 1 -36 -4 -39 -12z m32 -14 c0 -7 -6 -15 -12 -17 -8 -3 -13 4 -13 17 0 13
5 20 13 18 6 -3 12 -11 12 -18z m35 0 c0 -5 -4 -10 -10 -10 -5 0 -10 5 -10 10
0 6 5 10 10 10 6 0 10 -4 10 -10z"/>
<path d="M2550 5330 c0 -11 6 -20 13 -20 8 0 7 -4 -3 -11 -13 -9 -13 -10 0 -6
21 5 26 57 6 57 -9 0 -16 -9 -16 -20z"/>
<path d="M2601 5350 c-2 -3 -4 -17 -5 -33 -2 -25 1 -27 34 -24 30 2 35 6 35
27 0 32 -29 34 -33 3 -5 -32 -20 -29 -25 5 -2 15 -5 25 -6 22z m59 -40 c0 -5
-4 -10 -10 -10 -5 0 -10 5 -10 10 0 6 5 10 10 10 6 0 10 -4 10 -10z"/>
<path d="M1740 5320 c0 -5 5 -10 10 -10 6 0 10 5 10 10 0 6 -4 10 -10 10 -5 0
-10 -4 -10 -10z"/>
<path d="M1756 5307 c-15 -16 -16 -19 -3 -14 8 3 17 1 19 -4 2 -6 11 -4 22 4
19 14 15 38 -7 36 -7 0 -21 -10 -31 -22z m44 9 c0 -3 -4 -8 -10 -11 -5 -3 -10
-1 -10 4 0 6 5 11 10 11 6 0 10 -2 10 -4z"/>
<path d="M1901 5308 c0 -22 1 -22 8 -3 l8 20 5 -20 c5 -18 6 -18 7 -2 0 10 7
17 14 14 6 -2 11 -13 10 -23 -1 -18 -1 -18 13 0 21 29 18 32 -26 34 -36 3 -40
0 -39 -20z"/>
<path d="M1950 5228 c0 -30 1 -31 15 -12 19 25 19 44 0 44 -10 0 -15 -10 -15
-32z"/>
<path d="M2110 5231 c0 -21 5 -31 15 -31 8 0 15 7 15 16 0 8 -7 22 -15 30 -13
14 -15 12 -15 -15z"/>
<path d="M2320 5228 c0 -30 1 -31 15 -12 19 25 19 44 0 44 -10 0 -15 -10 -15
-32z"/>
<path d="M2362 5230 c0 -19 2 -27 5 -17 2 9 2 25 0 35 -3 9 -5 1 -5 -18z"/>
<path d="M1990 5220 c0 -11 7 -20 15 -20 8 0 15 9 15 20 0 11 -7 20 -15 20 -8
0 -15 -9 -15 -20z"/>
<path d="M2030 5230 c0 -5 4 -10 9 -10 6 0 13 5 16 10 3 6 -1 10 -9 10 -9 0
-16 -4 -16 -10z"/>
<path d="M2070 5215 c0 -18 4 -23 15 -19 8 4 15 15 15 25 0 10 -7 19 -15 19
-9 0 -15 -9 -15 -25z"/>
<path d="M2150 5220 c0 -12 7 -20 18 -20 14 0 15 2 2 10 -10 6 -11 10 -2 10 6
0 12 5 12 10 0 6 -7 10 -15 10 -8 0 -15 -9 -15 -20z"/>
<path d="M2190 5220 c0 -11 2 -20 4 -20 2 0 6 9 9 20 3 11 1 20 -4 20 -5 0 -9
-9 -9 -20z"/>
<path d="M2221 5217 c0 -20 1 -20 8 -3 5 14 10 16 15 8 4 -7 4 -16 1 -22 -3
-5 -1 -10 4 -10 6 0 11 4 11 9 0 5 2 15 5 23 4 9 -3 14 -20 16 -20 1 -25 -3
-24 -21z"/>
<path d="M2040 5210 c-13 -8 -12 -10 3 -10 9 0 17 5 17 10 0 12 -1 12 -20 0z"/>
<path d="M1326 4501 c-3 -5 1 -11 9 -15 15 -6 29 7 18 18 -9 9 -21 8 -27 -3z"/>
<path d="M7851 5058 c0 -14 -7 -29 -13 -31 -10 -4 -10 -6 0 -6 16 -1 25 22 19
46 -3 12 -5 9 -6 -9z"/>
<path d="M7878 5073 c7 -3 16 -2 19 1 4 3 -2 6 -13 5 -11 0 -14 -3 -6 -6z"/>
<path d="M7886 5049 c3 -6 0 -15 -7 -20 -11 -7 -10 -9 4 -9 10 0 17 8 17 20 0
11 -5 20 -11 20 -5 0 -7 -5 -3 -11z"/>
<path d="M7679 4953 c5 -26 6 -26 9 -5 4 28 22 29 22 2 0 -17 2 -19 14 -8 10
9 11 15 2 20 -6 5 -2 8 11 8 15 0 23 -7 25 -22 3 -21 4 -21 9 5 6 27 6 27 -46
27 -52 0 -52 0 -46 -27z"/>
<path d="M7820 4965 c0 -8 6 -15 13 -15 8 0 7 -4 -3 -10 -13 -8 -12 -10 3 -10
9 0 17 7 17 15 0 8 -6 15 -12 15 -9 0 -8 4 2 10 13 8 12 10 -2 10 -10 0 -18
-7 -18 -15z"/>
<path d="M7869 4953 c5 -26 6 -27 9 -5 2 15 9 22 19 20 22 -4 29 -28 9 -28 -9
0 -16 -5 -16 -11 0 -5 5 -7 11 -3 6 3 15 0 20 -7 6 -9 9 -2 7 24 -2 34 -4 37
-34 37 -29 0 -31 -2 -25 -27z"/>
<path d="M7958 4973 c12 -2 32 -2 45 0 12 2 2 4 -23 4 -25 0 -35 -2 -22 -4z"/>
<path d="M8030 4964 c0 -8 5 -12 10 -9 6 3 10 2 10 -4 0 -5 -6 -12 -12 -14 -8
-3 -6 -6 4 -6 13 -1 17 6 16 24 -3 27 -28 35 -28 9z"/>
<path d="M6170 3185 c0 -29 17 -33 36 -8 7 10 16 14 20 10 5 -4 2 -12 -6 -17
-12 -8 -11 -10 6 -10 17 0 20 5 16 25 -5 28 -12 31 -30 13 -9 -9 -12 -9 -12 0
0 7 -7 12 -15 12 -9 0 -15 -9 -15 -25z m25 6 c3 -5 1 -12 -5 -16 -5 -3 -10 1
-10 9 0 18 6 21 15 7z"/>
<path d="M6041 3098 c-1 -21 4 -28 17 -28 11 0 13 3 6 8 -7 4 -14 16 -17 27
-4 15 -5 14 -6 -7z"/>
<path d="M6080 3095 c0 -17 5 -25 18 -25 13 0 14 2 4 9 -8 4 -14 12 -14 16 0
4 6 12 14 16 10 7 9 9 -4 9 -13 0 -18 -8 -18 -25z"/>
<path d="M6120 3096 c0 -17 5 -26 16 -26 10 0 14 7 12 22 -5 32 -28 35 -28 4z
m17 -8 c-3 -8 -6 -5 -6 6 -1 11 2 17 5 13 3 -3 4 -12 1 -19z"/>
<path d="M6200 3105 c0 -8 6 -15 13 -15 8 0 7 -4 -3 -10 -13 -8 -12 -10 3 -10
19 0 23 26 5 33 -7 3 -3 6 9 6 15 1 23 -6 25 -21 3 -21 4 -21 9 5 6 25 4 27
-27 27 -24 0 -34 -5 -34 -15z"/>
<path d="M6280 3094 c0 -23 2 -24 15 -10 8 8 15 19 15 25 0 6 -7 11 -15 11 -9
0 -15 -10 -15 -26z"/>
<path d="M6322 3095 c0 -16 2 -22 5 -12 2 9 2 23 0 30 -3 6 -5 -1 -5 -18z"/>
<path d="M6341 3093 c0 -16 3 -22 6 -15 2 6 11 12 19 12 8 0 14 7 14 15 0 8
-9 15 -20 15 -15 0 -20 -6 -19 -27z"/>
<path d="M1490 4825 c8 -10 7 -14 -2 -18 -8 -4 -7 -6 5 -6 9 -1 17 5 17 12 0
9 2 9 9 -1 7 -11 9 -10 15 3 3 9 11 13 17 9 8 -5 8 -9 -1 -14 -21 -13 41 -21
77 -11 17 5 34 7 37 3 3 -3 6 3 6 14 0 15 -8 20 -30 22 -24 2 -30 -2 -30 -18
0 -13 -7 -20 -20 -20 -13 0 -20 7 -20 19 0 16 -7 19 -46 19 -36 0 -43 -2 -34
-13z m150 -5 c0 -5 -5 -10 -11 -10 -5 0 -7 5 -4 10 3 6 8 10 11 10 2 0 4 -4 4
-10z"/>
<path d="M2705 4823 c3 -8 5 -18 5 -21 0 -8 20 20 20 29 0 3 -7 6 -15 6 -10 0
-14 -6 -10 -14z"/>
<path d="M2740 4820 c0 -16 7 -20 30 -20 25 0 30 4 29 23 0 21 -1 21 -9 2 l-9
-20 0 20 c-1 17 -3 17 -11 5 -6 -10 -10 -11 -10 -2 0 6 -4 12 -10 12 -5 0 -10
-9 -10 -20z"/>
<path d="M2813 4820 c1 -11 7 -20 14 -20 6 0 11 9 10 20 -1 11 -7 20 -14 20
-6 0 -11 -9 -10 -20z"/>
<path d="M1480 4732 c0 -10 7 -19 15 -19 8 0 15 9 15 19 0 10 -7 18 -15 18 -8
0 -15 -8 -15 -18z"/>
<path d="M1521 4733 c-1 -16 5 -23 18 -23 19 0 35 23 24 34 -12 11 -23 6 -24
-11 0 -15 -2 -15 -9 2 -8 19 -9 19 -9 -2z"/>
<path d="M1577 4735 c-4 -8 -2 -17 3 -20 6 -4 10 3 10 14 0 25 -6 27 -13 6z"/>
<path d="M2710 4741 c0 -3 5 -13 10 -21 6 -10 10 -11 10 -2 0 6 5 12 11 12 5
0 7 -4 4 -10 -3 -5 1 -10 10 -10 11 0 15 5 11 15 -8 21 11 19 23 -2 10 -17 10
-17 11 0 0 10 4 16 8 13 4 -2 14 -1 22 4 8 5 -14 8 -53 7 -37 0 -67 -3 -67 -6z"/>
<path d="M2815 4720 c-3 -5 1 -10 9 -10 9 0 16 5 16 10 0 6 -4 10 -9 10 -6 0
-13 -4 -16 -10z"/>
<path d="M2618 4648 c15 -15 16 -32 2 -23 -5 3 -10 1 -10 -4 0 -18 19 -12 30
8 14 28 13 31 -12 31 -17 0 -19 -3 -10 -12z"/>
<path d="M2686 4645 c11 -8 14 -15 7 -15 -7 0 -13 -5 -13 -11 0 -6 17 -9 43
-7 34 3 43 8 45 26 2 15 -2 22 -12 22 -9 0 -16 -8 -16 -20 0 -11 -7 -20 -15
-20 -14 0 -19 12 -16 33 0 4 -9 7 -21 7 -21 0 -21 0 -2 -15z m71 -17 c-3 -8
-6 -5 -6 6 -1 11 2 17 5 13 3 -3 4 -12 1 -19z"/>
<path d="M2781 4643 c-1 -31 19 -40 27 -12 l6 24 6 -25 6 -25 6 28 c4 22 2 27
-13 27 -13 0 -19 -8 -20 -22 -1 -22 -1 -22 -9 2 -7 23 -8 23 -9 3z"/>
<path d="M2655 4629 c-4 -6 -5 -12 -2 -15 2 -3 7 2 10 11 7 17 1 20 -8 4z"/>
<path d="M1484 4555 c-9 -21 5 -40 20 -25 8 8 7 13 -3 19 -11 7 -11 9 0 14 11
4 11 6 1 6 -7 1 -15 -6 -18 -14z"/>
<path d="M1520 4543 c0 -21 3 -24 9 -14 7 12 13 12 24 3 16 -14 27 -6 27 20 0
13 -8 18 -30 18 -26 0 -30 -4 -30 -27z"/>
<path d="M2591 4563 c-1 -6 -3 -18 -7 -26 -4 -10 3 -14 23 -13 21 1 29 7 31
24 2 15 -2 22 -12 22 -9 0 -16 -8 -17 -17 0 -15 -2 -15 -9 2 -5 11 -9 15 -9 8z
m36 -25 c-3 -8 -6 -5 -6 6 -1 11 2 17 5 13 3 -3 4 -12 1 -19z"/>
<path d="M2652 4548 c2 -16 11 -22 33 -24 24 -3 26 -2 10 5 -11 5 -23 7 -27 4
-5 -2 -8 2 -8 11 0 8 6 17 13 19 7 3 4 6 -6 6 -13 1 -18 -5 -15 -21z"/>
<path d="M2711 4565 c1 -19 18 -51 18 -35 0 8 -4 22 -9 30 -5 8 -9 11 -9 5z"/>
<path d="M2734 4553 c3 -8 6 -20 6 -26 0 -8 3 -7 9 2 6 9 11 10 15 2 10 -16
45 -14 62 4 12 12 12 15 2 15 -10 0 -9 3 2 10 10 6 -3 9 -43 9 -47 -1 -57 -4
-53 -16z m41 -4 c11 -16 1 -19 -13 -3 -7 8 -8 14 -3 14 5 0 13 -5 16 -11z m35
-4 c0 -8 -4 -15 -8 -15 -5 0 -9 7 -9 15 0 8 4 15 9 15 4 0 8 -7 8 -15z"/>
<path d="M1484 4465 c-7 -16 2 -35 17 -35 5 0 9 7 9 15 0 8 -6 15 -12 15 -9 0
-8 4 2 10 10 7 11 10 2 10 -7 0 -15 -7 -18 -15z"/>
<path d="M1520 4454 c0 -23 1 -24 16 -10 20 20 28 20 20 1 -3 -9 0 -15 8 -15
25 0 7 46 -20 48 -20 1 -24 -3 -24 -24z"/>
<path d="M1484 4375 c-7 -16 2 -35 17 -35 5 0 9 7 9 15 0 8 -6 15 -12 15 -9 0
-8 4 2 10 10 7 11 10 2 10 -7 0 -15 -7 -18 -15z"/>
<path d="M1520 4365 l0 -26 22 21 c24 22 38 19 18 -5 -10 -12 -10 -15 2 -15 7
0 15 11 16 25 2 27 -15 33 -37 13 -11 -10 -13 -10 -7 0 4 6 2 12 -3 12 -6 0
-11 -11 -11 -25z"/>
<path d="M1484 4285 c-7 -16 2 -35 17 -35 5 0 9 7 9 15 0 8 -6 15 -12 15 -9 0
-8 4 2 10 10 7 11 10 2 10 -7 0 -15 -7 -18 -15z"/>
<path d="M1520 4272 c0 -25 0 -25 18 -5 9 11 24 22 32 25 8 3 0 6 -17 5 -28 0
-33 -4 -33 -25z"/>
<path d="M1564 4271 c4 -5 0 -12 -6 -14 -8 -3 -6 -6 5 -6 9 -1 17 6 17 14 0 8
-5 15 -11 15 -5 0 -8 -4 -5 -9z"/>
<path d="M1487 4203 c-13 -12 -7 -43 8 -43 18 0 20 16 3 23 -10 4 -10 6 0 6 6
1 12 6 12 11 0 11 -13 13 -23 3z"/>
<path d="M1520 4183 c0 -20 3 -24 9 -14 7 10 13 11 30 2 24 -13 29 2 10 29 -9
12 -10 11 -5 -4 7 -19 6 -19 -12 -3 -26 23 -32 21 -32 -10z"/>
<path d="M1480 4090 c0 -11 7 -20 15 -20 8 0 15 5 15 10 0 6 -6 10 -12 10 -9
0 -8 4 2 10 13 8 12 10 -2 10 -11 0 -18 -8 -18 -20z"/>
<path d="M1521 4088 c0 -13 3 -17 6 -10 2 6 14 12 26 12 18 0 19 -2 7 -10 -13
-8 -12 -10 3 -10 10 0 17 8 17 20 0 16 -7 20 -30 20 -25 0 -30 -4 -29 -22z"/>
<path d="M1480 4000 c0 -11 7 -20 15 -20 8 0 15 5 15 10 0 6 -6 10 -12 10 -9
0 -8 4 2 10 13 8 12 10 -2 10 -11 0 -18 -8 -18 -20z"/>
<path d="M1520 3999 c0 -18 2 -19 15 -9 10 9 15 9 15 1 0 -6 7 -11 15 -11 8 0
15 9 15 20 0 16 -7 20 -30 20 -24 0 -30 -4 -30 -21z"/>
<path d="M2700 4000 c0 -11 7 -20 15 -20 8 0 15 5 15 11 0 5 -4 7 -10 4 -5 -3
-10 -2 -10 4 0 5 6 12 13 14 7 3 5 6 -5 6 -12 1 -18 -6 -18 -19z"/>
<path d="M2740 3999 c0 -11 5 -17 10 -14 6 4 8 11 5 16 -3 5 1 6 9 3 9 -3 13
-10 10 -15 -3 -5 1 -9 9 -9 26 0 8 36 -19 38 -18 1 -24 -3 -24 -19z"/>
<path d="M2810 4000 c0 -11 7 -20 15 -20 8 0 15 9 15 20 0 11 -7 20 -15 20 -8
0 -15 -9 -15 -20z"/>
<path d="M1480 3910 c0 -11 7 -20 15 -20 8 0 15 5 15 10 0 6 -6 10 -12 10 -9
0 -8 4 2 10 13 8 12 10 -2 10 -11 0 -18 -8 -18 -20z"/>
<path d="M1520 3908 c0 -20 1 -20 18 -5 24 22 33 21 26 0 -5 -15 -4 -16 5 -3
17 24 13 30 -19 30 -24 0 -30 -4 -30 -22z"/>
<path d="M2700 3910 c0 -11 7 -20 15 -20 8 0 15 5 15 11 0 5 -4 7 -10 4 -5 -3
-10 -2 -10 4 0 5 6 12 13 14 7 3 5 6 -5 6 -12 1 -18 -6 -18 -19z"/>
<path d="M2740 3909 c0 -11 5 -17 10 -14 6 4 8 11 5 16 -3 5 1 6 9 3 9 -3 13
-10 10 -15 -3 -5 1 -9 9 -9 26 0 8 36 -19 38 -18 1 -24 -3 -24 -19z"/>
<path d="M2817 3924 c7 -3 9 -13 6 -22 -4 -15 -3 -15 6 -2 15 22 14 30 -6 29
-10 0 -13 -3 -6 -5z"/>
<path d="M1480 3820 c0 -11 7 -20 15 -20 8 0 15 5 15 10 0 6 -6 10 -12 10 -9
0 -8 4 2 10 13 8 12 10 -2 10 -11 0 -18 -8 -18 -20z"/>
<path d="M1520 3819 c0 -11 5 -17 10 -14 6 4 8 12 4 18 -3 7 1 4 9 -5 19 -24
37 -23 37 2 0 16 -7 20 -30 20 -24 0 -30 -4 -30 -21z"/>
<path d="M2700 3820 c0 -11 7 -20 15 -20 8 0 15 5 15 11 0 5 -4 7 -10 4 -5 -3
-10 -2 -10 4 0 5 6 12 13 14 7 3 5 6 -5 6 -12 1 -18 -6 -18 -19z"/>
<path d="M2740 3822 c0 -12 9 -18 29 -19 23 -2 28 2 24 15 -6 24 -53 28 -53 4z"/>
<path d="M2810 3820 c0 -11 7 -20 15 -20 8 0 15 9 15 20 0 11 -7 20 -15 20 -8
0 -15 -9 -15 -20z"/>
<path d="M1480 3731 c0 -24 16 -36 26 -20 3 6 1 15 -6 19 -10 6 -9 9 1 13 10
4 9 6 -3 6 -11 1 -18 -6 -18 -18z"/>
<path d="M1520 3723 c0 -21 3 -24 9 -13 6 8 7 19 3 25 -3 5 2 4 11 -4 9 -7 14
-18 10 -23 -3 -6 0 -9 8 -6 8 3 15 14 17 26 3 19 -1 22 -27 22 -27 0 -31 -3
-31 -27z"/>
<path d="M2702 3728 c4 -25 28 -37 28 -13 0 9 -4 13 -10 10 -5 -3 -10 -2 -10
4 0 5 6 12 13 14 7 3 4 6 -6 6 -13 1 -18 -5 -15 -21z"/>
<path d="M2740 3724 c0 -23 1 -24 16 -10 20 20 28 20 20 1 -3 -9 0 -15 8 -15
25 0 7 46 -20 48 -20 1 -24 -3 -24 -24z"/>
<path d="M2812 3725 c3 -30 22 -28 26 3 2 15 -2 22 -12 22 -11 0 -15 -8 -14
-25z"/>
<path d="M1484 3645 c-9 -21 5 -40 20 -25 8 8 7 13 -3 19 -11 7 -11 9 0 14 11
4 11 6 1 6 -7 1 -15 -6 -18 -14z"/>
<path d="M1520 3634 c0 -23 1 -24 16 -10 20 20 28 20 20 1 -3 -9 0 -15 8 -15
25 0 7 46 -20 48 -20 1 -24 -3 -24 -24z"/>
<path d="M1590 3636 c0 -14 5 -26 11 -26 6 0 8 7 5 16 -4 9 -2 13 5 8 7 -4 10
-1 7 6 -8 26 -28 22 -28 -4z"/>
<path d="M2704 3645 c-7 -16 2 -35 17 -35 5 0 9 7 9 16 0 8 -4 12 -10 9 -5 -3
-10 -2 -10 4 0 5 6 12 13 14 9 4 9 6 -1 6 -7 1 -15 -6 -18 -14z"/>
<path d="M2740 3633 l0 -26 20 23 c22 25 41 20 20 -5 -10 -12 -10 -15 2 -15 7
0 15 11 16 25 1 22 -2 25 -28 25 -26 0 -30 -4 -30 -27z"/>
<path d="M2812 3638 c2 -13 8 -23 13 -23 6 0 11 10 13 23 2 15 -2 22 -13 22
-11 0 -15 -7 -13 -22z"/>
<path d="M1484 3555 c-7 -16 2 -35 17 -35 5 0 9 7 9 15 0 8 -6 15 -12 15 -9 0
-8 4 2 10 10 7 11 10 2 10 -7 0 -15 -7 -18 -15z"/>
<path d="M1520 3544 c0 -23 1 -24 16 -10 20 20 28 20 20 1 -3 -9 0 -15 8 -15
25 0 7 46 -20 48 -20 1 -24 -3 -24 -24z"/>
<path d="M1599 3568 c-6 -20 -3 -48 6 -48 8 0 10 10 7 25 -4 21 -10 32 -13 23z"/>
<path d="M2704 3555 c-7 -16 2 -35 17 -35 5 0 9 8 9 18 0 14 -2 15 -10 2 -8
-13 -10 -13 -10 2 0 9 6 19 13 21 9 4 9 6 -1 6 -7 1 -15 -6 -18 -14z"/>
<path d="M2740 3543 l0 -26 20 23 c22 25 41 20 20 -5 -10 -12 -10 -15 2 -15 7
0 15 11 16 25 1 22 -2 25 -28 25 -26 0 -30 -4 -30 -27z"/>
<path d="M2819 3568 c-6 -20 -3 -48 6 -48 8 0 10 10 7 25 -4 21 -10 32 -13 23z"/>
<path d="M1484 3465 c-7 -16 2 -35 17 -35 5 0 9 7 9 15 0 8 -6 15 -12 15 -9 0
-8 4 2 10 10 7 11 10 2 10 -7 0 -15 -7 -18 -15z"/>
<path d="M1520 3453 c0 -22 1 -23 16 -9 20 20 28 20 20 1 -4 -12 3 -15 32 -15
26 0 33 3 23 9 -8 5 -20 7 -28 4 -8 -3 -13 2 -13 13 0 13 -8 19 -25 20 -20 2
-25 -3 -25 -23z"/>
<path d="M1592 3471 c2 -7 7 -12 11 -12 12 1 9 15 -3 20 -7 2 -11 -2 -8 -8z"/>
<path d="M2704 3465 c-7 -16 2 -35 17 -35 5 0 9 8 9 18 0 14 -2 15 -10 2 -8
-13 -10 -13 -10 2 0 9 6 19 13 21 9 4 9 6 -1 6 -7 1 -15 -6 -18 -14z"/>
<path d="M2740 3454 l0 -25 22 21 c24 22 38 19 18 -5 -10 -12 -10 -15 2 -15 7
0 15 11 16 23 1 20 -3 24 -28 25 -25 1 -30 -3 -30 -24z"/>
<path d="M2810 3469 c0 -5 5 -7 10 -4 14 9 13 -8 -2 -23 -9 -9 -9 -12 3 -12 8
0 16 11 17 25 1 16 -3 25 -13 25 -8 0 -15 -5 -15 -11z"/>
<path d="M1484 3375 c-7 -16 2 -35 17 -35 5 0 9 7 9 15 0 8 -6 15 -12 15 -9 0
-8 4 2 10 10 7 11 10 2 10 -7 0 -15 -7 -18 -15z"/>
<path d="M1520 3363 c0 -22 1 -23 16 -9 20 20 28 20 20 0 -5 -12 1 -15 27 -12
25 2 32 8 33 26 1 16 -4 22 -20 22 -17 0 -18 -2 -6 -10 8 -5 11 -10 5 -10 -5
0 -3 -5 5 -10 12 -8 11 -10 -7 -10 -15 0 -23 6 -23 18 0 11 -8 17 -25 18 -20
2 -25 -3 -25 -23z"/>
<path d="M2704 3375 c-7 -16 2 -35 17 -35 5 0 9 8 9 18 0 14 -2 15 -10 2 -8
-13 -10 -13 -10 2 0 9 6 19 13 21 9 4 9 6 -1 6 -7 1 -15 -6 -18 -14z"/>
<path d="M2740 3364 l0 -25 22 21 c24 22 38 19 18 -5 -10 -12 -10 -15 2 -15 7
0 15 11 16 23 1 20 -3 24 -28 25 -25 1 -30 -3 -30 -24z"/>
<path d="M2817 3383 c-13 -12 -7 -43 8 -43 8 0 15 7 15 15 0 8 -6 15 -12 15
-9 0 -8 4 2 10 8 5 10 10 4 10 -6 0 -14 -3 -17 -7z"/>
<path d="M1487 3293 c-13 -12 -7 -43 8 -43 18 0 20 16 3 23 -10 4 -10 6 0 6 6
1 12 6 12 11 0 11 -13 13 -23 3z"/>
<path d="M1520 3273 c0 -22 1 -23 16 -9 20 20 28 20 20 1 -3 -9 0 -15 8 -15 8
0 12 8 9 23 -3 15 -12 22 -29 23 -19 2 -24 -3 -24 -23z"/>
<path d="M1590 3283 c0 -23 15 -39 23 -26 3 5 -1 17 -9 28 -14 18 -14 18 -14
-2z"/>
<path d="M2707 3293 c-13 -12 -7 -43 8 -43 8 0 15 5 15 11 0 5 -4 7 -10 4 -5
-3 -10 -1 -10 4 0 6 5 11 10 11 6 0 10 5 10 10 0 11 -13 13 -23 3z"/>
<path d="M2740 3273 c0 -22 1 -23 16 -9 20 21 41 21 24 1 -10 -12 -10 -15 2
-15 7 0 15 11 16 23 1 20 -3 24 -28 24 -25 0 -30 -4 -30 -24z"/>
<path d="M2810 3296 c0 -2 7 -6 15 -10 8 -3 15 -1 15 4 0 6 -7 10 -15 10 -8 0
-15 -2 -15 -4z"/>
<path d="M1480 3180 c0 -11 7 -20 15 -20 8 0 15 5 15 10 0 6 -6 10 -12 10 -9
0 -8 4 2 10 13 8 12 10 -2 10 -11 0 -18 -8 -18 -20z"/>
<path d="M1521 3178 c0 -13 3 -17 6 -10 2 6 11 12 19 12 9 0 12 -4 9 -10 -3
-5 0 -10 8 -10 10 0 13 7 10 20 -8 30 -53 28 -52 -2z"/>
<path d="M1590 3190 c0 -5 6 -10 13 -10 8 0 7 -4 -3 -10 -8 -5 -10 -10 -4 -10
16 0 23 10 17 26 -6 16 -23 19 -23 4z"/>
<path d="M2700 3180 c0 -11 7 -20 15 -20 8 0 15 5 15 11 0 5 -4 7 -10 4 -5 -3
-10 -2 -10 4 0 5 6 12 13 14 7 3 5 6 -5 6 -12 1 -18 -6 -18 -19z"/>
<path d="M2740 3179 c0 -19 1 -19 16 -5 20 21 41 21 24 1 -10 -12 -10 -15 2
-15 7 0 14 9 15 20 1 16 -4 20 -28 20 -23 0 -29 -4 -29 -21z"/>
<path d="M2810 3180 c0 -11 7 -20 15 -20 8 0 15 9 15 20 0 11 -7 20 -15 20 -8
0 -15 -9 -15 -20z"/>
<path d="M1480 2910 c0 -11 7 -20 15 -20 8 0 15 5 15 10 0 6 -6 10 -12 10 -9
0 -8 4 2 10 13 8 12 10 -2 10 -11 0 -18 -8 -18 -20z"/>
<path d="M1520 2910 c0 -13 8 -17 33 -16 21 1 32 6 32 16 0 10 -11 15 -32 16
-25 1 -33 -3 -33 -16z m55 0 c3 -5 1 -10 -4 -10 -6 0 -11 5 -11 10 0 6 2 10 4
10 3 0 8 -4 11 -10z"/>
<path d="M1480 2821 c0 -24 16 -36 26 -20 3 6 1 15 -6 19 -10 6 -9 9 1 13 10
4 9 6 -3 6 -11 1 -18 -6 -18 -18z"/>
<path d="M1521 2815 c0 -16 3 -24 6 -16 5 11 7 11 14 0 6 -11 13 -11 26 -3 25
16 22 38 -4 42 -14 2 -23 -2 -23 -10 0 -10 -3 -9 -10 2 -7 11 -10 8 -9 -15z
m54 6 c3 -5 1 -12 -5 -16 -5 -3 -10 1 -10 9 0 18 6 21 15 7z"/>
<path d="M1484 2735 c-9 -21 5 -40 20 -25 8 8 7 13 -3 19 -11 7 -11 9 0 14 11
4 11 6 1 6 -7 1 -15 -6 -18 -14z"/>
<path d="M1520 2725 c0 -23 3 -27 10 -15 6 10 10 11 10 3 0 -7 6 -13 13 -13
19 0 36 20 30 36 -6 17 -43 18 -43 2 0 -9 -4 -8 -10 2 -7 12 -10 8 -10 -15z
m55 6 c3 -5 1 -12 -5 -16 -5 -3 -10 1 -10 9 0 18 6 21 15 7z"/>
<path d="M1484 2645 c-7 -16 2 -35 17 -35 5 0 9 7 9 15 0 8 -6 15 -12 15 -9 0
-8 4 2 10 10 7 11 10 2 10 -7 0 -15 -7 -18 -15z"/>
<path d="M1520 2635 c0 -23 3 -27 10 -15 6 10 10 11 10 3 0 -7 9 -13 19 -13
20 0 31 17 24 38 -3 6 -13 12 -24 12 -10 0 -19 -6 -19 -12 0 -9 -4 -8 -10 2
-7 12 -10 8 -10 -15z m55 6 c3 -5 1 -12 -5 -16 -5 -3 -10 1 -10 9 0 18 6 21
15 7z"/>
<path d="M1484 2555 c-7 -16 2 -35 17 -35 5 0 9 7 9 15 0 8 -6 15 -12 15 -9 0
-8 4 2 10 10 7 11 10 2 10 -7 0 -15 -7 -18 -15z"/>
<path d="M1520 2545 c0 -23 3 -27 10 -15 6 10 10 11 10 3 0 -7 9 -13 19 -13
20 0 31 17 24 38 -3 6 -13 12 -24 12 -10 0 -19 -6 -19 -12 0 -9 -4 -8 -10 2
-7 12 -10 8 -10 -15z m55 6 c3 -5 1 -12 -5 -16 -5 -3 -10 1 -10 9 0 18 6 21
15 7z"/>
<path d="M1484 2465 c-7 -16 2 -35 17 -35 5 0 9 7 9 15 0 8 -6 15 -12 15 -9 0
-8 4 2 10 10 7 11 10 2 10 -7 0 -15 -7 -18 -15z"/>
<path d="M1520 2455 c0 -23 3 -27 10 -15 6 10 10 11 10 3 0 -7 9 -13 19 -13
20 0 31 17 24 38 -3 6 -13 12 -24 12 -10 0 -19 -6 -19 -12 0 -9 -4 -8 -10 2
-7 12 -10 8 -10 -15z m55 6 c3 -5 1 -12 -5 -16 -5 -3 -10 1 -10 9 0 18 6 21
15 7z"/>
<path d="M1483 2368 c-9 -21 -8 -23 23 -25 19 -2 34 2 34 7 0 6 -6 10 -12 10
-9 0 -8 3 2 10 8 5 11 13 6 17 -4 4 -13 0 -20 -10 -16 -21 -27 -22 -20 -2 9
24 -2 17 -13 -7z"/>
<path d="M1551 2365 c0 -16 3 -24 6 -16 5 11 7 11 14 0 6 -10 8 -5 8 16 0 17
-3 24 -6 16 -5 -11 -7 -11 -14 0 -6 10 -8 5 -8 -16z"/>
<path d="M1590 2367 c0 -27 13 -36 26 -16 3 6 -1 18 -10 27 -15 15 -16 14 -16
-11z"/>
<path d="M1480 2270 c0 -11 7 -20 15 -20 8 0 15 5 15 10 0 6 -6 10 -12 10 -9
0 -8 4 2 10 13 8 12 10 -2 10 -11 0 -18 -8 -18 -20z"/>
<path d="M1520 2270 c0 -13 8 -17 33 -16 21 1 32 6 32 16 0 10 -11 15 -32 16
-25 1 -33 -3 -33 -16z m60 6 c0 -3 -4 -8 -10 -11 -5 -3 -10 -1 -10 4 0 6 5 11
10 11 6 0 10 -2 10 -4z"/>
<path d="M4602 5100 c-16 -26 -16 -26 8 -26 11 0 20 4 20 8 0 4 -4 8 -10 8 -5
0 -7 7 -4 15 9 21 1 19 -14 -5z"/>
<path d="M4566 5087 c3 -10 9 -15 12 -12 3 3 0 11 -7 18 -10 9 -11 8 -5 -6z"/>
<path d="M4998 5050 c3 -22 10 -30 24 -30 28 0 21 54 -8 58 -18 3 -20 -1 -16
-28z"/>
<path d="M4977 5053 c-4 -3 -7 -13 -7 -22 1 -13 3 -13 11 2 11 19 8 33 -4 20z"/>
<path d="M4566 5014 c-7 -19 12 -40 39 -39 14 0 21 8 23 28 2 19 -1 27 -12 27
-21 0 -30 -19 -12 -26 9 -3 16 -10 16 -14 0 -5 -11 -3 -24 3 -13 6 -21 17 -19
24 3 7 3 13 0 13 -3 0 -8 -7 -11 -16z"/>
<path d="M4567 4926 c-8 -21 14 -46 41 -46 15 0 18 6 14 29 -3 22 -8 28 -20
23 -10 -4 -12 -7 -4 -10 14 -4 16 -32 3 -32 -5 0 -13 12 -18 27 -8 23 -10 24
-16 9z"/>
<path d="M4960 4911 c0 -26 3 -29 38 -29 37 -1 38 1 34 28 -3 21 -8 27 -20 22
-10 -4 -12 -7 -4 -10 14 -4 16 -32 2 -32 -5 0 -12 11 -16 25 -9 35 -34 32 -34
-4z"/>
<path d="M4567 4836 c-9 -22 14 -46 45 -46 17 0 19 3 9 9 -9 6 -10 11 -2 15
16 10 14 36 -3 36 -8 0 -18 -4 -21 -10 -3 -6 1 -7 9 -4 20 8 21 -10 2 -25 -11
-10 -16 -6 -23 16 -8 23 -10 24 -16 9z"/>
<path d="M4960 4821 c0 -27 3 -29 42 -29 26 -1 37 2 29 7 -9 6 -10 11 -2 15
16 10 14 36 -3 36 -8 0 -18 -4 -21 -10 -3 -6 1 -7 9 -4 20 8 21 -10 1 -26 -12
-10 -15 -7 -21 14 -9 36 -34 34 -34 -3z"/>
<path d="M4562 4733 c-9 -27 -8 -28 29 -31 33 -2 39 0 39 18 0 11 -4 20 -10
20 -5 0 -6 -8 -3 -17 5 -13 2 -15 -11 -10 -10 4 -21 7 -26 7 -4 0 -6 9 -3 20
8 30 -4 24 -15 -7z"/>
<path d="M4598 4753 c6 -2 18 -2 25 0 6 3 1 5 -13 5 -14 0 -19 -2 -12 -5z"/>
<path d="M4960 4731 c0 -27 3 -29 40 -29 38 -1 40 1 38 29 -2 22 -7 29 -23 29
-16 0 -17 -2 -5 -10 8 -5 11 -10 5 -10 -5 0 -3 -4 5 -10 8 -5 11 -12 7 -16 -9
-9 -37 15 -37 32 0 8 -7 14 -15 14 -10 0 -15 -10 -15 -29z m25 -11 c3 -5 1
-10 -4 -10 -6 0 -11 5 -11 10 0 6 2 10 4 10 3 0 8 -4 11 -10z"/>
<path d="M4562 4642 c-8 -24 -7 -28 9 -28 11 0 19 4 19 8 0 13 28 9 33 -4 3
-7 6 -3 6 10 1 15 -3 21 -11 16 -8 -5 -9 -1 -5 12 5 15 3 14 -9 -3 -20 -28
-34 -30 -27 -3 8 30 -4 24 -15 -8z"/>
<path d="M4960 4640 c0 -33 9 -37 40 -17 17 10 22 9 30 -3 8 -12 10 -11 10 7
0 16 -4 21 -15 17 -11 -5 -14 -2 -9 12 6 17 5 17 -9 -1 -15 -18 -16 -18 -17
-2 0 32 -30 19 -30 -13z"/>
<path d="M4563 4548 c-10 -22 -8 -23 28 -26 36 -2 39 0 39 23 0 27 -24 35 -34
10 -3 -8 -10 -15 -15 -15 -6 0 -8 7 -5 15 9 24 -2 17 -13 -7z m57 -8 c0 -5 -7
-10 -16 -10 -8 0 -12 5 -9 10 3 6 10 10 16 10 5 0 9 -4 9 -10z"/>
<path d="M4960 4546 c0 -21 5 -24 40 -24 36 -1 40 2 40 24 0 28 -17 31 -36 7
-13 -17 -13 -17 -14 0 0 27 -30 21 -30 -7z m70 -6 c0 -5 -7 -10 -16 -10 -8 0
-12 5 -9 10 3 6 10 10 16 10 5 0 9 -4 9 -10z"/>
<path d="M4563 4458 c-10 -22 -8 -23 28 -25 35 -1 38 1 37 23 -3 27 -23 33
-32 9 -3 -8 -10 -15 -15 -15 -6 0 -8 7 -5 15 9 24 -2 17 -13 -7z m57 -8 c0 -5
-5 -10 -11 -10 -5 0 -7 5 -4 10 3 6 8 10 11 10 2 0 4 -4 4 -10z"/>
<path d="M4960 4456 c0 -21 5 -23 40 -23 35 0 39 2 38 23 -3 29 -19 31 -36 4
-7 -11 -18 -20 -25 -19 -9 0 -9 2 1 6 17 7 15 33 -3 33 -9 0 -15 -9 -15 -24z
m70 -6 c0 -5 -5 -10 -11 -10 -5 0 -7 5 -4 10 3 6 8 10 11 10 2 0 4 -4 4 -10z"/>
<path d="M4563 4367 c-9 -19 -8 -23 8 -23 11 0 19 4 19 8 0 4 -4 8 -10 8 -5 0
-7 7 -4 15 10 24 -2 17 -13 -8z"/>
<path d="M4598 4383 c6 -2 18 -2 25 0 6 3 1 5 -13 5 -14 0 -19 -2 -12 -5z"/>
<path d="M4777 4384 c-16 -16 -6 -34 19 -34 19 0 25 5 22 17 -3 19 -29 29 -41
17z m33 -14 c0 -5 -7 -10 -15 -10 -8 0 -15 5 -15 10 0 6 7 10 15 10 8 0 15 -4
15 -10z"/>
<path d="M4960 4365 c0 -14 6 -25 13 -25 20 0 25 9 20 31 -8 28 -33 24 -33 -6z"/>
<path d="M5008 4383 c6 -2 18 -2 25 0 6 3 1 5 -13 5 -14 0 -19 -2 -12 -5z"/>
<path d="M4779 4331 c11 -7 11 -9 0 -14 -8 -3 0 -6 16 -6 21 0 26 2 16 8 -11
7 -11 9 0 14 8 3 1 6 -16 6 -21 0 -26 -2 -16 -8z"/>
<path d="M4558 4279 c3 -21 9 -29 21 -27 8 2 16 11 17 21 1 12 1 13 -3 2 -6
-19 -23 -20 -23 -1 0 12 20 26 36 26 2 0 4 -11 4 -25 0 -17 5 -25 18 -25 9 0
13 4 7 8 -14 10 -17 32 -5 32 6 0 10 5 10 10 0 6 -19 10 -43 10 -43 0 -43 -1
-39 -31z"/>
<path d="M4790 4289 c0 -5 5 -7 10 -4 6 3 10 1 10 -4 0 -15 -27 -14 -33 2 -3
7 -6 5 -6 -5 -1 -13 7 -18 24 -18 18 0 25 5 25 20 0 11 -7 20 -15 20 -8 0 -15
-5 -15 -11z"/>
<path d="M4960 4275 c0 -22 4 -25 40 -25 36 0 40 3 40 25 0 15 -6 25 -14 25
-22 0 -29 -18 -10 -28 11 -6 7 -9 -18 -9 -18 0 -27 2 -20 5 17 5 15 32 -3 32
-9 0 -15 -9 -15 -25z"/>
<path d="M4884 4140 c1 -15 8 -26 19 -28 14 -3 17 3 16 30 -2 30 -2 31 -6 6
-5 -34 -20 -37 -26 -5 -3 19 -4 19 -3 -3z"/>
<path d="M4934 4158 c-4 -7 -3 -8 4 -4 15 9 15 1 2 -25 -9 -16 -7 -19 12 -19
19 0 20 2 8 10 -13 8 -13 11 -1 19 7 5 10 14 7 20 -9 14 -23 14 -32 -1z"/>
<path d="M4881 4048 c-1 -26 2 -28 34 -28 28 0 35 4 35 20 0 11 -7 20 -15 20
-8 0 -15 -7 -15 -15 0 -24 -28 -17 -33 8 -4 19 -4 18 -6 -5z"/>
<path d="M5000 4045 c0 -14 2 -25 4 -25 2 0 6 11 8 25 3 14 1 25 -3 25 -5 0
-9 -11 -9 -25z"/>
<path d="M5101 4048 c-1 -24 3 -28 27 -27 15 0 21 3 15 6 -7 2 -13 9 -13 14 0
6 5 7 10 4 6 -3 10 -1 10 4 0 19 -30 12 -31 -6 -1 -12 -4 -10 -9 7 l-8 25 -1
-27z"/>
<path d="M5242 4045 c0 -16 2 -22 5 -12 2 9 2 23 0 30 -3 6 -5 -1 -5 -18z"/>
<path d="M5331 4042 c0 -24 1 -24 8 -7 l8 20 5 -20 c5 -19 6 -19 7 1 0 12 -6
24 -14 28 -11 4 -15 -2 -14 -22z"/>
<path d="M5372 4045 c0 -16 2 -22 5 -12 2 9 2 23 0 30 -3 6 -5 -1 -5 -18z"/>
<path d="M5391 4042 c1 -16 3 -20 6 -9 5 21 23 23 23 2 0 -8 4 -15 8 -15 5 0
8 10 7 22 -1 13 -9 22 -23 25 -18 2 -22 -2 -21 -25z"/>
<path d="M4962 4035 c2 -14 8 -26 13 -26 6 0 11 12 13 26 2 18 -1 25 -13 25
-12 0 -15 -7 -13 -25z"/>
<path d="M5025 4050 c-8 -13 3 -30 18 -29 8 0 8 2 -1 6 -10 4 -10 8 -1 19 8 9
8 14 1 14 -6 0 -14 -4 -17 -10z"/>
<path d="M5160 4051 c0 -3 5 -13 10 -21 8 -13 10 -13 10 0 0 11 3 11 12 2 15
-15 32 -16 23 -2 -3 6 -1 10 6 10 7 0 9 3 5 8 -9 8 -66 11 -66 3z"/>
<path d="M5290 4050 c0 -5 7 -7 15 -4 8 4 15 8 15 10 0 2 -7 4 -15 4 -8 0 -15
-4 -15 -10z"/>
<path d="M5445 4050 c-7 -11 2 -30 13 -30 4 0 8 9 9 20 2 21 -11 27 -22 10z"/>
<path d="M5480 4038 c0 -12 1 -19 3 -17 1 2 9 12 16 22 12 14 11 17 -3 17 -10
0 -16 -8 -16 -22z"/>
<path d="M5295 4030 c-3 -5 1 -10 9 -10 9 0 16 5 16 10 0 6 -4 10 -9 10 -6 0
-13 -4 -16 -10z"/>
<path d="M7970 4640 c0 -5 7 -7 15 -4 8 4 15 8 15 10 0 2 -7 4 -15 4 -8 0 -15
-4 -15 -10z"/>
<path d="M7921 4534 c0 -16 3 -23 6 -16 4 9 9 10 18 2 16 -13 27 10 14 31 -7
12 -9 12 -9 0 0 -11 -3 -11 -15 -1 -13 11 -15 8 -14 -16z"/>
<path d="M7970 4550 c0 -5 7 -7 15 -4 8 4 15 8 15 10 0 2 -7 4 -15 4 -8 0 -15
-4 -15 -10z"/>
<path d="M7970 4520 c0 -6 7 -10 15 -10 8 0 15 2 15 4 0 2 -7 6 -15 10 -8 3
-15 1 -15 -4z"/>
<path d="M7921 4444 c0 -16 3 -23 6 -16 4 9 9 10 18 2 16 -13 27 10 14 31 -7
12 -9 12 -9 0 0 -11 -3 -11 -15 -1 -13 11 -15 8 -14 -16z"/>
<path d="M7970 4460 c0 -5 7 -7 15 -4 8 4 15 8 15 10 0 2 -7 4 -15 4 -8 0 -15
-4 -15 -10z"/>
<path d="M7970 4430 c0 -6 7 -10 15 -10 8 0 15 2 15 4 0 2 -7 6 -15 10 -8 3
-15 1 -15 -4z"/>
<path d="M2965 4034 c22 -11 24 -14 8 -10 -13 2 -26 0 -29 -5 -3 -5 10 -9 29
-9 29 0 34 3 31 18 -4 11 -16 18 -37 19 l-32 1 30 -14z"/>
<path d="M2945 3590 c-3 -5 2 -10 10 -14 8 -3 17 -1 21 5 3 6 12 8 20 5 8 -3
14 -1 14 4 0 10 -59 10 -65 0z"/>
<path d="M2948 3218 c9 -9 15 -9 24 0 9 9 7 12 -12 12 -19 0 -21 -3 -12 -12z"/>
<path d="M2993 3224 c5 -5 -7 -14 -25 -21 l-33 -12 37 2 c38 2 50 19 26 33 -8
4 -9 3 -5 -2z"/>
<path d="M5608 3013 c7 -3 16 -2 19 1 4 3 -2 6 -13 5 -11 0 -14 -3 -6 -6z"/>
<path d="M1326 3214 c10 -8 14 -13 7 -10 -6 4 -14 2 -18 -4 -4 -6 6 -10 24
-10 24 0 31 4 31 20 0 16 -7 20 -32 20 -30 0 -31 -1 -12 -16z"/>
<path d="M5815 3101 c-3 -5 -1 -13 5 -16 7 -4 7 -11 2 -18 -5 -7 -9 -19 -9
-28 0 -13 6 -15 26 -9 14 3 26 13 27 21 1 9 -1 9 -3 2 -6 -18 -33 -16 -33 1 0
8 9 18 20 21 11 3 20 14 20 23 -1 16 -1 16 -11 0 -5 -9 -16 -15 -24 -12 -8 4
-12 10 -9 15 3 5 3 9 0 9 -3 0 -7 -4 -11 -9z"/>
<path d="M5835 3010 c3 -5 14 -10 23 -10 15 0 15 2 2 10 -20 13 -33 13 -25 0z"/>
<path d="M5690 2955 c0 -16 6 -25 15 -25 9 0 15 9 15 25 0 16 -6 25 -15 25 -9
0 -15 -9 -15 -25z m17 -7 c-3 -8 -6 -5 -6 6 -1 11 2 17 5 13 3 -3 4 -12 1 -19z"/>
<path d="M5732 2955 c0 -16 2 -22 5 -12 2 9 2 23 0 30 -3 6 -5 -1 -5 -18z"/>
<path d="M5751 2954 c0 -16 3 -23 6 -16 4 10 8 10 19 1 11 -9 14 -6 13 17 0
16 -3 23 -6 16 -4 -10 -8 -10 -19 -1 -11 9 -14 6 -13 -17z"/>
<path d="M5840 2955 c0 -16 6 -25 15 -25 9 0 15 9 15 25 0 16 -6 25 -15 25 -9
0 -15 -9 -15 -25z m17 -7 c-3 -8 -6 -5 -6 6 -1 11 2 17 5 13 3 -3 4 -12 1 -19z"/>
<path d="M5880 2955 c0 -18 5 -25 20 -25 15 0 20 7 20 25 0 18 -5 25 -20 25
-15 0 -20 -7 -20 -25z m30 0 c0 -8 -4 -15 -10 -15 -5 0 -10 7 -10 15 0 8 5 15
10 15 6 0 10 -7 10 -15z"/>
<path d="M5931 2958 c-1 -22 4 -28 19 -28 13 0 20 7 20 20 0 27 18 25 22 -2 3
-21 4 -21 9 5 5 23 3 27 -17 27 -17 0 -24 -6 -24 -20 0 -27 -18 -25 -23 3 -4
19 -4 18 -6 -5z"/>
<path d="M5817 2914 c-15 -15 -6 -24 24 -24 20 0 29 4 27 13 -5 14 -40 21 -51
11z m40 -10 c-3 -3 -12 -4 -19 -1 -8 3 -5 6 6 6 11 1 17 -2 13 -5z"/>
<path d="M5829 2869 c16 -6 28 -6 35 1 7 7 -1 10 -24 9 -33 0 -34 -1 -11 -10z"/>
<path d="M5815 2850 c-4 -6 7 -10 27 -9 27 0 30 2 13 9 -27 12 -33 12 -40 0z"/>
<path d="M5816 2821 c-8 -13 21 -34 39 -27 19 7 20 36 0 36 -8 0 -15 -5 -15
-11 0 -5 6 -7 13 -3 9 5 9 4 0 -6 -12 -13 -37 -4 -28 11 4 5 4 9 1 9 -3 0 -7
-4 -10 -9z"/>
<path d="M1348 2773 c7 -3 16 -2 19 1 4 3 -2 6 -13 5 -11 0 -14 -3 -6 -6z"/>
<path d="M1310 2590 c0 -5 7 -10 15 -14 8 -3 15 -1 15 4 0 5 8 10 18 13 9 2 2
4 -15 4 -18 0 -33 -3 -33 -7z"/>
<path d="M1319 2306 c9 -11 9 -15 -1 -19 -7 -3 2 -6 20 -6 26 -1 32 3 32 19 0
16 -7 20 -31 20 -26 0 -29 -3 -20 -14z"/>
<path d="M3613 6383 c-18 -7 -16 -43 2 -43 9 0 15 9 15 25 0 14 -1 25 -2 24
-2 0 -9 -3 -15 -6z"/>
<path d="M3680 6365 c0 -14 4 -25 9 -25 4 0 6 11 3 25 -2 14 -6 25 -8 25 -2 0
-4 -11 -4 -25z"/>
<path d="M3560 6360 c0 -11 7 -20 15 -20 8 0 15 9 15 20 0 11 -7 20 -15 20 -8
0 -15 -9 -15 -20z"/>
<path d="M3641 6363 c-1 -14 5 -23 14 -23 9 0 15 9 14 23 0 21 -1 21 -8 2 l-8
-20 -5 20 c-5 18 -6 18 -7 -2z"/>
<path d="M3705 6370 c-7 -11 2 -30 13 -30 4 0 8 9 9 20 2 21 -11 27 -22 10z"/>
<path d="M350 4416 c0 -20 5 -26 21 -26 15 0 20 5 17 22 -5 34 -38 37 -38 4z"/>
<path d="M10200 4415 c0 -18 5 -25 20 -25 15 0 20 7 20 25 0 18 -5 25 -20 25
-15 0 -20 -7 -20 -25z"/>
<path d="M357 2643 c-11 -10 -8 -41 4 -49 6 -3 16 -1 22 6 9 9 9 11 -2 8 -22
-5 -25 29 -4 35 14 4 14 5 2 6 -9 0 -19 -2 -22 -6z"/>
<path d="M10203 2634 c-8 -21 21 -51 32 -33 5 7 4 10 -3 5 -19 -12 -26 17 -7
31 17 12 17 13 2 13 -10 0 -20 -7 -24 -16z"/>
<path d="M350 830 c0 -25 4 -31 18 -28 11 2 17 12 17 28 0 16 -6 26 -17 28
-14 3 -18 -3 -18 -28z m22 -12 c-9 -9 -12 -7 -12 12 0 19 3 21 12 12 9 -9 9
-15 0 -24z"/>
<path d="M10200 830 c0 -25 4 -31 18 -28 11 2 17 12 17 28 0 16 -6 26 -17 28
-14 3 -18 -3 -18 -28z m30 0 c0 -11 -4 -20 -10 -20 -5 0 -10 9 -10 20 0 11 5
20 10 20 6 0 10 -9 10 -20z"/>
<path d="M10197 353 c-4 -3 -7 -16 -7 -27 0 -17 2 -18 10 -6 9 13 11 13 20 0
8 -13 10 -12 10 3 0 9 -5 17 -11 17 -5 0 -7 5 -4 10 7 11 -8 14 -18 3z"/>
<path d="M6674 913 c-30 -41 -39 -62 -15 -33 23 27 44 60 38 60 -2 0 -12 -12
-23 -27z"/>
<path d="M6360 915 c0 -8 7 -15 15 -15 21 0 19 -18 -2 -23 -14 -4 -12 -5 5 -6
26 -1 31 26 5 36 -15 6 -15 7 3 14 17 7 17 8 -3 8 -14 1 -23 -5 -23 -14z"/>
<path d="M6411 898 c1 -18 3 -25 6 -15 2 9 8 17 13 17 5 0 11 -8 13 -17 4 -14
5 -13 6 4 1 13 -7 27 -19 33 -18 10 -20 8 -19 -22z"/>
<path d="M6558 925 c-13 -13 5 -55 23 -55 11 0 19 4 19 10 0 5 -7 7 -15 4 -9
-4 -15 0 -15 10 0 10 6 13 18 9 18 -7 17 -5 -9 15 -9 6 -18 10 -21 7z"/>
<path d="M6467 914 c-14 -14 -7 -44 11 -44 14 0 15 2 2 10 -13 8 -12 10 3 10
10 0 17 5 15 12 -5 14 -22 21 -31 12z"/>
<path d="M6510 895 c0 -17 5 -25 18 -25 13 0 14 2 3 9 -11 7 -11 9 0 13 7 2 9
10 5 16 -12 20 -26 13 -26 -13z"/>
<path d="M6361 803 c0 -21 3 -31 6 -23 3 8 11 18 17 22 8 5 7 8 -1 8 -19 0
-16 18 5 23 13 4 11 5 -5 6 -20 1 -23 -4 -22 -36z"/>
<path d="M6413 805 c0 -22 2 -30 4 -17 2 12 2 30 0 40 -3 9 -5 -1 -4 -23z"/>
<path d="M6430 812 c0 -17 4 -34 10 -37 6 -4 7 6 3 27 -8 44 -13 48 -13 10z"/>
<path d="M6581 809 c-1 -26 3 -36 14 -36 11 0 12 4 6 10 -7 7 -7 15 2 26 8 10
9 13 0 8 -7 -4 -13 0 -16 10 -3 10 -5 2 -6 -18z"/>
<path d="M6623 805 c0 -22 2 -30 4 -17 2 12 2 30 0 40 -3 9 -5 -1 -4 -23z"/>
<path d="M6752 824 c-16 -17 -12 -46 6 -52 8 -2 12 8 12 32 0 41 0 41 -18 20z
m5 -36 c-3 -8 -6 -5 -6 6 -1 11 2 17 5 13 3 -3 4 -12 1 -19z"/>
<path d="M6921 803 c1 -29 3 -32 7 -13 l5 25 8 -25 c7 -25 7 -25 8 -2 1 13 -6
30 -14 38 -13 14 -15 11 -14 -23z"/>
<path d="M7161 809 c-1 -26 3 -36 14 -36 11 0 12 4 6 10 -7 7 -7 15 2 26 8 10
9 13 0 8 -7 -4 -13 0 -16 10 -3 10 -5 2 -6 -18z"/>
<path d="M7203 805 c0 -22 2 -30 4 -17 2 12 2 30 0 40 -3 9 -5 -1 -4 -23z"/>
<path d="M7332 824 c-16 -17 -12 -46 6 -52 8 -2 12 8 12 32 0 41 0 41 -18 20z
m5 -36 c-3 -8 -6 -5 -6 6 -1 11 2 17 5 13 3 -3 4 -12 1 -19z"/>
<path d="M7501 803 c1 -29 3 -32 7 -13 l5 25 8 -25 c7 -25 7 -25 8 -2 1 13 -6
30 -14 38 -13 14 -15 11 -14 -23z"/>
<path d="M6462 798 c3 -22 28 -39 28 -18 0 6 -4 8 -10 5 -5 -3 -10 1 -10 9 0
10 6 13 17 9 11 -4 14 -3 9 5 -13 21 -38 14 -34 -10z"/>
<path d="M6643 804 c-8 -22 13 -42 30 -25 10 10 9 12 -2 9 -21 -5 -25 20 -4
25 17 4 17 5 0 6 -10 0 -20 -6 -24 -15z"/>
<path d="M6699 811 c11 -7 11 -9 0 -13 -7 -2 -9 -10 -5 -16 12 -20 26 -13 26
13 0 17 -5 25 -17 25 -14 0 -15 -2 -4 -9z"/>
<path d="M6830 801 c0 -14 -8 -21 -27 -24 -23 -3 -21 -4 9 -6 38 -1 60 15 38
29 -10 6 -9 9 1 13 10 4 9 6 -3 6 -11 1 -18 -6 -18 -18z"/>
<path d="M6873 804 c-8 -22 13 -42 30 -25 10 10 9 12 -2 9 -21 -5 -25 20 -4
25 17 4 17 5 0 6 -10 0 -20 -6 -24 -15z"/>
<path d="M6963 804 c-8 -22 13 -42 30 -25 8 8 8 11 1 9 -7 -2 -11 2 -10 7 0 6
4 9 9 8 4 -2 7 2 7 7 0 16 -30 11 -37 -6z"/>
<path d="M7011 793 c2 -24 2 -25 6 -5 2 12 8 22 13 22 5 0 11 -10 13 -22 4
-22 4 -22 7 2 l2 25 8 -25 8 -25 1 28 c1 24 -3 27 -29 27 -26 0 -30 -3 -29
-27z"/>
<path d="M7080 801 c0 -25 18 -37 33 -22 9 9 8 11 -5 6 -13 -5 -18 -2 -18 10
0 11 5 15 15 11 8 -3 15 -1 15 4 0 6 -9 10 -20 10 -13 0 -20 -7 -20 -19z"/>
<path d="M7223 804 c-9 -23 14 -42 30 -25 8 10 8 12 0 7 -6 -3 -14 -2 -18 3
-3 5 3 14 12 20 17 10 17 10 0 11 -10 0 -20 -7 -24 -16z"/>
<path d="M7279 811 c11 -7 11 -9 0 -13 -7 -2 -9 -10 -5 -16 12 -20 26 -13 26
13 0 17 -5 25 -17 25 -14 0 -15 -2 -4 -9z"/>
<path d="M7410 801 c0 -14 -8 -21 -27 -24 -23 -3 -21 -4 9 -6 38 -1 60 15 38
29 -10 6 -9 9 1 13 10 4 9 6 -3 6 -11 1 -18 -6 -18 -18z"/>
<path d="M7453 804 c-8 -22 13 -42 30 -25 10 10 9 12 -2 9 -21 -5 -25 20 -4
25 17 4 17 5 0 6 -10 0 -20 -6 -24 -15z"/>
<path d="M6382 706 c7 -8 15 -11 18 -7 3 3 9 9 14 14 5 4 -3 7 -18 7 -22 0
-25 -2 -14 -14z"/>
<path d="M6431 678 c-1 -23 0 -40 2 -38 8 10 16 80 8 80 -4 0 -8 -19 -10 -42z"/>
<path d="M6466 705 c-3 -9 0 -15 9 -15 9 0 12 6 9 15 -4 8 -7 15 -9 15 -2 0
-5 -7 -9 -15z"/>
<path d="M6546 684 c-12 -30 -6 -44 17 -43 16 1 18 2 5 6 -20 5 -22 12 -8 33
6 10 10 11 10 3 0 -7 4 -13 10 -13 5 0 7 7 4 15 -8 20 -30 19 -38 -1z"/>
<path d="M6605 680 c3 -5 8 -10 11 -10 2 0 4 5 4 10 0 6 -5 10 -11 10 -5 0 -7
-4 -4 -10z"/>
<path d="M6381 654 c0 -11 3 -14 6 -6 3 7 2 16 -1 19 -3 4 -6 -2 -5 -13z"/>
<path d="M6460 661 c0 -10 19 -25 25 -20 1 2 -3 10 -11 17 -8 7 -14 8 -14 3z"/>
<path d="M6500 661 c0 -6 4 -13 10 -16 6 -3 7 1 4 9 -7 18 -14 21 -14 7z"/>
<path d="M6360 556 c0 -8 8 -17 18 -21 16 -7 15 -8 -3 -15 -19 -8 -19 -9 3 -9
26 -1 30 24 5 34 -17 7 -16 8 2 15 19 8 19 9 -2 9 -13 1 -23 -5 -23 -13z"/>
<path d="M6602 545 c-15 -33 -16 -31 8 -31 11 0 20 4 20 8 0 4 -4 8 -9 8 -5 0
-7 9 -4 20 7 28 -2 25 -15 -5z"/>
<path d="M6412 530 c0 -14 2 -19 5 -12 2 6 2 18 0 25 -3 6 -5 1 -5 -13z"/>
<path d="M6430 546 c0 -9 30 -14 35 -6 4 6 -3 10 -14 10 -12 0 -21 -2 -21 -4z"/>
<path d="M6480 530 c0 -12 7 -20 18 -20 14 0 15 2 2 10 -13 8 -12 10 3 10 9 0
17 5 17 10 0 6 -9 10 -20 10 -13 0 -20 -7 -20 -20z"/>
<path d="M6640 538 c0 -4 6 -8 14 -8 8 0 17 -6 19 -12 3 -7 6 -4 6 7 1 14 -5
21 -19 21 -11 0 -20 -4 -20 -8z"/>
<path d="M6435 520 c-4 -6 3 -10 14 -10 25 0 27 6 6 13 -8 4 -17 2 -20 -3z"/>
<path d="M7150 539 c0 -24 4 -30 18 -27 10 2 18 14 20 31 3 22 -1 27 -17 27
-17 0 -21 -6 -21 -31z m30 1 c0 -11 -4 -20 -10 -20 -5 0 -10 9 -10 20 0 11 5
20 10 20 6 0 10 -9 10 -20z"/>
<path d="M7253 545 c2 -25 7 -30 32 -33 23 -2 27 0 15 7 -13 9 -13 11 3 11 9
0 17 5 17 10 0 6 -13 10 -29 10 -16 0 -32 6 -35 13 -3 6 -4 -1 -3 -18z m27
-15 c0 -5 -4 -10 -10 -10 -5 0 -10 5 -10 10 0 6 5 10 10 10 6 0 10 -4 10 -10z"/>
<path d="M7207 536 c-7 -16 1 -26 20 -26 7 0 13 9 13 20 0 23 -25 27 -33 6z"/>
<path d="M9411 538 c0 -18 3 -27 6 -20 3 8 9 10 16 3 9 -6 13 -1 14 20 2 23
-2 29 -17 29 -16 0 -20 -7 -19 -32z m29 12 c0 -5 -4 -10 -10 -10 -5 0 -10 5
-10 10 0 6 5 10 10 10 6 0 10 -4 10 -10z"/>
<path d="M9464 546 c-8 -20 3 -36 24 -35 14 0 13 2 -3 9 -18 8 -18 9 -2 9 10
1 17 6 15 13 -7 19 -27 21 -34 4z"/>
<path d="M9514 547 c3 -10 6 -24 7 -30 0 -7 5 -1 10 12 5 13 7 26 4 29 -3 3
-5 -1 -5 -9 0 -12 -2 -11 -11 1 -9 12 -10 12 -5 -3z"/>
<path d="M6361 440 c0 -19 3 -29 6 -22 4 10 8 10 21 0 13 -11 14 -11 4 7 -28
49 -32 51 -31 15z"/>
<path d="M6444 455 c-9 -22 3 -45 23 -45 15 0 15 2 -3 15 -19 15 -19 15 0 30
18 13 18 15 3 15 -10 0 -20 -7 -23 -15z"/>
<path d="M6570 460 c0 -5 -7 -10 -15 -10 -8 0 -15 -9 -15 -20 0 -13 7 -20 20
-20 16 0 20 7 20 30 0 17 -2 30 -5 30 -3 0 -5 -4 -5 -10z m0 -30 c0 -5 -4 -10
-10 -10 -5 0 -10 5 -10 10 0 6 5 10 10 10 6 0 10 -4 10 -10z"/>
<path d="M6630 440 c0 -25 4 -30 23 -29 16 1 18 2 5 6 -21 5 -24 23 -5 23 8 0
8 3 -2 9 -11 7 -10 10 5 14 16 4 16 5 -3 6 -19 1 -23 -4 -23 -29z"/>
<path d="M6710 440 c0 -25 4 -31 18 -28 11 2 17 12 17 28 0 16 -6 26 -17 28
-14 3 -18 -3 -18 -28z m22 -12 c-9 -9 -12 -7 -12 12 0 19 3 21 12 12 9 -9 9
-15 0 -24z"/>
<path d="M6796 448 c-5 -15 -15 -28 -24 -30 -10 -2 6 -4 33 -4 28 0 43 2 34 3
-8 2 -20 16 -26 31 l-10 27 -7 -27z"/>
<path d="M6900 450 c0 -12 7 -20 18 -21 15 0 14 -2 -3 -10 l-20 -9 20 3 c14 1
21 11 23 30 3 22 -1 27 -17 27 -14 0 -21 -6 -21 -20z m30 0 c0 -5 -4 -10 -10
-10 -5 0 -10 5 -10 10 0 6 5 10 10 10 6 0 10 -4 10 -10z"/>
<path d="M6976 455 c-7 -20 3 -45 19 -45 16 0 26 25 19 45 -4 8 -12 15 -19 15
-7 0 -15 -7 -19 -15z m29 -25 c-5 -8 -11 -8 -17 -2 -6 6 -7 16 -3 22 5 8 11 8
17 2 6 -6 7 -16 3 -22z"/>
<path d="M7063 463 c21 -6 21 -12 0 -35 -15 -17 -15 -18 8 -18 17 0 20 3 10 9
-9 6 -10 11 -2 15 20 13 12 36 -11 35 -17 -1 -19 -2 -5 -6z"/>
<path d="M6422 430 c0 -14 2 -19 5 -12 2 6 2 18 0 25 -3 6 -5 1 -5 -13z"/>
<path d="M6497 436 c-7 -16 1 -26 20 -26 7 0 13 9 13 20 0 23 -25 27 -33 6z"/>
<path d="M9412 440 c0 -19 2 -27 5 -17 2 9 2 25 0 35 -3 9 -5 1 -5 -18z"/>
<path d="M9460 460 c0 -5 -7 -10 -15 -10 -8 0 -15 -9 -15 -20 0 -13 7 -20 20
-20 16 0 20 7 20 30 0 17 -2 30 -5 30 -3 0 -5 -4 -5 -10z m0 -30 c0 -5 -4 -10
-10 -10 -5 0 -10 5 -10 10 0 6 5 10 10 10 6 0 10 -4 10 -10z"/>
<path d="M9561 470 c-2 -3 -4 -17 -5 -32 -3 -40 38 -45 66 -8 11 16 27 26 34
23 17 -6 18 -30 2 -36 -7 -3 -4 -6 8 -6 17 -1 20 4 16 27 -5 37 -37 36 -66 -1
-24 -29 -42 -25 -49 13 -2 14 -5 23 -6 20z"/>
</g>
</svg>
