<svg xmlns="http://www.w3.org/2000/svg" width="712" height="558" style="background:0 0;background-color:transparent;color-scheme:light dark" viewBox="0 0 712 558"><g data-cell-id="0"><g data-cell-id="1"><g data-cell-id="niz2KVPhyJ1uYrMAdZOw-1"><rect width="150" height="70" x="201" y="248" fill="#9f3" stroke="#000" stroke-width="2" pointer-events="all" rx="10.5" ry="10.5" style="fill:#9f3;stroke:#000"/><text x="276" y="288" font-family="'Times New Roman'" font-size="12" font-weight="bold" style="fill:#000" text-anchor="middle">STM32 Nucleo-U545RE-Q</text></g><g data-cell-id="niz2KVPhyJ1uYrMAdZOw-2"><rect width="120" height="60" x="216" y="138" stroke="#9f3" stroke-width="2" pointer-events="all" rx="9" ry="9" style="fill:#000;stroke:#9f3"/><text x="276" y="173" fill="#fff" font-family="'Times New Roman'" font-size="12" font-weight="bold" style="fill:#fff" text-anchor="middle">Raspberry Pi Pico H</text></g><g data-cell-id="niz2KVPhyJ1uYrMAdZOw-3"><rect width="120" height="60" x="216" y="368" stroke="#9f3" stroke-width="2" pointer-events="all" rx="9" ry="9" style="fill:#000;stroke:#9f3"/><text x="276" y="403" fill="#fff" font-family="'Times New Roman'" font-size="12" font-weight="bold" style="fill:#fff" text-anchor="middle">Raspberry Pi Pico H</text></g><g stroke="#000" stroke-miterlimit="10" stroke-width="2" data-cell-id="niz2KVPhyJ1uYrMAdZOw-4"><path fill="none" d="M276 239.76v-33.52" pointer-events="stroke" style="stroke:light-dark(#000,#fff)"/><path d="m276 245.76-4-8 4 2 4-2ZM276 200.24l4 8-4-2-4 2Z" pointer-events="all" style="fill:light-dark(#000,#fff);stroke:light-dark(#000,#fff)"/></g><g stroke="#000" stroke-miterlimit="10" stroke-width="2" data-cell-id="niz2KVPhyJ1uYrMAdZOw-5"><path fill="none" d="M276 359.76v-33.52" pointer-events="stroke" style="stroke:light-dark(#000,#fff)"/><path d="m276 365.76-4-8 4 2 4-2ZM276 320.24l4 8-4-2-4 2Z" pointer-events="all" style="fill:light-dark(#000,#fff);stroke:light-dark(#000,#fff)"/></g><g data-cell-id="niz2KVPhyJ1uYrMAdZOw-6"><path fill="none" d="M241 208h170v30H241z" pointer-events="all"/><g fill="#121212" font-family="'Times New Roman'" font-size="12" font-weight="bold" style="fill:light-dark(#121212,#fff)" text-anchor="middle"><text x="326" y="221">UART / Serial </text><text x="326" y="235">Communication</text></g></g><g data-cell-id="niz2KVPhyJ1uYrMAdZOw-7"><path fill="none" d="M296 328h70v30h-70z" pointer-events="all"/><g fill="#121212" font-family="'Times New Roman'" font-size="12" font-weight="bold" style="fill:light-dark(#121212,#fff)" text-anchor="middle"><text x="331" y="341">UART / Serial </text><text x="331" y="355">Communication</text></g></g><g stroke="#000" stroke-miterlimit="10" stroke-width="2" data-cell-id="niz2KVPhyJ1uYrMAdZOw-8"><path fill="none" d="M371 168h-26.76" pointer-events="stroke" style="stroke:light-dark(#000,#fff)"/><path d="m338.24 168 8-4-2 4 2 4Z" pointer-events="all" style="fill:light-dark(#000,#fff);stroke:light-dark(#000,#fff)"/></g><g stroke="#000" stroke-miterlimit="10" stroke-width="2" data-cell-id="niz2KVPhyJ1uYrMAdZOw-9"><path fill="none" d="M371 398h-26.76" pointer-events="stroke" style="stroke:light-dark(#000,#fff)"/><path d="m338.24 398 8-4-2 4 2 4Z" pointer-events="all" style="fill:light-dark(#000,#fff);stroke:light-dark(#000,#fff)"/></g><g data-cell-id="niz2KVPhyJ1uYrMAdZOw-10"><path fill="none" d="M331 138h60v30h-60z" pointer-events="all"/><text x="361" y="158" fill="#121212" font-family="'Times New Roman'" font-size="12" font-weight="bold" style="fill:light-dark(#121212,#fff)" text-anchor="middle">5V</text></g><g stroke="#000" stroke-miterlimit="10" stroke-width="2" data-cell-id="niz2KVPhyJ1uYrMAdZOw-12"><path fill="none" d="M391 283h-34.76" pointer-events="stroke" style="stroke:light-dark(#000,#fff)"/><path d="m350.24 283 8-4-2 4 2 4Z" pointer-events="all" style="fill:light-dark(#000,#fff);stroke:light-dark(#000,#fff)"/></g><g data-cell-id="niz2KVPhyJ1uYrMAdZOw-13"><path fill="none" d="M351 258h60v30h-60z" pointer-events="all"/><text x="381" y="278" fill="#121212" font-family="'Times New Roman'" font-size="12" font-weight="bold" style="fill:light-dark(#121212,#fff)" text-anchor="middle">5V</text></g><g data-cell-id="niz2KVPhyJ1uYrMAdZOw-14"><path fill="none" d="M331 368h60v30h-60z" pointer-events="all"/><text x="361" y="388" fill="#121212" font-family="'Times New Roman'" font-size="12" font-weight="bold" style="fill:light-dark(#121212,#fff)" text-anchor="middle">5V</text></g><g data-cell-id="niz2KVPhyJ1uYrMAdZOw-15"><rect width="100" height="40" x="341" y="38" stroke="#9f3" stroke-width="2" pointer-events="all" rx="6" ry="6" style="fill:#000;stroke:#9f3"/><text x="391" y="63" fill="#fff" font-family="'Times New Roman'" font-size="12" font-weight="bold" style="fill:#fff" text-anchor="middle">OLED Display</text></g><g data-cell-id="niz2KVPhyJ1uYrMAdZOw-16"><rect width="100" height="40" x="341" y="478" stroke="#9f3" stroke-width="2" pointer-events="all" rx="6" ry="6" style="fill:#000;stroke:#9f3"/><text x="391" y="503" fill="#fff" font-family="'Times New Roman'" font-size="12" font-weight="bold" style="fill:#fff" text-anchor="middle">OLED Display</text></g><g stroke="#000" stroke-miterlimit="10" stroke-width="2" data-cell-id="niz2KVPhyJ1uYrMAdZOw-17"><path fill="none" d="m306 428 77.9 45.82" pointer-events="stroke" style="stroke:light-dark(#000,#fff)"/><path d="m389.07 476.87-8.92-.61 3.75-2.44.31-4.46Z" pointer-events="all" style="fill:light-dark(#000,#fff);stroke:light-dark(#000,#fff)"/></g><g data-cell-id="niz2KVPhyJ1uYrMAdZOw-18"><path fill="none" d="M331 428h60v30h-60z" pointer-events="all"/><text x="361" y="448" fill="#121212" font-family="'Times New Roman'" font-size="12" font-weight="bold" style="fill:light-dark(#121212,#fff)" text-anchor="middle">I2C</text></g><g data-cell-id="niz2KVPhyJ1uYrMAdZOw-19"><path fill="none" d="M291 438h60v30h-60z" pointer-events="all"/><text x="321" y="458" fill="#121212" font-family="'Times New Roman'" font-size="12" font-weight="bold" style="fill:light-dark(#121212,#fff)" text-anchor="middle">3.3V</text></g><g stroke="#000" stroke-miterlimit="10" stroke-width="2" data-cell-id="niz2KVPhyJ1uYrMAdZOw-20"><path fill="none" d="m306 138 78.27-55.25" pointer-events="stroke" style="stroke:light-dark(#000,#fff)"/><path d="m389.17 79.29-4.23 7.88-.67-4.42-3.94-2.11Z" pointer-events="all" style="fill:light-dark(#000,#fff);stroke:light-dark(#000,#fff)"/></g><g data-cell-id="niz2KVPhyJ1uYrMAdZOw-21"><path fill="none" d="M321 78h60v30h-60z" pointer-events="all"/><text x="351" y="98" fill="#121212" font-family="'Times New Roman'" font-size="12" font-weight="bold" style="fill:light-dark(#121212,#fff)" text-anchor="middle">I2C</text></g><g data-cell-id="niz2KVPhyJ1uYrMAdZOw-22"><path fill="none" d="M341 98h60v30h-60z" pointer-events="all"/><text x="371" y="118" fill="#121212" font-family="'Times New Roman'" font-size="12" font-weight="bold" style="fill:light-dark(#121212,#fff)" text-anchor="middle">3.3V</text></g><g data-cell-id="niz2KVPhyJ1uYrMAdZOw-23"><rect width="100" height="40" x="141" y="38" stroke="#9f3" stroke-width="2" pointer-events="all" rx="6" ry="6" style="fill:#000;stroke:#9f3"/><text x="191" y="63" fill="#fff" font-family="'Times New Roman'" font-size="12" font-weight="bold" style="fill:#fff" text-anchor="middle">Arcade Buttons</text></g><g data-cell-id="niz2KVPhyJ1uYrMAdZOw-24"><rect width="100" height="40" x="141" y="478" stroke="#9f3" stroke-width="2" pointer-events="all" rx="6" ry="6" style="fill:#000;stroke:#9f3"/><text x="191" y="503" fill="#fff" font-family="'Times New Roman'" font-size="12" font-weight="bold" style="fill:#fff" text-anchor="middle">Arcade Buttons</text></g><g stroke="#000" stroke-miterlimit="10" stroke-width="2" data-cell-id="niz2KVPhyJ1uYrMAdZOw-25"><path fill="none" d="m191 78 49.43 53.93" pointer-events="stroke" style="stroke:light-dark(#000,#fff)"/><path d="m244.49 136.35-8.36-3.19 4.3-1.23 1.6-4.18Z" pointer-events="all" style="fill:light-dark(#000,#fff);stroke:light-dark(#000,#fff)"/></g><g stroke="#000" stroke-miterlimit="10" stroke-width="2" data-cell-id="niz2KVPhyJ1uYrMAdZOw-26"><path fill="none" d="m191 478 48.91-44.46" pointer-events="stroke" style="stroke:light-dark(#000,#fff)"/><path d="m244.35 429.5-3.23 8.35-1.21-4.31-4.17-1.61Z" pointer-events="all" style="fill:light-dark(#000,#fff);stroke:light-dark(#000,#fff)"/></g><g stroke="#000" stroke-miterlimit="10" stroke-width="2" data-cell-id="niz2KVPhyJ1uYrMAdZOw-27"><path fill="none" d="M191 8v21.76" pointer-events="stroke" style="stroke:light-dark(#000,#fff)"/><path d="m191 35.76-4-8 4 2 4-2Z" pointer-events="all" style="fill:light-dark(#000,#fff);stroke:light-dark(#000,#fff)"/></g><g data-cell-id="niz2KVPhyJ1uYrMAdZOw-28"><path fill="none" d="M181 8h60v30h-60z" pointer-events="all"/><text x="211" y="28" fill="#121212" font-family="'Times New Roman'" font-size="12" font-weight="bold" style="fill:light-dark(#121212,#fff)" text-anchor="middle">5V</text></g><g stroke="#000" stroke-miterlimit="10" stroke-width="2" data-cell-id="niz2KVPhyJ1uYrMAdZOw-29"><path fill="none" d="M191 548v-21.76" pointer-events="stroke" style="stroke:light-dark(#000,#fff)"/><path d="m191 520.24 4 8-4-2-4 2Z" pointer-events="all" style="fill:light-dark(#000,#fff);stroke:light-dark(#000,#fff)"/></g><g data-cell-id="niz2KVPhyJ1uYrMAdZOw-30"><path fill="none" d="M181 518h60v30h-60z" pointer-events="all"/><text x="211" y="538" fill="#121212" font-family="'Times New Roman'" font-size="12" font-weight="bold" style="fill:light-dark(#121212,#fff)" text-anchor="middle">5V</text></g><g data-cell-id="niz2KVPhyJ1uYrMAdZOw-31"><path fill="none" d="M211 88h60v30h-60z" pointer-events="all"/><text x="241" y="108" fill="#121212" font-family="'Times New Roman'" font-size="12" font-weight="bold" style="fill:light-dark(#121212,#fff)" text-anchor="middle">GPIO</text></g><g data-cell-id="niz2KVPhyJ1uYrMAdZOw-32"><path fill="none" d="M211 438h60v30h-60z" pointer-events="all"/><text x="241" y="458" fill="#121212" font-family="'Times New Roman'" font-size="12" font-weight="bold" style="fill:light-dark(#121212,#fff)" text-anchor="middle">GPIO</text></g><g data-cell-id="niz2KVPhyJ1uYrMAdZOw-33"><rect width="130" height="40" x="1" y="198" stroke="#9f3" stroke-width="2" pointer-events="all" rx="6" ry="6" style="fill:#000;stroke:#9f3"/><text x="66" y="223" fill="#fff" font-family="'Times New Roman'" font-size="12" font-weight="bold" style="fill:#fff" text-anchor="middle">2 x IR Sensors (Goals)</text></g><g data-cell-id="niz2KVPhyJ1uYrMAdZOw-34"><rect width="100" height="40" x="31" y="318" stroke="#9f3" stroke-width="2" pointer-events="all" rx="6" ry="6" style="fill:#000;stroke:#9f3"/><g fill="#fff" font-family="'Times New Roman'" font-size="12" font-weight="bold" style="fill:#fff" text-anchor="middle"><text x="81" y="336">4 x Endstops </text><text x="81" y="350">SS-5GL2</text></g></g><g stroke="#000" stroke-miterlimit="10" stroke-width="2" data-cell-id="niz2KVPhyJ1uYrMAdZOw-35"><path fill="none" d="M166 208h-26.76" pointer-events="stroke" style="stroke:light-dark(#000,#fff)"/><path d="m133.24 208 8-4-2 4 2 4Z" pointer-events="all" style="fill:light-dark(#000,#fff);stroke:light-dark(#000,#fff)"/></g><g data-cell-id="niz2KVPhyJ1uYrMAdZOw-36"><path fill="none" d="M121 178h60v30h-60z" pointer-events="all"/><text x="151" y="198" fill="#121212" font-family="'Times New Roman'" font-size="12" font-weight="bold" style="fill:light-dark(#121212,#fff)" text-anchor="middle">5V</text></g><g stroke="#000" stroke-miterlimit="10" stroke-width="2" data-cell-id="niz2KVPhyJ1uYrMAdZOw-37"><path fill="none" d="m131 228 62.08 17.74" pointer-events="stroke" style="stroke:light-dark(#000,#fff)"/><path d="m198.85 247.39-8.79 1.64 3.02-3.29-.82-4.4Z" pointer-events="all" style="fill:light-dark(#000,#fff);stroke:light-dark(#000,#fff)"/></g><g data-cell-id="niz2KVPhyJ1uYrMAdZOw-38"><path fill="none" d="M161 218h60v30h-60z" pointer-events="all"/><text x="191" y="238" fill="#121212" font-family="'Times New Roman'" font-size="12" font-weight="bold" style="fill:light-dark(#121212,#fff)" text-anchor="middle">GPIO</text></g><g stroke="#000" stroke-miterlimit="10" stroke-width="2" data-cell-id="niz2KVPhyJ1uYrMAdZOw-40"><path fill="none" d="m131 338 62.08-17.74" pointer-events="stroke" style="stroke:light-dark(#000,#fff)"/><path d="m198.85 318.61-6.59 6.05.82-4.4-3.02-3.29Z" pointer-events="all" style="fill:light-dark(#000,#fff);stroke:light-dark(#000,#fff)"/></g><g data-cell-id="niz2KVPhyJ1uYrMAdZOw-41"><path fill="none" d="M141 303h60v30h-60z" pointer-events="all"/><text x="171" y="323" fill="#121212" font-family="'Times New Roman'" font-size="12" font-weight="bold" style="fill:light-dark(#121212,#fff)" text-anchor="middle">GPIO</text></g><g data-cell-id="niz2KVPhyJ1uYrMAdZOw-42"><rect width="100" height="40" x="461" y="148" stroke="#9f3" stroke-width="2" pointer-events="all" rx="6" ry="6" style="fill:#000;stroke:#9f3"/><text x="511" y="173" fill="#fff" font-family="'Times New Roman'" font-size="12" font-weight="bold" style="fill:#fff" text-anchor="middle">A4988 Drivers</text></g><g data-cell-id="niz2KVPhyJ1uYrMAdZOw-43"><rect width="100" height="40" x="461" y="378" stroke="#9f3" stroke-width="2" pointer-events="all" rx="6" ry="6" style="fill:#000;stroke:#9f3"/><text x="511" y="403" fill="#fff" font-family="'Times New Roman'" font-size="12" font-weight="bold" style="fill:#fff" text-anchor="middle">A4988 Drivers</text></g><g stroke="#000" stroke-miterlimit="10" stroke-width="2" data-cell-id="niz2KVPhyJ1uYrMAdZOw-44"><path fill="none" d="m351 258 103.05-65.58" pointer-events="stroke" style="stroke:light-dark(#000,#fff)"/><path d="m459.11 189.2-4.6 7.67-.46-4.45-3.83-2.3Z" pointer-events="all" style="fill:light-dark(#000,#fff);stroke:light-dark(#000,#fff)"/></g><g stroke="#000" stroke-miterlimit="10" stroke-width="2" data-cell-id="niz2KVPhyJ1uYrMAdZOw-45"><path fill="none" d="m351 300.5 103.27 72.76" pointer-events="stroke" style="stroke:light-dark(#000,#fff)"/><path d="m459.17 376.71-8.84-1.34 3.94-2.11.67-4.43Z" pointer-events="all" style="fill:light-dark(#000,#fff);stroke:light-dark(#000,#fff)"/></g><g data-cell-id="niz2KVPhyJ1uYrMAdZOw-46"><path fill="none" d="M381 188h60v30h-60z" pointer-events="all"/><text x="411" y="208" fill="#121212" font-family="'Times New Roman'" font-size="12" font-weight="bold" style="fill:light-dark(#121212,#fff)" text-anchor="middle">GPIO</text></g><g data-cell-id="niz2KVPhyJ1uYrMAdZOw-47"><path fill="none" d="M391 308h60v30h-60z" pointer-events="all"/><text x="421" y="328" fill="#121212" font-family="'Times New Roman'" font-size="12" font-weight="bold" style="fill:light-dark(#121212,#fff)" text-anchor="middle">GPIO</text></g><g data-cell-id="niz2KVPhyJ1uYrMAdZOw-48"><rect width="100" height="40" x="521" y="38" stroke="#9f3" stroke-width="2" pointer-events="all" rx="6" ry="6" style="fill:#000;stroke:#9f3"/><g fill="#fff" font-family="'Times New Roman'" font-size="12" font-weight="bold" style="fill:#fff" text-anchor="middle"><text x="571" y="56">NEMA 17 </text><text x="571" y="70">Stepper Motors</text></g></g><g stroke="#000" stroke-miterlimit="10" stroke-width="2" data-cell-id="niz2KVPhyJ1uYrMAdZOw-49"><path fill="none" d="m511 148 54.64-63.75" pointer-events="stroke" style="stroke:light-dark(#000,#fff)"/><path d="m569.54 79.7-2.16 8.67-1.74-4.12-4.34-1.08Z" pointer-events="all" style="fill:light-dark(#000,#fff);stroke:light-dark(#000,#fff)"/></g><g data-cell-id="niz2KVPhyJ1uYrMAdZOw-50"><rect width="100" height="40" x="521" y="478" stroke="#9f3" stroke-width="2" pointer-events="all" rx="6" ry="6" style="fill:#000;stroke:#9f3"/><g fill="#fff" font-family="'Times New Roman'" font-size="12" font-weight="bold" style="fill:#fff" text-anchor="middle"><text x="571" y="496">NEMA 17 </text><text x="571" y="510">Stepper Motors</text></g></g><g stroke="#000" stroke-miterlimit="10" stroke-width="2" data-cell-id="niz2KVPhyJ1uYrMAdZOw-51"><path fill="none" d="m511 418 54.18 54.18" pointer-events="stroke" style="stroke:light-dark(#000,#fff)"/><path d="m569.42 476.42-8.49-2.83 4.25-1.41 1.41-4.25Z" pointer-events="all" style="fill:light-dark(#000,#fff);stroke:light-dark(#000,#fff)"/></g><g data-cell-id="niz2KVPhyJ1uYrMAdZOw-52"><path fill="none" d="M536 108h80v30h-80z" pointer-events="all"/><text x="576" y="128" fill="#121212" font-family="'Times New Roman'" font-size="12" font-weight="bold" style="fill:light-dark(#121212,#fff)" text-anchor="middle">Motor Phase</text></g><g data-cell-id="niz2KVPhyJ1uYrMAdZOw-53"><path fill="none" d="M521 428h110v30H521z" pointer-events="all"/><text x="576" y="448" fill="#121212" font-family="'Times New Roman'" font-size="12" font-weight="bold" style="fill:light-dark(#121212,#fff)" text-anchor="middle">Motor Phase</text></g><g data-cell-id="niz2KVPhyJ1uYrMAdZOw-54"><path fill="none" d="M491 98h60v30h-60z" pointer-events="all"/><text x="521" y="118" fill="#121212" font-family="'Times New Roman'" font-size="12" font-weight="bold" style="fill:light-dark(#121212,#fff)" text-anchor="middle">12V</text></g><g data-cell-id="niz2KVPhyJ1uYrMAdZOw-55"><path fill="none" d="M491 438h60v30h-60z" pointer-events="all"/><text x="521" y="458" fill="#121212" font-family="'Times New Roman'" font-size="12" font-weight="bold" style="fill:light-dark(#121212,#fff)" text-anchor="middle">12V</text></g><g data-cell-id="niz2KVPhyJ1uYrMAdZOw-56"><rect width="100" height="40" x="461" y="263" stroke="#9f3" stroke-width="2" pointer-events="all" rx="6" ry="6" style="fill:#000;stroke:#9f3"/><g fill="#fff" font-family="'Times New Roman'" font-size="12" font-weight="bold" style="fill:#fff" text-anchor="middle"><text x="511" y="281">Power Adapter </text><text x="511" y="295">12V 5A</text></g></g><g data-cell-id="niz2KVPhyJ1uYrMAdZOw-57"><rect width="100" height="45" x="611" y="263" stroke="#9f3" stroke-width="2" pointer-events="all" rx="6.75" ry="6.75" style="fill:#000;stroke:#9f3"/><g fill="#fff" font-family="'Times New Roman'" font-size="12" font-weight="bold" style="fill:#fff" text-anchor="middle"><text x="661" y="283.5">LM2596 </text><text x="661" y="297.5">Step-Down Module</text></g></g><g stroke="#000" stroke-miterlimit="10" stroke-width="2" data-cell-id="niz2KVPhyJ1uYrMAdZOw-58"><path fill="none" d="M511 263v-66.76" pointer-events="stroke" style="stroke:light-dark(#000,#fff)"/><path d="m511 190.24 4 8-4-2-4 2Z" pointer-events="all" style="fill:light-dark(#000,#fff);stroke:light-dark(#000,#fff)"/></g><g stroke="#000" stroke-miterlimit="10" stroke-width="2" data-cell-id="niz2KVPhyJ1uYrMAdZOw-59"><path fill="none" d="M511 303v66.76" pointer-events="stroke" style="stroke:light-dark(#000,#fff)"/><path d="m511 375.76-4-8 4 2 4-2Z" pointer-events="all" style="fill:light-dark(#000,#fff);stroke:light-dark(#000,#fff)"/></g><g data-cell-id="niz2KVPhyJ1uYrMAdZOw-60"><path fill="none" d="M501 208h60v30h-60z" pointer-events="all"/><text x="531" y="228" fill="#121212" font-family="'Times New Roman'" font-size="12" font-weight="bold" style="fill:light-dark(#121212,#fff)" text-anchor="middle">12V</text></g><g data-cell-id="niz2KVPhyJ1uYrMAdZOw-61"><path fill="none" d="M501 323h60v30h-60z" pointer-events="all"/><text x="531" y="343" fill="#121212" font-family="'Times New Roman'" font-size="12" font-weight="bold" style="fill:light-dark(#121212,#fff)" text-anchor="middle">12V</text></g><g stroke="#000" stroke-miterlimit="10" stroke-width="2" data-cell-id="niz2KVPhyJ1uYrMAdZOw-62"><path fill="none" d="M561 283h41.76" pointer-events="stroke" style="stroke:light-dark(#000,#fff)"/><path d="m608.76 283-8 4 2-4-2-4Z" pointer-events="all" style="fill:light-dark(#000,#fff);stroke:light-dark(#000,#fff)"/></g><g data-cell-id="niz2KVPhyJ1uYrMAdZOw-63"><path fill="none" d="M561 263h50v20h-50z" pointer-events="all"/><text x="586" y="278" fill="#121212" font-family="'Times New Roman'" font-size="12" font-weight="bold" style="fill:light-dark(#121212,#fff)" text-anchor="middle">12V</text></g><g stroke="#000" stroke-miterlimit="10" stroke-width="2" data-cell-id="niz2KVPhyJ1uYrMAdZOw-64"><path fill="none" d="M661 263v-16.76" pointer-events="stroke" style="stroke:light-dark(#000,#fff)"/><path d="m661 240.24 4 8-4-2-4 2Z" pointer-events="all" style="fill:light-dark(#000,#fff);stroke:light-dark(#000,#fff)"/></g><g data-cell-id="niz2KVPhyJ1uYrMAdZOw-65"><path fill="none" d="M631 208h60v30h-60z" pointer-events="all"/><text x="661" y="228" fill="#121212" font-family="'Times New Roman'" font-size="12" font-weight="bold" style="fill:light-dark(#121212,#fff)" text-anchor="middle">5V</text></g></g></g></svg>